<svg width="89" height="98" viewBox="0 0 89 98" fill="none" xmlns="http://www.w3.org/2000/svg">
<path d="M56.9232 64.4394L15.6867 73.6303C15.4481 73.6849 15.2009 73.6917 14.9596 73.6503C14.7183 73.609 14.4876 73.5203 14.2807 73.3893C14.0738 73.2584 13.8949 73.0878 13.7542 72.8875C13.6135 72.6871 13.5139 72.4608 13.461 72.2218L0.087575 12.1712C0.034299 11.9333 0.0284886 11.6872 0.0704779 11.447C0.112467 11.2068 0.20143 10.9773 0.332272 10.7715C0.463113 10.5658 0.633262 10.3879 0.832971 10.248C1.03268 10.1081 1.25803 10.009 1.4961 9.95631L42.7326 0.76541C42.9707 0.712111 43.2169 0.706277 43.4572 0.74824C43.6976 0.790204 43.9273 0.879142 44.1332 1.00997C44.3391 1.14079 44.5172 1.31093 44.6573 1.51066C44.7974 1.71039 44.8968 1.93578 44.9497 2.17394L58.3317 62.2245C58.385 62.4624 58.3908 62.7085 58.3488 62.9487C58.3069 63.1889 58.2179 63.4184 58.087 63.6242C57.9562 63.8299 57.7861 64.0078 57.5863 64.1477C57.3866 64.2876 57.1613 64.3867 56.9232 64.4394Z" fill="#E0E0E0"/>
<path d="M56.9233 64.4394L57.0609 64.4007C57.1946 64.3571 57.3236 64.3002 57.4459 64.2308C57.6464 64.1129 57.8235 63.9591 57.9684 63.7771C58.1659 63.5275 58.2955 63.2312 58.3447 62.9169C58.3759 62.7268 58.3759 62.5328 58.3447 62.3427C58.3103 62.1427 58.2566 61.932 58.2093 61.7127C58.1103 61.2826 57.9942 60.7923 57.8867 60.2719C57.653 59.2296 57.3842 58.0304 57.0803 56.6742C55.8696 51.2616 54.1192 43.4298 51.9558 33.7507C50.8806 28.9123 49.6936 23.6115 48.4227 17.9193C47.789 15.075 47.1332 12.1361 46.4551 9.10259C46.1182 7.58582 45.7755 6.04827 45.4272 4.48993C45.2508 3.71148 45.0766 2.92657 44.8982 2.13737C44.8012 1.744 44.5749 1.39464 44.2554 1.14543C43.936 0.896211 43.5421 0.76161 43.137 0.76325C42.935 0.76773 42.7342 0.796611 42.5392 0.849266L41.937 0.982593L40.7263 1.25355L38.2835 1.7976L33.3117 2.90722L23.0671 5.19742L1.51126 9.99716C1.05561 10.0981 0.656381 10.3708 0.396486 10.7584C0.136591 11.1461 0.0360095 11.6189 0.115634 12.0788C0.311322 12.9927 0.522063 13.9088 0.722052 14.8206C1.1292 16.6412 1.53276 18.4512 1.93274 20.2504L4.2982 30.8756C5.85081 37.8408 7.3475 44.5501 8.77323 50.9584C10.199 57.3666 11.5516 63.4308 12.8203 69.1316C12.978 69.8484 13.135 70.5537 13.2913 71.2476C13.3708 71.596 13.4418 71.9487 13.5257 72.2906C13.616 72.6273 13.8011 72.9311 14.059 73.1658C14.3152 73.3971 14.631 73.552 14.9707 73.6131C15.1392 73.6405 15.3106 73.6456 15.4804 73.6281C15.6481 73.6066 15.818 73.5658 15.9857 73.5271L17.9878 73.0819L25.5852 71.3917L48.513 66.2973L54.7492 64.9168L56.3707 64.5598L56.9233 64.4394L56.3728 64.5684L54.7514 64.934L48.5152 66.3296L25.5917 71.4541L18.0028 73.1507L16.0008 73.598C15.8331 73.6346 15.6653 73.6776 15.489 73.7012C15.3127 73.7192 15.1348 73.7134 14.96 73.6841C14.6042 73.6223 14.2735 73.4601 14.0068 73.2167C13.7401 72.9732 13.5486 72.6586 13.4547 72.3099C13.3687 71.9637 13.2977 71.6153 13.2182 71.267C13.0619 70.5688 12.9042 69.8635 12.7451 69.151C11.4763 63.4588 10.1194 57.3774 8.69151 50.9777C7.26364 44.5781 5.76694 37.8602 4.21219 30.895L1.84672 20.2719C1.44675 18.4741 1.04318 16.6628 0.636036 14.8378C0.433896 13.926 0.225305 13.0142 0.0274664 12.0917C-0.0553151 11.6099 0.0506522 11.1148 0.323359 10.7092C0.596066 10.3035 1.01455 10.0185 1.4919 9.91329L23.0499 5.1071L33.3009 2.83196L38.2706 1.72449L40.7134 1.18043L41.9263 0.896576L42.5284 0.76325C42.7272 0.711705 42.9316 0.684269 43.137 0.681534C43.5567 0.682512 43.9642 0.823161 44.2951 1.08131C44.6261 1.33945 44.8617 1.70041 44.9648 2.10726C45.1412 2.89862 45.3175 3.68137 45.4917 4.46198C45.8429 6.02175 46.1884 7.55715 46.5282 9.06818C47.2005 12.1003 47.855 15.0392 48.4915 17.8849C49.7581 23.5771 50.9365 28.8779 52.0139 33.7185C54.1643 43.3954 55.9062 51.2336 57.1104 56.6484C57.4093 58.001 57.676 59.2053 57.9082 60.2461C58.0222 60.7686 58.1233 61.2482 58.2265 61.689C58.2738 61.904 58.3275 62.1191 58.3598 62.3191C58.392 62.5113 58.392 62.7075 58.3598 62.8997C58.3108 63.2198 58.1788 63.5216 57.977 63.7749C57.8302 63.9567 57.6517 64.1104 57.4502 64.2286C57.3263 64.2983 57.195 64.3538 57.0588 64.3942L56.9233 64.4394Z" fill="#263238"/>
<g opacity="0.3">
<path d="M17.777 71.5035L55.3492 62.9148L54.1622 55.5517L52.0311 51.425L16.089 65.5426L17.777 71.5035Z" fill="black"/>
</g>
<g opacity="0.3">
<path d="M33.4644 2.96745L34.8858 5.31356L35.1611 6.55866L34.1977 6.7737L33.4644 2.96745Z" fill="black"/>
</g>
<path d="M2.22736 12.5196L15.2632 71.0111L56.1234 61.9062L53.7923 51.4465L43.0875 3.41257L2.22736 12.5196Z" fill="white"/>
<path d="M2.22734 12.5196L43.0854 3.37816H43.1198V3.41472C46.7454 19.6698 51.2677 39.9547 56.1621 61.9062V61.9513H56.1191L15.261 71.0541H15.2223V71.0132C7.54748 36.4731 2.30475 12.8701 2.22519 12.5217C2.30475 12.8787 7.58189 36.4753 15.3019 71.0132L15.2524 70.9831L56.1105 61.8718L56.0761 61.9255C51.1881 39.9783 46.6701 19.6934 43.0509 3.43407L43.094 3.46202L2.22734 12.5196Z" fill="#263238"/>
<path d="M13.7332 5.55991L31.7527 1.54527C32.1051 1.46676 32.4743 1.53145 32.7789 1.72511C33.0836 1.91876 33.2989 2.22552 33.3774 2.5779L34.4184 7.25018L13.7373 11.8578L12.6973 7.1897C12.6577 7.01464 12.6531 6.83348 12.6838 6.65664C12.7145 6.4798 12.7799 6.31078 12.8762 6.15931C12.9725 6.00783 13.0977 5.87689 13.2448 5.77402C13.3919 5.67116 13.5579 5.59839 13.7332 5.55991Z" fill="#263238"/>
<path d="M24.8734 0.713791L19.6114 1.88577L21.2306 6.25973L25.1939 5.37591L24.8734 0.713791Z" fill="#263238"/>
<path d="M31.7526 1.54171C31.7526 1.56536 27.7292 2.48359 22.7553 3.59321C17.7814 4.70283 13.7407 5.58665 13.7343 5.56299C13.7278 5.53934 17.7577 4.62111 22.7359 3.51149C27.7142 2.40188 31.7397 1.5245 31.7526 1.54171Z" fill="#455A64"/>
<path d="M13.9902 10.7885C13.9665 10.7885 13.7579 9.94985 13.5257 8.90475C13.2934 7.85964 13.1214 7.00592 13.1472 6.99947C13.173 6.99302 13.3794 7.83814 13.6117 8.88539C13.8439 9.93265 14.0138 10.7885 13.9902 10.7885Z" fill="#455A64"/>
<path d="M33.4321 5.98018C33.2593 5.41449 33.1158 4.84028 33.002 4.25984C32.8597 3.69252 32.7463 3.11833 32.6623 2.53951C32.8347 3.10166 32.9782 3.67227 33.0923 4.24909C33.235 4.81996 33.3484 5.39774 33.4321 5.98018Z" fill="#455A64"/>
<path d="M32.6128 7.00161C32.6128 7.02527 28.4819 7.96715 23.3768 9.10473C18.2717 10.2423 14.1299 11.1476 14.1192 11.1218C14.1084 11.096 18.248 10.1563 23.366 9.01871C28.484 7.88114 32.5999 6.97796 32.6128 7.00161Z" fill="#455A64"/>
<path d="M21.7295 24.0158C21.7295 24.0416 18.9447 24.6824 15.4933 25.4522C12.0419 26.2221 9.25709 26.8221 9.24203 26.7984C9.22698 26.7748 12.0376 26.1318 15.4783 25.3641C18.9189 24.5964 21.7231 23.9921 21.7295 24.0158Z" fill="#263238"/>
<path d="M42.5262 21.6739C42.5262 21.6998 35.2428 23.3448 26.2476 25.349C17.2523 27.3532 9.95166 28.9596 9.94736 28.9359C9.94306 28.9123 17.2287 27.265 26.2282 25.2609C35.2277 23.2567 42.5219 21.6503 42.5262 21.6739Z" fill="#263238"/>
<path d="M42.9757 23.6911C42.9757 23.7147 35.6901 25.3598 26.6949 27.3661C17.6996 29.3725 10.4011 30.9767 10.3947 30.9509C10.3882 30.9251 17.6781 29.2822 26.6755 27.278C35.6729 25.2738 42.9692 23.661 42.9757 23.6911Z" fill="#263238"/>
<path d="M43.423 25.6952C43.423 25.7189 36.1395 27.364 27.1443 29.3682C18.1491 31.3723 10.8484 32.9809 10.842 32.9551C10.8355 32.9293 18.1254 31.2863 27.1249 29.28C36.1245 27.2736 43.4165 25.6716 43.423 25.6952Z" fill="#263238"/>
<path d="M43.8702 27.7059C43.8702 27.7295 36.5868 29.3746 27.5915 31.3788C18.5963 33.383 11.2957 34.9893 11.2914 34.9657C11.2871 34.942 18.5727 33.297 27.5722 31.2906C36.5717 29.2843 43.8659 27.6801 43.8702 27.7059Z" fill="#263238"/>
<path d="M44.3197 29.7122C44.3197 29.738 37.0341 31.3831 28.0389 33.3873C19.0436 35.3915 11.7408 37 11.7408 36.9763C11.7408 36.9527 19.0243 35.3076 28.0217 33.3013C37.019 31.2949 44.3133 29.6907 44.3197 29.7122Z" fill="#263238"/>
<path d="M18.0566 43.8642C18.0479 43.8427 18.0414 43.8203 18.0373 43.7975L17.99 43.6061C17.9491 43.4319 17.891 43.1889 17.8201 42.8857C17.676 42.2642 17.4739 41.3912 17.233 40.3461L17.2803 40.3762L13.7536 41.1675C13.7536 41.1675 13.8181 41.0665 13.788 41.1138V41.1288V41.1589L13.8009 41.2191L13.8289 41.3396L13.8805 41.5783C13.9171 41.7374 13.9515 41.8944 13.9859 42.0514C14.0547 42.361 14.1235 42.6664 14.188 42.9631C14.3192 43.5545 14.4418 44.1136 14.5557 44.6276L14.5084 44.5975L17.0567 44.0491L17.7814 43.8986L17.9749 43.862L18.0437 43.8491C18.0437 43.8491 18.0265 43.8491 17.9835 43.8685L17.8007 43.9136L17.0911 44.0814L14.5364 44.6899H14.4977V44.6512L14.1235 42.9889C14.0568 42.6922 13.988 42.3868 13.9085 42.0772C13.874 41.9202 13.8375 41.7632 13.8031 41.6041C13.7837 41.5267 13.7665 41.4449 13.7493 41.3654L13.7214 41.245L13.7085 41.1847V41.1546V41.1396V41.1288C13.6784 41.1783 13.7493 41.0643 13.7429 41.0751L17.2717 40.2945H17.3104V40.3332L17.8652 42.9137C17.9276 43.2147 17.9771 43.4556 18.0136 43.6276C18.0287 43.705 18.0394 43.7652 18.0502 43.8147C18.0545 43.8308 18.0566 43.8475 18.0566 43.8642Z" fill="#263238"/>
<path d="M44.2705 35.17L19.6665 40.6516L20.1238 42.7044L44.7278 37.2228L44.2705 35.17Z" fill="#E0E0E0"/>
<path d="M19.42 49.9843C19.4119 49.9618 19.4054 49.9388 19.4006 49.9154C19.3877 49.866 19.3727 49.8015 19.3533 49.7241C19.3124 49.5499 19.2544 49.309 19.1834 49.0058C19.0393 48.3822 18.8372 47.5005 18.5964 46.464L18.6437 46.4941L15.117 47.2855C15.117 47.2984 15.1815 47.1844 15.1514 47.2339V47.2446V47.2597V47.2898L15.1643 47.35L15.1922 47.4704C15.2094 47.5521 15.2266 47.6317 15.246 47.7113L15.3492 48.1822C15.418 48.494 15.4868 48.7972 15.5514 49.094C15.6825 49.6853 15.8051 50.2445 15.9191 50.7584L15.8718 50.7283L18.4222 50.1821L19.1447 50.0316L19.3383 49.9929C19.3607 49.9866 19.3838 49.983 19.4071 49.9821L19.349 49.9993L19.1641 50.0445L18.4544 50.2143L15.889 50.8057H15.8503V50.767L15.4761 49.1047C15.4094 48.808 15.3406 48.5026 15.2611 48.193C15.2266 48.0381 15.1901 47.879 15.1557 47.722C15.1385 47.6424 15.1191 47.5629 15.1019 47.4812L15.074 47.3607L15.0611 47.3005V47.2704V47.2446L15.0955 47.1887L18.6222 46.4189H18.6609V46.4554C18.8888 47.5156 19.091 48.3908 19.2157 49.0359C19.278 49.337 19.3275 49.5778 19.3641 49.7499C19.3791 49.8273 19.3899 49.8875 19.4006 49.9369C19.4091 49.9518 19.4156 49.9677 19.42 49.9843Z" fill="#263238"/>
<path d="M45.6327 41.2902L21.0287 46.7718L21.4861 48.8246L46.0901 43.343L45.6327 41.2902Z" fill="#E0E0E0"/>
<path d="M20.7833 56.1022C20.7833 56.1022 20.7833 56.0764 20.764 56.0334C20.7446 55.9904 20.736 55.9194 20.7167 55.842C20.6758 55.6678 20.6178 55.427 20.5468 55.1238C20.4027 54.5023 20.2006 53.6185 19.9597 52.582L20.007 52.6121L16.4717 53.4034C16.4717 53.4163 16.5363 53.3024 16.5062 53.3518V53.3669V53.3819V53.412L16.5191 53.4722L16.547 53.5927C16.5642 53.6744 16.5814 53.754 16.6008 53.8335L16.704 54.3045C16.7728 54.6163 16.8416 54.9195 16.9061 55.2162L17.2739 56.8807L17.2265 56.8527L19.7769 56.3044L20.4995 56.1538L20.693 56.1151C20.7159 56.1126 20.739 56.1126 20.7618 56.1151L20.7038 56.1323L20.5188 56.1775L19.8092 56.3474L17.2437 56.9387H17.205V56.9C17.0911 56.3882 16.9642 55.8248 16.8309 55.2378C16.7642 54.941 16.6954 54.6378 16.6158 54.326C16.5814 54.1711 16.5449 54.0142 16.5105 53.855C16.4932 53.7755 16.4739 53.6959 16.4567 53.6163L16.4309 53.4959L16.4158 53.4357V53.4034V53.3669C16.3857 53.4142 16.4567 53.3002 16.4502 53.3131L19.9791 52.5325H20.0178V52.5712L20.5726 55.1517C20.635 55.4528 20.6844 55.6936 20.721 55.8678C20.736 55.9431 20.7489 56.0033 20.7575 56.0528C20.7684 56.068 20.7771 56.0846 20.7833 56.1022Z" fill="#263238"/>
<path d="M46.9977 47.4104L22.3937 52.892L22.8511 54.9448L47.4551 49.4632L46.9977 47.4104Z" fill="#E0E0E0"/>
<path d="M14.6675 42.6019L15.0374 42.0191L16.1363 42.6298L17.5513 40.4966L18.0975 40.8751L16.2739 43.5631L14.6675 42.6019Z" fill="#FF725E"/>
<path d="M15.9857 48.5155L16.3556 47.9328L17.4545 48.5435L18.8673 46.4103L19.4157 46.7887L17.59 49.4746L15.9857 48.5155Z" fill="#FF725E"/>
<path d="M17.3383 54.5776L17.7082 53.997L18.8049 54.6077L20.2199 52.4745L20.7661 52.8508L18.9426 55.5388L17.3383 54.5776Z" fill="#FF725E"/>
<path d="M28.6001 62.1836C28.6001 62.2094 26.5271 62.6932 23.9595 63.2588C21.3919 63.8244 19.306 64.2738 19.3017 64.2501C19.2974 64.2265 21.3726 63.7426 23.9402 63.1749C26.5078 62.6072 28.5937 62.1621 28.6001 62.1836Z" fill="#263238"/>
<path d="M33.2321 61.0783C32.6708 61.2512 32.1009 61.3948 31.5247 61.5084C30.9572 61.6495 30.3831 61.7622 29.8044 61.846C30.365 61.6735 30.9342 61.53 31.5096 61.4159C32.4537 61.2073 33.2278 61.0546 33.2321 61.0783Z" fill="#263238"/>
<path d="M48.5732 56.2506C48.5732 56.2742 46.7088 56.7129 44.3993 57.2269C42.0897 57.7408 40.2102 58.1386 40.2059 58.115C40.2016 58.0913 42.0682 57.6548 44.3799 57.1387C46.6916 56.6226 48.5689 56.2269 48.5732 56.2506Z" fill="#263238"/>
<path d="M46.5776 61.9105C46.5776 61.9105 46.597 61.8524 46.6185 61.7406C46.6469 61.5752 46.6381 61.4055 46.5927 61.2439C46.5162 60.9882 46.4169 60.7399 46.2959 60.502C46.1245 60.1862 46.0239 59.8369 46.0013 59.4784C46.0064 59.2577 46.0576 59.0406 46.1517 58.841C46.2458 58.6414 46.3806 58.4636 46.5475 58.3193C46.7431 58.1569 46.977 58.0473 47.227 58.001C47.477 57.9547 47.7346 57.9732 47.9754 58.0548C48.2398 58.1352 48.4756 58.2897 48.6549 58.4999C48.7505 58.6132 48.807 58.7542 48.8162 58.902C48.8186 58.9816 48.7955 59.0598 48.7502 59.1252C48.705 59.1906 48.6399 59.2397 48.5646 59.2655C48.424 59.311 48.2803 59.3462 48.1345 59.3708L47.7044 59.459C47.4163 59.5171 47.1238 59.5687 46.8228 59.6074C46.2397 59.6915 45.6478 59.6951 45.0637 59.6181C44.7999 59.5613 44.5243 59.6059 44.2917 59.7429C44.107 59.9291 43.9505 60.1413 43.8272 60.3729C43.7524 60.487 43.6484 60.579 43.5262 60.6396C43.4018 60.6945 43.2613 60.7006 43.1326 60.6568C42.9114 60.5584 42.701 60.4373 42.5047 60.2955C42.4137 60.2349 42.3099 60.196 42.2015 60.1815C42.1001 60.1703 41.9979 60.1954 41.9134 60.2525C41.7646 60.3886 41.6415 60.5503 41.5499 60.7299C41.4521 60.884 41.3185 61.0121 41.1605 61.1035C41.0025 61.1948 40.8248 61.2467 40.6425 61.2546C40.3666 61.2656 40.0972 61.1702 39.8898 60.988C39.7595 60.8753 39.6572 60.734 39.5909 60.5751C39.5677 60.5206 39.5511 60.4636 39.5414 60.4052C39.5414 60.4052 39.5608 60.4632 39.6081 60.5686C39.6778 60.7206 39.7816 60.8545 39.9113 60.96C40.1136 61.1313 40.3735 61.2189 40.6382 61.2051C40.8121 61.1962 40.9812 61.1452 41.1311 61.0564C41.2809 60.9676 41.4069 60.8438 41.4983 60.6955C41.5929 60.5074 41.7212 60.3383 41.8768 60.1966C41.9747 60.1286 42.0935 60.0973 42.2123 60.1084C42.3299 60.1259 42.4427 60.1677 42.5434 60.231C42.7365 60.3676 42.9425 60.485 43.1585 60.5815C43.2689 60.6187 43.3893 60.6133 43.4961 60.5665C43.6055 60.5121 43.6972 60.4279 43.7606 60.3235C43.8884 60.0858 44.0507 59.8684 44.2423 59.6783C44.3614 59.5933 44.5009 59.5414 44.6465 59.5278C44.7895 59.5126 44.9337 59.5126 45.0766 59.5278C45.6544 59.6027 46.2396 59.5991 46.8163 59.5171C47.1131 59.4784 47.4034 59.4246 47.6915 59.3687L48.1216 59.2827C48.2597 59.2571 48.3961 59.2234 48.5302 59.1816C48.5891 59.1629 48.6403 59.1255 48.676 59.075C48.7117 59.0246 48.73 58.9638 48.728 58.902C48.7183 58.7733 48.6687 58.6508 48.5861 58.5515C48.4164 58.3497 48.1926 58.2004 47.941 58.1214C47.7129 58.044 47.4689 58.0259 47.2319 58.0687C46.9949 58.1116 46.7727 58.2141 46.5862 58.3666C46.426 58.503 46.2961 58.6714 46.205 58.861C46.1139 59.0507 46.0636 59.2573 46.0572 59.4676C46.0766 59.8181 46.1704 60.1605 46.3325 60.4719C46.4515 60.7131 46.5472 60.9651 46.6185 61.2245C46.6605 61.3907 46.6642 61.5642 46.6292 61.732C46.6191 61.7933 46.6018 61.8532 46.5776 61.9105Z" fill="#263238"/>
<path d="M51.0226 59.158C50.9863 59.1725 50.9489 59.1841 50.9108 59.1924L50.5839 59.2698L49.384 59.5472C48.3733 59.7837 46.9755 60.1149 45.4379 60.5041C43.9004 60.8933 42.5134 61.2697 41.5134 61.5449L40.3264 61.8718L40.0017 61.9578C39.9644 61.9695 39.9263 61.9781 39.8877 61.9836C39.9223 61.9647 39.9592 61.9503 39.9974 61.9406L40.3156 61.8395C40.593 61.7514 40.9952 61.6245 41.4941 61.4847C42.494 61.1923 43.8767 60.8073 45.4164 60.4095C46.9561 60.0117 48.3539 59.6977 49.3711 59.4805C49.8786 59.3708 50.2914 59.2848 50.5774 59.2289L50.9065 59.1666C50.9448 59.1602 50.9837 59.1573 51.0226 59.158Z" fill="#263238"/>
<path d="M33.3843 11.9728L16.6829 15.6938L17.382 18.8317L34.0835 15.1108L33.3843 11.9728Z" fill="#E0E0E0"/>
<path d="M54.5199 66.458L60.2536 95.7416L65.4938 86.3817L75.4255 92.017L64.8836 63.5023L54.5199 66.458Z" fill="#FF725E"/>
<g opacity="0.3">
<path d="M56.4486 76.3061C56.9945 76.4055 57.5571 76.3752 58.0882 76.2178C58.6192 76.0604 59.1028 75.7807 59.4972 75.4026C60.0205 74.8812 60.3678 74.1699 61.026 73.8209C61.6179 73.5072 62.3469 73.5514 62.9982 73.7259C63.6495 73.9004 64.2619 74.1898 64.9132 74.3533C65.5559 74.5116 66.2247 74.5447 66.8807 74.4506C67.5367 74.3565 68.1668 74.1372 68.7342 73.8054L67.0797 69.3652L59.4012 68.4373L55.7448 72.6898L56.4486 76.3061Z" fill="black"/>
</g>
<path d="M65.1212 85.2197C65.0892 85.2197 64.2345 82.1845 63.213 78.4268C62.1915 74.6692 61.3848 71.6118 61.4214 71.6052C61.4579 71.5985 62.3058 74.636 63.3273 78.3981C64.3488 82.1602 65.1532 85.2109 65.1212 85.2197Z" fill="#263238"/>
<path d="M55.3586 67.9801L49.6248 97.2636L44.3847 87.906L34.4529 93.5391L44.9949 65.0243L55.3586 67.9801Z" fill="#FF725E"/>
<g opacity="0.3">
<path d="M41.8412 73.5536C41.8412 73.5536 43.4729 74.8503 45.4177 74.2538C47.3625 73.6574 48.5714 73.5293 49.6249 74.2538C50.6784 74.9784 53.5281 77.3355 53.5281 77.3355L54.1886 73.9578L50.3607 68.877L46.3661 69.6568L43.5232 69.9241L42.4651 71.8614L41.8412 73.5536Z" fill="black"/>
</g>
<path d="M88.977 41.5462C88.977 43.6471 86.2004 45.4563 85.7936 47.4423C85.3754 49.4879 87.2173 52.1852 86.4106 54.0695C85.6039 55.9538 82.2972 56.6298 81.1248 58.333C79.9525 60.0362 80.5695 63.2261 79.0681 64.6797C77.5667 66.1333 74.269 65.5214 72.5025 66.6679C70.736 67.8144 70.0733 70.9822 68.0919 71.7775C66.1449 72.5573 63.3546 70.7768 61.2361 71.181C59.1794 71.5742 57.31 74.2583 55.1367 74.2583C52.9635 74.2583 51.0895 71.5742 49.0351 71.181C46.9189 70.7768 44.1286 72.5573 42.1793 71.7775C40.2299 70.9977 39.5329 67.8011 37.771 66.6679C36.0091 65.5346 32.7091 66.1311 31.2031 64.6797C29.6971 63.2283 30.3325 60.0406 29.1464 58.333C27.9603 56.6254 24.6833 55.9848 23.8629 54.0695C23.0424 52.1542 24.8981 49.4901 24.4799 47.4423C24.0731 45.4541 21.2942 43.6471 21.2942 41.5462C21.2942 39.4454 24.0731 37.634 24.4799 35.648C24.8981 33.6024 23.0539 30.9051 23.8629 29.0208C24.6718 27.1364 27.9763 26.4604 29.1464 24.7594C30.3165 23.0585 29.7017 19.8663 31.2031 18.4106C32.7046 16.9548 36.0022 17.5689 37.771 16.4224C39.5398 15.2759 40.198 12.1081 42.1793 11.315C44.1606 10.5219 46.9166 12.3157 49.0351 11.9114C51.0918 11.5182 52.9635 8.83199 55.1367 8.83199C57.31 8.83199 59.1817 11.5182 61.2361 11.9114C63.3523 12.3157 66.1426 10.533 68.0919 11.315C70.0733 12.1081 70.7406 15.2913 72.5025 16.4224C74.2644 17.5534 77.5644 16.9592 79.0681 18.4106C80.5718 19.8619 79.9388 23.0496 81.1248 24.7594C82.3109 26.4693 85.5879 27.1055 86.4106 29.0208C87.2333 30.936 85.3754 33.6002 85.7936 35.648C86.2004 37.634 88.977 39.4388 88.977 41.5462Z" fill="#FF725E"/>
<path d="M47.2184 23.2087C47.2184 23.2087 47.1933 23.18 47.1567 23.1181C47.1201 23.0562 47.063 22.9568 47.0013 22.8486C46.8665 22.6144 46.6814 22.2698 46.462 21.8412C46.0209 20.9841 45.4496 19.778 44.8989 18.4172C44.3481 17.0564 43.9253 15.7928 43.6488 14.8827C43.5117 14.421 43.4066 14.0476 43.3403 13.7781C43.3106 13.6588 43.2855 13.5572 43.2672 13.4777C43.2554 13.4435 43.2492 13.4077 43.2489 13.3716C43.2666 13.4039 43.2804 13.438 43.29 13.4733L43.3837 13.7671C43.4729 14.0388 43.5894 14.4055 43.7288 14.8495C44.0259 15.7619 44.4624 17.0144 45.0086 18.384C45.5547 19.7537 46.1169 20.9488 46.5374 21.8147L47.0424 22.8375L47.1773 23.1159C47.1939 23.1455 47.2076 23.1766 47.2184 23.2087Z" fill="#263238"/>
<path d="M50.2304 22.1019C50.1905 22.0248 50.1605 21.9432 50.1413 21.8589C50.0933 21.6999 50.0293 21.4679 49.9539 21.1807C49.8031 20.6086 49.6157 19.8089 49.4466 18.9208C49.2775 18.0328 49.1587 17.2221 49.0901 16.6345C49.0535 16.3406 49.0307 16.1021 49.017 15.9364C49.0065 15.8513 49.0065 15.7652 49.017 15.6801C49.0432 15.7621 49.0609 15.8465 49.0695 15.932L49.1792 16.6234C49.2706 17.2088 49.4078 18.0151 49.57 18.901C49.7323 19.7868 49.9128 20.5865 50.0408 21.1631C50.1025 21.4326 50.1527 21.6623 50.1939 21.8479C50.2148 21.9312 50.227 22.0163 50.2304 22.1019Z" fill="#263238"/>
<path d="M55.543 21.5916C55.5088 21.5916 55.4245 19.113 55.3538 16.0579C55.2831 13.0027 55.2512 10.5219 55.2831 10.5197C55.3151 10.5175 55.4017 12.9961 55.4723 16.0557C55.543 19.1152 55.5749 21.5916 55.543 21.5916Z" fill="#263238"/>
<path d="M60.8912 16.4997C60.9232 16.4997 60.553 17.7478 60.0662 19.2677C59.5795 20.7875 59.1521 22.0091 59.1293 22.0003C59.1064 21.9915 59.4675 20.7522 59.9542 19.2323C60.441 17.7125 60.8569 16.4909 60.8912 16.4997Z" fill="#263238"/>
<path d="M63.0714 22.9038C63.0758 22.8673 63.0858 22.8315 63.1011 22.7978L63.2039 22.5062C63.2953 22.2543 63.4324 21.8921 63.6152 21.4458C63.974 20.5622 64.4859 19.3273 65.071 17.9798C65.656 16.6322 66.1999 15.4195 66.5998 14.5447C66.7963 14.1205 66.9586 13.7715 67.082 13.5108L67.2168 13.2325C67.2511 13.1706 67.2694 13.1375 67.274 13.1397C67.2656 13.1745 67.2541 13.2085 67.2397 13.2413L67.1231 13.5285L66.6775 14.5778C66.2867 15.4747 65.7634 16.6853 65.1806 18.0262C64.5979 19.3671 64.0814 20.5777 63.6929 21.4768L63.2473 22.5239L63.1216 22.8066C63.1091 22.8409 63.0922 22.8735 63.0714 22.9038Z" fill="#263238"/>
<path d="M65.9188 24.3441C65.9535 24.266 65.9972 24.1919 66.0491 24.1232C66.1405 23.9818 66.2776 23.7808 66.4467 23.5356C66.7895 23.0474 67.2831 22.3803 67.8567 21.6689C68.4303 20.9576 68.9811 20.3435 69.3879 19.9017C69.5912 19.6808 69.7604 19.5063 69.8792 19.387C69.9364 19.3208 70.0016 19.2615 70.0734 19.2102C70.0292 19.2856 69.9755 19.3554 69.9135 19.4179C69.7901 19.5637 69.6347 19.7426 69.4564 19.9547C69.0656 20.4098 68.5286 21.0394 67.955 21.7507C67.3814 22.462 66.8809 23.1181 66.5198 23.5953L66.0925 24.1586C66.0415 24.2261 65.9832 24.2883 65.9188 24.3441Z" fill="#263238"/>
<path d="M70.0826 27.6357C70.0597 27.6136 71.8696 25.9523 74.1206 23.9266C76.3716 21.9009 78.2181 20.2772 78.2341 20.2993C78.2501 20.3214 76.4493 21.9848 74.196 24.0106C71.9428 26.0363 70.1054 27.66 70.0826 27.6357Z" fill="#263238"/>
<path d="M77.3451 28.3227C77.1248 28.4574 76.8958 28.5784 76.6596 28.685C76.2299 28.9059 75.6472 29.2129 75.0027 29.5686C74.3583 29.9243 73.7641 30.2203 73.3231 30.4191C73.0945 30.5185 72.9254 30.5958 72.7974 30.64C72.7349 30.6715 72.6679 30.6938 72.5986 30.7063C72.819 30.5716 73.048 30.4506 73.2842 30.344C73.7138 30.1231 74.2966 29.816 74.941 29.4604C75.5855 29.1047 76.1796 28.7976 76.6207 28.6099C76.8492 28.5104 77.0183 28.4331 77.1463 28.389C77.2084 28.3566 77.2756 28.3342 77.3451 28.3227Z" fill="#263238"/>
<path d="M84.0616 31.0156C84.073 31.0465 81.9203 31.8064 79.2625 32.7143C76.6048 33.6223 74.4269 34.3314 74.4178 34.3027C74.4086 34.2739 76.5568 33.5118 79.2168 32.6039C81.8769 31.6959 84.0502 30.9868 84.0616 31.0156Z" fill="#263238"/>
<path d="M86.2005 42.8275C86.2005 42.8584 83.8581 42.6706 80.9764 42.4056C78.0947 42.1405 75.7591 41.8997 75.7637 41.8665C75.7682 41.8334 78.1038 42.0256 80.9878 42.2907C83.8718 42.5558 86.2028 42.7966 86.2005 42.8275Z" fill="#263238"/>
<path d="M84.4797 53.4222C84.466 53.4509 82.279 52.479 79.5961 51.2551C76.9132 50.0313 74.749 49.0129 74.7628 48.9842C74.7765 48.9555 76.9635 49.9253 79.6464 51.1513C82.3293 52.3773 84.4934 53.3935 84.4797 53.4222Z" fill="#263238"/>
<path d="M77.2857 63.5023C77.2605 63.5221 75.686 61.7527 73.7641 59.5524C71.8422 57.3522 70.3065 55.5474 70.3362 55.5275C70.3659 55.5076 71.9359 57.2749 73.8578 59.4773C75.7797 61.6798 77.3108 63.4802 77.2857 63.5023Z" fill="#263238"/>
<path d="M71.2801 64.8432C71.209 64.7666 71.1455 64.6838 71.0904 64.5957C70.9738 64.4323 70.8093 64.1915 70.6128 63.8933C70.2151 63.2946 69.6827 62.4574 69.1205 61.5185C68.5583 60.5796 68.0784 59.7137 67.7493 59.0885C67.5825 58.7726 67.4477 58.5164 67.3608 58.3374C67.3092 58.2465 67.2663 58.1511 67.2328 58.0525C67.2974 58.1349 67.354 58.2229 67.402 58.3153C67.5116 58.5097 67.6533 58.7572 67.8247 59.051C68.1789 59.6717 68.6726 60.5288 69.2325 61.4677C69.7923 62.4066 70.3134 63.2482 70.6927 63.8557C70.871 64.1473 71.0218 64.3881 71.1384 64.5781C71.1956 64.6611 71.2431 64.75 71.2801 64.8432Z" fill="#263238"/>
<path d="M67.5505 69.902C67.5505 69.902 67.5276 69.8732 67.491 69.8114L67.3425 69.5419C67.2122 69.3055 67.0363 68.9609 66.826 68.5323C66.4055 67.673 65.8639 66.4668 65.3498 65.1016C64.8356 63.7364 64.4471 62.4772 64.2071 61.5671C64.0814 61.1076 63.9786 60.7321 63.9283 60.4736C63.9032 60.3543 63.8826 60.2527 63.8643 60.1732C63.8552 60.1385 63.8499 60.1029 63.8483 60.0671C63.867 60.0987 63.8801 60.133 63.8872 60.1688L63.974 60.4626C64.054 60.7365 64.1591 61.101 64.2871 61.545C64.5568 62.4574 64.9567 63.7121 65.4709 65.0795C65.9851 66.447 66.5107 67.6465 66.9129 68.5147L67.3928 69.5375C67.4431 69.6479 67.4865 69.7407 67.523 69.8158C67.5359 69.8433 67.5451 69.8722 67.5505 69.902Z" fill="#263238"/>
<path d="M59.9954 66.3475C59.946 66.0935 59.9132 65.8368 59.8972 65.5788C59.8446 65.1038 59.76 64.4477 59.6366 63.7298C59.5132 63.0118 59.3693 62.3668 59.2596 61.9007C59.1877 61.6511 59.1328 61.3972 59.095 61.1407C59.1291 61.2022 59.1552 61.2675 59.1727 61.3351C59.2184 61.4633 59.2756 61.6488 59.3418 61.8808C59.4721 62.3425 59.6275 62.9853 59.7532 63.7121C59.8625 64.3279 59.9388 64.9487 59.9817 65.5722C59.9977 65.8107 60.0069 66.014 60.0069 66.1399C60.0127 66.2093 60.0089 66.2791 59.9954 66.3475Z" fill="#263238"/>
<path d="M55.0524 72.7075C55.0471 72.6701 55.0471 72.6322 55.0524 72.5948C55.0524 72.5065 55.0524 72.3982 55.0524 72.2701C55.0524 71.9873 55.0524 71.5786 55.0524 71.075C55.0707 70.0654 55.1186 68.6737 55.2009 67.1384C55.2832 65.6031 55.386 64.2114 55.4706 63.2062C55.5117 62.7026 55.5506 62.2961 55.5803 62.0155C55.5963 61.8874 55.6077 61.7792 55.6168 61.693C55.6195 61.6547 55.6272 61.6168 55.6397 61.5804C55.645 61.6185 55.645 61.6571 55.6397 61.6952C55.6397 61.7814 55.6397 61.8896 55.6237 62.02C55.6054 62.3182 55.5826 62.7202 55.5528 63.2106C55.4911 64.2335 55.4089 65.6163 55.3243 67.1428C55.2398 68.6693 55.1803 70.0698 55.1415 71.0772C55.1232 71.5676 55.1072 71.9608 55.0958 72.2701C55.0958 72.4004 55.0821 72.5065 55.0775 72.5948C55.0749 72.6334 55.0665 72.6713 55.0524 72.7075Z" fill="#263238"/>
<path d="M51.0349 61.5804C51.0333 61.7707 51.0103 61.9603 50.9663 62.1459C50.9069 62.4905 50.8109 62.9654 50.6852 63.4846C50.5595 64.0037 50.427 64.472 50.3219 64.81C50.2763 64.9948 50.2096 65.1741 50.123 65.3446C50.1434 65.1559 50.1824 64.9695 50.2396 64.7879L50.5687 63.4625C50.6875 62.9654 50.7972 62.5148 50.884 62.137C50.9157 61.9472 50.9662 61.7608 51.0349 61.5804Z" fill="#263238"/>
<path d="M43.77 58.2159C43.4706 58.6944 43.1369 59.1521 42.7713 59.5856C42.436 60.0417 42.0703 60.4764 41.6767 60.8867C41.9755 60.4078 42.3092 59.9501 42.6754 59.5171C43.0092 59.0598 43.3749 58.625 43.77 58.2159Z" fill="#263238"/>
<path d="M39.9605 55.7329C39.9833 55.7528 38.5665 57.3632 36.7931 59.3271C35.0197 61.291 33.5594 62.8616 33.5343 62.8462C33.5092 62.8307 34.9283 61.2159 36.7017 59.252C38.475 57.2881 39.9353 55.7108 39.9605 55.7329Z" fill="#263238"/>
<path d="M38.0523 52.9915C37.4918 53.514 36.9037 54.008 36.2903 54.4715C35.2962 55.2624 34.4735 55.8853 34.4621 55.861C35.0229 55.3397 35.611 54.8464 36.224 54.3832C36.8089 53.8899 37.4191 53.4254 38.0523 52.9915Z" fill="#263238"/>
<path d="M35.8218 48.8583C35.8355 48.887 33.8611 49.8369 31.409 50.9768C28.9569 52.1167 26.9618 53.0202 26.9458 52.9915C26.9298 52.9628 28.9066 52.0151 31.3587 50.873C33.8108 49.7309 35.8081 48.8296 35.8218 48.8583Z" fill="#263238"/>
<path d="M34.926 46.7972C34.8604 46.8251 34.7912 46.8444 34.7203 46.8546C34.5855 46.8856 34.3912 46.9253 34.1513 46.9673C33.6691 47.0557 32.9972 47.1529 32.2522 47.2258C31.5072 47.2987 30.8285 47.3296 30.3372 47.3362C30.0927 47.3362 29.8938 47.3362 29.7567 47.3362C29.6852 47.3407 29.6135 47.334 29.5442 47.3163C29.8063 47.2815 30.0703 47.2616 30.3349 47.2567C30.8239 47.228 31.4981 47.1838 32.2408 47.1109C32.9835 47.038 33.6531 46.9541 34.1376 46.89C34.3978 46.8411 34.6613 46.8101 34.926 46.7972Z" fill="#263238"/>
<path d="M34.2016 42.0366C34.0685 42.0473 33.9347 42.0473 33.8016 42.0366L32.7138 41.9836C31.7997 41.9394 30.5291 41.8997 29.1283 41.9063C27.7274 41.9129 26.4568 41.9682 25.5404 42.0212L24.4549 42.0852C24.3222 42.0999 24.1884 42.1044 24.055 42.0985C24.1848 42.0684 24.3171 42.0492 24.4503 42.0411C24.7063 42.0123 25.0765 41.977 25.5335 41.9394C26.4476 41.8665 27.7228 41.8003 29.126 41.7914C30.5291 41.7826 31.802 41.8378 32.7207 41.9019C33.1777 41.935 33.5502 41.9659 33.8062 41.9925C33.9389 41.9982 34.071 42.013 34.2016 42.0366Z" fill="#263238"/>
<path d="M34.6495 37.8571C34.6495 37.888 33.1618 37.5147 31.345 37.0242C29.5282 36.5338 28.0634 36.1141 28.0725 36.0832C28.0816 36.0522 29.5602 36.4234 31.377 36.9138C33.1938 37.4042 34.6586 37.8261 34.6495 37.8571Z" fill="#263238"/>
<path d="M35.607 34.3579C35.5703 34.3558 35.5341 34.3483 35.4996 34.3358L35.1957 34.2474C34.9352 34.1679 34.5581 34.0442 34.0987 33.8829C32.8985 33.4569 31.7223 32.9702 30.5749 32.4249C29.4279 31.879 28.3119 31.2743 27.2315 30.6135C26.8179 30.3594 26.4865 30.1474 26.2626 29.9949L26.0066 29.816C25.9495 29.774 25.9198 29.7519 25.9221 29.7475C25.9566 29.761 25.9896 29.778 26.0203 29.7983L26.29 29.9574C26.5185 30.0988 26.8567 30.2998 27.2749 30.545C28.1136 31.0354 29.2883 31.6827 30.6274 32.3123C31.9666 32.9419 33.2143 33.4544 34.1285 33.799C34.5855 33.9691 34.9534 34.1038 35.2117 34.1966L35.5065 34.3049C35.5415 34.3198 35.5751 34.3375 35.607 34.3579Z" fill="#263238"/>
<path d="M37.7575 30.8234C37.7392 30.8477 36.5828 30.0922 35.1751 29.1334C33.7674 28.1747 32.6408 27.3772 32.6613 27.3507C32.6819 27.3242 33.8359 28.0819 35.246 29.0406C36.656 29.9994 37.7757 30.8035 37.7575 30.8234Z" fill="#263238"/>
<path d="M33.212 20.0917C33.212 20.0917 33.244 20.1093 33.2989 20.1513L33.5274 20.3457L34.3707 21.0659L37.1381 23.4539L39.917 25.8286L40.758 26.551L40.9865 26.752C41.0141 26.7739 41.0387 26.7992 41.0596 26.8271C41.0596 26.8271 41.0277 26.8117 40.9705 26.7697L40.742 26.5864C40.534 26.4251 40.2392 26.1865 39.8759 25.8905C39.1492 25.2985 38.1574 24.4701 37.0719 23.54C35.9864 22.61 35.0151 21.7529 34.3295 21.1255C33.9822 20.8118 33.7034 20.5578 33.5114 20.3766L33.2943 20.169C33.2395 20.1204 33.2075 20.0939 33.212 20.0917Z" fill="#263238"/>
<path d="M40.3398 20.2927C40.3398 20.2927 40.4015 20.3413 40.4952 20.4451C40.5889 20.549 40.7237 20.7014 40.8814 20.887C41.199 21.2713 41.6218 21.8148 42.0606 22.4333C42.4994 23.0518 42.8673 23.6306 43.121 24.057C43.2489 24.2779 43.3495 24.4436 43.4135 24.5651C43.453 24.6255 43.4838 24.6909 43.5049 24.7595C43.3374 24.5487 43.1847 24.3273 43.0478 24.0967C42.7759 23.6814 42.3965 23.1137 41.96 22.4952C41.5236 21.8766 41.1122 21.331 40.8174 20.9356C40.6451 20.7306 40.4856 20.516 40.3398 20.2927Z" fill="#263238"/>
<g opacity="0.2">
<path d="M31.2056 18.4128L41.1488 26.8271L43.6192 24.9163L37.8512 16.3716C37.8512 16.3716 37.4078 16.6853 36.2515 17.0034C35.1477 17.3104 31.8683 17.3922 31.2056 18.4128Z" fill="black"/>
</g>
<g opacity="0.2">
<path d="M42.2731 11.2951L47.127 23.0408L50.2304 22.1019L49.1952 11.9136C49.1952 11.9136 48.6627 12.0351 47.4767 11.8893C46.3272 11.748 43.5415 10.6942 42.2731 11.2951Z" fill="black"/>
</g>
<g opacity="0.3">
<path d="M55.2169 8.83639L55.5437 21.5916L58.4506 21.7264L61.394 11.9357C60.7825 11.8183 60.2008 11.5856 59.6823 11.2509C58.6768 10.628 56.6246 8.73257 55.2169 8.83639Z" fill="black"/>
</g>
<g opacity="0.2">
<path d="M67.8955 11.2465L63.0714 23.0054L65.6903 24.2182L72.329 16.2964C71.83 15.8892 71.4045 15.4048 71.0698 14.8628C70.4436 13.8841 69.365 11.6375 67.8955 11.2465Z" fill="black"/>
</g>
<g opacity="0.2">
<path d="M79.226 18.5828L70.2403 27.6401L72.2422 30.249L81.0222 24.5849C80.733 24.0702 80.5375 23.5112 80.444 22.9325C80.2338 21.828 80.2041 19.8221 79.226 18.5828Z" fill="black"/>
</g>
<g opacity="0.2">
<path d="M86.3194 28.802L74.2189 33.6156L75.2221 36.6045L85.7503 35.5C85.7503 35.5 85.6841 35.1863 85.8235 34.0398C85.956 32.9286 87.1718 30.4456 86.3194 28.802Z" fill="black"/>
</g>
<g opacity="0.2">
<path d="M89 41.5462L75.8071 41.988L75.6974 44.8002L85.7526 47.6455C85.8193 47.2407 85.9536 46.849 86.1503 46.4857C86.8998 45.1338 89 43.2251 89 41.5462Z" fill="black"/>
</g>
<g opacity="0.2">
<path d="M86.5661 53.6034L74.4199 49.0284L73.1927 51.5887L81.4586 57.9133C81.8931 57.5111 82.3739 57.1583 82.8914 56.8618C83.8969 56.241 86.2873 55.2359 86.5661 53.6034Z" fill="black"/>
</g>
<g opacity="0.2">
<path d="M68.7022 53.4222L65.6948 55.8522C65.9234 56.0731 69.9294 62.665 72.3998 66.7341C72.4319 66.7074 72.4655 66.6823 72.5004 66.659C74.1252 65.6075 77.0183 66.0294 78.65 64.989L68.7022 53.4222Z" fill="black"/>
<path d="M63.1765 58.0348L58.6882 59.5149L60.8135 71.2937C60.9516 71.2467 61.0928 71.209 61.2363 71.181C63.3525 70.7768 66.1428 72.5573 68.0921 71.7775C68.359 71.6669 68.6071 71.5179 68.828 71.3357L63.1765 58.0348Z" fill="black"/>
<path d="M54.9815 74.2538L55.6968 58.8654L51.8118 57.9133L48.9255 71.1678L49.0307 71.1854C51.0417 71.5632 52.8722 74.1213 54.9815 74.2538Z" fill="black"/>
<path d="M45.2234 56.252C45.2234 56.252 40.0953 62.8925 37.4124 66.4668C37.5365 66.5272 37.6571 66.5944 37.7734 66.6679C39.5354 67.8077 40.2004 70.9822 42.1817 71.7775C42.2731 71.8128 42.3668 71.8415 42.4605 71.868L49.6248 58.7594L45.2234 56.252Z" fill="black"/>
<path d="M39.9604 50.9061L29.0231 58.1718C29.0643 58.2248 29.11 58.2756 29.1465 58.3308C30.3349 60.0451 29.7019 63.2239 31.2033 64.6775C31.3419 64.8091 31.4952 64.9254 31.6603 65.0243C35.5247 60.8138 42.4628 53.2543 42.7142 52.9915L39.9604 50.9061Z" fill="black"/>
<path d="M37.4535 45.717L24.5212 47.7361C24.7291 49.7419 23.0929 52.2735 23.863 54.0673C23.9094 54.1769 23.9652 54.2826 24.0298 54.3832C28.5547 52.205 38.0088 47.6742 38.4019 47.6499L37.4535 45.717Z" fill="black"/>
<path d="M36.7472 38.754L24.5233 35.3454C24.5119 35.447 24.4982 35.5486 24.4799 35.648C24.0731 37.6362 21.2942 39.4454 21.2942 41.5462C21.2948 41.6861 21.3071 41.8257 21.3308 41.9637H36.2513L36.7472 38.754Z" fill="black"/>
<path d="M23.9133 28.9302C28.4838 31.2961 37.4124 36.0832 37.4124 36.0832L39.6108 32.0472L29.286 24.5363C29.2403 24.6136 29.1968 24.6932 29.1466 24.7572C27.9834 26.4339 24.8 27.0878 23.9133 28.9302Z" fill="black"/>
</g>
<path d="M88.9772 41.5462L88.9635 41.4048C88.958 41.2663 88.9381 41.1286 88.904 40.994C88.771 40.4642 88.5387 39.9626 88.2185 39.5139C87.8254 38.9042 87.2312 38.2216 86.6188 37.3578C86.2729 36.8983 86.0074 36.3871 85.8326 35.8446C85.6839 35.2113 85.6839 34.5538 85.8326 33.9205C85.9606 33.2467 86.1686 32.5531 86.3491 31.8174C86.5296 31.0818 86.6988 30.2866 86.5296 29.4736C86.434 29.0621 86.239 28.6784 85.9606 28.3536C85.6621 28.023 85.3211 27.7305 84.946 27.4832C84.1872 26.9619 83.3143 26.5466 82.4802 26.0031C82.0486 25.7342 81.6566 25.4102 81.3147 25.04C80.979 24.6381 80.7352 24.1721 80.5994 23.6726C80.3069 22.6674 80.2406 21.5938 80.0189 20.5202C79.9221 19.9736 79.7313 19.4464 79.4545 18.9606C79.1539 18.4715 78.6977 18.0895 78.1541 17.8715C77.593 17.6536 77.0056 17.5051 76.4059 17.4297C75.8003 17.3325 75.1787 17.264 74.5571 17.158C73.9203 17.0692 73.3027 16.8804 72.7289 16.5991C72.1599 16.2685 71.6781 15.8148 71.3212 15.2737C70.9418 14.7479 70.615 14.1824 70.2677 13.6235C69.935 13.0516 69.5363 12.518 69.0793 12.0329C68.6084 11.5422 67.966 11.2376 67.2763 11.178C66.5716 11.1528 65.8671 11.2325 65.1875 11.4144C64.5019 11.5757 63.7981 11.7723 63.0782 11.9026C62.3506 12.0684 61.5914 12.0547 60.8707 11.8628C60.168 11.5964 59.5109 11.2293 58.9213 10.7738C58.3112 10.3319 57.717 9.89013 57.0657 9.49691C56.4144 9.1037 55.6763 8.81873 54.9084 8.90267H54.7644C54.7164 8.90267 54.6707 8.92255 54.625 8.93139C54.5313 8.95348 54.4353 8.96894 54.3439 8.99545C54.1599 9.05205 53.9797 9.11993 53.8046 9.19869C53.4511 9.36119 53.1118 9.55105 52.79 9.76642C52.1409 10.2082 51.5262 10.6898 50.8589 11.1272C50.5267 11.352 50.175 11.5486 49.8077 11.7148C49.4313 11.8776 49.0283 11.9755 48.6171 12.0042C47.7925 12.0093 46.9716 11.8969 46.181 11.6706C45.3849 11.4509 44.5728 11.2892 43.7517 11.1869C43.3417 11.1479 42.9278 11.1747 42.5268 11.2664C42.1274 11.3737 41.7591 11.5688 41.4505 11.8363C40.8197 12.3687 40.381 13.0845 39.9422 13.7869C39.5279 14.5225 39.0436 15.2192 38.4956 15.8679C38.2055 16.1892 37.8569 16.4565 37.4672 16.6565C37.0694 16.8383 36.6516 16.9762 36.2218 17.0674C35.3625 17.2508 34.485 17.3281 33.6188 17.4783C32.7527 17.6285 31.8683 17.8649 31.2422 18.4525C30.9399 18.7637 30.7066 19.1313 30.5566 19.5328C30.4053 19.9377 30.2943 20.3556 30.2252 20.7809C30.0653 21.6336 29.9967 22.5084 29.7682 23.3677C29.67 23.8038 29.506 24.2236 29.2814 24.6136C29.0448 25 28.7347 25.3396 28.3673 25.6144C27.6452 26.1755 26.8247 26.5908 26.0386 27.0547C25.6448 27.2838 25.2669 27.5377 24.9074 27.8146C24.5498 28.0908 24.249 28.4295 24.0207 28.8131C23.803 29.2037 23.6929 29.6419 23.7008 30.0855C23.7089 30.5315 23.7632 30.9755 23.863 31.411C24.055 32.2946 24.3452 33.1628 24.5006 34.0619C24.5927 34.5233 24.6112 34.9956 24.5555 35.4624C24.4906 35.9281 24.3355 36.3777 24.0984 36.7879C23.6208 37.5942 22.9992 38.3033 22.4485 39.0544C22.1656 39.4245 21.9193 39.8195 21.7126 40.234C21.4862 40.6384 21.3676 41.0909 21.3676 41.5506C21.3676 42.0104 21.4862 42.4629 21.7126 42.8673C21.9189 43.282 22.1653 43.677 22.4485 44.0469C22.9992 44.798 23.6208 45.5071 24.0984 46.3134C24.3312 46.7159 24.4861 47.1561 24.5555 47.6124C24.6135 48.0729 24.5981 48.5393 24.5098 48.9952C24.3567 49.9032 24.0664 50.7735 23.8722 51.6572C23.7732 52.0928 23.7189 52.5367 23.7099 52.9826C23.7009 53.4268 23.8103 53.8658 24.0276 54.2573C24.2541 54.642 24.5542 54.9816 24.912 55.258C25.2715 55.5349 25.6493 55.7888 26.0432 56.0179C26.8293 56.4818 27.6429 56.9015 28.3742 57.4582C28.7409 57.7336 29.051 58.073 29.2883 58.4589C29.5145 58.8474 29.6786 59.2667 29.775 59.7026C29.9898 60.5642 30.063 61.439 30.2321 62.2917C30.303 62.7168 30.4147 63.1347 30.5657 63.5398C30.7122 63.9411 30.9416 64.3093 31.2399 64.6223C31.8729 65.2165 32.7642 65.4529 33.6188 65.6031C34.4735 65.7533 35.3625 65.824 36.2218 66.014C36.6522 66.1056 37.0707 66.2434 37.4695 66.4249C37.8587 66.6256 38.2071 66.8928 38.4979 67.2135C39.0405 67.8633 39.5201 68.5598 39.9308 69.2945C40.3695 69.997 40.8083 70.7127 41.439 71.2451C41.7471 71.5122 42.1146 71.7072 42.5131 71.815C42.9175 71.9137 43.3361 71.9466 43.7517 71.9122C44.5713 71.8057 45.3818 71.641 46.1764 71.4196C46.9675 71.1915 47.7893 71.0784 48.6148 71.0838C49.0261 71.1138 49.4289 71.2125 49.8054 71.3754C50.1724 71.5421 50.5241 71.7387 50.8566 71.963C51.5239 72.4049 52.1364 72.8931 52.7877 73.3216C53.1081 73.5385 53.4468 73.7291 53.8 73.8916C53.9753 73.9699 54.1554 74.0378 54.3394 74.0948C54.4331 74.1191 54.5268 74.1368 54.6205 74.1589L54.7621 74.1876H54.9038C55.674 74.2715 56.4144 73.9667 57.0634 73.5933C57.7124 73.22 58.3089 72.7495 58.9168 72.3165C59.5072 71.861 60.1651 71.4939 60.8684 71.2274C61.5893 71.0367 62.3481 71.023 63.0759 71.1876C63.7958 71.3202 64.4905 71.5168 65.1852 71.6781C65.866 71.8579 66.5709 71.9376 67.2763 71.9144C67.9651 71.8525 68.6063 71.5474 69.0771 71.0573C69.5326 70.5703 69.9311 70.0362 70.2654 69.4646C70.6105 68.9079 70.9373 68.3424 71.3166 67.8144C71.6756 67.2741 72.1579 66.8207 72.7266 66.4889C73.3002 66.2073 73.9179 66.0192 74.5548 65.9322C75.1787 65.824 75.798 65.7555 76.4036 65.6605C77.0038 65.5815 77.5912 65.4294 78.1519 65.2077C78.6949 64.9889 79.1508 64.6071 79.4522 64.1186C79.7273 63.6323 79.9173 63.1053 80.0143 62.559C80.2429 61.4854 80.3023 60.4095 80.5971 59.4044C80.7315 58.905 80.9754 58.4394 81.3124 58.0392C81.6533 57.6679 82.0455 57.3438 82.4779 57.076C83.312 56.5326 84.185 56.1173 84.9414 55.596C85.3183 55.3492 85.6602 55.0559 85.9583 54.7234C86.2364 54.3996 86.4306 54.0164 86.5251 53.6056C86.6048 53.2088 86.6164 52.8021 86.5594 52.4016C86.5122 52.0178 86.4404 51.6371 86.3445 51.2618C86.1617 50.5261 85.956 49.8325 85.8281 49.1587C85.6793 48.5254 85.6793 47.8679 85.8281 47.2346C86.0037 46.6924 86.2692 46.1814 86.6142 45.7214C87.2335 44.8576 87.83 44.175 88.2139 43.5653C88.5345 43.1168 88.7669 42.6151 88.8995 42.0852C88.9337 41.9506 88.9536 41.8129 88.9589 41.6744L88.9726 41.5352C88.9726 41.5352 88.9726 41.5816 88.9726 41.6744C88.9682 41.8134 88.9498 41.9518 88.9178 42.0875C88.7877 42.6215 88.5551 43.1273 88.2322 43.5786C87.8414 44.1927 87.2495 44.8775 86.6325 45.7413C86.2897 46.1977 86.0278 46.7061 85.8578 47.2456C85.7091 47.8723 85.7091 48.5233 85.8578 49.1499C85.9858 49.8126 86.1937 50.5129 86.3788 51.2485C86.4784 51.6267 86.5547 52.0103 86.6073 52.3972C86.6643 52.8028 86.6527 53.2146 86.5731 53.6166C86.4777 54.0368 86.2803 54.429 85.9972 54.7609C85.6961 55.0971 85.3512 55.3941 84.9711 55.6446C84.2078 56.1703 83.3371 56.5878 82.5076 57.1291C82.084 57.3951 81.6996 57.7154 81.3649 58.0812C81.0349 58.4752 80.7964 58.9333 80.6656 59.4243C80.3754 60.4184 80.3114 61.492 80.0875 62.5722C79.9908 63.1273 79.7985 63.6627 79.5184 64.1562C79.2097 64.659 78.7418 65.0525 78.1839 65.2784C77.6175 65.5032 77.0239 65.6576 76.4173 65.7379C75.8095 65.835 75.1879 65.9035 74.5686 66.0118C73.9397 66.0986 73.3299 66.2844 72.7632 66.5618C72.2104 66.8861 71.7414 67.3281 71.392 67.8541C71.0173 68.3777 70.6905 68.941 70.3431 69.5021C70.0069 70.0795 69.6053 70.6189 69.1456 71.1103C68.6597 71.6168 67.9971 71.9316 67.2854 71.994C66.5701 72.0212 65.8548 71.9414 65.1647 71.7576C64.4677 71.5963 63.7729 71.4019 63.0599 71.2716C62.348 71.1105 61.6058 71.1234 60.9004 71.3091C60.2078 71.5731 59.56 71.9357 58.9785 72.385C58.3729 72.8157 57.7764 73.2796 57.1183 73.6684C56.9469 73.7568 56.7846 73.8606 56.6064 73.9335C56.5172 73.9733 56.4304 74.0153 56.3413 74.0506L56.0647 74.1456C55.6898 74.2701 55.2916 74.3153 54.897 74.2781L54.7484 74.2671C54.7004 74.2671 54.6525 74.2472 54.6022 74.2384C54.5062 74.2163 54.4079 74.1986 54.3142 74.1721C54.1244 74.1154 53.9388 74.046 53.7589 73.9645C53.4003 73.8 53.0563 73.6071 52.7305 73.3879C52.0747 72.9461 51.4599 72.4645 50.7995 72.0293C50.4714 71.8093 50.1251 71.6157 49.7643 71.4505C49.3991 71.2935 49.0087 71.1986 48.6102 71.17C47.7955 71.1665 46.9847 71.2789 46.2038 71.5035C45.4009 71.7319 44.5811 71.901 43.7517 72.0094C43.3279 72.0494 42.9002 72.0218 42.4857 71.9277C42.0705 71.8158 41.6874 71.6133 41.3659 71.3357C40.7169 70.7856 40.2735 70.0632 39.8348 69.3585C39.4282 68.6296 38.9523 67.9389 38.4133 67.2953C38.1325 66.9841 37.7948 66.7257 37.417 66.5331C37.0275 66.3542 36.618 66.2193 36.1966 66.1311C35.3465 65.9499 34.4713 65.8726 33.5983 65.7202C33.1585 65.6495 32.7263 65.54 32.3071 65.3932C31.882 65.2426 31.4931 65.0095 31.1645 64.7084C30.8525 64.3863 30.6136 64.0049 30.4629 63.5884C30.3086 63.177 30.1946 62.7524 30.1224 62.3204C29.9624 61.4611 29.8939 60.5863 29.6653 59.738C29.5704 59.313 29.4102 58.9042 29.19 58.5252C28.9587 58.1506 28.6563 57.8216 28.2987 57.5554C27.5903 57.0054 26.7722 56.5901 25.9838 56.1239C25.586 55.892 25.2043 55.6352 24.8411 55.3552C24.4715 55.0687 24.1613 54.7172 23.927 54.3191C23.7014 53.912 23.588 53.4555 23.5979 52.9937C23.6034 52.5365 23.6585 52.0811 23.7625 51.6351C23.9567 50.7515 24.247 49.8678 24.3978 48.9842C24.4841 48.5391 24.4987 48.0838 24.4412 47.6344C24.372 47.1879 24.217 46.7579 23.9842 46.3664C23.5271 45.5712 22.8964 44.8665 22.3411 44.1088C22.0517 43.7312 21.7985 43.329 21.5846 42.907C21.3522 42.487 21.2306 42.0181 21.2306 41.5418C21.2306 41.0655 21.3522 40.5966 21.5846 40.1766C21.7955 39.7559 22.0465 39.3551 22.3342 38.9793C22.8895 38.2216 23.5088 37.5169 23.975 36.7238C24.2076 36.3315 24.3626 35.9007 24.4321 35.4536C24.4854 35.0039 24.47 34.5492 24.3864 34.1038C24.2333 33.2202 23.943 32.3366 23.7488 31.4529C23.6467 31.0074 23.5923 30.5529 23.5865 30.0966C23.5774 29.6346 23.6915 29.1781 23.9179 28.7711C24.1537 28.3747 24.4636 28.0242 24.832 27.7373C25.1946 27.4566 25.5764 27.1997 25.9746 26.9685C26.763 26.5024 27.5743 26.0849 28.2896 25.537C28.6465 25.2708 28.9481 24.9418 29.1786 24.5672C29.3977 24.1872 29.5571 23.7777 29.6516 23.3523C29.8642 22.504 29.9373 21.6314 30.1087 20.7721C30.1801 20.3401 30.2933 19.9155 30.4469 19.504C30.5847 19.0828 30.8246 18.6995 31.1465 18.386C31.4685 18.0724 31.8632 17.8377 32.298 17.7014C32.7171 17.5546 33.1493 17.4452 33.5891 17.3745C34.4621 17.2221 35.3374 17.1536 36.1875 16.9658C36.6081 16.8749 37.0173 16.7401 37.4078 16.5638C37.7845 16.3695 38.1214 16.1105 38.4019 15.7994C38.9409 15.1558 39.4168 14.465 39.8233 13.7361C40.2621 13.0314 40.7055 12.3091 41.3568 11.7612C41.6798 11.4795 42.0663 11.2745 42.4857 11.1626C42.9004 11.0694 43.3279 11.0418 43.7517 11.0808C44.576 11.1874 45.3911 11.3528 46.1901 11.5757C46.9706 11.8022 47.7816 11.9153 48.5965 11.9114C48.9913 11.881 49.3778 11.7854 49.7391 11.6287C50.1012 11.4657 50.4476 11.272 50.7743 11.0499C51.4371 10.6081 52.0518 10.1243 52.7077 9.69352C53.0329 9.47348 53.377 9.28059 53.7361 9.11695C53.9157 9.03599 54.1004 8.9659 54.2891 8.90709C54.3851 8.88058 54.4833 8.86512 54.5793 8.84303L54.7233 8.8121H54.8718C55.2664 8.77607 55.6644 8.82125 56.0396 8.94464L56.3161 9.03963C56.4053 9.07498 56.4921 9.11695 56.5812 9.15672C56.7618 9.23182 56.924 9.33344 57.0931 9.42181C57.7536 9.8106 58.3477 10.2745 58.9556 10.7053C59.5366 11.1542 60.1836 11.5167 60.8752 11.7811C61.5805 11.9679 62.323 11.9808 63.0348 11.8187C63.7478 11.6905 64.4425 11.4961 65.1395 11.3349C65.8298 11.1514 66.5449 11.0709 67.2603 11.0963C67.9717 11.1595 68.6341 11.4741 69.1205 11.9799C69.5807 12.4722 69.9831 13.0123 70.3202 13.5903C70.6676 14.1492 70.9921 14.7148 71.3669 15.2361C71.7156 15.7632 72.1847 16.2061 72.7381 16.5306C73.3043 16.8091 73.9143 16.9949 74.5434 17.0807C75.1627 17.1889 75.7843 17.2574 76.3922 17.3546C76.9986 17.4359 77.592 17.5903 78.1587 17.8141C78.7166 18.0398 79.1852 18.4323 79.4956 18.9341C79.7747 19.428 79.967 19.9632 80.0646 20.518C80.2931 21.5982 80.3526 22.6719 80.6405 23.6659C80.7728 24.1564 81.0111 24.6142 81.3398 25.0091C81.6738 25.3761 82.0583 25.6972 82.4824 25.9634C83.312 26.5046 84.185 26.9221 84.946 27.4479C85.3261 27.6983 85.671 27.9953 85.972 28.3315C86.2553 28.6627 86.4535 29.0541 86.5502 29.4736C86.6299 29.8764 86.6414 30.2889 86.5845 30.6952C86.5321 31.0815 86.4558 31.4643 86.356 31.8417C86.1731 32.5796 85.9629 33.271 85.8349 33.9426C85.6863 34.5692 85.6863 35.2202 85.8349 35.8468C86.005 36.3864 86.2668 36.8948 86.6096 37.3512C87.2244 38.2171 87.8163 38.8975 88.2093 39.5139C88.5316 39.9655 88.7641 40.4711 88.8949 41.005C88.927 41.1407 88.9454 41.279 88.9497 41.4181C88.9772 41.4976 88.9772 41.5462 88.9772 41.5462Z" fill="#263238"/>
<path d="M48.7793 71.9122C48.8113 71.9122 47.968 75.2258 46.8962 79.295C45.8245 83.3641 44.9286 86.6578 44.8966 86.6512C44.8646 86.6446 45.7079 83.3376 46.7797 79.2662C47.8515 75.1949 48.7565 71.8945 48.7793 71.9122Z" fill="#263238"/>
<path d="M55.1369 61.6002C66.5944 61.6002 75.8826 52.6217 75.8826 41.5462C75.8826 30.4707 66.5944 21.4922 55.1369 21.4922C43.6794 21.4922 34.3913 30.4707 34.3913 41.5462C34.3913 52.6217 43.6794 61.6002 55.1369 61.6002Z" fill="white"/>
<path d="M42.3623 34.5965C42.0766 34.8726 40.5044 37.6384 40.3604 39.9204C40.2164 42.2023 40.5569 55.0106 40.5569 55.0106L40.6186 55.8611C44.3527 60.0826 57.9272 66.3652 70.1534 55.839L70.839 47.9592L68.8211 31.2784L61.8053 29.6194L60.1622 27.0459L49.2112 29.5244L48.2331 31.7556L42.3623 34.5965Z" fill="#005F31"/>
<path d="M59.4104 20.3391C59.8926 18.6049 60.3656 16.8598 60.5324 15.0726C60.6993 13.2855 60.5461 11.4387 59.8103 9.79071C59.6983 9.54109 58.7728 7.87323 58.494 7.91521C58.2952 7.94393 58.8939 9.51237 58.8025 9.68247C57.9227 11.3327 57.7627 13.27 58.0164 15.1102C58.2781 16.8972 58.7456 18.6503 59.4104 20.3369" fill="#263238"/>
<path d="M59.2275 13.4909C59.1407 8.99106 56.3572 5.29085 51.7067 5.50071L51.2771 5.54489C49.197 5.75687 47.2757 6.71793 45.8953 8.23692C44.5149 9.7559 43.7765 11.7215 43.8271 13.7428C43.9276 17.6418 44.0876 21.9495 44.3413 24.0216C44.8646 28.3095 49.3689 28.5259 49.3689 28.5259L49.5768 31.3469L51.485 33.3506L60.3313 28.0488L59.2275 13.4909Z" fill="#FFBF9D"/>
<path d="M49.3803 28.5591C49.3803 28.5591 52.198 28.4331 54.9838 26.3168C54.9838 26.3168 54.0514 30.207 49.5768 30.2711L49.3803 28.5591Z" fill="#FF9A6C"/>
<path d="M46.3843 17.2397C46.4 17.401 46.4807 17.5498 46.609 17.654C46.7373 17.7581 46.9029 17.8093 47.0699 17.7964C47.1512 17.7944 47.2314 17.7768 47.3055 17.7444C47.3797 17.7121 47.4464 17.6658 47.5018 17.6081C47.5571 17.5505 47.6 17.4827 47.6279 17.4088C47.6558 17.335 47.6681 17.2564 47.6641 17.1779C47.6478 17.0168 47.567 16.8684 47.4388 16.7643C47.3106 16.6602 47.1454 16.6089 46.9785 16.6212C46.8971 16.6228 46.8168 16.6403 46.7425 16.6726C46.6682 16.7048 46.6013 16.7511 46.5459 16.8088C46.4905 16.8665 46.4476 16.9344 46.4199 17.0084C46.3921 17.0824 46.38 17.1611 46.3843 17.2397Z" fill="#263238"/>
<path d="M44.972 15.4283C45.0588 15.499 45.5022 15.108 46.1855 15.0395C46.8688 14.971 47.4035 15.2604 47.4698 15.161C47.5018 15.1235 47.4058 14.9865 47.1704 14.8539C46.8536 14.687 46.4914 14.6184 46.1329 14.6573C45.7778 14.6927 45.4435 14.8358 45.1777 15.066C44.9834 15.2449 44.9286 15.3952 44.972 15.4283Z" fill="#263238"/>
<path d="M52.4152 16.7449C52.4308 16.9062 52.5116 17.055 52.6399 17.1592C52.7682 17.2633 52.9337 17.3145 53.1007 17.3016C53.1821 17.2996 53.2622 17.282 53.3363 17.2496C53.4105 17.2173 53.4772 17.1709 53.5326 17.1133C53.588 17.0557 53.6308 16.9879 53.6587 16.914C53.6866 16.8401 53.6989 16.7616 53.6949 16.6831C53.6792 16.5216 53.5986 16.3726 53.4704 16.2681C53.3421 16.1635 53.1766 16.1119 53.0093 16.1242C52.9279 16.1264 52.8477 16.1444 52.7736 16.1769C52.6994 16.2095 52.6327 16.2561 52.5773 16.3139C52.522 16.3717 52.4792 16.4396 52.4513 16.5136C52.4235 16.5876 52.4112 16.6662 52.4152 16.7449Z" fill="#263238"/>
<path d="M51.6884 15.013C51.7753 15.0859 52.2209 14.6927 52.9019 14.6242C53.5829 14.5557 54.1223 14.8451 54.1862 14.7479C54.2182 14.7081 54.1245 14.5712 53.8892 14.4408C53.5719 14.273 53.2086 14.2044 52.8494 14.2442C52.4939 14.2781 52.1591 14.4213 51.8941 14.6529C51.7022 14.8296 51.6473 14.9821 51.6884 15.013Z" fill="#263238"/>
<path d="M49.7917 20.3346C49.7917 20.2971 49.3598 20.2684 48.6628 20.2529C48.4868 20.2529 48.3177 20.2374 48.2765 20.1248C48.242 19.9526 48.2636 19.7743 48.3382 19.6145L48.713 18.289C49.2295 16.3892 49.5837 14.834 49.506 14.8142C49.4283 14.7943 48.9416 16.3185 48.4251 18.2206L48.0732 19.557C47.9871 19.7691 47.9806 20.0036 48.0549 20.2198C48.0861 20.2773 48.1305 20.3272 48.1848 20.3655C48.2391 20.4038 48.3017 20.4295 48.3679 20.4407C48.4674 20.4525 48.5679 20.4525 48.6673 20.4407C49.3643 20.412 49.794 20.3722 49.7917 20.3346Z" fill="#263238"/>
<path d="M51.8507 20.5865C51.7387 20.5865 51.8164 21.3067 51.2382 21.881C50.6601 22.4554 49.8671 22.4554 49.8671 22.557C49.8671 22.6012 50.0567 22.6785 50.3927 22.652C50.8254 22.6127 51.2299 22.4274 51.5353 22.1284C51.8268 21.8392 51.9906 21.4519 51.9924 21.0482C52.0038 20.7456 51.901 20.5777 51.8507 20.5865Z" fill="#263238"/>
<path d="M51.4348 12.3312C51.5216 12.5035 52.1935 12.3488 53.0048 12.3621C53.8161 12.3753 54.4879 12.5189 54.5748 12.3466C54.6136 12.2649 54.4834 12.108 54.2023 11.96C53.8294 11.7853 53.4203 11.6945 53.0059 11.6945C52.5915 11.6945 52.1825 11.7853 51.8096 11.96C51.5216 12.0926 51.396 12.2494 51.4348 12.3312Z" fill="#263238"/>
<path d="M45.0155 13.206C45.1503 13.3429 45.6051 13.1397 46.1695 13.0734C46.734 13.0071 47.2253 13.0734 47.3122 12.9011C47.3533 12.8194 47.2619 12.6802 47.0379 12.5565C46.7379 12.415 46.4012 12.3628 46.0705 12.4065C45.7397 12.4501 45.4298 12.5877 45.18 12.8017C45.0017 12.9762 44.9538 13.1375 45.0155 13.206Z" fill="#263238"/>
<path d="M59.2115 16.7096C59.2847 16.6698 62.1687 15.5255 62.3926 18.4768C62.6166 21.4282 59.5201 21.0261 59.4995 20.9422C59.4789 20.8582 59.2115 16.7096 59.2115 16.7096Z" fill="#FFBF9D"/>
<path d="M60.3451 19.7603C60.3588 19.7603 60.3999 19.7912 60.4936 19.8244C60.6238 19.8679 60.7664 19.8608 60.8912 19.8045C61.2043 19.6675 61.4374 19.155 61.4123 18.6226C61.4017 18.3694 61.3322 18.1217 61.2089 17.898C61.1732 17.8082 61.1154 17.7281 61.0406 17.6646C60.9657 17.6011 60.8761 17.5561 60.7793 17.5335C60.7174 17.5217 60.6532 17.5314 60.598 17.5609C60.5428 17.5904 60.5001 17.6379 60.4776 17.6948C60.441 17.781 60.4662 17.8384 60.4502 17.845C60.4342 17.8517 60.3816 17.7986 60.3953 17.6771C60.4073 17.6024 60.4452 17.5339 60.5027 17.4827C60.5822 17.4158 60.6855 17.3817 60.7907 17.3877C60.9176 17.4022 61.0384 17.4483 61.1414 17.5215C61.2443 17.5947 61.3259 17.6925 61.378 17.8053C61.5281 18.0509 61.6129 18.3287 61.6248 18.6138C61.6499 19.208 61.378 19.7868 60.9392 19.9392C60.8593 19.9683 60.7737 19.9796 60.6886 19.9724C60.6036 19.9651 60.5213 19.9394 60.4479 19.8973C60.3565 19.831 60.3359 19.7647 60.3451 19.7603Z" fill="#FF9A6C"/>
<path d="M45.4748 8.73256C44.9652 8.4984 46.3432 6.86147 47.5316 6.25398C49.3118 5.33721 52.077 4.66786 53.7978 5.02573C55.8705 5.46755 57.6256 6.32909 58.7659 8.05659C59.9063 9.78409 60.4296 11.8452 60.5073 13.893C60.5302 14.5181 60.5073 15.172 60.1965 15.7199C59.8149 16.3981 59.0242 16.8598 59.1201 17.7566C59.143 17.9186 59.1321 18.0833 59.0882 18.2411C59.0442 18.3989 58.9681 18.5467 58.8642 18.6756C58.3432 19.2853 57.6256 18.7883 57.2759 18.2669C56.5287 17.1624 56.3618 15.7817 56.2156 14.4607C56.1105 13.5241 56.0076 12.5653 56.2156 11.6463C56.3298 11.1449 56.5401 10.6655 56.6269 10.1596C56.7138 9.65375 56.6612 9.09044 56.3138 8.70164C56.2329 8.62009 56.1441 8.54613 56.0487 8.48073C55.5991 8.14715 55.0656 7.93565 54.5031 7.86807C53.9407 7.8005 53.3698 7.87931 52.8494 8.09635C51.1697 8.79 48.2971 9.85036 47.4927 9.33343C46.3386 8.59118 46.037 8.06984 46.037 8.06984L45.4748 8.73256Z" fill="#263238"/>
<path d="M42.3623 34.5965C42.1863 34.8328 39.6885 35.6347 38.7401 37.1612C37.7917 38.6877 36.8548 45.5402 36.8548 45.5402L36.2515 50.0423C37.4398 51.8582 39.0349 54.2639 40.726 55.9605L42.3623 34.5965Z" fill="#005F31"/>
<g opacity="0.3">
<path d="M61.1312 41.206C61.1985 42.13 61.3796 43.0429 61.6705 43.9254C61.9973 44.7936 62.5709 45.6109 63.4096 46.0594C63.7592 46.2449 64.1546 46.3686 64.4494 46.6337C64.7442 46.8988 64.9224 47.3274 65.2081 47.6389C65.5654 47.9814 66.0064 48.2314 66.4901 48.3656C67.8514 48.8482 69.2961 49.0732 70.7453 49.0284C70.791 48.5556 70.7933 46.8193 70.839 46.3443L61.1312 41.206Z" fill="black"/>
</g>
<path d="M68.8211 31.2784C68.8211 31.2784 71.9702 32.1797 72.8934 33.4765C73.8167 34.7732 75.4507 39.8011 75.7866 40.7333C76.1225 41.6655 75.8277 43.826 75.1993 45.3724C74.5708 46.9187 73.4785 48.264 71.5931 48.4651C69.7078 48.6661 66.7278 47.6146 66.0559 46.9187C65.3841 46.2229 65.1075 44.6831 65.1075 44.6831C65.9448 44.5413 66.7704 44.3412 67.5779 44.0845" fill="#005F31"/>
<path d="M67.5779 44.0999L67.539 44.1154L67.4202 44.1574C67.3151 44.1927 67.1574 44.2435 66.9494 44.3032C66.3485 44.4768 65.7382 44.6184 65.1212 44.7273L65.1464 44.6942C65.223 45.0737 65.3307 45.4467 65.4686 45.8097C65.5438 46.0155 65.6347 46.2156 65.7405 46.4084C65.849 46.6144 65.9918 46.8017 66.1633 46.9629C66.3568 47.1234 66.5702 47.2599 66.7986 47.3694C67.0399 47.4918 67.2878 47.6017 67.5413 47.6985C68.0852 47.9087 68.6443 48.08 69.2141 48.211C69.8292 48.3569 70.4594 48.4347 71.0926 48.443C71.2575 48.4444 71.4222 48.437 71.5862 48.4209C71.7516 48.4026 71.9157 48.3745 72.0776 48.3369C72.4096 48.2648 72.7285 48.1449 73.0237 47.9813C73.6384 47.6376 74.1545 47.1509 74.5251 46.5652C74.917 45.9571 75.2171 45.2981 75.4163 44.608C75.579 44.0778 75.7005 43.5365 75.7797 42.9888C75.8647 42.4584 75.8923 41.9209 75.862 41.385C75.8439 41.1271 75.7893 40.8729 75.6997 40.6295C75.6129 40.382 75.5283 40.1368 75.4461 39.8938L74.9547 38.4734C74.6302 37.55 74.3103 36.6774 73.9903 35.8667C73.7095 35.1123 73.3711 34.3791 72.978 33.6731C72.7963 33.373 72.5538 33.1115 72.265 32.9043C72.0132 32.7107 71.7458 32.5371 71.4651 32.3852C71.0143 32.1366 70.548 31.9152 70.0688 31.7225C69.6758 31.5656 69.365 31.4552 69.1547 31.3823L68.9148 31.3005C68.8862 31.2932 68.8587 31.2828 68.8325 31.2696C68.8613 31.2732 68.8897 31.2799 68.917 31.2895L69.1616 31.3602C69.3764 31.4264 69.6918 31.5303 70.0894 31.6805C70.5726 31.8649 71.0435 32.0781 71.4994 32.3189C71.7851 32.4708 72.0579 32.6444 72.3152 32.838C72.6126 33.049 72.8629 33.3157 73.0511 33.6223C73.4531 34.3321 73.7985 35.0706 74.084 35.8313C74.4108 36.6399 74.7331 37.5147 75.0598 38.4381C75.2221 38.8997 75.3866 39.3747 75.5558 39.8585C75.6403 40.0993 75.7249 40.3445 75.8094 40.5919C75.9034 40.8437 75.961 41.1069 75.9808 41.3739C76.0133 41.9178 75.9865 42.4635 75.9008 43.002C75.82 43.5557 75.6971 44.1028 75.5329 44.6389C75.3288 45.3407 75.0209 46.0104 74.6188 46.6271C74.2378 47.2284 73.7065 47.7274 73.0739 48.0785C72.7692 48.246 72.4403 48.3689 72.0981 48.443C71.9317 48.4813 71.763 48.51 71.5931 48.5291C71.424 48.5291 71.2549 48.5578 71.0903 48.5512C70.4483 48.5399 69.8097 48.4584 69.1867 48.3082C68.6117 48.1749 68.0479 47.9999 67.5002 47.7847C67.2451 47.6849 66.9956 47.5721 66.7529 47.4467C66.5177 47.3328 66.2982 47.1911 66.0993 47.0247C65.9224 46.8555 65.7757 46.6592 65.6651 46.4438C65.5591 46.248 65.4682 46.045 65.3932 45.8363C65.2592 45.4667 65.1545 45.0879 65.0801 44.703V44.6743H65.1098C65.9142 44.5395 66.5312 44.3871 66.9494 44.2766L67.4248 44.1463L67.5459 44.1132C67.5642 44.0999 67.5779 44.0977 67.5779 44.0999Z" fill="#263238"/>
<path d="M73.3574 42.4718C73.3345 42.4718 73.2614 42.0963 72.9986 41.5352C72.6534 40.8058 72.1714 40.1444 71.5771 39.5846C71.2478 39.2816 70.8754 39.0257 70.4711 38.8246L70.1946 38.7053C70.1031 38.6656 70.0072 38.6479 69.9203 38.6192C69.7559 38.5692 69.5867 38.5351 69.4153 38.5176L69.301 38.5021H68.9902C68.8829 38.5006 68.7757 38.5094 68.6703 38.5286C68.5785 38.5465 68.4851 38.5561 68.3915 38.5573C68.478 38.5227 68.5686 38.4982 68.6611 38.4844C68.7675 38.4553 68.8774 38.4397 68.9879 38.438H69.1936H69.3056L69.4244 38.4513C69.6015 38.4632 69.7769 38.4928 69.9477 38.5397C70.0436 38.5629 70.1382 38.5909 70.2311 38.6236L70.5191 38.7429C70.9383 38.9431 71.3236 39.2038 71.6617 39.5161C72.269 40.0834 72.7503 40.7644 73.0763 41.5175C73.1345 41.6456 73.1849 41.7769 73.2271 41.9107C73.2623 42.0113 73.2913 42.1139 73.3139 42.2178C73.3368 42.3009 73.3513 42.386 73.3574 42.4718Z" fill="#263238"/>
<path d="M75.0758 39.7392C74.946 39.4177 74.7869 39.1079 74.6005 38.8136C74.127 38.1148 73.4181 37.5958 72.594 37.3446C71.6274 37.0596 70.6881 37.1479 70.0322 37.2076L69.2484 37.2982C69.1534 37.3147 69.057 37.3229 68.9604 37.3225C69.0508 37.2884 69.1452 37.2653 69.2415 37.254C69.4244 37.2186 69.6986 37.1722 70.0231 37.1281C70.8893 36.9817 71.7779 37.0179 72.6283 37.2341C73.094 37.3694 73.5263 37.5949 73.8989 37.8968C74.204 38.1475 74.4649 38.4444 74.6713 38.776C74.8126 38.9937 74.9255 39.2274 75.0073 39.4719C75.0407 39.5581 75.0637 39.6478 75.0758 39.7392Z" fill="#263238"/>
<path d="M72.7015 36.472C71.4696 36.1912 70.1818 36.2401 68.9765 36.6134C69.1346 36.5137 69.3082 36.4391 69.4907 36.3924C69.9232 36.2639 70.3709 36.1897 70.823 36.1715C71.2751 36.156 71.7274 36.1961 72.169 36.2908C72.3549 36.3252 72.5343 36.3862 72.7015 36.472Z" fill="#263238"/>
<path d="M67.6054 32.0383C67.6236 32.0383 67.5779 32.3498 67.5414 32.8491C67.4455 34.1279 67.5597 35.4132 67.8796 36.6575L67.7973 36.684C67.7036 36.43 67.6305 36.2223 67.5825 36.0765C67.5526 36.0055 67.5312 35.9314 67.5185 35.8556C67.5651 35.9242 67.602 35.9985 67.6282 36.0765C67.6899 36.2157 67.7745 36.4189 67.8796 36.6708L67.7973 36.6951C67.6164 36.0838 67.4962 35.4573 67.4385 34.824C67.3787 34.1689 67.3848 33.5097 67.4568 32.8557C67.4865 32.6061 67.5208 32.4139 67.5482 32.2659C67.5559 32.1878 67.5751 32.1112 67.6054 32.0383Z" fill="#263238"/>
<path d="M63.1513 26.3721C63.1513 26.3721 61.5174 26.3721 61.3117 28.2697C61.154 29.7277 61.3117 31.1415 61.3117 31.7821C61.3117 32.4227 61.0215 34.6915 61.0215 34.6915C61.0215 34.6915 59.9063 35.648 59.9245 36.7967C59.9428 37.9454 60.7929 38.3033 60.7929 38.3033C60.6504 38.6593 60.619 39.0478 60.7027 39.4209C60.7864 39.7939 60.9814 40.135 61.2637 40.4019C61.2637 40.4019 60.7907 41.4601 61.1792 42.1692C61.4031 42.5219 61.7525 42.7835 62.1618 42.9048C62.0948 43.0444 62.0595 43.1963 62.0584 43.3502C62.0572 43.5041 62.0903 43.6564 62.1553 43.7969C62.2202 43.9375 62.3157 44.0628 62.4351 44.1646C62.5545 44.2665 62.6951 44.3423 62.8474 44.3871C63.3964 44.5515 63.9715 44.6196 64.5454 44.5881L65.7657 44.566L66.8398 45.1404C66.8398 45.1404 68.6817 44.365 68.7274 43.3157L68.7754 42.2664C68.7754 42.2664 68.2475 40.5433 68.2041 39.991C68.1606 39.4388 68.6291 38.12 68.3458 37.5279C68.0624 36.9359 67.0729 36.5869 67.1666 35.7607C67.2602 34.9345 67.0729 34.475 66.6478 34.0177C66.2227 33.5604 64.3465 32.6503 64.3465 32.6503C64.3465 32.6503 63.8643 31.3248 63.8643 30.4169C63.8643 29.509 64.8036 26.7189 63.1513 26.3721Z" fill="#FFBF9D"/>
<path d="M64.2528 32.9949C64.1123 33.106 63.9589 33.2009 63.7957 33.2776C63.5078 33.4411 63.1102 33.6576 62.6531 33.8918C62.196 34.1259 61.7984 34.3336 61.5105 34.4772C61.3548 34.5681 61.1893 34.6422 61.0168 34.6981C61.1568 34.5857 61.3103 34.49 61.4739 34.4131C61.7618 34.2496 62.1595 34.0331 62.6165 33.799C63.0736 33.5648 63.4712 33.3572 63.7592 33.2136C63.9145 33.1226 64.0801 33.0492 64.2528 32.9949Z" fill="#FF9A6C"/>
<path d="M65.3269 36.567C65.3269 36.567 65.2812 36.6178 65.183 36.6907C65.0466 36.7942 64.9047 36.8908 64.7579 36.9801C64.2753 37.279 63.7623 37.5292 63.2268 37.7267C62.6913 37.9275 62.1362 38.0756 61.5699 38.1686C61.3414 38.2017 61.1746 38.2216 61.0535 38.2282C60.99 38.2397 60.9249 38.2397 60.8615 38.2282C60.8615 38.2105 61.1266 38.1752 61.5471 38.089C62.1016 37.9764 62.6463 37.8228 63.1765 37.6295C63.7054 37.4317 64.2174 37.1939 64.7076 36.9182C64.9077 36.791 65.1144 36.6738 65.3269 36.567Z" fill="#FF9A6C"/>
<path d="M66.7301 35.4293C66.7598 35.4403 66.6981 35.6502 66.5015 35.8114C66.305 35.9727 66.0948 36.0213 66.0879 35.9926C66.0811 35.9639 66.2502 35.8799 66.4216 35.7253C66.593 35.5707 66.6981 35.416 66.7301 35.4293Z" fill="#FF9A6C"/>
<path d="M66.0559 39.6928C65.8364 39.7959 65.6067 39.8773 65.3703 39.9358C64.8081 40.0975 64.2356 40.2237 63.6564 40.3136C63.0773 40.4048 62.4924 40.4579 61.9059 40.4726C61.6628 40.4907 61.4183 40.4833 61.1769 40.4505C61.417 40.4175 61.6589 40.3983 61.9013 40.3931C62.3584 40.3622 62.964 40.3047 63.6381 40.2009C64.3123 40.0971 64.9133 39.9623 65.3475 39.8563C65.5801 39.7885 65.8167 39.7339 66.0559 39.6928Z" fill="#FF9A6C"/>
<path d="M67.5505 39.4388C67.5852 39.3237 67.6272 39.2109 67.6762 39.1008C67.7668 38.8309 67.7972 38.5456 67.7653 38.2635C67.7289 37.9817 67.6291 37.711 67.4728 37.4705C67.3987 37.3744 67.3308 37.2741 67.2694 37.1701C67.2694 37.159 67.3997 37.2407 67.5436 37.4241C67.7284 37.6664 67.845 37.951 67.8818 38.25C67.9187 38.5489 67.8746 38.852 67.7539 39.1295C67.6602 39.3305 67.5619 39.4388 67.5505 39.4388Z" fill="#FF9A6C"/>
<path d="M66.1474 42.8915C65.9602 42.9582 65.7652 43.0027 65.5669 43.0241C65.0922 43.0965 64.6124 43.1327 64.1318 43.1323C63.6501 43.1315 63.1694 43.0923 62.6944 43.0152C62.4959 42.9936 62.3009 42.9483 62.1139 42.8805C62.3124 42.8839 62.5103 42.9023 62.7058 42.9357C63.1793 42.9875 63.6553 43.0147 64.1318 43.0175C64.6074 43.0165 65.0826 42.9914 65.5555 42.9423C65.7511 42.9102 65.949 42.8932 66.1474 42.8915Z" fill="#FF9A6C"/>
<path d="M63.2404 30.439C63.2404 30.4522 63.165 30.5119 63.0119 30.5649C62.8103 30.63 62.5963 30.6511 62.3853 30.6266C62.1743 30.6022 61.9715 30.5328 61.7916 30.4235C61.6545 30.3374 61.5905 30.2623 61.5996 30.2512C61.8523 30.3739 62.1215 30.4616 62.3995 30.5119C62.6819 30.5264 62.9651 30.5019 63.2404 30.439Z" fill="#FF9A6C"/>
<path d="M67.8887 39.5647C67.9093 39.6191 67.9186 39.6769 67.9162 39.7348C67.9162 39.8918 67.897 40.0483 67.859 40.2009C67.8156 40.3931 67.7402 40.6162 67.6671 40.8636C67.5785 41.1225 67.5497 41.3969 67.5825 41.6677C67.6214 41.9483 67.8385 42.1736 67.8727 42.4586C67.8961 42.6995 67.8323 42.9407 67.6922 43.1412C67.607 43.2741 67.5083 43.3985 67.3974 43.5123C67.3197 43.5941 67.2717 43.6338 67.2649 43.6294C67.258 43.625 67.4225 43.435 67.6191 43.1014C67.7373 42.9134 67.7879 42.6928 67.763 42.4741C67.7356 42.2333 67.5162 42.0079 67.4637 41.6876C67.4289 41.3999 67.4625 41.1082 67.5619 40.8349C67.6419 40.5853 67.7242 40.3666 67.7768 40.1722C67.8294 39.9726 67.8669 39.7696 67.8887 39.5647Z" fill="#FF9A6C"/>
<path d="M68.5034 40.952C68.5407 41.0167 68.5669 41.0868 68.5811 41.1596C68.6223 41.2944 68.6771 41.4932 68.7274 41.7406C68.7894 42.0317 68.8261 42.3273 68.8371 42.6243C68.8567 42.9956 68.7863 43.3663 68.6314 43.7067C68.4516 44.0326 68.2132 44.3251 67.9276 44.5704C67.7003 44.7706 67.4581 44.9545 67.2031 45.1205C66.986 45.2641 66.8032 45.3701 66.6752 45.4386C66.6123 45.4798 66.5439 45.5125 66.4718 45.5358C66.4604 45.5204 66.7346 45.3525 67.1574 45.0542C67.4026 44.8818 67.6362 44.6944 67.8567 44.4931C68.1283 44.253 68.3555 43.9699 68.5286 43.6559C68.675 43.3309 68.7445 42.9785 68.732 42.6243C68.7266 42.3318 68.6991 42.0402 68.6497 41.7517C68.5606 41.259 68.4852 40.9564 68.5034 40.952Z" fill="#263238"/>
<path d="M51.2611 33.598C51.1661 33.5439 51.0772 33.4802 50.996 33.408L50.3105 32.8535L49.8351 32.4669C49.7539 32.3935 49.6633 32.3303 49.5655 32.2792C49.5181 32.2557 49.4656 32.2435 49.4123 32.2435C49.3591 32.2435 49.3066 32.2557 49.2592 32.2792C49.0627 32.3786 48.9301 32.6216 48.7633 32.8248C48.5965 33.028 48.432 33.2666 48.2583 33.4875C47.984 33.8454 47.7167 34.1878 47.4721 34.5059L47.3236 34.6959L47.3716 34.4617C47.5026 33.8048 47.693 33.1602 47.9406 32.5354C48.032 32.3145 48.1143 32.1245 48.1692 32.003C48.1949 31.9378 48.2294 31.8761 48.272 31.8197C48.2563 31.8871 48.2341 31.9529 48.2057 32.0163C48.1577 32.1422 48.0869 32.3256 48.0046 32.5597C47.7812 33.1877 47.6062 33.8308 47.4813 34.4838L47.3785 34.4396L48.1623 33.419L48.6673 32.7563L48.9096 32.4448C48.9865 32.3342 49.09 32.2432 49.2112 32.1798C49.2747 32.1528 49.3438 32.1402 49.413 32.1429C49.4823 32.1456 49.5501 32.1635 49.6112 32.1952C49.715 32.2517 49.811 32.3208 49.8968 32.4007L50.3539 32.7983L51.0212 33.3793C51.107 33.446 51.1872 33.5191 51.2611 33.598Z" fill="#263238"/>
<path d="M60.9095 31.7313C60.883 31.7603 60.8531 31.7863 60.8204 31.8086L60.5507 32.0119L59.5429 32.7431L56.1813 35.1355L56.131 35.1708L56.0967 35.12C56.0693 35.0803 56.0419 35.0361 56.0122 34.9941L54.3257 32.4183L54.3874 32.4382C53.7375 32.6878 53.1106 32.99 52.5134 33.3417C52.2986 33.4676 52.1318 33.5626 52.0175 33.6444C51.962 33.6848 51.9023 33.7196 51.8393 33.7482C51.8877 33.6995 51.9414 33.6558 51.9993 33.6179C52.109 33.5405 52.2712 33.4279 52.4837 33.2931C53.0733 32.9222 53.6976 32.6056 54.3485 32.3476L54.3874 32.3322L54.4102 32.3653C54.9061 33.1098 55.4889 33.9912 56.1127 34.9323C56.1425 34.9742 56.1699 35.0184 56.1973 35.0582L56.1105 35.0427L59.4949 32.679L60.5233 31.9743L60.8067 31.7887C60.873 31.7468 60.9072 31.7269 60.9095 31.7313Z" fill="#263238"/>
<path d="M40.3992 40.5168C40.4097 40.5677 40.4143 40.6196 40.413 40.6714C40.413 40.7863 40.413 40.9343 40.4244 41.1133C40.4244 41.5131 40.445 42.072 40.4564 42.7568C40.4838 44.1441 40.5409 46.0704 40.6163 48.1801C40.6918 50.2898 40.7352 52.2161 40.7398 53.6056C40.7398 54.3014 40.7398 54.8626 40.7398 55.2513C40.7398 55.4347 40.7398 55.5849 40.7283 55.6932C40.7308 55.7457 40.727 55.7983 40.7169 55.85C40.7136 55.7978 40.7136 55.7454 40.7169 55.6932C40.7169 55.5805 40.7169 55.4303 40.7032 55.2513C40.7032 54.8493 40.6849 54.2904 40.6712 53.6078C40.6461 52.2183 40.5866 50.2942 40.5135 48.1823C40.4404 46.0704 40.3947 44.1463 40.3901 42.7568C40.3901 42.0632 40.3901 41.4998 40.3901 41.1133C40.3901 40.9277 40.3901 40.7797 40.3901 40.6714C40.3897 40.6198 40.3928 40.5681 40.3992 40.5168Z" fill="#263238"/>
<path d="M51.3365 60.4692C51.3289 60.4493 51.3242 60.4285 51.3228 60.4074C51.3228 60.3588 51.3228 60.2969 51.3022 60.2196C51.2839 60.0451 51.2588 59.8043 51.2291 59.4972C51.1651 58.8698 51.092 57.9509 51.0188 56.8353C50.9457 55.7197 50.884 54.3677 50.8451 52.8788C50.8063 51.3899 50.8017 49.7485 50.8451 48.0188C50.8886 46.2891 50.9685 44.661 51.0737 43.1743C51.1788 41.6876 51.3022 40.3489 51.4256 39.2289C51.549 38.1089 51.6541 37.201 51.7547 36.578C51.8004 36.271 51.8347 36.0324 51.8598 35.8601C51.8735 35.7828 51.8827 35.7209 51.8918 35.6723C51.8929 35.6511 51.8976 35.6302 51.9055 35.6104C51.9091 35.6317 51.9091 35.6533 51.9055 35.6745C51.9055 35.7231 51.8941 35.785 51.8872 35.8623C51.8667 36.0346 51.8392 36.2754 51.8027 36.5824C51.725 37.2098 51.6244 38.1155 51.5124 39.2333C51.4005 40.3511 51.2839 41.692 51.1857 43.1787C51.0874 44.6655 51.012 46.3024 50.9708 48.021C50.9297 49.7397 50.9411 51.3766 50.9708 52.8656C51.0005 54.3545 51.0577 55.6932 51.1217 56.8176C51.1857 57.942 51.2428 58.8544 51.2931 59.4818C51.3136 59.7888 51.3319 60.0318 51.3433 60.2063C51.3433 60.2836 51.3433 60.3455 51.3548 60.3941C51.3508 60.4196 51.3447 60.4447 51.3365 60.4692Z" fill="#263238"/>
<path d="M44.5264 24.311L44.2842 24.4656L43.5712 24.9075C43.2558 25.1041 42.8856 25.3846 42.4514 25.6939C42.2229 25.853 42.0126 26.0451 41.7658 26.2395L41.3933 26.5422C41.2653 26.6482 41.1442 26.7631 41.014 26.8846C39.7501 28.0243 38.6398 29.3136 37.7095 30.7218L37.3027 31.3536C37.1587 31.5634 37.049 31.7954 36.9165 32.0163C36.7839 32.2372 36.6537 32.4758 36.5348 32.7188C36.416 32.9618 36.3063 33.2114 36.1829 33.4632C36.1258 33.5891 36.0618 33.7129 36.007 33.8432C35.9521 33.9735 35.9041 34.1061 35.8516 34.2408C35.7487 34.5059 35.639 34.7732 35.5385 35.0493C35.3694 35.6082 35.1545 36.1738 35.0266 36.7768C34.3751 39.3862 34.2663 42.0947 34.7066 44.745C35.2796 48.1579 36.758 51.3689 38.9976 54.0648C41.2372 56.7606 44.1615 58.8492 47.4852 60.1268C50.8088 61.4043 54.4184 61.8271 57.9615 61.354C61.5046 60.8809 64.8604 59.528 67.7013 57.4273C68.4186 56.8944 69.1009 56.3189 69.7444 55.7042L70.2014 55.2359C70.3568 55.0813 70.5076 54.9244 70.6585 54.7587L71.0927 54.275C71.2298 54.1071 71.3646 53.9392 71.5017 53.7735C73.5689 51.1997 74.948 48.1731 75.5169 44.9615C75.6507 44.2158 75.7415 43.4636 75.7889 42.7082C75.8117 42.3349 75.8117 41.966 75.8255 41.6037C75.8392 41.2414 75.798 40.8725 75.7843 40.5124C75.7843 40.3335 75.7683 40.1523 75.7615 39.9734C75.7546 39.7944 75.7203 39.6199 75.702 39.4432C75.6563 39.092 75.6129 38.7429 75.5695 38.3983C75.5261 38.0537 75.4324 37.7179 75.3638 37.3821C75.3065 37.0492 75.2302 36.7195 75.1353 36.3947L74.8519 35.4381C74.8075 35.2812 74.7533 35.1271 74.6897 34.9764C74.6303 34.824 74.5708 34.6716 74.5137 34.5214C74.3926 34.2232 74.2852 33.9183 74.1549 33.6377C74.0247 33.3572 73.883 33.0722 73.7481 32.7961C72.7543 30.7989 71.421 28.9769 69.8038 27.4059C68.5785 26.229 67.2112 25.1988 65.7314 24.3375L64.8584 23.8537C64.7267 23.7791 64.5909 23.7112 64.4517 23.6505L64.0677 23.4738L63.3822 23.1601C63.1765 23.0585 62.9731 23.001 62.8017 22.9392L62.0064 22.6432L61.7368 22.5371L62.011 22.6321L62.8086 22.9193C62.9823 22.9856 63.1856 23.043 63.3936 23.1402L64.0792 23.4495L64.4654 23.6262C64.6053 23.6854 64.7419 23.7517 64.8744 23.825L65.7497 24.3066C67.2392 25.1625 68.6151 26.1906 69.8472 27.3684C71.4741 28.9382 72.8167 30.761 73.819 32.7607C73.9538 33.0413 74.0909 33.3218 74.2303 33.609C74.3697 33.8962 74.4589 34.1988 74.5914 34.4927L74.7697 34.9477C74.8333 35.0991 74.8875 35.254 74.9319 35.4116C75.0279 35.7297 75.1239 36.0478 75.2199 36.3726C75.3189 36.6986 75.399 37.0298 75.4598 37.3645C75.5284 37.7002 75.6106 38.0272 75.6701 38.3828C75.7295 38.7385 75.7569 39.0809 75.8026 39.4344C75.8232 39.6111 75.8529 39.7878 75.8643 39.9668C75.8757 40.1457 75.8803 40.3268 75.8872 40.508C75.9009 40.8703 75.9214 41.2348 75.9306 41.6125C75.9397 41.9903 75.9191 42.3526 75.894 42.7171C75.6606 46.7608 74.1597 50.6402 71.5909 53.8398L71.1749 54.3434L70.7362 54.8316C70.5945 54.9973 70.4414 55.1564 70.2791 55.311L69.8221 55.7838C69.1746 56.4021 68.4877 56.9805 67.7653 57.5157C64.9106 59.6251 61.5392 60.9835 57.9798 61.4585C54.4203 61.9335 50.7943 61.5089 47.4551 60.2261C44.116 58.9432 41.1777 56.8459 38.9266 54.1386C36.6756 51.4313 35.1886 48.2063 34.6107 44.7781C34.3788 43.3962 34.3022 41.9942 34.3821 40.5963C34.4398 39.307 34.6319 38.0266 34.9557 36.7746C35.0837 36.1693 35.3008 35.6038 35.4699 35.0405C35.5727 34.7666 35.6847 34.4971 35.7899 34.2298C35.8424 34.0972 35.895 33.9647 35.9452 33.8321C35.9955 33.6996 36.0664 33.5781 36.1235 33.45C36.2446 33.1981 36.352 32.9507 36.4777 32.7055C36.6034 32.4603 36.7382 32.2328 36.8639 32.0008C36.9896 31.7689 37.1084 31.5391 37.2524 31.327L37.6638 30.6952C38.599 29.2849 39.718 27.9967 40.9934 26.8625C41.1237 26.7454 41.2448 26.6261 41.3728 26.5201L41.7475 26.2174C41.9944 26.0253 42.2046 25.8353 42.4331 25.6762C42.8787 25.367 43.2444 25.0908 43.562 24.8964L44.2819 24.4546C44.4373 24.3574 44.5264 24.311 44.5264 24.311Z" fill="#263238"/>
</svg>
