<svg width="105" height="68" viewBox="0 0 105 68" fill="none" xmlns="http://www.w3.org/2000/svg">
<path d="M101.931 0.375488H3.04827C1.39141 0.375488 0.0482674 1.71864 0.0482674 3.37549V64.6788C0.0482674 66.3357 1.39142 67.6788 3.04827 67.6788H101.931C103.588 67.6788 104.931 66.3357 104.931 64.6788V3.37549C104.931 1.71863 103.588 0.375488 101.931 0.375488Z" fill="white"/>
<path d="M101.929 19.867H31.5393C29.8825 19.867 28.5393 21.2101 28.5393 22.867V24.3101C28.5393 25.9669 29.8825 27.3101 31.5393 27.3101H101.929C103.586 27.3101 104.929 25.9669 104.929 24.3101V22.867C104.929 21.2102 103.586 19.867 101.929 19.867Z" fill="#F5F5F5"/>
<path d="M101.929 41.353H31.5393C29.8825 41.353 28.5393 42.6962 28.5393 44.353V49.7239C28.5393 51.3808 29.8825 52.7239 31.5393 52.7239H101.929C103.586 52.7239 104.929 51.3808 104.929 49.7239V44.353C104.929 42.6962 103.586 41.353 101.929 41.353Z" fill="#F5F5F5"/>
<path d="M25.5417 11.0102H3.04827C1.39141 11.0102 0.0482674 12.3534 0.0482674 14.0102V64.4852C0.0482674 66.1421 1.39142 67.4852 3.04827 67.4852H25.5417C27.1986 67.4852 28.5417 66.1421 28.5417 64.4852V14.0102C28.5417 12.3534 27.1986 11.0102 25.5417 11.0102Z" fill="#EBEBEB"/>
<path d="M25.778 12.5233H2.81203C1.28565 12.5233 0.0482674 13.7607 0.0482674 15.2871C0.0482674 16.8135 1.28565 18.0508 2.81203 18.0508H25.778C27.3044 18.0508 28.5417 16.8135 28.5417 15.2871C28.5417 13.7607 27.3044 12.5233 25.778 12.5233Z" fill="#005F31"/>
<path d="M23.0322 23.0332C23.0322 23.0689 19.0228 23.0995 14.0761 23.0995C9.12933 23.0995 5.11996 23.0689 5.11996 23.0332C5.11996 22.9976 9.12933 22.967 14.0761 22.967C19.0228 22.967 23.0322 22.995 23.0322 23.0332Z" fill="#263238"/>
<path d="M23.0322 29.977C23.0322 30.0127 19.0228 30.0433 14.0761 30.0433C9.12933 30.0433 5.11996 30.0127 5.11996 29.977C5.11996 29.9414 9.12933 29.9108 14.0761 29.9108C19.0228 29.9108 23.0322 29.9414 23.0322 29.977Z" fill="#263238"/>
<path d="M23.0322 36.9208C23.0322 36.959 19.0228 36.987 14.0761 36.987C9.12933 36.987 5.11996 36.959 5.11996 36.9208C5.11996 36.8826 9.12933 36.8546 14.0761 36.8546C19.0228 36.8546 23.0322 36.8953 23.0322 36.9208Z" fill="#263238"/>
<path d="M74.6648 32.3944C74.6648 32.4326 65.6552 32.4606 54.5416 32.4606C43.428 32.4606 34.4184 32.4326 34.4184 32.3944C34.4184 32.3562 43.4254 32.3281 54.5416 32.3281C65.6578 32.3281 74.6648 32.3587 74.6648 32.3944Z" fill="#263238"/>
<path d="M51.4085 36.0165C51.4085 36.0522 47.5876 36.0828 42.8599 36.0828C38.1323 36.0828 34.3088 36.0522 34.3088 36.0165C34.3088 35.9809 38.1297 35.9503 42.8599 35.9503C47.5902 35.9503 51.4085 35.9783 51.4085 36.0165Z" fill="#263238"/>
<path d="M98.1403 29.8599H81.3514C80.2217 29.8599 79.3059 30.7756 79.3059 31.9053V35.0308C79.3059 36.1604 80.2217 37.0762 81.3514 37.0762H98.1403C99.2699 37.0762 100.186 36.1604 100.186 35.0308V31.9053C100.186 30.7756 99.2699 29.8599 98.1403 29.8599Z" fill="#005F31"/>
<path d="M74.6648 45.2274C74.6648 45.2656 65.6552 45.2936 54.5416 45.2936C43.428 45.2936 34.4184 45.2656 34.4184 45.2274C34.4184 45.1892 43.4254 45.1612 54.5416 45.1612C65.6578 45.1612 74.6648 45.1917 74.6648 45.2274Z" fill="#263238"/>
<path d="M51.4085 48.8496C51.4085 48.8852 47.5876 48.9158 42.8599 48.9158C38.1323 48.9158 34.3088 48.8852 34.3088 48.8496C34.3088 48.8139 38.1297 48.7833 42.8599 48.7833C47.5902 48.7833 51.4085 48.8139 51.4085 48.8496Z" fill="#263238"/>
<path d="M98.1403 43.429H81.3514C80.2217 43.429 79.3059 44.3448 79.3059 45.4745V48.5999C79.3059 49.7296 80.2217 50.6454 81.3514 50.6454H98.1403C99.2699 50.6454 100.186 49.7296 100.186 48.5999V45.4745C100.186 44.3448 99.2699 43.429 98.1403 43.429Z" fill="#005F31"/>
<path d="M74.6648 58.0604C74.6648 58.0986 65.6552 58.1292 54.5416 58.1292C43.428 58.1292 34.4184 58.0986 34.4184 58.0604C34.4184 58.0222 43.4254 57.9942 54.5416 57.9942C65.6578 57.9942 74.6648 58.0375 74.6648 58.0604Z" fill="#263238"/>
<path d="M51.4085 61.6826C51.4085 61.7183 47.5876 61.7488 42.8599 61.7488C38.1323 61.7488 34.3088 61.7183 34.3088 61.6826C34.3088 61.6469 38.1297 61.6164 42.8599 61.6164C47.5902 61.6164 51.4085 61.6469 51.4085 61.6826Z" fill="#263238"/>
<path d="M98.1403 57.0007H81.3514C80.2217 57.0007 79.3059 57.9165 79.3059 59.0462V62.1717C79.3059 63.3013 80.2217 64.2171 81.3514 64.2171H98.1403C99.2699 64.2171 100.186 63.3013 100.186 62.1717V59.0462C100.186 57.9165 99.2699 57.0007 98.1403 57.0007Z" fill="#005F31"/>
<path d="M101.931 0.288879H3.04827C1.39141 0.288879 0.0482674 1.63203 0.0482674 3.28888V3.71048C0.0482674 5.36734 1.39142 6.71048 3.04827 6.71048H101.931C103.588 6.71048 104.931 5.36734 104.931 3.71048V3.28888C104.931 1.63203 103.588 0.288879 101.931 0.288879Z" fill="#E0E0E0"/>
<path d="M101.931 6.10425H3.04827C1.39141 6.10425 0.0482674 7.4474 0.0482674 9.10425V9.52585C0.0482674 11.1827 1.39142 12.5259 3.04827 12.5259H101.931C103.588 12.5259 104.931 11.1827 104.931 9.52585V9.10425C104.931 7.44739 103.588 6.10425 101.931 6.10425Z" fill="#F5F5F5"/>
<path d="M85.8587 47.6307C85.804 47.4989 85.6752 47.4129 85.5325 47.4129H85.054C84.9112 47.4129 84.7825 47.4989 84.7277 47.6307L84.6934 47.7135C84.6594 47.7952 84.5796 47.8485 84.4912 47.8485C84.3325 47.8485 84.2265 47.685 84.2913 47.5401L84.9679 46.0282C85.0271 45.8959 85.1586 45.8107 85.3036 45.8107C85.4484 45.8107 85.5797 45.8957 85.639 46.0279L86.3111 47.5256C86.3792 47.6772 86.2683 47.8485 86.1021 47.8485C86.0095 47.8485 85.926 47.7928 85.8905 47.7072L85.8587 47.6307ZM85.2892 47.0538C85.4453 47.0538 85.5508 46.8946 85.4901 46.7508C85.4148 46.5723 85.1614 46.5734 85.0876 46.7525C85.0284 46.8961 85.1339 47.0538 85.2892 47.0538Z" fill="#FAFAFA"/>
<path d="M86.4942 47.064C86.4943 46.9522 86.5174 46.8417 86.5622 46.7393C86.607 46.6369 86.6724 46.545 86.7545 46.4691C86.8365 46.3933 86.9334 46.3352 87.039 46.2986C87.0694 46.2881 87.1004 46.2794 87.1317 46.2726C87.2862 46.2389 87.4504 46.2375 87.6037 46.2765C87.6658 46.2923 87.7258 46.3163 87.7821 46.3483C87.8507 46.3872 87.9121 46.4368 87.9642 46.495C88.0369 46.5761 87.9971 46.6971 87.9009 46.7483C87.8013 46.8013 87.6784 46.7553 87.5841 46.6933C87.5805 46.6909 87.5769 46.6886 87.5732 46.6864C87.5106 46.6481 87.4387 46.628 87.3654 46.6284C87.2499 46.6284 87.1391 46.6743 87.0574 46.7559C86.9757 46.8376 86.9298 46.9484 86.9298 47.064C86.9298 47.1795 86.9757 47.2903 87.0574 47.372C87.1391 47.4536 87.2499 47.4995 87.3654 47.4995C87.4389 47.5008 87.5112 47.4811 87.5739 47.4427C87.5768 47.441 87.5796 47.4392 87.5824 47.4374C87.678 47.3755 87.8029 47.3286 87.9028 47.3833C87.9978 47.4352 88.036 47.556 87.9631 47.6361C87.9106 47.6937 87.8491 47.7428 87.7805 47.7815C87.7197 47.8157 87.6547 47.8409 87.5874 47.8566C87.4442 47.8901 87.2923 47.8894 87.148 47.8606C87.1111 47.8532 87.0746 47.8433 87.0388 47.8308C86.9332 47.7939 86.8364 47.7356 86.7544 47.6596C86.6724 47.5836 86.6069 47.4914 86.5622 47.3889C86.5174 47.2864 86.4943 47.1758 86.4942 47.064Z" fill="#FAFAFA"/>
<path d="M88.1958 47.064C88.1962 46.9521 88.2196 46.8415 88.2647 46.7392C88.3098 46.6368 88.3755 46.5448 88.4577 46.469C88.54 46.3932 88.637 46.3352 88.7427 46.2986C88.7727 46.2883 88.8032 46.2797 88.8341 46.2729C88.9897 46.2387 89.1552 46.2371 89.3095 46.2769C89.3706 46.2927 89.4297 46.3165 89.4852 46.3481C89.554 46.3872 89.6155 46.4373 89.6675 46.4959C89.7393 46.5768 89.6996 46.6969 89.6043 46.748C89.5051 46.8012 89.3823 46.7558 89.2883 46.6939C89.2846 46.6914 89.2808 46.6891 89.2771 46.6867C89.2146 46.6485 89.1427 46.6283 89.0695 46.6284C88.954 46.6284 88.8432 46.6743 88.7615 46.756C88.6798 46.8376 88.6339 46.9484 88.6339 47.064C88.6339 47.1795 88.6798 47.2903 88.7615 47.372C88.8432 47.4536 88.954 47.4995 89.0695 47.4995C89.1429 47.5005 89.2151 47.4806 89.2778 47.4423C89.2807 47.4405 89.2837 47.4387 89.2866 47.4368C89.3819 47.3749 89.5066 47.3287 89.6061 47.3836C89.7004 47.4355 89.7383 47.5553 89.6663 47.6352C89.614 47.6932 89.5524 47.7428 89.4837 47.7816C89.4251 47.8147 89.3626 47.8394 89.298 47.8551C89.1508 47.8911 88.9941 47.8904 88.8456 47.86C88.8106 47.8529 88.776 47.8434 88.7421 47.8316C88.6362 47.7949 88.5391 47.7367 88.4568 47.6606C88.3745 47.5845 88.3088 47.4922 88.2639 47.3896C88.219 47.2869 88.1958 47.176 88.1958 47.064Z" fill="#FAFAFA"/>
<path d="M91.5634 47.0721C91.5491 47.1398 91.4942 47.1938 91.4251 47.1938H90.6576C90.506 47.1938 90.4012 47.3478 90.5256 47.4343C90.5485 47.4502 90.5728 47.4637 90.5981 47.4747C90.73 47.532 90.8867 47.5242 91.021 47.4728C91.0319 47.4686 91.0427 47.4641 91.0532 47.4592C91.1443 47.4172 91.2587 47.414 91.3296 47.4849C91.4 47.5553 91.402 47.6711 91.3193 47.7266C91.2694 47.7601 91.2158 47.7882 91.1595 47.8102C91.1216 47.8251 91.0829 47.8371 91.0435 47.8462C90.8889 47.8821 90.7252 47.8857 90.5695 47.8554C90.5362 47.8489 90.5033 47.8403 90.4709 47.8297C90.3628 47.7942 90.2633 47.7364 90.1788 47.6601C90.0943 47.5838 90.0268 47.4907 89.9805 47.3867C89.9342 47.2827 89.9103 47.1701 89.9101 47.0563C89.9089 46.9473 89.9301 46.8393 89.9722 46.7387C90.0143 46.6382 90.0765 46.5474 90.1549 46.4718C90.2334 46.3961 90.3265 46.3374 90.4285 46.299C90.5305 46.2607 90.6393 46.2436 90.7482 46.2488C90.8571 46.2409 90.9665 46.2565 91.0689 46.2945C91.1714 46.3325 91.2645 46.392 91.342 46.469C91.4195 46.546 91.4795 46.6387 91.5182 46.7409C91.5555 46.8397 91.5719 46.9451 91.5665 47.0505C91.5661 47.0578 91.5649 47.065 91.5634 47.0721ZM90.4915 46.708C90.386 46.7917 90.482 46.9264 90.6166 46.9264H90.8542C90.9888 46.9264 91.0848 46.7917 90.9794 46.708C90.91 46.6529 90.824 46.6229 90.7354 46.6229C90.6468 46.6229 90.5608 46.6529 90.4915 46.708Z" fill="#FAFAFA"/>
<path d="M93.568 47.064C93.5743 47.1696 93.5587 47.2755 93.522 47.3748C93.4854 47.4741 93.4285 47.5647 93.355 47.6408C93.2814 47.717 93.1929 47.777 93.0949 47.8172C92.997 47.8573 92.8918 47.8766 92.786 47.874C92.6983 47.8782 92.6107 47.8632 92.5293 47.8303C92.4422 47.7949 92.3147 47.8513 92.3147 47.9453V48.2087C92.3147 48.3235 92.2217 48.4165 92.1069 48.4165H92.0867C91.9608 48.4165 91.8587 48.3145 91.8587 48.1886V46.4972C91.8587 46.3769 91.9563 46.2794 92.0765 46.2794H92.2448C92.2722 46.2794 92.2943 46.3016 92.2943 46.3289C92.2943 46.3746 92.3542 46.3988 92.3911 46.3718C92.4298 46.3435 92.4719 46.3198 92.5165 46.3013C92.6017 46.266 92.6939 46.2506 92.786 46.2565C92.8915 46.2538 92.9965 46.2731 93.0943 46.3131C93.1921 46.3531 93.2805 46.4129 93.354 46.4888C93.4274 46.5647 93.4844 46.655 93.5212 46.754C93.5581 46.8529 93.574 46.9585 93.568 47.064ZM93.1069 47.064C93.1005 46.986 93.0714 46.9116 93.0234 46.8498C92.9753 46.7881 92.9103 46.7417 92.8363 46.7164C92.7623 46.691 92.6825 46.6877 92.6066 46.707C92.5308 46.7263 92.4623 46.7672 92.4093 46.8249C92.3564 46.8825 92.3215 46.9543 92.3087 47.0315C92.296 47.1087 92.306 47.1879 92.3376 47.2595C92.3692 47.3311 92.4209 47.3919 92.4865 47.4346C92.5521 47.4772 92.6287 47.4998 92.707 47.4995C92.7628 47.5002 92.818 47.489 92.8692 47.4669C92.9204 47.4447 92.9664 47.412 93.0041 47.3709C93.0418 47.3298 93.0705 47.2813 93.0882 47.2284C93.1059 47.1755 93.1123 47.1195 93.1069 47.064Z" fill="#FAFAFA"/>
<path d="M94.8408 47.6531C94.8665 47.7239 94.8396 47.8051 94.7691 47.8316C94.7005 47.8575 94.6278 47.8719 94.5542 47.874C94.5268 47.8748 94.4994 47.8767 94.4721 47.8788C94.4073 47.8838 94.3421 47.8764 94.2799 47.8569C94.2045 47.8332 94.1357 47.7923 94.0789 47.7374C94.0221 47.6826 93.9788 47.6153 93.9525 47.5408C93.9261 47.4664 93.9174 47.3869 93.9271 47.3085V46.7812C93.9271 46.7165 93.8747 46.664 93.8099 46.664C93.7452 46.664 93.6928 46.6116 93.6928 46.5469V46.4411C93.6928 46.3743 93.7469 46.3201 93.8138 46.3201C93.8806 46.3201 93.9348 46.266 93.9348 46.1992V46.1278C93.9348 46.0216 94.0209 45.9355 94.1271 45.9355H94.1984C94.3046 45.9355 94.3907 46.0216 94.3907 46.1278C94.3907 46.234 94.4768 46.3201 94.583 46.3201H94.606C94.7023 46.3201 94.7804 46.3983 94.7804 46.4946C94.7804 46.591 94.7023 46.6691 94.606 46.6691H94.5856C94.478 46.6691 94.3907 46.7564 94.3907 46.864V47.3085C94.3869 47.3355 94.3891 47.363 94.3972 47.3891C94.4054 47.4151 94.4192 47.439 94.4378 47.459C94.4563 47.479 94.4791 47.4946 94.5044 47.5047C94.5298 47.5148 94.5571 47.5191 94.5843 47.5174C94.6843 47.517 94.8037 47.5508 94.8378 47.6448L94.8408 47.6531Z" fill="#FAFAFA"/>
<path d="M85.8587 61.1477C85.804 61.0151 85.6747 60.9286 85.5313 60.9286H85.0552C84.9117 60.9286 84.7825 61.0151 84.7277 61.1477L84.6932 61.2314C84.6594 61.3133 84.5795 61.3667 84.4909 61.3667C84.3324 61.3667 84.2265 61.2033 84.2912 61.0586L84.9679 59.5464C85.0271 59.4141 85.1586 59.3289 85.3036 59.3289C85.4484 59.3289 85.5797 59.414 85.639 59.5461L86.3112 61.044C86.3792 61.1955 86.2684 61.3667 86.1023 61.3667C86.0096 61.3667 85.9261 61.3108 85.8907 61.2251L85.8587 61.1477ZM85.2892 60.5694C85.4452 60.5694 85.5506 60.4103 85.4898 60.2667C85.4144 60.0887 85.1618 60.0897 85.0879 60.2683C85.0286 60.4118 85.134 60.5694 85.2892 60.5694Z" fill="#FAFAFA"/>
<path d="M86.4942 60.5847C86.4943 60.4729 86.5174 60.3622 86.5622 60.2598C86.6069 60.1573 86.6724 60.0651 86.7544 59.9891C86.8364 59.913 86.9332 59.8548 87.0388 59.8179C87.0728 59.806 87.1076 59.7964 87.1427 59.7891C87.2904 59.7587 87.4462 59.7575 87.5928 59.7928C87.6588 59.8088 87.7226 59.834 87.7823 59.868C87.851 59.9072 87.9125 59.9572 87.9646 60.0156C88.037 60.0969 87.9971 60.2178 87.901 60.269C87.8014 60.322 87.6784 60.276 87.584 60.214C87.5804 60.2116 87.5768 60.2093 87.5732 60.2071C87.5106 60.1689 87.4387 60.1488 87.3654 60.1491C87.2499 60.1491 87.1391 60.195 87.0574 60.2767C86.9757 60.3584 86.9298 60.4692 86.9298 60.5847C86.9298 60.7002 86.9757 60.811 87.0574 60.8927C87.1391 60.9744 87.2499 61.0203 87.3654 61.0203C87.4388 61.0212 87.511 61.0014 87.5737 60.9631C87.577 60.9611 87.5802 60.959 87.5834 60.9569C87.6783 60.8949 87.8022 60.8484 87.9019 60.9022C87.9974 60.9537 88.0362 61.0746 87.9633 61.1551C87.9111 61.2127 87.8496 61.262 87.781 61.3006C87.7237 61.3329 87.6625 61.3571 87.5993 61.3728C87.4487 61.4102 87.2879 61.4093 87.1361 61.3771C87.1033 61.3701 87.0709 61.3611 87.039 61.35C86.9334 61.3134 86.8365 61.2554 86.7545 61.1795C86.6724 61.1037 86.607 61.0117 86.5622 60.9093C86.5174 60.807 86.4943 60.6964 86.4942 60.5847Z" fill="#FAFAFA"/>
<path d="M88.1958 60.5847C88.1958 60.4726 88.219 60.3618 88.2639 60.2591C88.3088 60.1564 88.3745 60.0642 88.4568 59.9881C88.5391 59.912 88.6362 59.8538 88.7421 59.817C88.7731 59.8063 88.8046 59.7975 88.8365 59.7906C88.9907 59.7572 89.1543 59.7558 89.307 59.7949C89.3692 59.8108 89.4294 59.8351 89.4857 59.8674C89.5548 59.9069 89.6164 59.9574 89.6684 60.0165C89.7397 60.0977 89.6999 60.2175 89.6046 60.2686C89.5052 60.3219 89.3822 60.2763 89.288 60.2144C89.2844 60.212 89.2807 60.2097 89.2771 60.2075C89.2146 60.1693 89.1427 60.1491 89.0695 60.1491C88.954 60.1491 88.8432 60.195 88.7615 60.2767C88.6798 60.3584 88.6339 60.4692 88.6339 60.5847C88.6339 60.7002 88.6798 60.811 88.7615 60.8927C88.8432 60.9744 88.954 61.0203 89.0695 61.0203C89.1429 61.0209 89.2149 61.001 89.2775 60.9627C89.2809 60.9606 89.2843 60.9585 89.2876 60.9563C89.3822 60.8944 89.5059 60.8485 89.6052 60.9025C89.6999 60.954 89.7386 61.0739 89.6666 61.1542C89.6144 61.2123 89.5529 61.2619 89.4842 61.3007C89.4276 61.3327 89.3673 61.3567 89.3049 61.3725C89.1534 61.4106 88.9914 61.4094 88.8386 61.3768C88.8062 61.3698 88.7742 61.3609 88.7427 61.35C88.637 61.3135 88.54 61.2555 88.4577 61.1797C88.3755 61.1039 88.3098 61.0119 88.2647 60.9095C88.2196 60.8071 88.1962 60.6966 88.1958 60.5847Z" fill="#FAFAFA"/>
<path d="M91.563 60.5941C91.549 60.6581 91.4971 60.7095 91.4316 60.7095H90.6585C90.5061 60.7095 90.4001 60.8641 90.5249 60.9516C90.5481 60.9678 90.5726 60.9815 90.5981 60.9926C90.73 61.0501 90.8867 61.0425 91.021 60.991C91.0319 60.9868 91.0426 60.9823 91.0531 60.9775C91.1443 60.9355 91.2587 60.9323 91.3297 61.0032C91.4 61.0736 91.4021 61.1894 91.3196 61.2449C91.2696 61.2785 91.2159 61.3066 91.1596 61.3287C91.1224 61.3433 91.0843 61.3552 91.0456 61.3642C90.8897 61.4007 90.7244 61.4042 90.5674 61.3732C90.535 61.3668 90.503 61.3585 90.4715 61.3482C90.3636 61.3128 90.2642 61.2553 90.1797 61.1792C90.0953 61.1032 90.0277 61.0104 89.9813 60.9067C89.9348 60.803 89.9106 60.6907 89.9101 60.5771C89.9086 60.4679 89.9294 60.3596 89.9714 60.2587C90.0133 60.1579 90.0755 60.0668 90.154 59.9909C90.2325 59.915 90.3257 59.856 90.4279 59.8175C90.5301 59.779 90.6391 59.7618 90.7481 59.7671C90.8567 59.7616 90.9653 59.7789 91.0668 59.8179C91.1683 59.8569 91.2605 59.9168 91.3375 59.9935C91.4145 60.0703 91.4746 60.1623 91.5139 60.2637C91.5518 60.3612 91.5696 60.4653 91.5663 60.5698C91.566 60.578 91.5648 60.5861 91.563 60.5941ZM90.4915 60.2365C90.386 60.3202 90.482 60.4548 90.6166 60.4548H90.8542C90.9888 60.4548 91.0848 60.3202 90.9794 60.2365C90.91 60.1814 90.824 60.1514 90.7354 60.1514C90.6468 60.1514 90.5608 60.1814 90.4915 60.2365Z" fill="#FAFAFA"/>
<path d="M93.568 60.5847C93.574 60.6902 93.5581 60.7957 93.5212 60.8947C93.4844 60.9937 93.4274 61.084 93.354 61.1599C93.2805 61.2358 93.1921 61.2956 93.0943 61.3356C92.9965 61.3756 92.8915 61.3949 92.786 61.3922C92.6984 61.3967 92.611 61.3822 92.5297 61.3497C92.4421 61.3146 92.3147 61.3712 92.3147 61.4656V61.7265C92.3147 61.8415 92.2214 61.9348 92.1064 61.9348H92.0867C91.9608 61.9348 91.8587 61.8327 91.8587 61.7068V60.018C91.8587 59.8977 91.9563 59.8002 92.0765 59.8002H92.245C92.2722 59.8002 92.2943 59.8223 92.2943 59.8495C92.2943 59.8951 92.3542 59.9192 92.3909 59.8921C92.4296 59.8636 92.4716 59.8397 92.5162 59.8209C92.6014 59.7852 92.6937 59.7694 92.786 59.7747C92.8918 59.7721 92.997 59.7914 93.0949 59.8315C93.1929 59.8717 93.2814 59.9317 93.355 60.0079C93.4285 60.084 93.4854 60.1746 93.522 60.2739C93.5587 60.3732 93.5743 60.4791 93.568 60.5847ZM93.1069 60.5847C93.1005 60.5068 93.0714 60.4324 93.0234 60.3706C92.9753 60.3089 92.9103 60.2625 92.8363 60.2371C92.7623 60.2118 92.6825 60.2085 92.6066 60.2278C92.5308 60.2471 92.4623 60.288 92.4093 60.3457C92.3564 60.4033 92.3215 60.4751 92.3087 60.5523C92.296 60.6295 92.306 60.7087 92.3376 60.7803C92.3692 60.8519 92.4209 60.9127 92.4865 60.9553C92.5521 60.998 92.6287 61.0205 92.707 61.0203C92.7629 61.0213 92.8183 61.0105 92.8697 60.9885C92.9211 60.9664 92.9672 60.9338 93.005 60.8926C93.0428 60.8514 93.0715 60.8027 93.089 60.7496C93.1066 60.6965 93.1127 60.6403 93.1069 60.5847Z" fill="#FAFAFA"/>
<path d="M94.8424 61.1675C94.8673 61.2394 94.84 61.3213 94.7688 61.3483C94.7012 61.374 94.6296 61.3881 94.5569 61.39C94.5277 61.3908 94.4985 61.3926 94.4694 61.3947C94.4057 61.3992 94.3417 61.3918 94.2806 61.3726C94.2055 61.3491 94.1368 61.3084 94.0801 61.2539C94.0233 61.1993 93.98 61.1324 93.9534 61.0583C93.9269 60.9841 93.9179 60.9049 93.9271 60.8267V60.2994C93.9271 60.2347 93.8747 60.1823 93.8099 60.1823C93.7452 60.1823 93.6928 60.1298 93.6928 60.0651V59.9415C93.6928 59.8747 93.7469 59.8205 93.8138 59.8205C93.8806 59.8205 93.9348 59.7664 93.9348 59.6996V59.6295C93.9348 59.524 94.0203 59.4385 94.1258 59.4385H94.1997C94.3052 59.4385 94.3907 59.524 94.3907 59.6295C94.3907 59.735 94.4762 59.8205 94.5818 59.8205H94.6047C94.7018 59.8205 94.7804 59.8992 94.7804 59.9963C94.7804 60.0934 94.7018 60.1721 94.6047 60.1721H94.5856C94.478 60.1721 94.3907 60.2593 94.3907 60.3669V60.7682C94.3907 60.797 94.3869 60.8259 94.3896 60.8545C94.3908 60.8671 94.3933 60.8796 94.3971 60.8917C94.4053 60.9176 94.4192 60.9414 94.4378 60.9612C94.4564 60.9811 94.4792 60.9964 94.5046 61.0062C94.53 61.016 94.5572 61.02 94.5843 61.0178C94.6832 61.0191 94.8028 61.0532 94.8351 61.1466L94.8424 61.1675Z" fill="#FAFAFA"/>
<path d="M22.1789 15.6029C22.1789 15.6411 18.4421 15.6692 13.8341 15.6692C9.22612 15.6692 5.48932 15.6411 5.48932 15.6029C5.48932 15.5647 9.22612 15.5367 13.8341 15.5367C18.4421 15.5367 22.1789 15.5673 22.1789 15.6029Z" fill="white"/>
<path d="M4.30229 3.29974C4.30229 3.45956 4.25487 3.61577 4.16603 3.74862C4.07719 3.88146 3.95093 3.98495 3.80323 4.046C3.65553 4.10704 3.49305 4.12288 3.33634 4.09151C3.17964 4.06015 3.03577 3.98299 2.92294 3.86981C2.81011 3.75663 2.73341 3.61251 2.70254 3.45571C2.67167 3.2989 2.68803 3.13647 2.74954 2.98897C2.81104 2.84146 2.91493 2.71553 3.04806 2.62711C3.18118 2.53869 3.33755 2.49176 3.49736 2.49227C3.60328 2.49227 3.70816 2.51317 3.80598 2.55378C3.90381 2.59439 3.99266 2.65391 4.06743 2.72892C4.14221 2.80394 4.20145 2.89298 4.24175 2.99093C4.28205 3.08888 4.30262 3.19382 4.30229 3.29974Z" fill="#263238"/>
<path d="M7.2622 3.29974C7.2622 3.45944 7.21484 3.61556 7.12611 3.74835C7.03739 3.88114 6.91128 3.98463 6.76373 4.04575C6.61618 4.10687 6.45383 4.12286 6.29719 4.0917C6.14055 4.06054 5.99668 3.98364 5.88375 3.87071C5.77082 3.75779 5.69392 3.61391 5.66276 3.45727C5.6316 3.30064 5.64759 3.13828 5.70871 2.99073C5.76983 2.84319 5.87332 2.71707 6.00611 2.62835C6.1389 2.53962 6.29502 2.49226 6.45472 2.49226C6.56076 2.49226 6.66576 2.51315 6.76373 2.55373C6.8617 2.59431 6.95071 2.65379 7.02569 2.72877C7.10067 2.80375 7.16015 2.89277 7.20073 2.99073C7.24131 3.0887 7.2622 3.1937 7.2622 3.29974Z" fill="#263238"/>
<path d="M10.2195 3.29974C10.2195 3.45944 10.1722 3.61556 10.0835 3.74835C9.99473 3.88114 9.86862 3.98463 9.72108 4.04575C9.57353 4.10687 9.41117 4.12286 9.25454 4.0917C9.0979 4.06054 8.95402 3.98364 8.8411 3.87071C8.72817 3.75779 8.65126 3.61391 8.62011 3.45727C8.58895 3.30064 8.60494 3.13828 8.66606 2.99073C8.72717 2.84319 8.83067 2.71707 8.96346 2.62835C9.09625 2.53962 9.25236 2.49226 9.41207 2.49226C9.51811 2.49226 9.62311 2.51315 9.72108 2.55373C9.81904 2.59431 9.90806 2.65379 9.98304 2.72877C10.058 2.80375 10.1175 2.89277 10.1581 2.99073C10.1987 3.0887 10.2195 3.1937 10.2195 3.29974Z" fill="#263238"/>
<path d="M98.2804 34.8091L99.6126 41.8777L100.708 39.9062L103.059 43.429L104.236 42.6368L101.882 39.114L104.042 38.7828L98.2804 34.8091Z" fill="#263238"/>
<path d="M96.8427 34.9874C97.0316 34.9851 97.0298 35.1302 96.8412 35.1199C96.653 35.1344 96.654 34.9897 96.8427 34.9874Z" fill="#263238"/>
<path d="M97.0526 32.9267C97.2147 33.0932 97.1014 33.1949 96.9532 33.0159C96.7915 32.8486 96.9049 32.7468 97.0526 32.9267Z" fill="#263238"/>
<path d="M98.9323 33.1974C98.9684 33.0204 99.1101 33.0516 99.0626 33.2259C99.0591 33.2387 99.0555 33.2515 99.0518 33.2643C99.002 33.4389 98.8643 33.3919 98.9257 33.2211C98.9285 33.2134 98.9307 33.2054 98.9323 33.1974Z" fill="#263238"/>
<path d="M99.4521 14.6885C99.4521 14.7892 99.4222 14.8877 99.3662 14.9715C99.3103 15.0553 99.2307 15.1206 99.1376 15.1591C99.0445 15.1977 98.9421 15.2078 98.8432 15.1881C98.7444 15.1685 98.6537 15.1199 98.5824 15.0487C98.5112 14.9775 98.4626 14.8867 98.443 14.7879C98.4233 14.689 98.4334 14.5866 98.472 14.4935C98.5105 14.4004 98.5758 14.3209 98.6596 14.2649C98.7434 14.2089 98.8419 14.179 98.9426 14.179C99.0777 14.179 99.2073 14.2327 99.3029 14.3282C99.3984 14.4238 99.4521 14.5534 99.4521 14.6885Z" fill="#E0E0E0"/>
<path d="M99.4521 16.1047C99.4521 16.2055 99.4222 16.304 99.3662 16.3878C99.3103 16.4715 99.2307 16.5368 99.1376 16.5754C99.0445 16.614 98.9421 16.624 98.8432 16.6044C98.7444 16.5847 98.6537 16.5362 98.5824 16.465C98.5112 16.3937 98.4626 16.3029 98.443 16.2041C98.4233 16.1053 98.4334 16.0029 98.472 15.9098C98.5105 15.8167 98.5758 15.7371 98.6596 15.6811C98.7434 15.6252 98.8419 15.5953 98.9426 15.5953C99.0777 15.5953 99.2073 15.6489 99.3029 15.7445C99.3984 15.84 99.4521 15.9696 99.4521 16.1047Z" fill="#E0E0E0"/>
<path d="M99.4521 17.5184C99.4521 17.6192 99.4222 17.7177 99.3662 17.8015C99.3103 17.8853 99.2307 17.9505 99.1376 17.9891C99.0445 18.0277 98.9421 18.0378 98.8432 18.0181C98.7444 17.9984 98.6537 17.9499 98.5824 17.8787C98.5112 17.8074 98.4626 17.7166 98.443 17.6178C98.4233 17.519 98.4334 17.4166 98.472 17.3235C98.5105 17.2304 98.5758 17.1508 98.6596 17.0948C98.7434 17.0389 98.8419 17.009 98.9426 17.009C99.0777 17.009 99.2073 17.0627 99.3029 17.1582C99.3984 17.2537 99.4521 17.3833 99.4521 17.5184Z" fill="#E0E0E0"/>
<path d="M21.5565 61.4387C22.7116 61.7123 23.6379 60.4778 23.0523 59.4452C22.8079 59.0142 22.8248 58.4879 23.0464 58.0446C23.9383 56.2604 24.2243 54.2251 23.8472 52.2513C23.4196 50.0135 22.1705 48.0165 20.3453 46.6528C18.5202 45.2891 16.251 44.6574 13.9837 44.8819C11.7165 45.1063 9.61515 46.1706 8.09275 47.8656C6.57035 49.5606 5.73697 51.7638 5.75641 54.042C5.77585 56.3202 6.6467 58.5088 8.19781 60.1776C9.74892 61.8464 11.8681 62.8747 14.1388 63.0604C16.1662 63.2262 18.1834 62.7096 19.8747 61.6045C20.2612 61.352 20.7304 61.243 21.1797 61.3494L21.5565 61.4387Z" fill="white"/>
<path d="M24.5904 62.1573L20.4582 61.2147L20.4404 61.21C20.4286 61.2069 20.4238 61.1929 20.431 61.1831C20.4372 61.1749 20.4491 61.1739 20.4565 61.181L20.4634 61.1875C20.4748 61.1983 20.4739 61.2166 20.4615 61.2262C19.8895 61.6685 19.2677 62.0425 18.6088 62.3404C17.8133 62.6969 16.9708 62.9376 16.1071 63.0552C15.6283 63.1207 15.1449 63.1453 14.6619 63.1289C14.414 63.1133 14.1594 63.1088 13.9047 63.0864L13.1341 62.9703C10.8405 62.5153 8.80578 61.2049 7.44281 59.3049C6.68335 58.2535 6.15783 57.0517 5.9016 55.7802C5.6373 54.4361 5.67391 53.05 6.00882 51.7217C6.35218 50.3326 7.0231 49.0459 7.96548 47.9692L8.33627 47.5582C8.45912 47.4197 8.60654 47.3058 8.73832 47.1807C8.87011 47.0556 9.00189 46.9261 9.15155 46.8189L9.59827 46.4928C9.74022 46.3823 9.88947 46.2816 10.045 46.1912L10.5096 45.912L10.9943 45.6752C11.1524 45.5903 11.3158 45.5157 11.4835 45.4519C12.7822 44.9378 14.1801 44.7232 15.5733 44.8242C16.891 44.9162 18.1722 45.2976 19.3258 45.9411C21.399 47.097 22.9493 49.0047 23.6568 51.2705C23.9389 52.2342 24.0729 53.2351 24.0544 54.239C24.0289 55.11 23.8784 55.9728 23.6076 56.801C23.3811 57.4844 23.0762 58.1392 22.6991 58.7525C22.6971 58.7559 22.6919 58.7544 22.6919 58.7505C22.6919 58.7464 22.6973 58.745 22.6992 58.7486L24.6016 62.1595L22.6394 58.7756C22.6342 58.7668 22.6315 58.7567 22.6315 58.7465C22.6315 58.7377 22.634 58.7291 22.6386 58.7217C23.4674 57.3682 23.9271 55.8211 23.9717 54.2345C23.9867 53.2401 23.8512 52.249 23.5697 51.2951C22.8629 49.0559 21.3249 47.1726 19.2722 46.0326C18.1303 45.4017 16.8637 45.0296 15.5621 44.9426C14.1862 44.8445 12.806 45.0575 11.5237 45.5658C11.3581 45.6296 11.197 45.7043 11.0412 45.7892L10.561 46.0125L10.1142 46.2895C9.95886 46.3784 9.80961 46.4777 9.66752 46.5866L9.23642 46.9104C9.089 47.0154 8.96392 47.1494 8.82767 47.2656C8.69142 47.3817 8.55293 47.5046 8.43231 47.6408L8.04366 48.0563C7.11298 49.1157 6.44765 50.3812 6.10263 51.7485C5.77152 53.0606 5.73414 54.4297 5.99318 55.7579C6.24567 57.0142 6.76351 58.2022 7.51206 59.2424C8.86113 61.1241 10.8747 62.4231 13.1453 62.8765L13.907 62.9926C14.1594 63.015 14.4118 63.0217 14.6575 63.0373C15.1358 63.0559 15.6148 63.0334 16.0892 62.9703C16.946 62.8554 17.7822 62.6201 18.573 62.2712C19.2377 61.9733 19.8652 61.5984 20.4426 61.1544L20.4755 61.129C20.4971 61.1124 20.5247 61.14 20.5081 61.1616L20.4976 61.1753C20.4911 61.1837 20.4779 61.1818 20.4741 61.1718C20.4702 61.1616 20.4794 61.1512 20.4901 61.1538L24.5904 62.1573Z" fill="#263238"/>
<path d="M11.97 54.6069C11.6838 54.3356 11.6778 53.8816 11.9566 53.6028C12.219 53.3404 12.6404 53.328 12.9177 53.5744L13.3745 53.9802C13.9008 54.4479 14.6982 54.4321 15.2056 53.944L17.5176 51.72C17.7846 51.4632 18.2102 51.4751 18.4623 51.7465C18.7102 52.0133 18.6962 52.4302 18.4309 52.6799L15.4765 55.4603C14.7423 56.1514 13.5963 56.1492 12.8647 55.4554L11.97 54.6069Z" fill="#005F31"/>
<path d="M85.8845 34.5027C85.7385 34.5027 85.6065 34.4777 85.4885 34.4277C85.3725 34.3777 85.2805 34.3057 85.2125 34.2117C85.1445 34.1177 85.1095 34.0067 85.1075 33.8787H85.5575C85.5635 33.9647 85.5935 34.0327 85.6475 34.0827C85.7035 34.1327 85.7795 34.1577 85.8755 34.1577C85.9735 34.1577 86.0505 34.1347 86.1065 34.0887C86.1625 34.0407 86.1905 33.9787 86.1905 33.9027C86.1905 33.8407 86.1715 33.7897 86.1335 33.7497C86.0955 33.7097 86.0475 33.6787 85.9895 33.6567C85.9335 33.6327 85.8555 33.6067 85.7555 33.5787C85.6195 33.5387 85.5085 33.4997 85.4225 33.4617C85.3385 33.4217 85.2655 33.3627 85.2035 33.2847C85.1435 33.2047 85.1135 33.0987 85.1135 32.9667C85.1135 32.8427 85.1445 32.7347 85.2065 32.6427C85.2685 32.5507 85.3555 32.4807 85.4675 32.4327C85.5795 32.3827 85.7075 32.3577 85.8515 32.3577C86.0675 32.3577 86.2425 32.4107 86.3765 32.5167C86.5125 32.6207 86.5875 32.7667 86.6015 32.9547H86.1395C86.1355 32.8827 86.1045 32.8237 86.0465 32.7777C85.9905 32.7297 85.9155 32.7057 85.8215 32.7057C85.7395 32.7057 85.6735 32.7267 85.6235 32.7687C85.5755 32.8107 85.5515 32.8717 85.5515 32.9517C85.5515 33.0077 85.5695 33.0547 85.6055 33.0927C85.6435 33.1287 85.6895 33.1587 85.7435 33.1827C85.7995 33.2047 85.8775 33.2307 85.9775 33.2607C86.1135 33.3007 86.2245 33.3407 86.3105 33.3807C86.3965 33.4207 86.4705 33.4807 86.5325 33.5607C86.5945 33.6407 86.6255 33.7457 86.6255 33.8757C86.6255 33.9877 86.5965 34.0917 86.5385 34.1877C86.4805 34.2837 86.3955 34.3607 86.2835 34.4187C86.1715 34.4747 86.0385 34.5027 85.8845 34.5027ZM88.5587 32.8197V34.4817H88.1357V34.2717C88.0817 34.3437 88.0107 34.4007 87.9227 34.4427C87.8367 34.4827 87.7427 34.5027 87.6407 34.5027C87.5107 34.5027 87.3957 34.4757 87.2957 34.4217C87.1957 34.3657 87.1167 34.2847 87.0587 34.1787C87.0027 34.0707 86.9747 33.9427 86.9747 33.7947V32.8197H87.3947V33.7347C87.3947 33.8667 87.4277 33.9687 87.4937 34.0407C87.5597 34.1107 87.6497 34.1457 87.7637 34.1457C87.8797 34.1457 87.9707 34.1107 88.0367 34.0407C88.1027 33.9687 88.1357 33.8667 88.1357 33.7347V32.8197H88.5587ZM89.3931 33.0627C89.4471 32.9827 89.5211 32.9177 89.6151 32.8677C89.7111 32.8177 89.8201 32.7927 89.9421 32.7927C90.0841 32.7927 90.2121 32.8277 90.3261 32.8977C90.4421 32.9677 90.5331 33.0677 90.5991 33.1977C90.6671 33.3257 90.7011 33.4747 90.7011 33.6447C90.7011 33.8147 90.6671 33.9657 90.5991 34.0977C90.5331 34.2277 90.4421 34.3287 90.3261 34.4007C90.2121 34.4727 90.0841 34.5087 89.9421 34.5087C89.8181 34.5087 89.7091 34.4847 89.6151 34.4367C89.5231 34.3867 89.4491 34.3227 89.3931 34.2447V34.4817H88.9731V32.2617H89.3931V33.0627ZM90.2721 33.6447C90.2721 33.5447 90.2511 33.4587 90.2091 33.3867C90.1691 33.3127 90.1151 33.2567 90.0471 33.2187C89.9811 33.1807 89.9091 33.1617 89.8311 33.1617C89.7551 33.1617 89.6831 33.1817 89.6151 33.2217C89.5491 33.2597 89.4951 33.3157 89.4531 33.3897C89.4131 33.4637 89.3931 33.5507 89.3931 33.6507C89.3931 33.7507 89.4131 33.8377 89.4531 33.9117C89.4951 33.9857 89.5491 34.0427 89.6151 34.0827C89.6831 34.1207 89.7551 34.1397 89.8311 34.1397C89.9091 34.1397 89.9811 34.1197 90.0471 34.0797C90.1151 34.0397 90.1691 33.9827 90.2091 33.9087C90.2511 33.8347 90.2721 33.7467 90.2721 33.6447ZM87.2255 37.7957C87.4295 37.7957 87.5935 37.8587 87.7175 37.9847C87.8435 38.1087 87.9065 38.2827 87.9065 38.5067V39.4817H87.4865V38.5637C87.4865 38.4337 87.4535 38.3347 87.3875 38.2667C87.3215 38.1967 87.2315 38.1617 87.1175 38.1617C87.0035 38.1617 86.9125 38.1967 86.8445 38.2667C86.7785 38.3347 86.7455 38.4337 86.7455 38.5637V39.4817H86.3255V38.5637C86.3255 38.4337 86.2925 38.3347 86.2265 38.2667C86.1605 38.1967 86.0705 38.1617 85.9565 38.1617C85.8405 38.1617 85.7485 38.1967 85.6805 38.2667C85.6145 38.3347 85.5815 38.4337 85.5815 38.5637V39.4817H85.1615V37.8197H85.5815V38.0207C85.6355 37.9507 85.7045 37.8957 85.7885 37.8557C85.8745 37.8157 85.9685 37.7957 86.0705 37.7957C86.2005 37.7957 86.3165 37.8237 86.4185 37.8797C86.5205 37.9337 86.5995 38.0117 86.6555 38.1137C86.7095 38.0177 86.7875 37.9407 86.8895 37.8827C86.9935 37.8247 87.1055 37.7957 87.2255 37.7957ZM88.5181 37.6217C88.4441 37.6217 88.3821 37.5987 88.3321 37.5527C88.2841 37.5047 88.2601 37.4457 88.2601 37.3757C88.2601 37.3057 88.2841 37.2477 88.3321 37.2017C88.3821 37.1537 88.4441 37.1297 88.5181 37.1297C88.5921 37.1297 88.6531 37.1537 88.7011 37.2017C88.7511 37.2477 88.7761 37.3057 88.7761 37.3757C88.7761 37.4457 88.7511 37.5047 88.7011 37.5527C88.6531 37.5987 88.5921 37.6217 88.5181 37.6217ZM88.7251 37.8197V39.4817H88.3051V37.8197H88.7251ZM89.6291 38.1647V38.9687C89.6291 39.0247 89.6421 39.0657 89.6681 39.0917C89.6961 39.1157 89.7421 39.1277 89.8061 39.1277H90.0011V39.4817H89.7371C89.3831 39.4817 89.2061 39.3097 89.2061 38.9657V38.1647H89.0081V37.8197H89.2061V37.4087H89.6291V37.8197H90.0011V38.1647H89.6291Z" fill="white"/>
<path d="M34.5286 23.3253C34.5386 23.1253 34.6086 22.9713 34.7386 22.8633C34.8706 22.7533 35.0436 22.6983 35.2576 22.6983C35.4036 22.6983 35.5286 22.7243 35.6326 22.7763C35.7366 22.8263 35.8146 22.8953 35.8666 22.9833C35.9206 23.0693 35.9476 23.1673 35.9476 23.2773C35.9476 23.4033 35.9146 23.5103 35.8486 23.5983C35.7846 23.6843 35.7076 23.7423 35.6176 23.7723V23.7843C35.7336 23.8203 35.8236 23.8843 35.8876 23.9763C35.9536 24.0683 35.9866 24.1863 35.9866 24.3303C35.9866 24.4503 35.9586 24.5573 35.9026 24.6513C35.8486 24.7453 35.7676 24.8193 35.6596 24.8733C35.5536 24.9253 35.4256 24.9513 35.2756 24.9513C35.0496 24.9513 34.8656 24.8943 34.7236 24.7803C34.5816 24.6663 34.5066 24.4983 34.4986 24.2763H34.9066C34.9106 24.3743 34.9436 24.4533 35.0056 24.5133C35.0696 24.5713 35.1566 24.6003 35.2666 24.6003C35.3686 24.6003 35.4466 24.5723 35.5006 24.5163C35.5566 24.4583 35.5846 24.3843 35.5846 24.2943C35.5846 24.1743 35.5466 24.0883 35.4706 24.0363C35.3946 23.9843 35.2766 23.9583 35.1166 23.9583H35.0296V23.6133H35.1166C35.4006 23.6133 35.5426 23.5183 35.5426 23.3283C35.5426 23.2423 35.5166 23.1753 35.4646 23.1273C35.4146 23.0793 35.3416 23.0553 35.2456 23.0553C35.1516 23.0553 35.0786 23.0813 35.0266 23.1333C34.9766 23.1833 34.9476 23.2473 34.9396 23.3253H34.5286ZM38.2694 23.8623C38.3874 23.8843 38.4844 23.9433 38.5604 24.0393C38.6364 24.1353 38.6744 24.2453 38.6744 24.3693C38.6744 24.4813 38.6464 24.5803 38.5904 24.6663C38.5364 24.7503 38.4574 24.8163 38.3534 24.8643C38.2494 24.9123 38.1264 24.9363 37.9844 24.9363H37.0814V22.8423H37.9454C38.0874 22.8423 38.2094 22.8653 38.3114 22.9113C38.4154 22.9573 38.4934 23.0213 38.5454 23.1033C38.5994 23.1853 38.6264 23.2783 38.6264 23.3823C38.6264 23.5043 38.5934 23.6063 38.5274 23.6883C38.4634 23.7703 38.3774 23.8283 38.2694 23.8623ZM37.5014 23.7063H37.8854C37.9854 23.7063 38.0624 23.6843 38.1164 23.6403C38.1704 23.5943 38.1974 23.5293 38.1974 23.4453C38.1974 23.3613 38.1704 23.2963 38.1164 23.2503C38.0624 23.2043 37.9854 23.1813 37.8854 23.1813H37.5014V23.7063ZM37.9244 24.5943C38.0264 24.5943 38.1054 24.5703 38.1614 24.5223C38.2194 24.4743 38.2484 24.4063 38.2484 24.3183C38.2484 24.2283 38.2184 24.1583 38.1584 24.1083C38.0984 24.0563 38.0174 24.0303 37.9154 24.0303H37.5014V24.5943H37.9244ZM38.9011 24.0993C38.9011 23.9313 38.9341 23.7823 39.0001 23.6523C39.0681 23.5223 39.1591 23.4223 39.2731 23.3523C39.3891 23.2823 39.5181 23.2473 39.6601 23.2473C39.7841 23.2473 39.8921 23.2723 39.9841 23.3223C40.0781 23.3723 40.1531 23.4353 40.2091 23.5113V23.2743H40.6321V24.9363H40.2091V24.6933C40.1551 24.7713 40.0801 24.8363 39.9841 24.8883C39.8901 24.9383 39.7811 24.9633 39.6571 24.9633C39.5171 24.9633 39.3891 24.9273 39.2731 24.8553C39.1591 24.7833 39.0681 24.6823 39.0001 24.5523C38.9341 24.4203 38.9011 24.2693 38.9011 24.0993ZM40.2091 24.1053C40.2091 24.0033 40.1891 23.9163 40.1491 23.8443C40.1091 23.7703 40.0551 23.7143 39.9871 23.6763C39.9191 23.6363 39.8461 23.6163 39.7681 23.6163C39.6901 23.6163 39.6181 23.6353 39.5521 23.6733C39.4861 23.7113 39.4321 23.7673 39.3901 23.8413C39.3501 23.9133 39.3301 23.9993 39.3301 24.0993C39.3301 24.1993 39.3501 24.2873 39.3901 24.3633C39.4321 24.4373 39.4861 24.4943 39.5521 24.5343C39.6201 24.5743 39.6921 24.5943 39.7681 24.5943C39.8461 24.5943 39.9191 24.5753 39.9871 24.5373C40.0551 24.4973 40.1091 24.4413 40.1491 24.3693C40.1891 24.2953 40.2091 24.2073 40.2091 24.1053ZM41.9633 23.2503C42.1613 23.2503 42.3213 23.3133 42.4433 23.4393C42.5653 23.5633 42.6263 23.7373 42.6263 23.9613V24.9363H42.2063V24.0183C42.2063 23.8863 42.1733 23.7853 42.1073 23.7153C42.0413 23.6433 41.9513 23.6073 41.8373 23.6073C41.7213 23.6073 41.6293 23.6433 41.5613 23.7153C41.4953 23.7853 41.4623 23.8863 41.4623 24.0183V24.9363H41.0423V23.2743H41.4623V23.4813C41.5183 23.4093 41.5893 23.3533 41.6753 23.3133C41.7633 23.2713 41.8593 23.2503 41.9633 23.2503ZM44.0097 24.9363L43.4457 24.2283V24.9363H43.0257V22.7163H43.4457V23.9793L44.0037 23.2743H44.5497L43.8177 24.1083L44.5557 24.9363H44.0097ZM45.4137 24.9633C45.2777 24.9633 45.1557 24.9393 45.0477 24.8913C44.9397 24.8413 44.8537 24.7743 44.7897 24.6903C44.7277 24.6063 44.6937 24.5133 44.6877 24.4113H45.1107C45.1187 24.4753 45.1497 24.5283 45.2037 24.5703C45.2597 24.6123 45.3287 24.6333 45.4107 24.6333C45.4907 24.6333 45.5527 24.6173 45.5967 24.5853C45.6427 24.5533 45.6657 24.5123 45.6657 24.4623C45.6657 24.4083 45.6377 24.3683 45.5817 24.3423C45.5277 24.3143 45.4407 24.2843 45.3207 24.2523C45.1967 24.2223 45.0947 24.1913 45.0147 24.1593C44.9367 24.1273 44.8687 24.0783 44.8107 24.0123C44.7547 23.9463 44.7267 23.8573 44.7267 23.7453C44.7267 23.6533 44.7527 23.5693 44.8047 23.4933C44.8587 23.4173 44.9347 23.3573 45.0327 23.3133C45.1327 23.2693 45.2497 23.2473 45.3837 23.2473C45.5817 23.2473 45.7397 23.2973 45.8577 23.3973C45.9757 23.4953 46.0407 23.6283 46.0527 23.7963H45.6507C45.6447 23.7303 45.6167 23.6783 45.5667 23.6403C45.5187 23.6003 45.4537 23.5803 45.3717 23.5803C45.2957 23.5803 45.2367 23.5943 45.1947 23.6223C45.1547 23.6503 45.1347 23.6893 45.1347 23.7393C45.1347 23.7953 45.1627 23.8383 45.2187 23.8683C45.2747 23.8963 45.3617 23.9253 45.4797 23.9553C45.5997 23.9853 45.6987 24.0163 45.7767 24.0483C45.8547 24.0803 45.9217 24.1303 45.9777 24.1983C46.0357 24.2643 46.0657 24.3523 46.0677 24.4623C46.0677 24.5583 46.0407 24.6443 45.9867 24.7203C45.9347 24.7963 45.8587 24.8563 45.7587 24.9003C45.6607 24.9423 45.5457 24.9633 45.4137 24.9633ZM35.3086 29.9633C35.1486 29.9633 35.0046 29.9283 34.8766 29.8583C34.7486 29.7863 34.6476 29.6853 34.5736 29.5553C34.5016 29.4253 34.4656 29.2753 34.4656 29.1053C34.4656 28.9353 34.5026 28.7853 34.5766 28.6553C34.6526 28.5253 34.7556 28.4253 34.8856 28.3553C35.0156 28.2833 35.1606 28.2473 35.3206 28.2473C35.4806 28.2473 35.6256 28.2833 35.7556 28.3553C35.8856 28.4253 35.9876 28.5253 36.0616 28.6553C36.1376 28.7853 36.1756 28.9353 36.1756 29.1053C36.1756 29.2753 36.1366 29.4253 36.0586 29.5553C35.9826 29.6853 35.8786 29.7863 35.7466 29.8583C35.6166 29.9283 35.4706 29.9633 35.3086 29.9633ZM35.3086 29.5973C35.3846 29.5973 35.4556 29.5793 35.5216 29.5433C35.5896 29.5053 35.6436 29.4493 35.6836 29.3753C35.7236 29.3013 35.7436 29.2113 35.7436 29.1053C35.7436 28.9473 35.7016 28.8263 35.6176 28.7423C35.5356 28.6563 35.4346 28.6133 35.3146 28.6133C35.1946 28.6133 35.0936 28.6563 35.0116 28.7423C34.9316 28.8263 34.8916 28.9473 34.8916 29.1053C34.8916 29.2633 34.9306 29.3853 35.0086 29.4713C35.0886 29.5553 35.1886 29.5973 35.3086 29.5973ZM37.2457 28.6193H36.9547V29.9363H36.5287V28.6193H36.3397V28.2743H36.5287V28.1903C36.5287 27.9863 36.5867 27.8363 36.7027 27.7403C36.8187 27.6443 36.9937 27.5993 37.2277 27.6053V27.9593C37.1257 27.9573 37.0547 27.9743 37.0147 28.0103C36.9747 28.0463 36.9547 28.1113 36.9547 28.2053V28.2743H37.2457V28.6193ZM38.2799 28.6193H37.9889V29.9363H37.5629V28.6193H37.3739V28.2743H37.5629V28.1903C37.5629 27.9863 37.6209 27.8363 37.7369 27.7403C37.8529 27.6443 38.0279 27.5993 38.2619 27.6053V27.9593C38.1599 27.9573 38.0889 27.9743 38.0489 28.0103C38.0089 28.0463 37.9889 28.1113 37.9889 28.2053V28.2743H38.2799V28.6193ZM40.0971 29.0693C40.0971 29.1293 40.0931 29.1833 40.0851 29.2313H38.8701C38.8801 29.3513 38.9221 29.4453 38.9961 29.5133C39.0701 29.5813 39.1611 29.6153 39.2691 29.6153C39.4251 29.6153 39.5361 29.5483 39.6021 29.4143H40.0551C40.0071 29.5743 39.9151 29.7063 39.7791 29.8103C39.6431 29.9123 39.4761 29.9633 39.2781 29.9633C39.1181 29.9633 38.9741 29.9283 38.8461 29.8583C38.7201 29.7863 38.6211 29.6853 38.5491 29.5553C38.4791 29.4253 38.4441 29.2753 38.4441 29.1053C38.4441 28.9333 38.4791 28.7823 38.5491 28.6523C38.6191 28.5223 38.7171 28.4223 38.8431 28.3523C38.9691 28.2823 39.1141 28.2473 39.2781 28.2473C39.4361 28.2473 39.5771 28.2813 39.7011 28.3493C39.8271 28.4173 39.9241 28.5143 39.9921 28.6403C40.0621 28.7643 40.0971 28.9073 40.0971 29.0693ZM39.6621 28.9493C39.6601 28.8413 39.6211 28.7553 39.5451 28.6913C39.4691 28.6253 39.3761 28.5923 39.2661 28.5923C39.1621 28.5923 39.0741 28.6243 39.0021 28.6883C38.9321 28.7503 38.8891 28.8373 38.8731 28.9493H39.6621ZM40.8236 28.5323C40.8776 28.4443 40.9476 28.3753 41.0336 28.3253C41.1216 28.2753 41.2216 28.2503 41.3336 28.2503V28.6913H41.2226C41.0906 28.6913 40.9906 28.7223 40.9226 28.7843C40.8566 28.8463 40.8236 28.9543 40.8236 29.1083V29.9363H40.4036V28.2743H40.8236V28.5323ZM42.2525 29.9633C42.1165 29.9633 41.9945 29.9393 41.8865 29.8913C41.7785 29.8413 41.6925 29.7743 41.6285 29.6903C41.5665 29.6063 41.5325 29.5133 41.5265 29.4113H41.9495C41.9575 29.4753 41.9885 29.5283 42.0425 29.5703C42.0985 29.6123 42.1675 29.6333 42.2495 29.6333C42.3295 29.6333 42.3915 29.6173 42.4355 29.5853C42.4815 29.5533 42.5045 29.5123 42.5045 29.4623C42.5045 29.4083 42.4765 29.3683 42.4205 29.3423C42.3665 29.3143 42.2795 29.2843 42.1595 29.2523C42.0355 29.2223 41.9335 29.1913 41.8535 29.1593C41.7755 29.1273 41.7075 29.0783 41.6495 29.0123C41.5935 28.9463 41.5655 28.8573 41.5655 28.7453C41.5655 28.6533 41.5915 28.5693 41.6435 28.4933C41.6975 28.4173 41.7735 28.3573 41.8715 28.3133C41.9715 28.2693 42.0885 28.2473 42.2225 28.2473C42.4205 28.2473 42.5785 28.2973 42.6965 28.3973C42.8145 28.4953 42.8795 28.6283 42.8915 28.7963H42.4895C42.4835 28.7303 42.4555 28.6783 42.4055 28.6403C42.3575 28.6003 42.2925 28.5803 42.2105 28.5803C42.1345 28.5803 42.0755 28.5943 42.0335 28.6223C41.9935 28.6503 41.9735 28.6893 41.9735 28.7393C41.9735 28.7953 42.0015 28.8383 42.0575 28.8683C42.1135 28.8963 42.2005 28.9253 42.3185 28.9553C42.4385 28.9853 42.5375 29.0163 42.6155 29.0483C42.6935 29.0803 42.7605 29.1303 42.8165 29.1983C42.8745 29.2643 42.9045 29.3523 42.9065 29.4623C42.9065 29.5583 42.8795 29.6443 42.8255 29.7203C42.7735 29.7963 42.6975 29.8563 42.5975 29.9003C42.4995 29.9423 42.3845 29.9633 42.2525 29.9633Z" fill="black"/>
</svg>
