<svg width="127" height="127" viewBox="0 0 127 127" fill="none" xmlns="http://www.w3.org/2000/svg">
<path d="M113.553 54.6837C105.265 35.4203 74.7674 39.1109 63.8378 48.0797C59.497 51.6357 58.8493 54.2011 52.2935 55.3974C47.5285 56.2661 42.0624 53.5864 37.2923 55.052C26.8351 58.2651 27.6073 69.0372 31.8948 76.7842C36.3449 84.8233 41.2217 92.898 51.7855 90.1573C56.3575 88.9711 61.1048 84.516 65.1078 83.947C73.3349 82.7761 76.6013 86.553 83.9038 88.3691C110.724 95.0341 121.079 72.1792 113.553 54.6837Z" fill="#005F31"/>
<g opacity="0.9">
<path d="M113.553 54.6837C105.265 35.4203 74.7674 39.1109 63.8378 48.0797C59.497 51.6357 58.8493 54.2011 52.2935 55.3974C47.5285 56.2661 42.0624 53.5864 37.2923 55.052C26.8351 58.2651 27.6073 69.0372 31.8948 76.7842C36.3449 84.8233 41.2217 92.898 51.7855 90.1573C56.3575 88.9711 61.1048 84.516 65.1078 83.947C73.3349 82.7761 76.6013 86.553 83.9038 88.3691C110.724 95.0341 121.079 72.1792 113.553 54.6837Z" fill="white"/>
</g>
<path d="M63.5 108.6C90.6989 108.6 112.748 107.313 112.748 105.725C112.748 104.137 90.6989 102.85 63.5 102.85C36.301 102.85 14.2519 104.137 14.2519 105.725C14.2519 107.313 36.301 108.6 63.5 108.6Z" fill="#F5F5F5"/>
<path d="M18.4268 24.7979L18.1731 24.8103L18.422 29.9172L18.6757 29.9049L18.4268 24.7979Z" fill="#005F31"/>
<path d="M18.7566 31.6322L18.5029 31.6445L18.6251 34.1536L18.8788 34.1412L18.7566 31.6322Z" fill="#005F31"/>
<path d="M98.2319 76.6369H22.0142C21.8973 76.6363 21.7852 76.5905 21.7014 76.509C21.6176 76.4276 21.5685 76.3168 21.5646 76.2L18.8316 20.066C18.8288 20.0053 18.8384 19.9446 18.8598 19.8877C18.8811 19.8308 18.9138 19.7788 18.9558 19.7349C18.9979 19.691 19.0484 19.656 19.1043 19.6322C19.1602 19.6083 19.2204 19.596 19.2811 19.5961H95.504C95.6196 19.5959 95.7309 19.64 95.815 19.7194C95.8991 19.7988 95.9496 19.9074 95.9561 20.0228L98.6892 76.1771C98.6902 76.2376 98.6791 76.2976 98.6565 76.3537C98.6339 76.4098 98.6003 76.4607 98.5577 76.5036C98.5151 76.5465 98.4643 76.5803 98.4083 76.6032C98.3524 76.6261 98.2924 76.6376 98.2319 76.6369Z" fill="#005F31"/>
<path opacity="0.8" d="M22.4409 75.2856L19.7968 20.9753C19.794 20.9145 19.8036 20.8537 19.8249 20.7967C19.8463 20.7396 19.8789 20.6874 19.9209 20.6433C19.9629 20.5992 20.0134 20.564 20.0693 20.5399C20.1252 20.5157 20.1854 20.5032 20.2463 20.5029H94.6201C94.7359 20.5028 94.8473 20.5473 94.931 20.6273C95.0148 20.7073 95.0644 20.8165 95.0697 20.9321L97.7138 75.2424C97.7169 75.3034 97.7076 75.3643 97.6864 75.4215C97.6652 75.4787 97.6326 75.531 97.5905 75.5752C97.5484 75.6194 97.4978 75.6546 97.4417 75.6786C97.3856 75.7026 97.3252 75.7149 97.2642 75.7149H22.8905C22.7749 75.7144 22.6638 75.6696 22.5802 75.5897C22.4966 75.5099 22.4468 75.4011 22.4409 75.2856Z" fill="white"/>
<path d="M41.1226 72.6796C41.0636 72.679 41.007 72.6562 40.9641 72.6157C40.9213 72.5752 40.8953 72.52 40.8915 72.4611L38.5216 23.7795C38.5172 23.7476 38.5194 23.7151 38.5282 23.6841C38.537 23.6532 38.5522 23.6244 38.5728 23.5996C38.5934 23.5748 38.6189 23.5546 38.6478 23.5403C38.6766 23.526 38.7082 23.5179 38.7403 23.5165C38.7725 23.515 38.8046 23.5204 38.8346 23.5321C38.8646 23.5438 38.8918 23.5616 38.9145 23.5845C38.9372 23.6073 38.9549 23.6347 38.9664 23.6648C38.9779 23.6948 38.983 23.727 38.9814 23.7592L41.3537 72.4383C41.3551 72.4686 41.3505 72.4989 41.3401 72.5275C41.3297 72.5561 41.3138 72.5823 41.2933 72.6047C41.2728 72.6271 41.248 72.6453 41.2205 72.6581C41.1929 72.671 41.1631 72.6782 41.1328 72.6796H41.1226Z" fill="white"/>
<path d="M78.7603 72.6796C78.7013 72.679 78.6447 72.6562 78.6019 72.6157C78.559 72.5752 78.533 72.52 78.5292 72.4611L76.1594 23.7795C76.1549 23.7476 76.1571 23.7151 76.1659 23.6841C76.1748 23.6532 76.1899 23.6244 76.2105 23.5996C76.2311 23.5748 76.2567 23.5546 76.2855 23.5403C76.3144 23.526 76.3459 23.5179 76.3781 23.5165C76.4102 23.515 76.4423 23.5204 76.4723 23.5321C76.5023 23.5438 76.5296 23.5616 76.5523 23.5845C76.575 23.6073 76.5926 23.6347 76.6041 23.6648C76.6156 23.6948 76.6207 23.727 76.6191 23.7592L78.994 72.4383C78.9954 72.4686 78.9907 72.4989 78.9804 72.5275C78.97 72.5561 78.9541 72.5823 78.9336 72.6047C78.913 72.6271 78.8883 72.6453 78.8607 72.6581C78.8332 72.671 78.8034 72.6782 78.773 72.6796H78.7603Z" fill="white"/>
<path d="M59.944 72.6796C59.885 72.679 59.8284 72.6562 59.7855 72.6157C59.7427 72.5752 59.7167 72.52 59.7129 72.4611L57.3405 23.7795C57.336 23.7476 57.3383 23.7151 57.3471 23.6841C57.3559 23.6532 57.3711 23.6244 57.3917 23.5996C57.4123 23.5748 57.4378 23.5546 57.4666 23.5403C57.4955 23.526 57.527 23.5179 57.5592 23.5165C57.5914 23.515 57.6235 23.5204 57.6535 23.5321C57.6835 23.5438 57.7107 23.5616 57.7334 23.5845C57.7561 23.6073 57.7738 23.6347 57.7853 23.6648C57.7968 23.6948 57.8019 23.727 57.8002 23.7592L60.1701 72.4383C60.1718 72.4685 60.1675 72.4988 60.1574 72.5273C60.1473 72.5559 60.1316 72.5821 60.1113 72.6046C60.091 72.627 60.0664 72.6452 60.039 72.6581C60.0116 72.671 59.9819 72.6783 59.9516 72.6796H59.944Z" fill="white"/>
<path d="M93.1266 28.796H22.4815C22.4493 28.7994 22.4168 28.796 22.386 28.786C22.3551 28.7759 22.3268 28.7596 22.3027 28.7379C22.2786 28.7162 22.2594 28.6897 22.2462 28.6601C22.233 28.6305 22.2262 28.5985 22.2262 28.5661C22.2262 28.5337 22.233 28.5017 22.2462 28.4721C22.2594 28.4425 22.2786 28.416 22.3027 28.3943C22.3268 28.3727 22.3551 28.3563 22.386 28.3463C22.4168 28.3363 22.4493 28.3329 22.4815 28.3362H93.1266C93.1588 28.3329 93.1914 28.3363 93.2222 28.3463C93.253 28.3563 93.2813 28.3727 93.3054 28.3943C93.3295 28.416 93.3487 28.4425 93.3619 28.4721C93.3751 28.5017 93.3819 28.5337 93.3819 28.5661C93.3819 28.5985 93.3751 28.6305 93.3619 28.6601C93.3487 28.6897 93.3295 28.7162 93.3054 28.7379C93.2813 28.7596 93.253 28.7759 93.2222 28.786C93.1914 28.796 93.1588 28.7994 93.1266 28.796Z" fill="white"/>
<path d="M24.6101 25.9512C24.7744 25.8854 24.9519 25.8589 25.1283 25.8739C25.3047 25.8889 25.4752 25.9449 25.6261 26.0375C25.8801 26.2001 26.035 26.5455 26.355 26.6217C26.7183 26.6954 26.83 26.3982 27.0866 26.228C27.4117 26.0121 27.907 26.1087 28.2702 26.1366C29.2337 26.2077 30.1964 26.2924 31.1582 26.3906C32.1081 26.482 33.0683 26.6446 34.0157 26.4592C34.3433 26.3957 34.2036 25.8953 33.8785 25.9512C32.9082 26.1417 31.8795 25.9334 30.9067 25.8394C29.9339 25.7454 28.9535 25.6565 27.973 25.5854C27.6382 25.5441 27.2983 25.5806 26.9799 25.6921C26.8297 25.7587 26.6948 25.8555 26.5836 25.9766C26.543 26.0172 26.5024 26.101 26.4363 26.0909C26.3703 26.0807 26.2966 25.9309 26.2712 25.9004C26.0503 25.651 25.7594 25.4737 25.4365 25.3918C25.1135 25.3098 24.7734 25.3268 24.4602 25.4406C24.1529 25.5626 24.2849 26.0629 24.5974 25.9486L24.6101 25.9512Z" fill="white"/>
<path d="M41.7601 26.7132C42.1462 26.4236 42.7279 26.0375 43.0454 26.6167C43.2054 26.9062 43.3603 27.2542 43.7591 27.1932C44.1579 27.1323 44.4221 26.637 44.7015 26.4033C45.118 26.0502 45.5397 25.9461 46.0273 26.2306C46.407 26.5051 46.8394 26.698 47.2973 26.797C47.7366 26.8517 48.1823 26.7803 48.5826 26.5913C48.8125 26.4605 49.065 26.3743 49.3268 26.3373C49.6046 26.3587 49.881 26.3951 50.1548 26.4465C50.7473 26.4694 51.3401 26.413 51.9176 26.2788C52.2453 26.2179 52.1056 25.7175 51.7779 25.7708C51.151 25.9199 50.5026 25.9569 49.8627 25.8801C49.6306 25.8263 49.3915 25.8092 49.1541 25.8293C48.9302 25.869 48.7131 25.94 48.5089 26.0401C47.9781 26.2712 47.465 26.383 46.9087 26.1366C46.4769 25.9461 46.1467 25.593 45.659 25.5219C45.2541 25.4809 44.8491 25.6004 44.5313 25.8547C44.3503 25.9955 44.1805 26.15 44.0233 26.3169C43.9542 26.407 43.8787 26.4919 43.7972 26.5709C43.6702 26.6649 43.6601 26.6548 43.5839 26.5151C43.3984 26.1671 43.2206 25.8826 42.8041 25.7988C42.3088 25.6997 41.8821 25.969 41.5036 26.2534C41.2496 26.4516 41.5036 26.9011 41.7576 26.7005L41.7601 26.7132Z" fill="white"/>
<path d="M61.214 26.5709C61.5163 26.4287 61.8236 26.2992 62.1386 26.1874C62.4457 26.0521 62.7723 25.9664 63.1063 25.9334C63.3984 25.9334 63.6549 26.101 63.9343 26.162C64.1492 26.2099 64.3739 26.1867 64.5744 26.096C64.7573 26.0121 64.9453 25.8064 65.1434 25.7734C65.3415 25.7404 65.5599 26.002 65.7555 26.0909C65.9537 26.1736 66.171 26.1991 66.3829 26.1645C66.5785 26.1417 66.8655 26.0401 67.0484 26.1645C67.2313 26.289 67.2694 26.51 67.4522 26.6192C67.5306 26.6666 67.6197 26.6933 67.7112 26.6969C67.8028 26.7004 67.8937 26.6807 67.9755 26.6395C68.1584 26.5506 68.2574 26.3855 68.4098 26.2534C68.6333 26.0655 68.8924 26.1696 69.149 26.2306C69.379 26.2968 69.6194 26.3192 69.8576 26.2966C70.1243 26.2611 70.4342 26.0909 70.7034 26.1442C71.1505 26.2331 71.3816 26.7056 71.8795 26.4617C72.1792 26.3144 71.9176 25.8674 71.6255 26.0147C71.4985 26.0756 71.1302 25.7607 71.0082 25.6997C70.7894 25.6152 70.5497 25.601 70.3224 25.6591C70.0525 25.7487 69.7683 25.7874 69.4842 25.7734C69.2465 25.7119 69.0057 25.6627 68.7629 25.6261C68.5478 25.6078 68.3333 25.6673 68.1584 25.7937C68.0593 25.8674 67.8459 26.195 67.7164 26.1671C67.658 26.1671 67.564 25.9613 67.5284 25.9131C67.4704 25.8351 67.399 25.768 67.3176 25.715C67.1393 25.6152 66.9334 25.576 66.7309 25.6032C66.5052 25.6595 66.2713 25.6759 66.04 25.6515C65.8216 25.588 65.6768 25.3746 65.4583 25.2984C64.9656 25.1282 64.7294 25.5321 64.3077 25.6565C64.0359 25.7353 63.7565 25.5422 63.5 25.4737C63.2344 25.4038 62.9553 25.4038 62.6897 25.4737C62.0933 25.6356 61.514 25.855 60.96 26.129C60.6603 26.2712 60.9219 26.7183 61.214 26.576V26.5709Z" fill="white"/>
<path d="M78.5241 26.4312L79.9084 26.0375C80.1268 25.974 80.3478 25.8978 80.5688 25.8496C80.7856 25.8165 81.0073 25.8567 81.1987 25.9639C81.5742 26.0789 81.9677 26.1236 82.3595 26.096C82.8218 26.096 83.2815 26.096 83.7438 26.0782L89.408 26.0096C89.4754 26.0096 89.54 25.9828 89.5876 25.9352C89.6352 25.8876 89.662 25.823 89.662 25.7556C89.662 25.6882 89.6352 25.6236 89.5876 25.576C89.54 25.5284 89.4754 25.5016 89.408 25.5016L83.6244 25.5727C83.1698 25.5727 82.7151 25.588 82.2604 25.5905C82.036 25.5989 81.8114 25.5845 81.5899 25.5473C81.3816 25.5016 81.2063 25.3848 81.0057 25.3289C80.6272 25.2247 80.1954 25.4279 79.8373 25.5321L78.3946 25.9436C78.3612 25.9526 78.3299 25.9681 78.3026 25.9891C78.2752 26.0102 78.2523 26.0365 78.235 26.0664C78.2178 26.0964 78.2067 26.1295 78.2022 26.1637C78.1978 26.198 78.2001 26.2328 78.2091 26.2661C78.2181 26.2995 78.2336 26.3308 78.2547 26.3581C78.2758 26.3855 78.3021 26.4084 78.332 26.4257C78.362 26.4429 78.395 26.454 78.4293 26.4585C78.4636 26.4629 78.4984 26.4606 78.5317 26.4516L78.5241 26.4312Z" fill="white"/>
<path opacity="0.3" d="M41.5417 46.5836L29.276 47.244C28.6122 43.1109 28.2851 38.9307 28.2982 34.7447L40.2819 34.29C40.4723 38.4082 40.8929 42.5124 41.5417 46.5836Z" fill="#005F31"/>
<path d="M41.8211 46.0223L29.5554 46.6827C28.8533 42.6167 28.429 38.5076 28.2854 34.384L40.5511 33.721C40.7448 37.8419 41.1688 41.9487 41.8211 46.0223Z" fill="#005F31"/>
<path opacity="0.3" d="M56.99 51.0921L44.6583 50.3479V38.1254L56.99 38.8696V51.0921Z" fill="#005F31"/>
<path d="M56.8274 50.8178L44.4983 50.0736L44.643 37.78L56.9722 38.5216L56.8274 50.8178Z" fill="white"/>
<path opacity="0.3" d="M68.7451 48.6969L81.0717 48.293C81.3765 45.4558 80.0354 38.3261 79.2937 35.7911L67.3379 36.5531C68.3616 41.0489 68.801 45.2806 68.7451 48.6969Z" fill="#005F31"/>
<path d="M68.9559 48.293L80.8939 47.6783C81.1987 44.8437 80.4088 40.198 79.5172 35.3873L67.2643 36.1645C68.2752 40.6654 69.0118 44.8767 68.9559 48.293Z" fill="#005F31"/>
<path opacity="0.3" d="M34.9402 67.5919L47.5234 66.3219C47.4904 63.4517 46.0146 56.7868 45.1409 54.29L33.274 55.692C34.544 60.1421 34.5897 64.1756 34.9402 67.5919Z" fill="#005F31"/>
<path d="M35.2374 67.4167L47.3685 66.0984C47.5183 63.2435 46.4769 58.6334 45.3365 53.8683L33.1749 55.3136C34.1528 59.7738 35.1053 64.008 35.2374 67.4167Z" fill="#005F31"/>
<path opacity="0.3" d="M65.532 53.9013L77.7799 56.1873C78.6994 53.5153 78.9356 46.3398 78.7578 43.7413L66.802 41.8694C66.8147 46.4363 66.3219 50.6171 65.532 53.9013Z" fill="#005F31"/>
<path d="M65.819 53.5584L77.7189 55.565C78.641 52.893 78.8746 48.2371 79.0473 43.401L66.7868 41.4807C66.802 46.0477 66.6191 50.2742 65.819 53.5584Z" fill="white"/>
<path d="M94.6506 42.4891C94.9046 42.7431 95.0976 42.9717 95.3084 43.2206C95.5192 43.4696 95.7224 43.7109 95.9206 43.9623C96.3219 44.4703 96.7029 44.9783 97.0661 45.5117C97.4293 46.0451 97.7748 46.5912 98.0821 47.1703C98.4106 47.7516 98.6983 48.3551 98.9432 48.9763L99.0371 49.2125L99.06 49.2709L99.0905 49.3598L99.1464 49.5325C99.1743 49.6443 99.1997 49.751 99.2226 49.8577C99.2454 49.9643 99.2581 50.0609 99.2708 50.1599C99.3106 50.5225 99.3234 50.8876 99.3089 51.2521C99.2798 51.9117 99.206 52.5685 99.0879 53.2181C98.8612 54.4683 98.5342 55.6983 98.11 56.896L96.774 56.5861C96.8731 55.3923 96.9645 54.1731 96.9975 52.9996C97.0178 52.4306 97.0085 51.8609 96.9696 51.2928C96.952 51.0431 96.9155 50.7952 96.8604 50.5511L96.8223 50.4012L96.774 50.292L96.6292 49.9999C96.1072 48.9865 95.4996 48.0195 94.8131 47.1094C94.4677 46.6395 94.1045 46.1797 93.7387 45.7225C93.5558 45.4914 93.3679 45.2653 93.1799 45.0418L92.6211 44.3941L94.6506 42.4891Z" fill="#B65B52"/>
<path d="M96.9366 56.0857L96.012 57.0789L97.8205 58.1457C97.8205 58.1457 98.4453 57.3151 98.2015 56.4642L96.9366 56.0857Z" fill="#B55B52"/>
<path d="M94.808 58.547L96.5683 59.1642L97.8179 58.1457L96.0095 57.0789L94.808 58.547Z" fill="#B55B52"/>
<path d="M99.8779 62.6161L88.2523 60.0761C88.8324 56.1474 89.681 52.2631 90.7923 48.4505L102.42 50.9905C101.355 54.8148 100.506 58.6961 99.8779 62.6161Z" fill="#005F31"/>
<path d="M101.711 51.5497L90.3057 48.154L86.91 59.5591L98.3152 62.9548L101.711 51.5497Z" fill="white"/>
<path d="M88.0618 34.8691C88.0618 35.0164 87.9704 35.1231 87.8738 35.1231C87.7773 35.1231 87.7062 34.9987 87.7138 34.8513C87.7214 34.704 87.8053 34.5973 87.9018 34.5973C87.9983 34.5973 88.0694 34.7218 88.0618 34.8691Z" fill="#263238"/>
<path d="M87.9831 35.1333C87.7863 35.5767 87.5299 35.9911 87.2211 36.3652C87.3182 36.4413 87.4309 36.4951 87.5512 36.5228C87.6715 36.5504 87.7964 36.5512 87.917 36.5252L87.9831 35.1333Z" fill="#A02724"/>
<path d="M88.646 34.0741C88.6671 34.0697 88.686 34.058 88.6993 34.0411C88.7155 34.0249 88.7245 34.003 88.7245 33.9801C88.7245 33.9573 88.7155 33.9353 88.6993 33.9192C88.5945 33.8333 88.4707 33.7735 88.3382 33.7448C88.2057 33.7161 88.0683 33.7193 87.9373 33.7541C87.9265 33.7575 87.9164 33.7631 87.9077 33.7705C87.899 33.7778 87.8918 33.7869 87.8866 33.797C87.8814 33.8072 87.8783 33.8183 87.8774 33.8296C87.8765 33.841 87.8779 33.8524 87.8815 33.8633C87.8849 33.8742 87.8905 33.8842 87.8979 33.8929C87.9052 33.9016 87.9143 33.9088 87.9244 33.914C87.9346 33.9192 87.9457 33.9223 87.957 33.9232C87.9684 33.9241 87.9798 33.9227 87.9907 33.9192C88.0954 33.8915 88.2053 33.8895 88.311 33.9134C88.4167 33.9372 88.5151 33.9863 88.5977 34.0563C88.6119 34.0665 88.6286 34.0726 88.646 34.0741Z" fill="#263238"/>
<path d="M92.4814 36.9824C92.202 38.321 92.0217 40.1726 92.9437 41.0642C92.9437 41.0642 92.5627 42.4205 90.076 42.4205C87.3455 42.4205 88.7781 41.2318 88.7781 41.2318C89.9185 40.8788 89.9262 39.5859 89.6798 38.547L92.4814 36.9824Z" fill="#B55B52"/>
<path d="M86.6978 103.952C86.4641 103.952 86.2381 103.919 86.1619 103.815C86.1422 103.787 86.1316 103.754 86.1316 103.72C86.1316 103.686 86.1422 103.652 86.1619 103.624C86.1765 103.599 86.1963 103.577 86.2199 103.559C86.2435 103.542 86.2704 103.529 86.299 103.523C86.6038 103.441 87.2388 103.805 87.2642 103.82C87.2724 103.824 87.2791 103.831 87.2832 103.839C87.2873 103.847 87.2887 103.857 87.2871 103.866C87.2848 103.874 87.2803 103.882 87.274 103.888C87.2678 103.894 87.26 103.899 87.2515 103.901C87.0688 103.934 86.8835 103.951 86.6978 103.952ZM86.4133 103.596C86.3855 103.593 86.3574 103.593 86.3295 103.596C86.2939 103.605 86.2629 103.627 86.2432 103.657C86.2127 103.711 86.2228 103.739 86.2432 103.754C86.327 103.871 86.7893 103.873 87.1296 103.825C86.9081 103.703 86.6647 103.625 86.4133 103.596Z" fill="#005F31"/>
<path d="M87.2515 103.901H87.2338C87.0128 103.802 86.581 103.406 86.6165 103.2C86.6165 103.152 86.6623 103.091 86.7791 103.078C86.8242 103.071 86.8704 103.074 86.9143 103.087C86.9582 103.1 86.9987 103.122 87.0331 103.152C87.2617 103.342 87.3049 103.835 87.3074 103.856C87.3068 103.871 87.3005 103.885 87.2896 103.896C87.284 103.9 87.2777 103.902 87.2711 103.903C87.2646 103.904 87.2579 103.903 87.2515 103.901ZM86.8147 103.16H86.7867C86.7105 103.16 86.7054 103.198 86.7029 103.208C86.68 103.332 86.9747 103.642 87.1982 103.777C87.1794 103.57 87.0979 103.374 86.9645 103.215C86.9228 103.18 86.8697 103.16 86.8147 103.16Z" fill="#005F31"/>
<path d="M89.3369 103.858H87.5081L87.3811 99.6264H89.2099L89.3369 103.858Z" fill="#B55B52"/>
<path d="M87.4471 103.647H89.4436C89.4798 103.647 89.5149 103.659 89.5431 103.682C89.5714 103.705 89.5909 103.736 89.5985 103.772L89.9389 105.395C89.9473 105.434 89.9466 105.476 89.9369 105.515C89.9272 105.554 89.9088 105.591 89.8829 105.622C89.857 105.654 89.8243 105.679 89.7874 105.696C89.7505 105.712 89.7102 105.721 89.6696 105.72C88.9508 105.72 87.9119 105.667 87.0052 105.667C85.9485 105.667 85.2805 105.725 84.0384 105.725C83.2891 105.725 83.091 104.963 83.406 104.897C84.8385 104.585 85.7606 104.551 87.0052 103.789C87.1363 103.702 87.2894 103.652 87.4471 103.647Z" fill="#263238"/>
<path d="M93.6777 41.2826C95.4303 41.3029 97.8814 45.7479 97.8814 45.7479L95.1636 48.514C93.9656 47.8755 92.9975 46.8781 92.395 45.6616C91.3587 43.5483 91.887 41.2648 93.6777 41.2826Z" fill="#005F31"/>
<path opacity="0.3" d="M93.6777 41.2826C95.4303 41.3029 97.8814 45.7479 97.8814 45.7479L95.1636 48.514C93.9656 47.8755 92.9975 46.8781 92.395 45.6616C91.3587 43.5483 91.887 41.2648 93.6777 41.2826Z" fill="black"/>
<path d="M85.3643 43.3095C84.9655 45.2831 84.6785 49.3395 85.6615 57.3684H95.4354C95.5116 56.068 94.8817 50.3911 95.7174 44.2951C95.7698 43.9058 95.7412 43.5099 95.6332 43.1323C95.5253 42.7546 95.3404 42.4034 95.0901 42.1006C94.8399 41.7979 94.5297 41.5502 94.1791 41.3732C93.8285 41.1961 93.4451 41.0935 93.0529 41.0718H92.9437C91.5597 40.993 90.1723 40.993 88.7882 41.0718C88.331 41.115 87.8789 41.181 87.4776 41.2521C86.9597 41.3438 86.4813 41.5889 86.1045 41.9558C85.7277 42.3227 85.4698 42.7943 85.3643 43.3095Z" fill="#005F31"/>
<path opacity="0.2" d="M85.3643 43.3095C84.9655 45.2831 84.6785 49.3395 85.6615 57.3684H95.4354C95.5116 56.068 94.8817 50.3911 95.7174 44.2951C95.7698 43.9058 95.7412 43.5099 95.6332 43.1323C95.5253 42.7546 95.3404 42.4034 95.0901 42.1006C94.8399 41.7979 94.5297 41.5502 94.1791 41.3732C93.8285 41.1961 93.4451 41.0935 93.0529 41.0718H92.9437C91.5597 40.993 90.1723 40.993 88.7882 41.0718C88.331 41.115 87.8789 41.181 87.4776 41.2521C86.9597 41.3438 86.4813 41.5889 86.1045 41.9558C85.7277 42.3227 85.4698 42.7943 85.3643 43.3095Z" fill="black"/>
<path opacity="0.2" d="M87.6122 47.3761L86.2965 46.482C85.0265 46.896 84.9605 48.1305 85.0265 49.9135C86.1187 49.6392 87.376 48.6029 87.6122 47.3761Z" fill="black"/>
<path opacity="0.2" d="M87.3811 99.6264L87.4471 101.808H89.2759L89.2099 99.6264H87.3811Z" fill="black"/>
<path d="M92.9894 34.7574C92.7811 36.5608 92.7506 37.6276 91.788 38.5191C90.3402 39.8577 88.1532 38.9407 87.818 37.117C87.5157 35.4762 87.9069 32.799 89.7153 32.1513C90.11 32.0047 90.5358 31.9625 90.9515 32.0289C91.3672 32.0952 91.7587 32.2678 92.0881 32.53C92.4175 32.7922 92.6735 33.135 92.8314 33.5252C92.9894 33.9155 93.0438 34.3399 92.9894 34.7574Z" fill="#B55B52"/>
<path d="M89.1388 35.5295C88.5774 35.6565 88.3234 34.3332 88.8848 33.8252C88.3768 33.5712 87.6427 33.2029 87.3989 32.6492C87.1169 32.0142 87.8789 31.2522 88.5368 31.2852C88.3234 30.861 88.7908 29.7282 90.1319 30.1549C91.473 30.5816 92.1029 31.242 92.1029 31.242C92.1029 31.242 92.5449 29.7739 93.4771 30.9601C94.3026 32.0116 93.9851 32.9133 93.9851 32.9133C93.9851 32.9133 95.2144 34.0792 94.8969 34.9453C94.7197 35.452 94.3565 35.8724 93.8809 36.1213C93.8809 36.1213 94.0664 38.1533 92.5728 38.6613C91.0793 39.1693 90.137 38.1533 90.264 37.559C89.2988 37.592 88.3133 36.322 89.1388 35.5295Z" fill="#263238"/>
<path d="M89.789 35.3949C89.7214 35.8421 89.5112 36.2555 89.1896 36.5735C88.7603 36.9875 88.3641 36.6903 88.331 36.1544C88.3006 35.6718 88.4885 34.8844 88.9914 34.6608C89.4944 34.4373 89.8576 34.8564 89.789 35.3949Z" fill="#B55B52"/>
<path d="M104.851 101.552L103.226 102.136L101.61 97.9526L103.236 97.3709L104.851 101.552Z" fill="#B55B52"/>
<path d="M102.504 102.4C102.321 102.545 102.123 102.654 101.996 102.624C101.964 102.613 101.936 102.592 101.916 102.565C101.896 102.538 101.885 102.505 101.884 102.471C101.881 102.442 101.883 102.412 101.891 102.384C101.899 102.356 101.912 102.329 101.93 102.306C102.121 102.052 102.842 101.945 102.873 101.943C102.881 101.941 102.89 101.943 102.898 101.946C102.907 101.95 102.913 101.956 102.918 101.963C102.923 101.971 102.925 101.98 102.925 101.989C102.925 101.998 102.923 102.006 102.918 102.014C102.791 102.154 102.653 102.283 102.504 102.4ZM102.062 102.298C102.038 102.315 102.018 102.335 102.001 102.359C101.979 102.388 101.969 102.423 101.973 102.459C101.973 102.519 102.006 102.535 102.024 102.54C102.161 102.58 102.532 102.298 102.766 102.05C102.517 102.086 102.278 102.17 102.062 102.298Z" fill="#005F31"/>
<path d="M102.908 102.019C102.903 102.021 102.898 102.021 102.893 102.019C102.659 102.078 102.075 102.034 101.976 101.849C101.953 101.806 101.943 101.737 102.029 101.653C102.06 101.623 102.097 101.6 102.137 101.585C102.177 101.569 102.22 101.563 102.263 101.564C102.56 101.564 102.898 101.933 102.913 101.948C102.917 101.954 102.919 101.961 102.919 101.968C102.919 101.975 102.917 101.982 102.913 101.989C102.915 101.994 102.915 101.999 102.914 102.004C102.913 102.01 102.911 102.015 102.908 102.019ZM102.108 101.707C102.1 101.711 102.093 101.717 102.088 101.724C102.032 101.778 102.047 101.806 102.052 101.816C102.111 101.925 102.532 101.989 102.791 101.958C102.651 101.804 102.465 101.7 102.26 101.658C102.205 101.655 102.151 101.672 102.108 101.707Z" fill="#005F31"/>
<path d="M102.916 101.689L104.485 100.454C104.515 100.432 104.55 100.42 104.587 100.42C104.624 100.42 104.659 100.432 104.689 100.454L106.037 101.47C106.069 101.494 106.095 101.525 106.113 101.56C106.131 101.596 106.141 101.635 106.141 101.675C106.141 101.715 106.131 101.754 106.113 101.789C106.095 101.825 106.069 101.856 106.037 101.879C105.463 102.314 104.356 103.208 103.68 103.807C102.89 104.511 103.505 104.041 102.578 104.866C102.017 105.374 101.331 104.958 101.519 104.701C102.367 103.528 102.547 102.829 102.659 102.08C102.69 101.921 102.782 101.781 102.916 101.689Z" fill="#263238"/>
<path d="M76.2178 47.846L75.504 46.3093L73.5609 47.5107C73.5609 47.5107 74.201 48.8188 75.5269 48.6766L76.2178 47.846Z" fill="#B55B52"/>
<path d="M73.6778 45.8927L73.2434 46.2661C73.1769 46.3233 73.1232 46.3938 73.0857 46.4731C73.0482 46.5524 73.0279 46.6387 73.0259 46.7264C73.024 46.8141 73.0406 46.9012 73.0746 46.9821C73.1085 47.0629 73.1591 47.1357 73.2231 47.1957L73.5609 47.5107L75.504 46.3093L74.3382 45.8013C74.2306 45.7529 74.1116 45.7358 73.9948 45.752C73.878 45.7682 73.7681 45.817 73.6778 45.8927Z" fill="#B55B52"/>
<path opacity="0.2" d="M101.61 97.9526L102.443 100.109L104.069 99.5274L103.236 97.3709L101.61 97.9526Z" fill="black"/>
<path d="M89.1286 57.3684C89.1286 57.3684 92.1766 71.407 93.345 76.6191C94.615 82.3239 101.343 99.6747 101.343 99.6747L104.295 98.0745C104.295 98.0745 101.138 84.4626 98.8314 77.0382C97.9932 70.9016 95.4354 57.3684 95.4354 57.3684H89.1286Z" fill="#263238"/>
<path d="M100.513 98.806C100.498 98.806 101.117 99.9515 101.117 99.9515L104.77 98.5799L104.48 97.4649L100.513 98.806Z" fill="#005F31"/>
<path opacity="0.3" d="M90.932 63.8759C93.2332 64.1833 93.4923 72.2884 93.4491 77.0458C93.4187 76.896 93.3831 76.7537 93.3552 76.6191C92.7176 73.7718 91.5213 68.2904 90.5612 63.9013C90.6813 63.8653 90.808 63.8566 90.932 63.8759Z" fill="black"/>
<path d="M85.6615 57.3684C85.6615 57.3684 84.8843 71.0336 85.0113 76.6064C85.1433 82.4052 86.7715 101.387 86.7715 101.387H89.8677C89.8677 101.387 90.3757 82.743 90.584 77.0509C90.8152 70.8431 92.0877 57.3684 92.0877 57.3684H85.6615Z" fill="#263238"/>
<path d="M86.1924 100.152C86.1771 100.152 86.3498 101.437 86.3498 101.437H90.1167L90.2335 100.292L86.1924 100.152Z" fill="#005F31"/>
<path d="M88.2955 44.2544C87.873 45.0064 87.4021 45.7301 86.8858 46.421C86.3737 47.1028 85.8233 47.7549 85.2373 48.3743C84.6582 48.9915 84.0461 49.5757 83.4187 50.1294C82.7913 50.6832 82.136 51.2115 81.5467 51.6966L81.3384 51.8693L81.1657 51.9303C80.7452 52.0803 80.2956 52.1299 79.8525 52.0751C79.4889 52.0349 79.1321 51.9478 78.7908 51.816C78.2188 51.5742 77.6815 51.2573 77.1931 50.8737C76.7419 50.523 76.3174 50.1393 75.9231 49.7256C75.7301 49.5249 75.5472 49.3141 75.3669 49.1033C75.1865 48.8925 75.0189 48.6791 74.8436 48.4378L75.8469 47.5005C76.2356 47.7901 76.6547 48.1051 77.0738 48.3743C77.478 48.6506 77.8969 48.905 78.3285 49.1363C78.7116 49.3477 79.1182 49.5131 79.5401 49.6291C79.6965 49.6714 79.8582 49.6911 80.0202 49.6875C80.1052 49.6883 80.1887 49.6655 80.2615 49.6214L79.883 49.8551C80.5028 49.276 81.0641 48.7578 81.6229 48.2117C82.1817 47.6656 82.7075 47.1119 83.2129 46.5404C83.7184 45.9689 84.201 45.3796 84.6455 44.7624C85.09 44.1452 85.5015 43.5254 85.8901 42.8904L88.2955 44.2544Z" fill="#B65B52"/>
<path d="M89.596 43.8709C89.4207 46.4998 86.4057 48.6969 86.4057 48.6969L82.4941 46.5506C82.4941 46.5506 83.9343 43.4543 85.8749 41.9913C88.2752 40.1955 89.728 41.8694 89.596 43.8709Z" fill="#005F31"/>
<path opacity="0.2" d="M89.596 43.8709C89.4207 46.4998 86.4057 48.6969 86.4057 48.6969L82.4941 46.5506C82.4941 46.5506 83.9343 43.4543 85.8749 41.9913C88.2752 40.1955 89.728 41.8694 89.596 43.8709Z" fill="black"/>
</svg>
