<svg width="163" height="109" viewBox="0 0 163 109" fill="none" xmlns="http://www.w3.org/2000/svg">
<path d="M157.191 97.3043C157.191 97.337 123.104 97.361 81.0697 97.361C39.0353 97.361 4.94 97.337 4.94 97.3043C4.94 97.2716 39.0179 97.2476 81.0697 97.2476C123.122 97.2476 157.191 97.2738 157.191 97.3043Z" fill="#263238"/>
<path d="M142.886 86.1776C142.886 86.1776 137.124 79.5286 134.951 72.8796C132.778 66.2306 133.81 66.9936 133.81 66.9936C133.81 66.9936 136.744 73.4551 138.972 76.5747C141.199 79.6943 145.179 84.2701 145.179 84.2701L142.886 86.1776Z" fill="#455A64"/>
<path d="M144.033 68.016C143.995 67.9461 143.934 67.8919 143.86 67.8633C143.786 67.8346 143.704 67.8332 143.629 67.8594C143.554 67.8856 143.491 67.9376 143.451 68.0062C143.411 68.0749 143.396 68.1556 143.41 68.234C143.759 70.571 144.52 76.0537 144.496 79.6092C144.457 84.2287 144.496 86.0141 144.496 86.0141H146.887C146.887 86.0141 146.452 76.4657 145.92 73.5532C145.542 71.5171 144.744 69.2499 144.033 68.016Z" fill="#455A64"/>
<path d="M145.342 85.238C146.346 82.9541 147.011 80.5347 147.315 78.0571C147.513 76.3567 147.159 74.059 146.635 70.9917C146.433 69.8701 146.332 68.7327 146.333 67.5931C146.334 67.466 146.376 67.3427 146.455 67.2427C146.533 67.1428 146.642 67.0717 146.765 67.0407C146.888 67.0098 147.018 67.0207 147.134 67.0718C147.25 67.1228 147.346 67.2111 147.406 67.3228C147.695 67.8416 148.534 69.6118 148.747 70.7192C149.328 73.7472 149.984 75.2623 149.482 78.1312C148.98 81.0001 147.122 85.4298 147.122 85.4298L145.342 85.238Z" fill="#455A64"/>
<path d="M147.5 85.4364C147.5 85.4364 153.826 71.8005 154.265 69.7774C154.704 67.7544 156.193 63.0936 156.369 63.3574C156.545 63.6211 156.804 66.0845 155.667 68.8989C154.53 71.7133 149.66 85.8506 149.66 85.8506H147.5" fill="#455A64"/>
<path d="M144.648 84.826C144.586 84.7898 144.526 84.749 144.47 84.7039C144.359 84.6189 144.188 84.499 143.981 84.3289C143.389 83.8566 142.822 83.3538 142.282 82.8226C140.5 81.064 138.956 79.0776 137.691 76.9148C136.43 74.7534 135.381 72.474 134.56 70.1088C134.242 69.2041 134.01 68.4629 133.86 67.9462C133.782 67.6912 133.727 67.4884 133.69 67.3533C133.667 67.2824 133.651 67.2093 133.643 67.1353C133.673 67.2008 133.697 67.2686 133.716 67.338L133.91 67.9244C134.075 68.4346 134.321 69.1714 134.649 70.0696C135.496 72.4177 136.554 74.684 137.809 76.8406C139.07 78.9957 140.597 80.9827 142.353 82.755C143.029 83.4308 143.609 83.9431 144.018 84.281C144.22 84.4576 144.385 84.584 144.492 84.6756C144.548 84.7213 144.6 84.7716 144.648 84.826Z" fill="#263238"/>
<path d="M145.339 78.2838C145.31 78.1526 145.291 78.0192 145.283 77.8849C145.253 77.6015 145.213 77.2309 145.168 76.7949C145.068 75.8705 144.911 74.5996 144.687 73.2022C144.464 71.8048 144.214 70.547 144.02 69.6401C143.927 69.2041 143.849 68.8422 143.79 68.5654C143.755 68.4346 143.731 68.3012 143.718 68.1664C143.77 68.2913 143.811 68.4204 143.84 68.5523C143.912 68.803 144.005 69.167 144.114 69.6183C144.331 70.5208 144.596 71.7787 144.82 73.1804C145.044 74.5822 145.185 75.8575 145.255 76.784C145.294 77.2483 145.318 77.6233 145.329 77.874C145.347 78.0098 145.35 78.1472 145.339 78.2838Z" fill="#263238"/>
<path d="M146.822 67.2203C146.852 67.276 146.876 67.3344 146.896 67.3947C146.946 67.5233 147.009 67.6912 147.087 67.9005C147.165 68.1097 147.265 68.391 147.359 68.7136C147.452 69.0362 147.576 69.3938 147.665 69.8036L147.821 70.4445C147.876 70.6625 147.913 70.9045 147.961 71.1465C148.065 71.6304 148.128 72.1558 148.204 72.7074C148.493 75.1085 148.406 77.5401 147.947 79.9144C147.832 80.4594 147.73 80.9783 147.593 81.4535C147.528 81.6911 147.474 81.9244 147.404 82.1424C147.335 82.3604 147.267 82.5784 147.202 82.7724C147.08 83.1757 146.935 83.5267 146.817 83.8384C146.7 84.1502 146.587 84.4161 146.489 84.6298L146.272 85.1203C146.249 85.179 146.219 85.2353 146.185 85.2881C146.2 85.2266 146.221 85.1668 146.248 85.1094L146.448 84.608C146.539 84.39 146.648 84.1262 146.754 83.8123C146.861 83.4984 147.004 83.1452 147.119 82.7419C147.18 82.5413 147.245 82.3321 147.313 82.1141C147.38 81.8961 147.43 81.6628 147.493 81.4252C147.626 80.9499 147.711 80.4333 147.834 79.8992C148.276 77.5354 148.362 75.1186 148.091 72.7292C148.017 72.1798 147.958 71.6566 147.861 71.1748C147.813 70.9328 147.778 70.6974 147.728 70.475C147.678 70.2527 147.628 70.039 147.58 69.8341C147.495 69.4243 147.38 69.0624 147.293 68.7441C147.206 68.4258 147.122 68.1512 147.046 67.9288C146.969 67.7064 146.922 67.5451 146.88 67.4143C146.854 67.3519 146.835 67.2868 146.822 67.2203Z" fill="#263238"/>
<path d="M156.295 63.632C156.299 63.6522 156.299 63.6729 156.295 63.6931C156.295 63.741 156.278 63.7999 156.267 63.8697C156.239 64.0244 156.204 64.2555 156.143 64.5498C156.021 65.1362 155.817 65.9799 155.491 67.0045C155.165 68.0291 154.746 69.2281 154.233 70.5492C153.72 71.8702 153.129 73.3069 152.568 74.8372C152.007 76.3676 151.557 77.8587 151.144 79.2103C150.732 80.5619 150.349 81.7827 149.973 82.7855C149.683 83.5808 149.35 84.3596 148.975 85.1181C148.845 85.3884 148.728 85.589 148.654 85.7285L148.565 85.8833C148.556 85.9023 148.544 85.92 148.53 85.9356C148.535 85.9151 148.542 85.8953 148.552 85.8767L148.63 85.7154C148.697 85.5716 148.806 85.3666 148.928 85.0941C149.182 84.5535 149.525 83.76 149.884 82.7528C150.243 81.7457 150.623 80.5314 151.027 79.1754C151.431 77.8195 151.868 76.324 152.44 74.7914C153.011 73.2589 153.6 71.8201 154.118 70.5034C154.635 69.1867 155.076 67.992 155.4 66.974C155.724 65.9559 155.945 65.1188 156.082 64.5367C156.152 64.2468 156.195 64.0179 156.232 63.8653C156.25 63.7955 156.263 63.7389 156.273 63.6909C156.278 63.6702 156.285 63.6504 156.295 63.632Z" fill="#263238"/>
<path d="M136.792 60.6193C136.704 60.5356 136.592 60.4834 136.472 60.4709C136.351 60.4583 136.23 60.4862 136.128 60.55C136.025 60.6139 135.946 60.7101 135.904 60.8237C135.862 60.9372 135.858 61.0616 135.894 61.1773C136.111 61.8784 136.376 62.5632 136.69 63.2265C137.559 65.0817 140.115 71.7285 141.31 75.3844C142.505 79.0403 144.19 85.8484 144.19 85.8484L146.743 85.4342C146.743 85.4342 144.407 74.2399 142.136 70.196C140.291 66.9631 138.457 62.2804 136.792 60.6193Z" fill="#455A64"/>
<path d="M142.008 77.669C142.063 77.7662 142.108 77.8693 142.14 77.9764C142.216 78.177 142.319 78.4691 142.434 78.8353C142.668 79.5656 142.958 80.5793 143.247 81.7195C143.536 82.8596 143.777 83.8864 143.944 84.6341C144.022 84.9873 144.085 85.2881 144.138 85.5214C144.166 85.6292 144.183 85.7394 144.19 85.8506C144.144 85.7492 144.109 85.6433 144.085 85.5345C144.025 85.3012 143.946 85.0069 143.853 84.6625L143.116 81.75C142.827 80.6164 142.553 79.594 142.342 78.8593L142.09 77.9873C142.052 77.8842 142.025 77.7776 142.008 77.669Z" fill="#263238"/>
<path d="M145.472 85.6435C145.465 85.6215 145.461 85.5989 145.459 85.5759C145.459 85.5214 145.442 85.456 145.429 85.3732C145.403 85.1966 145.379 84.9372 145.324 84.5971C145.231 83.9256 145.063 82.9555 144.79 81.774C144.462 80.3901 144.063 79.0243 143.594 77.6821C143.071 76.1561 142.414 74.5255 141.669 72.8273C140.167 69.4374 138.667 66.4312 137.681 64.2097C137.183 63.1001 136.796 62.1954 136.542 61.5632C136.411 61.2493 136.324 61.0029 136.255 60.8351C136.227 60.7566 136.203 60.6956 136.183 60.6432C136.174 60.6225 136.167 60.6005 136.164 60.5779C136.164 60.5779 136.177 60.5975 136.196 60.6389C136.216 60.6803 136.246 60.7501 136.281 60.8242L136.59 61.5436C136.859 62.1671 137.259 63.0696 137.768 64.1596C138.774 66.3723 140.289 69.3698 141.793 72.764C142.538 74.4644 143.192 76.1082 143.712 77.632C144.177 78.9821 144.568 80.3568 144.883 81.75C145.095 82.6858 145.259 83.6317 145.376 84.584C145.422 84.9219 145.437 85.1857 145.457 85.3644C145.457 85.4473 145.468 85.5127 145.472 85.5672C145.475 85.5925 145.475 85.6182 145.472 85.6435Z" fill="#263238"/>
<path d="M146.743 85.4364C146.704 85.2934 146.675 85.1477 146.657 85.0004C146.607 84.6995 146.539 84.3028 146.459 83.8232C146.283 82.8313 146.024 81.4644 145.629 79.9777C145.233 78.4909 144.814 77.1633 144.483 76.2128L144.092 75.0923C144.035 74.9568 143.99 74.8168 143.957 74.6737C144.029 74.8018 144.091 74.9352 144.142 75.0727C144.251 75.3321 144.405 75.7114 144.577 76.1845C145.038 77.4167 145.435 78.6727 145.763 79.9471C146.092 81.2214 146.357 82.5114 146.557 83.8123C146.63 84.3115 146.685 84.717 146.713 84.9982C146.734 85.1433 146.744 85.2898 146.743 85.4364Z" fill="#263238"/>
<path d="M151.983 85.068H142.016V97.2476H151.983V85.068Z" fill="#005F31"/>
<g opacity="0.3">
<path d="M151.983 85.068H142.016V97.2476H151.983V85.068Z" fill="black"/>
</g>
<path d="M148.804 85.068H139.963V97.2476H148.804V85.068Z" fill="#005F31"/>
<path d="M19.2405 80.8344C17.5409 79.7444 15.1894 79.7226 13.5377 80.8802C11.9685 81.9811 11.1709 83.9823 11.2405 85.8942C11.31 87.8061 12.238 90.1561 13.9702 91.1654L19.0558 91.1436C19.873 90.547 20.5481 89.7758 21.0322 88.8858C21.5162 87.9957 21.7973 87.0089 21.855 85.9967C21.9311 83.9823 20.9379 81.9244 19.2405 80.8344Z" fill="#455A64"/>
<path d="M16.7346 91.3573C16.7107 91.2132 16.7006 91.0672 16.7042 90.9213C16.7042 90.6074 16.6825 90.2062 16.6694 89.7244C16.6434 88.7151 16.6042 87.3264 16.5369 85.7808C16.4695 84.2352 16.3869 82.8465 16.3195 81.8372C16.2913 81.3576 16.2674 80.9652 16.2478 80.6426C16.2339 80.4976 16.2339 80.3516 16.2478 80.2066C16.2842 80.3495 16.3075 80.4954 16.3174 80.6426C16.3521 80.9238 16.3934 81.3315 16.4412 81.835C16.5325 82.8422 16.6325 84.233 16.702 85.7787C16.7716 87.3243 16.7912 88.7195 16.7868 89.731C16.7868 90.2367 16.7868 90.6444 16.7694 90.9278C16.7707 91.0717 16.7591 91.2155 16.7346 91.3573Z" fill="#263238"/>
<path d="M11.7534 85.4669C11.7534 85.5105 11.473 85.5258 11.1362 85.4974C10.7993 85.4691 10.5298 85.4102 10.532 85.3666C10.5341 85.323 10.8123 85.3078 11.1492 85.3339C11.4861 85.3601 11.7577 85.4211 11.7534 85.4669Z" fill="#263238"/>
<path d="M11.849 83.7447C11.8295 83.7861 11.5926 83.7207 11.3165 83.5965C11.0405 83.4722 10.8319 83.3414 10.8493 83.3C10.8667 83.2586 11.1057 83.3262 11.3817 83.4482C11.6578 83.5703 11.8664 83.712 11.849 83.7447Z" fill="#263238"/>
<path d="M12.7314 82.4672C12.7075 82.5043 12.4401 82.3778 12.1619 82.1468C11.8838 81.9157 11.7077 81.6737 11.7403 81.6454C11.7729 81.617 11.9946 81.7958 12.2641 82.0203C12.5336 82.2449 12.7553 82.428 12.7314 82.4672Z" fill="#263238"/>
<path d="M13.6203 81.2617C13.579 81.2791 13.4507 81.0786 13.3334 80.8126C13.216 80.5466 13.153 80.3156 13.1943 80.2959C13.2356 80.2763 13.3638 80.4791 13.4812 80.7472C13.5985 81.0153 13.6594 81.2442 13.6203 81.2617Z" fill="#263238"/>
<path d="M15.0134 80.4071C14.9721 80.4246 14.8352 80.2109 14.7417 79.9144C14.6483 79.618 14.6417 79.3607 14.6852 79.3542C14.7287 79.3476 14.8091 79.5722 14.9025 79.8643C14.996 80.1564 15.0547 80.3875 15.0134 80.4071Z" fill="#263238"/>
<path d="M17.3367 79.4414C17.3801 79.4566 17.354 79.6398 17.2802 79.8512C17.2063 80.0627 17.1106 80.2196 17.0628 80.2044C17.015 80.1891 17.0454 80.0082 17.1193 79.7967C17.1932 79.5853 17.2954 79.4261 17.3367 79.4414Z" fill="#263238"/>
<path d="M19.0623 80.1848C19.0927 80.2175 18.9819 80.3701 18.8146 80.5248C18.6472 80.6796 18.4886 80.7777 18.4581 80.7428C18.4277 80.708 18.5385 80.5575 18.7037 80.4028C18.8689 80.248 19.0319 80.1521 19.0623 80.1848Z" fill="#263238"/>
<path d="M20.5793 81.168C20.6054 81.205 20.4706 81.3402 20.2794 81.471C20.0881 81.6018 19.9121 81.6759 19.886 81.6388C19.8599 81.6018 19.9968 81.4666 20.1881 81.3358C20.3793 81.205 20.5554 81.1309 20.5793 81.168Z" fill="#263238"/>
<path d="M21.6573 82.6329C21.6746 82.6743 21.4638 82.8051 21.1835 82.925C20.9031 83.0449 20.6619 83.1082 20.6445 83.0667C20.6271 83.0253 20.8401 82.8945 21.1204 82.7768C21.4008 82.6591 21.6399 82.5915 21.6573 82.6329Z" fill="#263238"/>
<path d="M22.0832 84.233C22.0832 84.2766 21.8659 84.342 21.5986 84.3747C21.3313 84.4074 21.1031 84.4009 21.0965 84.3551C21.09 84.3093 21.3139 84.2483 21.579 84.2134C21.8442 84.1785 22.0767 84.1872 22.0832 84.233Z" fill="#263238"/>
<path d="M22.3027 86.2016C22.2853 86.243 22.055 86.1819 21.7898 86.0664C21.5247 85.9509 21.3204 85.8222 21.3378 85.7808C21.3552 85.7394 21.5877 85.8004 21.8528 85.916C22.118 86.0315 22.3223 86.1601 22.3027 86.2016Z" fill="#263238"/>
<path d="M22.1093 87.8911C22.0941 87.9325 21.8029 87.8627 21.4986 87.6622C21.1943 87.4616 21.0139 87.2262 21.0444 87.1935C21.0748 87.1608 21.2987 87.3373 21.5877 87.5248C21.8768 87.7123 22.1245 87.854 22.1093 87.8911Z" fill="#263238"/>
<path d="M21.2313 89.428C21.2052 89.4628 20.9726 89.3277 20.751 89.0857C20.5293 88.8437 20.4097 88.6039 20.4445 88.5778C20.4793 88.5516 20.6619 88.7456 20.8792 88.9745C21.0965 89.2034 21.2617 89.3931 21.2313 89.428Z" fill="#263238"/>
<path d="M12.9074 89.6089C12.927 89.6481 12.6901 89.8269 12.3619 89.9839C12.0337 90.1408 11.7642 90.252 11.736 90.2171C11.7077 90.1822 11.9533 89.9991 12.2793 89.84C12.6053 89.6808 12.8857 89.5697 12.9074 89.6089Z" fill="#263238"/>
<path d="M12.1468 88.2181C12.1641 88.2595 11.9685 88.3881 11.7121 88.5058C11.4556 88.6235 11.2274 88.6868 11.2079 88.6453C11.1883 88.6039 11.3861 88.4753 11.6425 88.3576C11.899 88.2399 12.1272 88.1766 12.1468 88.2181Z" fill="#263238"/>
<path d="M11.5882 86.982C11.5882 87.0256 11.3535 87.0975 11.0492 87.1411C10.7449 87.1847 10.4972 87.1826 10.4907 87.1411C10.4841 87.0997 10.7254 87.0256 11.0275 86.9842C11.3296 86.9428 11.5817 86.9406 11.5882 86.982Z" fill="#263238"/>
<path d="M13.4203 86.3062C13.4334 86.3498 13.203 86.4588 12.8879 86.4937C12.5727 86.5286 12.3206 86.4741 12.325 86.4305C12.3293 86.3869 12.5727 86.3672 12.8683 86.3324C13.1639 86.2975 13.4073 86.2626 13.4203 86.3062Z" fill="#263238"/>
<path d="M14.9438 84.7868C14.9569 84.8282 14.77 84.9241 14.5092 84.9481C14.2484 84.9721 14.0571 84.9175 14.0614 84.8739C14.0658 84.8303 14.2614 84.8107 14.4961 84.7868C14.7308 84.7628 14.9308 84.7432 14.9438 84.7868Z" fill="#263238"/>
<path d="M15.235 83.5681C15.2198 83.6117 15.0177 83.579 14.783 83.4984C14.5483 83.4177 14.3701 83.3174 14.3853 83.2804C14.4005 83.2433 14.6026 83.2695 14.8373 83.3523C15.072 83.4351 15.2503 83.5267 15.235 83.5681Z" fill="#263238"/>
<path d="M15.7936 82.3364C15.7632 82.3691 15.6241 82.2776 15.5241 82.1032C15.4241 81.9288 15.4154 81.7653 15.4589 81.7544C15.5024 81.7435 15.5763 81.8699 15.6762 82.0225C15.7762 82.1751 15.8262 82.3059 15.7936 82.3364Z" fill="#263238"/>
<path d="M15.1199 87.3788C15.1307 87.4224 14.9569 87.503 14.7287 87.5597C14.6214 87.5881 14.5113 87.6042 14.4005 87.6077L14.3701 87.5117C14.4287 87.5117 14.4657 87.5118 14.4744 87.5227C14.4831 87.5336 14.457 87.5684 14.4092 87.6055L14.3766 87.5096C14.4773 87.4618 14.583 87.4252 14.6917 87.4006C14.9177 87.3461 15.109 87.3352 15.1199 87.3788Z" fill="#263238"/>
<path d="M15.4307 89.5391C15.4459 89.5806 15.2133 89.707 14.9308 89.8225C14.6483 89.9381 14.3896 89.9969 14.3744 89.9555C14.3592 89.9141 14.5918 89.7855 14.8721 89.6721C15.1525 89.5588 15.4176 89.4977 15.4307 89.5391Z" fill="#263238"/>
<path d="M13.7137 88.5799C13.7289 88.6214 13.579 88.7107 13.3812 88.7783C13.1834 88.8459 13.0117 88.8677 12.9965 88.8241C12.9813 88.7805 13.1313 88.6933 13.329 88.6257C13.5268 88.5581 13.692 88.5363 13.7137 88.5799Z" fill="#263238"/>
<path d="M13.8441 84.1851C13.8441 84.2287 13.5746 84.2025 13.2769 84.0957C12.9791 83.9889 12.7596 83.845 12.7792 83.8057C12.7988 83.7665 13.04 83.8384 13.3312 83.9409C13.6224 84.0434 13.855 84.148 13.8441 84.1851Z" fill="#263238"/>
<path d="M18.0082 83.712C18.0343 83.7491 17.8887 83.8886 17.6844 84.0237C17.4801 84.1589 17.2932 84.2417 17.2671 84.2003C17.241 84.1589 17.3888 84.0237 17.5931 83.8886C17.7974 83.7534 17.9843 83.6684 18.0082 83.712Z" fill="#263238"/>
<path d="M18.2364 85.8746C18.2364 85.9182 18.0908 85.9879 17.893 86.0293C17.6953 86.0708 17.5279 86.0686 17.517 86.0293C17.5062 85.9901 17.6627 85.916 17.8604 85.8746C18.0582 85.8331 18.2256 85.831 18.2364 85.8746Z" fill="#263238"/>
<path d="M18.4994 88.314C18.4798 88.3532 18.2582 88.2922 18.006 88.1745C17.7539 88.0568 17.5714 87.9281 17.5714 87.8867C17.5714 87.8453 17.8126 87.9085 18.0647 88.0262C18.3168 88.144 18.5168 88.2726 18.4994 88.314Z" fill="#263238"/>
<path d="M17.9409 90.688C17.9061 90.7185 17.7627 90.6008 17.6214 90.4264C17.4801 90.252 17.4041 90.0885 17.428 90.0602C17.4519 90.0318 17.604 90.1495 17.7474 90.3239C17.8909 90.4983 17.9756 90.6575 17.9409 90.688Z" fill="#263238"/>
<path d="M17.8213 82.1097C17.8496 82.1446 17.7539 82.2645 17.5909 82.3451C17.4279 82.4258 17.278 82.4323 17.2671 82.3887C17.2563 82.3451 17.3736 82.2754 17.5192 82.2013C17.6648 82.1271 17.7996 82.0748 17.8213 82.1097Z" fill="#263238"/>
<path d="M19.8686 84.2962C19.8838 84.3377 19.6947 84.4423 19.4339 84.4794C19.1731 84.5164 18.9667 84.4663 18.9688 84.4227C18.971 84.3791 19.1709 84.3507 19.4035 84.318C19.636 84.2853 19.8534 84.2548 19.8686 84.2962Z" fill="#263238"/>
<path d="M19.4622 82.3342C19.4817 82.3735 19.2948 82.5086 19.0275 82.5937C18.7602 82.6787 18.532 82.6787 18.5255 82.6351C18.519 82.5915 18.7254 82.5195 18.9775 82.4367C19.2296 82.3539 19.4405 82.2928 19.4622 82.3342Z" fill="#263238"/>
<path d="M20.3141 87.3373C20.3141 87.3809 19.9925 87.4093 19.6056 87.3373C19.2188 87.2654 18.9297 87.1193 18.9536 87.0866C18.9775 87.0539 19.2731 87.1106 19.6447 87.176C20.0164 87.2414 20.3141 87.2916 20.3141 87.3373Z" fill="#263238"/>
<path d="M19.56 90.1888C19.5339 90.2237 19.297 90.0841 19.0623 89.8465C18.8276 89.6089 18.6907 89.38 18.7189 89.3451C18.7472 89.3102 18.9362 89.5021 19.1731 89.7332C19.41 89.9642 19.5839 90.1539 19.56 90.1888Z" fill="#263238"/>
<path d="M16.2217 80.006C15.7028 80.3223 15.2247 80.7016 14.7982 81.1353C13.8091 82.2228 13.1883 83.5963 13.0248 85.0593C12.9511 85.8633 12.9869 86.6738 13.1313 87.4682C13.2477 88.1201 13.3978 88.7655 13.5811 89.4018C13.7376 89.9446 13.8811 90.3806 13.9767 90.6837C14.0345 90.8383 14.0803 90.9972 14.1136 91.1589C14.034 91.0144 13.9685 90.8626 13.918 90.7054C13.8028 90.409 13.642 89.9773 13.4725 89.4345C13.2701 88.7986 13.1076 88.1506 12.9857 87.4943C12.828 86.6869 12.787 85.8609 12.8639 85.0418C13.0268 83.5426 13.6776 82.139 14.7156 81.0481C15.0309 80.7271 15.3876 80.45 15.7762 80.224C15.8809 80.16 15.9898 80.1032 16.1022 80.054C16.1397 80.0327 16.1799 80.0165 16.2217 80.006Z" fill="#263238"/>
<path d="M18.4364 91.2766C18.3994 91.257 18.7993 90.64 19.1644 89.5326C19.6532 88.0872 19.802 86.5479 19.5991 85.0353C19.4895 84.2009 19.2566 83.3875 18.908 82.622C18.6164 82.0066 18.2175 81.4485 17.73 80.9739C17.3853 80.6704 16.9951 80.4233 16.5738 80.2414C16.2739 80.1172 16.0935 80.0867 16.0957 80.0736C16.1396 80.0668 16.1843 80.0668 16.2283 80.0736C16.3532 80.0961 16.476 80.1289 16.5956 80.1717C17.0367 80.3339 17.4457 80.573 17.8039 80.878C18.3178 81.3507 18.7381 81.9166 19.0427 82.5457C19.4052 83.3179 19.647 84.1414 19.7599 84.9873C19.9677 86.5241 19.7999 88.0884 19.2709 89.5457C19.1797 89.8269 19.0536 90.0667 18.9732 90.2847C18.8928 90.5027 18.7819 90.6771 18.7037 90.821C18.6262 90.9794 18.5368 91.1317 18.4364 91.2766Z" fill="#263238"/>
<path d="M12.1468 90.8907H21.0965L21.1509 92.6871H12.1468V90.8907Z" fill="#005F31"/>
<path d="M12.9074 91.7889L13.4203 97.2738H19.9642L20.4902 91.8499L12.9074 91.7889Z" fill="#005F31"/>
<path d="M21.1509 92.7089C21.1509 92.7546 19.1362 92.7895 16.6499 92.7895C14.1636 92.7895 12.1489 92.7546 12.1489 92.7089C12.1489 92.6631 14.1636 92.6282 16.6499 92.6282C19.1362 92.6282 21.1509 92.6631 21.1509 92.7089Z" fill="#263238"/>
<path d="M20.2424 94.3787C20.1958 94.5023 20.1314 94.6184 20.0512 94.7232C19.8493 95.0213 19.6161 95.2968 19.3557 95.545L19.3144 95.5843L19.2753 95.5407C18.7376 94.9754 18.1498 94.4603 17.5192 94.0016H17.6192L16.8412 94.6861L15.9218 95.484L15.8719 95.5298L15.8197 95.4862L14.3266 94.2261L14.4135 94.2152C14.1049 94.5946 13.8441 94.9107 13.6398 95.1635C13.5507 95.2847 13.4487 95.3958 13.3356 95.4949C13.4072 95.3625 13.4908 95.2369 13.5855 95.1199L14.3157 94.1411L14.3549 94.091L14.4049 94.1302L15.9262 95.3641H15.8262L16.7412 94.5575L17.5214 93.8752L17.5692 93.8337L17.6214 93.8708C18.2536 94.3395 18.8362 94.8721 19.3601 95.46H19.2775C19.6283 95.1269 19.9511 94.7653 20.2424 94.3787Z" fill="#263238"/>
<path d="M127.781 28.7259H33.0412C31.2923 28.7259 29.8746 30.1479 29.8746 31.9021V92.5933C29.8746 94.3475 31.2923 95.7696 33.0412 95.7696H127.781C129.53 95.7696 130.948 94.3475 130.948 92.5933V31.9021C130.948 30.1479 129.53 28.7259 127.781 28.7259Z" fill="#455A64"/>
<path d="M26.5668 91.4379H136.07V93.4239C136.07 94.453 135.663 95.44 134.937 96.1677C134.212 96.8955 133.228 97.3043 132.202 97.3043H30.4267C29.4007 97.3043 28.4167 96.8955 27.6912 96.1677C26.9657 95.44 26.5581 94.453 26.5581 93.4239V91.4379H26.5668Z" fill="#455A64"/>
<path d="M70.4486 90.8101L71.8069 92.9792H90.9279L92.1885 90.8101H70.4486Z" fill="#263238"/>
<path d="M130.078 90.8101C130.078 90.8471 107.645 90.8755 79.9808 90.8755C52.3165 90.8755 29.8746 90.8471 29.8746 90.8101C29.8746 90.773 52.3034 90.7447 79.9808 90.7447C107.658 90.7447 130.078 90.773 130.078 90.8101Z" fill="#263238"/>
<path d="M126.947 32.5801H33.4802C33.0877 32.5801 32.7695 32.8993 32.7695 33.293V88.3249C32.7695 88.7186 33.0877 89.0377 33.4802 89.0377H126.947C127.339 89.0377 127.657 88.7186 127.657 88.3249V33.293C127.657 32.8993 127.339 32.5801 126.947 32.5801Z" fill="#EBEBEB"/>
<path d="M127.555 89.1206H32.6674L32.7695 36.8006H127.555V89.1206Z" fill="white"/>
<path d="M40.5522 34.7623C40.5535 34.913 40.5101 35.0608 40.4276 35.1867C40.345 35.3127 40.227 35.4112 40.0886 35.4698C39.9501 35.5284 39.7974 35.5444 39.6498 35.5158C39.5022 35.4872 39.3665 35.4153 39.2598 35.3091C39.153 35.203 39.0801 35.0674 39.0503 34.9197C39.0205 34.7719 39.0352 34.6186 39.0924 34.4792C39.1496 34.3398 39.2468 34.2206 39.3717 34.1367C39.4965 34.0528 39.6435 34.008 39.7937 34.008C39.994 34.0074 40.1862 34.0865 40.3284 34.2279C40.4706 34.3693 40.5511 34.5615 40.5522 34.7623Z" fill="#263238"/>
<path d="M35.96 34.7623C35.9613 34.9133 35.9177 35.0613 35.8349 35.1874C35.752 35.3135 35.6336 35.4121 35.4948 35.4705C35.3559 35.5288 35.2029 35.5445 35.0551 35.5153C34.9074 35.4862 34.7716 35.4136 34.6652 35.3068C34.5587 35.2 34.4863 35.0638 34.4573 34.9156C34.4282 34.7674 34.4438 34.6139 34.502 34.4746C34.5602 34.3354 34.6585 34.2166 34.7842 34.1335C34.9099 34.0504 35.0574 34.0067 35.208 34.008C35.4071 34.0092 35.5977 34.089 35.7385 34.2302C35.8793 34.3714 35.9588 34.5626 35.96 34.7623Z" fill="#263238"/>
<path d="M38.1637 34.7623C38.1637 34.9128 38.1193 35.0599 38.0359 35.185C37.9526 35.3101 37.8341 35.4076 37.6955 35.4652C37.5569 35.5228 37.4044 35.5378 37.2573 35.5085C37.1101 35.4791 36.975 35.4067 36.8689 35.3003C36.7628 35.1939 36.6906 35.0583 36.6613 34.9107C36.6321 34.7631 36.6471 34.6102 36.7045 34.4711C36.7619 34.3321 36.8591 34.2133 36.9839 34.1297C37.1086 34.0461 37.2552 34.0015 37.4053 34.0015C37.5049 34.0012 37.6037 34.0207 37.6959 34.0588C37.788 34.0969 37.8717 34.153 37.9422 34.2237C38.0127 34.2944 38.0686 34.3784 38.1066 34.4708C38.1446 34.5632 38.164 34.6623 38.1637 34.7623Z" fill="#263238"/>
<path d="M127.657 84.0673H32.6674V89.1206H127.657V84.0673Z" fill="#263238"/>
<path d="M36.2577 87.1782V87.3395H35.5014V87.2131L35.9078 86.825C36.0078 86.7291 36.0252 86.6681 36.0252 86.607C36.0252 86.5133 35.96 86.4588 35.8339 86.4588C35.7885 86.4563 35.7431 86.4647 35.7015 86.4833C35.66 86.5019 35.6234 86.5301 35.5949 86.5656L35.4601 86.4632C35.5078 86.4064 35.5679 86.3615 35.6358 86.332C35.7037 86.3025 35.7774 86.2892 35.8513 86.2931C36.0686 86.2931 36.2186 86.4043 36.2186 86.5874C36.2172 86.6512 36.2009 86.7138 36.1711 86.7702C36.1413 86.8266 36.0988 86.8753 36.0469 86.9122L35.7731 87.1739L36.2577 87.1782Z" fill="white"/>
<path d="M36.3599 86.6681C36.3599 86.6438 36.3671 86.6202 36.3806 86.6C36.394 86.5799 36.4132 86.5643 36.4355 86.5551C36.4579 86.5459 36.4825 86.5436 36.5061 86.5485C36.5298 86.5534 36.5515 86.5653 36.5684 86.5826C36.5854 86.5999 36.5968 86.6218 36.6012 86.6456C36.6057 86.6695 36.6029 86.6941 36.5934 86.7163C36.5838 86.7386 36.5679 86.7575 36.5476 86.7707C36.5273 86.7838 36.5036 86.7906 36.4794 86.7902C36.4634 86.7905 36.4476 86.7875 36.4328 86.7815C36.418 86.7754 36.4046 86.7664 36.3934 86.755C36.3822 86.7435 36.3735 86.7299 36.3677 86.715C36.362 86.7 36.3593 86.6841 36.3599 86.6681ZM36.3599 87.2283C36.3576 87.2111 36.359 87.1935 36.364 87.1769C36.369 87.1602 36.3775 87.1448 36.3889 87.1317C36.4003 87.1186 36.4144 87.1081 36.4302 87.1009C36.446 87.0937 36.4631 87.09 36.4805 87.09C36.4979 87.09 36.515 87.0937 36.5308 87.1009C36.5466 87.1081 36.5607 87.1186 36.5721 87.1317C36.5835 87.1448 36.592 87.1602 36.597 87.1769C36.602 87.1935 36.6034 87.2111 36.6011 87.2283C36.6034 87.2456 36.602 87.2631 36.597 87.2798C36.592 87.2965 36.5835 87.3119 36.5721 87.325C36.5607 87.3381 36.5466 87.3486 36.5308 87.3558C36.515 87.363 36.4979 87.3667 36.4805 87.3667C36.4631 87.3667 36.446 87.363 36.4302 87.3558C36.4144 87.3486 36.4003 87.3381 36.3889 87.325C36.3775 87.3119 36.369 87.2965 36.364 87.2798C36.359 87.2631 36.3576 87.2456 36.3599 87.2283Z" fill="white"/>
<path d="M37.0771 86.3106V87.3395H36.888V86.4675H36.6707V86.3062L37.0771 86.3106Z" fill="white"/>
<path d="M38.1963 87.1062H38.0138V87.3395H37.829V87.1062H37.2661V86.982L37.7725 86.328H37.9768L37.4987 86.9624H37.8356V86.7553H38.0138V86.9624H38.1963V87.1062Z" fill="white"/>
<path d="M117.729 86.6942H39.872V87.0496H117.729V86.6942Z" fill="white"/>
<path d="M64.1438 86.3127H39.8133V87.2632H64.1438V86.3127Z" fill="#005F31"/>
<path d="M64.9305 86.873C64.9305 87.108 64.8611 87.3377 64.7309 87.5331C64.6008 87.7284 64.4158 87.8807 64.1993 87.9707C63.9829 88.0606 63.7447 88.0841 63.515 88.0383C63.2852 87.9924 63.0742 87.8793 62.9085 87.7131C62.7429 87.5469 62.63 87.3352 62.5843 87.1048C62.5386 86.8743 62.5621 86.6354 62.6517 86.4183C62.7414 86.2012 62.8932 86.0157 63.088 85.8851C63.2828 85.7546 63.5118 85.6849 63.7461 85.6849C64.0602 85.6849 64.3615 85.8101 64.5836 86.0329C64.8057 86.2557 64.9305 86.5579 64.9305 86.873Z" fill="#005F31"/>
<path d="M119.69 86.8621C119.689 86.9096 119.679 86.9564 119.66 86.9997C119.64 87.043 119.612 87.0818 119.577 87.1136C119.542 87.1453 119.5 87.1694 119.456 87.1843C119.411 87.1992 119.363 87.2045 119.316 87.2C119.036 87.2 118.881 87.0191 118.881 86.6877C118.873 86.6173 118.88 86.5459 118.901 86.4784C118.923 86.4109 118.959 86.349 119.007 86.2969C119.055 86.2449 119.114 86.2039 119.179 86.1769C119.244 86.1499 119.315 86.1375 119.386 86.1405C119.48 86.1382 119.573 86.1616 119.655 86.2081L119.583 86.352C119.525 86.3162 119.458 86.2987 119.39 86.3018C119.196 86.3018 119.075 86.4217 119.075 86.655C119.11 86.6182 119.153 86.5896 119.2 86.5712C119.247 86.5527 119.298 86.5449 119.349 86.5482C119.392 86.5452 119.435 86.5511 119.476 86.5655C119.517 86.5798 119.554 86.6024 119.586 86.6317C119.618 86.6611 119.644 86.6967 119.662 86.7363C119.679 86.7759 119.689 86.8187 119.69 86.8621ZM119.505 86.8621C119.505 86.7553 119.425 86.6877 119.301 86.6877C119.275 86.6834 119.248 86.6846 119.222 86.6914C119.197 86.6982 119.173 86.7103 119.153 86.727C119.132 86.7437 119.115 86.7645 119.103 86.7882C119.091 86.8119 119.085 86.8378 119.083 86.8643C119.083 86.9602 119.16 87.0365 119.301 87.0365C119.325 87.0405 119.35 87.0393 119.374 87.033C119.398 87.0266 119.421 87.0152 119.44 86.9996C119.459 86.9839 119.475 86.9644 119.486 86.9422C119.497 86.92 119.504 86.8957 119.505 86.8708V86.8621Z" fill="white"/>
<path d="M119.783 86.5089C119.781 86.4917 119.782 86.4741 119.787 86.4575C119.792 86.4408 119.801 86.4254 119.812 86.4123C119.824 86.3992 119.838 86.3887 119.854 86.3815C119.869 86.3743 119.887 86.3706 119.904 86.3706C119.921 86.3706 119.938 86.3743 119.954 86.3815C119.97 86.3887 119.984 86.3992 119.996 86.4123C120.007 86.4254 120.015 86.4408 120.02 86.4575C120.025 86.4741 120.027 86.4917 120.025 86.5089C120.027 86.5262 120.025 86.5437 120.02 86.5604C120.015 86.5771 120.007 86.5925 119.996 86.6056C119.984 86.6187 119.97 86.6292 119.954 86.6364C119.938 86.6436 119.921 86.6473 119.904 86.6473C119.887 86.6473 119.869 86.6436 119.854 86.6364C119.838 86.6292 119.824 86.6187 119.812 86.6056C119.801 86.5925 119.792 86.5771 119.787 86.5604C119.782 86.5437 119.781 86.5262 119.783 86.5089ZM119.783 87.0692C119.781 87.052 119.782 87.0344 119.787 87.0177C119.792 87.0011 119.801 86.9857 119.812 86.9726C119.824 86.9595 119.838 86.949 119.854 86.9418C119.869 86.9346 119.887 86.9308 119.904 86.9308C119.921 86.9308 119.938 86.9346 119.954 86.9418C119.97 86.949 119.984 86.9595 119.996 86.9726C120.007 86.9857 120.015 87.0011 120.02 87.0177C120.025 87.0344 120.027 87.052 120.025 87.0692C120.027 87.0865 120.025 87.104 120.02 87.1207C120.015 87.1373 120.007 87.1527 119.996 87.1658C119.984 87.1789 119.97 87.1895 119.954 87.1966C119.938 87.2038 119.921 87.2076 119.904 87.2076C119.887 87.2076 119.869 87.2038 119.854 87.1966C119.838 87.1895 119.824 87.1789 119.812 87.1658C119.801 87.1527 119.792 87.1373 119.787 87.1207C119.782 87.104 119.781 87.0865 119.783 87.0692Z" fill="white"/>
<path d="M120.146 86.6659C120.146 86.328 120.331 86.1362 120.581 86.1362C120.831 86.1362 121.016 86.328 121.016 86.6659C121.016 87.0038 120.831 87.1956 120.581 87.1956C120.331 87.1956 120.146 87.0038 120.146 86.6659ZM120.811 86.6659C120.811 86.4174 120.716 86.304 120.574 86.304C120.433 86.304 120.337 86.4174 120.337 86.6659C120.337 86.9144 120.435 87.03 120.574 87.03C120.713 87.03 120.811 86.9144 120.811 86.6659Z" fill="white"/>
<path d="M121.131 86.6659C121.131 86.328 121.315 86.1362 121.565 86.1362C121.815 86.1362 122 86.328 122 86.6659C122 87.0038 121.815 87.1956 121.565 87.1956C121.315 87.1956 121.131 87.0038 121.131 86.6659ZM121.798 86.6659C121.798 86.4174 121.7 86.304 121.559 86.304C121.418 86.304 121.324 86.4174 121.324 86.6659C121.324 86.9144 121.42 87.03 121.559 87.03C121.698 87.03 121.798 86.9144 121.798 86.6659Z" fill="white"/>
<path d="M123.647 86.6027H123.291V85.5759H124.315V85.9312H123.647V86.6027Z" fill="white"/>
<path d="M124.315 87.9412H123.291V86.9166H123.645V87.5859H124.315V87.9412Z" fill="white"/>
<path d="M125.945 87.9412H124.923V87.5859H125.588V86.9144H125.945V87.9412Z" fill="white"/>
<path d="M125.945 86.6005H125.59V85.9312H124.921V85.5759H125.945V86.6005Z" fill="white"/>
<path d="M45.6813 39.9114H40.0871L37.2922 44.7707L40.0871 49.6277H45.6813L48.4762 44.7707L45.6813 39.9114Z" fill="#EBEBEB"/>
<path d="M40.5435 45.7211C40.2835 45.4529 40.0545 45.156 39.8611 44.8361C39.6661 44.5131 39.5843 44.1341 39.6286 43.7591C39.6872 43.549 39.7344 43.3357 39.7698 43.1204C39.7916 42.8196 39.6655 42.5056 39.7698 42.2244C39.935 41.7884 40.524 41.7165 40.8826 41.4135C41.1608 41.1758 41.2977 40.7922 41.6041 40.5938C41.8887 40.4426 42.2176 40.3978 42.5321 40.4673C42.8433 40.5393 43.163 40.5671 43.4819 40.5502C43.7022 40.5029 43.9198 40.4439 44.1339 40.3736C44.3492 40.3057 44.5821 40.322 44.7859 40.4194C44.8854 40.4739 44.9598 40.5653 44.9931 40.674C45.0264 40.7828 45.016 40.9003 44.9641 41.0014C45.3314 40.8314 45.7965 41.1192 45.8965 41.5094C45.9348 41.7091 45.9166 41.9156 45.844 42.1056C45.7714 42.2955 45.6473 42.4613 45.4857 42.5841C45.1605 42.8271 44.7791 42.9831 44.3773 43.0376C43.2537 43.2556 42.0366 43.1313 41.0695 42.5209" fill="#263238"/>
<path d="M45.7291 46.9201C45.6922 46.2247 45.4988 44.799 45.3075 43.5106C45.2086 42.8432 44.8632 42.2374 44.3399 41.8134C43.8166 41.3894 43.1535 41.1782 42.4822 41.2216H42.3431C40.8565 41.4091 40.1849 42.7803 40.4131 44.2736L40.8478 49.6255H44.4773C44.4773 49.6255 44.3904 48.6859 44.3904 48.6772C44.3904 48.6685 45.8074 48.3589 45.7291 46.9201Z" fill="#FFBE9D"/>
<path d="M44.3882 48.6598C43.7266 48.7156 43.0634 48.5738 42.4821 48.2521C42.4821 48.2521 42.9951 49.2571 44.4164 49.0326L44.3882 48.6598Z" fill="#EB996E"/>
<path d="M44.8446 44.7445C44.8488 44.7976 44.832 44.8503 44.7979 44.8911C44.7637 44.9319 44.7149 44.9575 44.662 44.9625C44.6366 44.9659 44.6107 44.9641 44.586 44.9573C44.5612 44.9506 44.5381 44.9389 44.5179 44.9231C44.4976 44.9073 44.4807 44.8876 44.4682 44.8652C44.4556 44.8427 44.4476 44.818 44.4447 44.7925C44.441 44.7395 44.458 44.6871 44.492 44.6465C44.5261 44.6058 44.5746 44.58 44.6272 44.5745C44.6527 44.5711 44.6785 44.5729 44.7033 44.5796C44.728 44.5864 44.7512 44.598 44.7714 44.6138C44.7916 44.6297 44.8085 44.6494 44.8211 44.6718C44.8336 44.6942 44.8416 44.7189 44.8446 44.7445Z" fill="#263238"/>
<path d="M45.0467 44.2344C45.0228 44.2627 44.8598 44.1581 44.6381 44.1733C44.4164 44.1886 44.2643 44.3107 44.2382 44.2845C44.2121 44.2584 44.2382 44.2235 44.3164 44.1668C44.4074 44.0947 44.5181 44.0521 44.6337 44.0447C44.7485 44.0364 44.8628 44.0655 44.9597 44.1276C45.0315 44.1755 45.0576 44.2213 45.0467 44.2344Z" fill="#263238"/>
<path d="M42.7625 44.8949C42.7632 44.9472 42.7451 44.9979 42.7116 45.0379C42.6781 45.0779 42.6314 45.1046 42.58 45.1129C42.5285 45.1185 42.4769 45.1035 42.4362 45.0713C42.3956 45.0391 42.3692 44.9922 42.3626 44.9407C42.362 44.8884 42.38 44.8377 42.4135 44.7977C42.447 44.7577 42.4938 44.7311 42.5452 44.7227C42.5967 44.7171 42.6483 44.7321 42.6889 44.7643C42.7296 44.7965 42.756 44.8434 42.7625 44.8949Z" fill="#263238"/>
<path d="M42.882 44.4219C42.8581 44.4502 42.6951 44.3456 42.4735 44.3608C42.2518 44.3761 42.0996 44.496 42.0736 44.472C42.0475 44.448 42.0736 44.411 42.1518 44.3543C42.2428 44.2805 42.3544 44.2369 42.4712 44.2295C42.588 44.2221 42.7042 44.2512 42.8038 44.3129C42.8668 44.3608 42.8929 44.4088 42.882 44.4219Z" fill="#263238"/>
<path d="M43.7905 45.998C43.9043 45.9533 44.0234 45.9232 44.1448 45.9086C44.2013 45.9086 44.2534 45.8846 44.2599 45.8454C44.2608 45.7873 44.2442 45.7303 44.2121 45.6819L44.0165 45.2633C43.8385 44.9123 43.6881 44.5479 43.5667 44.1733C43.7739 44.5121 43.9535 44.8671 44.1035 45.235C44.1687 45.3811 44.2317 45.5228 44.2925 45.6557C44.3305 45.7216 44.3458 45.7983 44.336 45.8737C44.3289 45.8941 44.3174 45.9126 44.3024 45.9281C44.2874 45.9435 44.2692 45.9555 44.2491 45.9631C44.218 45.9732 44.186 45.9798 44.1534 45.9827C44.0336 46.0033 43.9116 46.0085 43.7905 45.998Z" fill="#263238"/>
<path d="M42.8799 43.5499C42.8625 43.6109 42.6408 43.5978 42.3844 43.648C42.1279 43.6981 41.9236 43.7809 41.8845 43.7286C41.8454 43.6763 41.9019 43.6458 41.9823 43.5804C42.0893 43.5007 42.2137 43.4476 42.3452 43.4256C42.476 43.3998 42.6111 43.4065 42.7386 43.4452C42.8364 43.4779 42.8886 43.5215 42.8799 43.5499Z" fill="#263238"/>
<path d="M44.9228 43.6C44.8858 43.6523 44.7315 43.6109 44.549 43.6196C44.3664 43.6283 44.2143 43.6763 44.1752 43.6196C44.136 43.5629 44.1752 43.5433 44.2425 43.491C44.3286 43.4263 44.4328 43.3904 44.5403 43.3885C44.6475 43.3838 44.7537 43.4119 44.8446 43.4692C44.9119 43.5237 44.938 43.5738 44.9228 43.6Z" fill="#263238"/>
<path d="M40.5979 45.344C40.5718 45.344 39.5916 45.126 39.6894 46.1005C39.7872 47.0749 40.8478 46.7545 40.8456 46.7327C40.8435 46.7109 40.5979 45.344 40.5979 45.344Z" fill="#FFBE9D"/>
<path d="M40.411 46.4013C40.411 46.4013 40.3958 46.4144 40.3697 46.4296C40.3305 46.4513 40.2845 46.4568 40.2414 46.4449C40.1742 46.4112 40.1173 46.36 40.0764 46.2968C40.0355 46.2336 40.0122 46.1605 40.0089 46.0852C39.9976 46.0016 40.0058 45.9166 40.0328 45.8367C40.0384 45.8047 40.0519 45.7746 40.072 45.7491C40.0921 45.7236 40.1182 45.7035 40.148 45.6906C40.167 45.6841 40.1876 45.6842 40.2066 45.6909C40.2255 45.6977 40.2416 45.7106 40.2523 45.7277C40.2697 45.7538 40.2654 45.7756 40.2697 45.7756C40.274 45.7756 40.2893 45.7582 40.2697 45.7168C40.2618 45.6936 40.2465 45.6737 40.2262 45.6601C40.2119 45.651 40.1957 45.6449 40.1789 45.6423C40.1621 45.6396 40.1449 45.6405 40.1284 45.6448C40.0893 45.6573 40.0538 45.6793 40.0253 45.709C39.9968 45.7387 39.9763 45.7751 39.9654 45.8149C39.9328 45.904 39.9224 45.9998 39.935 46.0939C39.9374 46.1819 39.9663 46.2671 40.0179 46.3383C40.0695 46.4095 40.1414 46.4634 40.2241 46.4929C40.2512 46.4978 40.2792 46.4967 40.3058 46.4895C40.3325 46.4824 40.3573 46.4694 40.3784 46.4514C40.424 46.434 40.424 46.4013 40.411 46.4013Z" fill="#EB996E"/>
<path d="M45.2358 42.1656C45.1684 42.5558 44.3773 42.9155 43.7144 42.8959C43.1103 42.8784 42.8103 42.5776 42.3735 42.3639C42.0953 42.2288 42.0953 42.2288 41.7215 42.2898C41.4172 42.34 41.2586 42.6997 41.0891 42.9591C41.4151 43.6719 41.2825 44.5003 41.1434 45.2721C41.138 45.3587 41.1036 45.4409 41.0456 45.5053C40.983 45.5439 40.9088 45.5592 40.8361 45.5484C40.7633 45.5377 40.6967 45.5016 40.6479 45.4465C40.4871 45.2729 40.3799 45.0564 40.3393 44.823C40.2024 44.3019 40.1699 43.7588 40.2436 43.225C40.3157 42.6911 40.5424 42.19 40.8956 41.7841C41.3613 41.2917 41.9996 41.0001 42.6756 40.9709C43.3487 40.946 44.0126 41.1344 44.5729 41.5094C44.8402 41.6707 45.0641 41.8953 45.2249 42.1634" fill="#263238"/>
<path d="M43.9361 46.5038L43.4362 46.2705C43.4085 46.2547 43.3768 46.2471 43.345 46.2487C43.3101 46.2565 43.2797 46.2776 43.2602 46.3076C43.2016 46.3775 43.1649 46.4632 43.1549 46.554C43.1448 46.6448 43.1618 46.7366 43.2037 46.8177C43.2493 46.8971 43.3213 46.9579 43.4072 46.9894C43.493 47.0209 43.5872 47.0211 43.6731 46.9899C43.7571 46.9436 43.8271 46.8754 43.8757 46.7925C43.9243 46.7097 43.9496 46.6152 43.9491 46.519L43.9361 46.5038Z" fill="#EB996E"/>
<path d="M43.684 47.027C43.684 47.027 43.5797 47.1076 43.3906 47.0531C43.2802 47.0155 43.1879 46.9377 43.132 46.8351C43.0964 46.7736 43.0751 46.7048 43.0694 46.6339C43.0638 46.563 43.074 46.4917 43.0994 46.4253C43.1259 46.356 43.1675 46.2934 43.2211 46.2422C43.2471 46.2182 43.2755 46.197 43.3058 46.1789C43.3259 46.1682 43.3483 46.1627 43.371 46.1627C43.3938 46.1627 43.4162 46.1682 43.4362 46.1789C43.5514 46.2422 43.6275 46.2967 43.7036 46.3446C43.8492 46.4427 43.9361 46.5103 43.9209 46.5234C43.9057 46.5365 43.8122 46.495 43.6557 46.4144L43.3884 46.2749C43.3689 46.2749 43.371 46.2749 43.3493 46.2749C43.3275 46.2896 43.3071 46.3064 43.2885 46.325C43.2475 46.3654 43.2163 46.4146 43.1972 46.4689C43.1777 46.5202 43.1692 46.575 43.1722 46.6299C43.1752 46.6847 43.1896 46.7383 43.2146 46.7872C43.2569 46.8694 43.3259 46.9348 43.4102 46.9725C43.5732 47.0422 43.684 47.0073 43.684 47.027Z" fill="#263238"/>
<path d="M43.5297 44.7685C43.5297 44.7685 43.5297 44.6791 43.4776 44.5243C43.4146 44.3083 43.2825 44.1191 43.1016 43.9859C42.9567 43.8778 42.7848 43.8123 42.605 43.7966C42.4252 43.7809 42.2446 43.8156 42.0834 43.8969C41.9221 43.9782 41.7865 44.1029 41.6918 44.257C41.5971 44.4111 41.5469 44.5885 41.5469 44.7696C41.5469 44.9506 41.5971 45.1281 41.6918 45.2822C41.7865 45.4363 41.9221 45.5609 42.0834 45.6422C42.2446 45.7235 42.4252 45.7582 42.605 45.7425C42.7848 45.7268 42.9567 45.6613 43.1016 45.5533C43.2825 45.4201 43.4146 45.2309 43.4776 45.0148C43.521 44.86 43.5188 44.7685 43.5297 44.7685C43.5406 44.7685 43.5297 44.7925 43.5297 44.8361C43.5311 44.8999 43.5245 44.9636 43.5101 45.0257C43.4613 45.26 43.3311 45.4694 43.1429 45.6165C43.0021 45.7267 42.836 45.7996 42.6597 45.8286C42.4835 45.8575 42.3029 45.8416 42.1344 45.7822C41.926 45.7078 41.7456 45.5706 41.618 45.3893C41.4905 45.208 41.422 44.9915 41.422 44.7696C41.422 44.5477 41.4905 44.3312 41.618 44.1499C41.7456 43.9686 41.926 43.8313 42.1344 43.757C42.3029 43.6976 42.4835 43.6816 42.6597 43.7105C42.836 43.7395 43.0021 43.8124 43.1429 43.9226C43.3311 44.0698 43.4613 44.2791 43.5101 44.5134C43.5246 44.5756 43.5312 44.6393 43.5297 44.7031C43.5362 44.7467 43.5341 44.7685 43.5297 44.7685Z" fill="#263238"/>
<path d="M45.9703 44.6726C45.9595 44.6726 45.9703 44.5854 45.9182 44.4349C45.8573 44.2249 45.7289 44.041 45.5531 43.9117C45.4121 43.8067 45.2448 43.743 45.0699 43.7278C44.8949 43.7126 44.7192 43.7464 44.5623 43.8256C44.4054 43.9047 44.2735 44.026 44.1814 44.176C44.0892 44.3259 44.0404 44.4986 44.0404 44.6747C44.0404 44.8509 44.0892 45.0236 44.1814 45.1735C44.2735 45.3234 44.4054 45.4448 44.5623 45.5239C44.7192 45.603 44.8949 45.6369 45.0699 45.6217C45.2448 45.6064 45.4121 45.5428 45.5531 45.4377C45.7289 45.3085 45.8573 45.1245 45.9182 44.9145C45.9616 44.7641 45.9595 44.6747 45.9703 44.6747C45.9812 44.6747 45.9703 44.6965 45.9703 44.7401C45.9715 44.8024 45.9657 44.8645 45.953 44.9254C45.9044 45.1535 45.7775 45.3572 45.5944 45.501C45.457 45.6087 45.2948 45.68 45.1227 45.7082C44.9506 45.7364 44.7742 45.7206 44.6098 45.6623C44.4068 45.5896 44.2311 45.4556 44.1068 45.2788C43.9826 45.102 43.9159 44.891 43.9159 44.6747C43.9159 44.4584 43.9826 44.2474 44.1068 44.0706C44.2311 43.8938 44.4068 43.7599 44.6098 43.6872C44.7742 43.6289 44.9506 43.6131 45.1227 43.6413C45.2948 43.6695 45.457 43.7407 45.5944 43.8485C45.7776 43.993 45.9046 44.1975 45.953 44.4262C45.9659 44.4871 45.9717 44.5493 45.9703 44.6115C45.9769 44.6508 45.9747 44.6726 45.9703 44.6726Z" fill="#263238"/>
<path d="M43.9796 44.448C43.9579 44.4676 43.8601 44.4044 43.7297 44.4088C43.5993 44.4131 43.5123 44.4764 43.4819 44.4567C43.4515 44.4371 43.5427 44.2998 43.7275 44.2954C43.9122 44.2911 44.0078 44.4306 43.9796 44.448Z" fill="#263238"/>
<path d="M41.5476 44.6246C41.5672 44.6486 41.3759 44.823 41.1238 45.0126C40.9812 45.1431 40.8143 45.2439 40.6326 45.3091C40.6131 45.2851 40.8043 45.1107 41.0564 44.9211C41.1986 44.7902 41.3657 44.6893 41.5476 44.6246Z" fill="#263238"/>
<path d="M61.7227 44.7205C61.7227 44.751 59.2081 44.7772 56.1068 44.7772C53.0054 44.7772 50.4909 44.751 50.4909 44.7205C50.4909 44.69 53.0054 44.6638 56.1068 44.6638C59.2081 44.6638 61.7227 44.69 61.7227 44.7205Z" fill="#263238"/>
<path d="M56.5262 45.8999C56.5262 45.9304 55.1918 45.9566 53.5444 45.9566C51.897 45.9566 50.5626 45.9304 50.5626 45.8999C50.5626 45.8694 51.897 45.841 53.5444 45.841C55.1918 45.841 56.5262 45.8672 56.5262 45.8999Z" fill="#263238"/>
<path d="M95.3637 53.4296C96.3476 53.9909 97.2106 54.7423 97.903 55.6403C98.5954 56.5384 99.1034 57.5653 99.3974 58.6616C100.447 62.4287 103.657 72.2387 103.657 72.2387C103.657 72.2387 105.491 74.4034 105.687 76.0057C105.883 77.608 105.491 81.4862 104.9 82.21C104.729 82.42 104.509 82.5848 104.26 82.69C104.011 82.7953 103.74 82.8378 103.47 82.8138L95.7484 82.0792L92.7057 61.6569L95.3637 53.4296Z" fill="#005F31"/>
<path d="M69.8314 53.0743C69.8314 53.0743 64.3089 54.8183 62.9332 56.3225L67.4538 77.4162L67.3733 84.0739H93.5577C93.5577 83.7447 93.7924 61.973 93.7924 61.973L95.3637 53.4296L86.064 51.7881L84.2297 50.3406L73.8781 50.8681L72.3046 52.4443L69.8314 53.0743Z" fill="#005F31"/>
<g opacity="0.3">
<path d="M71.9373 71.3754C71.8569 71.1966 71.7396 71.0026 71.5483 70.9634C71.2332 70.898 71.0224 71.2707 70.9159 71.5759C70.081 73.9672 68.9242 76.2329 67.4777 78.31L67.4103 81.5494C68.9316 80.2611 70.4399 78.8811 71.4136 77.1349C72.3872 75.3888 72.7502 73.1979 71.9373 71.3754Z" fill="black"/>
</g>
<path d="M62.9332 56.3225C62.9332 56.3225 61.1141 58.8099 60.36 60.434C59.6058 62.0581 53.3445 75.694 52.9707 77.1044C52.5968 78.5149 51.6232 82.949 54.4811 83.978H60.3643L66.2671 72.0032L66.5692 58.1057L62.9332 56.3225Z" fill="#005F31"/>
<path d="M60.736 75.3277C60.736 75.3277 60.6056 75.2122 60.3339 75.0574C59.9461 74.8488 59.5304 74.6976 59.0994 74.6083C58.8032 74.5432 58.5024 74.5009 58.1997 74.4819C57.8509 74.4555 57.5002 74.4805 57.1587 74.556C56.3855 74.7552 55.6935 75.191 55.1788 75.803C54.6554 76.4081 54.2724 77.1221 54.0573 77.8936C53.8798 78.5242 53.7619 79.1701 53.7052 79.8229C53.6487 80.381 53.6292 80.8366 53.6096 81.1483C53.6096 81.2966 53.5922 81.4165 53.5879 81.5102C53.588 81.553 53.5821 81.5955 53.5705 81.6367C53.5677 81.5946 53.5677 81.5523 53.5705 81.5102C53.5705 81.4143 53.5705 81.2922 53.5705 81.1483C53.5705 80.8322 53.5835 80.3788 53.6292 79.8164C53.6751 79.1529 53.7865 78.4957 53.9617 77.8544C54.1752 77.0654 54.5638 76.3351 55.0983 75.7179C55.6291 75.0889 56.3439 74.6435 57.1413 74.4448C57.4899 74.372 57.8474 74.3522 58.2019 74.386C58.5087 74.4086 58.8132 74.456 59.1125 74.5277C59.5482 74.6248 59.9662 74.7896 60.3513 75.016C60.455 75.0803 60.5532 75.1532 60.6447 75.234C60.6783 75.2619 60.7089 75.2933 60.736 75.3277Z" fill="#263238"/>
<path d="M57.9476 72.9428C58.0119 72.924 58.0784 72.9137 58.1454 72.9123C58.3269 72.8981 58.5093 72.8981 58.6909 72.9123C58.9612 72.9282 59.2296 72.9683 59.4928 73.0322C60.1405 73.1892 60.7482 73.4803 61.2771 73.8867C61.4926 74.0512 61.6927 74.2351 61.8748 74.4361C61.9983 74.5724 62.1109 74.7182 62.2117 74.8721C62.2527 74.9254 62.2863 74.9841 62.3117 75.0465C62.2943 75.0596 62.1334 74.8285 61.8161 74.4971C61.6287 74.3087 61.4274 74.1345 61.2141 73.9761C60.9514 73.7843 60.6721 73.6165 60.3796 73.4747C60.0853 73.3371 59.78 73.2248 59.4668 73.139C59.2099 73.0726 58.9483 73.026 58.6844 72.9995C58.2323 72.9406 57.9476 72.9646 57.9476 72.9428Z" fill="#263238"/>
<path d="M63.2636 72.2866C63.1726 72.2903 63.0814 72.2838 62.9919 72.267C62.818 72.2452 62.5681 72.219 62.2551 72.1951C60.6298 72.0735 58.9964 72.2697 57.4456 72.7728C57.1478 72.8687 56.9087 72.9537 56.7457 73.0169C56.6626 73.0538 56.5759 73.0823 56.4871 73.1019C56.5619 73.0498 56.643 73.0073 56.7284 72.9755C56.887 72.8992 57.1239 72.8033 57.4195 72.6965C58.9714 72.1452 60.6262 71.9472 62.2638 72.1166C62.5746 72.1493 62.8267 72.1863 62.9984 72.2234C63.0886 72.2359 63.1774 72.2571 63.2636 72.2866Z" fill="#263238"/>
<path d="M80.0178 60.6345C79.994 60.6138 79.9734 60.5895 79.9569 60.5626L79.7961 60.3446L79.205 59.5249C78.6986 58.8055 77.9901 57.8027 77.1577 56.6255L77.249 56.6124C76.9317 57.5455 76.5818 58.5744 76.2145 59.6644L76.1906 59.732L76.1297 59.6928L76.008 59.6143C75.5345 59.3102 75.1039 58.9436 74.7279 58.5243C74.3804 58.1339 74.0738 57.7088 73.8129 57.2555C73.3787 56.4886 73.0407 55.6707 72.8067 54.8205C72.6495 54.2462 72.5226 53.6641 72.4263 53.0765C72.3916 52.8803 72.3655 52.7211 72.3438 52.6012C72.3376 52.5606 72.3282 52.5205 72.3155 52.4813C72.3155 52.4552 72.3003 52.4421 72.3025 52.4399C72.3046 52.4377 72.3916 52.6579 72.4698 53.0699C72.548 53.482 72.6719 54.0749 72.8849 54.7921C73.1256 55.6344 73.4679 56.4441 73.9042 57.2032C74.1644 57.648 74.468 58.0657 74.8105 58.4502C75.18 58.8594 75.6025 59.2172 76.0667 59.514L76.1862 59.5925L76.1036 59.623C76.4753 58.533 76.8273 57.5106 77.149 56.571L77.1816 56.4751L77.2403 56.5579C78.0574 57.746 78.7616 58.7576 79.255 59.4813C79.4918 59.8345 79.6896 60.1157 79.8222 60.3206L79.9678 60.5386C79.9878 60.5687 80.0045 60.6009 80.0178 60.6345Z" fill="#263238"/>
<g opacity="0.3">
<path d="M86.8312 70.7039C86.5968 73.1637 87.1283 75.636 88.3525 77.7802C89.5696 79.9036 91.3561 81.798 93.5794 82.8139C93.6511 80.6491 93.5468 78.0985 93.6185 75.9338L86.8312 70.7039Z" fill="black"/>
</g>
<path d="M86.5856 67.8547C86.5856 67.8547 85.6337 68.1185 86.3465 70.0739C87.0594 72.0294 87.2985 71.9095 87.7744 73.7363C88.2504 75.5631 88.8046 77.2243 89.6348 78.2663C90.465 79.3084 93.5577 81.4056 93.5577 81.4056L96.3308 78.7896C96.3308 78.7896 95.8744 76.8275 95.9831 75.5065C96.0918 74.1854 96.37 70.9285 96.3308 70.3638C96.2917 69.7992 95.6962 68.4563 95.6962 68.4563V67.532L94.2705 63.1328C94.2705 63.1328 93.4772 62.7753 93.2012 64.0462L92.7253 62.6968C92.7253 62.6968 91.9733 62.5769 91.7755 64.1269C91.5778 65.6769 91.9342 67.822 91.9342 67.822L91.5365 70.523L90.9431 72.352L90.4281 72.4305C90.4281 72.4305 89.6522 72.2125 89.2284 70.7541C88.8046 69.2957 87.6549 67.5364 86.5856 67.8547Z" fill="#FFBE9D"/>
<path d="M95.4093 74.774C95.4093 74.774 95.4093 74.7413 95.3963 74.6759C95.3832 74.6105 95.3832 74.5037 95.3767 74.3838C95.3615 74.1178 95.3419 73.7494 95.318 73.2938C95.2746 72.3455 95.2159 71.0244 95.1464 69.4832L95.1572 69.5159C95.0862 69.442 94.9964 69.3892 94.8975 69.363C94.7987 69.3369 94.6945 69.3385 94.5965 69.3676C94.4902 69.3935 94.3901 69.4404 94.302 69.5055C94.2139 69.5706 94.1397 69.6527 94.0836 69.7469C93.8402 70.1372 93.8271 70.6473 93.7511 71.1378C93.6011 72.2518 93.4577 73.3178 93.3273 74.2792C93.2621 74.7631 93.1925 75.2209 93.0991 75.646C93.0111 76.0402 92.8956 76.4278 92.7535 76.8058C92.6318 77.1524 92.5231 77.4598 92.4558 77.7497C92.3957 77.9884 92.3657 78.2338 92.3667 78.48C92.3743 78.6918 92.4109 78.9016 92.4753 79.1035C92.4493 79.0546 92.4274 79.0035 92.4101 78.9509C92.3586 78.7997 92.3293 78.6418 92.3232 78.4822C92.3129 78.2294 92.337 77.9763 92.3949 77.7301C92.4711 77.4065 92.5662 77.0877 92.6796 76.7752C92.814 76.3986 92.9229 76.0134 93.0056 75.622C93.0947 75.2013 93.1621 74.75 93.223 74.2617C93.349 73.2938 93.4903 72.2343 93.6381 71.1182C93.6728 70.8718 93.6989 70.6255 93.7424 70.3813C93.778 70.1345 93.8606 69.897 93.9858 69.6815C94.0505 69.5757 94.1355 69.4839 94.2358 69.4113C94.3362 69.3387 94.4499 69.2868 94.5704 69.2586C94.6876 69.2233 94.8122 69.2217 94.9302 69.2541C95.0482 69.2865 95.1547 69.3515 95.2376 69.4417L95.2485 69.457V69.4744C95.3028 71.0157 95.3485 72.3368 95.3811 73.2872C95.3811 73.7472 95.4006 74.1156 95.4093 74.3772C95.4093 74.4971 95.4093 74.5952 95.4093 74.6694C95.413 74.7041 95.413 74.7392 95.4093 74.774Z" fill="#EB996E"/>
<path d="M93.888 69.76C93.8386 69.6825 93.7991 69.599 93.7706 69.5115C93.6798 69.2792 93.6022 69.0419 93.5381 68.8008C93.4449 68.443 93.3788 68.0786 93.3403 67.7108C93.3135 67.4938 93.3091 67.2747 93.3273 67.0568C93.3475 66.8133 93.4298 66.579 93.5664 66.3767C93.6882 66.1952 93.8673 66.0601 94.0749 65.993L94.1162 65.9821L94.1379 66.0191C94.54 66.7298 94.8899 67.3576 95.1333 67.8089L95.418 68.343C95.457 68.4056 95.4877 68.473 95.5093 68.5436C95.4607 68.4882 95.4184 68.4275 95.3833 68.3626L95.0703 67.846C94.8095 67.41 94.4466 66.7843 94.0423 66.0758L94.1053 66.102C93.9235 66.1629 93.7669 66.2825 93.6598 66.442C93.5347 66.6291 93.4598 66.8453 93.4425 67.0699C93.4207 67.283 93.4207 67.4977 93.4425 67.7108C93.4752 68.0776 93.5326 68.4418 93.6142 68.8008C93.6837 69.106 93.7598 69.3502 93.8098 69.518C93.8438 69.5959 93.87 69.6769 93.888 69.76Z" fill="#EB996E"/>
<path d="M93.223 70.1175C93.2036 70.0339 93.1948 69.9482 93.1969 69.8625C93.1969 69.675 93.1795 69.4439 93.1686 69.1714C93.1512 68.5872 93.1317 67.7806 93.1208 66.8889C93.0883 66.1266 93.1 65.3631 93.1556 64.6021C93.1828 64.3711 93.2323 64.1434 93.3034 63.922C93.3244 63.8384 93.3589 63.7589 93.4055 63.6865C93.3257 63.99 93.2683 64.2989 93.2338 64.6108C93.1795 65.1885 93.2338 65.9951 93.2338 66.8868C93.2338 67.7784 93.2512 68.585 93.249 69.1692C93.249 69.4439 93.249 69.675 93.249 69.8625C93.2497 69.9482 93.2409 70.0337 93.223 70.1175Z" fill="#EB996E"/>
<path d="M90.8779 77.4445C90.8627 77.4314 91.0366 77.2265 91.2496 76.8537C91.3745 76.6363 91.4827 76.4096 91.5734 76.1757C91.6801 75.888 91.7629 75.592 91.8212 75.2907C91.872 74.9881 91.8974 74.6819 91.8972 74.3751C91.8939 74.1246 91.8721 73.8746 91.832 73.6273C91.7603 73.2022 91.669 72.9494 91.6886 72.9428C91.7229 72.9961 91.7492 73.0541 91.7668 73.115C91.8282 73.2765 91.8762 73.4427 91.9103 73.6121C91.9635 73.8624 91.994 74.117 92.0016 74.3729C92.0206 75.0035 91.9073 75.6311 91.669 76.215C91.573 76.4518 91.4559 76.6794 91.3191 76.8952C91.2285 77.0414 91.126 77.18 91.0127 77.3093C90.9323 77.4009 90.8845 77.4489 90.8779 77.4445Z" fill="#EB996E"/>
<path d="M95.7462 76.082L98.1521 76.9191C98.1521 76.9191 100.451 75.7267 102.036 76.9191C103.62 78.1116 104.996 81.253 104.561 82.5239C104.561 82.5239 103.475 83.8799 102.636 84.0782C101.797 84.2766 98.5694 83.4896 97.2241 83.2062C95.8788 82.9228 93.5577 81.4099 93.5577 81.4099L95.7462 76.082Z" fill="#FFBE9D"/>
<path d="M96.0418 79.6332C96.0249 79.5618 96.0161 79.4886 96.0157 79.4152C96.0157 79.2517 95.9961 79.0577 95.9831 78.831C95.957 78.3383 95.9244 77.6581 95.9135 76.9039C95.9027 76.1496 95.9244 75.4672 95.9679 74.9746C95.9896 74.7282 96.0179 74.5386 96.0418 74.3925C96.0471 74.3177 96.064 74.2441 96.0918 74.1745C96.1091 74.1745 96.0722 74.4797 96.0483 74.9724C96.0244 75.4651 96.0157 76.143 96.0265 76.8951C96.0374 77.6472 96.0526 78.2969 96.0613 78.8201C96.0613 79.0664 96.0613 79.267 96.0613 79.4043C96.0671 79.4812 96.0605 79.5585 96.0418 79.6332Z" fill="#EB996E"/>
<path d="M103.977 76.8189C103.727 76.5591 103.46 76.3172 103.177 76.0951C102.481 75.5728 101.647 75.2687 100.779 75.221C99.911 75.1733 99.0485 75.3841 98.2999 75.8269C97.9961 76.0168 97.7057 76.2273 97.4305 76.457C97.488 76.377 97.5543 76.3038 97.6283 76.239C97.8239 76.0567 98.0372 75.8945 98.2651 75.755C99.021 75.2828 99.9037 75.0559 100.793 75.1055C101.682 75.155 102.534 75.4785 103.233 76.0319C103.445 76.195 103.638 76.3798 103.811 76.5834C103.876 76.6551 103.931 76.7342 103.977 76.8189Z" fill="#263238"/>
<path d="M103.668 74.8067C103.357 74.5828 103.021 74.3969 102.666 74.253C101.794 73.9425 100.847 73.9143 99.9581 74.1723C99.4692 74.31 98.9985 74.5061 98.5563 74.7566C98.1964 74.9641 97.8566 75.2049 97.5414 75.476C97.2719 75.707 97.0654 75.912 96.9242 76.0493C96.8548 76.1288 96.7784 76.2017 96.696 76.2673C96.7525 76.1793 96.818 76.0975 96.8916 76.0231C97.0793 75.8107 97.2788 75.6091 97.4892 75.4193C97.8015 75.1364 98.1416 74.8858 98.5042 74.6715C98.9508 74.4097 99.4293 74.2068 99.9277 74.0677C100.838 73.8009 101.811 73.8415 102.697 74.1832C102.961 74.2892 103.21 74.4299 103.438 74.6018C103.518 74.6606 103.572 74.7173 103.614 74.7522C103.655 74.7871 103.668 74.8045 103.668 74.8067Z" fill="#263238"/>
<path d="M103.688 73.0627C103.688 73.0845 103.253 72.9559 102.562 72.8622C102.153 72.8072 101.742 72.781 101.33 72.7837C100.825 72.7892 100.321 72.8344 99.8234 72.9188C99.3266 73.0104 98.8377 73.1401 98.3607 73.3069C97.972 73.4453 97.5936 73.6114 97.2284 73.8039C96.6047 74.1309 96.2526 74.3969 96.2396 74.3772C96.3134 74.3054 96.3942 74.2411 96.4808 74.1854C96.5755 74.1107 96.6749 74.0422 96.7785 73.9805C96.8981 73.9042 97.0328 73.8148 97.1893 73.732C97.5546 73.5293 97.9346 73.3544 98.326 73.2088C98.8063 73.033 99.3007 72.8988 99.8038 72.8077C100.306 72.7223 100.815 72.6793 101.325 72.679C101.742 72.6811 102.159 72.7154 102.57 72.7815C102.747 72.8033 102.903 72.8447 103.04 72.873C103.159 72.8972 103.276 72.9277 103.392 72.9646C103.493 72.9887 103.592 73.0215 103.688 73.0627Z" fill="#263238"/>
<path d="M85.2512 51.7161C85.3413 51.9191 85.3971 52.1357 85.4163 52.3571C85.4812 52.9823 85.4504 53.6138 85.3251 54.2297C85.2488 54.6718 85.145 55.1086 85.0143 55.5377C84.8429 56.037 84.6322 56.5217 84.384 56.9874C83.8646 57.9902 83.2126 59.0824 82.4563 60.2574L82.3693 60.3947V60.2312C82.3693 59.4595 82.3693 58.6507 82.3693 57.8114L82.4541 57.8528L80.4133 59.4857L80.4307 59.4595C79.9466 61.0508 79.649 62.6932 79.544 64.3536C79.344 67.0067 79.5049 69.5442 79.6288 71.8463C79.7526 74.1483 79.807 76.2259 79.8787 77.9699C79.9504 79.7139 80.0091 81.1222 80.0612 82.0966C80.0917 82.5806 80.1134 82.9555 80.1286 83.2171C80.1286 83.3414 80.1438 83.4351 80.1482 83.5093C80.1525 83.5834 80.1482 83.6095 80.1482 83.6095C80.1482 83.6095 80.1482 83.5768 80.133 83.5114C80.1178 83.446 80.1156 83.3436 80.1025 83.2193C80.0786 82.9643 80.0482 82.5871 80.0156 82.0988C79.9504 81.1265 79.8743 79.7161 79.7983 77.9721C79.7222 76.2281 79.6288 74.1549 79.5244 71.8506C79.4201 69.5464 79.231 67.0067 79.431 64.3449C79.5409 62.6746 79.8465 61.0232 80.3416 59.4246V59.4094H80.3547L82.3889 57.7722L82.4737 57.7024V57.8114C82.4737 58.6507 82.4737 59.4595 82.4737 60.2312L82.3845 60.2029C83.8776 57.8812 85.0925 55.8625 85.2794 54.2297C85.4085 53.6196 85.4481 52.9939 85.3968 52.3723C85.379 52.209 85.3492 52.0473 85.3077 51.8884C85.2642 51.7706 85.2512 51.7161 85.2512 51.7161Z" fill="#263238"/>
<path d="M81.3522 79.836H81.2827C81.1244 79.8462 80.9763 79.9177 80.8697 80.0354C80.7631 80.1532 80.7063 80.3079 80.7114 80.4669C80.7165 80.6259 80.783 80.7767 80.8969 80.8873C81.0109 80.998 81.1632 81.0599 81.3218 81.0599C81.4804 81.0599 81.6327 80.998 81.7467 80.8873C81.8606 80.7767 81.9271 80.6259 81.9322 80.4669C81.9373 80.3079 81.8805 80.1532 81.7739 80.0354C81.6673 79.9177 81.5192 79.8462 81.3609 79.836H81.3522Z" fill="white"/>
<path d="M81.3522 71.4342H81.2827C81.125 71.4444 80.9774 71.5157 80.8712 71.6331C80.765 71.7504 80.7085 71.9046 80.7136 72.063C80.7187 72.2214 80.785 72.3716 80.8985 72.4819C81.012 72.5921 81.1638 72.6538 81.3218 72.6538C81.4798 72.6538 81.6316 72.5921 81.7451 72.4819C81.8586 72.3716 81.9249 72.2214 81.93 72.063C81.9351 71.9046 81.8785 71.7504 81.7723 71.6331C81.6661 71.5157 81.5186 71.4444 81.3609 71.4342H81.3522Z" fill="white"/>
<path d="M81.2827 63.9176C81.4449 63.9283 81.6048 63.8739 81.7271 63.7664C81.8493 63.6589 81.924 63.507 81.9347 63.3443C81.9453 63.1815 81.8911 63.0212 81.7839 62.8985C81.6767 62.7759 81.5254 62.701 81.3631 62.6903H81.2827C81.1201 62.6903 80.9642 62.755 80.8493 62.8703C80.7344 62.9856 80.6698 63.142 80.6698 63.305C80.6698 63.4681 80.7344 63.6244 80.8493 63.7397C80.9642 63.855 81.1201 63.9198 81.2827 63.9198V63.9176Z" fill="white"/>
<path d="M71.8873 41.8713C71.1267 41.0232 70.366 40.1687 69.8031 39.1746C69.2402 38.1805 68.9164 37.0186 69.099 35.9046C69.2076 35.2506 69.4858 34.6184 69.5336 33.9426C69.5945 33.027 69.212 32.07 69.5336 31.2132C70.0378 29.8704 71.8395 29.6633 72.9306 28.7368C73.7803 28.0152 74.1933 26.8445 75.1278 26.2385C75.945 25.7066 76.9947 25.7196 77.9531 25.8548C78.9116 25.99 79.8852 26.2363 80.8502 26.1055C81.537 26.0139 82.1846 25.7349 82.8562 25.567C83.5277 25.3992 84.2819 25.349 84.8795 25.7066C85.4772 26.0641 85.8162 26.9077 85.4229 27.4811C86.54 26.9644 87.9592 27.8386 88.2656 29.0332C88.572 30.2279 87.9591 31.5206 87.0116 32.3032C86.064 33.0859 84.8382 33.4586 83.632 33.6875C80.2112 34.3415 76.497 33.9688 73.5478 32.1114" fill="#263238"/>
<path d="M83.9211 53.41C83.7538 52.102 83.6168 51.0273 83.6082 50.8921C83.6082 50.8921 87.9374 49.9155 87.6984 45.5249C87.5832 43.4016 86.992 39.0503 86.4096 35.1198C86.1103 33.0822 85.0564 31.2326 83.4581 29.9397C81.8598 28.6468 79.8344 28.0056 77.7858 28.1438L77.3511 28.17C72.8197 28.7433 70.7703 32.9245 71.4657 37.4546L73.9129 52.6426C73.9129 52.6426 74.9561 56.002 77.1881 56.5841L80.0135 60.6214L80.4785 58.8774L82.578 57.0419C82.9803 56.5673 83.328 56.0489 83.6147 55.4963C83.9352 54.8512 84.0425 54.1204 83.9211 53.41Z" fill="#FFBE9D"/>
<path d="M83.6103 50.8311C83.6103 50.8311 80.8611 51.2409 77.7988 49.5863C77.7988 49.5863 79.3593 52.6535 83.6973 51.9668L83.6103 50.8311Z" fill="#EB996E"/>
<path d="M85.0034 38.8956C85.0156 39.0589 84.9639 39.2206 84.8592 39.3464C84.7545 39.4722 84.6052 39.5521 84.4427 39.5692C84.3636 39.5808 84.283 39.5764 84.2057 39.5562C84.1283 39.5361 84.0558 39.5005 83.9924 39.4518C83.9289 39.403 83.8759 39.3419 83.8364 39.2722C83.7969 39.2025 83.7718 39.1256 83.7625 39.046C83.748 38.8813 83.799 38.7176 83.9045 38.5905C84.01 38.4635 84.1613 38.3835 84.3254 38.368C84.4046 38.3567 84.4853 38.3615 84.5627 38.3821C84.64 38.4027 84.7125 38.4386 84.7757 38.4878C84.8389 38.537 84.8917 38.5985 84.9308 38.6685C84.9699 38.7386 84.9946 38.8158 85.0034 38.8956Z" fill="#263238"/>
<path d="M85.6141 37.339C85.5424 37.4262 85.0447 37.1058 84.3732 37.1537C83.7016 37.2017 83.2387 37.5701 83.1517 37.496C83.1148 37.4633 83.1843 37.3107 83.3886 37.1385C83.6654 36.9165 84.0041 36.7862 84.3579 36.7657C84.7079 36.7402 85.0569 36.8281 85.3533 37.0164C85.5707 37.1559 85.6489 37.2998 85.6141 37.339Z" fill="#263238"/>
<path d="M78.6529 39.3512C78.6657 39.5144 78.6141 39.6762 78.5092 39.8017C78.4044 39.9273 78.2547 40.0066 78.0922 40.0226C78.0133 40.0346 77.9327 40.0305 77.8554 40.0106C77.778 39.9907 77.7055 39.9553 77.642 39.9067C77.5785 39.8581 77.5255 39.7972 77.4859 39.7276C77.4464 39.658 77.4213 39.5812 77.412 39.5016C77.3997 39.3386 77.4512 39.1772 77.5554 39.0515C77.6596 38.9258 77.8085 38.8456 77.9705 38.828C78.0497 38.8164 78.1304 38.8207 78.2079 38.8409C78.2854 38.861 78.3581 38.8965 78.4217 38.9453C78.4853 38.994 78.5385 39.0551 78.5782 39.1248C78.6179 39.1945 78.6433 39.2715 78.6529 39.3512Z" fill="#263238"/>
<path d="M79.0159 37.908C78.942 37.9952 78.4465 37.6748 77.7749 37.7227C77.1034 37.7707 76.6317 38.1391 76.5535 38.0606C76.5144 38.0279 76.5839 37.8753 76.7882 37.7031C77.0661 37.4814 77.4053 37.3513 77.7597 37.3303C78.109 37.3051 78.4571 37.393 78.7529 37.581C78.9703 37.7249 79.0507 37.8688 79.0159 37.908Z" fill="#263238"/>
<path d="M81.7869 42.7455C81.7869 42.7062 82.1955 42.6059 82.8736 42.473C83.0431 42.4446 83.2039 42.3988 83.2256 42.2811C83.2278 42.1019 83.1755 41.9262 83.0757 41.7775L82.4802 40.5001C81.6521 38.6819 81.0393 37.1799 81.1132 37.1472C81.187 37.1145 81.9173 38.562 82.7475 40.3823L83.3213 41.6685C83.4428 41.8689 83.4905 42.1058 83.456 42.3378C83.435 42.4 83.4002 42.4566 83.3543 42.5034C83.3084 42.5502 83.2525 42.586 83.1909 42.6081C83.0975 42.6406 83.0003 42.6611 82.9018 42.6692C82.215 42.752 81.7934 42.7825 81.7869 42.7455Z" fill="#263238"/>
<path d="M79.0116 35.2528C78.9572 35.4424 78.2813 35.3988 77.4902 35.5471C76.6991 35.6953 76.0841 35.9547 75.9689 35.7978C75.9167 35.7215 76.0167 35.5427 76.2623 35.3465C76.5912 35.1071 76.97 34.9454 77.3701 34.8737C77.7702 34.8019 78.1813 34.822 78.5725 34.9323C78.879 35.0304 79.0355 35.1656 79.0116 35.2528Z" fill="#263238"/>
<path d="M85.236 35.4032C85.1295 35.5645 84.6557 35.4381 84.0972 35.4664C83.5386 35.4948 83.0757 35.6386 82.9562 35.486C82.904 35.4119 82.9692 35.2528 83.1735 35.0936C83.439 34.9021 83.755 34.7936 84.0818 34.782C84.4087 34.7704 84.7316 34.856 85.0099 35.0282C85.2099 35.1721 85.2838 35.316 85.236 35.4032Z" fill="#263238"/>
<path d="M72.0504 40.6919C71.9743 40.6657 68.986 40.003 69.2815 42.9962C69.5771 45.9893 72.8067 45.0127 72.8067 44.9276C72.8067 44.8426 72.0504 40.6919 72.0504 40.6919Z" fill="#FFBE9D"/>
<path d="M71.4853 43.9444C71.4701 43.9444 71.4375 43.9859 71.3527 44.0338C71.2349 44.0998 71.0961 44.117 70.9659 44.0818C70.6377 43.9968 70.3139 43.5215 70.2552 42.9918C70.2227 42.736 70.2472 42.4761 70.3269 42.231C70.3464 42.1353 70.3885 42.0457 70.4498 41.9698C70.5111 41.8939 70.5897 41.8339 70.679 41.795C70.7374 41.7733 70.8014 41.7728 70.8602 41.7935C70.9189 41.8142 70.9686 41.8548 71.0006 41.9083C71.0484 41.989 71.0354 42.05 71.0506 42.0522C71.0658 42.0544 71.1093 41.9977 71.0745 41.8756C71.05 41.803 71.0018 41.7407 70.9376 41.699C70.8934 41.6693 70.8438 41.6486 70.7915 41.6381C70.7393 41.6276 70.6856 41.6276 70.6333 41.638C70.5135 41.6749 70.405 41.7419 70.3183 41.8327C70.2315 41.9236 70.1694 42.0351 70.1378 42.1568C70.0359 42.4286 70.0023 42.7214 70.04 43.0092C70.1183 43.6109 70.4747 44.145 70.9246 44.2257C71.0073 44.2414 71.0924 44.2383 71.1737 44.2164C71.255 44.1945 71.3303 44.1544 71.394 44.0992C71.4875 44.0164 71.5027 43.9488 71.4853 43.9444Z" fill="#EB996E"/>
<path d="M86.19 31.0323C85.9858 32.2248 83.582 33.317 81.5782 33.2581C79.7374 33.2036 78.8268 32.288 77.4902 31.6362C76.6426 31.2242 76.6426 31.2242 75.4929 31.4182C74.5649 31.5686 74.0824 32.6695 73.5608 33.4543C74.554 35.6343 74.152 38.1544 73.7303 40.5088C73.7122 40.7743 73.6058 41.026 73.4282 41.2238C73.0935 41.5203 72.5589 41.3437 72.2199 41.0407C71.6917 40.5546 71.4505 39.8352 71.2788 39.1376C70.8577 37.5509 70.7572 35.8958 70.9832 34.2696C71.2117 32.6355 71.9129 31.1044 73.0001 29.866C74.4219 28.3632 76.3699 27.473 78.4334 27.383C80.4866 27.3092 82.5108 27.8858 84.2188 29.0311C85.0099 29.5521 85.7402 30.1952 86.1966 31.0301" fill="#263238"/>
<path d="M82.2281 44.254L80.7067 43.5433C80.6234 43.4938 80.5275 43.4696 80.4307 43.4736C80.3237 43.4977 80.2298 43.5616 80.1677 43.6523C79.9894 43.8664 79.8782 44.1286 79.848 44.406C79.8179 44.6833 79.8701 44.9634 79.9982 45.211C80.1375 45.4522 80.3565 45.637 80.6172 45.7334C80.878 45.8297 81.1641 45.8316 81.4261 45.7386C81.9651 45.5206 82.2259 44.8862 82.2694 44.302L82.2281 44.254Z" fill="#EB996E"/>
<path d="M81.4739 45.852C81.4739 45.865 81.4022 45.9086 81.2566 45.9413C81.0387 45.9806 80.8145 45.9641 80.6046 45.8934C80.2837 45.785 80.0148 45.5603 79.8504 45.2634C79.7465 45.0824 79.6841 44.8805 79.668 44.6723C79.6518 44.4641 79.6822 44.2549 79.757 44.06C79.8335 43.858 79.9537 43.6756 80.1091 43.5259C80.1845 43.4544 80.2676 43.3915 80.3568 43.3384C80.4103 43.3064 80.4707 43.2878 80.5329 43.2839C80.5932 43.2815 80.6534 43.2926 80.7089 43.3166C80.7901 43.3576 80.8692 43.4028 80.9458 43.4518L81.1523 43.5804L81.5239 43.8115C81.9738 44.0992 82.2455 44.2911 82.2302 44.3172C82.215 44.3434 81.9151 44.2039 81.4435 43.951L81.0588 43.733L80.8415 43.6131C80.7676 43.576 80.6894 43.5259 80.6242 43.4997C80.5974 43.4869 80.5676 43.4817 80.538 43.4848C80.5085 43.4878 80.4804 43.499 80.4568 43.5172C80.3846 43.5628 80.3176 43.6162 80.2569 43.6763C80.1279 43.8051 80.0272 43.9596 79.9613 44.1297C79.8982 44.2949 79.8714 44.4717 79.8827 44.6481C79.8939 44.8245 79.943 44.9965 80.0265 45.1522C80.1619 45.4131 80.3841 45.6182 80.6546 45.7321C80.8417 45.8076 81.0418 45.8454 81.2436 45.8432C81.387 45.8498 81.4674 45.8367 81.4739 45.852Z" fill="#263238"/>
<path d="M80.9936 38.9719C80.972 38.7164 80.9321 38.4629 80.8741 38.2132C80.7665 37.7958 80.573 37.4056 80.306 37.0676C80.0391 36.7297 79.7047 36.4515 79.3242 36.2509C78.9437 36.0503 78.5256 35.9318 78.0967 35.9029C77.6678 35.8741 77.2376 35.9355 76.8339 36.0834C76.5555 36.1835 76.294 36.3254 76.058 36.5041C75.8064 36.6848 75.5861 36.9058 75.406 37.1581C75.0186 37.6834 74.8096 38.3196 74.8096 38.973C74.8096 39.6263 75.0186 40.2625 75.406 40.7878C75.5861 41.0402 75.8064 41.2611 76.058 41.4418C76.294 41.6205 76.5555 41.7624 76.8339 41.8625C77.2377 42.009 77.6676 42.0694 78.096 42.0399C78.5245 42.0104 78.9421 41.8917 79.3222 41.6913C79.7023 41.4909 80.0367 41.2132 80.3039 40.876C80.5711 40.5388 80.7653 40.1494 80.8741 39.7327C80.9318 39.4837 80.9717 39.2309 80.9936 38.9762C80.9961 38.9928 80.9961 39.0098 80.9936 39.0264C80.9936 39.0656 80.9936 39.1157 80.9936 39.1746C80.9955 39.2556 80.9897 39.3367 80.9762 39.4166C80.9641 39.5268 80.9445 39.6361 80.9176 39.7436C80.8487 40.0404 80.7351 40.3249 80.5807 40.5872C80.2094 41.2237 79.6277 41.7095 78.9365 41.9604C78.2452 42.2113 77.4882 42.2114 76.7969 41.9606C76.5089 41.8573 76.2385 41.7103 75.995 41.5246C75.7355 41.3382 75.508 41.1107 75.3212 40.851C74.9198 40.3068 74.7031 39.6478 74.7031 38.9708C74.7031 38.2938 74.9198 37.6347 75.3212 37.0905C75.5066 36.8305 75.7335 36.6029 75.9928 36.4169C76.2363 36.2313 76.5068 36.0842 76.7947 35.9809C77.3273 35.7891 77.9014 35.7439 78.4573 35.8501C78.8974 35.9345 79.3144 36.1125 79.6803 36.3719C80.0461 36.6313 80.3524 36.9663 80.5785 37.3543C80.733 37.6167 80.8466 37.9012 80.9154 38.198C80.9423 38.3055 80.9619 38.4148 80.9741 38.525C80.9875 38.6049 80.9934 38.6859 80.9914 38.7669C80.9914 38.8258 80.9914 38.8759 80.9914 38.9152C80.995 38.9339 80.9957 38.953 80.9936 38.9719Z" fill="#263238"/>
<path d="M88.4351 38.6776C88.4138 38.4289 88.3753 38.1819 88.3199 37.9386C88.1457 37.2792 87.7553 36.6979 87.2115 36.2883C86.841 36.0057 86.4091 35.8152 85.951 35.7324C85.4255 35.6356 84.8837 35.6815 84.3818 35.8654C84.1118 35.9633 83.8577 36.1007 83.6277 36.273C83.3856 36.4508 83.173 36.6656 82.9974 36.9096C82.6218 37.422 82.4191 38.0415 82.4191 38.6776C82.4191 39.3137 82.6218 39.9331 82.9974 40.4456C83.1724 40.6894 83.3852 40.9035 83.6277 41.0799C83.8571 41.2537 84.1114 41.3919 84.3818 41.4898C84.8839 41.6726 85.4254 41.7185 85.951 41.6227C86.4091 41.54 86.841 41.3495 87.2115 41.0669C87.7553 40.6572 88.1457 40.0759 88.3199 39.4166C88.3753 39.1732 88.4138 38.9263 88.4351 38.6776C88.4403 38.7421 88.4403 38.807 88.4351 38.8716C88.4359 38.9511 88.4301 39.0306 88.4177 39.1092C88.4062 39.2165 88.3873 39.3228 88.3612 39.4275C88.2227 39.9984 87.9239 40.5176 87.5002 40.9233C87.0764 41.329 86.5456 41.6043 85.9705 41.7165C85.4283 41.8192 84.8686 41.7748 84.3492 41.5879C83.7748 41.378 83.2746 41.0035 82.9105 40.511C82.5194 39.9802 82.3084 39.3376 82.3084 38.6776C82.3084 38.0176 82.5194 37.375 82.9105 36.8442C83.2746 36.3516 83.7748 35.9772 84.3492 35.7673C84.8686 35.5804 85.4283 35.536 85.9705 35.6386C86.5456 35.7509 87.0764 36.0262 87.5002 36.4319C87.9239 36.8376 88.2227 37.3567 88.3612 37.9276C88.3873 38.0323 88.4062 38.1387 88.4177 38.2459C88.4301 38.3245 88.4359 38.404 88.4351 38.4836C88.4403 38.5481 88.4403 38.613 88.4351 38.6776Z" fill="#263238"/>
<path d="M82.3694 37.9887C82.3563 37.9996 82.2846 37.9407 82.152 37.8775C81.9811 37.7959 81.7937 37.7548 81.6043 37.7576C81.4155 37.7603 81.2299 37.8082 81.0632 37.8971C80.9328 37.9647 80.8632 38.0279 80.8458 38.0148C80.8285 38.0018 80.885 37.9189 81.0154 37.8274C81.1871 37.71 81.3893 37.6456 81.5971 37.6422C81.8048 37.6387 82.0091 37.6962 82.1846 37.8077C82.3172 37.8949 82.3694 37.98 82.3694 37.9887Z" fill="#263238"/>
<path d="M74.9474 38.5271C74.5173 38.919 74.0629 39.283 73.5869 39.6171C73.1316 39.9804 72.6539 40.3146 72.1569 40.6178C72.5865 40.2245 73.0417 39.8604 73.5195 39.5278C73.9735 39.1638 74.4505 38.8295 74.9474 38.5271Z" fill="#263238"/>
<g opacity="0.3">
<path d="M72.372 52.7146C72.0699 55.6728 73.1913 58.7968 75.5581 60.5887C75.7428 60.7304 75.9754 60.87 76.1949 60.7893C76.3413 60.7182 76.4581 60.5978 76.5252 60.4492C77.1881 59.3006 77.4367 57.9581 77.2294 56.6473C76.8556 57.637 76.5339 58.6093 76.1558 59.6426C74.0976 58.3869 72.8067 55.7186 72.372 52.7146Z" fill="black"/>
</g>
<path opacity="0.3" d="M80.3851 59.4421L82.1237 58.8055L82.4106 61.7507C82.4106 61.7507 84.284 58.3259 85.0599 56.765C85.8358 55.2042 85.4359 52.4443 85.4359 52.4443C85.4359 52.4443 85.7119 54.8423 83.8363 57.9095L82.4193 60.2203V57.8005L80.3851 59.4421Z" fill="black"/>
<g opacity="0.3">
<path d="M60.2013 74.4099C59.4087 74.0722 58.538 73.9628 57.6868 74.0939C56.7797 74.1683 55.912 74.4977 55.1831 75.0443C54.479 75.6133 54.003 76.5115 54.0964 77.414L54.1834 77.4249C54.7897 75.7812 55.9938 74.5909 57.5477 74.4405C59.1016 74.2901 60.6164 74.9877 61.677 76.1322C61.5618 75.2776 60.9664 74.774 60.2013 74.4099Z" fill="black"/>
</g>
<g opacity="0.3">
<path d="M104.09 76.082C103.487 75.4619 102.7 75.0555 101.847 74.9244C101.104 74.7997 100.342 74.8441 99.6182 75.0542C98.8945 75.2644 98.227 75.635 97.6653 76.1387L97.9956 75.8684C98.836 75.3607 99.8008 75.098 100.782 75.1097C101.766 75.1266 102.711 75.5051 103.435 76.1736C104.087 76.7927 104.476 77.632 104.848 78.4495C104.908 78.023 104.871 77.5884 104.74 77.1784C104.609 76.7683 104.386 76.3935 104.09 76.082Z" fill="black"/>
</g>
<path d="M92.8991 62.4134C92.9168 62.3317 92.943 62.252 92.9774 62.1758C93.0447 62.0036 93.1273 61.7921 93.223 61.5414C93.4403 61.0073 93.7228 60.2705 94.0271 59.4486C94.3314 58.6267 94.5943 57.879 94.7834 57.3384L95.0007 56.6953C95.0241 56.6149 95.0561 56.5375 95.0964 56.4642C95.0896 56.5477 95.0713 56.6299 95.042 56.7083C95.0007 56.8653 94.9355 57.0877 94.8508 57.3623C94.6813 57.9117 94.4292 58.6703 94.1249 59.4878C93.8206 60.3053 93.5185 61.0465 93.2882 61.5719C93.1751 61.8357 93.0708 62.0472 93.0078 62.1932C92.9807 62.2708 92.9442 62.3448 92.8991 62.4134Z" fill="#263238"/>
<path d="M65.4999 62.6271C65.4695 62.6271 65.2326 61.5959 64.9718 60.3097C64.711 59.0235 64.5241 57.988 64.548 57.9706C64.5719 57.9531 64.8132 59.0017 65.074 60.2879C65.3348 61.5741 65.5304 62.6205 65.4999 62.6271Z" fill="#263238"/>
<path d="M65.0892 75.5959C65.1587 75.6307 64.2937 68.803 64.2937 68.803C64.2937 68.803 64.8392 63.6211 65.1457 63.3813V61.5523C65.1457 61.5523 65.9911 61.04 66.2171 61.8684C66.2171 61.8684 66.9669 61.2144 67.0865 62.7687C67.206 64.3231 67.2451 65.9101 67.2451 65.9101L68.9121 70.0914L69.1859 70.2309C69.1859 70.2309 69.5445 66.9609 69.7532 66.4726C69.9618 65.9843 70.1052 64.818 70.8942 64.9945C71.6831 65.1711 71.7504 65.8251 71.6092 66.8933C71.4679 67.9615 71.2897 69.0733 71.3571 69.7578C71.4244 70.4423 71.7352 71.9662 71.6396 73.1739C71.544 74.3816 70.8833 75.6547 70.1922 76.5485C69.501 77.4423 68.1775 79.2931 67.4603 79.849C67.2277 80.0452 65.0892 75.5959 65.0892 75.5959Z" fill="#FFBE9D"/>
<path d="M65.9324 70.039C65.9215 69.942 65.9215 69.844 65.9324 69.7469C65.9454 69.5289 65.965 69.2717 65.9867 68.9534C66.0367 68.2841 66.115 67.3598 66.2041 66.3374C66.2519 65.8295 66.2975 65.3455 66.3388 64.9008C66.3636 64.6959 66.3636 64.4887 66.3388 64.2838C66.3157 64.1084 66.2399 63.9442 66.1215 63.813C66.0346 63.719 65.9294 63.644 65.8124 63.5926C65.6953 63.5412 65.569 63.5146 65.4412 63.5143C65.3456 63.5188 65.2504 63.5305 65.1565 63.5492C65.1779 63.5342 65.2013 63.5224 65.2261 63.5143C65.2958 63.4881 65.3691 63.4727 65.4434 63.4685C65.5804 63.4607 65.7176 63.4825 65.8454 63.5325C65.9733 63.5826 66.089 63.6596 66.1845 63.7585C66.3159 63.9 66.4002 64.079 66.4258 64.2708C66.453 64.4828 66.453 64.6975 66.4258 64.9095C66.3866 65.3455 66.3432 65.8404 66.2997 66.3483C66.2062 67.3685 66.115 68.2907 66.0432 68.9643L65.9541 69.7556C65.955 69.8506 65.9477 69.9454 65.9324 70.039Z" fill="#EB996E"/>
<path d="M66.8278 67.2465C66.7064 67.4123 66.6071 67.5933 66.5323 67.7849C66.3997 68.2676 66.3074 68.7606 66.2563 69.2586C66.165 69.8429 66.078 70.3704 66.0085 70.7519C65.9833 70.96 65.9381 71.1651 65.8737 71.3645C65.8746 71.1547 65.8935 70.9454 65.9303 70.7388C65.9781 70.3552 66.0541 69.8254 66.1476 69.2412C66.241 68.6569 66.3019 68.1228 66.4627 67.7566C66.5199 67.6131 66.5999 67.4798 66.6996 67.362C66.7713 67.2748 66.8235 67.2421 66.8278 67.2465Z" fill="#EB996E"/>
<path d="M66.215 61.779C66.2452 61.8484 66.265 61.9218 66.2736 61.997C66.3041 62.1365 66.341 62.3393 66.3823 62.5922C66.4649 63.0957 66.5562 63.7955 66.6149 64.5738C66.6735 65.352 66.6844 66.0584 66.6757 66.5685C66.6757 66.8235 66.6648 67.0306 66.654 67.1723C66.6558 67.2459 66.647 67.3193 66.6279 67.3903C66.6015 67.1165 66.5907 66.8414 66.5953 66.5663C66.5844 66.0562 66.5583 65.3542 66.5018 64.5803C66.4453 63.8064 66.3671 63.1066 66.3041 62.6009C66.2582 62.3289 66.2284 62.0545 66.215 61.779Z" fill="#EB996E"/>
<path d="M71.0245 68.1795C70.9421 68.2329 70.8479 68.2652 70.7501 68.2735C70.6524 68.2819 70.5541 68.2661 70.4638 68.2275C70.1443 68.1315 69.9965 67.8852 70.0291 67.8743C70.1788 67.9696 70.3366 68.0513 70.5008 68.1185C70.6734 68.1533 70.8486 68.1738 71.0245 68.1795Z" fill="#EB996E"/>
<path d="M65.1826 74.7457L60.7794 76.603H58.1541C58.1541 76.603 55.5591 77.4162 55.1592 79.8578C54.7593 82.2994 54.7028 83.5529 55.8438 83.8559C56.9848 84.1589 60.2079 84.1916 61.8053 83.6597C63.4027 83.1278 67.5885 79.7357 67.5885 79.7357L67.9906 77.2854L65.1826 74.7457Z" fill="#FFBE9D"/>
<path d="M66.215 77.4445C66.215 77.4445 66.165 77.4074 66.0889 77.329C65.9841 77.215 65.8889 77.0925 65.8042 76.9627C65.5285 76.5316 65.3211 76.0602 65.1891 75.5653C65.0528 75.0748 64.9619 74.5728 64.9175 74.0655C64.8882 73.8561 64.8824 73.644 64.9001 73.4333C64.9472 73.6378 64.9792 73.8454 64.9957 74.0546C65.0628 74.5543 65.1637 75.0489 65.2978 75.5348C65.429 76.0197 65.6219 76.4857 65.8716 76.9213C66.0693 77.2505 66.2302 77.4292 66.215 77.4445Z" fill="#EB996E"/>
<path d="M68.134 78.2184C68.2506 77.9128 68.3344 77.5957 68.3839 77.2723C68.4825 76.4836 68.2704 75.6873 67.7928 75.0531C67.5255 74.6781 67.2234 74.3511 66.9691 74.0328C66.7375 73.7553 66.5378 73.4526 66.3736 73.1303C66.2658 72.9104 66.1925 72.6751 66.1563 72.4327C66.1429 72.3445 66.1429 72.2549 66.1563 72.1667C66.2072 72.4894 66.3084 72.8021 66.4562 73.0932C66.6274 73.4044 66.8306 73.6966 67.0625 73.9652C67.3168 74.2748 67.6211 74.6018 67.8949 74.9855C68.1613 75.3453 68.3487 75.7577 68.4448 76.1954C68.5188 76.5541 68.5284 76.9232 68.473 77.2854C68.4365 77.527 68.3693 77.7629 68.2731 77.9873C68.2383 78.0658 68.2057 78.1247 68.184 78.1639C68.1623 78.2031 68.1362 78.2206 68.134 78.2184Z" fill="#EB996E"/>
<path d="M61.3423 67.58C60.9517 66.9446 60.5934 66.2897 60.2687 65.618C59.7036 64.528 59.269 63.6211 59.2951 63.6059C59.6857 64.2413 60.044 64.8961 60.3687 65.5679C60.7272 66.2215 61.0522 66.8931 61.3423 67.58Z" fill="white"/>
<path d="M68.46 59.6252C68.6453 59.0663 68.8667 58.5202 69.1229 57.9902C69.3452 57.4456 69.6014 56.9155 69.8901 56.4032C69.7036 56.9616 69.4822 57.5077 69.2272 58.0382C69.0054 58.583 68.7492 59.1131 68.46 59.6252Z" fill="white"/>
<path d="M75.4429 64.7874C75.0823 64.4394 74.7481 64.0649 74.4432 63.6669C74.1108 63.2924 73.8064 62.8939 73.5326 62.4744C73.8934 62.8215 74.227 63.1962 74.5301 63.595C74.8636 63.9691 75.1687 64.3677 75.4429 64.7874Z" fill="white"/>
<path d="M73.8368 71.8877C74.0573 71.4892 74.3088 71.1087 74.5888 70.7497C74.8409 70.3703 75.1237 70.0123 75.4342 69.6794C75.2143 70.0782 74.9628 70.4588 74.6823 70.8173C74.4315 71.1977 74.1487 71.5558 73.8368 71.8877Z" fill="white"/>
<path d="M71.6766 81.9179C71.5751 81.783 71.4898 81.6367 71.4223 81.4819C71.2788 81.2028 71.0941 80.8126 70.9072 80.3744C70.7203 79.9363 70.5703 79.5286 70.4725 79.2343C70.4075 79.0774 70.3609 78.9136 70.3334 78.746C70.4229 78.8906 70.4959 79.0449 70.5508 79.2059L71.018 80.3287C71.1984 80.745 71.3592 81.1222 71.5005 81.447C71.5765 81.5969 71.6355 81.7548 71.6766 81.9179Z" fill="white"/>
<path d="M77.8053 77.6538C77.3609 77.6243 76.9197 77.5579 76.4861 77.4554C76.0435 77.3897 75.6072 77.2861 75.1821 77.1458C76.0642 77.2412 76.9366 77.4111 77.7901 77.6538H77.8053Z" fill="white"/>
<path d="M82.5867 68.282C82.9761 67.776 83.3956 67.2941 83.8429 66.8388C84.2634 66.3564 84.7119 65.8993 85.186 65.4698C84.795 65.9757 84.3748 66.4584 83.9276 66.9151C83.5071 67.3961 83.0594 67.8525 82.5867 68.282Z" fill="white"/>
<path d="M87.368 80.7799C87.3441 80.8017 86.6421 79.9842 85.7989 78.9596C84.9556 77.935 84.2927 77.0848 84.3166 77.0652C84.3405 77.0456 85.0425 77.8609 85.8858 78.8855C86.729 79.9101 87.3876 80.7603 87.368 80.7799Z" fill="white"/>
<path d="M57.6368 75.4542C57.652 75.4847 57.0109 75.8117 56.3111 76.3501C55.6113 76.8886 55.1244 77.4205 55.0984 77.3965C55.1774 77.2585 55.277 77.1335 55.3939 77.0259C55.6542 76.7471 55.9378 76.4911 56.2415 76.2608C56.544 76.0292 56.8653 75.8235 57.2021 75.646C57.337 75.5612 57.4834 75.4966 57.6368 75.4542Z" fill="white"/>
<path d="M59.4276 70.632C59.2895 70.9404 59.1183 71.2328 58.9169 71.504C58.7453 71.796 58.542 72.068 58.3105 72.315C58.449 72.0067 58.6203 71.7143 58.8213 71.443C58.9924 71.1507 59.1958 70.8786 59.4276 70.632Z" fill="white"/>
<path d="M63.4613 75.367C63.1133 74.8119 62.9646 74.1544 63.0397 73.5031C63.0723 73.5031 63.0832 73.9391 63.2027 74.447C63.3222 74.9549 63.4918 75.3517 63.4613 75.367Z" fill="white"/>
<path d="M64.059 60.3424C63.7888 60.437 63.5076 60.4963 63.2223 60.519C62.9417 60.5781 62.6544 60.5994 62.3682 60.5822C62.6392 60.4878 62.9211 60.4284 63.2071 60.4056C63.4871 60.3478 63.7735 60.3265 64.059 60.3424Z" fill="white"/>
<path d="M67.0886 54.9513C66.6205 55.2987 66.1091 55.5831 65.5673 55.7971C65.7897 55.6079 66.036 55.4489 66.2997 55.324C66.5459 55.1668 66.811 55.0415 67.0886 54.9513Z" fill="white"/>
<path d="M75.6103 57.2294C75.3032 56.9161 75.0226 56.5778 74.7714 56.2179C74.4925 55.8797 74.2424 55.5188 74.0237 55.1387C74.6118 55.7884 75.1426 56.4879 75.6103 57.2294Z" fill="white"/>
<path d="M86.427 62.6488C85.8279 62.0566 85.3773 61.3305 85.1121 60.5299C85.1447 60.5168 85.3772 61.0247 85.7424 61.6068C86.1075 62.1889 86.453 62.627 86.427 62.6488Z" fill="white"/>
<path d="M90.5563 64.0135C90.294 64.7799 89.9592 65.5194 89.5565 66.2219C89.6724 65.8334 89.823 65.4562 90.0064 65.0948C90.1552 64.7177 90.3393 64.3557 90.5563 64.0135Z" fill="white"/>
<path d="M91.1344 58.3608C90.7393 57.976 90.3718 57.5637 90.0347 57.1269C89.6684 56.7146 89.3307 56.2776 89.0241 55.8189C89.7846 56.6169 90.4896 57.4661 91.1344 58.3608Z" fill="white"/>
<path d="M84.8274 53.7697C84.7585 53.4223 84.7257 53.0687 84.7296 52.7146C84.6968 52.3612 84.7019 52.0052 84.7448 51.6529C84.8137 52.0003 84.8465 52.3539 84.8426 52.708C84.8767 53.0614 84.8716 53.4175 84.8274 53.7697Z" fill="white"/>
<path d="M89.976 53.4841C89.5355 53.6 89.0863 53.6794 88.6329 53.7218C88.185 53.8007 87.7314 53.8423 87.2767 53.846C87.7172 53.7302 88.1664 53.6507 88.6199 53.6084C89.0677 53.5294 89.5213 53.4878 89.976 53.4841Z" fill="white"/>
<path d="M98.0673 59.4508C97.7655 58.954 97.4955 58.4385 97.2589 57.9073C96.9901 57.3919 96.7549 56.8596 96.5547 56.3138C96.8577 56.8102 97.1285 57.3258 97.3653 57.8572C97.6331 58.3728 97.8676 58.905 98.0673 59.4508Z" fill="white"/>
<path d="M96.7133 64.6065C96.8043 63.7739 96.9687 62.951 97.2045 62.1474C97.1783 62.5657 97.115 62.9808 97.0154 63.3879C96.952 63.8025 96.8509 64.2104 96.7133 64.6065Z" fill="white"/>
<path d="M100.46 68.67C100.207 68.1268 99.9889 67.5675 99.8082 66.9958C99.5927 66.4368 99.4134 65.8644 99.2714 65.2823C99.5233 65.8269 99.7411 66.3868 99.9234 66.9587C100.138 67.5173 100.317 68.0888 100.46 68.67Z" fill="white"/>
<path d="M99.9364 71.0484C99.5484 70.9898 99.1756 70.8558 98.8389 70.6538C98.4853 70.4835 98.1696 70.2432 97.9109 69.9475C97.9326 69.9213 98.3325 70.2527 98.8932 70.5535C99.4539 70.8544 99.9473 71.0157 99.9364 71.0484Z" fill="white"/>
<path d="M104.755 76.4679C104.462 75.992 104.235 75.4787 104.079 74.9419C104.371 75.4178 104.599 75.9311 104.755 76.4679Z" fill="white"/>
<path d="M76.3296 84.0281C76.237 83.7136 76.1801 83.3897 76.1601 83.0624C76.1051 82.7392 76.0861 82.4109 76.1036 82.0835C76.2029 82.3998 76.2634 82.7271 76.284 83.058C76.3361 83.3786 76.3514 83.7041 76.3296 84.0281Z" fill="white"/>
<path d="M91.0931 83.6531C91.1031 83.334 91.1505 83.0172 91.2344 82.7092C91.2833 82.3937 91.3687 82.085 91.4887 81.7892C91.4787 82.1085 91.4305 82.4254 91.3452 82.7332C91.2976 83.0487 91.2129 83.3575 91.0931 83.6531Z" fill="white"/>
<path d="M93.9227 40.4258L95.8439 37.0598C94.6591 35.1414 94.2326 32.8478 94.6483 30.6299C95.064 28.4121 96.2918 26.4304 98.0903 25.0746C99.8889 23.7188 102.128 23.087 104.367 23.3033C106.607 23.5196 108.685 24.5684 110.192 26.2436C111.7 27.9187 112.528 30.0989 112.514 32.3556C112.5 34.6123 111.645 36.7821 110.117 38.4385C108.589 40.0949 106.499 41.118 104.257 41.3066C102.015 41.4952 99.7838 40.8358 98.002 39.4578L93.9227 40.4258Z" fill="#FAFAFA"/>
<path d="M93.9228 40.4259L98.0021 39.4929H98.0434L98.0173 39.458L97.9782 39.4951C98.5498 39.9396 99.1713 40.3157 99.8299 40.6156C100.615 40.968 101.446 41.2059 102.299 41.3219C102.771 41.388 103.248 41.4121 103.725 41.3938C103.97 41.3808 104.218 41.3742 104.47 41.3546L105.231 41.2391C107.497 40.7932 109.51 39.4976 110.857 37.6159C111.606 36.575 112.125 35.3859 112.379 34.1279C112.637 32.797 112.601 31.4254 112.272 30.1102C111.931 28.7389 111.269 27.4687 110.342 26.4042L109.971 25.9791C109.849 25.8417 109.706 25.7305 109.575 25.6041C109.445 25.4777 109.314 25.3512 109.167 25.2466L108.732 24.9239C108.59 24.8142 108.44 24.7151 108.284 24.6275L107.828 24.3484L107.35 24.1152C107.193 24.0331 107.032 23.9604 106.867 23.8972C105.585 23.3904 104.206 23.1781 102.831 23.2759C101.535 23.3633 100.274 23.7354 99.1366 24.3659C97.0865 25.5096 95.5541 27.4011 94.8573 29.648C94.5781 30.601 94.4462 31.5913 94.4661 32.5845C94.4884 33.4462 94.6348 34.3001 94.9008 35.1198C95.125 35.801 95.4277 36.4536 95.8027 37.0644V37.036C94.5987 39.2008 94.0097 40.2581 93.9163 40.4237C94.0119 40.2602 94.6161 39.2095 95.8483 37.0622V37.0491V37.036C95.4824 36.4266 95.1892 35.7761 94.9747 35.098C94.7101 34.284 94.5637 33.436 94.54 32.5801C94.5256 31.5962 94.6597 30.6157 94.9377 29.672C95.6353 27.4555 97.1526 25.5911 99.1779 24.4618C100.304 23.8327 101.554 23.4605 102.84 23.3718C104.198 23.2758 105.56 23.4866 106.826 23.9887C106.989 24.0519 107.148 24.1247 107.302 24.2067L107.776 24.4378L108.232 24.7212C108.383 24.8084 108.529 24.906 108.667 25.0133L109.101 25.3338C109.247 25.4384 109.369 25.5692 109.503 25.6869C109.638 25.8047 109.775 25.9224 109.895 26.0575L110.258 26.4565C111.174 27.5109 111.828 28.7683 112.166 30.1254C112.492 31.4239 112.529 32.7788 112.272 34.093C112.024 35.3376 111.513 36.5143 110.773 37.544C109.442 39.4069 107.454 40.6922 105.213 41.1388L104.461 41.2565C104.211 41.2761 103.966 41.2848 103.722 41.2979C103.25 41.3172 102.778 41.2953 102.31 41.2325C101.463 41.1226 100.636 40.8921 99.8538 40.548C99.1979 40.2538 98.5787 39.8836 98.0086 39.4449L97.8413 39.3163L97.9695 39.4842L97.9847 39.4406L93.9228 40.4259Z" fill="#263238"/>
<path d="M105.928 31.9479C105.93 32.1194 105.983 32.2865 106.079 32.4282C106.176 32.5699 106.312 32.68 106.47 32.7446C106.628 32.8093 106.802 32.8256 106.97 32.7916C107.137 32.7576 107.291 32.6748 107.412 32.5535C107.533 32.4322 107.616 32.2779 107.65 32.1097C107.684 31.9416 107.667 31.7672 107.603 31.6083C107.538 31.4494 107.429 31.3131 107.287 31.2165C107.146 31.1198 106.979 31.0672 106.808 31.065C106.692 31.0635 106.577 31.0854 106.47 31.1292C106.362 31.1731 106.265 31.238 106.183 31.3203C106.101 31.4026 106.036 31.5005 105.992 31.6083C105.949 31.7161 105.927 31.8315 105.928 31.9479Z" fill="#263238"/>
<path d="M102.41 31.9479C102.412 32.1199 102.465 32.2874 102.561 32.4294C102.658 32.5713 102.795 32.6814 102.954 32.7457C103.113 32.81 103.287 32.8258 103.455 32.7909C103.623 32.756 103.777 32.6721 103.897 32.5498C104.018 32.4274 104.1 32.272 104.132 32.1032C104.165 31.9343 104.147 31.7595 104.081 31.6008C104.015 31.4421 103.904 31.3066 103.761 31.2112C103.618 31.1159 103.45 31.065 103.279 31.065C103.164 31.065 103.05 31.0879 102.944 31.1324C102.838 31.1769 102.741 31.2421 102.66 31.3242C102.58 31.4064 102.516 31.5038 102.473 31.6109C102.43 31.7179 102.408 31.8325 102.41 31.9479Z" fill="#263238"/>
<path d="M98.8997 31.5075C98.8157 31.6571 98.7775 31.8283 98.7901 31.9995C98.8026 32.1707 98.8653 32.3344 98.9702 32.4701C99.0751 32.6058 99.2177 32.7073 99.3799 32.7621C99.5421 32.8168 99.7169 32.8223 99.8822 32.7779C100.048 32.7334 100.196 32.641 100.309 32.5121C100.422 32.3833 100.495 32.2239 100.518 32.0537C100.542 31.8836 100.514 31.7104 100.44 31.5559C100.365 31.4013 100.247 31.2723 100.099 31.1849C99.9998 31.1259 99.8895 31.0874 99.7749 31.0716C99.6603 31.0559 99.5437 31.0633 99.432 31.0933C99.3202 31.1234 99.2156 31.1755 99.1242 31.2466C99.0328 31.3177 98.9565 31.4065 98.8997 31.5075Z" fill="#263238"/>
</svg>
