<svg width="188" height="188" viewBox="0 0 188 188" fill="none" xmlns="http://www.w3.org/2000/svg">
<path d="M171.05 44.496H135.112C135.112 44.496 138.676 34.7651 144.158 34.7651C149.64 34.7651 151.363 41.4843 151.363 41.4843C151.363 41.4843 155.062 37.8333 158.1 37.8333C161.139 37.8333 163.782 42.6574 163.782 42.6574C163.782 42.6574 168.072 40.063 171.05 44.496Z" fill="#EBEBEB"/>
<path d="M139.669 23.9626H122.877C122.877 23.9626 126.637 18.5256 129.585 18.5256C132.532 18.5256 133.416 22.1503 133.416 22.1503C133.416 22.1503 135.503 20.4583 137.436 20.7591C139.368 21.0599 139.669 23.9626 139.669 23.9626Z" fill="#EBEBEB"/>
<path d="M49.6621 43.8492H16.9501C16.9501 43.8492 21.432 33.8401 26.2222 33.2234C31.0125 32.6068 33.3061 40.6532 33.3061 40.6532C33.3061 40.6532 36.3968 37.8069 38.8295 37.8069C41.2622 37.8069 43.1347 41.5669 43.1347 41.5669C43.1347 41.5669 47.9964 38.9875 49.6621 43.8492Z" fill="#EBEBEB"/>
<path d="M83.5923 19.6611H61.4986C61.4986 19.6611 65.2924 12.4156 69.3946 12.3103C73.4967 12.205 75.6775 17.7924 75.6775 17.7924C75.6775 17.7924 82.0996 12.6525 83.5923 19.6611Z" fill="#EBEBEB"/>
<path d="M46.3796 70.1616H24.2821C24.2821 70.1616 28.0759 62.9161 32.1781 62.8108C36.2802 62.7055 38.461 68.2929 38.461 68.2929C38.461 68.2929 44.8831 63.168 46.3796 70.1616Z" fill="#EBEBEB"/>
<path d="M95.9101 38.2768H80.9942C80.9942 38.2768 83.5585 33.3888 86.3371 33.3136C89.1158 33.2384 90.5784 37.0135 90.5784 37.0135C90.5784 37.0135 94.9024 33.543 95.9101 38.2768Z" fill="#EBEBEB"/>
<path d="M72.7748 59.1262H57.8589C57.8589 59.1262 60.4194 54.2382 63.1981 54.163C65.9767 54.0878 67.4394 57.8666 67.4394 57.8666C67.4394 57.8666 71.7634 54.3961 72.7748 59.1262Z" fill="#EBEBEB"/>
<path d="M90.1084 56.0239H86.2394V60.5923H90.1084V56.0239Z" fill="#DBDBDB"/>
<path d="M92.5599 56.0239H90.1084V60.7615H92.5599V56.0239Z" fill="#C7C7C7"/>
<path d="M92.7216 58.043H90.2889V60.7615H92.7216V58.043Z" fill="#DBDBDB"/>
<path d="M94.2406 58.043H92.7216V60.7615H94.2406V58.043Z" fill="#C7C7C7"/>
<path d="M91.0108 60.2991H84.7542V83.0358H91.0108V60.2991Z" fill="#EBEBEB"/>
<path d="M87.435 61.2729H85.4686V62.0776H87.435V61.2729Z" fill="white"/>
<path d="M89.9505 61.2729H87.984V62.0776H89.9505V61.2729Z" fill="white"/>
<path d="M87.435 62.6377H85.4686V63.4423H87.435V62.6377Z" fill="white"/>
<path d="M89.9505 62.6377H87.984V63.4423H89.9505V62.6377Z" fill="white"/>
<path d="M87.435 64.0027H85.4686V64.8073H87.435V64.0027Z" fill="white"/>
<path d="M89.9505 64.0027H87.984V64.8073H89.9505V64.0027Z" fill="white"/>
<path d="M87.435 65.3674H85.4686V66.1721H87.435V65.3674Z" fill="white"/>
<path d="M89.9505 65.3674H87.984V66.1721H89.9505V65.3674Z" fill="white"/>
<path d="M87.435 66.7324H85.4686V67.5371H87.435V66.7324Z" fill="white"/>
<path d="M89.9505 66.7324H87.984V67.5371H89.9505V66.7324Z" fill="white"/>
<path d="M87.435 68.0972H85.4686V68.9018H87.435V68.0972Z" fill="white"/>
<path d="M89.9505 68.0972H87.984V68.9018H89.9505V68.0972Z" fill="white"/>
<path d="M87.435 69.4622H85.4686V70.2668H87.435V69.4622Z" fill="white"/>
<path d="M89.9505 69.4622H87.984V70.2668H89.9505V69.4622Z" fill="white"/>
<path d="M87.435 70.8271H85.4686V71.6318H87.435V70.8271Z" fill="white"/>
<path d="M89.9505 70.8271H87.984V71.6318H89.9505V70.8271Z" fill="white"/>
<path d="M87.435 72.1919H85.4686V72.9965H87.435V72.1919Z" fill="white"/>
<path d="M89.9505 72.1919H87.984V72.9965H89.9505V72.1919Z" fill="white"/>
<path d="M87.435 73.5569H85.4686V74.3615H87.435V73.5569Z" fill="white"/>
<path d="M89.9505 73.5569H87.984V74.3615H89.9505V73.5569Z" fill="white"/>
<path d="M87.435 74.9216H85.4686V75.7263H87.435V74.9216Z" fill="white"/>
<path d="M89.9505 74.9216H87.984V75.7263H89.9505V74.9216Z" fill="white"/>
<path d="M87.435 76.2866H85.4686V77.0913H87.435V76.2866Z" fill="white"/>
<path d="M89.9505 76.2866H87.984V77.0913H89.9505V76.2866Z" fill="white"/>
<path d="M87.435 77.6514H85.4686V78.456H87.435V77.6514Z" fill="white"/>
<path d="M89.9505 77.6514H87.984V78.456H89.9505V77.6514Z" fill="white"/>
<path d="M87.435 79.0164H85.4686V79.821H87.435V79.0164Z" fill="white"/>
<path d="M89.9505 79.0164H87.984V79.821H89.9505V79.0164Z" fill="white"/>
<path d="M96.0793 60.2991H91.0108V83.0358H96.0793V60.2991Z" fill="#C7C7C7"/>
<path d="M93.9549 79.8171H95.5717V79.0125H93.9549V79.8171Z" fill="#EBEBEB"/>
<path d="M91.8869 79.8171H93.5037V79.0125H91.8869V79.8171Z" fill="#EBEBEB"/>
<path d="M93.9549 78.4524H95.5717V77.6478H93.9549V78.4524Z" fill="#EBEBEB"/>
<path d="M91.8869 78.4524H93.5037V77.6478H91.8869V78.4524Z" fill="#EBEBEB"/>
<path d="M93.9549 77.0874H95.5717V76.2828H93.9549V77.0874Z" fill="#EBEBEB"/>
<path d="M91.8869 77.0874H93.5037V76.2828H91.8869V77.0874Z" fill="#EBEBEB"/>
<path d="M93.9549 75.7227H95.5717V74.918H93.9549V75.7227Z" fill="#EBEBEB"/>
<path d="M91.8869 75.7227H93.5037V74.918H91.8869V75.7227Z" fill="#EBEBEB"/>
<path d="M93.9549 74.3613H95.5717V73.5567H93.9549V74.3613Z" fill="#EBEBEB"/>
<path d="M91.8869 74.3613H93.5037V73.5567H91.8869V74.3613Z" fill="#EBEBEB"/>
<path d="M93.9549 72.9966H95.5717V72.1919H93.9549V72.9966Z" fill="#EBEBEB"/>
<path d="M91.8869 72.9966H93.5037V72.1919H91.8869V72.9966Z" fill="#EBEBEB"/>
<path d="M93.9549 71.6316H95.5717V70.827H93.9549V71.6316Z" fill="#EBEBEB"/>
<path d="M91.8869 71.6316H93.5037V70.827H91.8869V71.6316Z" fill="#EBEBEB"/>
<path d="M93.9549 70.2668H95.5717V69.4622H93.9549V70.2668Z" fill="#EBEBEB"/>
<path d="M91.8869 70.2668H93.5037V69.4622H91.8869V70.2668Z" fill="#EBEBEB"/>
<path d="M93.9549 68.9019H95.5717V68.0972H93.9549V68.9019Z" fill="#EBEBEB"/>
<path d="M91.8869 68.9019H93.5037V68.0972H91.8869V68.9019Z" fill="#EBEBEB"/>
<path d="M93.9549 67.5371H95.5717V66.7325H93.9549V67.5371Z" fill="#EBEBEB"/>
<path d="M91.8869 67.5371H93.5037V66.7325H91.8869V67.5371Z" fill="#EBEBEB"/>
<path d="M93.9549 66.1721H95.5717V65.3675H93.9549V66.1721Z" fill="#EBEBEB"/>
<path d="M91.8869 66.1721H93.5037V65.3675H91.8869V66.1721Z" fill="#EBEBEB"/>
<path d="M93.9549 64.8074H95.5717V64.0027H93.9549V64.8074Z" fill="#EBEBEB"/>
<path d="M91.8869 64.8074H93.5037V64.0027H91.8869V64.8074Z" fill="#EBEBEB"/>
<path d="M93.9549 63.446H95.5717V62.6414H93.9549V63.446Z" fill="#EBEBEB"/>
<path d="M91.8869 63.446H93.5037V62.6414H91.8869V63.446Z" fill="#EBEBEB"/>
<path d="M93.9549 62.0813H95.5717V61.2767H93.9549V62.0813Z" fill="#EBEBEB"/>
<path d="M91.8869 62.0813H93.5037V61.2767H91.8869V62.0813Z" fill="#EBEBEB"/>
<path d="M136.097 50.7976H129.949V83.0321H136.097V50.7976Z" fill="#DBDBDB"/>
<path d="M132.1 51.8464H130.904V53.076H132.1V51.8464Z" fill="#EBEBEB"/>
<path d="M133.627 51.8464H132.431V53.076H133.627V51.8464Z" fill="#EBEBEB"/>
<path d="M132.1 53.9333H130.904V55.1629H132.1V53.9333Z" fill="#EBEBEB"/>
<path d="M133.627 53.9333H132.431V55.1629H133.627V53.9333Z" fill="#EBEBEB"/>
<path d="M132.1 56.0239H130.904V57.2534H132.1V56.0239Z" fill="#EBEBEB"/>
<path d="M133.627 56.0239H132.431V57.2534H133.627V56.0239Z" fill="#EBEBEB"/>
<path d="M132.1 58.1145H130.904V59.344H132.1V58.1145Z" fill="#EBEBEB"/>
<path d="M133.627 58.1145H132.431V59.344H133.627V58.1145Z" fill="#EBEBEB"/>
<path d="M132.1 60.2051H130.904V61.4346H132.1V60.2051Z" fill="#EBEBEB"/>
<path d="M133.627 60.2051H132.431V61.4346H133.627V60.2051Z" fill="#EBEBEB"/>
<path d="M132.1 62.2917H130.904V63.5213H132.1V62.2917Z" fill="#EBEBEB"/>
<path d="M133.627 62.2917H132.431V63.5213H133.627V62.2917Z" fill="#EBEBEB"/>
<path d="M132.1 64.3823H130.904V65.6118H132.1V64.3823Z" fill="#EBEBEB"/>
<path d="M133.627 64.3823H132.431V65.6118H133.627V64.3823Z" fill="#EBEBEB"/>
<path d="M132.1 66.4729H130.904V67.7024H132.1V66.4729Z" fill="#EBEBEB"/>
<path d="M133.627 66.4729H132.431V67.7024H133.627V66.4729Z" fill="#EBEBEB"/>
<path d="M132.1 68.5635H130.904V69.793H132.1V68.5635Z" fill="#EBEBEB"/>
<path d="M133.627 68.5635H132.431V69.793H133.627V68.5635Z" fill="#EBEBEB"/>
<path d="M132.1 70.6504H130.904V71.8799H132.1V70.6504Z" fill="#EBEBEB"/>
<path d="M133.627 70.6504H132.431V71.8799H133.627V70.6504Z" fill="#EBEBEB"/>
<path d="M132.1 72.741H130.904V73.9705H132.1V72.741Z" fill="#EBEBEB"/>
<path d="M133.627 72.741H132.431V73.9705H133.627V72.741Z" fill="#EBEBEB"/>
<path d="M132.1 74.8315H130.904V76.0611H132.1V74.8315Z" fill="#EBEBEB"/>
<path d="M133.627 74.8315H132.431V76.0611H133.627V74.8315Z" fill="#EBEBEB"/>
<path d="M132.1 76.9219H130.904V78.1514H132.1V76.9219Z" fill="#EBEBEB"/>
<path d="M133.627 76.9219H132.431V78.1514H133.627V76.9219Z" fill="#EBEBEB"/>
<path d="M132.1 79.0088H130.904V80.2383H132.1V79.0088Z" fill="#EBEBEB"/>
<path d="M133.95 80.2422H135.146V79.0127H133.95V80.2422Z" fill="#EBEBEB"/>
<path d="M133.95 78.1516H135.146V76.9221H133.95V78.1516Z" fill="#EBEBEB"/>
<path d="M133.95 76.061H135.146V74.8315H133.95V76.061Z" fill="#EBEBEB"/>
<path d="M133.95 73.9741H135.146V72.7446H133.95V73.9741Z" fill="#EBEBEB"/>
<path d="M133.95 71.8835H135.146V70.654H133.95V71.8835Z" fill="#EBEBEB"/>
<path d="M133.95 69.793H135.146V68.5635H133.95V69.793Z" fill="#EBEBEB"/>
<path d="M133.95 67.7024H135.146V66.4729H133.95V67.7024Z" fill="#EBEBEB"/>
<path d="M133.95 65.6157H135.146V64.3862H133.95V65.6157Z" fill="#EBEBEB"/>
<path d="M133.95 63.5251H135.146V62.2956H133.95V63.5251Z" fill="#EBEBEB"/>
<path d="M133.95 61.4346H135.146V60.205H133.95V61.4346Z" fill="#EBEBEB"/>
<path d="M133.95 59.344H135.146V58.1145H133.95V59.344Z" fill="#EBEBEB"/>
<path d="M133.95 57.2571H135.146V56.0276H133.95V57.2571Z" fill="#EBEBEB"/>
<path d="M133.95 55.1667H135.146V53.9372H133.95V55.1667Z" fill="#EBEBEB"/>
<path d="M133.95 53.0723H135.146V51.8427H133.95V53.0723Z" fill="#EBEBEB"/>
<path d="M133.627 79.0088H132.431V80.2383H133.627V79.0088Z" fill="#EBEBEB"/>
<path d="M140.944 50.7976H136.097V83.0321H140.944V50.7976Z" fill="#A6A6A6"/>
<path d="M139.458 80.2422H140.447V79.0127H139.458V80.2422Z" fill="#C7C7C7"/>
<path d="M138.195 80.2422H139.184V79.0127H138.195V80.2422Z" fill="#C7C7C7"/>
<path d="M139.458 78.1516H140.447V76.9221H139.458V78.1516Z" fill="#C7C7C7"/>
<path d="M138.195 78.1516H139.184V76.9221H138.195V78.1516Z" fill="#C7C7C7"/>
<path d="M139.458 76.061H140.447V74.8315H139.458V76.061Z" fill="#C7C7C7"/>
<path d="M138.195 76.061H139.184V74.8315H138.195V76.061Z" fill="#C7C7C7"/>
<path d="M139.458 73.9741H140.447V72.7446H139.458V73.9741Z" fill="#C7C7C7"/>
<path d="M138.195 73.9741H139.184V72.7446H138.195V73.9741Z" fill="#C7C7C7"/>
<path d="M139.458 71.8835H140.447V70.654H139.458V71.8835Z" fill="#C7C7C7"/>
<path d="M138.195 71.8835H139.184V70.654H138.195V71.8835Z" fill="#C7C7C7"/>
<path d="M139.458 69.793H140.447V68.5635H139.458V69.793Z" fill="#C7C7C7"/>
<path d="M138.195 69.793H139.184V68.5635H138.195V69.793Z" fill="#C7C7C7"/>
<path d="M139.458 67.7024H140.447V66.4729H139.458V67.7024Z" fill="#C7C7C7"/>
<path d="M138.195 67.7024H139.184V66.4729H138.195V67.7024Z" fill="#C7C7C7"/>
<path d="M139.458 65.6157H140.447V64.3862H139.458V65.6157Z" fill="#C7C7C7"/>
<path d="M138.195 65.6157H139.184V64.3862H138.195V65.6157Z" fill="#C7C7C7"/>
<path d="M139.458 63.5251H140.447V62.2956H139.458V63.5251Z" fill="#C7C7C7"/>
<path d="M138.195 63.5251H139.184V62.2956H138.195V63.5251Z" fill="#C7C7C7"/>
<path d="M139.458 61.4346H140.447V60.205H139.458V61.4346Z" fill="#C7C7C7"/>
<path d="M138.195 61.4346H139.184V60.205H138.195V61.4346Z" fill="#C7C7C7"/>
<path d="M139.458 59.344H140.447V58.1145H139.458V59.344Z" fill="#C7C7C7"/>
<path d="M138.195 59.344H139.184V58.1145H138.195V59.344Z" fill="#C7C7C7"/>
<path d="M139.458 57.2571H140.447V56.0276H139.458V57.2571Z" fill="#C7C7C7"/>
<path d="M138.195 57.2571H139.184V56.0276H138.195V57.2571Z" fill="#C7C7C7"/>
<path d="M139.458 55.1667H140.447V53.9372H139.458V55.1667Z" fill="#C7C7C7"/>
<path d="M138.195 55.1667H139.184V53.9372H138.195V55.1667Z" fill="#C7C7C7"/>
<path d="M139.458 53.0723H140.447V51.8427H139.458V53.0723Z" fill="#C7C7C7"/>
<path d="M137.932 51.8464H136.943V53.076H137.932V51.8464Z" fill="#C7C7C7"/>
<path d="M137.932 53.9333H136.943V55.1629H137.932V53.9333Z" fill="#C7C7C7"/>
<path d="M137.932 56.0239H136.943V57.2534H137.932V56.0239Z" fill="#C7C7C7"/>
<path d="M137.932 58.1145H136.943V59.344H137.932V58.1145Z" fill="#C7C7C7"/>
<path d="M137.932 60.2051H136.943V61.4346H137.932V60.2051Z" fill="#C7C7C7"/>
<path d="M137.932 62.2917H136.943V63.5213H137.932V62.2917Z" fill="#C7C7C7"/>
<path d="M137.932 64.3823H136.943V65.6118H137.932V64.3823Z" fill="#C7C7C7"/>
<path d="M137.932 66.4729H136.943V67.7024H137.932V66.4729Z" fill="#C7C7C7"/>
<path d="M137.932 68.5635H136.943V69.793H137.932V68.5635Z" fill="#C7C7C7"/>
<path d="M137.932 70.6504H136.943V71.8799H137.932V70.6504Z" fill="#C7C7C7"/>
<path d="M137.932 72.741H136.943V73.9705H137.932V72.741Z" fill="#C7C7C7"/>
<path d="M137.932 74.8315H136.943V76.0611H137.932V74.8315Z" fill="#C7C7C7"/>
<path d="M137.932 76.9219H136.943V78.1514H137.932V76.9219Z" fill="#C7C7C7"/>
<path d="M137.932 79.0088H136.943V80.2383H137.932V79.0088Z" fill="#C7C7C7"/>
<path d="M138.195 53.0723H139.184V51.8427H138.195V53.0723Z" fill="#C7C7C7"/>
<path d="M101.34 49.0603H94.0639V83.0319H101.34V49.0603Z" fill="#EBEBEB"/>
<path d="M101.336 48.3159H93.8872V49.0604H101.336V48.3159Z" fill="#C7C7C7"/>
<path d="M95.4589 50.1545H94.7219V83.032H95.4589V50.1545Z" fill="white"/>
<path d="M96.7636 50.1545H96.0266V83.032H96.7636V50.1545Z" fill="white"/>
<path d="M98.0683 50.1545H97.3314V83.032H98.0683V50.1545Z" fill="white"/>
<path d="M99.373 50.1545H98.6361V83.032H99.373V50.1545Z" fill="white"/>
<path d="M100.678 50.1545H99.9408V83.032H100.678V50.1545Z" fill="white"/>
<path d="M95.4589 51.0945H94.7219V52.5609H95.4589V51.0945Z" fill="#EBEBEB"/>
<path d="M96.7636 51.0945H96.0266V52.5609H96.7636V51.0945Z" fill="#EBEBEB"/>
<path d="M98.0683 51.0945H97.3314V52.5609H98.0683V51.0945Z" fill="#EBEBEB"/>
<path d="M99.373 51.0945H98.6361V52.5609H99.373V51.0945Z" fill="#EBEBEB"/>
<path d="M100.678 51.0945H99.9408V52.5609H100.678V51.0945Z" fill="#EBEBEB"/>
<path d="M95.4589 53.4822H94.7219V54.9523H95.4589V53.4822Z" fill="#EBEBEB"/>
<path d="M96.7636 53.4822H96.0266V54.9523H96.7636V53.4822Z" fill="#EBEBEB"/>
<path d="M98.0683 53.4822H97.3314V54.9523H98.0683V53.4822Z" fill="#EBEBEB"/>
<path d="M99.373 53.4822H98.6361V54.9523H99.373V53.4822Z" fill="#EBEBEB"/>
<path d="M100.678 53.4822H99.9408V54.9523H100.678V53.4822Z" fill="#EBEBEB"/>
<path d="M95.4589 55.8699H94.7219V57.3363H95.4589V55.8699Z" fill="#EBEBEB"/>
<path d="M96.7636 55.8699H96.0266V57.3363H96.7636V55.8699Z" fill="#EBEBEB"/>
<path d="M98.0683 55.8699H97.3314V57.3363H98.0683V55.8699Z" fill="#EBEBEB"/>
<path d="M99.373 55.8699H98.6361V57.3363H99.373V55.8699Z" fill="#EBEBEB"/>
<path d="M100.678 55.8699H99.9408V57.3363H100.678V55.8699Z" fill="#EBEBEB"/>
<path d="M95.4589 58.2537H94.7219V59.7238H95.4589V58.2537Z" fill="#EBEBEB"/>
<path d="M96.7636 58.2537H96.0266V59.7238H96.7636V58.2537Z" fill="#EBEBEB"/>
<path d="M98.0683 58.2537H97.3314V59.7238H98.0683V58.2537Z" fill="#EBEBEB"/>
<path d="M99.373 58.2537H98.6361V59.7238H99.373V58.2537Z" fill="#EBEBEB"/>
<path d="M100.678 58.2537H99.9408V59.7238H100.678V58.2537Z" fill="#EBEBEB"/>
<path d="M95.4589 60.6411H94.7219V62.1075H95.4589V60.6411Z" fill="#EBEBEB"/>
<path d="M96.7636 60.6411H96.0266V62.1075H96.7636V60.6411Z" fill="#EBEBEB"/>
<path d="M98.0683 60.6411H97.3314V62.1075H98.0683V60.6411Z" fill="#EBEBEB"/>
<path d="M99.373 60.6411H98.6361V62.1075H99.373V60.6411Z" fill="#EBEBEB"/>
<path d="M100.678 60.6411H99.9408V62.1075H100.678V60.6411Z" fill="#EBEBEB"/>
<path d="M95.4589 63.0288H94.7219V64.499H95.4589V63.0288Z" fill="#EBEBEB"/>
<path d="M96.7636 63.0288H96.0266V64.499H96.7636V63.0288Z" fill="#EBEBEB"/>
<path d="M98.0683 63.0288H97.3314V64.499H98.0683V63.0288Z" fill="#EBEBEB"/>
<path d="M99.373 63.0288H98.6361V64.499H99.373V63.0288Z" fill="#EBEBEB"/>
<path d="M100.678 63.0288H99.9408V64.499H100.678V63.0288Z" fill="#EBEBEB"/>
<path d="M95.4589 65.4126H94.7219V66.879H95.4589V65.4126Z" fill="#EBEBEB"/>
<path d="M96.7636 65.4126H96.0266V66.879H96.7636V65.4126Z" fill="#EBEBEB"/>
<path d="M98.0683 65.4126H97.3314V66.879H98.0683V65.4126Z" fill="#EBEBEB"/>
<path d="M99.373 65.4126H98.6361V66.879H99.373V65.4126Z" fill="#EBEBEB"/>
<path d="M100.678 65.4126H99.9408V66.879H100.678V65.4126Z" fill="#EBEBEB"/>
<path d="M95.4589 67.8003H94.7219V69.2667H95.4589V67.8003Z" fill="#EBEBEB"/>
<path d="M96.7636 67.8003H96.0266V69.2667H96.7636V67.8003Z" fill="#EBEBEB"/>
<path d="M98.0683 67.8003H97.3314V69.2667H98.0683V67.8003Z" fill="#EBEBEB"/>
<path d="M99.373 67.8003H98.6361V69.2667H99.373V67.8003Z" fill="#EBEBEB"/>
<path d="M100.678 67.8003H99.9408V69.2667H100.678V67.8003Z" fill="#EBEBEB"/>
<path d="M95.4589 70.1877H94.7219V71.6579H95.4589V70.1877Z" fill="#EBEBEB"/>
<path d="M96.7636 70.1877H96.0266V71.6579H96.7636V70.1877Z" fill="#EBEBEB"/>
<path d="M98.0683 70.1877H97.3314V71.6579H98.0683V70.1877Z" fill="#EBEBEB"/>
<path d="M99.373 70.1877H98.6361V71.6579H99.373V70.1877Z" fill="#EBEBEB"/>
<path d="M100.678 70.1877H99.9408V71.6579H100.678V70.1877Z" fill="#EBEBEB"/>
<path d="M95.4589 72.5718H94.7219V74.0382H95.4589V72.5718Z" fill="#EBEBEB"/>
<path d="M96.7636 72.5718H96.0266V74.0382H96.7636V72.5718Z" fill="#EBEBEB"/>
<path d="M98.0683 72.5718H97.3314V74.0382H98.0683V72.5718Z" fill="#EBEBEB"/>
<path d="M99.373 72.5718H98.6361V74.0382H99.373V72.5718Z" fill="#EBEBEB"/>
<path d="M100.678 72.5718H99.9408V74.0382H100.678V72.5718Z" fill="#EBEBEB"/>
<path d="M95.4589 74.9592H94.7219V76.4256H95.4589V74.9592Z" fill="#EBEBEB"/>
<path d="M96.7636 74.9592H96.0266V76.4256H96.7636V74.9592Z" fill="#EBEBEB"/>
<path d="M98.0683 74.9592H97.3314V76.4256H98.0683V74.9592Z" fill="#EBEBEB"/>
<path d="M99.373 74.9592H98.6361V76.4256H99.373V74.9592Z" fill="#EBEBEB"/>
<path d="M100.678 74.9592H99.9408V76.4256H100.678V74.9592Z" fill="#EBEBEB"/>
<path d="M95.4589 77.343H94.7219V78.8094H95.4589V77.343Z" fill="#EBEBEB"/>
<path d="M96.7636 77.343H96.0266V78.8094H96.7636V77.343Z" fill="#EBEBEB"/>
<path d="M98.0683 77.343H97.3314V78.8094H98.0683V77.343Z" fill="#EBEBEB"/>
<path d="M99.373 77.343H98.6361V78.8094H99.373V77.343Z" fill="#EBEBEB"/>
<path d="M100.678 77.343H99.9408V78.8094H100.678V77.343Z" fill="#EBEBEB"/>
<path d="M95.4589 79.7307H94.7219V81.1971H95.4589V79.7307Z" fill="#EBEBEB"/>
<path d="M96.7636 79.7307H96.0266V81.1971H96.7636V79.7307Z" fill="#EBEBEB"/>
<path d="M98.0683 79.7307H97.3314V81.1971H98.0683V79.7307Z" fill="#EBEBEB"/>
<path d="M99.373 79.7307H98.6361V81.1971H99.373V79.7307Z" fill="#EBEBEB"/>
<path d="M100.678 79.7307H99.9408V81.1971H100.678V79.7307Z" fill="#EBEBEB"/>
<path d="M95.4589 82.1184H94.7219V83.0321H95.4589V82.1184Z" fill="#EBEBEB"/>
<path d="M96.7636 82.1184H96.0266V83.0321H96.7636V82.1184Z" fill="#EBEBEB"/>
<path d="M98.0683 82.1184H97.3314V83.0321H98.0683V82.1184Z" fill="#EBEBEB"/>
<path d="M99.373 82.1184H98.6361V83.0321H99.373V82.1184Z" fill="#EBEBEB"/>
<path d="M100.678 82.1184H99.9408V83.0321H100.678V82.1184Z" fill="#EBEBEB"/>
<path d="M106.006 49.0603H101.336V83.0319H106.006V49.0603Z" fill="#DBDBDB"/>
<path d="M106.209 48.3159H101.336V49.0604H106.209V48.3159Z" fill="#C7C7C7"/>
<path d="M102.731 50.1545H101.994V83.032H102.731V50.1545Z" fill="#C7C7C7"/>
<path d="M104.039 50.1545H103.302V83.032H104.039V50.1545Z" fill="#C7C7C7"/>
<path d="M105.344 50.1545H104.607V83.032H105.344V50.1545Z" fill="#C7C7C7"/>
<path d="M102.731 51.0945H101.994V52.5609H102.731V51.0945Z" fill="#DBDBDB"/>
<path d="M104.039 51.0945H103.302V52.5609H104.039V51.0945Z" fill="#DBDBDB"/>
<path d="M105.344 51.0945H104.607V52.5609H105.344V51.0945Z" fill="#DBDBDB"/>
<path d="M102.731 53.4822H101.994V54.9523H102.731V53.4822Z" fill="#DBDBDB"/>
<path d="M104.039 53.4822H103.302V54.9523H104.039V53.4822Z" fill="#DBDBDB"/>
<path d="M105.344 53.4822H104.607V54.9523H105.344V53.4822Z" fill="#DBDBDB"/>
<path d="M102.731 55.8699H101.994V57.3363H102.731V55.8699Z" fill="#DBDBDB"/>
<path d="M104.039 55.8699H103.302V57.3363H104.039V55.8699Z" fill="#DBDBDB"/>
<path d="M105.344 55.8699H104.607V57.3363H105.344V55.8699Z" fill="#DBDBDB"/>
<path d="M102.731 58.2537H101.994V59.7238H102.731V58.2537Z" fill="#DBDBDB"/>
<path d="M104.039 58.2537H103.302V59.7238H104.039V58.2537Z" fill="#DBDBDB"/>
<path d="M105.344 58.2537H104.607V59.7238H105.344V58.2537Z" fill="#DBDBDB"/>
<path d="M102.731 60.6411H101.994V62.1075H102.731V60.6411Z" fill="#DBDBDB"/>
<path d="M104.039 60.6411H103.302V62.1075H104.039V60.6411Z" fill="#DBDBDB"/>
<path d="M105.344 60.6411H104.607V62.1075H105.344V60.6411Z" fill="#DBDBDB"/>
<path d="M102.731 63.0288H101.994V64.499H102.731V63.0288Z" fill="#DBDBDB"/>
<path d="M104.039 63.0288H103.302V64.499H104.039V63.0288Z" fill="#DBDBDB"/>
<path d="M105.344 63.0288H104.607V64.499H105.344V63.0288Z" fill="#DBDBDB"/>
<path d="M102.731 65.4126H101.994V66.879H102.731V65.4126Z" fill="#DBDBDB"/>
<path d="M104.039 65.4126H103.302V66.879H104.039V65.4126Z" fill="#DBDBDB"/>
<path d="M105.344 65.4126H104.607V66.879H105.344V65.4126Z" fill="#DBDBDB"/>
<path d="M102.731 67.8003H101.994V69.2667H102.731V67.8003Z" fill="#DBDBDB"/>
<path d="M104.039 67.8003H103.302V69.2667H104.039V67.8003Z" fill="#DBDBDB"/>
<path d="M105.344 67.8003H104.607V69.2667H105.344V67.8003Z" fill="#DBDBDB"/>
<path d="M102.731 70.1877H101.994V71.6579H102.731V70.1877Z" fill="#DBDBDB"/>
<path d="M104.039 70.1877H103.302V71.6579H104.039V70.1877Z" fill="#DBDBDB"/>
<path d="M105.344 70.1877H104.607V71.6579H105.344V70.1877Z" fill="#DBDBDB"/>
<path d="M102.731 72.5718H101.994V74.0382H102.731V72.5718Z" fill="#DBDBDB"/>
<path d="M104.039 72.5718H103.302V74.0382H104.039V72.5718Z" fill="#DBDBDB"/>
<path d="M105.344 72.5718H104.607V74.0382H105.344V72.5718Z" fill="#DBDBDB"/>
<path d="M102.731 74.9592H101.994V76.4256H102.731V74.9592Z" fill="#DBDBDB"/>
<path d="M104.039 74.9592H103.302V76.4256H104.039V74.9592Z" fill="#DBDBDB"/>
<path d="M105.344 74.9592H104.607V76.4256H105.344V74.9592Z" fill="#DBDBDB"/>
<path d="M102.731 77.343H101.994V78.8094H102.731V77.343Z" fill="#DBDBDB"/>
<path d="M104.039 77.343H103.302V78.8094H104.039V77.343Z" fill="#DBDBDB"/>
<path d="M105.344 77.343H104.607V78.8094H105.344V77.343Z" fill="#DBDBDB"/>
<path d="M102.731 79.7307H101.994V81.1971H102.731V79.7307Z" fill="#DBDBDB"/>
<path d="M104.039 79.7307H103.302V81.1971H104.039V79.7307Z" fill="#DBDBDB"/>
<path d="M105.344 79.7307H104.607V81.1971H105.344V79.7307Z" fill="#DBDBDB"/>
<path d="M102.731 82.1184H101.994V83.0321H102.731V82.1184Z" fill="#DBDBDB"/>
<path d="M104.039 82.1184H103.302V83.0321H104.039V82.1184Z" fill="#DBDBDB"/>
<path d="M105.344 82.1184H104.607V83.0321H105.344V82.1184Z" fill="#DBDBDB"/>
<path d="M85.3407 61.5437H78.099V83.0321H85.3407V61.5437Z" fill="#EBEBEB"/>
<path d="M85.3407 59.7236H79.1292V61.5472H85.3407V59.7236Z" fill="#C7C7C7"/>
<path d="M84.5511 62.4949H78.8961V83.032H84.5511V62.4949Z" fill="#DBDBDB"/>
<path d="M84.5511 64.4575H78.8961V64.9426H84.5511V64.4575Z" fill="white"/>
<path d="M84.5511 66.4653H78.8961V66.9504H84.5511V66.4653Z" fill="white"/>
<path d="M84.5511 68.4771H78.8961V68.9621H84.5511V68.4771Z" fill="white"/>
<path d="M84.5511 70.4849H78.8961V70.9699H84.5511V70.4849Z" fill="white"/>
<path d="M84.5511 72.4966H78.8961V72.9816H84.5511V72.4966Z" fill="white"/>
<path d="M84.5511 74.5081H78.8961V74.9931H84.5511V74.5081Z" fill="white"/>
<path d="M84.5511 76.5159H78.8961V77.0009H84.5511V76.5159Z" fill="white"/>
<path d="M84.5511 78.5276H78.8961V79.0126H84.5511V78.5276Z" fill="white"/>
<path d="M84.5511 80.5354H78.8961V81.0204H84.5511V80.5354Z" fill="white"/>
<path d="M84.5511 82.5469H78.8961V83.0319H84.5511V82.5469Z" fill="white"/>
<path d="M89.8828 61.5437H85.3445V83.0321H89.8828V61.5437Z" fill="#DBDBDB"/>
<path d="M89.2022 59.7236H85.3445V61.5472H89.2022V59.7236Z" fill="#A6A6A6"/>
<path d="M89.4579 62.4949H85.9686V83.032H89.4579V62.4949Z" fill="#C7C7C7"/>
<path d="M89.4579 64.4575H85.9686V64.9426H89.4579V64.4575Z" fill="white"/>
<path d="M89.4579 66.4653H85.9686V66.9504H89.4579V66.4653Z" fill="white"/>
<path d="M89.4579 68.4771H85.9686V68.9621H89.4579V68.4771Z" fill="white"/>
<path d="M89.4579 70.4849H85.9686V70.9699H89.4579V70.4849Z" fill="white"/>
<path d="M89.4579 72.4966H85.9686V72.9816H89.4579V72.4966Z" fill="white"/>
<path d="M89.4579 74.5081H85.9686V74.9931H89.4579V74.5081Z" fill="white"/>
<path d="M89.4579 76.5159H85.9686V77.0009H89.4579V76.5159Z" fill="white"/>
<path d="M89.4579 78.5276H85.9686V79.0126H89.4579V78.5276Z" fill="white"/>
<path d="M89.4579 80.5354H85.9686V81.0204H89.4579V80.5354Z" fill="white"/>
<path d="M89.4579 82.5469H85.9686V83.0319H89.4579V82.5469Z" fill="white"/>
<path d="M126.404 61.5437H119.162V83.0321H126.404V61.5437Z" fill="#EBEBEB"/>
<path d="M126.404 59.7236H120.192V61.5472H126.404V59.7236Z" fill="#C7C7C7"/>
<path d="M125.614 62.4949H119.959V83.032H125.614V62.4949Z" fill="#DBDBDB"/>
<path d="M125.614 64.4575H119.959V64.9426H125.614V64.4575Z" fill="white"/>
<path d="M125.614 66.4653H119.959V66.9504H125.614V66.4653Z" fill="white"/>
<path d="M125.614 68.4771H119.959V68.9621H125.614V68.4771Z" fill="white"/>
<path d="M125.614 70.4849H119.959V70.9699H125.614V70.4849Z" fill="white"/>
<path d="M125.614 72.4966H119.959V72.9816H125.614V72.4966Z" fill="white"/>
<path d="M125.614 74.5081H119.959V74.9931H125.614V74.5081Z" fill="white"/>
<path d="M125.614 76.5159H119.959V77.0009H125.614V76.5159Z" fill="white"/>
<path d="M125.614 78.5276H119.959V79.0126H125.614V78.5276Z" fill="white"/>
<path d="M125.614 80.5354H119.959V81.0204H125.614V80.5354Z" fill="white"/>
<path d="M125.614 82.5469H119.959V83.0319H125.614V82.5469Z" fill="white"/>
<path d="M130.946 61.5437H126.407V83.0321H130.946V61.5437Z" fill="#DBDBDB"/>
<path d="M130.265 59.7236H126.407V61.5472H130.265V59.7236Z" fill="#A6A6A6"/>
<path d="M130.521 62.4949H127.032V83.032H130.521V62.4949Z" fill="#C7C7C7"/>
<path d="M130.521 64.4575H127.032V64.9426H130.521V64.4575Z" fill="white"/>
<path d="M130.521 66.4653H127.032V66.9504H130.521V66.4653Z" fill="white"/>
<path d="M130.521 68.4771H127.032V68.9621H130.521V68.4771Z" fill="white"/>
<path d="M130.521 70.4849H127.032V70.9699H130.521V70.4849Z" fill="white"/>
<path d="M130.521 72.4966H127.032V72.9816H130.521V72.4966Z" fill="white"/>
<path d="M130.521 74.5081H127.032V74.9931H130.521V74.5081Z" fill="white"/>
<path d="M130.521 76.5159H127.032V77.0009H130.521V76.5159Z" fill="white"/>
<path d="M130.521 78.5276H127.032V79.0126H130.521V78.5276Z" fill="white"/>
<path d="M130.521 80.5354H127.032V81.0204H130.521V80.5354Z" fill="white"/>
<path d="M130.521 82.5469H127.032V83.0319H130.521V82.5469Z" fill="white"/>
<path d="M106.619 59.8779H100.099V83.0358H106.619V59.8779Z" fill="#DBDBDB"/>
<path d="M102.28 61.145H101.125V62.0437H102.28V61.145Z" fill="#C7C7C7"/>
<path d="M102.28 63.0588H101.125V63.9575H102.28V63.0588Z" fill="#C7C7C7"/>
<path d="M102.28 64.9766H101.125V65.8752H102.28V64.9766Z" fill="#C7C7C7"/>
<path d="M102.28 66.894H101.125V67.7927H102.28V66.894Z" fill="#C7C7C7"/>
<path d="M102.28 68.8118H101.125V69.7104H102.28V68.8118Z" fill="#C7C7C7"/>
<path d="M102.28 70.7256H101.125V71.6242H102.28V70.7256Z" fill="#C7C7C7"/>
<path d="M102.28 72.6431H101.125V73.5417H102.28V72.6431Z" fill="#C7C7C7"/>
<path d="M103.941 61.145H102.787V62.0437H103.941V61.145Z" fill="#C7C7C7"/>
<path d="M103.941 63.0588H102.787V63.9575H103.941V63.0588Z" fill="#C7C7C7"/>
<path d="M103.941 64.9766H102.787V65.8752H103.941V64.9766Z" fill="#C7C7C7"/>
<path d="M103.941 66.894H102.787V67.7927H103.941V66.894Z" fill="#C7C7C7"/>
<path d="M103.941 68.8118H102.787V69.7104H103.941V68.8118Z" fill="#C7C7C7"/>
<path d="M103.941 70.7256H102.787V71.6242H103.941V70.7256Z" fill="#C7C7C7"/>
<path d="M103.941 72.6431H102.787V73.5417H103.941V72.6431Z" fill="#C7C7C7"/>
<path d="M105.596 61.145H104.442V62.0437H105.596V61.145Z" fill="#C7C7C7"/>
<path d="M105.596 63.0588H104.442V63.9575H105.596V63.0588Z" fill="#C7C7C7"/>
<path d="M105.596 64.9766H104.442V65.8752H105.596V64.9766Z" fill="#C7C7C7"/>
<path d="M105.596 66.894H104.442V67.7927H105.596V66.894Z" fill="#C7C7C7"/>
<path d="M105.596 68.8118H104.442V69.7104H105.596V68.8118Z" fill="#C7C7C7"/>
<path d="M105.596 70.7256H104.442V71.6242H105.596V70.7256Z" fill="#C7C7C7"/>
<path d="M105.596 72.6431H104.442V73.5417H105.596V72.6431Z" fill="#C7C7C7"/>
<path d="M102.28 74.5608H101.125V75.4594H102.28V74.5608Z" fill="#C7C7C7"/>
<path d="M103.941 74.5608H102.787V75.4594H103.941V74.5608Z" fill="#C7C7C7"/>
<path d="M105.596 74.5608H104.442V75.4594H105.596V74.5608Z" fill="#C7C7C7"/>
<path d="M102.28 76.4746H101.125V77.3732H102.28V76.4746Z" fill="#C7C7C7"/>
<path d="M103.941 76.4746H102.787V77.3732H103.941V76.4746Z" fill="#C7C7C7"/>
<path d="M105.596 76.4746H104.442V77.3732H105.596V76.4746Z" fill="#C7C7C7"/>
<path d="M102.28 78.3921H101.125V79.2907H102.28V78.3921Z" fill="#C7C7C7"/>
<path d="M103.941 78.3921H102.787V79.2907H103.941V78.3921Z" fill="#C7C7C7"/>
<path d="M105.596 78.3921H104.442V79.2907H105.596V78.3921Z" fill="#C7C7C7"/>
<path d="M102.28 80.3098H101.125V81.2085H102.28V80.3098Z" fill="#C7C7C7"/>
<path d="M103.941 80.3098H102.787V81.2085H103.941V80.3098Z" fill="#C7C7C7"/>
<path d="M105.596 80.3098H104.442V81.2085H105.596V80.3098Z" fill="#C7C7C7"/>
<path d="M111.194 59.8779H106.619V83.0358H111.194V59.8779Z" fill="#A6A6A6"/>
<path d="M109.784 73.3989H110.724V72.5003H109.784V73.3989Z" fill="#C7C7C7"/>
<path d="M109.784 71.4812H110.724V70.5826H109.784V71.4812Z" fill="#C7C7C7"/>
<path d="M109.784 69.5637H110.724V68.6651H109.784V69.5637Z" fill="#C7C7C7"/>
<path d="M109.784 67.646H110.724V66.7474H109.784V67.646Z" fill="#C7C7C7"/>
<path d="M109.784 65.7322H110.724V64.8335H109.784V65.7322Z" fill="#C7C7C7"/>
<path d="M109.784 63.8147H110.724V62.9161H109.784V63.8147Z" fill="#C7C7C7"/>
<path d="M109.784 61.897H110.724V60.9983H109.784V61.897Z" fill="#C7C7C7"/>
<path d="M108.435 73.3989H109.375V72.5003H108.435V73.3989Z" fill="#C7C7C7"/>
<path d="M108.435 71.4812H109.375V70.5826H108.435V71.4812Z" fill="#C7C7C7"/>
<path d="M108.435 69.5637H109.375V68.6651H108.435V69.5637Z" fill="#C7C7C7"/>
<path d="M108.435 67.646H109.375V66.7474H108.435V67.646Z" fill="#C7C7C7"/>
<path d="M108.435 65.7322H109.375V64.8335H108.435V65.7322Z" fill="#C7C7C7"/>
<path d="M108.435 63.8147H109.375V62.9161H108.435V63.8147Z" fill="#C7C7C7"/>
<path d="M108.435 61.897H109.375V60.9983H108.435V61.897Z" fill="#C7C7C7"/>
<path d="M107.089 73.3989H108.029V72.5003H107.089V73.3989Z" fill="#C7C7C7"/>
<path d="M107.089 71.4812H108.029V70.5826H107.089V71.4812Z" fill="#C7C7C7"/>
<path d="M109.784 75.3127H110.724V74.4141H109.784V75.3127Z" fill="#C7C7C7"/>
<path d="M108.435 75.3127H109.375V74.4141H108.435V75.3127Z" fill="#C7C7C7"/>
<path d="M107.089 75.3127H108.029V74.4141H107.089V75.3127Z" fill="#C7C7C7"/>
<path d="M109.784 77.2302H110.724V76.3316H109.784V77.2302Z" fill="#C7C7C7"/>
<path d="M108.435 77.2302H109.375V76.3316H108.435V77.2302Z" fill="#C7C7C7"/>
<path d="M107.089 77.2302H108.029V76.3316H107.089V77.2302Z" fill="#C7C7C7"/>
<path d="M109.784 79.1479H110.724V78.2493H109.784V79.1479Z" fill="#C7C7C7"/>
<path d="M108.435 79.1479H109.375V78.2493H108.435V79.1479Z" fill="#C7C7C7"/>
<path d="M107.089 79.1479H108.029V78.2493H107.089V79.1479Z" fill="#C7C7C7"/>
<path d="M109.784 81.0618H110.724V80.1631H109.784V81.0618Z" fill="#C7C7C7"/>
<path d="M108.435 81.0618H109.375V80.1631H108.435V81.0618Z" fill="#C7C7C7"/>
<path d="M107.089 81.0618H108.029V80.1631H107.089V81.0618Z" fill="#C7C7C7"/>
<path d="M107.089 69.5637H108.029V68.6651H107.089V69.5637Z" fill="#C7C7C7"/>
<path d="M107.089 67.646H108.029V66.7474H107.089V67.646Z" fill="#C7C7C7"/>
<path d="M107.089 65.7322H108.029V64.8335H107.089V65.7322Z" fill="#C7C7C7"/>
<path d="M107.089 63.8147H108.029V62.9161H107.089V63.8147Z" fill="#C7C7C7"/>
<path d="M107.089 61.897H108.029V60.9983H107.089V61.897Z" fill="#C7C7C7"/>
<path d="M159.202 59.8779H152.682V83.0358H159.202V59.8779Z" fill="#DBDBDB"/>
<path d="M154.863 61.145H153.709V62.0437H154.863V61.145Z" fill="#C7C7C7"/>
<path d="M154.863 63.0588H153.709V63.9575H154.863V63.0588Z" fill="#C7C7C7"/>
<path d="M154.863 64.9766H153.709V65.8752H154.863V64.9766Z" fill="#C7C7C7"/>
<path d="M154.863 66.894H153.709V67.7927H154.863V66.894Z" fill="#C7C7C7"/>
<path d="M154.863 68.8118H153.709V69.7104H154.863V68.8118Z" fill="#C7C7C7"/>
<path d="M154.863 70.7256H153.709V71.6242H154.863V70.7256Z" fill="#C7C7C7"/>
<path d="M154.863 72.6431H153.709V73.5417H154.863V72.6431Z" fill="#C7C7C7"/>
<path d="M156.521 61.145H155.367V62.0437H156.521V61.145Z" fill="#C7C7C7"/>
<path d="M156.521 63.0588H155.367V63.9575H156.521V63.0588Z" fill="#C7C7C7"/>
<path d="M156.521 64.9766H155.367V65.8752H156.521V64.9766Z" fill="#C7C7C7"/>
<path d="M156.521 66.894H155.367V67.7927H156.521V66.894Z" fill="#C7C7C7"/>
<path d="M156.521 68.8118H155.367V69.7104H156.521V68.8118Z" fill="#C7C7C7"/>
<path d="M156.521 70.7256H155.367V71.6242H156.521V70.7256Z" fill="#C7C7C7"/>
<path d="M156.521 72.6431H155.367V73.5417H156.521V72.6431Z" fill="#C7C7C7"/>
<path d="M158.179 61.145H157.025V62.0437H158.179V61.145Z" fill="#C7C7C7"/>
<path d="M158.179 63.0588H157.025V63.9575H158.179V63.0588Z" fill="#C7C7C7"/>
<path d="M158.179 64.9766H157.025V65.8752H158.179V64.9766Z" fill="#C7C7C7"/>
<path d="M158.179 66.894H157.025V67.7927H158.179V66.894Z" fill="#C7C7C7"/>
<path d="M158.179 68.8118H157.025V69.7104H158.179V68.8118Z" fill="#C7C7C7"/>
<path d="M158.179 70.7256H157.025V71.6242H158.179V70.7256Z" fill="#C7C7C7"/>
<path d="M158.179 72.6431H157.025V73.5417H158.179V72.6431Z" fill="#C7C7C7"/>
<path d="M154.863 74.5608H153.709V75.4594H154.863V74.5608Z" fill="#C7C7C7"/>
<path d="M156.521 74.5608H155.367V75.4594H156.521V74.5608Z" fill="#C7C7C7"/>
<path d="M158.179 74.5608H157.025V75.4594H158.179V74.5608Z" fill="#C7C7C7"/>
<path d="M154.863 76.4746H153.709V77.3732H154.863V76.4746Z" fill="#C7C7C7"/>
<path d="M156.521 76.4746H155.367V77.3732H156.521V76.4746Z" fill="#C7C7C7"/>
<path d="M158.179 76.4746H157.025V77.3732H158.179V76.4746Z" fill="#C7C7C7"/>
<path d="M154.863 78.3921H153.709V79.2907H154.863V78.3921Z" fill="#C7C7C7"/>
<path d="M156.521 78.3921H155.367V79.2907H156.521V78.3921Z" fill="#C7C7C7"/>
<path d="M158.179 78.3921H157.025V79.2907H158.179V78.3921Z" fill="#C7C7C7"/>
<path d="M154.863 80.3098H153.709V81.2085H154.863V80.3098Z" fill="#C7C7C7"/>
<path d="M156.521 80.3098H155.367V81.2085H156.521V80.3098Z" fill="#C7C7C7"/>
<path d="M158.179 80.3098H157.025V81.2085H158.179V80.3098Z" fill="#C7C7C7"/>
<path d="M163.778 59.8779H159.202V83.0358H163.778V59.8779Z" fill="#A6A6A6"/>
<path d="M162.372 73.3989H163.312V72.5003H162.372V73.3989Z" fill="#C7C7C7"/>
<path d="M162.372 71.4812H163.312V70.5826H162.372V71.4812Z" fill="#C7C7C7"/>
<path d="M162.372 69.5637H163.312V68.6651H162.372V69.5637Z" fill="#C7C7C7"/>
<path d="M162.372 67.646H163.312V66.7474H162.372V67.646Z" fill="#C7C7C7"/>
<path d="M162.372 65.7322H163.312V64.8335H162.372V65.7322Z" fill="#C7C7C7"/>
<path d="M162.372 63.8147H163.312V62.9161H162.372V63.8147Z" fill="#C7C7C7"/>
<path d="M162.372 61.897H163.312V60.9983H162.372V61.897Z" fill="#C7C7C7"/>
<path d="M161.018 73.3989H161.958V72.5003H161.018V73.3989Z" fill="#C7C7C7"/>
<path d="M161.018 71.4812H161.958V70.5826H161.018V71.4812Z" fill="#C7C7C7"/>
<path d="M161.018 69.5637H161.958V68.6651H161.018V69.5637Z" fill="#C7C7C7"/>
<path d="M161.018 67.646H161.958V66.7474H161.018V67.646Z" fill="#C7C7C7"/>
<path d="M161.018 65.7322H161.958V64.8335H161.018V65.7322Z" fill="#C7C7C7"/>
<path d="M161.018 63.8147H161.958V62.9161H161.018V63.8147Z" fill="#C7C7C7"/>
<path d="M161.018 61.897H161.958V60.9983H161.018V61.897Z" fill="#C7C7C7"/>
<path d="M159.668 73.3989H160.608V72.5003H159.668V73.3989Z" fill="#C7C7C7"/>
<path d="M159.668 71.4812H160.608V70.5826H159.668V71.4812Z" fill="#C7C7C7"/>
<path d="M162.372 75.3127H163.312V74.4141H162.372V75.3127Z" fill="#C7C7C7"/>
<path d="M161.018 75.3127H161.958V74.4141H161.018V75.3127Z" fill="#C7C7C7"/>
<path d="M159.668 75.3127H160.608V74.4141H159.668V75.3127Z" fill="#C7C7C7"/>
<path d="M162.372 77.2302H163.312V76.3316H162.372V77.2302Z" fill="#C7C7C7"/>
<path d="M161.018 77.2302H161.958V76.3316H161.018V77.2302Z" fill="#C7C7C7"/>
<path d="M159.668 77.2302H160.608V76.3316H159.668V77.2302Z" fill="#C7C7C7"/>
<path d="M162.372 79.1479H163.312V78.2493H162.372V79.1479Z" fill="#C7C7C7"/>
<path d="M161.018 79.1479H161.958V78.2493H161.018V79.1479Z" fill="#C7C7C7"/>
<path d="M159.668 79.1479H160.608V78.2493H159.668V79.1479Z" fill="#C7C7C7"/>
<path d="M162.372 81.0618H163.312V80.1631H162.372V81.0618Z" fill="#C7C7C7"/>
<path d="M161.018 81.0618H161.958V80.1631H161.018V81.0618Z" fill="#C7C7C7"/>
<path d="M159.668 81.0618H160.608V80.1631H159.668V81.0618Z" fill="#C7C7C7"/>
<path d="M159.668 69.5637H160.608V68.6651H159.668V69.5637Z" fill="#C7C7C7"/>
<path d="M159.668 67.646H160.608V66.7474H159.668V67.646Z" fill="#C7C7C7"/>
<path d="M159.668 65.7322H160.608V64.8335H159.668V65.7322Z" fill="#C7C7C7"/>
<path d="M159.668 63.8147H160.608V62.9161H159.668V63.8147Z" fill="#C7C7C7"/>
<path d="M159.668 61.897H160.608V60.9983H159.668V61.897Z" fill="#C7C7C7"/>
<path d="M145.504 56.0239H141.635V60.5923H145.504V56.0239Z" fill="#DBDBDB"/>
<path d="M147.956 56.0239H145.504V60.7615H147.956V56.0239Z" fill="#C7C7C7"/>
<path d="M148.118 58.043H145.685V60.7615H148.118V58.043Z" fill="#DBDBDB"/>
<path d="M149.637 58.043H148.118V60.7615H149.637V58.043Z" fill="#C7C7C7"/>
<path d="M146.407 60.2991H140.15V83.0358H146.407V60.2991Z" fill="#EBEBEB"/>
<path d="M142.831 61.2729H140.865V62.0776H142.831V61.2729Z" fill="white"/>
<path d="M145.347 61.2729H143.38V62.0776H145.347V61.2729Z" fill="white"/>
<path d="M142.831 62.6377H140.865V63.4423H142.831V62.6377Z" fill="white"/>
<path d="M145.347 62.6377H143.38V63.4423H145.347V62.6377Z" fill="white"/>
<path d="M142.831 64.0027H140.865V64.8073H142.831V64.0027Z" fill="white"/>
<path d="M145.347 64.0027H143.38V64.8073H145.347V64.0027Z" fill="white"/>
<path d="M142.831 65.3674H140.865V66.1721H142.831V65.3674Z" fill="white"/>
<path d="M145.347 65.3674H143.38V66.1721H145.347V65.3674Z" fill="white"/>
<path d="M142.831 66.7324H140.865V67.5371H142.831V66.7324Z" fill="white"/>
<path d="M145.347 66.7324H143.38V67.5371H145.347V66.7324Z" fill="white"/>
<path d="M142.831 68.0972H140.865V68.9018H142.831V68.0972Z" fill="white"/>
<path d="M145.347 68.0972H143.38V68.9018H145.347V68.0972Z" fill="white"/>
<path d="M142.831 69.4622H140.865V70.2668H142.831V69.4622Z" fill="white"/>
<path d="M145.347 69.4622H143.38V70.2668H145.347V69.4622Z" fill="white"/>
<path d="M142.831 70.8271H140.865V71.6318H142.831V70.8271Z" fill="white"/>
<path d="M145.347 70.8271H143.38V71.6318H145.347V70.8271Z" fill="white"/>
<path d="M142.831 72.1919H140.865V72.9965H142.831V72.1919Z" fill="white"/>
<path d="M145.347 72.1919H143.38V72.9965H145.347V72.1919Z" fill="white"/>
<path d="M142.831 73.5569H140.865V74.3615H142.831V73.5569Z" fill="white"/>
<path d="M145.347 73.5569H143.38V74.3615H145.347V73.5569Z" fill="white"/>
<path d="M142.831 74.9216H140.865V75.7263H142.831V74.9216Z" fill="white"/>
<path d="M145.347 74.9216H143.38V75.7263H145.347V74.9216Z" fill="white"/>
<path d="M142.831 76.2866H140.865V77.0913H142.831V76.2866Z" fill="white"/>
<path d="M145.347 76.2866H143.38V77.0913H145.347V76.2866Z" fill="white"/>
<path d="M142.831 77.6514H140.865V78.456H142.831V77.6514Z" fill="white"/>
<path d="M145.347 77.6514H143.38V78.456H145.347V77.6514Z" fill="white"/>
<path d="M142.831 79.0164H140.865V79.821H142.831V79.0164Z" fill="white"/>
<path d="M145.347 79.0164H143.38V79.821H145.347V79.0164Z" fill="white"/>
<path d="M151.475 60.2991H146.407V83.0358H151.475V60.2991Z" fill="#C7C7C7"/>
<path d="M149.351 79.8171H150.968V79.0125H149.351V79.8171Z" fill="#EBEBEB"/>
<path d="M147.283 79.8171H148.9V79.0125H147.283V79.8171Z" fill="#EBEBEB"/>
<path d="M149.351 78.4524H150.968V77.6478H149.351V78.4524Z" fill="#EBEBEB"/>
<path d="M147.283 78.4524H148.9V77.6478H147.283V78.4524Z" fill="#EBEBEB"/>
<path d="M149.351 77.0874H150.968V76.2828H149.351V77.0874Z" fill="#EBEBEB"/>
<path d="M147.283 77.0874H148.9V76.2828H147.283V77.0874Z" fill="#EBEBEB"/>
<path d="M149.351 75.7227H150.968V74.918H149.351V75.7227Z" fill="#EBEBEB"/>
<path d="M147.283 75.7227H148.9V74.918H147.283V75.7227Z" fill="#EBEBEB"/>
<path d="M149.351 74.3613H150.968V73.5567H149.351V74.3613Z" fill="#EBEBEB"/>
<path d="M147.283 74.3613H148.9V73.5567H147.283V74.3613Z" fill="#EBEBEB"/>
<path d="M149.351 72.9966H150.968V72.1919H149.351V72.9966Z" fill="#EBEBEB"/>
<path d="M147.283 72.9966H148.9V72.1919H147.283V72.9966Z" fill="#EBEBEB"/>
<path d="M149.351 71.6316H150.968V70.827H149.351V71.6316Z" fill="#EBEBEB"/>
<path d="M147.283 71.6316H148.9V70.827H147.283V71.6316Z" fill="#EBEBEB"/>
<path d="M149.351 70.2668H150.968V69.4622H149.351V70.2668Z" fill="#EBEBEB"/>
<path d="M147.283 70.2668H148.9V69.4622H147.283V70.2668Z" fill="#EBEBEB"/>
<path d="M149.351 68.9019H150.968V68.0972H149.351V68.9019Z" fill="#EBEBEB"/>
<path d="M147.283 68.9019H148.9V68.0972H147.283V68.9019Z" fill="#EBEBEB"/>
<path d="M149.351 67.5371H150.968V66.7325H149.351V67.5371Z" fill="#EBEBEB"/>
<path d="M147.283 67.5371H148.9V66.7325H147.283V67.5371Z" fill="#EBEBEB"/>
<path d="M149.351 66.1721H150.968V65.3675H149.351V66.1721Z" fill="#EBEBEB"/>
<path d="M147.283 66.1721H148.9V65.3675H147.283V66.1721Z" fill="#EBEBEB"/>
<path d="M149.351 64.8074H150.968V64.0027H149.351V64.8074Z" fill="#EBEBEB"/>
<path d="M147.283 64.8074H148.9V64.0027H147.283V64.8074Z" fill="#EBEBEB"/>
<path d="M149.351 63.446H150.968V62.6414H149.351V63.446Z" fill="#EBEBEB"/>
<path d="M147.283 63.446H148.9V62.6414H147.283V63.446Z" fill="#EBEBEB"/>
<path d="M149.351 62.0813H150.968V61.2767H149.351V62.0813Z" fill="#EBEBEB"/>
<path d="M147.283 62.0813H148.9V61.2767H147.283V62.0813Z" fill="#EBEBEB"/>
<path d="M119.805 68.2175H112.428V83.0319H119.805V68.2175Z" fill="#C7C7C7"/>
<path d="M114.894 69.4998H113.59V70.4059H114.894V69.4998Z" fill="#DBDBDB"/>
<path d="M114.894 71.4399H113.59V72.3461H114.894V71.4399Z" fill="#DBDBDB"/>
<path d="M114.894 73.3762H113.59V74.2824H114.894V73.3762Z" fill="#DBDBDB"/>
<path d="M114.894 75.3164H113.59V76.2226H114.894V75.3164Z" fill="#DBDBDB"/>
<path d="M114.894 77.2566H113.59V78.1628H114.894V77.2566Z" fill="#DBDBDB"/>
<path d="M114.894 79.1931H113.59V80.0993H114.894V79.1931Z" fill="#DBDBDB"/>
<path d="M114.894 81.1333H113.59V82.0395H114.894V81.1333Z" fill="#DBDBDB"/>
<path d="M116.771 69.4998H115.466V70.4059H116.771V69.4998Z" fill="#DBDBDB"/>
<path d="M116.771 71.4399H115.466V72.3461H116.771V71.4399Z" fill="#DBDBDB"/>
<path d="M116.771 73.3762H115.466V74.2824H116.771V73.3762Z" fill="#DBDBDB"/>
<path d="M116.771 75.3164H115.466V76.2226H116.771V75.3164Z" fill="#DBDBDB"/>
<path d="M116.771 77.2566H115.466V78.1628H116.771V77.2566Z" fill="#DBDBDB"/>
<path d="M116.771 79.1931H115.466V80.0993H116.771V79.1931Z" fill="#DBDBDB"/>
<path d="M116.771 81.1333H115.466V82.0395H116.771V81.1333Z" fill="#DBDBDB"/>
<path d="M118.647 69.4998H117.342V70.4059H118.647V69.4998Z" fill="#DBDBDB"/>
<path d="M118.647 71.4399H117.342V72.3461H118.647V71.4399Z" fill="#DBDBDB"/>
<path d="M118.647 73.3762H117.342V74.2824H118.647V73.3762Z" fill="#DBDBDB"/>
<path d="M118.647 75.3164H117.342V76.2226H118.647V75.3164Z" fill="#DBDBDB"/>
<path d="M118.647 77.2566H117.342V78.1628H118.647V77.2566Z" fill="#DBDBDB"/>
<path d="M118.647 79.1931H117.342V80.0993H118.647V79.1931Z" fill="#DBDBDB"/>
<path d="M118.647 81.1333H117.342V82.0395H118.647V81.1333Z" fill="#DBDBDB"/>
<path d="M119.805 66.676H114.894V68.2214H119.805V66.676Z" fill="#DBDBDB"/>
<path d="M119.805 65.7173H116.692V66.6723H119.805V65.7173Z" fill="#EBEBEB"/>
<path d="M124.986 68.2175H119.809V83.0319H124.986V68.2175Z" fill="#A6A6A6"/>
<path d="M123.388 81.8965H124.452V80.9903H123.388V81.8965Z" fill="#C7C7C7"/>
<path d="M123.388 79.9563H124.452V79.0501H123.388V79.9563Z" fill="#C7C7C7"/>
<path d="M123.388 78.0161H124.452V77.11H123.388V78.0161Z" fill="#C7C7C7"/>
<path d="M123.388 76.0798H124.452V75.1737H123.388V76.0798Z" fill="#C7C7C7"/>
<path d="M123.388 74.1396H124.452V73.2335H123.388V74.1396Z" fill="#C7C7C7"/>
<path d="M123.388 72.2031H124.452V71.297H123.388V72.2031Z" fill="#C7C7C7"/>
<path d="M123.388 70.2629H124.452V69.3568H123.388V70.2629Z" fill="#C7C7C7"/>
<path d="M121.862 81.8965H122.926V80.9903H121.862V81.8965Z" fill="#C7C7C7"/>
<path d="M121.862 79.9563H122.926V79.0501H121.862V79.9563Z" fill="#C7C7C7"/>
<path d="M121.862 78.0161H122.926V77.11H121.862V78.0161Z" fill="#C7C7C7"/>
<path d="M121.862 76.0798H122.926V75.1737H121.862V76.0798Z" fill="#C7C7C7"/>
<path d="M121.862 74.1396H122.926V73.2335H121.862V74.1396Z" fill="#C7C7C7"/>
<path d="M121.862 72.2031H122.926V71.297H121.862V72.2031Z" fill="#C7C7C7"/>
<path d="M121.862 70.2629H122.926V69.3568H121.862V70.2629Z" fill="#C7C7C7"/>
<path d="M120.335 81.8965H121.399V80.9903H120.335V81.8965Z" fill="#C7C7C7"/>
<path d="M120.335 79.9563H121.399V79.0501H120.335V79.9563Z" fill="#C7C7C7"/>
<path d="M120.335 78.0161H121.399V77.11H120.335V78.0161Z" fill="#C7C7C7"/>
<path d="M120.335 76.0798H121.399V75.1737H120.335V76.0798Z" fill="#C7C7C7"/>
<path d="M120.335 74.1396H121.399V73.2335H120.335V74.1396Z" fill="#C7C7C7"/>
<path d="M120.335 72.2031H121.399V71.297H120.335V72.2031Z" fill="#C7C7C7"/>
<path d="M120.335 70.2629H121.399V69.3568H120.335V70.2629Z" fill="#C7C7C7"/>
<path d="M124.2 66.676H119.809V68.2214H124.2V66.676Z" fill="#C7C7C7"/>
<path d="M122.189 65.7173H119.809V66.6723H122.189V65.7173Z" fill="#DBDBDB"/>
<path d="M168.395 68.2175H161.018V83.0319H168.395V68.2175Z" fill="#C7C7C7"/>
<path d="M163.485 69.4998H162.18V70.4059H163.485V69.4998Z" fill="#DBDBDB"/>
<path d="M163.485 71.4399H162.18V72.3461H163.485V71.4399Z" fill="#DBDBDB"/>
<path d="M163.485 73.3762H162.18V74.2824H163.485V73.3762Z" fill="#DBDBDB"/>
<path d="M163.485 75.3164H162.18V76.2226H163.485V75.3164Z" fill="#DBDBDB"/>
<path d="M163.485 77.2566H162.18V78.1628H163.485V77.2566Z" fill="#DBDBDB"/>
<path d="M163.485 79.1931H162.18V80.0993H163.485V79.1931Z" fill="#DBDBDB"/>
<path d="M163.485 81.1333H162.18V82.0395H163.485V81.1333Z" fill="#DBDBDB"/>
<path d="M165.361 69.4998H164.056V70.4059H165.361V69.4998Z" fill="#DBDBDB"/>
<path d="M165.361 71.4399H164.056V72.3461H165.361V71.4399Z" fill="#DBDBDB"/>
<path d="M165.361 73.3762H164.056V74.2824H165.361V73.3762Z" fill="#DBDBDB"/>
<path d="M165.361 75.3164H164.056V76.2226H165.361V75.3164Z" fill="#DBDBDB"/>
<path d="M165.361 77.2566H164.056V78.1628H165.361V77.2566Z" fill="#DBDBDB"/>
<path d="M165.361 79.1931H164.056V80.0993H165.361V79.1931Z" fill="#DBDBDB"/>
<path d="M165.361 81.1333H164.056V82.0395H165.361V81.1333Z" fill="#DBDBDB"/>
<path d="M167.237 69.4998H165.933V70.4059H167.237V69.4998Z" fill="#DBDBDB"/>
<path d="M167.237 71.4399H165.933V72.3461H167.237V71.4399Z" fill="#DBDBDB"/>
<path d="M167.237 73.3762H165.933V74.2824H167.237V73.3762Z" fill="#DBDBDB"/>
<path d="M167.237 75.3164H165.933V76.2226H167.237V75.3164Z" fill="#DBDBDB"/>
<path d="M167.237 77.2566H165.933V78.1628H167.237V77.2566Z" fill="#DBDBDB"/>
<path d="M167.237 79.1931H165.933V80.0993H167.237V79.1931Z" fill="#DBDBDB"/>
<path d="M167.237 81.1333H165.933V82.0395H167.237V81.1333Z" fill="#DBDBDB"/>
<path d="M168.399 66.676H163.485V68.2214H168.399V66.676Z" fill="#DBDBDB"/>
<path d="M168.395 65.7173H165.282V66.6723H168.395V65.7173Z" fill="#EBEBEB"/>
<path d="M173.573 68.2175H168.395V83.0319H173.573V68.2175Z" fill="#A6A6A6"/>
<path d="M171.979 81.8965H173.043V80.9903H171.979V81.8965Z" fill="#C7C7C7"/>
<path d="M171.979 79.9563H173.043V79.0501H171.979V79.9563Z" fill="#C7C7C7"/>
<path d="M171.979 78.0161H173.043V77.11H171.979V78.0161Z" fill="#C7C7C7"/>
<path d="M171.979 76.0798H173.043V75.1737H171.979V76.0798Z" fill="#C7C7C7"/>
<path d="M171.979 74.1396H173.043V73.2335H171.979V74.1396Z" fill="#C7C7C7"/>
<path d="M171.979 72.2031H173.043V71.297H171.979V72.2031Z" fill="#C7C7C7"/>
<path d="M171.979 70.2629H173.043V69.3568H171.979V70.2629Z" fill="#C7C7C7"/>
<path d="M170.452 81.8965H171.516V80.9903H170.452V81.8965Z" fill="#C7C7C7"/>
<path d="M170.452 79.9563H171.516V79.0501H170.452V79.9563Z" fill="#C7C7C7"/>
<path d="M170.452 78.0161H171.516V77.11H170.452V78.0161Z" fill="#C7C7C7"/>
<path d="M170.452 76.0798H171.516V75.1737H170.452V76.0798Z" fill="#C7C7C7"/>
<path d="M170.452 74.1396H171.516V73.2335H170.452V74.1396Z" fill="#C7C7C7"/>
<path d="M170.452 72.2031H171.516V71.297H170.452V72.2031Z" fill="#C7C7C7"/>
<path d="M170.452 70.2629H171.516V69.3568H170.452V70.2629Z" fill="#C7C7C7"/>
<path d="M168.929 81.8965H169.993V80.9903H168.929V81.8965Z" fill="#C7C7C7"/>
<path d="M168.929 79.9563H169.993V79.0501H168.929V79.9563Z" fill="#C7C7C7"/>
<path d="M168.929 78.0161H169.993V77.11H168.929V78.0161Z" fill="#C7C7C7"/>
<path d="M168.929 76.0798H169.993V75.1737H168.929V76.0798Z" fill="#C7C7C7"/>
<path d="M168.929 74.1396H169.993V73.2335H168.929V74.1396Z" fill="#C7C7C7"/>
<path d="M168.929 72.2031H169.993V71.297H168.929V72.2031Z" fill="#C7C7C7"/>
<path d="M168.929 70.2629H169.993V69.3568H168.929V70.2629Z" fill="#C7C7C7"/>
<path d="M172.787 66.676H168.395V68.2214H172.787V66.676Z" fill="#C7C7C7"/>
<path d="M170.775 65.7173H168.395V66.6723H170.775V65.7173Z" fill="#DBDBDB"/>
<path d="M14.4271 83.032L34.3213 82.9418L54.2117 82.9079L94 82.844L133.788 82.9079L153.682 82.9418L173.573 83.032L153.682 83.126L133.788 83.1561L94 83.22L54.2117 83.1561L34.3213 83.1222L14.4271 83.032Z" fill="#263238"/>
<path d="M120.015 90.7627H105.163L18.2586 175.126H91.744L120.015 90.7627Z" fill="#005F31"/>
<path d="M128.735 90.7626H96.4478L118.936 83.1975L128.735 90.7626Z" fill="#005F31"/>
<path d="M57.2911 101.088L48.0378 103.723L68.3718 133.145L83.927 115.323L57.2911 101.088Z" fill="#005F31"/>
<path d="M65.8188 98.6586L37.9459 106.6L45.2027 97.6584L65.8188 98.6586Z" fill="#005F31"/>
<path d="M150.554 101.088L155.382 103.723L85.6791 140.44L100.031 115.323L150.554 101.088Z" fill="#005F31"/>
<path d="M146.102 98.6586L160.65 106.6L168.399 97.6584L146.102 98.6586Z" fill="#005F31"/>
<g opacity="0.6">
<path d="M120.015 90.7627H105.163L18.2586 175.126H91.744L120.015 90.7627Z" fill="white"/>
<path d="M128.735 90.7626H96.4478L118.936 83.1975L128.735 90.7626Z" fill="white"/>
<path d="M57.2911 101.088L48.0378 103.723L68.3718 133.145L83.927 115.323L57.2911 101.088Z" fill="white"/>
<path d="M65.8188 98.6586L37.9459 106.6L45.2027 97.6584L65.8188 98.6586Z" fill="white"/>
<path d="M150.554 101.088L155.382 103.723L85.6791 140.44L100.031 115.323L150.554 101.088Z" fill="white"/>
<path d="M146.102 98.6586L160.65 106.6L168.399 97.6584L146.102 98.6586Z" fill="white"/>
</g>
<path d="M65.9128 182.191C92.8586 182.191 114.703 180.391 114.703 178.171C114.703 175.951 92.8586 174.152 65.9128 174.152C38.967 174.152 17.123 175.951 17.123 178.171C17.123 180.391 38.967 182.191 65.9128 182.191Z" fill="#DBDBDB"/>
<path d="M20.007 152.28C20.007 152.28 18.2247 168.967 18.2247 168.978C18.2849 172.057 18.3939 174.761 18.6007 176.152C18.599 176.159 18.599 176.167 18.6007 176.175C18.6086 176.505 18.6936 176.83 18.8489 177.122C19.7814 177.724 37.8707 177.953 38.7318 177.671C39.5928 177.389 38.8596 174.911 37.9121 174.137C36.9646 173.362 34.1182 169.087 34.1182 169.087L35.7463 152.415L20.007 152.28Z" fill="#F7A9A0"/>
<path d="M35.0131 169.843C33.449 169.286 31.4336 169.222 30.0161 170.177C29.9634 170.215 30.0161 170.29 30.0687 170.283C31.6852 170.032 33.3236 169.953 34.9567 170.046C34.9836 170.053 35.0124 170.05 35.0368 170.036C35.0611 170.022 35.079 169.999 35.0864 169.973C35.0939 169.946 35.0904 169.917 35.0766 169.892C35.0629 169.868 35.04 169.85 35.0131 169.843Z" fill="#263238"/>
<path d="M36.0697 170.73C34.5018 170.174 32.4864 170.11 31.0726 171.065C31.0162 171.103 31.0726 171.178 31.1253 171.17C32.7417 170.92 34.3802 170.84 36.0133 170.933C36.0402 170.941 36.069 170.937 36.0933 170.924C36.1177 170.91 36.1355 170.887 36.143 170.86C36.1505 170.833 36.147 170.804 36.1332 170.78C36.1195 170.756 36.0966 170.738 36.0697 170.73Z" fill="#263238"/>
<path d="M37.1225 171.617C35.5546 171.061 33.543 170.997 32.1254 171.952C32.069 171.99 32.1254 172.065 32.1781 172.057C33.7942 171.803 35.433 171.724 37.0661 171.821C37.093 171.828 37.1218 171.824 37.1461 171.811C37.1705 171.797 37.1883 171.774 37.1958 171.747C37.2033 171.72 37.1998 171.691 37.186 171.667C37.1723 171.643 37.1494 171.625 37.1225 171.617Z" fill="#263238"/>
<path d="M39.1416 177.803C38.2806 178.089 19.7814 177.758 18.8376 177.152C18.4616 176.927 18.3037 173.336 18.2134 168.989V168.85L34.1258 168.824V169.095C34.1258 169.095 37.3744 173.501 38.3294 174.276C39.2845 175.051 40.0064 177.525 39.1416 177.803Z" fill="#37474F"/>
<path d="M18.221 168.85V168.989C18.3112 173.336 18.4842 176.93 18.8451 177.152C19.2662 177.427 24.613 177.622 30.3846 177.731C37.2954 177.859 38.6566 177.961 39.1416 177.806C40.0026 177.524 39.2619 175.043 38.3182 174.272C37.3744 173.501 34.1145 169.091 34.1145 169.091V168.82H28.8091L18.221 168.85Z" fill="#455A64"/>
<path d="M38.8746 176.848C34.7386 176.705 24.1016 176.431 19.9844 176.607C19.9506 176.607 19.9506 176.63 19.9844 176.634C24.0978 176.863 34.7161 177.01 38.8746 176.916C38.9611 176.912 38.9611 176.848 38.8746 176.848Z" fill="#263238"/>
<path opacity="0.1" d="M28.8242 168.824C29.2566 171.479 29.9146 175.393 30.3883 177.724C37.2992 177.852 38.6603 177.953 39.1454 177.799C40.0064 177.517 39.2657 175.036 38.3219 174.265C37.3782 173.494 34.1182 169.083 34.1182 169.083V168.813L28.8242 168.824Z" fill="black"/>
<path d="M17.1193 169.147L34.968 169.016C34.968 169.016 36.6675 138.075 37.6 128.438C38.7506 116.383 40.232 86.2996 40.232 86.2996H25.019C25.019 86.2996 21.5636 93.6692 23.7444 101.862L21.5298 131.442L17.1193 169.147Z" fill="#263238"/>
<path d="M18.6308 166C19.1006 165.931 19.5738 165.885 20.0483 165.865C20.5747 165.82 21.1011 165.771 21.6275 165.741C22.6427 165.681 23.6542 165.647 24.6694 165.624C26.7186 165.583 28.764 165.564 30.8132 165.594C31.975 165.594 33.1406 165.635 34.3062 165.684C34.3138 165.687 34.3203 165.692 34.325 165.698C34.3296 165.704 34.3321 165.712 34.3321 165.72C34.3321 165.728 34.3296 165.736 34.325 165.742C34.3203 165.749 34.3138 165.753 34.3062 165.756C32.2796 165.865 30.2492 165.929 28.2188 166.004C26.1884 166.079 24.1618 166.151 22.1351 166.147C21.5523 166.147 20.9695 166.147 20.3905 166.124C19.8114 166.102 19.2136 166.143 18.6421 166.072C18.6045 166.064 18.5894 166.011 18.6308 166Z" fill="#37474F"/>
<path d="M33.9866 150.144C34.4153 145.512 34.7913 140.876 35.1522 136.232C35.8717 126.958 36.4168 117.669 36.7878 108.367C36.9984 103.148 37.1638 97.9292 37.2729 92.7103C37.2729 92.6502 37.3556 92.6577 37.3556 92.7103C37.3255 102.061 37.0097 111.42 36.5322 120.764C36.0546 130.107 35.4042 139.342 34.4905 148.588C33.9829 153.788 33.4189 158.984 32.697 164.154C32.6987 164.159 32.6993 164.165 32.6985 164.17C32.6977 164.175 32.6957 164.18 32.6926 164.185C32.6895 164.189 32.6853 164.193 32.6805 164.195C32.6757 164.198 32.6704 164.199 32.665 164.199C32.6596 164.199 32.6543 164.198 32.6495 164.195C32.6447 164.193 32.6405 164.189 32.6374 164.185C32.6343 164.18 32.6323 164.175 32.6315 164.17C32.6307 164.165 32.6313 164.159 32.633 164.154C33.088 159.499 33.558 154.826 33.9866 150.144Z" fill="#37474F"/>
<path d="M42.0481 154.664C42.0481 154.664 42.4542 170.783 42.4542 170.794C42.5143 173.874 42.6234 176.577 42.8302 177.968C42.8284 177.976 42.8284 177.983 42.8302 177.991C42.8376 178.321 42.9212 178.646 43.0746 178.938V178.957C44.0033 179.563 68.6426 179.788 69.5149 179.506C70.3872 179.224 69.6427 176.746 68.6914 175.972C67.7402 175.197 58.3402 170.892 58.3402 170.892L57.7837 154.788L42.0481 154.664Z" fill="#F7A9A0"/>
<path d="M42.3714 167.485C42.3714 167.485 42.4542 170.783 42.4542 170.794C42.5143 173.874 42.6234 176.577 42.8302 177.968C42.8284 177.976 42.8284 177.983 42.8302 177.991C42.8745 178.315 42.9565 178.633 43.0746 178.938V178.957C44.0033 179.562 68.6426 179.788 69.5149 179.506C70.3872 179.224 69.6427 176.746 68.6914 175.972C67.7402 175.197 58.3402 170.892 58.3402 170.892L58.3026 167.534L42.3714 167.485Z" fill="white"/>
<path d="M59.8554 170.877C58.2086 170.636 56.2195 170.963 55.0163 172.174C54.9712 172.219 55.0389 172.287 55.0915 172.268C56.632 171.702 58.2293 171.303 59.8554 171.08C59.8777 171.074 59.8973 171.061 59.9113 171.042C59.9253 171.024 59.9328 171.002 59.9328 170.978C59.9328 170.955 59.9253 170.933 59.9113 170.915C59.8973 170.896 59.8777 170.883 59.8554 170.877Z" fill="#263238"/>
<path d="M61.0624 171.542C59.4155 171.302 57.4265 171.629 56.2233 172.84C56.1782 172.885 56.2458 172.952 56.2947 172.934C57.8368 172.369 59.4352 171.972 61.0624 171.749C61.0864 171.745 61.1081 171.732 61.1237 171.713C61.1393 171.694 61.1479 171.67 61.1479 171.646C61.1479 171.621 61.1393 171.598 61.1237 171.579C61.1081 171.56 61.0864 171.547 61.0624 171.542Z" fill="#263238"/>
<path d="M62.2694 172.208C60.6225 171.967 58.6334 172.294 57.4302 173.505C57.3814 173.55 57.4302 173.618 57.5017 173.599C59.0437 173.034 60.6422 172.637 62.2694 172.415C62.2934 172.41 62.3151 172.397 62.3307 172.378C62.3463 172.36 62.3548 172.336 62.3548 172.311C62.3548 172.287 62.3463 172.263 62.3307 172.244C62.3151 172.225 62.2934 172.213 62.2694 172.208Z" fill="#263238"/>
<path d="M69.5186 179.506C68.6538 179.788 44.0108 179.563 43.0783 178.957C42.7211 178.735 42.5444 175.141 42.4542 170.794V170.655L58.3552 170.625V170.896C58.3552 170.896 67.7402 175.216 68.6952 175.968C69.6502 176.72 70.3834 179.228 69.5186 179.506Z" fill="#455A64"/>
<path d="M69.2479 178.547C65.1119 178.408 48.3273 178.235 44.2138 178.412C44.18 178.412 44.18 178.434 44.2138 178.438C48.3273 178.668 65.0931 178.705 69.2479 178.615C69.3344 178.6 69.3382 178.551 69.2479 178.547Z" fill="#263238"/>
<path d="M33.0391 103.234C33.0391 103.234 38.2768 126.17 38.4798 130.397C38.6528 134.006 41.2735 171.08 41.2735 171.08L59.7878 170.877C59.7878 170.877 55.1329 133.104 54.7794 129.344C54.1214 122.313 50.0907 103.095 45.3794 85.9573L25.4214 86.2919C25.4214 86.2919 25.7447 95.3159 29.9559 101.753C29.9672 101.757 31.8359 102.584 33.0391 103.234Z" fill="#263238"/>
<path d="M42.1985 167.651C44.3379 167.553 46.5526 167.451 48.6958 167.47C50.839 167.489 52.9446 167.47 55.0652 167.572C56.2684 167.624 57.4678 167.643 58.671 167.745C58.7086 167.745 58.7086 167.805 58.671 167.809C56.5391 167.967 54.3922 167.978 52.249 167.997C50.1058 168.015 48.0039 168.023 45.8795 167.963C44.6763 167.929 43.4769 167.888 42.2737 167.824C42.1421 167.816 42.0706 167.655 42.1985 167.651Z" fill="#37474F"/>
<path d="M37.6226 103.603C36.7011 103.611 35.7806 103.543 34.8702 103.4C33.9666 103.214 33.0731 102.982 32.1931 102.704C31.3246 102.524 30.4455 102.398 29.5611 102.328C28.6724 102.215 27.8049 101.973 26.9855 101.61C26.9786 101.609 26.9715 101.61 26.9652 101.613C26.9589 101.617 26.9537 101.622 26.9504 101.628C26.9471 101.634 26.9458 101.641 26.9467 101.648C26.9476 101.655 26.9507 101.662 26.9554 101.667C27.749 102.076 28.5753 102.418 29.4258 102.689C30.3094 102.953 31.2268 102.975 32.1217 103.178C33.031 103.434 33.9552 103.634 34.889 103.776C35.8039 103.873 36.7277 103.841 37.6338 103.682C37.6714 103.656 37.6564 103.603 37.6226 103.603Z" fill="#37474F"/>
<path d="M37.4195 123.444C37.2879 122.692 37.1638 121.959 37.021 121.222C36.7352 119.718 36.4419 118.233 36.111 116.752C35.4568 113.804 34.8477 110.841 34.1446 107.904C33.746 106.242 33.3926 104.558 32.9113 102.922C32.9113 102.881 32.8474 102.896 32.8511 102.922C33.0542 104.426 33.385 105.93 33.667 107.434C33.949 108.938 34.2611 110.416 34.5694 111.905C35.1898 114.864 35.7877 117.827 36.4795 120.767C36.675 121.591 36.8555 122.41 37.0886 123.23C37.3218 124.05 37.4646 124.926 37.7391 125.742C37.7391 125.751 37.7427 125.759 37.749 125.766C37.7554 125.772 37.764 125.776 37.773 125.776C37.7819 125.776 37.7905 125.772 37.7969 125.766C37.8032 125.759 37.8068 125.751 37.8068 125.742C37.7278 124.956 37.5549 124.2 37.4195 123.444Z" fill="#37474F"/>
<path d="M44.9019 96.0642L46.7819 104.652L48.6206 113.251C49.2334 116.116 49.82 118.989 50.4103 121.862L51.2714 126.174C51.4105 126.892 51.5571 127.622 51.6474 128.355L51.8805 130.543C52.452 136.379 52.9985 142.216 53.5198 148.054L54.2718 156.815L54.99 165.579L54.0876 156.833L53.2153 148.08L51.512 130.581L51.2864 128.396C51.215 127.671 51.0721 126.964 50.9405 126.242L50.0945 121.929L48.3574 113.311L46.624 104.69L44.9019 96.0642Z" fill="#37474F"/>
<path d="M37.3857 64.1643C36.1486 64.2846 34.8815 62.3896 34.7198 60.8028C34.7198 60.6863 34.9793 59.641 35.2838 58.3476C35.4643 57.5617 35.6598 56.6781 35.7614 55.866L40.7058 57.7948C40.2767 58.7753 39.9686 59.8043 39.7883 60.8592C39.7772 60.9718 39.7772 61.0851 39.7883 61.1976C39.7864 61.2164 39.7864 61.2353 39.7883 61.254C39.7958 61.9045 38.5814 64.044 37.3857 64.1643Z" fill="#F7A9A0"/>
<path d="M33.9077 48.989C33.2346 51.1661 34.107 56.6218 35.6523 58.013C37.9083 60.0585 41.5668 60.269 43.3039 57.5731C44.9884 54.9637 43.8002 48.0791 42.0744 46.7969C39.5326 44.9245 34.9041 45.7742 33.9077 48.989Z" fill="#F7A9A0"/>
<path d="M34.216 47.8873C34.216 47.8873 32.9639 49.2296 32.8098 50.0117C32.6556 50.7938 32.8098 53.7942 34.0882 55.7081C34.5582 56.3999 34.5318 57.8475 35.3026 58.3401C36.0734 58.8326 39.5778 56.8098 39.8146 56.2119C40.0515 55.6141 39.4386 53.6626 39.307 52.8505C39.1754 52.0383 40.123 51.8766 40.3786 52.012C41.9804 52.8693 42.1684 54.9974 42.3188 54.644C42.4692 54.2906 42.9693 53.1964 42.9994 52.4143C43.0294 51.6322 41.642 49.271 41.7022 48.6543C41.7623 48.0377 42.6422 48.4626 43.2062 48.3648C43.5558 48.3046 43.4694 46.199 42.9918 45.8268C42.5143 45.4546 41.4878 45.6426 41.0479 45.6125C40.608 45.5824 40.0778 45.0184 38.9047 44.9883C37.7316 44.9582 36.3329 45.605 35.7651 45.8268C34.8627 46.169 34.216 47.8873 34.216 47.8873Z" fill="#263238"/>
<path d="M41.736 53.5574C41.736 53.5574 40.4087 51.6022 39.5251 52.0722C38.6415 52.5422 39.6191 55.366 40.6531 55.7645C40.7813 55.8247 40.9203 55.8583 41.0618 55.8633C41.2032 55.8683 41.3443 55.8446 41.4764 55.7937C41.6085 55.7428 41.7289 55.6656 41.8304 55.5669C41.9318 55.4682 42.0123 55.35 42.0669 55.2193L41.736 53.5574Z" fill="#F7A9A0"/>
<path d="M39.8146 52.8767C39.8146 52.8767 39.7921 52.8955 39.8146 52.903C40.5366 53.2076 40.905 53.8844 41.1645 54.5837C41.1237 54.5105 41.0675 54.4469 40.9997 54.3975C40.932 54.348 40.8543 54.3139 40.772 54.2975C40.6898 54.281 40.605 54.2826 40.5234 54.3022C40.4418 54.3218 40.3655 54.3588 40.2997 54.4108C40.2957 54.4125 40.2922 54.4154 40.2898 54.4191C40.2874 54.4228 40.2861 54.4271 40.2861 54.4315C40.2861 54.4359 40.2874 54.4402 40.2898 54.4438C40.2922 54.4475 40.2957 54.4504 40.2997 54.4521C40.4271 54.4129 40.5636 54.4142 40.6903 54.456C40.8169 54.4978 40.9275 54.5779 41.0066 54.6853C41.1461 54.8668 41.2647 55.0636 41.36 55.2718C41.3938 55.3395 41.5104 55.3057 41.4878 55.2305V55.2117C41.5029 54.2829 40.8035 52.982 39.8146 52.8767Z" fill="#263238"/>
<path d="M20.7364 95.3723C20.7552 95.3949 26.1884 97.1433 28.0985 97.1433C28.3918 97.1433 29.3468 93.6239 29.5498 93.6465C29.7529 93.669 30.2342 97.3275 30.4974 97.3237C36.4269 97.3237 48.8499 95.5829 48.9853 95.4437C49.1206 95.3046 47.079 87.6944 46.906 86.6867C45.605 79.0953 43.616 65.4051 40.7396 61.6376C39.4123 59.9005 35.6373 59.1259 34.404 59.9719C31.2005 62.1678 29.8168 64.6945 28.6437 67.4355C27.7751 69.4659 24.1016 83.4005 23.5978 85.5625C22.9661 88.2809 20.6274 95.2369 20.7364 95.3723Z" fill="#005F31"/>
<path d="M38.8784 65.4953C37.9271 73.9478 37.8294 80.1932 38.07 81.9566C38.6829 86.4686 40.984 94.3646 41.8676 96.0867C42.4391 97.2147 53.1175 96.0867 52.5911 94.8421C50.8014 90.6009 46.4962 80.0127 46.4398 79.8623C46.0638 78.8321 44.917 71.5038 43.4092 66.3263C41.9014 61.1488 39.3634 61.2014 38.8784 65.4953Z" fill="#F7A9A0"/>
<path d="M52.4031 94.312C52.4031 94.312 55.2908 102.106 54.9787 105.487C54.8208 107.182 52.9859 114.135 51.2902 113.736C49.7523 113.36 50.7412 111.13 50.7412 111.13C50.7412 111.13 49.8914 113.684 48.4852 112.853C47.079 112.022 48.6318 109.217 48.6318 109.217C48.6318 109.217 47.9174 111.988 46.4962 110.958C45.2591 110.063 46.7218 106.645 46.7218 106.645C46.7218 106.645 46.2894 109.653 44.9358 108.848C43.4318 107.972 44.9809 102.573 44.9809 102.573C42.1609 99.7978 41.7134 98.2111 41.9729 95.5641C41.9992 95.1279 52.4031 94.312 52.4031 94.312Z" fill="#F7A9A0"/>
<path d="M48.316 110.021C48.4326 109.796 48.5416 109.57 48.6544 109.344C48.8821 108.909 49.0842 108.461 49.2598 108.002C49.4252 107.551 49.5681 107.096 49.6959 106.637C49.8238 106.179 49.9215 105.645 50.0719 105.163C50.0736 105.159 50.0742 105.154 50.0736 105.149C50.073 105.144 50.0712 105.14 50.0684 105.136C50.0656 105.132 50.062 105.128 50.0577 105.126C50.0534 105.124 50.0486 105.123 50.0437 105.123C50.0389 105.123 50.0341 105.124 50.0298 105.126C50.0255 105.128 50.0218 105.132 50.019 105.136C50.0163 105.14 50.0145 105.144 50.0139 105.149C50.0133 105.154 50.0138 105.159 50.0155 105.163C49.8721 105.642 49.7027 106.113 49.5079 106.573C49.3312 107.028 49.1507 107.483 48.9702 107.938C48.7898 108.393 48.6469 108.837 48.4814 109.284C48.3987 109.51 48.3047 109.732 48.2145 109.95C48.1131 110.154 48.03 110.367 47.9663 110.585C47.9663 110.604 47.9889 110.615 48.0039 110.585C48.1268 110.408 48.2314 110.219 48.316 110.021Z" fill="#263238"/>
<path d="M50.5532 111.672C51.004 110.879 51.3998 110.056 51.7376 109.209C52.0639 108.358 52.3045 107.476 52.4558 106.577C52.4558 106.57 52.453 106.563 52.4481 106.558C52.4431 106.554 52.4364 106.551 52.4294 106.551C52.4225 106.551 52.4158 106.554 52.4108 106.558C52.4059 106.563 52.4031 106.57 52.4031 106.577C52.0722 107.427 51.7564 108.288 51.4406 109.145C51.2826 109.566 50.5231 111.45 50.4667 111.657C50.4517 111.672 50.5269 111.694 50.5532 111.672Z" fill="#263238"/>
<path d="M46.1766 108.54C46.5835 107.786 46.9402 107.006 47.2444 106.205C47.4777 105.359 47.6474 104.497 47.752 103.625C47.752 103.595 47.7069 103.58 47.6994 103.625C47.4625 104.468 47.2406 105.314 46.9474 106.141C46.812 106.547 46.1954 108.13 46.0863 108.528C46.1014 108.547 46.154 108.57 46.1766 108.54Z" fill="#263238"/>
<path d="M40.6606 95.9251L52.4069 92.3832C52.4069 92.3832 47.1429 80.5016 46.624 79.5014C46.1051 78.5013 44.8756 69.3494 43.2062 65.1232C41.5367 60.8969 39.2694 60.1825 38.5137 65.8376C37.7579 71.4926 37.6865 79.2645 37.788 81.7837C37.8895 84.3029 40.6606 95.9251 40.6606 95.9251Z" fill="#005F31"/>
<path d="M50.7788 90.0933C50.3351 90.1534 49.9027 90.3001 49.4628 90.4053C49.0229 90.5106 48.5942 90.6272 48.1618 90.7513C47.3271 90.9844 46.4962 91.2325 45.669 91.4845L43.1836 92.2365C42.3263 92.4997 41.4427 92.729 40.608 93.0599C40.6 93.0599 40.5924 93.0631 40.5867 93.0687C40.5811 93.0744 40.5779 93.082 40.5779 93.09C40.5779 93.098 40.5811 93.1056 40.5867 93.1112C40.5924 93.1169 40.6 93.1201 40.608 93.1201C41.4841 92.9509 42.3526 92.6651 43.2137 92.4245L45.763 91.7138C46.6127 91.4732 47.4625 91.2288 48.3085 90.9618C48.7221 90.834 49.1357 90.7061 49.5455 90.5633C49.9651 90.4393 50.378 90.2937 50.7826 90.1271C50.8352 90.1309 50.8089 90.0895 50.7788 90.0933Z" fill="#263238"/>
<path d="M41.657 95.6243L40.6682 95.959H40.6343V95.9251C40.0478 93.6278 39.5063 91.3154 38.9874 89.003L38.2354 85.5175C38.0023 84.3519 37.7579 83.1938 37.6075 82.0019C37.5118 80.8112 37.4855 79.616 37.5286 78.4223C37.5511 77.2342 37.6113 76.0498 37.6827 74.8654C37.8294 72.4966 38.0211 70.1315 38.2768 67.7703C38.1565 70.1391 38.0437 72.5079 37.9534 74.8767C37.8632 77.2455 37.7466 79.6293 37.9534 81.9567C38.3069 84.2842 38.7919 86.6154 39.2657 88.9353L40.6644 95.9101L40.623 95.8875L41.657 95.6243Z" fill="#263238"/>
<path d="M37.8369 68.4546L37.9008 68.9735L37.976 69.4811C38.0249 69.8232 38.0888 70.1616 38.1151 70.5151C37.9537 70.2001 37.8445 69.8611 37.7918 69.5111C37.7314 69.1598 37.7468 68.7995 37.8369 68.4546Z" fill="#263238"/>
<path d="M67.3341 40.6078C67.155 42.3254 66.5022 43.9594 65.4484 45.3275C64.3946 46.6956 62.9814 47.7439 61.3664 48.3554C59.7514 48.9669 57.9983 49.1175 56.3027 48.7905C54.6071 48.4635 53.0357 47.6717 51.7639 46.5035L47.1015 47.1878L49.4365 43.1571C48.8534 41.7384 48.6337 40.1966 48.7973 38.6714C48.9244 37.4543 49.2901 36.2741 49.8733 35.1983C50.4566 34.1224 51.246 33.172 52.1966 32.4013C53.1471 31.6305 54.2402 31.0545 55.4133 30.7062C56.5865 30.3579 57.8167 30.2441 59.0339 30.3712C60.251 30.4984 61.4312 30.864 62.507 31.4473C63.5829 32.0305 64.5333 32.82 65.3041 33.7705C66.0748 34.7211 66.6508 35.8141 66.9991 36.9873C67.3474 38.1604 67.4612 39.3907 67.3341 40.6078Z" fill="white"/>
<path d="M67.3341 40.6079C67.1554 42.3266 66.5047 43.9624 65.4541 45.3343C64.9407 46.0256 64.3244 46.6343 63.6267 47.1391C62.9377 47.6609 62.1781 48.0825 61.3707 48.3911C60.5666 48.7061 59.7225 48.9073 58.8628 48.989C58.4315 49.0284 57.998 49.036 57.5656 49.0115C57.1328 49.0033 56.7015 48.9593 56.2759 48.8799C54.5574 48.5636 52.9611 47.7746 51.6662 46.6014L51.7752 46.6352L47.1203 47.3534L46.7819 47.4023L46.9511 47.1052L49.271 43.067V43.2249C48.7243 41.8889 48.4918 40.4451 48.5916 39.005C48.6913 37.5649 49.1206 36.1669 49.8463 34.9191C50.5719 33.6767 51.5694 32.6149 52.7641 31.8133C53.9579 31.023 55.315 30.513 56.7339 30.3216C58.1528 30.1301 59.5965 30.2622 60.9571 30.7079C62.3038 31.1669 63.5316 31.9195 64.5517 32.9112C65.5673 33.9002 66.3453 35.1067 66.8272 36.4399C67.3092 37.773 67.4825 39.1981 67.3341 40.6079ZM67.3341 40.6079C67.4856 39.2041 67.3126 37.7842 66.8285 36.4577C66.3444 35.1313 65.5621 33.9338 64.5419 32.9576C63.5217 31.9813 62.2909 31.2525 60.9444 30.8272C59.598 30.402 58.1718 30.2917 56.776 30.5048C55.3947 30.7058 54.0776 31.2203 52.9258 32.0088C51.7879 32.8104 50.8363 33.8479 50.1358 35.0507C49.4483 36.2589 49.0446 37.6076 48.9552 38.9949C48.8678 40.3804 49.0913 41.7678 49.6094 43.0557L49.6433 43.1384L49.5982 43.2136L47.2519 47.2368L47.0865 46.9924L51.7526 46.3382H51.8166L51.8617 46.3833C53.1069 47.5491 54.6525 48.3447 56.3248 48.6807C56.742 48.7679 57.1659 48.8194 57.5919 48.8348C58.0163 48.8649 58.4422 48.8649 58.8666 48.8348C59.7178 48.7686 60.5556 48.5839 61.3557 48.2859C62.1625 47.994 62.9224 47.5861 63.6117 47.0751C63.9548 46.8203 64.2825 46.5453 64.593 46.2517C64.8959 45.9487 65.1797 45.6272 65.4428 45.2891C66.491 43.932 67.1454 42.3124 67.3341 40.6079Z" fill="#263238"/>
<path d="M58.765 40.9613V42.1608C58.7681 42.2806 58.7468 42.3998 58.7024 42.5112C58.6579 42.6225 58.5913 42.7236 58.5065 42.8084C58.4218 42.8932 58.3206 42.9598 58.2093 43.0043C58.0979 43.0487 57.9787 43.07 57.8589 43.0669C57.6186 43.0669 57.3881 42.9715 57.2181 42.8015C57.0482 42.6316 56.9527 42.4011 56.9527 42.1608V40.2319C56.9527 40.2319 56.9715 40.2319 56.9715 40.1943C56.9715 40.1567 56.9527 40.1943 56.9527 40.1567C56.9603 39.9191 57.0583 39.6934 57.2267 39.5257C57.3952 39.3579 57.6213 39.2609 57.8589 39.2543C58.1409 39.2713 58.4235 39.2304 58.6892 39.1342C58.9549 39.038 59.1981 38.8884 59.4038 38.6947C59.6095 38.501 59.7735 38.2673 59.8855 38.0079C59.9976 37.7484 60.0554 37.4689 60.0554 37.1863C60.0554 36.9037 59.9976 36.6241 59.8855 36.3647C59.7735 36.1053 59.6095 35.8716 59.4038 35.6779C59.1981 35.4842 58.9549 35.3346 58.6892 35.2384C58.4235 35.1421 58.1409 35.1013 57.8589 35.1183C57.5 35.1169 57.1471 35.21 56.8356 35.3882C56.5241 35.5664 56.2649 35.8234 56.0842 36.1335C56.0246 36.2388 55.9445 36.3312 55.8488 36.4052C55.753 36.4793 55.6435 36.5334 55.5265 36.5646C55.4096 36.5958 55.2876 36.6033 55.1677 36.5867C55.0478 36.5701 54.9324 36.5298 54.8283 36.4681C54.7263 36.4077 54.6372 36.3277 54.5662 36.2327C54.4952 36.1377 54.4437 36.0296 54.4147 35.9146C54.3857 35.7996 54.3797 35.68 54.3971 35.5627C54.4146 35.4454 54.455 35.3327 54.5162 35.2311C54.8386 34.6738 55.2944 34.2055 55.8427 33.8681C56.391 33.5307 57.0145 33.3349 57.6573 33.2983C58.3 33.2617 58.9417 33.3854 59.5248 33.6583C60.1078 33.9312 60.6139 34.3447 60.9975 34.8617C61.3811 35.3787 61.6302 35.983 61.7223 36.6201C61.8145 37.2572 61.7468 37.9073 61.5254 38.5118C61.304 39.1163 60.9359 39.6563 60.454 40.0832C59.9722 40.5101 59.3918 40.8106 58.765 40.9576V40.9613ZM58.765 45.0071V45.338C58.7681 45.4578 58.7468 45.577 58.7024 45.6884C58.6579 45.7997 58.5913 45.9008 58.5065 45.9856C58.4218 46.0704 58.3206 46.137 58.2093 46.1815C58.0979 46.2259 57.9787 46.2472 57.8589 46.2441C57.6186 46.2441 57.3881 46.1487 57.2181 45.9787C57.0482 45.8088 56.9527 45.5783 56.9527 45.338V45.0071C56.9556 44.7677 57.0521 44.5389 57.2214 44.3696C57.3907 44.2003 57.6195 44.1039 57.8589 44.1009C57.9783 44.0994 58.0968 44.1218 58.2074 44.1668C58.3181 44.2118 58.4186 44.2785 58.503 44.363C58.5875 44.4474 58.6542 44.5479 58.6992 44.6585C58.7442 44.7692 58.7666 44.8877 58.765 45.0071Z" fill="#005F31"/>
<path d="M105.186 133.728H115.338C115.338 133.728 115.003 132.296 114.327 132.194C114.124 132.176 113.921 132.22 113.745 132.321C113.569 132.422 113.428 132.574 113.341 132.758C113.341 132.758 113.372 130.762 112.112 130.419C110.852 130.077 109.8 131.844 109.8 131.844C109.8 131.844 109.01 130.841 107.92 130.904C106.829 130.968 106.573 132.63 106.573 132.63C106.573 132.63 105.618 132.051 105.186 133.728Z" fill="#455A64"/>
<path d="M97.9668 173.039H119.436C119.436 173.039 119.388 169.843 117.274 168.993C116.704 168.749 116.07 168.696 115.467 168.842C114.864 168.987 114.324 169.324 113.928 169.802C113.928 169.802 113.048 163.936 109.115 163.936C105.182 163.936 103.302 169.005 103.302 169.005C103.302 169.005 102.419 167.474 100.238 167.76C98.057 168.046 97.9668 173.039 97.9668 173.039Z" fill="#455A64"/>
<path d="M108.491 174.208H130.965C130.965 174.208 130.213 171.039 128.735 170.824C127.257 170.61 126.55 172.069 126.55 172.069C126.55 172.069 126.618 167.647 123.836 166.895C121.053 166.143 118.718 170.046 118.718 170.046C118.718 170.046 116.974 167.82 114.582 167.963C112.191 168.106 111.601 171.783 111.601 171.783C111.601 171.783 109.45 170.501 108.491 174.208Z" fill="#37474F"/>
<path d="M172.317 146.411H157.018C157.018 146.411 157.051 144.132 158.555 143.531C158.964 143.353 159.418 143.313 159.851 143.417C160.284 143.521 160.671 143.762 160.954 144.106C160.954 144.106 161.567 139.917 164.372 139.917C167.177 139.917 168.508 143.531 168.508 143.531C168.746 143.185 169.079 142.916 169.467 142.758C169.855 142.6 170.281 142.558 170.693 142.639C172.257 142.843 172.317 146.411 172.317 146.411Z" fill="#455A64"/>
<path d="M163.21 149.648C163.21 149.648 162.379 145.783 160.729 145.189C159.078 144.595 158.067 146.317 158.067 146.317C158.067 146.317 157.691 142.625 155.333 141.519C152.976 140.414 151.227 142.677 151.227 142.677C151.227 142.677 149.43 137.992 146.215 137.992C143 137.992 141.376 144.869 141.376 144.869C141.376 144.869 139.477 142.828 137.533 143.982C135.589 145.136 135.589 149.659 135.589 149.659L163.21 149.648Z" fill="#37474F"/>
<path d="M103.263 160.274L71.3785 160.308L71.3987 179.627L103.283 179.593L103.263 160.274Z" fill="#005F31"/>
<path opacity="0.1" d="M103.259 160.274L71.3747 160.308L71.3842 169.403L103.269 169.37L103.259 160.274Z" fill="black"/>
<path d="M104.009 157.435L70.616 157.47L70.6254 166.486L104.018 166.451L104.009 157.435Z" fill="#005F31"/>
<path d="M94.3346 152.302L94.3422 157.446L91.9207 157.45V154.521L82.6974 154.532V157.457L80.2798 157.461L80.276 152.318L94.3346 152.302Z" fill="#263238"/>
<path d="M77.3912 164.321L75.2141 164.323L75.2186 168.628L77.3957 168.626L77.3912 164.321Z" fill="#263238"/>
<path d="M99.4323 164.302L97.2552 164.304L97.2597 168.609L99.4368 168.607L99.4323 164.302Z" fill="#263238"/>
</svg>
