<svg width="231" height="231" viewBox="0 0 231 231" fill="none" xmlns="http://www.w3.org/2000/svg">
<g clip-path="url(#clip0_853_142)">
<mask id="mask0_853_142" style="mask-type:luminance" maskUnits="userSpaceOnUse" x="0" y="-36" width="267" height="267">
<path d="M266.469 -35.4685H0V231H266.469V-35.4685Z" fill="white"/>
</mask>
<g mask="url(#mask0_853_142)">
<mask id="mask1_853_142" style="mask-type:luminance" maskUnits="userSpaceOnUse" x="0" y="-36" width="267" height="267">
<path d="M0 -35.4685H266.469V231H0V-35.4685Z" fill="white"/>
</mask>
<g mask="url(#mask1_853_142)">
<path d="M55.3802 182.165C44.3259 172.965 42.9805 157.207 50.7616 147.785C56.9543 140.288 68.2637 137.608 78.471 141.628C83.813 129.828 95.3231 122.055 108.033 121.677C121.819 121.268 134.631 129.628 140.047 142.654C149.714 132.242 164.293 131.601 171.862 138.549C179.576 145.63 177.125 157.945 176.993 158.561C177.284 158.338 184.355 153.036 189.308 155.482C194.198 157.897 196.676 167.686 190.848 177.548C145.692 179.087 100.536 180.626 55.3802 182.165Z" fill="url(#paint0_linear_853_142)"/>
<path d="M166.794 154.577L167.286 151.187H165.752V149.445H167.589L167.892 147.324H166.283V145.563H168.157L168.631 142.267H170.316L169.843 145.563H171.566L172.058 142.267H173.743L173.251 145.563H174.766V147.324H172.986L172.683 149.445H174.255V151.187H172.399L171.926 154.577H170.221L170.695 151.187H168.971L168.498 154.577H166.794ZM170.998 149.445L171.301 147.324H169.577L169.275 149.445H170.998Z" fill="white"/>
<path d="M89.6063 177.147C85.5534 174.169 82.4968 170.343 80.1918 166.247C76.734 160.105 74.9708 153.358 74.0761 147.995C73.1808 142.633 73.1525 138.656 73.1538 138.053C73.1538 138.027 73.1541 138.007 73.1541 137.993C73.1541 137.987 73.1539 137.982 73.1542 137.979L73.1542 137.974C73.1558 137.836 73.0454 137.722 72.9071 137.721C72.769 137.719 72.6555 137.829 72.6537 137.968C72.6537 137.969 72.6534 137.997 72.6533 138.052C72.6517 138.883 72.7031 145.721 74.8061 153.871C75.8581 157.946 77.4232 162.349 79.7556 166.493C82.0876 170.636 85.1882 174.522 89.3097 177.55C89.4212 177.632 89.5778 177.609 89.6597 177.497C89.7415 177.386 89.7176 177.229 89.6063 177.147Z" fill="#1A1A1A"/>
<path d="M81.8817 133.267C82.0067 134.863 80.7101 136.267 78.9869 136.4C80.7101 136.267 82.2074 137.454 82.3312 139.051C82.4558 140.649 81.1589 142.052 79.4362 142.187C78.81 142.235 77.6024 141.608 77.0903 141.351C77.7261 141.836 78.7654 143.055 78.8292 143.879C78.9344 145.226 78.0359 146.438 76.7222 146.877C76.4653 146.962 76.194 147.018 75.91 147.041C75.6261 147.063 75.3491 147.049 75.082 147.004C73.9812 146.818 73.0697 146.096 72.7032 145.117C72.491 146.141 71.7025 146.995 70.6439 147.348C70.3873 147.433 70.116 147.49 69.8321 147.512C69.5481 147.534 69.271 147.52 69.0042 147.475C67.638 147.245 66.564 146.187 66.4587 144.84C66.394 144.015 67.4551 142.593 68.0072 142.015C67.5424 142.347 66.2245 143.212 65.5971 143.261C63.8744 143.395 62.3773 142.208 62.2528 140.61C62.1289 139.014 63.4251 137.609 65.1483 137.476C63.4251 137.609 61.9269 136.423 61.803 134.826C61.6785 133.228 62.9751 131.825 64.6981 131.691C65.3252 131.642 66.3048 131.954 66.8162 132.21C66.1804 131.726 65.3689 130.823 65.3051 129.999C65.2007 128.651 66.0984 127.439 67.4121 127C67.6689 126.915 67.9403 126.859 68.2241 126.837C68.5081 126.814 68.7852 126.828 69.0523 126.873C70.1529 127.059 71.0643 127.781 71.4322 128.76C71.6431 127.736 72.4326 126.881 73.4912 126.528C73.7481 126.443 74.0194 126.387 74.3034 126.365C74.5873 126.343 74.8641 126.356 75.1312 126.401C76.4962 126.632 77.5714 127.69 77.6755 129.037C77.74 129.862 77.0402 130.874 76.4881 131.451C76.954 131.119 77.9111 130.664 78.5371 130.616C80.2601 130.482 81.7583 131.668 81.8817 133.267Z" fill="#339E7D"/>
<path d="M72.8608 145.063C72.2472 143.25 71.8285 141.479 71.814 139.797C71.8056 138.831 71.9298 137.894 72.2257 136.99C72.2473 136.925 72.2258 136.852 72.1723 136.809C72.1185 136.765 72.0433 136.759 71.9835 136.794C70.8239 137.465 69.5974 137.764 68.3073 137.776C67.3047 137.785 66.2638 137.619 65.193 137.315C65.1042 137.29 65.0121 137.342 64.9871 137.43C64.9619 137.519 65.0135 137.611 65.1021 137.637C66.1967 137.946 67.2686 138.119 68.3102 138.11C69.5184 138.099 70.6858 137.842 71.7916 137.277C71.5676 138.097 71.4728 138.94 71.4803 139.8C71.4957 141.536 71.9251 143.338 72.5446 145.17C72.5743 145.257 72.6688 145.304 72.7563 145.275C72.8435 145.245 72.8905 145.151 72.8608 145.063Z" fill="#1A1A1A"/>
<path d="M79.1475 136.356C79.1228 136.267 79.0304 136.215 78.9415 136.24C77.3145 136.698 75.7395 137.019 74.2833 137.031C73.5843 137.037 72.9135 136.971 72.2757 136.818C72.5441 135.859 72.677 134.859 72.6679 133.819C72.6539 132.21 72.3004 130.505 71.5869 128.699C71.553 128.613 71.4561 128.571 71.3704 128.605C71.2848 128.639 71.2426 128.736 71.2766 128.822C71.9774 130.596 72.3206 132.26 72.3342 133.822C72.3435 134.891 72.1988 135.912 71.9073 136.891C71.8943 136.934 71.8996 136.98 71.9217 137.02C71.9439 137.059 71.9803 137.088 72.0241 137.1C72.7453 137.292 73.5026 137.372 74.2862 137.365C75.7892 137.351 77.3901 137.023 79.0318 136.562C79.1207 136.537 79.1725 136.445 79.1475 136.356Z" fill="#1A1A1A"/>
<path d="M108.977 171.185C103.331 166.577 96.8597 163.695 90.3069 161.969C83.7536 160.243 77.1181 159.674 71.1346 159.691C58.5696 159.73 48.8776 162.36 48.8642 162.363C48.7307 162.4 48.652 162.537 48.6882 162.671C48.7243 162.804 48.8618 162.883 48.9954 162.847L49.0016 162.845C49.2845 162.768 58.8349 160.229 71.1361 160.192C77.0868 160.174 83.6807 160.742 90.1795 162.453C96.6788 164.165 103.082 167.019 108.66 171.573C108.768 171.661 108.925 171.645 109.013 171.538C109.1 171.43 109.084 171.273 108.977 171.185Z" fill="#1A1A1A"/>
<path d="M47.6857 177.042C49.8584 176.615 51.2472 174.367 50.7845 172.022C51.2472 174.367 53.3845 175.92 55.5575 175.492C57.7324 175.064 59.1197 172.815 58.6585 170.47C58.4899 169.618 57.2071 168.242 56.6743 167.656C57.5558 168.323 59.5652 169.254 60.6865 169.033C62.5201 168.673 63.801 167.025 63.8971 165.112C63.9152 164.738 63.8898 164.356 63.8136 163.97C63.7375 163.583 63.616 163.219 63.457 162.88C62.8008 161.483 61.4997 160.537 60.0594 160.413C61.3448 159.75 62.1897 158.382 62.2667 156.841C62.2847 156.468 62.2591 156.085 62.1831 155.699C62.1071 155.312 61.9855 154.949 61.8265 154.609C61.0125 152.875 59.2042 151.838 57.3708 152.198C56.2477 152.419 54.7477 154.361 54.1839 155.311C54.4535 154.568 55.1155 152.491 54.9476 151.637C54.4864 149.293 52.3492 147.74 50.1743 148.167C48.0013 148.596 46.6124 150.844 47.0754 153.189C46.6124 150.844 44.4756 149.289 42.3025 149.718C40.1279 150.145 38.7403 152.394 39.2018 154.739C39.3699 155.593 40.1496 156.782 40.6805 157.368C39.7993 156.701 38.2951 155.955 37.1736 156.176C35.3397 156.538 34.059 158.184 33.9629 160.097C33.9448 160.47 33.9704 160.853 34.0465 161.24C34.1225 161.626 34.2443 161.99 34.403 162.329C35.0592 163.726 36.3603 164.671 37.8002 164.798C36.5155 165.459 35.6699 166.828 35.5929 168.37C35.5749 168.743 35.6005 169.126 35.6765 169.512C35.7526 169.898 35.8741 170.262 36.0333 170.601C36.8475 172.334 38.6554 173.373 40.4895 173.011C41.6123 172.79 42.7002 171.482 43.264 170.532C42.9939 171.276 42.7441 172.72 42.9124 173.572C43.3739 175.917 45.5107 177.471 47.6857 177.042Z" fill="#127754"/>
<path d="M60.0686 160.246C59.2528 160.202 58.4476 160.18 57.6567 160.19C56.0173 160.209 54.4395 160.36 52.9576 160.715C51.612 161.038 50.3453 161.53 49.1865 162.243C49.3555 161.466 49.4322 160.696 49.4232 159.933C49.3955 157.588 48.5689 155.316 47.2169 153.101C47.1689 153.023 47.0665 152.998 46.988 153.046C46.9093 153.094 46.8843 153.197 46.9323 153.275C48.2634 155.457 49.0629 157.669 49.0895 159.937C49.0994 160.803 48.9973 161.677 48.7681 162.563C48.7509 162.63 48.777 162.701 48.8333 162.741C48.8895 162.781 48.9652 162.782 49.0225 162.744C50.237 161.933 51.5844 161.388 53.0351 161.04C54.4856 160.692 56.039 160.542 57.6606 160.523C58.4428 160.514 59.2406 160.536 60.0503 160.58C60.1423 160.584 60.221 160.514 60.2259 160.422C60.231 160.33 60.1606 160.251 60.0686 160.246Z" fill="white"/>
<path d="M50.5317 166.605C50.2463 165.112 49.788 163.731 49.0736 162.52C49.0507 162.481 49.0133 162.453 48.9694 162.443C48.9253 162.432 48.8792 162.439 48.8409 162.464C46.5046 163.933 43.7424 164.722 40.497 164.761C39.6379 164.771 38.7452 164.728 37.8178 164.631C37.7259 164.621 37.6437 164.688 37.6343 164.78C37.6245 164.871 37.6914 164.953 37.783 164.963C38.7224 165.061 39.6281 165.105 40.5009 165.094C43.7301 165.057 46.5105 164.283 48.8706 162.837C49.5121 163.971 49.9354 165.263 50.204 166.668C50.4839 168.134 50.5958 169.723 50.6152 171.38C50.6177 171.592 50.6185 171.806 50.6181 172.021C50.6179 172.113 50.6925 172.188 50.7846 172.188C50.8768 172.188 50.9516 172.114 50.9517 172.022C50.9522 171.805 50.951 171.59 50.9485 171.376C50.9289 169.707 50.817 168.099 50.5317 166.605Z" fill="white"/>
<path d="M222.938 152.616C222.878 152.491 222.728 152.439 222.603 152.5C222.591 152.506 215.303 156.035 207.474 162.673C203.559 165.993 199.509 170.09 196.167 174.916C192.825 179.742 190.192 185.299 189.121 191.533C189.097 191.669 189.189 191.799 189.325 191.822C189.461 191.845 189.591 191.754 189.614 191.618C190.67 185.471 193.269 179.981 196.578 175.201C201.542 168.032 208.106 162.464 213.428 158.693C216.09 156.807 218.44 155.37 220.124 154.405C220.966 153.923 221.642 153.559 222.106 153.315C222.338 153.193 222.518 153.102 222.639 153.041C222.699 153.01 222.745 152.988 222.776 152.972C222.791 152.965 222.803 152.959 222.81 152.956C222.818 152.952 222.821 152.95 222.821 152.95C222.946 152.89 222.998 152.74 222.938 152.616Z" fill="#1A1A1A"/>
<path d="M231.514 161.255C229.89 162.187 227.756 161.522 226.751 159.767C227.756 161.522 227.253 163.699 225.627 164.631C224.001 165.564 221.868 164.897 220.862 163.144C220.497 162.506 220.553 160.916 220.568 160.246C220.375 161.161 219.608 162.87 218.77 163.351C217.399 164.138 215.667 163.796 214.545 162.627C214.326 162.399 214.13 162.14 213.964 161.851C213.798 161.562 213.674 161.262 213.588 160.958C213.232 159.701 213.538 158.376 214.389 157.498C213.2 157.787 211.902 157.383 210.999 156.441C210.78 156.213 210.584 155.954 210.418 155.665C210.253 155.376 210.128 155.076 210.042 154.772C209.6 153.213 210.179 151.547 211.55 150.76C212.39 150.278 214.424 150.687 215.311 150.981C214.728 150.656 213.152 149.696 212.786 149.058C211.781 147.305 212.284 145.128 213.91 144.195C215.536 143.263 217.67 143.928 218.675 145.683C217.67 143.928 218.172 141.75 219.797 140.819C221.423 139.886 223.556 140.552 224.562 142.306C224.929 142.944 225.09 144.136 225.076 144.805C225.269 143.89 225.816 142.579 226.655 142.099C228.027 141.313 229.758 141.654 230.88 142.822C231.099 143.051 231.295 143.309 231.46 143.598C231.626 143.887 231.75 144.187 231.837 144.491C232.192 145.748 231.886 147.073 231.036 147.953C232.224 147.662 233.523 148.068 234.427 149.009C234.646 149.238 234.842 149.496 235.007 149.785C235.173 150.074 235.297 150.374 235.384 150.679C235.824 152.237 235.246 153.903 233.874 154.689C233.035 155.171 231.614 154.939 230.728 154.645C231.313 154.97 232.273 155.754 232.638 156.391C233.644 158.145 233.141 160.323 231.514 161.255Z" fill="#127754"/>
<path d="M222.807 152.587C221.656 151.795 220.791 150.798 220.148 149.631C219.505 148.463 219.087 147.124 218.839 145.654C218.824 145.564 218.737 145.502 218.647 145.518C218.556 145.533 218.495 145.619 218.51 145.71C218.763 147.207 219.191 148.583 219.855 149.792C220.457 150.885 221.254 151.84 222.285 152.621C220.866 152.864 219.531 153.42 218.26 154.192C216.868 155.037 215.551 156.14 214.273 157.378C214.207 157.442 214.205 157.548 214.269 157.614C214.333 157.68 214.439 157.682 214.505 157.618C215.772 156.391 217.072 155.304 218.433 154.477C219.795 153.65 221.217 153.083 222.734 152.89C222.802 152.882 222.858 152.831 222.875 152.764C222.891 152.697 222.864 152.627 222.807 152.587Z" fill="white"/>
<path d="M231.15 147.83C231.082 147.767 230.977 147.771 230.914 147.838C229.629 149.213 228.299 150.281 226.928 151.061C225.556 151.841 224.143 152.334 222.687 152.56C222.642 152.567 222.602 152.591 222.576 152.628C222.55 152.665 222.54 152.711 222.548 152.755C222.778 154.004 223.3 155.213 224.013 156.395C224.725 157.578 225.628 158.734 226.624 159.877C226.685 159.947 226.791 159.954 226.86 159.893C226.93 159.833 226.937 159.727 226.876 159.658C225.887 158.524 224.996 157.381 224.299 156.223C223.633 155.119 223.145 154.001 222.91 152.861C224.346 152.618 225.742 152.12 227.093 151.351C228.498 150.552 229.853 149.462 231.158 148.066C231.221 147.999 231.217 147.893 231.15 147.83Z" fill="white"/>
<path d="M197.29 187.777C203.574 185.953 207.153 183.854 207.153 181.621C207.153 174.595 171.741 168.9 128.058 168.9C87.1521 168.9 53.4998 173.894 49.3859 180.298C38.3828 182.059 31.1071 185.109 31.1071 188.577C31.1071 194.027 49.0817 198.447 71.2546 198.447C85.6128 198.447 98.2103 196.594 105.307 193.807C112.512 194.155 120.149 194.341 128.058 194.341C137.812 194.341 147.153 194.057 155.78 193.538C159.625 195.433 169.045 196.772 180.056 196.772C194.486 196.772 206.183 194.473 206.183 191.637C206.183 190.098 202.741 188.718 197.29 187.777Z" fill="url(#paint1_linear_853_142)"/>
<g opacity="0.5">
<path d="M160.06 182.807C160.06 185.854 147.138 188.323 131.198 188.323C115.259 188.323 102.337 185.854 102.337 182.807C102.337 179.76 115.259 177.291 131.198 177.291C147.138 177.291 160.06 179.76 160.06 182.807Z" fill="#142A52"/>
</g>
<path d="M98.7441 148.829C98.7441 151.166 96.8491 153.062 94.5115 153.062C92.1741 153.062 90.2793 151.166 90.2793 148.829C90.2793 146.491 92.1741 144.596 94.5115 144.596C96.8491 144.596 98.7441 146.491 98.7441 148.829Z" fill="url(#paint2_linear_853_142)"/>
<path d="M87.176 104.746C87.176 106.276 85.9354 107.517 84.4052 107.517C82.8752 107.517 81.6348 106.276 81.6348 104.746C81.6348 103.215 82.8752 101.975 84.4052 101.975C85.9354 101.975 87.176 103.215 87.176 104.746Z" fill="url(#paint3_linear_853_142)"/>
<path d="M212.624 142.51C212.624 146.468 209.415 149.678 205.456 149.678C201.498 149.678 198.288 146.468 198.288 142.51C198.288 138.551 201.498 135.342 205.456 135.342C209.415 135.342 212.624 138.551 212.624 142.51Z" fill="url(#paint4_linear_853_142)"/>
<path d="M55.8931 133.546C55.8931 135.6 54.2277 137.266 52.173 137.266C50.1183 137.266 48.4526 135.6 48.4526 133.546C48.4526 131.491 50.1183 129.826 52.173 129.826C54.2277 129.826 55.8931 131.491 55.8931 133.546Z" fill="url(#paint5_linear_853_142)"/>
<path d="M168.997 16.7413C168.997 22.3738 164.431 26.94 158.799 26.94C153.166 26.94 148.6 22.3738 148.6 16.7413C148.6 11.1089 153.166 6.54271 158.799 6.54271C164.431 6.54271 168.997 11.1089 168.997 16.7413Z" fill="url(#paint6_linear_853_142)"/>
<path d="M95.3933 39.871C95.3933 47.8715 88.9081 54.3574 80.9083 54.3574C72.9085 54.3574 66.4233 47.8715 66.4233 39.871C66.4233 31.8703 72.9085 25.3847 80.9083 25.3847C88.9081 25.3847 95.3933 31.8703 95.3933 39.871Z" fill="#FFB013"/>
<path d="M92.8434 39.871C92.8434 46.4633 87.5001 51.8073 80.9083 51.8073C74.3168 51.8073 68.9732 46.4633 68.9732 39.871C68.9732 33.2788 74.3168 27.9348 80.9083 27.9348C87.5001 27.9348 92.8434 33.2788 92.8434 39.871Z" fill="#FFDE6F"/>
<path d="M85.4256 45.9116L81.1559 40.02L80.642 40.0115C80.6239 40.0837 80.6383 40.1592 80.6819 40.2193L85.0201 46.2055C85.1013 46.3172 85.2576 46.3422 85.3695 46.2611C85.4816 46.18 85.5067 46.0235 85.4256 45.9116Z" fill="#1A1A1A"/>
<path d="M81.1588 39.9557L81.1592 34.434C81.1592 34.3265 81.0917 34.235 80.9969 34.1995C80.9696 34.1893 80.9398 34.1835 80.9089 34.1835C80.7706 34.1835 80.6587 34.2956 80.6587 34.434L80.6582 40.0725C80.6582 40.1466 81.1588 39.9557 81.1588 39.9557Z" fill="#1A1A1A"/>
<path d="M187.122 113.434L186.302 115.917H185.248L187.931 108.021H189.161L191.856 115.917H190.766L189.922 113.434H187.122ZM189.712 112.637L188.938 110.364C188.763 109.848 188.645 109.38 188.528 108.923H188.505C188.388 109.392 188.259 109.872 188.107 110.352L187.333 112.637H189.712Z" fill="#DB6767"/>
<path d="M212.1 110.043H193.277V109.118H212.1V110.043Z" fill="#AF80AF"/>
<path d="M212.1 115.156H193.277V114.231H212.1V115.156Z" fill="#AF80AF"/>
<path d="M212.1 120.27H185.248V119.345H212.1V120.27Z" fill="#AF80AF"/>
<path d="M212.1 125.384H185.248V124.459H212.1V125.384Z" fill="#AF80AF"/>
<path d="M212.1 130.498H185.248V129.572H212.1V130.498Z" fill="#AF80AF"/>
<path d="M212.1 135.611H185.248V134.686H212.1V135.611Z" fill="#AF80AF"/>
<path d="M43.7315 116.79C46.0722 118.28 48.8079 119.165 51.6919 119.264L51.4409 103.511L43.7315 116.79Z" fill="#D13349"/>
<path d="M37.2243 108.577C38.4445 111.921 40.7315 114.682 43.621 116.521L51.3305 103.242L37.2243 108.577Z" fill="#1A1A1A"/>
<path d="M51.4446 102.988L66.3801 110.149C67.8792 107.251 68.5029 103.867 67.9583 100.397C66.5979 91.7278 58.4672 85.8027 49.7977 87.1631C41.1283 88.5234 35.2033 96.6541 36.5636 105.323C36.7273 106.366 36.99 107.369 37.3386 108.324L51.4446 102.988Z" fill="#ECECEC"/>
<path d="M66.4795 109.957L51.4486 102.999L51.9128 118.747C52.9084 118.768 53.9201 118.696 54.9386 118.522C60.1259 117.636 64.2927 114.328 66.4795 109.957Z" fill="#7F7F7F"/>
<path d="M51.9128 118.747C52.9084 118.768 53.9203 118.696 54.9386 118.522C60.1262 117.636 64.293 114.328 66.4795 109.957L51.4486 102.999L51.9128 118.747Z" fill="#FFB013"/>
</g>
<mask id="mask2_853_142" style="mask-type:luminance" maskUnits="userSpaceOnUse" x="0" y="-36" width="267" height="267">
<path d="M0 -35.4685H266.469V231H0V-35.4685Z" fill="white"/>
</mask>
<g mask="url(#mask2_853_142)">
<path d="M174.945 45.6193C174.706 45.991 179.871 25.544 199.502 27.2499C219.345 28.9744 223.139 52.4737 214.52 63.6889C205.9 74.9039 198.116 76.6048 184.963 79.0783C171.811 81.552 155.812 90.8544 164.934 110.922C174.056 130.99 153.248 129.499 145.382 126.729C141.704 125.433 108.475 109.212 95.5707 131.478C82.4339 154.138 123.953 180.552 142.98 182.52C155.999 183.868 153.277 171.912 144.737 169.465C138.616 167.712 129.303 165.199 119.118 156.657C108.934 148.116 101.896 122.136 112.695 110.684C124.499 98.1672 138.015 90.0595 173.318 97.9572C202.017 104.378 221.859 93.1504 230.139 73.0267C239.293 50.7763 216.541 26.9972 196.75 30.6864C189.054 32.1211 182.487 33.9131 174.945 45.6193Z" stroke="#102040" stroke-width="1.5" stroke-miterlimit="10"/>
<path d="M151.987 139.032L151.987 139.034C152.233 145.31 152.439 161.266 152.408 164.896C151.896 165.711 151.254 166.402 150.52 166.952C148.207 168.699 145.004 169.071 142.263 167.643L126.598 159.478C126.288 157.4 125.684 144.67 125.143 141.899C120.953 120.433 123.112 109.008 123.112 109.008C123.112 109.008 140.278 92.1144 146.76 105.434C146.86 105.637 146.958 105.851 147.052 106.069C149.534 111.828 150.849 121.348 151.53 130.727C151.735 133.544 151.883 136.347 151.987 139.032Z" fill="#736E00"/>
<path d="M151.987 139.032L151.987 139.034C152.233 145.31 152.428 161.044 152.397 164.674C151.885 165.489 150.133 165.013 149.398 165.564C149.415 160.327 150.153 143.32 148.886 140.809C146.957 136.99 145.471 128.194 145.471 128.194L144.988 126.811C145.177 126.938 148.46 128.899 151.53 130.727C151.735 133.544 151.883 136.347 151.987 139.032Z" fill="#005F31"/>
<path d="M179.165 145.827L158.991 160.419L148.506 139.934L143.748 131.101L138.451 108.962L139.596 109.02L146.717 105.979L158.24 101.057C158.24 101.057 175.736 134.526 179.165 145.827Z" fill="#736E00"/>
<path d="M193.99 72.6362C193.201 69.6057 191.281 67.063 188.582 65.4777L147.882 41.5599C146.919 40.995 145.884 40.5702 144.807 40.2984C139.797 39.0351 134.47 41.2613 131.844 45.7133L91.7472 112.705C90.1601 115.404 89.7191 118.56 90.5074 121.591C91.2937 124.621 93.2141 127.164 95.9152 128.751L136.613 152.667C137.578 153.232 138.613 153.659 139.69 153.929C144.699 155.192 150.025 152.966 152.651 148.514L192.75 81.5242C194.337 78.8231 194.776 75.6686 193.99 72.6362ZM168.766 58.4361L170.621 59.5661C171.453 60.0737 171.715 61.1569 171.208 61.9883L171.02 62.2978C170.513 63.1274 169.43 63.3919 168.598 62.8845L160.317 57.8349C159.485 57.3293 159.223 56.2441 159.728 55.4127L159.917 55.1052C160.301 54.4752 161.013 54.173 161.699 54.2827L168.766 58.4361Z" fill="#CCC4CC"/>
<path d="M189.329 79.5121L186.835 83.6802L133.104 51.3349L135.257 47.7398C137.427 44.047 142.18 42.8125 145.872 44.9827L161.699 54.2829C161.013 54.173 160.301 54.4752 159.918 55.105L159.729 55.413C159.223 56.2443 159.486 57.3293 160.317 57.8349L168.599 62.8847C169.43 63.3921 170.514 63.1272 171.021 62.2978L171.208 61.9881C171.715 61.1569 171.453 60.0735 170.621 59.5661L168.766 58.4358L186.572 68.8985C190.265 71.0669 191.499 75.8196 189.329 79.5121Z" fill="#6484C5"/>
<path d="M133.105 51.3351L95.1677 114.714C92.9978 118.407 94.2322 123.159 97.9248 125.33L138.624 149.246C142.317 151.415 147.069 150.181 149.239 146.488L186.835 83.6799L133.105 51.3351Z" fill="white"/>
<path d="M138.484 66.2065L114.792 105.788C113.436 108.094 114.207 111.062 116.513 112.417L141.931 127.353C144.237 128.708 147.205 127.937 148.56 125.631L172.229 85.9782L138.484 66.2065Z" fill="url(#paint7_linear_853_142)"/>
<path d="M123.824 121.641L106.095 110.753L106.965 109.34L124.797 120.22L123.824 121.641Z" fill="#CCC4CC"/>
<path d="M114.373 122.186L102.844 115.099L103.632 113.818L115.161 120.905L114.373 122.186Z" fill="#CCC4CC"/>
<path d="M123.186 134.456L100.009 119.711L100.797 118.43L123.973 133.175L123.186 134.456Z" fill="#D13349"/>
<path d="M178.35 44.9412L174.749 42.332C173.689 41.5619 172.205 41.7973 171.436 42.859L162.599 55.0477C161.83 56.1093 162.066 57.592 163.128 58.3623L166.727 60.9715C167.789 61.7416 169.273 61.5042 170.042 60.4441L178.879 48.2561C179.647 47.1942 179.412 45.7115 178.35 44.9412ZM175.478 47.0394C175.296 47.7573 174.566 48.1948 173.846 48.0129C173.126 47.8313 172.691 47.1007 172.872 46.3828C173.054 45.6629 173.785 45.2254 174.502 45.4073C175.223 45.5889 175.66 46.3195 175.478 47.0394Z" fill="#102040"/>
<path d="M78.9374 88.9483C78.9374 88.9483 75.7573 87.6804 74.0738 84.0064C72.3902 80.3328 70.5806 81.2668 71.6233 83.4454C72.666 85.624 71.9318 86.3236 70.1286 85.4494C68.3258 84.5751 59.9995 85.2257 60.1615 88.2251C60.3233 91.2245 67.7951 92.2255 71.6931 93.1674C75.5911 94.1094 76.8818 94.083 76.8818 94.083L78.9374 88.9483Z" fill="#FB9490"/>
<path d="M127.462 88.5728C127.462 88.5728 127.392 88.6779 127.257 88.8695C126.006 90.63 119.068 99.7176 107.244 102.648C102.852 103.736 98.4197 104.322 92.5029 102.897C87.813 101.769 82.1885 99.3788 74.9098 94.9728C73.346 91.5496 78.8981 86.7828 78.8981 86.7828C78.8981 86.7828 95.7089 97.9792 105.624 88.9746C113.3 82.0019 118.847 73.4268 118.847 73.4268L126.424 86.6078L127.29 88.2475L127.462 88.5728Z" fill="#005F31"/>
<path d="M127.257 88.8695C126.006 90.6298 119.068 99.7174 107.244 102.647C102.852 103.736 98.4197 104.322 92.5029 102.897C94.2473 102.769 95.9911 102.614 97.7302 102.439C102.437 101.969 107.576 101.907 111.764 99.4069C114.89 97.5407 117.417 94.7713 119.47 91.7974C120.194 90.7501 120.867 89.6635 121.476 88.5428C121.572 88.3682 121.953 87.2983 122.144 87.2365C122.144 87.2365 124.965 86.321 126.424 86.6076C126.884 86.698 127.272 88.6434 127.257 88.8695Z" fill="#005F31"/>
<path d="M116.059 84.4011L121.956 115.588C121.956 115.588 153.231 121.087 160.276 101.841C149.794 70.2223 153.747 63.6747 134.672 66.9396C115.598 70.2046 115.171 79.7019 116.059 84.4011Z" fill="#CFEE55"/>
<path d="M150.039 116.316C150.039 116.316 142.513 103.34 139.178 89.3139C135.842 75.2883 139.691 65.7958 139.691 65.7958C139.691 65.7958 142.414 64.7648 147.327 67.0322C149.432 68.004 152.529 73.5014 155.419 79.8214C157.604 84.5992 159.67 89.8464 161.1 93.9638C162.189 97.0968 162.91 99.5765 163.038 100.698C163.551 105.238 150.039 116.316 150.039 116.316Z" fill="#005F31"/>
<path d="M132.039 119.312L119.894 115.589C119.894 115.589 119.174 111.026 118.318 105.445C117.483 100.005 116.515 93.5987 115.959 89.5208V89.5191C115.903 89.1125 115.851 88.731 115.804 88.3746C114.803 80.7625 115.573 73.3216 125.622 68.8316C125.622 68.8316 131.588 81.4033 132.934 95.2579C134.282 109.112 132.039 119.312 132.039 119.312Z" fill="#005F31"/>
<path d="M138.04 68.733C138.04 68.733 131.922 75.8932 128.486 69.8788C127.58 64.2947 126.422 57.2271 126.422 57.2271L136.619 54.6033C136.619 54.6033 135.749 65.0097 138.04 68.733Z" fill="#FB9490"/>
<path d="M127.455 63.5204C127.455 63.5204 129.997 63.4793 131.506 62.7792C130.122 64.5487 127.693 64.9909 127.693 64.9909L127.455 63.5204Z" fill="#DB6767"/>
<path d="M125.496 42.5354C125.496 42.5354 121.202 45.3415 121.355 47.9557C121.508 50.5697 124.214 49.4588 124.76 48.9797C125.305 48.5006 125.496 42.5354 125.496 42.5354Z" fill="#102040"/>
<path d="M127.464 63.3425C127.464 63.3425 119.852 63.885 120.316 56.6827C120.781 49.4801 125.964 41.1989 131.623 41.5638C137.282 41.9287 138.606 42.4442 137.872 53.8383C137.191 64.3971 127.464 63.3425 127.464 63.3425Z" fill="#FB9490"/>
<path d="M137.589 61.4764C137.589 61.4764 139.661 57.0838 140.164 55.7507C140.667 54.4177 143.296 45.0291 139.645 42.8213C135.994 40.6138 133.615 40.138 133.615 40.138C133.615 40.138 130.505 38.3566 127.214 39.4406C122.447 41.0108 122.945 47.8019 122.945 47.8019L124.643 47.8871C124.643 47.8871 128.091 45.8314 129.875 46.4014C131.659 46.9717 133.652 49.6543 133.652 49.6543C133.652 49.6543 133.362 51.7468 133.572 52.5949C133.783 53.4429 134.854 52.7154 134.854 52.7154C134.854 52.7154 135.495 51.6042 137.017 52.1196C138.539 52.6349 136.714 56.4735 136.011 56.8113C134.314 57.626 136.428 62.1519 137.589 61.4764Z" fill="#102040"/>
<path d="M188.798 62.2839C188.798 62.2839 190.434 61.1693 191.65 57.9445C192.867 54.7199 193.276 53.4686 194.482 53.7992C195.689 54.1299 193.816 57.8067 194.775 58.0695C195.734 58.3323 197.329 56.2753 198.607 54.7636C199.886 53.2519 204.729 53.2988 203.531 57.6678C202.334 62.0366 200.834 61.7483 197.424 63.6909C194.64 65.2771 191.51 66.5854 191.51 66.5854L188.798 62.2839Z" fill="#FB9490"/>
<path d="M160.999 93.7533C156.144 92.3876 149.474 83.1164 149.474 83.1164L155.838 80.4979C157.78 85.3951 159.784 89.578 160.999 93.7533Z" fill="#005F31"/>
<path d="M192.785 68.4918C192.785 68.4918 182.992 82.4947 171.639 86.6762C169.43 87.4887 167.163 87.9293 164.896 87.8221C150.976 87.164 148.147 81.8972 148.147 81.8972L144.361 66.3159C144.361 66.3159 151.155 67.5445 160.111 71.826C168.539 75.8558 182.658 64.173 187.763 61.1256C191.443 63.1227 192.62 64.4127 193.187 65.6844C193.991 67.4898 192.785 68.4918 192.785 68.4918Z" fill="#005F31"/>
<path d="M192.786 68.4919C192.786 68.4919 182.979 82.4574 171.626 86.6388C174.981 84.9292 176.671 81.5784 184.162 74.1165C188.343 69.9535 192.072 67.7303 193.187 65.6842C193.991 67.4896 192.786 68.4919 192.786 68.4919Z" fill="#005F31"/>
</g>
</g>
</g>
<defs>
<linearGradient id="paint0_linear_853_142" x1="120.272" y1="182.138" x2="119.384" y2="98.6449" gradientUnits="userSpaceOnUse">
<stop stop-color="white"/>
<stop offset="0.5" stop-color="#B4D8FD"/>
<stop offset="1" stop-color="#68B2FC"/>
</linearGradient>
<linearGradient id="paint1_linear_853_142" x1="29.8631" y1="183.673" x2="209.063" y2="183.673" gradientUnits="userSpaceOnUse">
<stop stop-color="#529BF7"/>
<stop offset="0.5" stop-color="#5DA7F9"/>
<stop offset="1" stop-color="#68B2FC"/>
</linearGradient>
<linearGradient id="paint2_linear_853_142" x1="89.7375" y1="148.829" x2="100.285" y2="148.829" gradientUnits="userSpaceOnUse">
<stop stop-color="#529BF7"/>
<stop offset="0.5" stop-color="#3C7CE0"/>
<stop offset="1" stop-color="#275DC9"/>
</linearGradient>
<linearGradient id="paint3_linear_853_142" x1="80.2974" y1="104.746" x2="106.611" y2="104.746" gradientUnits="userSpaceOnUse">
<stop stop-color="#529BF7"/>
<stop offset="0.5" stop-color="#3C7CE0"/>
<stop offset="1" stop-color="#275DC9"/>
</linearGradient>
<linearGradient id="paint4_linear_853_142" x1="196.796" y1="142.51" x2="217.003" y2="142.51" gradientUnits="userSpaceOnUse">
<stop stop-color="#529BF7"/>
<stop offset="0.5" stop-color="#5DA7F9"/>
<stop offset="1" stop-color="#68B2FC"/>
</linearGradient>
<linearGradient id="paint5_linear_853_142" x1="43.2905" y1="133.546" x2="74.3785" y2="133.546" gradientUnits="userSpaceOnUse">
<stop stop-color="#529BF7"/>
<stop offset="0.5" stop-color="#5DA7F9"/>
<stop offset="1" stop-color="#68B2FC"/>
</linearGradient>
<linearGradient id="paint6_linear_853_142" x1="145.031" y1="16.7413" x2="181.005" y2="16.7413" gradientUnits="userSpaceOnUse">
<stop stop-color="#529BF7"/>
<stop offset="0.5" stop-color="#5DA7F9"/>
<stop offset="1" stop-color="#68B2FC"/>
</linearGradient>
<linearGradient id="paint7_linear_853_142" x1="123.514" y1="123.216" x2="159.931" y2="67.0352" gradientUnits="userSpaceOnUse">
<stop stop-color="#529BF7"/>
<stop offset="0.5" stop-color="#5DA7F9"/>
<stop offset="1" stop-color="#68B2FC"/>
</linearGradient>
<clipPath id="clip0_853_142">
<rect width="231" height="231" fill="white"/>
</clipPath>
</defs>
</svg>
