<svg width="732" height="547" viewBox="0 0 732 547" fill="none" xmlns="http://www.w3.org/2000/svg">
<path d="M177.871 268.428C180.83 266.255 181.754 263.309 182.957 260.605C187.545 250.294 186.8 249.429 176.049 248.999C172.051 248.838 168.081 248.053 163.984 248.012C160.12 247.974 157.357 244.968 155.847 241.369C154.513 238.192 153.519 234.866 152.453 231.58C151.496 228.626 149.889 226.356 146.5 227.52C143.075 228.697 140.79 231.437 142.713 235.025C145.694 240.59 142.983 242.983 138.013 245.373C135.635 237.068 128.917 231.586 126.42 223.496C124.45 217.117 117.837 214.824 113.187 210.829C112.221 209.999 111.062 210.041 110.09 210.973C109.14 211.885 109.145 213.068 109.502 214.19C110.572 217.553 112.182 220.519 115.271 222.532C117.517 223.995 120.342 224.816 121.617 227.852C120.8 230.406 119.186 232.443 116.324 235.03C112.907 225.492 102.47 223.672 97.9711 215.603C97.0525 213.956 95.0429 212.361 93.4651 212.864C86.2248 215.173 77.7956 213.326 71.9223 220.734C67.2513 226.625 62.0525 231.67 59.1291 239.09C56.1726 246.595 36.4968 250.047 29.9023 245.237C27.1426 243.224 27.0407 239.973 26.9955 237.055C26.903 231.068 27.1635 225.069 27.4625 219.084C27.736 213.607 30.1424 210.998 35.999 212.778C39.0383 213.703 42.2646 214.175 45.4397 214.43C49.2451 214.735 52.9017 213.963 54.9185 210.196C57.0494 206.216 55.2683 202.703 53.4001 199.112C51.323 195.121 46.0157 194.553 44.0049 189.852C49.2038 186.901 55.8186 186.891 59.4173 181.117C57.4819 178.405 54.6929 179.083 52.1146 179.534C42.183 181.272 42.2159 181.314 42.1887 171.749C42.1856 170.657 41.6955 169.566 41.2536 167.741C37.6721 169.312 34.5054 170.98 31.1589 172.106C25.0173 174.173 22.8161 171.902 23.7114 165.485C24.6256 158.933 27.0018 153.595 33.1483 150.513C34.991 149.589 35.46 147.783 35.9696 145.982C36.6592 143.543 37.3015 141.078 38.2043 138.717C39.6377 134.97 41.8377 130.169 45.8956 131.192C49.4514 132.088 54.0286 136.048 54.0129 140.164C53.9813 148.408 59.0539 154.202 63.009 159.805C66.6616 164.979 69.0495 168.855 65.0912 175.189C70.7318 175.603 73.3803 172.927 75.3881 169.561C77.7199 165.651 80.5699 162.588 85.0362 161.216C90.25 159.615 91.4221 156.043 90.1571 150.923C88.5296 144.337 90.1455 142.324 97.3766 141.074C99.7263 143.849 97.9971 146.766 97.5199 149.586C96.8017 153.83 98.7639 156.72 102.567 157.25C107.898 157.993 113.197 157.356 118.699 156.531C128.57 155.05 136.13 153.342 135.117 141.081C141.053 137.605 142.644 130.816 146.584 125.817C133.581 121.374 131.257 109.5 141.474 99.6653C142.302 98.8686 143.191 98.1336 144.083 97.4094C146.584 95.3796 147.882 93.0078 144.885 90.573C142.098 88.3099 138.977 88.6385 137.33 91.9366C134.753 97.0971 130.568 100.518 126.364 104.131C121.09 108.664 119.915 114.639 123.593 120.162C126.142 123.99 125.758 126.948 123.14 130.135C120.436 133.426 118.586 136.94 118.768 141.442C118.981 146.695 114.306 148.735 110.927 149.863C106.512 151.336 107.035 145.971 105.619 143.432C104.839 142.032 104.319 140.479 103.733 138.975C100.202 129.912 100.24 129.971 91.8312 134.486C87.505 136.808 84.0661 135.415 82.4917 130.909C80.9782 126.577 80.0845 122.014 79.0874 117.514C77.9981 112.598 80.6982 109.235 84.6204 107.446C99.2462 100.776 105.962 87.1611 113.808 74.5103C115.206 72.2567 115.045 72.1559 114.818 66.7918C123.856 59.9106 134.076 55.9734 145.114 54.4142C149.785 53.7546 154.407 53.9074 159.046 52.0607C162.247 50.7869 165.9 52.1892 168.786 55.371C172.271 59.2129 176.552 62.5723 181.768 63.7344C189.148 65.3787 194.94 70.1012 201.48 73.3554C203.28 74.2511 205.241 75.551 205.153 77.9682C205.054 80.7357 202.703 81.6777 200.62 82.6042C194.892 85.1519 188.907 83.0929 182.688 83.2246C181.859 86.8169 181.697 90.1236 183.47 93.3178C184.26 94.7389 186.405 96.8634 186.721 96.3901C190.638 90.5395 200.154 98.108 202.964 89.1306C204.085 85.5481 208.475 84.471 212.25 84.2309C216.272 83.975 217.454 82.1612 216.399 78.3094C215.926 76.5846 215.774 74.6409 216.027 72.8765C216.356 70.5788 217.948 69.1148 220.394 69.4784C222.913 69.8527 223.461 71.3062 223.044 73.9718C222.266 78.9393 224.88 80.8701 229.185 78.5048C232.776 76.5319 236.025 73.9015 239.334 71.4385C243.551 68.3002 247.698 65.689 252.753 69.9677C253.498 70.5981 254.85 70.6753 255.927 70.6973C258.508 70.7499 269.793 67.3455 272.709 65.7921C273.935 63.0749 269.822 61.5592 271.173 58.8073C281.987 60.1786 292.401 62.6807 301.317 68.7832C303.953 66.0511 302.565 64.4509 301.443 62.6323C297.226 55.7948 303.297 40.7718 310.996 38.8052C316.833 37.3146 320.158 40.1249 318.775 45.9031C317.329 51.9437 318.535 58.1933 319.626 63.5867C321.117 70.9519 319.645 76.0831 315.331 81.3094C314.998 81.7133 315.17 82.5408 315.043 83.8124C320.817 82.7958 324.53 79.1841 326.276 74.6776C327.9 70.4859 329.122 67.1218 334.834 68.0017C332.021 63.3267 323.879 66.8102 324.73 60.5483C325.384 55.734 320.827 50.1307 325.986 46.1219C329.019 45.645 329.084 48.2821 330.47 49.2843C332.246 50.5694 334.325 50.8699 334.849 48.4423C336.82 39.3159 341.987 40.49 348.096 43.8323C348.61 44.1138 349.408 43.8696 350.415 43.8696C351.213 40.2291 346.791 36.2398 351.132 33.0775C354.522 30.6079 358.412 30.534 362.32 30.5942C366.763 30.6627 369.66 29.5099 370.08 24.1495C370.524 18.4875 375.071 17.3498 379.909 16.3769C389.849 14.3779 399.879 12.7647 409.608 9.69965C413.133 8.5892 415.496 6.40385 417.955 3.95564C422.197 -0.268456 426.445 -2.05998 431.406 3.43457C434.559 6.9263 438.501 8.70439 443.774 7.24069C449.325 5.70023 453.972 9.4102 458.217 12.2686C461.654 14.5832 459.611 17.6944 457.014 19.6462C452.06 23.3701 446.944 26.8788 441.858 30.4219C440.022 31.7002 437.706 32.3528 436.203 35.0872C439.374 36.3637 442.269 36.2987 444.768 34.6298C448.868 31.8922 453.598 33.2014 457.586 32.2398C469.087 29.4672 478.369 36.3518 488.848 37.2873C491.745 37.546 493.698 37.7473 496.067 35.3014C500.663 30.5555 505.972 34.6744 510.767 35.5707C514.954 36.3533 516.118 40.161 515.173 44.3529C514.432 47.6432 516.349 49.5419 518.771 51.149C521.185 52.7508 523.368 52.6175 525.641 50.6532C530.567 46.3968 536.084 51.0551 541.435 49.7759C546.146 48.6495 550.917 51.0364 553.624 43.5102C556.174 36.4221 567.916 38.2229 574.723 46.3708C580.59 41.7251 585.37 43.8956 590.85 48.3939C597.148 53.5633 605.096 56.1045 613.43 54.7234C619.945 53.6439 624.682 55.7842 628.249 60.9888C630.482 64.2486 632.825 65.2155 636.928 64.0925C643.479 62.2996 650.665 65.1199 656.296 61.5559C659.157 62.6431 658.474 64.5896 658.998 66.0121C659.605 67.6569 660.818 68.7962 662.608 68.6746C664.153 68.5697 665.179 67.2908 665.201 65.8642C665.274 60.9496 668.026 61.7901 671.643 61.703C684.915 61.3833 696.263 66.3411 706.991 73.3842C709.457 75.0034 711.803 76.9513 713.786 79.1338C715.7 81.2404 716.996 82.9495 720.556 82.1935C724.212 81.4173 727.456 84.1625 730.495 86.179C731.301 86.7142 732.022 88.0905 731.999 89.0621C731.896 93.5219 720.227 100.058 716.787 97.2373C711.989 93.3039 706.142 92.2741 700.516 89.4437C697.871 95.2869 693.451 97.7339 685.925 95.3656C689.208 101.311 695.042 103.869 694.253 110.707C683.113 111.114 674.776 117.985 665.622 123.501C660.789 126.413 654.266 124.23 648.448 125.332C639.176 127.089 634.434 132.267 636.172 141.656C637.527 148.97 634.934 154.243 629.446 159.071C625.594 162.46 622.951 167.22 619.621 171.245C618.231 172.925 617.489 175.443 614.279 175.807C611.512 165.013 604.975 154.52 613.263 143.263C614.5 141.583 615.427 139.628 617.481 138.881C627.177 135.355 631.287 125.737 638.44 119.443C639.107 118.856 639.222 117.808 638.398 116.746C635.803 115.641 633.831 117.791 631.616 118.659C628.886 119.731 626.878 120.633 624.886 116.994C622.884 113.335 619.222 114.815 616.325 116.306C612.11 118.475 609.477 122.319 606.839 126.132C603.369 131.146 599.427 134.681 593.317 129.645C592.804 129.222 591.958 128.657 591.487 128.817C578.922 133.082 562.824 125.887 553.511 141.14C550.949 145.336 546.356 148.243 542.872 151.913C541.399 153.465 538.956 155.266 541.045 157.76C542.591 159.607 544.4 161.321 547.501 160.73C557.047 158.91 559.617 162.1 558.67 171.551C556.917 189.031 547.723 202.386 536.709 214.939C534.255 217.735 531.799 220.801 527.448 218.046C527.085 217.817 526.528 217.656 526.135 217.755C517.927 219.835 517.422 229.059 511.734 233.66C509.238 235.679 511.811 238.695 513.308 241.04C519.206 250.278 517.712 254.156 507.106 257.366C505.357 256.535 504.922 254.948 505.265 253.302C506.233 248.658 506.372 244.477 500.897 242.506C500.512 242.368 499.989 241.9 499.967 241.556C499.347 232.005 494.07 234.544 489.123 237.362C486.195 236.392 486.502 230.753 482.16 233.119C479.64 234.491 477.575 236.373 478.066 239.672C479.132 246.824 485.457 241.646 488.638 244.066C488.967 247.609 486.203 248.866 484.063 250.361C480.231 253.036 479.458 255.977 482.817 259.486C485.571 262.362 486.416 265.697 486.138 269.63C485.912 272.815 485.779 276.112 487.717 279.013C488.729 280.527 488.606 282.376 487.583 283.598C481.284 291.127 479.496 302.948 470.344 307.061C461.69 310.95 453.561 317.82 442.694 316.127C438.919 315.54 435.108 317.82 433.176 321.743C431.378 325.392 432.908 328.276 435.284 331.172C439.68 336.527 445.687 340.89 443.855 349.628C442.412 356.504 441.064 359.097 429.249 366.977C426.602 362.741 422.722 359.601 419.234 356.068C417.198 354.007 414.921 353.335 412.394 354.594C409.507 356.032 408.706 358.742 409.575 361.655C410.825 365.847 411.846 370.466 414.959 373.528C422.397 380.845 424.904 389.258 423.387 399.563C422.875 403.044 424.862 407.285 428.79 408.384C434.115 409.873 434.446 413.039 433.066 417.323C431.448 422.346 432.981 425.104 438.287 426.279C441.862 427.07 445.302 428.13 449.042 428.159C451.498 428.178 454.605 428.295 456.272 429.726C460.74 433.558 465.191 435.481 471.127 433.842C473.199 433.269 475.753 434.103 477.276 436.159C478.281 437.518 477.678 438.89 476.571 439.836C474.34 441.74 472.284 444.084 468.786 443.235C458.414 440.717 447.626 439.321 437.75 435.513C426.296 431.097 417.479 422.516 411.046 411.776C406.378 403.984 403.589 395.021 396.342 388.821C394.059 386.868 390.739 383.948 393.383 380.711C395.77 377.788 399.359 380.085 402.281 381.26C405.083 382.386 406.001 385.99 409.566 386.923C412.514 382.315 410.231 377.886 408.092 374.343C405.191 369.537 404.119 365.283 405.168 359.511C407.01 349.384 402.46 342.049 392.867 337.025C390.616 335.845 390.318 333.951 390.351 331.808C390.464 324.378 385.861 319.37 381.251 314.567C377.954 311.132 370.557 312.246 367.377 317.068C362.333 324.714 355.407 330.388 348.935 336.546C345.89 339.443 344.276 342.549 344.378 346.849C344.545 353.894 343.151 360.546 338.582 366.263C334.985 370.764 333.052 370.765 331.154 365.281C326.649 352.268 319.973 339.962 318.298 326.012C317.781 321.702 316.096 318.527 311.252 318.064C308.758 317.826 307.334 316.395 306.319 313.948C302.151 303.902 295.065 299.717 284.505 299.525C276.125 299.373 267.445 299.542 260.546 293.155C259.619 292.297 258.049 291.761 256.765 291.738C249.242 291.602 243.747 288.003 239.46 282.049C237.917 279.905 235.949 277.879 233.173 279.815C230.699 281.54 232.481 283.87 232.851 286.09C234.102 293.6 241.011 295.97 245.567 300.356C247.732 302.441 251.15 301.208 254.012 299.817C257.991 297.882 267.129 302.623 270.492 308.083C273.439 312.87 269.009 314.736 267.097 317.945C258.765 331.932 243.974 336.656 231.177 344.256C229.996 344.957 228.752 345.578 227.479 346.088C215.677 350.818 213.317 349.6 211.139 337.408C210.38 333.157 208.264 329.537 205.774 326.32C196.611 314.481 194.274 298.662 183.436 287.841C181.765 286.173 181.086 283.145 177.261 283.875C177.592 289.885 181.723 294.266 183.813 299.394C187.717 308.973 190.825 318.83 194.556 328.446C198.78 339.327 207.785 347.065 214.375 356.414C217.389 360.69 221.529 360.648 226.088 359.115C229.913 357.829 233.45 355.131 237.955 356.208C240.385 359.029 238.947 362.033 237.882 364.628C232.934 376.684 226.384 387.58 216.36 396.301C209.492 402.276 202.575 408.271 198.776 417.233C195.418 425.157 196.848 432.554 199.003 440.078C200.28 444.536 201.246 448.973 201.754 453.591C202.624 461.495 200.342 467.614 193.286 471.731C184.891 476.63 179.793 483.219 182.075 493.821C183.051 498.353 181.657 502.478 177.908 505.606C176.885 506.459 175.556 507.717 175.5 508.846C175.005 518.701 167.728 524.882 162.859 532.205C157.629 540.072 150.704 545.888 139.967 544.401C137.29 544.03 134.344 546.025 131.464 546.672C126.431 547.805 123.169 546.067 123.424 540.453C123.655 535.338 122.052 530.917 119.411 526.755C114.653 519.259 111.368 511.226 110.395 502.319C109.437 493.547 107.396 485.102 103.729 477.016C101.309 471.68 101.719 465.854 104.362 460.891C113.533 443.67 105.421 428.961 97.4315 414.777C94.386 409.371 92.4086 405.179 93.9207 398.952C96.5469 388.137 94.1875 385.063 83.2497 383.192C81.1065 382.826 79.4297 381.898 77.8407 380.464C71.5704 374.806 67.3668 374.335 60.2174 379.418C56.1932 382.279 52.4679 384.102 47.5576 382.168C46.3677 381.699 44.8097 381.863 43.4882 382.107C39.3225 382.875 35.1155 386.175 30.9681 383.156C24.54 378.476 16.9365 374.941 12.8877 367.612C9.32834 361.17 3.11871 356.442 1.22146 348.975C0.937366 347.857 0.337342 346.761 0.311432 345.645C0.0404807 333.966 0.0373717 322.175 8.09499e-05 310.623C-0.0316682 300.788 9.28185 291.493 17.2415 284.036C21.5979 279.954 25.1018 275.838 25.8935 269.652C26.6457 263.775 32.6982 261.743 35.3857 257.36C38.8483 251.713 43.4396 252.726 48.5585 253.317C56.6877 254.254 63.4249 249.169 70.9103 247.211C77.2312 245.558 83.4673 245.058 89.8841 244.765C96.1771 244.477 98.9434 247.633 98.7914 253.366C98.6102 260.206 101.916 263.629 108.189 264.672C112.91 265.456 116.404 268.656 120.497 270.67C124.628 272.703 128.076 273.553 130.491 267.963C132.342 263.679 136.914 262.731 140.498 264.49C146.142 267.26 152.45 267.436 158.031 270.273C164.633 273.63 170.923 269.225 177.871 268.428ZM201.974 224.202C204.905 220.628 205.467 216.491 201.378 214.109C195.879 210.905 190.938 207.686 190.169 201.217C187.592 201.047 186.651 201.965 185.748 203.096C180.639 209.491 180.658 209.459 176.405 203.014C173.697 198.911 170.48 199.419 167.07 202.135C160.361 207.48 157.49 218.495 160.711 227.008C164.37 226.676 167.852 225.508 171.041 223.734C176.503 220.696 181.66 220.161 187.216 223.726C191.482 226.464 196.308 226.558 201.974 224.202Z" fill="url(#paint0_linear_1098_101)"/>
<defs>
<linearGradient id="paint0_linear_1098_101" x1="366" y1="0" x2="366" y2="547" gradientUnits="userSpaceOnUse">
<stop stop-color="#C3E194"/>
<stop offset="1" stop-color="#6B7B51"/>
</linearGradient>
</defs>
</svg>
