<svg width="599" height="694" viewBox="0 0 599 694" fill="none" xmlns="http://www.w3.org/2000/svg">
<path d="M299.611 436.257C304.594 432.725 306.151 427.937 308.178 423.543C315.906 406.786 314.652 405.38 296.541 404.68C289.808 404.419 283.12 403.143 276.218 403.077C269.71 403.014 265.056 398.129 262.512 392.28C260.266 387.116 258.591 381.711 256.797 376.37C255.183 371.569 252.476 367.881 246.769 369.773C240.999 371.685 237.151 376.138 240.389 381.97C245.411 391.013 240.844 394.903 232.473 398.788C228.467 385.289 217.152 376.381 212.945 363.233C209.627 352.865 198.488 349.139 190.654 342.645C189.027 341.296 187.076 341.364 185.439 342.879C183.838 344.362 183.847 346.284 184.448 348.107C186.251 353.573 188.962 358.393 194.165 361.665C197.948 364.043 202.707 365.378 204.854 370.311C203.479 374.463 200.76 377.774 195.939 381.977C190.183 366.476 172.603 363.518 165.025 350.404C163.478 347.727 160.093 345.136 157.435 345.953C145.239 349.705 131.041 346.704 121.148 358.743C113.28 368.318 104.523 376.517 99.5985 388.577C94.6186 400.773 61.4762 406.384 50.3683 398.567C45.7197 395.295 45.5481 390.012 45.4719 385.268C45.316 375.538 45.755 365.788 46.2585 356.061C46.7193 347.16 50.7726 342.919 60.6376 345.814C65.7572 347.316 71.1915 348.084 76.5398 348.498C82.9497 348.993 89.109 347.739 92.5062 341.617C96.0955 335.148 93.0953 329.438 89.9485 323.603C86.4499 317.116 77.51 316.193 74.123 308.554C82.8801 303.756 94.0224 303.741 100.084 294.356C96.8241 289.949 92.1262 291.051 87.7831 291.784C71.0541 294.609 71.1095 294.676 71.0637 279.131C71.0585 277.356 70.233 275.583 69.4887 272.618C63.4558 275.17 58.1219 277.882 52.4849 279.712C42.1397 283.071 38.432 279.38 39.9401 268.951C41.4801 258.302 45.4825 249.627 55.8359 244.619C58.9398 243.117 59.7298 240.182 60.5881 237.254C61.7497 233.291 62.8316 229.284 64.3524 225.447C66.7668 219.357 70.4725 211.554 77.3078 213.217C83.2972 214.674 91.0072 221.109 90.9808 227.799C90.9276 241.196 99.472 250.614 106.134 259.719C112.287 268.128 116.309 274.428 109.641 284.722C119.142 285.395 123.604 281.046 126.986 275.575C130.913 269.221 135.714 264.243 143.237 262.013C152.019 259.41 153.994 253.606 151.863 245.285C149.122 234.58 151.843 231.309 164.024 229.277C167.982 233.788 165.069 238.528 164.265 243.111C163.055 250.009 166.361 254.706 172.767 255.567C181.747 256.774 190.673 255.74 199.939 254.398C216.567 251.991 229.301 249.216 227.594 229.29C237.593 223.639 240.274 212.606 246.91 204.482C225.008 197.261 221.092 177.963 238.303 161.979C239.697 160.684 241.195 159.489 242.698 158.312C246.909 155.014 249.097 151.159 244.048 147.202C239.354 143.524 234.097 144.058 231.323 149.418C226.982 157.805 219.932 163.364 212.85 169.237C203.967 176.603 201.987 186.314 208.183 195.291C212.476 201.513 211.83 206.32 207.421 211.499C202.866 216.849 199.749 222.559 200.056 229.875C200.415 238.413 192.541 241.729 186.848 243.562C179.412 245.955 180.293 237.237 177.908 233.11C176.593 230.835 175.718 228.311 174.731 225.867C168.783 211.137 168.846 211.233 154.683 218.57C147.396 222.344 141.603 220.08 138.951 212.757C136.402 205.717 134.896 198.301 133.217 190.988C131.382 182.998 135.93 177.532 142.537 174.625C167.173 163.783 178.485 141.657 191.701 121.096C194.055 117.434 193.786 117.27 193.402 108.552C208.627 97.3683 225.841 90.9695 244.434 88.4356C252.301 87.3634 260.086 87.6118 267.902 84.6106C273.293 82.5404 279.446 84.8194 284.308 89.9905C290.178 96.2345 297.39 101.694 306.175 103.583C318.607 106.255 328.362 113.931 339.378 119.219C342.41 120.675 345.713 122.788 345.566 126.716C345.398 131.214 341.438 132.745 337.93 134.251C328.281 138.391 318.199 135.045 307.724 135.259C306.328 141.097 306.055 146.471 309.043 151.663C310.372 153.972 313.985 157.425 314.518 156.656C321.116 147.147 337.145 159.448 341.877 144.858C343.766 139.035 351.161 137.285 357.519 136.894C364.295 136.479 366.285 133.531 364.507 127.271C363.711 124.468 363.456 121.308 363.882 118.441C364.436 114.707 367.117 112.327 371.238 112.918C375.481 113.527 376.403 115.889 375.701 120.221C374.391 128.294 378.793 131.432 386.045 127.588C392.094 124.382 397.566 120.107 403.14 116.104C410.243 111.003 417.229 106.76 425.744 113.714C426.998 114.738 429.276 114.863 431.091 114.899C435.437 114.985 454.447 109.452 459.359 106.927C461.424 102.511 454.495 100.048 456.772 95.5754C474.986 97.8039 492.527 101.87 507.546 111.788C511.987 107.348 509.648 104.747 507.759 101.792C500.655 90.6793 510.881 66.2635 523.851 63.0673C533.681 60.6447 539.282 65.2121 536.952 74.6031C534.517 84.4204 536.549 94.5774 538.387 103.343C540.897 115.313 538.419 123.652 531.152 132.146C530.591 132.803 530.881 134.148 530.667 136.214C540.393 134.562 546.646 128.692 549.587 121.368C552.323 114.556 554.382 109.088 564.003 110.518C559.266 102.92 545.551 108.582 546.983 98.4048C548.085 90.5804 540.41 81.4738 549.099 74.9586C554.208 74.1836 554.318 78.4695 556.652 80.0983C559.644 82.1869 563.146 82.6752 564.029 78.7298C567.348 63.8973 576.052 65.8055 586.341 71.2375C587.208 71.6951 588.552 71.2981 590.248 71.2981C591.593 65.3814 584.144 58.8979 591.456 53.7585C597.167 49.7448 603.719 49.6248 610.301 49.7226C617.786 49.8339 622.665 47.9604 623.373 39.2485C624.121 30.0464 631.779 28.1974 639.928 26.6162C656.672 23.3673 673.566 20.7456 689.955 15.7641C695.893 13.9594 699.872 10.4077 704.014 6.42882C711.161 -0.436303 718.315 -3.34794 726.672 5.58195C731.983 11.2568 738.622 14.1466 747.505 11.7678C756.854 9.26417 764.683 15.2937 771.832 19.9393C777.622 23.701 774.181 28.7575 769.807 31.9295C761.461 37.9818 752.844 43.6842 744.277 49.4425C741.185 51.5201 737.284 52.5806 734.752 57.0247C740.093 59.0993 744.969 58.9936 749.179 56.2813C756.086 51.8321 764.052 53.9598 770.771 52.397C790.142 47.891 805.778 59.0799 823.428 60.6004C828.308 61.0208 831.598 61.348 835.588 57.3729C843.33 49.6597 852.272 56.3538 860.349 57.8105C867.402 59.0824 869.362 65.2708 867.771 72.0835C866.523 77.431 869.752 80.517 873.832 83.1289C877.897 85.7321 881.575 85.5155 885.404 82.3231C893.701 75.4054 902.995 82.9762 912.007 80.8972C919.943 79.0666 927.979 82.9458 932.539 70.714C936.835 59.1943 956.612 62.121 968.078 75.3631C977.962 67.8129 986.013 71.3403 995.244 78.6511C1005.85 87.0527 1019.24 91.1826 1033.28 88.9381C1044.25 87.1837 1052.23 90.662 1058.24 99.1207C1062 104.419 1065.95 105.99 1072.86 104.165C1083.89 101.251 1096 105.835 1105.48 100.042C1110.3 101.809 1109.15 104.973 1110.03 107.285C1111.06 109.958 1113.1 111.81 1116.11 111.612C1118.72 111.441 1120.45 109.363 1120.48 107.044C1120.61 99.057 1125.24 100.423 1131.33 100.281C1153.69 99.7618 1172.8 107.819 1190.87 119.266C1195.03 121.898 1198.98 125.063 1202.32 128.611C1205.54 132.034 1207.73 134.812 1213.72 133.583C1219.88 132.322 1225.35 136.783 1230.46 140.061C1231.82 140.93 1233.04 143.167 1233 144.746C1232.82 151.994 1213.17 162.616 1207.38 158.033C1199.29 151.64 1189.44 149.966 1179.97 145.366C1175.51 154.863 1168.07 158.84 1155.39 154.991C1160.92 164.654 1170.75 168.81 1169.42 179.924C1150.65 180.585 1136.61 191.752 1121.19 200.718C1113.05 205.451 1102.06 201.902 1092.26 203.693C1076.64 206.548 1068.66 214.963 1071.59 230.223C1073.87 242.111 1069.5 250.679 1060.26 258.526C1053.77 264.034 1049.31 271.771 1043.71 278.312C1041.36 281.042 1040.11 285.134 1034.71 285.727C1030.05 268.184 1019.04 251.13 1033 232.835C1035.08 230.105 1036.64 226.927 1040.1 225.713C1056.43 219.983 1063.36 204.352 1075.41 194.123C1076.53 193.169 1076.72 191.464 1075.33 189.739C1070.96 187.944 1067.64 191.437 1063.91 192.849C1059.31 194.59 1055.93 196.057 1052.58 190.142C1049.2 184.196 1043.03 186.601 1038.15 189.024C1031.05 192.55 1026.62 198.796 1022.17 204.993C1016.33 213.143 1009.69 218.887 999.399 210.702C998.535 210.016 997.11 209.097 996.317 209.356C975.151 216.288 948.035 204.595 932.348 229.385C928.033 236.204 920.296 240.929 914.428 246.893C911.947 249.415 907.831 252.342 911.35 256.397C913.955 259.398 917.002 262.183 922.224 261.223C938.305 258.266 942.634 263.45 941.038 278.809C938.086 307.218 922.598 328.924 904.046 349.324C899.914 353.868 895.777 358.852 888.447 354.375C887.836 354.002 886.898 353.74 886.235 353.902C872.411 357.283 871.559 372.273 861.977 379.751C857.774 383.031 862.107 387.933 864.63 391.746C874.564 406.759 872.048 413.062 854.183 418.278C851.237 416.928 850.503 414.349 851.081 411.673C852.713 404.126 852.947 397.331 843.725 394.128C843.075 393.903 842.194 393.142 842.157 392.583C841.113 377.062 832.225 381.188 823.892 385.768C818.959 384.191 819.476 375.026 812.162 378.871C807.918 381.102 804.44 384.161 805.268 389.522C807.062 401.145 817.716 392.73 823.075 396.662C823.629 402.422 818.973 404.465 815.368 406.893C808.914 411.242 807.612 416.021 813.27 421.724C817.908 426.398 819.331 431.819 818.863 438.21C818.484 443.386 818.26 448.746 821.524 453.46C823.227 455.921 823.02 458.926 821.298 460.911C810.687 473.147 807.676 492.36 792.261 499.044C777.683 505.365 763.99 516.53 745.685 513.779C739.327 512.824 732.907 516.53 729.653 522.905C726.624 528.836 729.201 533.524 733.205 538.229C740.609 546.933 750.728 554.025 747.641 568.225C745.211 579.401 742.94 583.614 723.038 596.421C718.58 589.537 712.045 584.433 706.168 578.693C702.739 575.343 698.903 574.249 694.647 576.296C689.785 578.634 688.434 583.037 689.898 587.772C692.005 594.586 693.725 602.092 698.967 607.068C711.497 618.96 715.719 632.633 713.165 649.381C712.302 655.039 715.648 661.932 722.266 663.717C731.234 666.136 731.792 671.283 729.468 678.245C726.742 686.409 729.324 690.892 738.263 692.801C744.284 694.087 750.078 695.809 756.379 695.856C760.515 695.886 765.748 696.078 768.557 698.403C776.082 704.63 783.58 707.756 793.579 705.092C797.068 704.162 801.372 705.516 803.936 708.859C805.629 711.066 804.614 713.297 802.749 714.834C798.99 717.929 795.527 721.738 789.635 720.358C772.165 716.265 753.993 713.998 737.358 707.809C718.064 700.631 703.213 686.685 692.376 669.23C684.513 656.565 679.816 641.999 667.608 631.923C663.763 628.749 658.171 624.003 662.624 618.742C666.646 613.992 672.69 617.726 677.613 619.635C682.332 621.464 683.879 627.321 689.883 628.839C694.849 621.349 691.004 614.151 687.401 608.394C682.514 600.582 680.708 593.669 682.476 584.287C685.578 567.828 677.914 555.908 661.756 547.742C657.964 545.825 657.462 542.747 657.517 539.264C657.708 527.188 649.954 519.049 642.19 511.244C636.636 505.66 624.177 507.472 618.819 515.308C610.323 527.735 598.657 536.956 587.755 546.964C582.626 551.673 579.908 556.721 580.08 563.709C580.36 575.159 578.013 585.97 570.316 595.261C564.257 602.576 561.002 602.578 557.805 593.666C550.216 572.516 538.971 552.517 536.15 529.843C535.279 522.839 532.44 517.679 524.281 516.927C520.08 516.54 517.681 514.214 515.971 510.238C508.951 493.91 497.015 487.109 479.228 486.797C465.113 486.549 450.492 486.825 438.871 476.445C437.309 475.049 434.664 474.178 432.501 474.141C419.83 473.92 410.574 468.071 403.353 458.394C400.753 454.909 397.438 451.618 392.762 454.764C388.595 457.567 391.596 461.354 392.22 464.962C394.328 477.168 405.966 481.018 413.64 488.148C417.287 491.535 423.044 489.531 427.864 487.27C434.567 484.127 449.96 491.832 455.623 500.705C460.588 508.485 453.125 511.517 449.905 516.734C435.871 539.465 410.956 547.143 389.4 559.494C387.411 560.634 385.316 561.643 383.171 562.473C363.292 570.16 359.317 568.179 355.648 548.365C354.369 541.456 350.806 535.573 346.611 530.344C331.177 511.104 327.24 485.393 308.984 467.808C306.169 465.096 305.026 460.175 298.583 461.361C299.141 471.13 306.099 478.249 309.619 486.583C316.195 502.151 321.43 518.172 327.716 533.8C334.83 551.484 349.999 564.06 361.099 579.254C366.176 586.204 373.149 586.135 380.828 583.644C387.272 581.554 393.229 577.169 400.818 578.919C404.91 583.504 402.489 588.386 400.695 592.603C392.361 612.198 381.328 629.906 364.442 644.08C352.873 653.791 341.222 663.534 334.824 678.1C329.168 690.977 331.576 702.999 335.207 715.227C337.358 722.472 338.983 729.683 339.84 737.189C341.306 750.034 337.461 759.979 325.577 766.67C311.435 774.632 302.848 785.341 306.692 802.571C308.335 809.938 305.988 816.641 299.672 821.726C297.95 823.112 295.711 825.156 295.616 826.991C294.784 843.007 282.526 853.054 274.325 864.955C265.515 877.74 253.849 887.193 235.763 884.776C231.255 884.174 226.293 887.415 221.442 888.467C212.963 890.307 207.47 887.484 207.898 878.359C208.288 870.047 205.588 862.862 201.139 856.098C193.124 843.915 187.592 830.858 185.953 816.382C184.339 802.127 180.9 788.401 174.724 775.26C170.648 766.588 171.339 757.12 175.79 749.054C191.237 721.065 177.574 697.159 164.116 674.108C158.986 665.321 155.655 658.508 158.202 648.388C162.626 630.812 158.652 625.815 140.228 622.775C136.618 622.179 133.793 620.671 131.117 618.341C120.555 609.145 113.474 608.38 101.432 616.641C94.6532 621.291 88.3783 624.254 80.1072 621.11C78.1029 620.348 75.4786 620.615 73.2527 621.011C66.2358 622.259 59.1494 627.623 52.1635 622.716C41.3359 615.11 28.5283 609.365 21.7084 597.454C15.7129 586.984 5.25324 579.299 2.05746 567.164C1.57892 565.347 0.568228 563.566 0.524584 561.753C0.0681868 542.771 0.0629498 523.608 0.000136354 504.834C-0.0533428 488.848 15.6346 473.743 29.0421 461.623C36.38 454.989 42.2821 448.301 43.6157 438.246C44.8826 428.695 55.0777 425.393 59.6046 418.269C65.437 409.092 73.1708 410.738 81.7933 411.697C95.4862 413.221 106.834 404.957 119.443 401.775C130.09 399.088 140.594 398.276 151.403 397.799C162.003 397.33 166.663 402.46 166.407 411.778C166.102 422.894 171.669 428.458 182.237 430.152C190.188 431.427 196.074 436.628 202.969 439.901C209.926 443.204 215.735 444.586 219.803 435.502C222.921 428.538 230.622 426.998 236.659 429.857C246.165 434.359 256.79 434.644 266.191 439.256C277.313 444.711 287.908 437.551 299.611 436.257ZM340.211 364.379C345.148 358.571 346.094 351.847 339.207 347.977C329.943 342.77 321.621 337.537 320.326 327.024C315.984 326.747 314.4 328.239 312.878 330.077C304.274 340.471 304.306 340.419 297.141 329.945C292.58 323.276 287.16 324.101 281.418 328.516C270.117 337.202 265.279 355.104 270.706 368.94C276.869 368.4 282.735 366.502 288.107 363.619C297.306 358.681 305.992 357.812 315.351 363.606C322.537 368.056 330.667 368.208 340.211 364.379Z" fill="url(#paint0_linear_912_345)"/>
<defs>
<linearGradient id="paint0_linear_912_345" x1="616.5" y1="0" x2="616.5" y2="889" gradientUnits="userSpaceOnUse">
<stop stop-color="#C3E194"/>
<stop offset="1" stop-color="#6B7B51"/>
</linearGradient>
</defs>
</svg>
