<svg width="277" height="277" viewBox="0 0 277 277" fill="none" xmlns="http://www.w3.org/2000/svg">
<path d="M277 211.85H0V211.988H277V211.85Z" fill="#EBEBEB"/>
<path d="M249.245 220.763H218.647V220.902H249.245V220.763Z" fill="#EBEBEB"/>
<path d="M183.097 217.861H178.283V217.999H183.097V217.861Z" fill="#EBEBEB"/>
<path d="M216.98 215.622H206.348V215.761H216.98V215.622Z" fill="#EBEBEB"/>
<path d="M52.99 216.553H29.0627V216.692H52.99V216.553Z" fill="#EBEBEB"/>
<path d="M144.622 220.132H119.293V220.27H144.622V220.132Z" fill="#EBEBEB"/>
<path d="M129.714 217.788H77.8149V217.927H129.714V217.788Z" fill="#EBEBEB"/>
<path d="M134.467 183.978C134.467 184.394 134.385 184.806 134.226 185.19C134.066 185.574 133.833 185.923 133.539 186.217C133.244 186.51 132.895 186.743 132.51 186.902C132.126 187.061 131.714 187.142 131.298 187.141H24.3263C23.4882 187.14 22.6851 186.806 22.093 186.213C21.501 185.62 21.1685 184.816 21.1685 183.978V33.6056C21.1758 32.7724 21.5115 31.9758 22.1027 31.3887C22.694 30.8015 23.493 30.4714 24.3263 30.47H131.298C132.137 30.47 132.942 30.8033 133.535 31.3965C134.128 31.9898 134.461 32.7944 134.461 33.6333M134.323 33.6333C134.326 33.234 134.25 32.838 134.099 32.4681C133.949 32.0983 133.726 31.7618 133.445 31.4782C133.164 31.1945 132.83 30.9692 132.461 30.8152C132.093 30.6612 131.697 30.5815 131.298 30.5808H24.3263C23.525 30.5823 22.757 30.9016 22.191 31.4687C21.6249 32.0358 21.307 32.8044 21.307 33.6056V183.978C21.307 184.779 21.6249 185.548 22.191 186.115C22.757 186.682 23.525 187.001 24.3263 187.003H131.298C132.1 187.001 132.868 186.682 133.435 186.115C134.002 185.548 134.322 184.78 134.323 183.978" fill="#EBEBEB"/>
<path d="M251.134 187.141H144.156C143.318 187.14 142.514 186.806 141.921 186.213C141.328 185.62 140.994 184.816 140.993 183.978V33.6056C141.002 32.7719 141.339 31.9753 141.931 31.3883C142.523 30.8014 143.323 30.4714 144.156 30.47H251.134C251.966 30.4729 252.764 30.8036 253.354 31.3906C253.944 31.9775 254.279 32.7734 254.286 33.6056V183.978C254.286 184.815 253.954 185.618 253.363 186.211C252.772 186.804 251.971 187.138 251.134 187.141ZM144.156 30.5808C143.354 30.5823 142.586 30.9014 142.019 31.4684C141.452 32.0353 141.133 32.8039 141.131 33.6056V183.978C141.133 184.78 141.452 185.548 142.019 186.115C142.586 186.682 143.354 187.001 144.156 187.003H251.134C251.935 187.001 252.704 186.682 253.271 186.115C253.838 185.548 254.157 184.78 254.159 183.978V33.6056C254.157 32.8039 253.838 32.0353 253.271 31.4684C252.704 30.9014 251.935 30.5823 251.134 30.5808H144.156Z" fill="#EBEBEB"/>
<path d="M39.1456 211.85H72.4688L72.4687 141.841H39.1456L39.1456 211.85Z" fill="#E6E6E6"/>
<path d="M42.5028 211.85H39.1511V202.315H46.0152L42.5028 211.85Z" fill="#F0F0F0"/>
<path d="M127.259 211.85H160.583V141.841H127.259V211.85Z" fill="#E6E6E6"/>
<path d="M39.1457 205.999H130.179V141.841H39.1457L39.1457 205.999Z" fill="#F0F0F0"/>
<path d="M41.7438 162.278H127.581V144.683H41.7438V162.278Z" fill="#E6E6E6"/>
<path d="M78.5905 150.134H90.7453C93.3566 150.137 95.9412 149.608 98.3415 148.579C100.742 147.551 102.907 146.044 104.706 144.151H64.6353C66.4326 146.044 68.5972 147.551 70.9966 148.58C73.396 149.609 75.9799 150.137 78.5905 150.134Z" fill="#F0F0F0"/>
<path d="M126.833 211.85H130.185V202.315H123.315L126.833 211.85Z" fill="#F0F0F0"/>
<path d="M41.7438 182.715H127.581V165.12H41.7438V182.715Z" fill="#E6E6E6"/>
<path d="M78.5905 170.593H90.7453C93.3582 170.593 95.9437 170.06 98.3439 169.028C100.744 167.995 102.909 166.485 104.706 164.588H64.6353C66.4309 166.485 68.5946 167.996 70.9941 169.029C73.3935 170.061 75.9783 170.593 78.5905 170.593Z" fill="#F0F0F0"/>
<path d="M41.7438 203.152H127.581V185.557H41.7438V203.152Z" fill="#E6E6E6"/>
<path d="M78.5905 191.03H90.7453C93.3574 191.031 95.9424 190.501 98.3426 189.47C100.743 188.439 102.908 186.931 104.706 185.036H64.6353C66.4319 186.931 68.596 188.44 70.9954 189.471C73.3948 190.501 75.9791 191.032 78.5905 191.03Z" fill="#F0F0F0"/>
<path d="M48.8295 118.839H46.4528C46.2723 118.839 46.126 118.985 46.126 119.165V141.514C46.126 141.694 46.2723 141.841 46.4528 141.841H48.8295C49.01 141.841 49.1564 141.694 49.1564 141.514V119.165C49.1564 118.985 49.01 118.839 48.8295 118.839Z" fill="#EBEBEB"/>
<path d="M49.1564 121.21H46.126V129.581H49.1564V121.21Z" fill="#FAFAFA"/>
<path d="M49.1564 132.162H46.126V137.326H49.1564V132.162Z" fill="#FAFAFA"/>
<path d="M61.7434 118.839H49.4834C49.3028 118.839 49.1565 118.985 49.1565 119.165V141.514C49.1565 141.694 49.3028 141.841 49.4834 141.841H61.7434C61.9239 141.841 62.0702 141.694 62.0702 141.514V119.165C62.0702 118.985 61.9239 118.839 61.7434 118.839Z" fill="#E0E0E0"/>
<path d="M53.666 116.467H51.04C50.8412 116.467 50.6799 116.629 50.6799 116.828V141.481C50.6799 141.679 50.8412 141.841 51.04 141.841H53.666C53.8649 141.841 54.0261 141.679 54.0261 141.481V116.828C54.0261 116.629 53.8649 116.467 53.666 116.467Z" fill="#EBEBEB"/>
<path d="M54.0205 119.786H50.6743V122.052H54.0205V119.786Z" fill="#FAFAFA"/>
<path d="M54.0205 126.356H50.6743V128.622H54.0205V126.356Z" fill="#FAFAFA"/>
<path d="M54.0205 132.932H50.6743V135.198H54.0205V132.932Z" fill="#FAFAFA"/>
<path d="M67.9316 116.467H54.4084C54.2096 116.467 54.0483 116.629 54.0483 116.828V141.481C54.0483 141.679 54.2096 141.841 54.4084 141.841H67.9316C68.1305 141.841 68.2917 141.679 68.2917 141.481V116.828C68.2917 116.629 68.1305 116.467 67.9316 116.467Z" fill="#E0E0E0"/>
<path d="M58.2475 118.839H55.8708C55.6903 118.839 55.5439 118.985 55.5439 119.165V141.514C55.5439 141.694 55.6903 141.841 55.8708 141.841H58.2475C58.428 141.841 58.5743 141.694 58.5743 141.514V119.165C58.5743 118.985 58.428 118.839 58.2475 118.839Z" fill="#EBEBEB"/>
<path d="M58.5743 123.359H55.5439V127.653H58.5743V123.359Z" fill="#FAFAFA"/>
<path d="M58.5743 128.977H55.5439V131.625H58.5743V128.977Z" fill="#FAFAFA"/>
<path d="M71.167 118.839H58.9069C58.7264 118.839 58.5801 118.985 58.5801 119.165V141.514C58.5801 141.694 58.7264 141.841 58.9069 141.841H71.167C71.3475 141.841 71.4938 141.694 71.4938 141.514V119.165C71.4938 118.985 71.3475 118.839 71.167 118.839Z" fill="#E0E0E0"/>
<path d="M62.7073 122.052H60.0813C59.8824 122.052 59.7212 122.213 59.7212 122.412V141.486C59.7212 141.685 59.8824 141.846 60.0813 141.846H62.7073C62.9061 141.846 63.0673 141.685 63.0673 141.486V122.412C63.0673 122.213 62.9061 122.052 62.7073 122.052Z" fill="#EBEBEB"/>
<path d="M63.0617 126.5H59.7156V130.162H63.0617V126.5Z" fill="#FAFAFA"/>
<path d="M63.0617 138.511H59.7156V139.381H63.0617V138.511Z" fill="#FAFAFA"/>
<path d="M63.0617 130.977H59.7156V134.639H63.0617V130.977Z" fill="#FAFAFA"/>
<path d="M76.9728 122.052H63.4497C63.2508 122.052 63.0896 122.213 63.0896 122.412V141.486C63.0896 141.685 63.2508 141.846 63.4497 141.846H76.9728C77.1717 141.846 77.3329 141.685 77.3329 141.486V122.412C77.3329 122.213 77.1717 122.052 76.9728 122.052Z" fill="#E0E0E0"/>
<path d="M67.1448 118.19H64.7792C64.5956 118.19 64.4468 118.339 64.4468 118.523V141.514C64.4468 141.697 64.5956 141.846 64.7792 141.846H67.1448C67.3283 141.846 67.4772 141.697 67.4772 141.514V118.523C67.4772 118.339 67.3283 118.19 67.1448 118.19Z" fill="#EBEBEB"/>
<path d="M67.4772 120.628H64.4468V129.237H67.4772V120.628Z" fill="#FAFAFA"/>
<path d="M67.4772 131.885H64.4468V137.193H67.4772V131.885Z" fill="#FAFAFA"/>
<path d="M80.0586 118.19H67.8097C67.6261 118.19 67.4773 118.339 67.4773 118.523V141.514C67.4773 141.697 67.6261 141.846 67.8097 141.846H80.0586C80.2422 141.846 80.391 141.697 80.391 141.514V118.523C80.391 118.339 80.2422 118.19 80.0586 118.19Z" fill="#E0E0E0"/>
<path d="M72.0089 120.689H69.3275C69.1439 120.689 68.9951 120.838 68.9951 121.021V141.508C68.9951 141.692 69.1439 141.841 69.3275 141.841H72.0089C72.1925 141.841 72.3413 141.692 72.3413 141.508V121.021C72.3413 120.838 72.1925 120.689 72.0089 120.689Z" fill="#EBEBEB"/>
<path d="M72.3413 123.453H68.9951V125.343H72.3413V123.453Z" fill="#FAFAFA"/>
<path d="M72.3413 128.932H68.9951V130.822H72.3413V128.932Z" fill="#FAFAFA"/>
<path d="M72.3413 134.411H68.9951V136.301H72.3413V134.411Z" fill="#FAFAFA"/>
<path d="M86.2801 120.689H72.7015C72.518 120.689 72.3691 120.838 72.3691 121.021V141.508C72.3691 141.692 72.518 141.841 72.7015 141.841H86.2801C86.4637 141.841 86.6125 141.692 86.6125 141.508V121.021C86.6125 120.838 86.4637 120.689 86.2801 120.689Z" fill="#E0E0E0"/>
<path d="M76.5683 118.839H74.1916C74.0111 118.839 73.8647 118.985 73.8647 119.165V141.514C73.8647 141.694 74.0111 141.841 74.1916 141.841H76.5683C76.7488 141.841 76.8951 141.694 76.8951 141.514V119.165C76.8951 118.985 76.7488 118.839 76.5683 118.839Z" fill="#EBEBEB"/>
<path d="M76.8951 123.359H73.8647V127.653H76.8951V123.359Z" fill="#FAFAFA"/>
<path d="M76.8951 128.977H73.8647V131.625H76.8951V128.977Z" fill="#FAFAFA"/>
<path d="M89.4821 118.839H77.2221C77.0416 118.839 76.8953 118.985 76.8953 119.165V141.514C76.8953 141.694 77.0416 141.841 77.2221 141.841H89.4821C89.6627 141.841 89.809 141.694 89.809 141.514V119.165C89.809 118.985 89.6627 118.839 89.4821 118.839Z" fill="#E0E0E0"/>
<path d="M81.0281 122.052H78.4021C78.2032 122.052 78.042 122.213 78.042 122.412V141.486C78.042 141.685 78.2032 141.846 78.4021 141.846H81.0281C81.2269 141.846 81.3882 141.685 81.3882 141.486V122.412C81.3882 122.213 81.2269 122.052 81.0281 122.052Z" fill="#EBEBEB"/>
<path d="M81.3825 126.5H78.0364V130.162H81.3825V126.5Z" fill="#FAFAFA"/>
<path d="M81.3825 138.511H78.0364V139.381H81.3825V138.511Z" fill="#FAFAFA"/>
<path d="M81.3825 130.977H78.0364V134.639H81.3825V130.977Z" fill="#FAFAFA"/>
<path d="M95.2936 122.052H81.7705C81.5716 122.052 81.4104 122.213 81.4104 122.412V141.486C81.4104 141.685 81.5716 141.846 81.7705 141.846H95.2936C95.4925 141.846 95.6537 141.685 95.6537 141.486V122.412C95.6537 122.213 95.4925 122.052 95.2936 122.052Z" fill="#E0E0E0"/>
<path d="M38.4754 92.1579L159.685 92.1579V55.6659L38.4754 55.6659V92.1579Z" fill="#E6E6E6"/>
<path d="M35.9049 92.1579L158.483 92.1579V55.6659L35.9049 55.6659V92.1579Z" fill="#F0F0F0"/>
<path d="M38.4754 96.9389L159.685 96.9389V92.1634L38.4754 92.1634V96.9389Z" fill="#E6E6E6"/>
<path d="M31.6224 96.9389L154.2 96.9389V92.1634L31.6224 92.1634V96.9389Z" fill="#F0F0F0"/>
<path d="M154.882 88.5624V59.2669L39.5003 59.2669V88.5624H154.882Z" fill="#FAFAFA"/>
<path d="M124.351 88.5624L103.227 59.2669H81.6099L102.734 88.5624H124.351Z" fill="white"/>
<path d="M153.214 85.7537C153.283 85.7537 153.35 85.7262 153.398 85.6774C153.447 85.6286 153.475 85.5624 153.475 85.4933V61.6103C153.466 61.5485 153.435 61.492 153.387 61.4512C153.34 61.4103 153.28 61.3878 153.217 61.3878C153.155 61.3878 153.094 61.4103 153.047 61.4512C153 61.492 152.969 61.5485 152.959 61.6103V85.4933C152.959 85.5614 152.986 85.6268 153.034 85.6755C153.081 85.7241 153.146 85.7522 153.214 85.7537Z" fill="#F0F0F0"/>
<path d="M94.6066 88.5624L73.4771 59.2669H65.998L87.1221 88.5624H94.6066Z" fill="white"/>
<path d="M39.96 88.5624V59.2669H39.5001V88.5624H39.96Z" fill="#E6E6E6"/>
<path opacity="0.4" d="M35.0515 62.8956H156.261L156.594 60.6685H35.3839L35.0515 62.8956Z" fill="#E6E6E6"/>
<path opacity="0.4" d="M35.0515 66.5742H156.261L156.594 64.3471H35.3839L35.0515 66.5742Z" fill="#E6E6E6"/>
<path opacity="0.4" d="M35.0515 70.2583H156.261L156.594 68.0312H35.3839L35.0515 70.2583Z" fill="#E6E6E6"/>
<path opacity="0.4" d="M35.0515 73.9368H156.261L156.594 71.7098H35.3839L35.0515 73.9368Z" fill="#E6E6E6"/>
<path opacity="0.4" d="M35.0515 77.6209H156.261L156.594 75.3883H35.3839L35.0515 77.6209Z" fill="#E6E6E6"/>
<path opacity="0.4" d="M35.0515 81.2995H156.261L156.594 79.0724H35.3839L35.0515 81.2995Z" fill="#E6E6E6"/>
<path d="M179.33 138.533H226.093V55.6659H179.33V138.533Z" fill="#E6E6E6"/>
<path d="M185.097 57.9373C185.167 57.9378 185.236 57.9187 185.296 57.8819C185.407 57.8154 196.41 51.2727 199.878 51.2727C203.346 51.2727 213.833 57.8099 213.938 57.8764C213.982 57.9066 214.032 57.9275 214.084 57.9377C214.136 57.9479 214.19 57.9473 214.242 57.9359C214.294 57.9245 214.343 57.9025 214.386 57.8712C214.429 57.84 214.465 57.8003 214.492 57.7545C214.521 57.7102 214.541 57.6607 214.55 57.6088C214.559 57.5568 214.558 57.5036 214.547 57.4521C214.536 57.4005 214.514 57.3518 214.484 57.3086C214.454 57.2654 214.415 57.2287 214.37 57.2005C213.927 56.929 203.578 50.4805 199.894 50.4805C196.21 50.4805 185.374 56.9235 184.936 57.2005C184.864 57.2442 184.807 57.3104 184.776 57.3891C184.744 57.4679 184.74 57.5547 184.762 57.6364C184.785 57.7181 184.834 57.7901 184.901 57.8415C184.969 57.8928 185.051 57.9206 185.136 57.9207L185.097 57.9373Z" fill="#F0F0F0"/>
<path d="M174.261 138.533H222.564V55.6659H174.261V138.533Z" fill="#F0F0F0"/>
<path d="M218.525 134.489V59.7157H178.316V134.489H218.525Z" fill="white"/>
<path d="M231.084 176.931H201.944V211.85H231.084V176.931Z" fill="#E0E0E0"/>
<path d="M231.079 176.931H201.938L207.789 166.516H236.929L231.079 176.931Z" fill="#E0E0E0"/>
<path d="M173.535 166.516H144.395L150.245 176.931H179.385L173.535 166.516Z" fill="#F5F5F5"/>
<path d="M150.239 211.85H201.938V176.931H150.239V211.85Z" fill="#F5F5F5"/>
<path d="M185.673 202.526H201.938V186.26H185.673V202.526Z" fill="#F0F0F0"/>
<path d="M157.214 195.617H166.571V186.26H157.214V195.617Z" fill="#F0F0F0"/>
<path d="M157.214 207.202H166.571V197.844H157.214V207.202Z" fill="#F0F0F0"/>
<path d="M210.337 186.255H201.944V202.52H210.337V186.255Z" fill="#E6E6E6"/>
<path d="M138.5 236.868C197.824 236.868 245.915 234.06 245.915 230.597C245.915 227.133 197.824 224.326 138.5 224.326C79.1763 224.326 31.085 227.133 31.085 230.597C31.085 234.06 79.1763 236.868 138.5 236.868Z" fill="#F5F5F5"/>
<path d="M94.6841 81.1983C98.4743 78.605 99.4447 73.43 96.8514 69.6398C94.258 65.8495 89.0831 64.8792 85.2928 67.4725C81.5026 70.0658 80.5322 75.2407 83.1255 79.031C85.7189 82.8213 90.8938 83.7916 94.6841 81.1983Z" fill="#005F31"/>
<path d="M89.1941 73.6155L84.5405 71.6322C84.6401 71.5697 84.7554 71.537 84.8729 71.538H95.1607C95.2781 71.5376 95.3933 71.5702 95.4931 71.6322L90.8395 73.6155C90.5791 73.7251 90.2994 73.7815 90.0168 73.7815C89.7343 73.7815 89.4546 73.7251 89.1941 73.6155Z" fill="white"/>
<path d="M95.8034 72.3746V76.8897C95.8034 77.0674 95.7328 77.2379 95.6071 77.3637C95.4814 77.4894 95.3109 77.56 95.1331 77.56H84.8453C84.6675 77.56 84.497 77.4894 84.3713 77.3637C84.2456 77.2379 84.175 77.0674 84.175 76.8897V72.3746C84.1718 72.3469 84.1718 72.3191 84.175 72.2915L88.9338 74.3136C89.2655 74.4529 89.6212 74.5263 89.9809 74.5296C90.3443 74.5269 90.7037 74.4535 91.039 74.3136L95.7924 72.2915C95.7992 72.3186 95.8029 72.3465 95.8034 72.3746Z" fill="white"/>
<path d="M138.066 38.5113C139.371 34.1079 136.859 29.4808 132.455 28.1765C128.052 26.8721 123.425 29.3844 122.12 33.7878C120.816 38.1913 123.328 42.8183 127.732 44.1227C132.135 45.427 136.762 42.9147 138.066 38.5113Z" fill="#005F31"/>
<path d="M134.068 32.3647H126.14C125.745 32.3719 125.367 32.5335 125.089 32.815C124.81 33.0965 124.653 33.4756 124.65 33.8716V37.9545C124.652 38.3552 124.811 38.739 125.095 39.0224C125.378 39.3057 125.762 39.4655 126.163 39.4669H131.963L131.919 40.8963L133.387 39.4669H134.068C134.468 39.464 134.851 39.3038 135.134 39.0208C135.417 38.7378 135.578 38.3548 135.581 37.9545V33.8716C135.578 33.4718 135.417 33.0894 135.134 32.8073C134.851 32.5252 134.468 32.3661 134.068 32.3647ZM125.985 34.1042C125.985 33.992 126.029 33.8844 126.108 33.8045C126.187 33.7247 126.294 33.6791 126.406 33.6777H128.223C128.336 33.6791 128.443 33.7247 128.522 33.8045C128.6 33.8844 128.644 33.992 128.644 34.1042C128.643 34.2149 128.598 34.3206 128.519 34.3984C128.44 34.4761 128.334 34.5197 128.223 34.5197H126.406C126.35 34.5227 126.293 34.5142 126.24 34.4948C126.186 34.4753 126.138 34.4452 126.096 34.4064C126.055 34.3676 126.022 34.3209 125.999 34.2689C125.976 34.217 125.964 34.161 125.963 34.1042H125.985ZM133.619 38.0487H130.473C130.362 38.0487 130.257 38.0049 130.179 37.927C130.101 37.8491 130.057 37.7434 130.057 37.6332C130.057 37.523 130.101 37.4173 130.179 37.3394C130.257 37.2615 130.362 37.2177 130.473 37.2177H133.619C133.73 37.2177 133.835 37.2615 133.913 37.3394C133.991 37.4173 134.035 37.523 134.035 37.6332C134.035 37.7434 133.991 37.8491 133.913 37.927C133.835 38.0049 133.73 38.0487 133.619 38.0487ZM133.619 36.287H126.805C126.695 36.2855 126.589 36.2405 126.511 36.1617C126.433 36.0829 126.39 35.9767 126.39 35.8659C126.39 35.7558 126.433 35.6501 126.511 35.5721C126.589 35.4942 126.695 35.4505 126.805 35.4505H133.597C133.707 35.4505 133.813 35.4942 133.891 35.5721C133.969 35.6501 134.013 35.7558 134.013 35.8659C134.013 35.9767 133.969 36.0829 133.891 36.1617C133.814 36.2405 133.708 36.2855 133.597 36.287H133.619ZM133.619 34.5197H129.597C129.487 34.5197 129.381 34.476 129.304 34.398C129.226 34.3201 129.182 34.2144 129.182 34.1042C129.181 34.0489 129.191 33.994 129.212 33.9427C129.232 33.8913 129.263 33.8445 129.301 33.8049C129.34 33.7653 129.386 33.7336 129.437 33.7118C129.487 33.69 129.542 33.6784 129.597 33.6777H133.619C133.731 33.6805 133.836 33.7268 133.914 33.8064C133.992 33.8861 134.035 33.993 134.035 34.1042C134.034 34.1605 134.022 34.216 134 34.2676C133.977 34.3191 133.945 34.3656 133.904 34.4044C133.863 34.4431 133.815 34.4733 133.762 34.4931C133.71 34.5129 133.653 34.522 133.597 34.5197H133.619Z" fill="white"/>
<path d="M111.385 52.5934C113.623 48.5825 112.185 43.5176 108.174 41.2805C104.163 39.0435 99.0978 40.4815 96.8608 44.4924C94.6238 48.5033 96.0618 53.5682 100.073 55.8053C104.084 58.0423 109.148 56.6043 111.385 52.5934Z" fill="#005F31"/>
<path d="M107.714 45.0236H100.512C100.165 45.0236 99.832 45.1611 99.586 45.4062C99.3399 45.6512 99.2009 45.9838 99.1995 46.331V50.763C99.1995 50.9364 99.2338 51.108 99.3005 51.268C99.3671 51.4281 99.4648 51.5733 99.5879 51.6954C99.711 51.8174 99.8571 51.9139 100.018 51.9793C100.178 52.0446 100.35 52.0775 100.524 52.076H107.726C108.073 52.076 108.406 51.9384 108.652 51.6934C108.898 51.4484 109.037 51.1158 109.039 50.7686V46.3366C109.039 46.1632 109.004 45.9916 108.938 45.8315C108.871 45.6715 108.773 45.5263 108.65 45.4042C108.527 45.2821 108.381 45.1857 108.22 45.1203C108.06 45.055 107.888 45.0221 107.714 45.0236ZM102.972 50.414V46.6967L106.174 48.5415L102.972 50.414Z" fill="white"/>
<path d="M163.053 49.1705C167.207 47.2122 168.987 42.2571 167.028 38.103C165.07 33.9489 160.115 32.1689 155.961 34.1272C151.807 36.0855 150.027 41.0406 151.985 45.1947C153.943 49.3487 158.898 51.1288 163.053 49.1705Z" fill="#005F31"/>
<path d="M163.186 42.7134C163.635 42.2584 163.943 41.6836 164.074 41.0579C164.204 40.4322 164.152 39.7821 163.922 39.1856C163.693 38.5891 163.296 38.0713 162.78 37.6945C162.264 37.3176 161.65 37.0975 161.012 37.0607C160.374 37.0238 159.738 37.1717 159.182 37.4866C158.626 37.8015 158.172 38.2701 157.876 38.8362C157.579 39.4024 157.452 40.042 157.51 40.6786C157.567 41.3152 157.807 41.9216 158.2 42.4253C157.973 42.6026 157.757 42.7854 157.541 42.9793C157.225 43.2452 156.921 43.5333 156.622 43.7882C156.322 44.043 156.023 44.3422 155.73 44.6302L155.292 45.0624C155.216 45.1312 155.154 45.2139 155.109 45.3061C155.082 45.3582 155.063 45.4143 155.054 45.4723C155.042 45.5383 155.042 45.6058 155.054 45.6718C155.062 45.7941 155.114 45.9094 155.2 45.996C155.287 46.0827 155.402 46.1348 155.525 46.1427C155.593 46.1514 155.662 46.1514 155.73 46.1427L155.89 46.0873C155.984 46.0418 156.066 45.9777 156.134 45.8989C156.278 45.7549 156.428 45.6108 156.566 45.4612C156.854 45.1732 157.12 44.874 157.408 44.5748C157.696 44.2757 157.962 43.9654 158.217 43.6497C158.405 43.4336 158.583 43.2175 158.771 42.9904C159.413 43.4941 160.217 43.7442 161.032 43.6931C161.846 43.6421 162.613 43.2933 163.186 42.7134ZM158.954 42.2148C158.584 41.8454 158.332 41.3746 158.229 40.8618C158.127 40.3491 158.179 39.8175 158.379 39.3344C158.579 38.8512 158.918 38.4383 159.352 38.1477C159.787 37.8571 160.298 37.702 160.821 37.702C161.344 37.702 161.855 37.8571 162.289 38.1477C162.724 38.4383 163.063 38.8512 163.263 39.3344C163.463 39.8175 163.515 40.3491 163.412 40.8618C163.31 41.3746 163.058 41.8454 162.688 42.2148C162.192 42.7094 161.521 42.9872 160.821 42.9872C160.121 42.9872 159.449 42.7094 158.954 42.2148Z" fill="white"/>
<path d="M183.919 69.4836C187.709 66.8903 188.68 61.7154 186.086 57.9251C183.493 54.1349 178.318 53.1645 174.528 55.7578C170.737 58.3511 169.767 63.5261 172.36 67.3164C174.954 71.1066 180.129 72.077 183.919 69.4836Z" fill="#005F31"/>
<path d="M184.554 62.602C184.554 62.602 184.554 62.602 184.554 62.5687C184.551 62.2942 184.529 62.0203 184.488 61.7488C184.288 60.5202 183.665 59.4001 182.726 58.5834C181.787 57.7666 180.591 57.3047 179.346 57.278H179.081C178.845 57.2818 178.61 57.3022 178.377 57.339C177.128 57.5427 175.992 58.1839 175.172 59.148C174.352 60.1121 173.901 61.3363 173.901 62.602C173.901 62.602 173.901 62.602 173.901 62.6297C173.901 62.6574 173.901 62.6297 173.901 62.6629C173.902 62.9373 173.922 63.2113 173.962 63.4828C174.166 64.7287 174.805 65.8619 175.765 66.6814C176.726 67.5008 177.945 67.9535 179.208 67.9592C179.49 67.9588 179.771 67.9366 180.05 67.8927C181.292 67.6877 182.422 67.0505 183.24 66.0937C184.058 65.1368 184.512 63.9217 184.521 62.6629C184.521 62.6629 184.554 62.6352 184.554 62.602ZM183.152 64.7072H182.222C182.36 64.1629 182.444 63.6061 182.471 63.0452H183.662C183.609 63.6355 183.436 64.2087 183.152 64.7293V64.7072ZM175.297 60.4968H176.227C176.089 61.0411 176.006 61.5979 175.978 62.1588H174.787C174.847 61.584 175.021 61.0267 175.297 60.5189V60.4968ZM181.579 61.8596C181.579 61.9649 181.579 62.0646 181.579 62.1699H179.635V60.5079H181.297C181.434 60.9558 181.529 61.4158 181.579 61.8818V61.8596ZM179.657 59.6436V58.2309C179.783 58.2785 179.904 58.3398 180.017 58.4137C180.438 58.7355 180.772 59.1585 180.986 59.6436H179.657ZM178.792 58.2365V59.6436H177.457C177.707 59.0243 178.185 58.5245 178.792 58.2475V58.2365ZM178.792 60.5079V62.1699H176.848C176.88 61.607 176.974 61.0496 177.13 60.5079H178.792ZM174.82 63.3277C174.82 63.2335 174.82 63.1394 174.787 63.0452H175.984C175.984 63.1781 175.984 63.3056 175.984 63.4385C176.024 63.8702 176.098 64.2981 176.205 64.7183H175.269C175.042 64.2872 174.891 63.8207 174.82 63.3388V63.3277ZM176.87 63.361C176.87 63.2557 176.87 63.1504 176.87 63.0452H178.815V64.7072H177.153C177.017 64.272 176.922 63.825 176.87 63.372V63.361ZM178.792 65.577V67.034C178.665 66.9887 178.544 66.9273 178.432 66.8512C178.011 66.5295 177.677 66.1064 177.463 65.6213L178.792 65.577ZM179.657 66.9897V65.5936H180.992C180.749 66.2277 180.271 66.7437 179.657 67.034V66.9897ZM179.657 64.7127V63.0507H181.601C181.57 63.6136 181.475 64.1711 181.319 64.7127H179.657ZM182.465 62.1754C182.465 62.048 182.465 61.915 182.465 61.7821C182.422 61.3507 182.348 60.9231 182.244 60.5023H183.18C183.412 60.9368 183.571 61.4066 183.651 61.8929C183.651 61.987 183.651 62.0812 183.684 62.1754H182.465ZM182.554 59.6381H181.934C181.815 59.3354 181.668 59.0442 181.496 58.7683C181.612 58.8363 181.725 58.9103 181.834 58.9899C182.098 59.1842 182.339 59.4072 182.554 59.6547V59.6381ZM176.948 58.7738C176.777 59.0485 176.63 59.3377 176.51 59.6381H175.895C176.201 59.3044 176.556 59.0187 176.948 58.7905V58.7738ZM175.901 65.577H176.516C176.637 65.8811 176.786 66.174 176.959 66.4523C176.563 66.2234 176.206 65.9336 175.901 65.5936V65.577ZM181.502 66.48C181.673 66.2035 181.819 65.9124 181.939 65.6102H182.554C182.248 65.95 181.893 66.243 181.502 66.48Z" fill="white"/>
<path d="M187.741 98.6451C191.531 96.0518 192.502 90.8769 189.908 87.0866C187.315 83.2963 182.14 82.326 178.35 84.9193C174.56 87.5126 173.589 92.6876 176.183 96.4778C178.776 100.268 183.951 101.238 187.741 98.6451Z" fill="#005F31"/>
<path d="M183.047 86.7896C181.982 86.8201 180.964 87.2331 180.179 87.9532C179.393 88.6732 178.894 89.6521 178.771 90.7104C178.649 91.7688 178.912 92.8359 179.512 93.7162C180.112 94.5965 181.009 95.2312 182.039 95.5041L183.047 96.7893L184.056 95.5041C185.086 95.2312 185.983 94.5965 186.583 93.7162C187.183 92.8359 187.446 91.7688 187.323 90.7104C187.201 89.6521 186.701 88.6732 185.916 87.9532C185.131 87.2331 184.112 86.8201 183.047 86.7896ZM183.047 93.0443C182.684 93.0432 182.329 92.9344 182.027 92.7316C181.725 92.5289 181.49 92.2412 181.352 91.9051C181.214 91.5689 181.178 91.1992 181.25 90.8428C181.321 90.4864 181.497 90.1592 181.754 89.9025C182.012 89.6458 182.339 89.4712 182.696 89.4007C183.053 89.3302 183.422 89.3669 183.758 89.5063C184.094 89.6457 184.381 89.8814 184.583 90.1837C184.784 90.4861 184.892 90.8415 184.892 91.205C184.896 91.4493 184.851 91.692 184.76 91.9187C184.669 92.1454 184.533 92.3517 184.361 92.5255C184.19 92.6993 183.985 92.8372 183.759 92.931C183.534 93.0248 183.292 93.0728 183.047 93.072V93.0443Z" fill="white"/>
<path d="M133.531 225.821H129.259L129.076 215.927H133.348L133.531 225.821Z" fill="#B55B52"/>
<path d="M159.186 225.821H154.915L153.009 215.927H157.281L159.186 225.821Z" fill="#B55B52"/>
<path d="M154.621 225.328H159.425C159.509 225.328 159.59 225.358 159.655 225.411C159.72 225.465 159.764 225.539 159.779 225.622L160.533 229.417C160.55 229.511 160.546 229.607 160.522 229.699C160.497 229.792 160.453 229.877 160.391 229.95C160.33 230.023 160.253 230.082 160.166 230.122C160.08 230.162 159.985 230.182 159.89 230.181C158.228 230.148 157.403 230.054 155.292 230.054C153.99 230.054 151.314 230.187 149.519 230.187C147.724 230.187 147.536 228.414 148.273 228.254C151.597 227.533 152.849 226.542 153.923 225.594C154.116 225.423 154.364 225.329 154.621 225.328Z" fill="#263238"/>
<path d="M129.298 225.328H133.968C134.053 225.328 134.134 225.358 134.199 225.411C134.264 225.465 134.307 225.539 134.323 225.622L135.071 229.417C135.09 229.51 135.088 229.606 135.065 229.699C135.042 229.791 134.998 229.877 134.938 229.95C134.877 230.023 134.801 230.082 134.715 230.122C134.629 230.162 134.534 230.183 134.439 230.181C132.777 230.148 130.329 230.054 128.212 230.054C125.736 230.054 123.598 230.187 120.695 230.187C118.944 230.187 118.479 228.414 119.238 228.254C122.6 227.522 125.332 227.445 128.262 225.661C128.57 225.457 128.929 225.342 129.298 225.328Z" fill="#263238"/>
<path d="M129.171 91.7147L124.611 87.6262C124.611 87.6262 113.415 97.9084 111.221 97.8752C108.229 97.8253 102.014 97.5151 98.5455 96.7672C97.9251 97.1439 96.6509 98.5788 96.5234 99.2214C100.496 102.363 110.844 104.612 113.443 103.736C119.359 101.753 129.171 91.7147 129.171 91.7147Z" fill="#B55B52"/>
<path d="M131.73 89.3436C131.697 93.4266 120.844 101.576 120.844 101.576L114.534 94.3296C116.992 91.4664 119.742 88.867 122.739 86.5736C127.182 83.3438 131.763 84.8617 131.73 89.3436Z" fill="#263238"/>
<path opacity="0.2" d="M120.844 101.576C120.844 101.576 130.866 94.0526 131.675 89.8422C130.395 88.5292 123.542 92.2853 120.844 101.576Z" fill="black"/>
<path d="M99.227 96.9888L95.4431 93.5041L92.0471 97.8586C93.7466 98.7834 95.5775 99.4429 97.4763 99.8142L99.227 96.9888Z" fill="#B55B52"/>
<path d="M90.9336 91.4543L89.7646 94.7395L92.0471 97.8586L95.4431 93.5041L90.9336 91.4543Z" fill="#B55B52"/>
<path opacity="0.2" d="M129.076 215.933L129.171 221.029H133.447L133.353 215.933H129.076Z" fill="black"/>
<path opacity="0.2" d="M157.286 215.933H153.009L153.995 221.029H158.267L157.286 215.933Z" fill="black"/>
<path d="M126.19 85.0335C126.19 85.0335 120.827 97.9417 125.032 121.969H147.885C148.128 118.462 146.345 101.349 150.134 84.8174C147.615 84.3297 145.066 84.0058 142.505 83.8479C139.271 83.6622 136.028 83.6622 132.794 83.8479C130.565 84.073 128.358 84.4694 126.19 85.0335Z" fill="#263238"/>
<path opacity="0.2" d="M145.07 88.8948C144.622 91.6205 145.32 98.1245 147.73 105.648C147.845 99.2051 148.529 92.7852 149.774 86.4628V86.424C148.273 86.2744 145.497 86.3464 145.07 88.8948Z" fill="black"/>
<path d="M141.458 74.79C140.771 77.9146 140.35 81.7926 142.505 83.8756C142.505 83.8756 141.176 87.05 135.364 87.05C130.057 87.05 132.794 83.8756 132.794 83.8756C136.295 83.0446 136.223 78.7345 135.675 76.308L141.458 74.79Z" fill="#B55B52"/>
<path d="M135.087 86.7675L133.83 88.1636C133.787 88.2116 133.757 88.2702 133.743 88.3333C133.73 88.3965 133.733 88.4621 133.752 88.5237L134.157 89.748C134.178 89.8173 134.22 89.8782 134.278 89.922C134.335 89.9658 134.406 89.9902 134.478 89.9918L135.83 90.0582C135.895 90.0611 135.959 90.0473 136.017 90.0183C136.076 89.9892 136.125 89.9457 136.162 89.892L136.971 88.7065C137.02 88.6419 137.046 88.5631 137.046 88.4821C137.046 88.4011 137.02 88.3223 136.971 88.2577L135.658 86.7675C135.623 86.7256 135.58 86.6919 135.53 86.6688C135.481 86.6457 135.427 86.6337 135.373 86.6337C135.318 86.6337 135.264 86.6457 135.215 86.6688C135.166 86.6919 135.122 86.7256 135.087 86.7675Z" fill="#005F31"/>
<path d="M135.37 86.4628C136.012 87.543 136.369 88.7689 136.406 90.025C136.406 90.025 143.741 87.4544 143.497 83.6983C143.497 83.6983 142.478 83.0834 141.835 82.5903C141.824 82.5848 141.53 84.9559 135.37 86.4628Z" fill="white"/>
<path d="M135.37 86.4628C134.679 87.4744 134.171 88.5995 133.869 89.7868C133.869 89.7868 130.628 87.5708 131.708 83.8368C132.318 83.5924 132.946 83.3961 133.586 83.2496C133.586 83.2496 133.093 85.6595 135.37 86.4628Z" fill="white"/>
<path d="M134.772 89.7979C134.772 89.7979 132.694 105.094 132.65 107.753C132.678 110.272 133.073 112.772 133.824 115.177C133.824 115.177 135.248 112.473 135.486 107.642C135.725 102.811 135.437 92.5069 135.542 89.7979H134.772Z" fill="#005F31"/>
<path opacity="0.2" d="M135.669 76.2803C135.996 77.704 136.157 79.776 135.52 81.4103C136.065 81.3295 136.595 81.169 137.093 80.9339C139.082 80.0087 140.084 78.5517 141.143 76.3855C141.237 75.8315 141.342 75.2775 141.458 74.7623L135.669 76.2803Z" fill="black"/>
<path d="M130.971 72.1585C131.064 72.6714 131.258 73.1604 131.544 73.5964C131.829 74.0323 132.2 74.4063 132.633 74.6958C133.808 75.4603 134.849 74.4964 134.888 73.1557C134.927 71.948 134.373 70.0976 133.015 69.876C132.716 69.8367 132.412 69.8709 132.129 69.9758C131.846 70.0807 131.593 70.253 131.391 70.4779C131.19 70.7028 131.046 70.9733 130.973 71.2662C130.9 71.5591 130.899 71.8653 130.971 72.1585Z" fill="#B55B52"/>
<path opacity="0.2" d="M130.971 72.1585C131.064 72.6714 131.258 73.1604 131.544 73.5964C131.829 74.0323 132.2 74.4063 132.633 74.6958C133.808 75.4603 134.849 74.4964 134.888 73.1557C134.927 71.948 134.373 70.0976 133.015 69.876C132.716 69.8367 132.412 69.8709 132.129 69.9758C131.846 70.0807 131.593 70.253 131.391 70.4779C131.19 70.7028 131.046 70.9733 130.973 71.2662C130.9 71.5591 130.899 71.8653 130.971 72.1585Z" fill="black"/>
<path d="M136.699 63.987C134.411 64.0922 131.159 69.2278 133.176 71.4327C135.193 73.6377 141.021 63.7875 136.699 63.987Z" fill="#263238"/>
<path d="M144.467 72.164C142.661 76.042 141.796 78.4021 139.01 79.704C134.81 81.6541 130.7 78.042 131.293 73.7097C131.847 69.8317 134.711 64.1366 139.182 63.9925C140.163 63.9542 141.137 64.1719 142.008 64.6243C142.88 65.0767 143.619 65.7482 144.152 66.5727C144.685 67.3972 144.995 68.3463 145.05 69.3267C145.105 70.307 144.904 71.2849 144.467 72.164Z" fill="#B55B52"/>
<path d="M147.486 67.178C149.702 68.6074 146.561 74.934 143.713 74.7623C142.456 74.6847 142.688 71.6156 143.946 68.973C141.652 68.8733 134.096 67.2002 134.345 63.6269C134.423 62.4746 135.603 61.7765 137.292 60.9012C137.751 60.7077 138.122 60.3503 138.332 59.8988C138.542 59.4472 138.576 58.9336 138.428 58.4581C138.804 58.8271 139.064 59.2976 139.177 59.8121C139.291 60.3265 139.252 60.8628 139.065 61.3555C138.423 63.1061 141.929 62.4136 143.951 62.3638C147.564 62.2641 149.636 64.962 147.486 67.178Z" fill="#263238"/>
<path d="M146.987 67.178C146.987 67.178 148.766 66.5077 149.369 68.0644C148.659 67.5806 147.841 67.2764 146.987 67.178Z" fill="#263238"/>
<path d="M144.517 77.2054C143.662 77.8522 142.588 78.1385 141.525 78.0032C140.129 77.8093 140.024 76.4243 140.91 75.3939C141.702 74.4687 143.392 73.4549 144.55 74.1695C145.708 74.8842 145.569 76.3966 144.517 77.2054Z" fill="#B55B52"/>
<path d="M125.032 121.969C125.032 121.969 123.658 153.918 123.802 166.948C123.957 180.504 127.603 220.043 127.603 220.043H134.844C134.844 220.043 136.173 181.296 136.821 167.967C137.53 153.458 140.057 121.952 140.057 121.952L125.032 121.969Z" fill="#005F31"/>
<path d="M135.375 217.827C135.409 217.827 135.314 220.193 135.314 220.193H126.971L126.683 217.534L135.375 217.827Z" fill="#263238"/>
<path opacity="0.2" d="M134.821 130.428C134.572 146.278 135.292 155.912 137.037 163.668C137.475 156.106 138.19 146.106 138.816 137.802L134.821 130.428Z" fill="black"/>
<path d="M133.137 121.969C133.137 121.969 137.187 154.655 139.553 166.843C142.134 180.238 152.029 220.027 152.029 220.027H159.851C159.851 220.027 153.68 181.341 152.35 168.073C150.898 153.669 147.918 121.969 147.918 121.969H133.137Z" fill="#005F31"/>
<path d="M159.901 218.005C159.934 218.005 160.239 220.193 160.239 220.193H151.635L150.937 217.678L159.901 218.005Z" fill="#263238"/>
<path opacity="0.2" d="M156.81 215.417C156.793 215.417 156.777 215.411 156.765 215.4C156.752 215.389 156.745 215.373 156.743 215.356C156.688 214.963 151.115 180.488 149.913 168.571C148.611 155.641 145.896 126.966 145.868 126.678C145.867 126.668 145.867 126.658 145.87 126.648C145.872 126.638 145.877 126.629 145.883 126.621C145.889 126.614 145.897 126.607 145.906 126.603C145.915 126.598 145.925 126.595 145.935 126.595C145.944 126.594 145.954 126.595 145.963 126.598C145.972 126.601 145.98 126.605 145.987 126.612C145.995 126.618 146.001 126.625 146.005 126.634C146.009 126.642 146.012 126.652 146.012 126.661C146.04 126.949 148.755 155.619 150.057 168.554C151.259 180.465 156.832 214.941 156.887 215.334C156.889 215.344 156.889 215.353 156.886 215.363C156.884 215.372 156.88 215.381 156.874 215.389C156.869 215.396 156.862 215.403 156.853 215.408C156.845 215.413 156.836 215.416 156.826 215.417H156.81Z" fill="black"/>
<path d="M138.057 71.0505C137.929 71.3774 137.658 71.5713 137.447 71.4937C137.237 71.4161 137.176 71.0948 137.303 70.768C137.431 70.4411 137.702 70.2472 137.913 70.3248C138.123 70.4023 138.184 70.7292 138.057 71.0505Z" fill="#263238"/>
<path d="M134.439 69.7043C134.312 70.0256 134.035 70.225 133.83 70.1475C133.625 70.0699 133.553 69.7431 133.68 69.4217C133.808 69.1004 134.079 68.8677 134.29 68.973C134.5 69.0783 134.567 69.3774 134.439 69.7043Z" fill="#263238"/>
<path d="M135.525 70.2915C134.756 71.1455 133.874 71.891 132.905 72.5075C133.062 72.7476 133.271 72.9497 133.516 73.0992C133.762 73.2486 134.037 73.3417 134.323 73.3717L135.525 70.2915Z" fill="#A02724"/>
<path d="M134.905 74.585C134.892 74.5808 134.881 74.574 134.871 74.5651C134.862 74.5563 134.854 74.5455 134.849 74.5335C134.844 74.5215 134.841 74.5086 134.841 74.4955C134.841 74.4824 134.844 74.4695 134.849 74.4576C134.86 74.433 134.88 74.4133 134.904 74.4021C134.929 74.3909 134.956 74.3889 134.982 74.3967C135.382 74.5517 135.812 74.6119 136.239 74.5725C136.666 74.533 137.077 74.3951 137.442 74.1695C137.461 74.1512 137.487 74.141 137.514 74.141C137.541 74.141 137.566 74.1512 137.586 74.1695C137.604 74.189 137.614 74.2148 137.614 74.2415C137.614 74.2683 137.604 74.294 137.586 74.3136C137.194 74.5718 136.746 74.7313 136.279 74.7786C135.812 74.8259 135.34 74.7595 134.905 74.585Z" fill="#263238"/>
<path d="M139.608 70.2804C139.579 70.2681 139.554 70.2498 139.533 70.2269C139.512 70.204 139.496 70.1769 139.486 70.1475C139.431 69.8983 139.316 69.6667 139.149 69.4733C138.983 69.2799 138.771 69.1308 138.533 69.0395C138.482 69.0229 138.439 68.9869 138.415 68.9393C138.39 68.8916 138.385 68.8361 138.4 68.7846C138.418 68.7341 138.454 68.6919 138.501 68.6663C138.548 68.6407 138.603 68.6335 138.655 68.6461C138.955 68.7543 139.224 68.9347 139.437 69.1715C139.651 69.4082 139.803 69.694 139.879 70.0034C139.893 70.0556 139.886 70.111 139.859 70.1576C139.832 70.2043 139.787 70.2385 139.735 70.2527C139.697 70.276 139.652 70.2857 139.608 70.2804Z" fill="#263238"/>
<path d="M133.32 67.7985C133.288 67.7854 133.26 67.7639 133.239 67.7361C133.218 67.7084 133.205 67.6756 133.201 67.641C133.197 67.6065 133.202 67.5715 133.216 67.5397C133.231 67.508 133.253 67.4806 133.281 67.4606C133.524 67.2481 133.814 67.0962 134.127 67.0172C134.44 66.9382 134.767 66.9345 135.082 67.0063C135.108 67.0138 135.132 67.0265 135.152 67.0435C135.173 67.0606 135.19 67.0816 135.203 67.1054C135.215 67.1292 135.223 67.1553 135.225 67.182C135.227 67.2088 135.223 67.2357 135.215 67.2611C135.197 67.3115 135.161 67.3532 135.114 67.3779C135.066 67.4026 135.012 67.4084 134.96 67.3941C134.71 67.3433 134.451 67.3508 134.204 67.4161C133.957 67.4815 133.729 67.6028 133.536 67.7708C133.507 67.7953 133.47 67.8108 133.432 67.8157C133.394 67.8206 133.355 67.8147 133.32 67.7985Z" fill="#263238"/>
<path d="M146.4 91.8477L152.35 89.9142C152.35 89.9142 157.813 103.842 159.84 104.645C162.61 105.753 168.189 108.678 171.668 109.376C172.067 109.963 172.599 111.769 172.433 112.407C167.447 113.703 157.297 110.972 155.297 109.177C150.727 105.088 146.4 91.8477 146.4 91.8477Z" fill="#B55B52"/>
<path d="M150.134 84.8174C154.162 85.4046 158.444 99.4153 158.444 99.4153L149.835 104.207C149.835 104.207 146.262 97.5594 144.539 92.5734C142.738 87.4156 145.813 84.208 150.134 84.8174Z" fill="#263238"/>
<path d="M153.192 226.076C152.904 226.099 152.617 226.023 152.378 225.86C152.299 225.794 152.239 225.707 152.204 225.61C152.169 225.513 152.16 225.408 152.178 225.306C152.181 225.246 152.199 225.188 152.231 225.137C152.263 225.087 152.308 225.046 152.361 225.018C152.832 224.78 154.195 225.622 154.35 225.722C154.366 225.732 154.379 225.747 154.387 225.765C154.395 225.783 154.397 225.802 154.394 225.821C154.39 225.841 154.381 225.859 154.367 225.874C154.353 225.888 154.336 225.899 154.317 225.905C153.95 226.004 153.572 226.061 153.192 226.076ZM152.577 225.19C152.535 225.18 152.492 225.18 152.45 225.19C152.422 225.19 152.389 225.229 152.383 225.306C152.37 225.374 152.375 225.444 152.397 225.509C152.42 225.574 152.459 225.632 152.511 225.677C152.987 225.894 153.528 225.92 154.023 225.749C153.582 225.471 153.091 225.281 152.577 225.19Z" fill="#005F31"/>
<path d="M154.289 225.927H154.245C153.807 225.683 152.976 224.747 153.076 224.265C153.094 224.191 153.136 224.125 153.195 224.077C153.254 224.029 153.327 224.001 153.403 223.999C153.48 223.989 153.558 223.996 153.633 224.019C153.707 224.042 153.776 224.08 153.835 224.132C154.317 224.536 154.389 225.794 154.389 225.821C154.389 225.84 154.385 225.858 154.376 225.875C154.367 225.891 154.355 225.905 154.339 225.916C154.324 225.924 154.306 225.928 154.289 225.927ZM153.458 224.193H153.414C153.281 224.193 153.27 224.265 153.264 224.292C153.203 224.575 153.73 225.279 154.162 225.616C154.145 225.132 153.981 224.664 153.691 224.276C153.626 224.221 153.543 224.191 153.458 224.193Z" fill="#005F31"/>
<path d="M127.503 226.076C127.14 226.109 126.777 226.017 126.473 225.816C126.405 225.755 126.353 225.678 126.322 225.592C126.291 225.506 126.282 225.413 126.295 225.323C126.299 225.267 126.316 225.212 126.346 225.165C126.376 225.118 126.418 225.078 126.467 225.051C126.993 224.758 128.683 225.605 128.882 225.733C128.901 225.743 128.915 225.759 128.924 225.777C128.933 225.796 128.936 225.818 128.932 225.838C128.93 225.859 128.92 225.879 128.905 225.894C128.89 225.909 128.87 225.919 128.849 225.921C128.406 226.015 127.956 226.067 127.503 226.076ZM126.75 225.19C126.685 225.187 126.62 225.2 126.561 225.229C126.542 225.239 126.526 225.254 126.514 225.273C126.503 225.291 126.496 225.312 126.495 225.334C126.487 225.394 126.493 225.455 126.513 225.512C126.533 225.568 126.567 225.62 126.611 225.661C126.866 225.893 127.57 225.938 128.517 225.777C127.966 225.481 127.368 225.282 126.75 225.19Z" fill="#005F31"/>
<path d="M128.833 225.927H128.789C128.279 225.694 127.282 224.774 127.37 224.265C127.37 224.154 127.476 224.01 127.753 223.982C127.852 223.972 127.953 223.982 128.048 224.012C128.144 224.043 128.232 224.093 128.307 224.159C128.861 224.603 128.927 225.755 128.927 225.821C128.929 225.839 128.926 225.857 128.918 225.873C128.911 225.888 128.898 225.901 128.883 225.91C128.869 225.921 128.851 225.927 128.833 225.927ZM127.83 224.193H127.769C127.586 224.193 127.575 224.281 127.57 224.304C127.514 224.592 128.19 225.317 128.711 225.639C128.671 225.152 128.477 224.69 128.157 224.32C128.065 224.243 127.95 224.199 127.83 224.193Z" fill="#005F31"/>
<path d="M172.039 112.501L176.105 112.695L173.945 108.263C173.945 108.263 170.383 108.207 169.795 110.95L172.039 112.501Z" fill="#B55B52"/>
<path d="M179.402 110.551L177.247 106.634L173.945 108.263L176.106 112.695L179.402 110.551Z" fill="#B55B52"/>
</svg>
