<svg width="175" height="175" viewBox="0 0 175 175" fill="none" xmlns="http://www.w3.org/2000/svg">
<path d="M88.5149 159.681C131.748 159.681 166.796 140.627 166.796 117.124C166.796 93.6207 131.748 74.5675 88.5149 74.5675C45.2815 74.5675 10.2339 93.6207 10.2339 117.124C10.2339 140.627 45.2815 159.681 88.5149 159.681Z" fill="#F5F5F5"/>
<path d="M128.117 112C137.133 112 144.441 107.78 144.441 102.574C144.441 97.3689 137.133 93.149 128.117 93.149C119.102 93.149 111.793 97.3689 111.793 102.574C111.793 107.78 119.102 112 128.117 112Z" fill="#E0E0E0"/>
<path d="M39.8125 135.901C48.828 135.901 56.1365 131.682 56.1365 126.476C56.1365 121.27 48.828 117.05 39.8125 117.05C30.797 117.05 23.4885 121.27 23.4885 126.476C23.4885 131.682 30.797 135.901 39.8125 135.901Z" fill="#E0E0E0"/>
<path d="M152.649 99.2775L150.29 97.93C150.29 97.93 149.16 91.6965 150.003 86.3415C151.193 78.8095 156.321 76.209 158.186 76.958C160.052 77.707 160.486 79.94 157.136 84.308C155.138 86.8595 152.6 92.2845 152.649 99.2775Z" fill="#005F31"/>
<g opacity="0.1">
<path d="M152.649 99.2775L150.29 97.93C150.29 97.93 149.16 91.6965 150.003 86.3415C151.193 78.8095 156.321 76.209 158.186 76.958C160.052 77.707 160.486 79.94 157.136 84.308C155.138 86.8595 152.6 92.2845 152.649 99.2775Z" fill="black"/>
</g>
<path d="M151.526 96.2115H151.55C151.572 96.2093 151.594 96.2028 151.613 96.1922C151.633 96.1817 151.65 96.1674 151.664 96.1502C151.678 96.1329 151.688 96.113 151.695 96.0917C151.701 96.0704 151.703 96.0481 151.701 96.026C150.931 88.949 153.99 81.326 157.266 78.2915C157.299 78.2609 157.318 78.2184 157.32 78.1734C157.321 78.1285 157.305 78.0847 157.274 78.0517C157.244 78.0188 157.201 77.9994 157.156 77.9977C157.111 77.9961 157.068 78.0124 157.035 78.043C153.703 81.1195 150.584 88.893 151.365 96.0645C151.37 96.1039 151.389 96.1401 151.419 96.1669C151.448 96.1937 151.486 96.2095 151.526 96.2115Z" fill="white"/>
<path d="M159.191 103.054C159.562 103.267 160.328 102.802 160.622 102.602C161.127 102.261 161.534 101.794 161.805 101.248C162.109 100.627 162.213 99.928 162.103 99.246C162.041 98.891 161.957 98.5403 161.851 98.196C161.749 97.846 161.651 97.496 161.553 97.1635C161.432 96.8275 161.38 96.4701 161.403 96.1135C161.49 95.4135 162.103 94.913 162.687 94.486C163.317 94.0135 163.975 93.3905 163.972 92.54C163.924 91.8801 163.661 91.2541 163.223 90.7585C162.817 90.244 162.334 89.789 161.966 89.2465C161.675 88.8681 161.524 88.4006 161.539 87.9235C161.577 87.6324 161.675 87.3524 161.826 87.101C162.171 86.5743 162.473 86.0207 162.729 85.4455C162.936 84.8505 162.908 84.1085 162.442 83.6955C162.234 83.5428 161.997 83.4332 161.746 83.3731C161.495 83.313 161.234 83.3036 160.979 83.3455C160.496 83.4042 160.032 83.5666 159.618 83.8215C158.267 84.574 157.497 86.1735 156.065 86.751C155.502 86.9169 154.929 87.0501 154.35 87.15C154.056 87.2034 153.776 87.3184 153.53 87.4872C153.283 87.6561 153.075 87.8751 152.919 88.13C152.394 89.18 153.37 90.475 152.999 91.588C152.67 92.575 151.711 92.953 151.176 93.842C150.955 94.2344 150.867 94.6871 150.924 95.1335C150.969 95.8885 151.153 96.6288 151.466 97.3175C151.817 98.0018 152.219 98.6593 152.667 99.2845C152.67 99.2985 159.131 103.023 159.191 103.054Z" fill="#005F31"/>
<path d="M155.362 101.017C155.384 101.017 155.406 101.012 155.426 101.003C155.447 100.993 155.465 100.98 155.481 100.964C155.496 100.948 155.508 100.929 155.516 100.908C155.523 100.887 155.527 100.864 155.526 100.842C155.25 94.1675 158.393 86.8 160.682 84.658C160.698 84.6428 160.711 84.6246 160.72 84.6045C160.729 84.5843 160.734 84.5626 160.734 84.5404C160.735 84.5183 160.731 84.4963 160.723 84.4757C160.716 84.455 160.704 84.4361 160.689 84.42C160.673 84.4039 160.655 84.391 160.635 84.3819C160.615 84.3729 160.593 84.3679 160.571 84.3672C160.549 84.3666 160.527 84.3703 160.506 84.3781C160.486 84.386 160.467 84.3978 160.451 84.413C158.116 86.597 154.91 94.087 155.201 100.863C155.204 100.904 155.222 100.942 155.252 100.971C155.282 100.999 155.321 101.015 155.362 101.017Z" fill="white"/>
<path d="M156.362 93.1315H156.411C157.993 92.6943 159.617 92.4326 161.255 92.351C161.3 92.3483 161.341 92.3286 161.371 92.2959C161.401 92.2633 161.417 92.2203 161.416 92.176C161.417 92.1536 161.412 92.1315 161.403 92.111C161.394 92.0905 161.381 92.0721 161.364 92.0569C161.348 92.0418 161.329 92.0302 161.307 92.023C161.286 92.0158 161.264 92.0131 161.241 92.015C159.575 92.099 157.922 92.3654 156.313 92.8095C156.292 92.8159 156.273 92.8264 156.256 92.8404C156.238 92.8545 156.224 92.8717 156.214 92.8912C156.203 92.9108 156.197 92.9321 156.195 92.9541C156.193 92.9761 156.195 92.9984 156.201 93.0195C156.213 93.053 156.234 93.0819 156.263 93.1021C156.292 93.1223 156.327 93.1326 156.362 93.1315Z" fill="white"/>
<path d="M16.9507 106.858L19.2957 105.504C19.2957 105.504 20.4332 99.2705 19.5862 93.9155C18.3997 86.3835 13.2862 83.7865 11.4067 84.532C9.52718 85.2775 9.10718 87.514 12.4567 91.882C14.4552 94.4335 17.0137 99.869 16.9507 106.858Z" fill="#005F31"/>
<g opacity="0.1">
<path d="M16.9507 106.858L19.2957 105.504C19.2957 105.504 20.4332 99.2705 19.5862 93.9155C18.3997 86.3835 13.2862 83.7865 11.4067 84.532C9.52718 85.2775 9.10718 87.514 12.4567 91.882C14.4552 94.4335 17.0137 99.869 16.9507 106.858Z" fill="black"/>
</g>
<path d="M18.2001 106.498C18.1543 106.495 18.1113 106.475 18.0806 106.441C18.0498 106.407 18.0336 106.362 18.0356 106.316C18.5886 95.816 17.1116 89.8415 13.0936 86.296C13.0613 86.2627 13.0432 86.2181 13.0432 86.1717C13.0432 86.1254 13.0613 86.0808 13.0936 86.0475C13.1269 86.0152 13.1714 85.9971 13.2178 85.9971C13.2642 85.9971 13.3088 86.0152 13.3421 86.0475C17.4476 89.67 18.9631 95.7425 18.4031 106.347C18.4001 106.371 18.3924 106.393 18.3805 106.414C18.3686 106.434 18.3526 106.452 18.3337 106.466C18.3147 106.48 18.2931 106.49 18.2701 106.496C18.2472 106.501 18.2233 106.502 18.2001 106.498Z" fill="white"/>
<path d="M17.6611 106.445C17.7101 104.191 16.3976 96.726 11.9806 94.01C7.56359 91.294 5.41809 94.6785 7.20659 96.7295C8.51909 98.231 10.9621 99.316 13.2616 102.42C14.8401 104.555 15.7501 107.555 15.7501 107.555L17.6611 106.445Z" fill="#005F31"/>
<path d="M16.87 107.321C16.8254 107.321 16.7824 107.304 16.7498 107.273C16.7173 107.242 16.6977 107.201 16.695 107.156C16.2715 101.465 13.041 96.3585 8.83752 94.7415C8.81591 94.7332 8.79615 94.7208 8.77936 94.7049C8.76257 94.689 8.74908 94.6699 8.73965 94.6488C8.73022 94.6276 8.72505 94.6049 8.72443 94.5817C8.72381 94.5586 8.72774 94.5356 8.73602 94.514C8.74429 94.4924 8.75674 94.4726 8.77265 94.4558C8.78856 94.4391 8.80762 94.4256 8.82875 94.4161C8.84987 94.4067 8.87265 94.4015 8.89577 94.4009C8.91889 94.4003 8.94191 94.4042 8.96352 94.4125C13.3 96.082 16.611 101.311 17.045 107.132C17.0469 107.155 17.0442 107.178 17.0369 107.2C17.0296 107.223 17.0179 107.243 17.0026 107.261C16.9873 107.278 16.9686 107.293 16.9476 107.303C16.9266 107.313 16.9038 107.319 16.8805 107.321H16.87Z" fill="white"/>
<path d="M105.868 40.0575C106.4 40.495 107.009 40.7225 107.709 41.4015C108.151 41.905 108.71 42.2931 109.336 42.532C110.145 42.854 110.904 42.7595 113.148 42.399C115.888 41.9615 117.068 41.4995 118.251 40.4915C119.633 39.312 122.727 35.7525 124.222 34.356C125.804 32.879 127.977 33.4495 127.977 33.4495C127.305 35.6387 126.304 37.7133 125.009 39.6025C123.812 41.307 121.576 42.9415 120.564 43.7815C118.944 45.129 118.083 45.661 114.527 45.9305C111.842 46.1335 111.485 46.1965 109.277 46.1335C108.482 46.109 107.989 46.102 106.687 45.9935C106.122 45.9565 105.562 45.8591 105.017 45.703C104.401 45.5612 103.811 45.3251 103.267 45.003C102.558 44.5421 101.985 43.899 101.608 43.141C101.403 42.7242 101.297 42.2652 101.3 41.8005C101.306 41.3321 101.477 40.8809 101.783 40.5265C101.843 40.4541 101.92 40.3977 102.007 40.362C102.177 40.3331 102.351 40.3707 102.494 40.467C103.334 40.8975 104.181 41.4925 105.063 41.832C105.805 42.1155 106.372 42.217 106.316 42.0665C106.26 41.916 105.812 41.7795 105.35 41.258C104.888 40.7365 104.772 40.012 105.07 39.7845C105.367 39.557 105.35 39.6165 105.868 40.0575Z" fill="#FFA8A7"/>
<path d="M128.614 33.439C127.768 33.0324 126.809 32.9274 125.895 33.1415C124.512 33.5405 123.403 34.4435 122.083 35.861C120.764 37.2785 118.534 39.5675 118.534 39.5675C118.534 39.5675 119.633 42.343 122.097 43.33L127.263 38.5525L128.614 33.439Z" fill="#E0E0E0"/>
<path d="M136.206 96.859H133.073V102.221H136.206V96.859Z" fill="#FFA8A7"/>
<path d="M127.536 98.21L124.407 98.3185L124.25 92.645L127.536 92.5365V98.21Z" fill="#FFA8A7"/>
<path d="M137.55 56.8295C137.55 59.8185 137.021 77.2135 137.021 77.2135C137.091 78.0745 137.921 79.604 137.987 82.705C138.078 87.199 136.349 99.54 136.349 99.54C135.807 99.808 135.212 99.9532 134.607 99.9653C134.002 99.9774 133.402 99.8561 132.849 99.61C132.849 99.61 131.428 82.88 130.865 78.4315C130.375 74.5465 129.545 63.9975 129.545 63.9975L128.072 76.6745C128.431 78.3075 128.558 79.983 128.45 81.6515C128.303 83.7095 127.722 96.453 127.722 96.453C127.176 96.7616 126.57 96.9463 125.945 96.9941C125.32 97.0419 124.692 96.9515 124.106 96.7295C124.106 96.7295 121.898 78.561 121.863 76.6745C121.821 74.522 122.678 52.5455 122.678 52.5455L137.55 56.8295Z" fill="#37474F"/>
<path d="M135.481 34.8285C136.171 35.1341 136.713 35.6985 136.99 36.4C137.311 37.2651 137.467 38.1829 137.448 39.1055V45.241L137.539 56.8295C133.042 59.199 127.33 59.3565 122.531 55.853C122.531 55.853 122.801 40.9395 122.801 38.5C122.801 38.3915 122.801 38.2795 122.801 38.15C122.976 34.65 126.406 32.2735 129.801 33.1415L132.65 33.8905L135.499 34.8285H135.481Z" fill="#F0F0F0"/>
<path d="M128.428 27.6123C130.742 27.0662 132.175 24.7476 131.629 22.4336C131.083 20.1196 128.764 18.6864 126.45 19.2326C124.136 19.7787 122.703 22.0974 123.249 24.4114C123.795 26.7254 126.114 28.1585 128.428 27.6123Z" fill="#005F31"/>
<path opacity="0.5" d="M128.428 27.6123C130.742 27.0662 132.175 24.7476 131.629 22.4336C131.083 20.1196 128.764 18.6864 126.45 19.2326C124.136 19.7787 122.703 22.0974 123.249 24.4114C123.795 26.7254 126.114 28.1585 128.428 27.6123Z" fill="black"/>
<path d="M134.879 26.474C134.879 26.474 134.179 29.7535 133.903 30.289C133.718 30.624 133.411 30.8747 133.045 30.989L133.094 28.6825L134.879 26.474Z" fill="#005F31"/>
<path opacity="0.5" d="M134.879 26.474C134.879 26.474 134.179 29.7535 133.903 30.289C133.718 30.624 133.411 30.8747 133.045 30.989L133.094 28.6825L134.879 26.474Z" fill="black"/>
<path d="M134.004 21.7805C134.249 21.752 134.496 21.7797 134.728 21.8616C134.959 21.9435 135.169 22.0774 135.341 22.253C135.915 22.8375 135.593 24.675 134.879 26.474L133.567 26.628L134.004 21.7805Z" fill="#005F31"/>
<path opacity="0.5" d="M134.004 21.7805C134.249 21.752 134.496 21.7797 134.728 21.8616C134.959 21.9435 135.169 22.0774 135.341 22.253C135.915 22.8375 135.593 24.675 134.879 26.474L133.567 26.628L134.004 21.7805Z" fill="black"/>
<path d="M133.171 26.628C133.434 26.7855 133.812 26.278 134.134 25.928C134.456 25.578 135.534 25.123 136.048 26.2395C136.563 27.356 135.583 28.875 134.746 29.1375C133.308 29.589 133.094 28.665 133.094 28.665L133 34.027C131.211 36.3195 126.248 36.127 128.317 33.7295V32.151C127.676 32.2525 127.026 32.2853 126.378 32.249C125.328 32.0845 124.652 31.2515 124.33 30.107C123.816 28.266 123.63 26.782 124.057 23.163C124.537 19.1975 129.15 19.1555 131.642 20.713C134.134 22.2705 133.171 26.628 133.171 26.628Z" fill="#FFA8A7"/>
<path d="M133.171 27.069C133.304 27.069 133.808 26.236 134.134 25.9385C134.589 25.5255 134.004 21.7805 134.004 21.7805C134.124 21.4566 134.146 21.1048 134.069 20.7684C133.991 20.432 133.817 20.1256 133.567 19.887C132.944 19.187 131.904 19.1275 130.126 18.837C129.195 18.69 127.781 18.431 126.85 18.256C125.741 18.0495 124.82 17.8325 124.05 18.515C123.742 18.7806 123.524 19.1355 123.426 19.5305C123.328 19.9255 123.356 20.3412 123.504 20.72C123.724 21.1918 124.116 21.5615 124.6 21.7525C124.6 21.7525 125.083 22.183 126.77 22.3895C128.326 22.5047 129.889 22.4743 131.439 22.2985C131.929 22.232 132.034 22.708 132.296 23.9995C132.534 25.137 132.727 27.062 133.171 27.069Z" fill="#005F31"/>
<path opacity="0.5" d="M133.171 27.069C133.304 27.069 133.808 26.236 134.134 25.9385C134.589 25.5255 134.004 21.7805 134.004 21.7805C134.124 21.4566 134.146 21.1048 134.069 20.7684C133.991 20.432 133.817 20.1256 133.567 19.887C132.944 19.187 131.904 19.1275 130.126 18.837C129.195 18.69 127.781 18.431 126.85 18.256C125.741 18.0495 124.82 17.8325 124.05 18.515C123.742 18.7806 123.524 19.1355 123.426 19.5305C123.328 19.9255 123.356 20.3412 123.504 20.72C123.724 21.1918 124.116 21.5615 124.6 21.7525C124.6 21.7525 125.083 22.183 126.77 22.3895C128.326 22.5047 129.889 22.4743 131.439 22.2985C131.929 22.232 132.034 22.708 132.296 23.9995C132.534 25.137 132.727 27.062 133.171 27.069Z" fill="black"/>
<path d="M134.001 22.071L135.593 21.217C135.542 21.1114 135.471 21.017 135.383 20.9395C135.295 20.862 135.192 20.803 135.081 20.7658C134.969 20.7286 134.852 20.714 134.735 20.723C134.618 20.732 134.504 20.7643 134.4 20.818C134.185 20.9354 134.023 21.1312 133.949 21.3645C133.875 21.5979 133.893 21.8509 134.001 22.071Z" fill="#005F31"/>
<path opacity="0.5" d="M134.001 22.071L135.593 21.217C135.542 21.1114 135.471 21.017 135.383 20.9395C135.295 20.862 135.192 20.803 135.081 20.7658C134.969 20.7286 134.852 20.714 134.735 20.723C134.618 20.732 134.504 20.7643 134.4 20.818C134.185 20.9354 134.023 21.1312 133.949 21.3645C133.875 21.5979 133.893 21.8509 134.001 22.071Z" fill="black"/>
<path d="M128.306 32.151C128.306 32.151 130.669 31.675 131.495 31.234C131.986 30.9822 132.389 30.5866 132.65 30.1C132.526 30.5824 132.305 31.0347 132.002 31.43C131.397 32.2035 128.32 32.7705 128.32 32.7705L128.306 32.151Z" fill="#F28F8F"/>
<path d="M128.422 26.0365C128.425 26.1293 128.455 26.2192 128.508 26.2951C128.562 26.3709 128.637 26.4293 128.723 26.4629C128.81 26.4966 128.904 26.5039 128.995 26.4842C129.086 26.4644 129.168 26.4183 129.233 26.3517C129.298 26.2851 129.341 26.2009 129.359 26.1097C129.376 26.0184 129.366 25.9241 129.329 25.8386C129.293 25.7531 129.233 25.6801 129.155 25.6288C129.078 25.5774 128.987 25.55 128.894 25.55C128.768 25.5528 128.647 25.6053 128.558 25.6964C128.47 25.7874 128.421 25.9096 128.422 26.0365Z" fill="#263238"/>
<path d="M128.922 24.248L129.937 24.808C130.009 24.6689 130.024 24.5078 129.979 24.3579C129.935 24.2081 129.835 24.081 129.699 24.003C129.633 23.9663 129.559 23.9436 129.483 23.9361C129.408 23.9286 129.331 23.9365 129.258 23.9594C129.186 23.9823 129.119 24.0197 129.061 24.0693C129.003 24.1189 128.956 24.1797 128.922 24.248Z" fill="#263238"/>
<path d="M128.52 29.3055L127.438 29.7115C127.463 29.7834 127.501 29.8498 127.551 29.9065C127.602 29.9633 127.663 30.0094 127.732 30.042C127.8 30.0747 127.875 30.0932 127.95 30.0966C128.026 30.0999 128.102 30.088 128.173 30.0615C128.317 30.0043 128.433 29.8937 128.498 29.7529C128.563 29.6121 128.57 29.4519 128.52 29.3055Z" fill="#F28F8F"/>
<path d="M124.337 24.6435L125.261 23.9435C125.22 23.8793 125.166 23.8244 125.102 23.782C125.039 23.7397 124.967 23.7109 124.892 23.6974C124.817 23.684 124.74 23.6861 124.665 23.7038C124.591 23.7214 124.521 23.7542 124.46 23.8C124.333 23.8966 124.249 24.0391 124.227 24.1968C124.204 24.3544 124.243 24.5148 124.337 24.6435Z" fill="#263238"/>
<path d="M124.621 25.9C124.624 25.9933 124.655 26.0836 124.71 26.1595C124.764 26.2355 124.839 26.2937 124.927 26.3271C125.014 26.3604 125.109 26.3674 125.2 26.3471C125.291 26.3268 125.374 26.2802 125.439 26.2129C125.504 26.1457 125.548 26.0609 125.565 25.9691C125.582 25.8773 125.571 25.7825 125.535 25.6965C125.498 25.6106 125.437 25.5372 125.36 25.4857C125.282 25.4341 125.19 25.4066 125.097 25.4065C125.033 25.4074 124.97 25.4209 124.912 25.4463C124.853 25.4716 124.8 25.5083 124.756 25.5541C124.712 25.6 124.677 25.6542 124.654 25.7135C124.631 25.7729 124.62 25.8363 124.621 25.9Z" fill="#263238"/>
<path d="M127.032 25.452L126.878 28.301L125.391 27.7935L127.032 25.452Z" fill="#F28F8F"/>
<path d="M133.073 100.674V100.226C132.772 100.359 132.076 103.026 130.833 104.146C129.846 105.049 128.499 106.089 128.156 107.093C127.813 108.098 130.032 108.714 130.956 108.553C132.027 108.36 133.885 107.608 134.354 106.908C134.823 106.208 135.037 105.175 135.404 104.661C135.772 104.146 136.657 103.576 136.86 102.981C136.972 102.655 136.839 101.931 136.682 101.339C136.524 100.748 136.381 100.177 136.192 100.226C136.192 100.296 136.192 100.576 136.192 100.576C135.745 100.926 135.192 101.113 134.624 101.105C134.179 101.115 133.07 101.024 133.073 100.674Z" fill="#263238"/>
<path d="M124.376 97.3525C124.211 97.3525 124.078 97.587 123.721 97.9755C123.186 98.517 122.564 98.9654 121.88 99.302C120.708 99.8865 118.426 100.789 117.393 101.255C116.749 101.545 116.781 102.326 117.446 102.767C118.111 103.208 119.721 103.53 121.646 103.099C122.696 102.861 124.068 101.892 124.936 101.944C125.804 101.997 127.424 101.983 128.065 101.542C128.705 101.101 128.45 100.159 128.268 99.3475C128.072 98.4655 127.823 97.0865 127.533 97.1495V97.454C127.155 98.0245 125.212 98.2555 124.383 97.8355L124.376 97.3525Z" fill="#263238"/>
<path d="M129.549 63.9975C127.93 63.4937 126.441 62.6406 125.188 61.4985C125.188 61.4985 126.028 63.0735 128.53 64.54L128.18 75.6105L129.549 63.9975Z" fill="#263238"/>
<path d="M36.6554 43.869H37.7719C39.4344 43.869 41.0288 44.5294 42.2044 45.705C43.38 46.8806 44.0404 48.475 44.0404 50.1375V63.4375H30.3904V50.1375C30.3904 48.475 31.0508 46.8806 32.2264 45.705C33.402 44.5294 34.9964 43.869 36.6589 43.869H36.6554Z" fill="#263238"/>
<path d="M36.2074 128.825L35.3289 128.044C34.4784 127.267 33.8309 125.944 33.4564 125.055C33.245 124.542 33.1356 123.993 33.1344 123.438V121.688H30.0684V124.534V124.6C30.2154 125.237 31.6259 126.935 32.4239 128.041C32.9629 128.783 33.9814 129.724 35.1994 129.889C36.3649 130.064 36.9564 129.7 36.2074 128.825Z" fill="#FFA8A7"/>
<path d="M45.0729 124.156C45.1589 124.106 45.2339 124.039 45.2934 123.96C45.5314 123.631 45.3424 123.452 45.1674 123.19C44.9572 122.825 44.7815 122.442 44.6424 122.045C44.4989 121.695 44.3134 121.072 44.3134 121.072C44.3134 121.072 44.3134 120.614 44.3134 120.428V118.678H41.2439V121.601C41.4014 122.301 42.0244 122.941 42.4304 123.484C42.7454 123.904 43.5574 124.117 44.0474 124.222C44.2621 124.277 44.4851 124.293 44.7054 124.268C44.834 124.254 44.9588 124.216 45.0729 124.156Z" fill="#FFA8A7"/>
<path d="M30.6774 76.951C28.2974 82.1485 30.7649 100.454 30.7649 100.454C30.6914 101.297 29.7149 102.956 29.3649 106.666C28.9414 111.052 30.0299 122.066 30.0299 122.066C30.4984 122.337 31.026 122.49 31.567 122.512C32.108 122.533 32.646 122.422 33.1344 122.188C33.1344 122.188 36.0569 105.605 36.6064 101.244C37.0859 97.44 38.0064 89.075 38.0064 89.075L39.8369 101.241C39.4566 102.468 39.1814 103.726 39.0144 105C38.7659 107.562 41.2509 119.504 41.2509 119.504C41.2509 119.504 42.3009 119.893 44.3204 119.595C44.3204 119.595 45.1989 103.751 45.4299 100.66C45.8184 95.473 45.2269 79.268 44.2749 76.1985L30.6774 76.951Z" fill="#37474F"/>
<path d="M38.0134 89.0715L38.7834 84.245C38.7834 84.245 42.0524 83.566 43.5329 82.173C43.5329 82.173 41.9789 84.1085 39.6829 84.742L38.8149 88.4555L39.5919 99.4805L38.0134 89.0715Z" fill="#263238"/>
<path d="M33.145 124.075V123.631C33.439 123.76 34.125 126.371 35.3465 127.481C36.316 128.366 37.6425 129.388 37.9785 130.375C38.3145 131.362 36.134 131.968 35.2275 131.81C34.1775 131.621 32.3505 130.879 31.892 130.193C31.4335 129.507 31.2165 128.492 30.842 127.988C30.4675 127.484 29.61 126.924 29.4 126.35C29.288 126.032 29.421 125.328 29.575 124.737C29.729 124.145 29.8725 123.596 30.058 123.645V123.995C30.4961 124.338 31.038 124.522 31.5945 124.516C32.0565 124.509 33.1485 124.418 33.145 124.075Z" fill="#263238"/>
<path d="M44.3134 121.072C44.4709 121.072 44.6634 121.317 45.0134 121.699C45.5398 122.23 46.1514 122.67 46.8229 123.001C47.9744 123.578 50.2144 124.464 51.2294 124.922C51.8629 125.206 51.8314 125.972 51.1769 126.406C50.5224 126.84 48.9439 127.155 47.0469 126.732C45.9969 126.501 44.6669 125.545 43.8129 125.598C42.9589 125.65 41.3629 125.636 40.7399 125.202C40.1169 124.768 40.3619 123.844 40.5404 123.05C40.7364 122.182 40.9779 120.827 41.2649 120.887V121.188C41.6359 121.748 43.5434 121.975 44.3554 121.562L44.3134 121.072Z" fill="#263238"/>
<path d="M39.9524 58.758C40.6987 58.6924 41.4494 58.8188 42.133 59.1251C42.8167 59.4314 43.4106 59.9074 43.8584 60.508C45.0869 62.111 48.3209 68.677 48.3209 68.677C48.3209 68.677 55.4224 68.201 55.7619 67.7915C56.1014 67.382 55.9124 66.549 55.8179 66.0905C55.7234 65.632 55.5694 64.617 55.4679 64.3405C55.2894 63.84 56.0279 63.9905 56.4619 64.442C56.8959 64.8935 57.0884 65.8175 57.3054 65.975C57.5224 66.1325 59.1709 64.225 59.9689 63.3185C60.7669 62.412 61.1449 61.7645 61.6804 62.1425C62.0689 62.4155 61.8204 62.958 61.2464 63.742C60.9783 64.0769 60.7306 64.4275 60.5044 64.792C60.4379 64.9355 60.6479 65.0475 60.7319 65.121C60.8894 65.261 61.1624 65.4885 61.1834 65.7055C61.18 65.8226 61.187 65.9397 61.2044 66.0555C61.2779 66.318 61.6034 66.4405 61.6944 66.696C61.7609 66.8815 61.6944 67.088 61.7224 67.2805C61.7469 67.403 61.8169 67.515 61.8379 67.6305C61.8463 67.7543 61.8278 67.8785 61.7837 67.9944C61.7396 68.1104 61.6709 68.2155 61.5824 68.3025C61.0189 68.971 60.2524 69.2265 59.5139 69.636C58.9014 69.986 58.2714 70.1225 57.5644 70.4375C56.8574 70.7525 48.2264 72.9855 46.9349 72.268C45.6434 71.5505 40.6909 63.7735 40.6909 63.7735C38.7589 60.571 39.9524 58.758 39.9524 58.758Z" fill="#FFA8A7"/>
<path d="M34.8739 58.898C31.8254 59.108 31.6119 60.5815 30.8489 62.1915C30.2644 63.42 30.4569 64.883 30.9014 66.164L32.8299 72.2715C32.8299 72.2715 31.8324 74.6795 30.6774 76.951C36.0114 79.9295 42.6719 78.351 44.2749 76.1915C44.3449 75.7295 43.9249 72.128 43.6799 69.7725C44.6179 67.417 44.8664 65.9225 44.4709 64.365C43.7324 61.474 40.8764 58.6565 39.6129 58.765L34.8739 58.898Z" fill="#005F31"/>
<path d="M30.0578 46.6865L30.9818 48.1705C30.8875 48.2359 30.7809 48.2816 30.6684 48.3047C30.556 48.3278 30.44 48.328 30.3275 48.3051C30.215 48.2822 30.1083 48.2367 30.0139 48.1715C29.9194 48.1063 29.8391 48.0226 29.7778 47.9255C29.6573 47.7223 29.6191 47.4807 29.6712 47.2503C29.7232 47.0198 29.8616 46.8181 30.0578 46.6865Z" fill="#263238"/>
<path d="M41.8004 46.6305C42.5214 47.054 43.4104 48.867 43.3229 52.6715C43.2494 55.8915 42.2029 56.6895 41.6814 56.917C41.1599 57.1445 40.1449 57.008 39.1614 56.8435V58.779C39.1614 58.779 40.5194 60.3575 40.4354 61.229C40.3514 62.1005 38.4719 62.3245 37.2014 61.46C36.372 60.8671 35.66 60.1254 35.1014 59.2725V54.6C35.1014 54.6 34.4399 55.4855 33.3514 54.7645C32.2629 54.0435 32.2244 52.2585 32.8544 51.6145C33.4844 50.9705 34.8459 51.177 35.0979 52.0625C35.0979 52.0625 36.6659 52.1185 38.7554 50.974C39.5681 50.5397 40.2672 49.9202 40.7962 49.1656C41.3252 48.4111 41.6692 47.5426 41.8004 46.6305Z" fill="#FFA8A7"/>
<path d="M39.3644 51.8595C39.3657 51.9392 39.3435 52.0174 39.3006 52.0846C39.2577 52.1517 39.196 52.2048 39.1231 52.2371C39.0503 52.2694 38.9696 52.2796 38.891 52.2663C38.8124 52.2531 38.7395 52.217 38.6813 52.1626C38.6231 52.1082 38.5822 52.0379 38.5636 51.9604C38.5451 51.8829 38.5498 51.8017 38.5771 51.7268C38.6044 51.652 38.6531 51.5868 38.7172 51.5394C38.7813 51.4921 38.8579 51.4646 38.9374 51.4605C38.9917 51.4586 39.0458 51.4675 39.0966 51.4865C39.1474 51.5056 39.194 51.5344 39.2336 51.5715C39.2733 51.6086 39.3053 51.6531 39.3277 51.7025C39.3501 51.7519 39.3626 51.8053 39.3644 51.8595Z" fill="#263238"/>
<path d="M39.8335 54.6L40.775 54.901C40.7593 54.9651 40.7307 55.0253 40.691 55.078C40.6513 55.1307 40.6012 55.1748 40.5439 55.2075C40.4866 55.2402 40.4233 55.261 40.3577 55.2685C40.2921 55.2759 40.2257 55.27 40.1625 55.251C40.0329 55.2078 39.9257 55.1152 39.864 54.9932C39.8024 54.8713 39.7915 54.73 39.8335 54.6Z" fill="#F28F8F"/>
<path d="M42.6999 50.617L41.8669 50.05C41.9013 49.9946 41.9466 49.9468 42.0001 49.9095C42.0536 49.8722 42.1142 49.8462 42.1781 49.8331C42.2419 49.82 42.3078 49.82 42.3717 49.8333C42.4355 49.8465 42.496 49.8726 42.5494 49.91C42.661 49.9856 42.739 50.1014 42.7671 50.2332C42.7951 50.365 42.7711 50.5025 42.6999 50.617Z" fill="#263238"/>
<path d="M42.497 51.569C42.5013 51.6229 42.4948 51.6771 42.4778 51.7285C42.4609 51.7798 42.4338 51.8272 42.3983 51.868C42.3628 51.9088 42.3195 51.942 42.2709 51.9658C42.2223 51.9896 42.1695 52.0034 42.1155 52.0065C42.032 52.0141 41.9481 51.9965 41.8747 51.956C41.8012 51.9155 41.7416 51.854 41.7034 51.7793C41.6653 51.7046 41.6504 51.6202 41.6606 51.5369C41.6709 51.4537 41.7058 51.3754 41.7609 51.3122C41.816 51.249 41.8888 51.2037 41.9699 51.1822C42.051 51.1608 42.1366 51.164 42.2158 51.1917C42.295 51.2193 42.3641 51.27 42.4142 51.3373C42.4644 51.4045 42.4932 51.4852 42.497 51.569Z" fill="#263238"/>
<path d="M40.5195 51.3345L40.5825 53.774L41.867 53.3785L40.5195 51.3345Z" fill="#F28F8F"/>
<path d="M39.1614 56.8435C38.1114 56.707 36.0114 56.0945 35.6614 55.251C35.7926 55.6787 36.053 56.0553 36.4069 56.329C37.0439 56.875 39.1614 57.4875 39.1614 57.4875V56.8435Z" fill="#F28F8F"/>
<path opacity="0.1" d="M36.239 77.5285C34.7865 77.1785 33.313 75.5965 33.978 74.046C34.1676 73.6107 34.493 73.2485 34.9055 73.0135C35.0577 72.9269 35.2332 72.8905 35.4073 72.9093C35.5813 72.9282 35.745 73.0014 35.875 73.1185C35.175 72.66 33.9745 70.4305 33.8135 69.6185L32.991 66.8745C32.9145 66.2469 32.9705 65.6101 33.1555 65.0055L31.01 62.5275L30.6145 62.8005C30.2645 63.875 30.5305 65.0895 30.9015 66.164L32.83 72.2715C32.83 72.2715 31.8325 74.6795 30.6775 76.951C32.4132 77.883 34.3285 78.4322 36.2943 78.5614C38.2601 78.6906 40.2308 78.3969 42.0735 77.7C40.1353 78.011 38.1557 77.9528 36.239 77.5285Z" fill="black"/>
<path d="M61.432 138.421L54.495 134.417C53.774 133.99 53.3715 132.919 53.3715 131.54L53.3435 101.115L60.3435 105.15L60.3155 135.674C60.305 137.018 60.739 137.977 61.432 138.421Z" fill="#005F31"/>
<path opacity="0.2" d="M61.432 138.421L54.495 134.417C53.774 133.99 53.3715 132.919 53.3715 131.54L53.3435 101.115L60.3435 105.15L60.3155 135.674C60.305 137.018 60.739 137.977 61.432 138.421Z" fill="black"/>
<path d="M61.481 138.45L61.432 138.421C60.732 137.977 60.305 137.022 60.305 135.674L60.333 105.15L53.333 101.115L59.3775 97.5905L59.4335 97.559L60.291 97.062L61.257 96.39L61.2955 96.3655L61.334 96.3375C61.3865 96.3025 61.4285 96.264 61.474 96.229L61.53 96.1905L61.698 96.0645L61.859 95.9385C61.9033 95.8965 61.9488 95.858 61.9955 95.823L62.048 95.781L62.097 95.739C62.188 95.669 62.2755 95.592 62.3595 95.5185L62.4925 95.396L62.5415 95.3435C62.706 95.193 62.8705 95.0285 63.021 94.864L63.077 94.8115C63.14 94.7438 63.1995 94.6773 63.2555 94.612C63.2853 94.5806 63.3122 94.5466 63.336 94.5105C63.3643 94.4838 63.3901 94.4545 63.413 94.423V94.3985L63.434 94.367L63.4725 94.325L63.658 94.0905C63.707 94.0205 63.7595 93.947 63.805 93.8735L63.8435 93.828V93.807C63.91 93.7125 63.9695 93.618 64.029 93.5235C64.0885 93.429 64.1305 93.359 64.1795 93.275L64.197 93.2435C64.2355 93.1665 64.2775 93.0965 64.316 93.0195L64.3755 92.911C64.4245 92.8165 64.47 92.722 64.512 92.624L64.589 92.4455C64.6197 92.3871 64.6455 92.3262 64.666 92.2635C64.6918 92.2143 64.7129 92.1627 64.729 92.1095C64.7465 92.0605 64.771 92.0045 64.7885 91.9555C64.834 91.833 64.8725 91.707 64.9145 91.5775C64.946 91.476 64.981 91.3675 65.009 91.259C65.009 91.259 65.009 91.231 65.009 91.2135C65.044 91.098 65.0685 90.979 65.093 90.8635V90.825C65.093 90.734 65.135 90.6395 65.1525 90.5415C65.177 90.4085 65.205 90.2545 65.2225 90.111V90.0375C65.2225 90.006 65.2225 89.9745 65.2225 89.9395C65.2244 89.9267 65.2244 89.9138 65.2225 89.901C65.2208 89.8684 65.2208 89.8356 65.2225 89.803C65.24 89.6315 65.254 89.453 65.268 89.299V89.222V89.0295C65.268 88.7775 65.275 88.522 65.289 88.263V88.2C65.289 88.1265 65.289 88.06 65.289 87.983V87.794C65.289 87.71 65.289 87.619 65.289 87.5385C65.2908 87.5164 65.2908 87.4941 65.289 87.472C65.2907 87.4499 65.2907 87.4276 65.289 87.4055V87.311C65.289 87.1815 65.2715 87.0555 65.261 86.94V86.919C65.261 86.807 65.2365 86.702 65.226 86.6005C65.1627 86.1275 65.0657 85.6596 64.9355 85.2005C64.855 84.9205 64.7675 84.665 64.6905 84.4235C64.4861 83.8751 64.3429 83.3058 64.2635 82.726C64.2635 82.6105 64.2355 82.4915 64.225 82.376C64.2145 82.2605 64.225 82.1065 64.2005 81.963V81.9C64.1971 81.8663 64.1971 81.8322 64.2005 81.7985C64.1938 81.7252 64.1938 81.6513 64.2005 81.578C64.2005 79.9645 65.1805 78.078 66.395 77.378C66.5154 77.307 66.6449 77.2529 66.78 77.217C66.8669 77.1933 66.9561 77.1792 67.046 77.175C67.132 77.1643 67.219 77.1643 67.305 77.175C67.3466 77.1806 67.3876 77.19 67.4275 77.203C67.5497 77.2393 67.6671 77.2898 67.7775 77.3535L74.9 81.41C74.9412 81.4332 74.981 81.4589 75.019 81.487C75.432 81.802 75.663 82.4005 75.663 83.1775C75.663 83.2825 75.663 83.391 75.642 83.559V83.6045C75.5938 84.6147 75.4318 85.6162 75.159 86.59C75.0995 86.8385 75.04 87.087 74.984 87.3495C74.9595 87.437 74.942 87.528 74.9245 87.6155C74.8615 87.8815 74.8055 88.158 74.76 88.4555C74.7425 88.55 74.7285 88.6515 74.7145 88.7495L79.6145 85.974L86.6145 90.0095V98.0385C86.6145 100.292 86.443 101.798 86.093 102.638C85.848 103.219 85.4735 103.582 84.609 104.079C83.9303 104.498 83.1523 104.729 82.355 104.748C82.103 104.748 81.865 104.794 81.6235 104.825L81.34 104.874C81.249 104.892 81.1615 104.909 81.067 104.934C80.899 104.972 80.717 105.028 80.549 105.084L80.409 105.137C80.1449 105.239 79.8867 105.356 79.6355 105.487C79.6034 105.499 79.5729 105.516 79.5445 105.535H79.52L79.478 105.556C79.3835 105.598 79.275 105.651 79.163 105.714C78.1255 106.359 77.2445 107.227 76.5835 108.255C76.2333 108.775 75.9255 109.323 75.663 109.893C75.4129 110.432 75.2001 110.987 75.026 111.556L75.411 111.146C75.7752 110.736 76.1632 110.348 76.573 109.984C76.9148 109.688 77.2839 109.426 77.6755 109.2C78.2355 108.878 78.6835 108.619 79.016 108.825L85.953 112.959L86.0335 113.019C86.0528 113.037 86.0704 113.057 86.086 113.078C86.0988 113.086 86.1085 113.099 86.114 113.113C86.1343 113.135 86.1519 113.16 86.1665 113.187C86.1665 113.187 86.1665 113.187 86.1665 113.204C86.188 113.237 86.2067 113.273 86.2225 113.309C86.401 113.687 86.52 114.359 86.5725 115.486C86.5725 115.608 86.5725 115.738 86.5725 115.878C86.5725 116.228 86.5725 116.627 86.5725 117.064V125.09L63.7175 138.285C63.346 138.513 62.9267 138.652 62.4925 138.691C62.3551 138.703 62.2169 138.703 62.0795 138.691C62.034 138.689 61.9891 138.679 61.9465 138.663C61.7817 138.615 61.6249 138.543 61.481 138.45Z" fill="#005F31"/>
<path opacity="0.1" d="M79.0124 108.826L85.9424 112.959C85.6134 112.749 85.1619 113.015 84.6019 113.337C84.2107 113.562 83.8426 113.824 83.5029 114.121C83.0903 114.482 82.701 114.869 82.3374 115.28C81.5367 116.208 80.6149 117.025 79.5969 117.709C79.4604 117.807 79.2994 117.908 79.1489 117.996C76.6114 119.462 74.5464 117.901 74.5464 114.517C74.559 113.509 74.7206 112.509 75.0259 111.549C75.1554 111.412 75.2779 111.276 75.4039 111.146C75.7681 110.736 76.1561 110.348 76.5659 109.984C76.9064 109.688 77.2745 109.426 77.6649 109.2C78.2284 108.878 78.6834 108.619 79.0124 108.826Z" fill="black"/>
<path opacity="0.1" d="M74.6934 88.753L79.6179 85.974L86.6179 90.013L80.6014 93.485L78.7919 94.43H78.7709H78.7534L78.6239 94.486L78.5574 94.5105L78.2564 94.633L78.0884 94.6925L78.0429 94.71C77.9449 94.7415 77.8504 94.7765 77.7594 94.801L77.5634 94.8535C77.4619 94.8815 77.3674 94.899 77.2729 94.9165H77.2414L77.1119 94.9375C76.9958 94.9534 76.879 94.9627 76.7619 94.9655H76.6499C76.5136 94.9638 76.3777 94.9498 76.2439 94.9235L76.1739 94.906C76.0708 94.8779 75.9702 94.8416 75.8729 94.7975C75.844 94.7878 75.8169 94.7736 75.7924 94.7555C75.7047 94.7052 75.6205 94.6491 75.5404 94.5875H75.5229L75.4634 94.535C75.3728 94.4512 75.2907 94.3585 75.2184 94.2585L75.1834 94.2165C74.9944 93.9253 74.8548 93.6048 74.7704 93.268L74.7529 93.2085C74.7074 93.03 74.6759 92.8585 74.6444 92.666V92.5715C74.6129 92.3615 74.5884 92.1375 74.5744 91.91C74.5534 91.609 74.5464 91.3465 74.5464 91.084C74.5366 90.3044 74.5857 89.5252 74.6934 88.753Z" fill="black"/>
<path opacity="0.1" d="M60.333 105.15L53.333 101.115L59.3775 97.5905L59.43 97.559H59.451L60.3085 97.062L61.278 96.39L61.313 96.3655L61.3515 96.3375C61.404 96.3025 61.446 96.264 61.4915 96.229L61.544 96.1905L61.7155 96.0645L61.8765 95.9385C61.9208 95.8965 61.9663 95.858 62.013 95.823L62.0655 95.781L62.1145 95.739C62.2055 95.669 62.293 95.592 62.377 95.5185L62.51 95.396L62.559 95.3435C62.7235 95.193 62.888 95.0285 63.0385 94.864L63.0945 94.8115C63.1575 94.7438 63.217 94.6773 63.273 94.612C63.3028 94.5806 63.3297 94.5466 63.3535 94.5105C63.3815 94.4825 63.4025 94.451 63.427 94.423L63.448 94.3985L63.4725 94.3705L63.5075 94.325C63.5705 94.248 63.637 94.171 63.693 94.0905L63.8435 93.877L63.8785 93.828V93.807C63.945 93.7125 64.0045 93.618 64.064 93.5235C64.1235 93.429 64.1655 93.359 64.2145 93.275V93.24C64.2565 93.1665 64.2985 93.0965 64.337 93.0195C64.3601 92.9846 64.3811 92.9483 64.4 92.911C64.442 92.813 64.491 92.7185 64.533 92.624L64.61 92.4455C64.638 92.3895 64.6625 92.33 64.6905 92.267C64.7185 92.204 64.7325 92.1655 64.75 92.1095C64.7675 92.0535 64.792 92.0045 64.8095 91.9555C64.855 91.8295 64.8935 91.7105 64.9355 91.5775C64.967 91.476 65.002 91.3675 65.03 91.259C65.03 91.259 65.03 91.231 65.03 91.2135C65.058 91.1015 65.0895 90.979 65.114 90.8635V90.8285C65.1315 90.7305 65.1525 90.6395 65.17 90.5415C65.1945 90.4085 65.2225 90.2545 65.24 90.111V90.0375C65.24 90.0095 65.24 89.9745 65.24 89.9395C65.2419 89.9267 65.2419 89.9138 65.24 89.901C65.24 89.8695 65.24 89.8345 65.24 89.7995C65.261 89.6245 65.275 89.4495 65.2855 89.299V89.222C65.2855 89.1555 65.2855 89.0995 65.2855 89.0295C65.2855 88.7775 65.2925 88.522 65.3065 88.263V88.2C65.3065 88.1265 65.3065 88.06 65.3065 87.983V87.794C65.3065 87.71 65.3065 87.619 65.3065 87.535V87.472C65.3082 87.4499 65.3082 87.4276 65.3065 87.4055V87.311C65.3065 87.1815 65.289 87.0555 65.2785 86.94V86.9155L65.247 86.6005C65.1837 86.1275 65.0867 85.6596 64.9565 85.2005C64.8795 84.917 64.792 84.6615 64.7115 84.4235C64.5071 83.8751 64.3639 83.3058 64.2845 82.726C64.2845 82.6105 64.2565 82.4915 64.246 82.376C64.2355 82.2605 64.246 82.11 64.225 81.963V81.9C64.225 81.865 64.225 81.83 64.225 81.795C64.2183 81.7216 64.2183 81.6478 64.225 81.5745C64.225 79.961 65.205 78.0745 66.4195 77.3745C66.5399 77.3035 66.6694 77.2494 66.8045 77.2135C66.8914 77.1898 66.9806 77.1757 67.0705 77.1715C67.1563 77.1574 67.2437 77.1574 67.3295 77.1715C67.3711 77.1771 67.4121 77.1865 67.452 77.1995C67.5742 77.2358 67.6916 77.2863 67.802 77.35L74.9 81.41C74.7513 81.3241 74.5848 81.2738 74.4135 81.263C74.289 81.2582 74.1644 81.2688 74.0425 81.2945C73.8389 81.3402 73.6439 81.4181 73.465 81.5255C73.2511 81.6527 73.0526 81.8042 72.8735 81.977C72.3841 82.4594 71.9951 83.0339 71.729 83.6675C71.666 83.804 71.617 83.944 71.5645 84.0875C71.4981 84.2884 71.4431 84.4929 71.4 84.7C71.3233 85.0329 71.2834 85.3733 71.281 85.715C71.281 85.8095 71.281 85.918 71.281 86.037V86.072C71.2954 86.6395 71.3765 87.2034 71.5225 87.752C71.5435 87.843 71.5715 87.9305 71.596 88.018C71.652 88.1965 71.708 88.368 71.764 88.543C71.8445 88.7845 71.932 89.0365 72.0125 89.32C72.0405 89.418 72.065 89.516 72.0895 89.614C72.114 89.712 72.1385 89.8205 72.1665 89.929C72.2443 90.2942 72.3015 90.6634 72.338 91.035V91.0525C72.3346 91.1143 72.3346 91.1762 72.338 91.238V91.427V91.476V91.525C72.338 91.567 72.338 91.609 72.338 91.6545C72.3415 91.6976 72.3415 91.7409 72.338 91.784C72.338 91.826 72.338 91.8715 72.338 91.9135V92.106C72.338 92.1725 72.338 92.2425 72.338 92.3195V92.351C72.338 92.4805 72.338 92.61 72.338 92.7395C72.338 92.869 72.338 92.995 72.3205 93.1245C72.3205 93.1875 72.3205 93.254 72.3205 93.3135V93.3905C72.3205 93.555 72.296 93.723 72.275 93.891C72.275 93.9715 72.254 94.0485 72.2435 94.1325V94.199L72.17 94.6365L72.107 94.92V94.955C72.107 95.0215 72.079 95.088 72.058 95.158C72.037 95.228 72.023 95.291 72.0055 95.3505C71.988 95.41 72.0055 95.4065 71.988 95.4345C71.9705 95.4625 71.9355 95.592 71.9145 95.6725C71.876 95.7985 71.834 95.9245 71.7885 96.047C71.743 96.1695 71.708 96.257 71.6695 96.3585C71.631 96.46 71.568 96.6 71.5155 96.7085L71.372 97.0025C71.344 97.055 71.316 97.1145 71.2845 97.167L71.197 97.3315L71.176 97.3665C71.1541 97.41 71.1296 97.4521 71.1025 97.4925L71.078 97.5345C71.0629 97.5617 71.0454 97.5875 71.0255 97.6115C70.966 97.7095 70.9065 97.804 70.8435 97.8985V97.9195L70.8085 97.9685C70.7851 98.0051 70.7594 98.0402 70.7315 98.0735C70.709 98.1099 70.6845 98.1449 70.658 98.1785L70.5915 98.266C70.5546 98.3183 70.5149 98.3685 70.4725 98.4165L70.4375 98.462L70.399 98.5145L70.3185 98.609L70.294 98.637C70.294 98.658 70.259 98.6825 70.238 98.7035L70.147 98.805C70.1225 98.8365 70.091 98.868 70.0595 98.903L70.007 98.9555C69.8548 99.124 69.6936 99.2841 69.524 99.435L69.475 99.4875L69.3385 99.61C69.258 99.687 69.1705 99.7605 69.0795 99.834L69.0305 99.8725L69.006 99.897L68.9815 99.918L68.845 100.03L68.495 100.282L68.4425 100.324L68.3025 100.429L68.2255 100.481L67.256 101.153L66.3985 101.65L66.3705 101.671L66.3145 101.699L60.333 105.15Z" fill="black"/>
<mask id="mask0_1142_164" style="mask-type:luminance" maskUnits="userSpaceOnUse" x="74" y="70" width="42" height="56">
<path d="M79.1559 114.779C79.2294 114.737 79.3134 114.678 79.4044 114.615C80.1701 114.098 80.8624 113.48 81.4624 112.777C81.7739 112.427 82.0504 112.147 82.3654 111.842L82.4144 111.794L82.5054 111.706L82.5474 111.664C82.7049 111.517 82.8589 111.381 83.0129 111.248L85.9144 112.98C85.9738 113.017 86.026 113.064 86.0684 113.12C86.0933 113.149 86.1156 113.181 86.1349 113.215V113.236C86.1533 113.267 86.1696 113.3 86.1839 113.333V113.365L86.2259 113.473C86.2259 113.473 86.2259 113.501 86.2259 113.515C86.2408 113.554 86.2536 113.594 86.2644 113.635C86.2644 113.652 86.2644 113.67 86.2644 113.687C86.2644 113.705 86.2889 113.781 86.3029 113.834V113.879C86.3029 113.942 86.3274 114.009 86.3414 114.083C86.3414 114.163 86.3659 114.247 86.3799 114.335V114.356L86.4114 114.608C86.4114 114.636 86.4114 114.664 86.4114 114.692L86.4324 114.909C86.4324 114.947 86.4324 114.986 86.4324 115.021C86.4324 115.056 86.4324 115.164 86.4499 115.241C86.4674 115.318 86.4499 115.329 86.4499 115.374V115.602C86.4499 115.651 86.4499 115.703 86.4499 115.756C86.4499 115.808 86.4499 115.92 86.4499 116.004C86.4499 116.088 86.4499 116.106 86.4499 116.158C86.4499 116.211 86.4499 116.357 86.4499 116.459V116.599C86.4499 116.753 86.4499 116.907 86.4499 117.071V125.09L115.15 108.514V103.988C115.152 103.962 115.152 103.935 115.15 103.908V70.217L109.13 73.6925L109.018 73.759L108.948 73.801L107.761 74.536C107.286 74.8503 106.829 75.1916 106.393 75.558L106.365 75.5825L106.291 75.642C106.183 75.733 106.081 75.8275 105.98 75.922L105.952 75.95L105.822 76.076C105.728 76.167 105.637 76.258 105.546 76.3525L105.374 76.538C105.29 76.6325 105.206 76.727 105.126 76.825C105.045 76.923 105.021 76.9545 104.961 77.035C104.902 77.1155 104.804 77.238 104.73 77.3395L104.604 77.525L104.576 77.574L104.541 77.623C104.482 77.714 104.422 77.805 104.37 77.896C104.317 77.987 104.289 78.0325 104.254 78.106L104.223 78.1585C104.118 78.3545 104.013 78.561 103.922 78.771L103.897 78.8235C103.859 78.911 103.817 78.9985 103.782 79.0895C103.747 79.1805 103.712 79.275 103.68 79.3695L103.656 79.4395C103.617 79.548 103.579 79.653 103.547 79.765C103.516 79.877 103.481 79.9925 103.449 80.115C103.418 80.2375 103.39 80.353 103.362 80.465C103.334 80.577 103.313 80.696 103.292 80.815C103.271 80.934 103.246 81.067 103.229 81.1965V81.221C103.229 81.326 103.197 81.431 103.183 81.5395C103.169 81.648 103.155 81.8195 103.141 81.97V82.054C103.141 82.1345 103.141 82.215 103.124 82.2955C103.124 82.467 103.124 82.6455 103.124 82.8975V82.9325C103.124 82.978 103.124 83.02 103.124 83.0655C103.096 84.3549 103.31 85.6381 103.754 86.849C104.047 87.6338 104.211 88.4614 104.237 89.299V89.3375C104.237 89.453 104.254 89.5615 104.254 89.6595C104.238 90.5158 104.017 91.3556 103.61 92.1095C103.265 92.8246 102.728 93.4302 102.06 93.8595C101.954 93.9187 101.844 93.9702 101.731 94.0135L101.675 94.0345C101.575 94.0687 101.472 94.0921 101.367 94.1045H101.311C101.212 94.1151 101.112 94.1151 101.013 94.1045H100.992C100.893 94.0885 100.796 94.0579 100.705 94.0135L100.677 93.996L97.6499 92.218C97.6499 92.127 97.6499 92.0395 97.6744 91.9485C97.6989 91.8575 97.6989 91.7385 97.7129 91.6335C97.7409 91.4165 97.7689 91.2065 97.8039 91.0035C97.8389 90.8005 97.8669 90.6325 97.9019 90.454C97.9229 90.3595 97.9404 90.2685 97.9579 90.181C98.0419 89.7925 98.1294 89.404 98.2309 88.9875C98.5332 87.9189 98.6932 86.815 98.7069 85.7045C98.7069 84.6545 98.6159 84.182 98.3324 84.014L94.8814 82.0225L89.0224 85.4L86.6109 84V86.8L84.5109 88.0215L83.8389 88.4065L86.6389 90.0165V94.1745V98.0455C86.6389 100.3 86.4674 101.804 86.1174 102.644C85.8724 103.222 85.4979 103.586 84.6334 104.087C83.9536 104.506 83.1744 104.737 82.3759 104.755C82.1309 104.755 81.8859 104.8 81.6514 104.832L81.3644 104.881C81.2769 104.899 81.1859 104.916 81.0914 104.94C80.9163 104.982 80.7434 105.032 80.5734 105.091H80.5384L80.4334 105.126C80.169 105.228 79.9108 105.345 79.6599 105.476L79.5654 105.521H79.5444H79.5024C79.3934 105.568 79.2871 105.621 79.1839 105.679C78.1478 106.324 77.2689 107.192 76.6114 108.22C76.4434 108.465 76.2859 108.721 76.1354 108.983L76.0759 109.098C75.9464 109.329 75.8239 109.564 75.7259 109.798L75.7014 109.854C75.4507 110.393 75.2378 110.949 75.0644 111.517C74.9072 112.03 74.7902 112.554 74.7144 113.085L77.7804 114.856C77.9968 114.963 78.2372 115.012 78.4782 114.998C78.7192 114.985 78.9527 114.909 79.1559 114.779Z" fill="white"/>
</mask>
<g mask="url(#mask0_1142_164)">
<path d="M87.0343 105.182L79.5828 100.88L79.7473 100.653L79.7648 100.632L79.8453 100.516C79.9643 100.341 80.0763 100.166 80.1953 99.981L80.2268 99.925C80.3353 99.7325 80.4403 99.5225 80.5418 99.302C80.5628 99.2495 80.5873 99.197 80.6083 99.141V99.106C80.6608 98.98 80.7238 98.8295 80.7833 98.6615C80.8113 98.588 80.8358 98.5145 80.8638 98.434V98.3885C80.9058 98.2625 80.9478 98.1365 80.9828 98.007C81.0178 97.8775 81.0423 97.8005 81.0703 97.692C81.0983 97.5835 81.1263 97.4575 81.1578 97.342C81.1893 97.2265 81.2068 97.111 81.2278 96.992C81.2488 96.873 81.2733 96.7715 81.2908 96.663V96.6105C81.3118 96.5055 81.3293 96.3935 81.3468 96.2815C81.3643 96.1695 81.3643 96.152 81.3748 96.089V96.019C81.4518 95.459 81.4973 94.871 81.5358 94.234V94.164L81.5743 92.4455V84.273L88.9978 88.62V96.796L88.9593 98.518V98.5845C88.9278 99.2215 88.8788 99.8095 88.8053 100.366V100.439C88.8053 100.506 88.7878 100.569 88.7773 100.635C88.7668 100.702 88.7458 100.856 88.7248 100.961V101.01C88.7073 101.125 88.6863 101.23 88.6653 101.342C88.6443 101.454 88.6163 101.57 88.5883 101.692C88.5603 101.815 88.5358 101.93 88.5078 102.042C88.4798 102.154 88.4483 102.256 88.4203 102.358C88.3923 102.459 88.3433 102.613 88.2978 102.735V102.788C88.2733 102.861 88.2453 102.942 88.2173 103.015C88.1613 103.176 88.0948 103.33 88.0423 103.46L88.0248 103.491L87.9618 103.652C87.8603 103.869 87.7553 104.079 87.6468 104.279L87.6153 104.335C87.5138 104.51 87.4018 104.685 87.2828 104.87C87.2578 104.909 87.2297 104.945 87.1988 104.979V105.003L87.0343 105.182Z" fill="#005F31"/>
<path d="M81.5777 119.395L81.5987 112.647L81.4937 112.756C81.8017 112.406 82.0852 112.122 82.3932 111.821L82.4457 111.772L82.5367 111.685L82.5997 111.65C83.1882 111.083 83.8413 110.587 84.5457 110.173L84.6227 110.134H84.6402L84.6927 110.103C84.8607 110.008 85.0427 109.924 85.1932 109.844C85.2387 109.819 85.2877 109.802 85.3332 109.781L85.3822 109.756C85.4942 109.714 85.6132 109.662 85.7322 109.623C85.7952 109.595 85.8547 109.581 85.9107 109.56H85.9387C86.0402 109.536 86.1382 109.508 86.2292 109.49C86.3202 109.473 86.3692 109.462 86.4357 109.455C86.5219 109.449 86.6085 109.449 86.6947 109.455C86.7599 109.452 86.8254 109.452 86.8907 109.455C86.9674 109.462 87.0435 109.475 87.1182 109.494H87.1497L87.2932 109.529C87.3662 109.555 87.4365 109.587 87.5032 109.627C87.5781 109.664 87.6496 109.707 87.7167 109.756C87.7977 109.814 87.8738 109.879 87.9442 109.949C87.984 109.991 88.0214 110.036 88.0562 110.082L88.0807 110.117L88.1017 110.141C88.1379 110.188 88.1718 110.235 88.2032 110.285C88.2477 110.352 88.2874 110.422 88.3222 110.495C88.3572 110.561 88.3887 110.621 88.4167 110.687C88.4447 110.754 88.4867 110.855 88.5217 110.946C88.5567 111.037 88.5672 111.079 88.5882 111.149C88.6092 111.219 88.6477 111.345 88.6757 111.45L88.7177 111.625V111.653C88.7422 111.769 88.7702 111.888 88.7912 112.003C88.7912 112.035 88.7912 112.07 88.7912 112.105V112.147C88.8682 112.64 88.9242 113.197 88.9627 113.851V113.879L89.0012 115.44V123.728L81.5777 119.395Z" fill="#005F31"/>
<path d="M77.6368 114.842L70.3113 110.6C69.8248 110.341 69.5413 109.662 69.5413 108.762C69.5722 107.696 69.9073 106.66 70.5073 105.777L70.6473 105.581C70.6123 105.637 70.5703 105.693 70.5353 105.745L77.9833 110.047C77.9638 110.071 77.9462 110.097 77.9308 110.124C77.3288 111.004 76.9934 112.04 76.9648 113.106C76.9648 113.949 77.2238 114.551 77.6368 114.842Z" fill="#005F31"/>
<path d="M87.0343 105.182L79.5828 100.88L79.7473 100.653L79.7648 100.632L79.8453 100.516C79.9643 100.341 80.0763 100.166 80.1953 99.981L80.2268 99.925C80.3353 99.7325 80.4403 99.5225 80.5418 99.302C80.5628 99.2495 80.5873 99.197 80.6083 99.141V99.106C80.6608 98.98 80.7238 98.8295 80.7833 98.6615C80.8113 98.588 80.8358 98.5145 80.8638 98.434V98.3885C80.9058 98.2625 80.9478 98.1365 80.9828 98.007C81.0178 97.8775 81.0423 97.8005 81.0703 97.692C81.0983 97.5835 81.1263 97.4575 81.1578 97.342C81.1893 97.2265 81.2068 97.111 81.2278 96.992C81.2488 96.873 81.2733 96.7715 81.2908 96.663V96.6105C81.3118 96.5055 81.3293 96.3935 81.3468 96.2815C81.3643 96.1695 81.3643 96.152 81.3748 96.089V96.019C81.4518 95.459 81.4973 94.871 81.5358 94.234V94.164L81.5743 92.4455V84.273L88.9978 88.62V96.796L88.9593 98.518V98.5845C88.9278 99.2215 88.8788 99.8095 88.8053 100.366V100.439C88.8053 100.506 88.7878 100.569 88.7773 100.635C88.7668 100.702 88.7458 100.856 88.7248 100.961V101.01C88.7073 101.125 88.6863 101.23 88.6653 101.342C88.6443 101.454 88.6163 101.57 88.5883 101.692C88.5603 101.815 88.5358 101.93 88.5078 102.042C88.4798 102.154 88.4483 102.256 88.4203 102.358C88.3923 102.459 88.3433 102.613 88.2978 102.735V102.788C88.2733 102.861 88.2453 102.942 88.2173 103.015C88.1613 103.176 88.0948 103.33 88.0423 103.46L88.0248 103.491L87.9618 103.652C87.8603 103.869 87.7553 104.079 87.6468 104.279L87.6153 104.335C87.5138 104.51 87.4018 104.685 87.2828 104.87C87.2578 104.909 87.2297 104.945 87.1988 104.979V105.003L87.0343 105.182Z" fill="#263238"/>
<path d="M81.5777 119.395L81.5987 112.647L81.4937 112.756C81.8017 112.406 82.0852 112.122 82.3932 111.821L82.4457 111.772L82.5367 111.685L82.5997 111.65C83.1882 111.083 83.8413 110.587 84.5457 110.173L84.6227 110.134H84.6402L84.6927 110.103C84.8607 110.008 85.0427 109.924 85.1932 109.844C85.2387 109.819 85.2877 109.802 85.3332 109.781L85.3822 109.756C85.4942 109.714 85.6132 109.662 85.7322 109.623C85.7952 109.595 85.8547 109.581 85.9107 109.56H85.9387C86.0402 109.536 86.1382 109.508 86.2292 109.49C86.3202 109.473 86.3692 109.462 86.4357 109.455C86.5219 109.449 86.6085 109.449 86.6947 109.455C86.7599 109.452 86.8254 109.452 86.8907 109.455C86.9674 109.462 87.0435 109.475 87.1182 109.494H87.1497L87.2932 109.529C87.3662 109.555 87.4365 109.587 87.5032 109.627C87.5781 109.664 87.6496 109.707 87.7167 109.756C87.7977 109.814 87.8738 109.879 87.9442 109.949C87.984 109.991 88.0214 110.036 88.0562 110.082L88.0807 110.117L88.1017 110.141C88.1379 110.188 88.1718 110.235 88.2032 110.285C88.2477 110.352 88.2874 110.422 88.3222 110.495C88.3572 110.561 88.3887 110.621 88.4167 110.687C88.4447 110.754 88.4867 110.855 88.5217 110.946C88.5567 111.037 88.5672 111.079 88.5882 111.149C88.6092 111.219 88.6477 111.345 88.6757 111.45L88.7177 111.625V111.653C88.7422 111.769 88.7702 111.888 88.7912 112.003C88.7912 112.035 88.7912 112.07 88.7912 112.105V112.147C88.8682 112.64 88.9242 113.197 88.9627 113.851V113.879L89.0012 115.44V123.728L81.5777 119.395Z" fill="#263238"/>
<path d="M77.6368 114.842L70.3113 110.6C69.8248 110.341 69.5413 109.662 69.5413 108.762C69.5722 107.696 69.9073 106.66 70.5073 105.777L70.6473 105.581C70.6123 105.637 70.5703 105.693 70.5353 105.745L77.9833 110.047C77.9638 110.071 77.9462 110.097 77.9308 110.124C77.3288 111.004 76.9934 112.04 76.9648 113.106C76.9648 113.949 77.2238 114.551 77.6368 114.842Z" fill="#263238"/>
<path d="M77.6998 114.866L77.6508 114.838C77.2378 114.548 76.9788 113.946 76.9788 113.116C77.0075 112.05 77.3428 111.015 77.9448 110.134C77.9603 110.108 77.9778 110.082 77.9973 110.057L70.5493 105.756C70.5843 105.703 70.6263 105.647 70.6613 105.591C70.7558 105.469 70.8538 105.353 70.9553 105.241C71.0028 105.186 71.053 105.134 71.1058 105.084C71.1574 105.027 71.2136 104.974 71.2738 104.926C71.4178 104.793 71.5763 104.675 71.7463 104.576C71.8086 104.54 71.8729 104.508 71.9388 104.479L72.0228 104.443H72.0438C72.3532 104.279 72.681 104.15 73.0203 104.062L73.1393 104.034C73.4464 103.972 73.7575 103.931 74.0703 103.911C75.1726 103.873 76.2456 103.546 77.1818 102.963L77.4268 102.812C77.5003 102.77 77.5668 102.725 77.6368 102.676C77.7068 102.627 77.7453 102.609 77.7978 102.574H77.8188L78.0778 102.385L78.3228 102.193L78.3683 102.158L78.4068 102.123L78.4348 102.098L78.5398 102.007C78.5713 101.979 78.6098 101.951 78.6413 101.92C78.6728 101.889 78.7673 101.808 78.8303 101.745L78.9178 101.658L78.9563 101.615L79.1103 101.454C79.1733 101.388 79.2363 101.318 79.2958 101.248L79.3203 101.22L79.4218 101.101C79.4673 101.038 79.5233 100.975 79.5688 100.908L87.0238 105.213L87.1568 105.031V105.007C87.1878 104.973 87.2159 104.937 87.2408 104.898C87.3598 104.716 87.4718 104.548 87.5733 104.363L87.6048 104.307C87.7133 104.107 87.8183 103.897 87.9198 103.681L87.9828 103.519L88.0003 103.488C88.0528 103.358 88.1193 103.204 88.1753 103.043C88.2033 102.97 88.2313 102.889 88.2558 102.816V102.763C88.3013 102.641 88.3398 102.515 88.3783 102.385C88.4168 102.256 88.4343 102.179 88.4658 102.07C88.4973 101.962 88.5218 101.836 88.5463 101.72C88.5708 101.605 88.5988 101.493 88.6233 101.37C88.6478 101.248 88.6653 101.153 88.6828 101.038V100.989C88.7038 100.884 88.7178 100.775 88.7353 100.663C88.7528 100.551 88.7528 100.534 88.7633 100.467V100.394C88.8368 99.8375 88.8858 99.2495 88.9173 98.6125V98.546L88.9558 96.824V88.6235L81.5323 84.2765L84.5773 82.5265L86.1488 81.62L87.5488 80.808L88.0948 80.5C88.2383 80.43 88.3678 80.353 88.5008 80.29C88.9653 80.0354 89.4558 79.8312 89.9638 79.681L90.1178 79.6425C90.2759 79.6048 90.439 79.593 90.6008 79.6075C90.6918 79.6075 90.7408 79.688 90.8108 79.73L98.3218 84C98.394 84.0471 98.456 84.1083 98.5041 84.1799C98.5522 84.2514 98.5854 84.3319 98.6018 84.4165C98.6018 84.476 98.6333 84.546 98.6473 84.6195C98.6613 84.693 98.6683 84.777 98.6788 84.868V85.008C98.6788 85.106 98.6788 85.211 98.6788 85.3265C98.6788 85.442 98.6788 85.5645 98.6788 85.6975C98.6788 86.03 98.6788 86.331 98.6368 86.618C98.6368 86.6915 98.6368 86.7615 98.6368 86.8315C98.6368 86.9015 98.6368 86.968 98.6123 87.038C98.5878 87.108 98.6123 87.171 98.5808 87.241C98.5493 87.311 98.5633 87.374 98.5528 87.4405C98.5283 87.57 98.5073 87.696 98.4828 87.829C98.4583 87.962 98.4268 88.0845 98.4023 88.2105C98.3988 88.2195 98.3988 88.2295 98.4023 88.2385C99.0045 86.8914 99.3295 85.4368 99.3578 83.9615C99.3578 83.755 99.3578 83.5485 99.3368 83.3735C99.3016 82.251 99.0865 81.1414 98.6998 80.087C98.3674 79.2135 98.2047 78.2845 98.2203 77.35C98.2203 75.621 98.2203 74.669 101.888 72.5585L107.877 69.1285L115.325 73.43V103.901C115.325 106.438 113.778 109.396 111.877 110.495L89.0223 123.69V115.409L88.9838 113.848V113.82C88.9453 113.173 88.8893 112.609 88.8123 112.115V112.073C88.8123 112.038 88.8123 112.004 88.8123 111.972C88.7913 111.846 88.7633 111.727 88.7388 111.622V111.594L88.6968 111.419C88.6688 111.314 88.6443 111.216 88.6093 111.118C88.5743 111.02 88.5673 110.981 88.5428 110.915C88.5183 110.848 88.4763 110.736 88.4378 110.656C88.3993 110.575 88.3783 110.53 88.3433 110.463C88.3086 110.391 88.2688 110.321 88.2243 110.253C88.193 110.204 88.1591 110.156 88.1228 110.11L88.1018 110.085L88.0773 110.05C88.0426 110.004 88.0052 109.96 87.9653 109.917C87.8949 109.847 87.8188 109.783 87.7378 109.725C87.6708 109.675 87.5993 109.632 87.5243 109.595C87.4577 109.556 87.3874 109.523 87.3143 109.497L87.1708 109.462H87.1393C87.0647 109.443 86.9886 109.431 86.9118 109.424C86.8465 109.421 86.7811 109.421 86.7158 109.424C86.6296 109.417 86.543 109.417 86.4568 109.424C86.3903 109.424 86.3238 109.445 86.2503 109.459C86.1768 109.473 86.0613 109.504 85.9598 109.529H85.9318C85.8758 109.55 85.8163 109.564 85.7533 109.592C85.6343 109.63 85.5153 109.683 85.4033 109.725L85.3543 109.749C85.3088 109.77 85.2598 109.788 85.2143 109.812C85.0463 109.893 84.8818 109.977 84.7138 110.071L84.6613 110.103H84.6438L84.5668 110.141C83.8535 110.564 83.1931 111.071 82.5998 111.65L82.5543 111.692L82.4633 111.779L82.4108 111.828C82.1028 112.129 81.8193 112.43 81.5113 112.763C80.9114 113.466 80.2191 114.084 79.4533 114.6C79.3623 114.663 79.2818 114.723 79.2048 114.765C79.0001 114.892 78.7712 114.974 78.5328 115.006C78.386 115.035 78.2351 115.035 78.0883 115.006C77.9515 114.983 77.8199 114.936 77.6998 114.866Z" fill="#37474F"/>
<path d="M89.0258 88.62L81.6023 84.273L84.6473 82.523L86.2188 81.6165L87.6188 80.8045L88.1648 80.4965C88.3083 80.4265 88.4378 80.3495 88.5708 80.2865C89.0353 80.0319 89.5258 79.8277 90.0338 79.6775L90.1878 79.639C90.3458 79.6013 90.509 79.5895 90.6708 79.604C90.7618 79.604 90.8108 79.6845 90.8808 79.7265L98.3008 84C98.2745 83.9853 98.2462 83.9747 98.2168 83.9685C98.181 83.9506 98.1413 83.9422 98.1013 83.944C97.9853 83.9266 97.8673 83.9266 97.7513 83.944C97.6527 83.956 97.5555 83.9771 97.4608 84.007C96.6125 84.2835 95.8015 84.6632 95.0458 85.1375L93.6458 85.9495L92.0708 86.8595L89.0258 88.62Z" fill="black"/>
<path d="M98.6297 96.9255C97.9297 96.2255 97.5797 95.046 97.5797 93.6215C97.5761 93.417 97.5843 93.2125 97.6042 93.009C97.6042 93.009 97.6042 93.009 97.6042 92.9845C97.6042 92.6345 97.6392 92.309 97.6777 91.9345C97.6777 91.8295 97.7022 91.728 97.7162 91.623C97.7407 91.406 97.7722 91.1925 97.8072 90.993C97.8422 90.7935 97.8702 90.622 97.9052 90.4435C97.9262 90.349 97.9437 90.258 97.9612 90.1705C98.0452 89.782 98.1327 89.3935 98.2342 88.977C98.3007 88.7145 98.3602 88.4625 98.4162 88.2105C99.0145 86.8722 99.3371 85.4272 99.3647 83.9615C99.3647 83.755 99.3647 83.552 99.3402 83.377C99.3068 82.2523 99.0929 81.1403 98.7067 80.0835C98.3755 79.2108 98.2128 78.2833 98.2272 77.35C98.2272 75.6245 98.2272 74.6725 101.895 72.555L107.884 69.1285L115.332 73.43L109.319 76.902C105.651 79.002 105.651 79.9715 105.651 81.697C105.632 82.6317 105.795 83.5612 106.13 84.434C106.513 85.4904 106.727 86.6008 106.764 87.724C106.764 87.899 106.788 88.102 106.785 88.305C106.785 91.6895 104.723 95.6375 102.179 97.1005C100.8 97.902 99.5082 97.8355 98.6297 96.9255Z" fill="black"/>
<path d="M77.9832 110.061L70.5352 105.76C70.5702 105.707 70.6122 105.651 70.6472 105.595C70.7417 105.473 70.8397 105.357 70.9412 105.245C70.9886 105.19 71.0389 105.137 71.0917 105.088C71.1432 105.03 71.1994 104.978 71.2597 104.93C71.4037 104.796 71.5622 104.679 71.7322 104.58C71.7945 104.544 71.8587 104.511 71.9247 104.482L72.0087 104.45H72.0297C72.3391 104.286 72.6668 104.157 73.0062 104.069L73.1252 104.041C73.4323 103.979 73.7433 103.938 74.0562 103.919C75.1585 103.88 76.2314 103.553 77.1677 102.97L77.4127 102.819C77.4862 102.777 77.5527 102.732 77.6227 102.683C77.6773 102.651 77.7299 102.616 77.7802 102.578H77.8012L78.0602 102.389L78.3087 102.196L78.3507 102.162L78.3892 102.127L78.4207 102.102L78.5222 102.011C78.5537 101.983 78.5922 101.955 78.6237 101.923C78.6552 101.892 78.7497 101.811 78.8127 101.748L78.9002 101.661C78.9123 101.646 78.9265 101.633 78.9422 101.623L79.0927 101.458C79.1557 101.392 79.2187 101.322 79.2782 101.252L79.3027 101.223L79.4042 101.104C79.4497 101.041 79.5057 100.979 79.5512 100.912L87.0097 105.217L86.9782 105.252C86.9292 105.322 86.8767 105.388 86.8242 105.458C86.7717 105.528 86.7577 105.532 86.7262 105.571L86.6982 105.598C86.5862 105.728 86.4742 105.851 86.3482 105.966L86.2782 106.036C86.2607 106.057 86.2397 106.075 86.2257 106.096L86.0332 106.271L85.8302 106.446L85.8022 106.473L85.7147 106.54C85.5537 106.676 85.3857 106.802 85.2142 106.925C85.2142 106.925 85.1932 106.925 85.1757 106.95C84.9795 107.089 84.7762 107.219 84.5667 107.338L84.3497 107.45L84.0942 107.579C83.5249 107.876 82.9115 108.078 82.2777 108.178L81.9557 108.22H81.7947L81.4972 108.248C81.0539 108.264 80.6148 108.339 80.1917 108.472C80.0622 108.514 79.9257 108.566 79.7752 108.629C79.6807 108.671 79.5757 108.721 79.4707 108.777L79.3832 108.812C79.3169 108.84 79.2526 108.873 79.1907 108.91C79.0197 109.012 78.8581 109.129 78.7077 109.26C78.6538 109.305 78.6024 109.352 78.5537 109.403C78.5012 109.452 78.4487 109.508 78.3997 109.564C78.3337 109.629 78.2729 109.699 78.2177 109.774C78.1787 109.818 78.1425 109.865 78.1092 109.914C78.0497 109.981 78.0112 110.019 77.9832 110.061Z" fill="black"/>
</g>
<mask id="mask1_1142_164" style="mask-type:luminance" maskUnits="userSpaceOnUse" x="79" y="32" width="37" height="66">
<path d="M86.6145 86.8V78.75L86.695 76.3V76.251C86.695 76.1915 86.695 76.1355 86.695 76.083V76.0025C86.695 75.845 86.723 75.6945 86.7405 75.5475C86.7444 75.4723 86.7538 75.3974 86.7685 75.3235V75.2535C86.7685 75.11 86.8035 74.9665 86.821 74.83C86.8385 74.6935 86.849 74.641 86.8665 74.5535C86.8945 74.3995 86.9155 74.249 86.947 74.102V74.053C86.947 73.9935 86.9715 73.9305 86.9855 73.871C87.0275 73.668 87.08 73.472 87.129 73.276C87.129 73.276 87.129 73.2375 87.1465 73.206C87.206 72.9855 87.283 72.758 87.36 72.534L87.3915 72.4395C87.4615 72.2505 87.542 72.065 87.6155 71.883C87.6155 71.848 87.6505 71.806 87.6715 71.7675V71.7395C87.752 71.5715 87.8325 71.3895 87.9235 71.2355L87.9935 71.1165C88.0994 70.9267 88.2163 70.7432 88.3435 70.567C88.6157 70.1698 88.9238 69.7984 89.264 69.4575L89.292 69.4295C89.4355 69.2895 89.6 69.139 89.775 68.9955L89.81 68.9605C90.1799 68.6602 90.5732 68.3899 90.986 68.152C91.429 67.8884 91.8982 67.6714 92.386 67.5045C92.6313 67.4235 92.8815 67.358 93.135 67.3085C93.4524 67.2545 93.7726 67.2183 94.094 67.2C94.8023 67.1819 95.4969 67.0011 96.124 66.6715H96.1415C96.2362 66.6326 96.3285 66.5882 96.418 66.5385C97.0853 66.1092 97.6208 65.5035 97.965 64.7885C98.0693 64.5924 98.1617 64.3902 98.2415 64.183C98.4781 63.6014 98.6027 62.9804 98.609 62.3525C98.609 62.2475 98.609 62.146 98.609 62.048C98.6113 62.0212 98.6113 61.9943 98.609 61.9675C98.6064 61.8993 98.5983 61.8314 98.5845 61.7645C98.5845 61.733 98.5845 61.712 98.5845 61.684C98.5845 61.656 98.5565 61.558 98.5425 61.5055C98.5285 61.453 98.525 61.4565 98.518 61.4355C98.511 61.4145 98.4795 61.32 98.455 61.264L98.4305 61.215C98.4086 61.159 98.3817 61.1051 98.35 61.054C98.3447 61.0406 98.3363 61.0286 98.3255 61.019C98.294 60.9665 98.259 60.9175 98.2205 60.865C98.182 60.8125 98.2205 60.865 98.203 60.844L98.07 60.711C98.0201 60.6686 97.9661 60.6311 97.909 60.599L94.7275 58.765C94.2207 59.2199 93.7382 59.7013 93.282 60.207C92.6385 60.975 91.8736 61.6324 91.0175 62.153C90.468 62.468 90.0165 62.7305 89.691 62.5415L86.6145 60.7635C86.5935 60.0635 86.5935 59.304 86.6145 58.499V51.7195L79.1665 47.4215L105.7 32.0775L115.357 37.6495L115.339 73.437L109.323 76.909C105.658 79.009 105.658 79.9785 105.658 81.704C105.641 82.6383 105.802 83.5674 106.134 84.441C106.522 85.4963 106.737 86.6072 106.771 87.731C106.771 87.9025 106.792 88.109 106.796 88.3155C106.745 90.2514 106.208 92.1434 105.235 93.8175L99.1375 97.335C98.9517 97.219 98.7802 97.0815 98.6265 96.9255C97.9475 96.2255 97.5765 95.0495 97.5765 93.625C97.5765 93.4325 97.5765 93.2295 97.6045 93.0055C97.6045 93.0055 97.6045 93.0055 97.6045 92.9845C97.6045 92.6345 97.636 92.309 97.678 91.9345C97.678 91.833 97.7025 91.7245 97.7165 91.623C97.741 91.4025 97.7725 91.1925 97.8075 90.993C97.8425 90.7935 97.8705 90.622 97.9055 90.4435C97.9265 90.349 97.944 90.258 97.9615 90.1705C98.042 89.782 98.133 89.3935 98.238 88.977C98.5374 87.9078 98.6963 86.8042 98.7105 85.694C98.7105 84.644 98.6195 84.1715 98.3325 84.0035L94.885 82.012L89.0225 85.4L86.6145 86.8Z" fill="white"/>
</mask>
<g mask="url(#mask1_1142_164)">
<path d="M100.744 94.0065L93.2784 89.6945C93.2434 89.6767 93.2095 89.6569 93.1769 89.635C92.7604 89.32 92.5679 88.6655 92.5679 87.885C92.5601 87.7591 92.5601 87.6329 92.5679 87.507V87.4615C92.6209 86.4516 92.7841 85.4505 93.0544 84.476C93.1734 83.9755 93.2994 83.426 93.4044 82.8625L95.0214 81.928L95.0844 81.893L95.1229 81.872L96.3969 81.1895L96.4319 81.172C96.8323 80.9726 97.2463 80.8018 97.6709 80.661H97.7199L97.8844 80.6085C97.9496 80.5873 98.0163 80.5709 98.0839 80.5595H98.1224C98.1994 80.5385 98.2799 80.5175 98.3604 80.5035L98.5704 80.4755C98.6509 80.4755 98.7349 80.4755 98.8154 80.4755C98.8959 80.4755 98.9414 80.4755 99.0009 80.4755C99.0844 80.4769 99.1676 80.4863 99.2494 80.5035H99.2809L99.3999 80.5245C99.4966 80.5504 99.5913 80.5832 99.6834 80.6225L99.7674 80.6575C100.017 80.7905 100.232 80.9813 100.394 81.214C100.408 81.234 100.421 81.2551 100.432 81.277C100.509 81.3871 100.575 81.5043 100.628 81.627C100.628 81.6515 100.653 81.6795 100.663 81.7005V81.725C100.716 81.8545 100.761 81.9945 100.807 82.1415L100.835 82.2535C100.881 82.4248 100.916 82.599 100.94 82.775L100.957 82.8555C101.025 83.353 101.057 83.8549 101.052 84.357C101.038 85.8806 100.826 87.3959 100.422 88.865C100.155 89.8412 99.9926 90.8433 99.9389 91.854V91.896C99.9389 92.057 99.9214 92.1725 99.9214 92.2775C99.9214 93.058 100.149 93.6565 100.562 93.9715L100.744 94.0065Z" fill="#005F31"/>
<path d="M89.0226 85.4L81.6026 81.0565V73.0275C81.5777 71.8496 81.6526 70.6717 81.8266 69.5065C82.0856 68.075 82.4776 67.641 83.6046 66.99C84.2857 66.5708 85.066 66.3401 85.8656 66.3215C86.1281 66.3005 86.3766 66.276 86.6286 66.2375L86.8281 66.2025L87.1781 66.129C87.3216 66.087 87.4756 66.045 87.6366 65.989C87.7033 65.9698 87.7688 65.9464 87.8326 65.919C88.089 65.8254 88.3392 65.7155 88.5816 65.59L88.6131 65.5725C88.7642 65.5115 88.9105 65.4389 89.0506 65.3555C90.4296 64.561 91.7246 62.9965 92.5996 61.0715C92.6591 60.9455 92.7081 60.8195 92.7606 60.697L92.5751 60.8825C92.8131 60.648 93.0441 60.396 93.2751 60.137C94.0773 59.2132 94.9975 58.3989 96.0121 57.715C96.1553 57.6073 96.3062 57.5102 96.4636 57.4245C99.0011 55.9545 101.07 57.519 101.07 60.9C101.04 62.4631 100.683 64.0026 100.02 65.4185C99.1411 67.347 97.8461 68.9185 96.4671 69.706C96.3262 69.7869 96.18 69.8582 96.0296 69.9195C96.0193 69.9227 96.0083 69.9227 95.9981 69.9195C95.7555 70.0507 95.5054 70.1676 95.2491 70.2695L95.0531 70.3395C94.9026 70.3916 94.7496 70.436 94.5946 70.4725C94.4721 70.504 94.3601 70.5285 94.2446 70.5495L94.0416 70.5845C93.7931 70.6195 93.5411 70.651 93.2786 70.6685C92.4798 70.6851 91.7001 70.9159 91.0211 71.337C89.8941 71.9845 89.4986 72.4185 89.2431 73.85C89.0662 75.0173 88.9889 76.1976 89.0121 77.378V82.663L89.0226 85.4Z" fill="#005F31"/>
<path d="M89.705 62.4715L82.25 58.1595C81.8125 57.8935 81.613 56.7875 81.613 54.0085L81.5815 46.0285L89.0295 50.33V58.352C89.0295 61.152 89.264 62.2195 89.7085 62.468L89.705 62.4715Z" fill="#005F31"/>
<path opacity="0.2" d="M100.744 94.0065L93.2784 89.6945C93.2434 89.6767 93.2095 89.6569 93.1769 89.635C92.7604 89.32 92.5679 88.6655 92.5679 87.885C92.5601 87.7591 92.5601 87.6329 92.5679 87.507V87.4615C92.6209 86.4516 92.7841 85.4505 93.0544 84.476C93.1734 83.9755 93.2994 83.426 93.4044 82.8625L95.0214 81.928L95.0844 81.893L95.1229 81.872L96.3969 81.1895L96.4319 81.172C96.8323 80.9726 97.2463 80.8018 97.6709 80.661H97.7199L97.8844 80.6085C97.9496 80.5873 98.0163 80.5709 98.0839 80.5595H98.1224C98.1994 80.5385 98.2799 80.5175 98.3604 80.5035L98.5704 80.4755C98.6509 80.4755 98.7349 80.4755 98.8154 80.4755C98.8959 80.4755 98.9414 80.4755 99.0009 80.4755C99.0844 80.4769 99.1676 80.4863 99.2494 80.5035H99.2809L99.3999 80.5245C99.4966 80.5504 99.5913 80.5832 99.6834 80.6225L99.7674 80.6575C100.017 80.7905 100.232 80.9813 100.394 81.214C100.408 81.234 100.421 81.2551 100.432 81.277C100.509 81.3871 100.575 81.5043 100.628 81.627C100.628 81.6515 100.653 81.6795 100.663 81.7005V81.725C100.716 81.8545 100.761 81.9945 100.807 82.1415L100.835 82.2535C100.881 82.4248 100.916 82.599 100.94 82.775L100.957 82.8555C101.025 83.353 101.057 83.8549 101.052 84.357C101.038 85.8806 100.826 87.3959 100.422 88.865C100.155 89.8412 99.9926 90.8433 99.9389 91.854V91.896C99.9389 92.057 99.9214 92.1725 99.9214 92.2775C99.9214 93.058 100.149 93.6565 100.562 93.9715L100.744 94.0065Z" fill="black"/>
<path opacity="0.2" d="M89.0226 85.4L81.6026 81.0565V73.0275C81.5777 71.8496 81.6526 70.6717 81.8266 69.5065C82.0856 68.075 82.4776 67.641 83.6046 66.99C84.2857 66.5708 85.066 66.3401 85.8656 66.3215C86.1281 66.3005 86.3766 66.276 86.6286 66.2375L86.8281 66.2025L87.1781 66.129C87.3216 66.087 87.4756 66.045 87.6366 65.989C87.7033 65.9698 87.7688 65.9464 87.8326 65.919C88.089 65.8254 88.3392 65.7155 88.5816 65.59L88.6131 65.5725C88.7642 65.5115 88.9105 65.4389 89.0506 65.3555C90.4296 64.561 91.7246 62.9965 92.5996 61.0715C92.6591 60.9455 92.7081 60.8195 92.7606 60.697L92.5751 60.8825C92.8131 60.648 93.0441 60.396 93.2751 60.137C94.0773 59.2132 94.9975 58.3989 96.0121 57.715C96.1553 57.6073 96.3062 57.5102 96.4636 57.4245C99.0011 55.9545 101.07 57.519 101.07 60.9C101.04 62.4631 100.683 64.0026 100.02 65.4185C99.1411 67.347 97.8461 68.9185 96.4671 69.706C96.3262 69.7869 96.18 69.8582 96.0296 69.9195C96.0193 69.9227 96.0083 69.9227 95.9981 69.9195C95.7555 70.0507 95.5054 70.1676 95.2491 70.2695L95.0531 70.3395C94.9026 70.3916 94.7496 70.436 94.5946 70.4725C94.4721 70.504 94.3601 70.5285 94.2446 70.5495L94.0416 70.5845C93.7931 70.6195 93.5411 70.651 93.2786 70.6685C92.4798 70.6851 91.7001 70.9159 91.0211 71.337C89.8941 71.9845 89.4986 72.4185 89.2431 73.85C89.0662 75.0173 88.9889 76.1976 89.0121 77.378V82.663L89.0226 85.4Z" fill="black"/>
<path opacity="0.2" d="M89.705 62.4715L82.25 58.1595C81.8125 57.8935 81.613 56.7875 81.613 54.0085L81.5815 46.0285L89.0295 50.33V58.352C89.0295 61.152 89.264 62.2195 89.7085 62.468L89.705 62.4715Z" fill="black"/>
<path d="M100.8 94.0415L100.744 94.01L100.625 93.933C100.212 93.618 99.9846 93.0195 99.9846 92.239C99.9846 92.134 99.9846 92.0185 100.002 91.8575V91.8155C100.056 90.8048 100.218 89.8027 100.485 88.8265C100.889 87.3574 101.101 85.8421 101.115 84.3185C101.12 83.8164 101.089 83.3145 101.021 82.817L101.003 82.7365C100.98 82.5605 100.945 82.3863 100.898 82.215L100.87 82.103C100.825 81.956 100.779 81.816 100.727 81.6865V81.662C100.727 81.641 100.706 81.613 100.692 81.5885C100.638 81.4658 100.572 81.3486 100.496 81.2385C100.484 81.2166 100.471 81.1955 100.457 81.1755C100.296 80.9428 100.081 80.752 99.8306 80.619L99.7466 80.584C99.6546 80.5447 99.5598 80.5119 99.4631 80.486L99.3441 80.465H99.3126C99.2309 80.4478 99.1477 80.4384 99.0641 80.437C99.0046 80.437 98.9416 80.437 98.8786 80.437C98.8156 80.437 98.7141 80.437 98.6336 80.437L98.4236 80.465C98.3431 80.465 98.2626 80.5 98.1856 80.521H98.1471C98.0795 80.5324 98.0128 80.5488 97.9476 80.57L97.7831 80.6225H97.7341C97.3095 80.7633 96.8955 80.9341 96.4951 81.1335L96.4601 81.151L95.1861 81.8335L95.1476 81.8545L95.0846 81.8895L93.4676 82.824L89.0226 85.4V82.6595V77.3745C88.9985 76.1953 89.0746 75.0163 89.2501 73.85C89.5056 72.4185 89.9011 71.9845 91.0281 71.337C91.7071 70.9159 92.4868 70.6851 93.2856 70.6685C93.5481 70.6685 93.8001 70.6195 94.0486 70.5845L94.2516 70.5495C94.3671 70.5285 94.4791 70.504 94.6016 70.4725C94.7566 70.436 94.9097 70.3916 95.0601 70.3395L95.2561 70.2695C95.5124 70.1676 95.7625 70.0507 96.0051 69.9195C96.0154 69.9227 96.0264 69.9227 96.0366 69.9195C96.1871 69.8582 96.3332 69.7869 96.4741 69.706C97.8531 68.9045 99.1481 67.347 100.027 65.4185C100.69 64.0026 101.047 62.4631 101.077 60.9C101.077 57.519 99.0081 55.9545 96.4706 57.4245C96.3133 57.5102 96.1624 57.6073 96.0191 57.715C95.0046 58.3989 94.0844 59.2132 93.2821 60.137C93.0406 60.396 92.8096 60.648 92.5821 60.8825C92.2123 61.2531 91.8067 61.586 91.3711 61.8765L91.2136 61.9745L91.0316 62.083C90.8216 62.202 90.6326 62.314 90.4541 62.3945L90.2826 62.4645C90.2312 62.4868 90.1771 62.5021 90.1216 62.51C90.0731 62.5264 90.0223 62.5347 89.9711 62.5345C89.878 62.5375 89.7859 62.5145 89.7051 62.468C89.2606 62.2195 89.0261 61.159 89.0261 58.352V50.33L81.5781 46.0285L104.461 32.7915C104.545 32.746 104.622 32.7005 104.706 32.662C104.78 32.6235 104.858 32.5907 104.937 32.564L105.168 32.4905C105.24 32.4664 105.314 32.4488 105.389 32.438C105.482 32.4208 105.577 32.4103 105.672 32.4065C106.056 32.3893 106.436 32.4907 106.761 32.697L114.111 36.9355C114.338 37.0603 114.537 37.2307 114.695 37.436C114.75 37.5064 114.8 37.5801 114.846 37.6565C114.879 37.7073 114.909 37.7599 114.937 37.814C114.993 37.926 115.045 38.0415 115.094 38.164C115.112 38.227 115.136 38.29 115.154 38.3565C115.285 38.8112 115.348 39.2832 115.339 39.7565V70.2275L109.323 73.6995L109.214 73.7695L109.141 73.8115H109.123L107.93 74.55C107.454 74.8623 106.997 75.2024 106.561 75.5685L106.53 75.593L106.46 75.6525L106.148 75.9325L106.124 75.9605C106.078 75.999 106.033 76.0445 105.991 76.0865C105.949 76.1285 105.805 76.2685 105.718 76.363C105.63 76.4575 105.599 76.4855 105.546 76.5485C105.494 76.6115 105.375 76.7375 105.294 76.8355L105.13 77.042L104.899 77.35L104.773 77.5355L104.745 77.5845L104.713 77.6335C104.654 77.721 104.591 77.812 104.535 77.9065C104.479 78.001 104.458 78.043 104.423 78.113L104.395 78.169C104.286 78.365 104.181 78.5715 104.087 78.7815L104.066 78.834C104.024 78.9215 103.985 79.0125 103.95 79.1C103.919 79.191 103.884 79.282 103.852 79.3765L103.824 79.4465L103.719 79.7685C103.684 79.884 103.653 79.9995 103.621 80.1185C103.59 80.2375 103.562 80.3565 103.534 80.4685C103.506 80.5805 103.485 80.703 103.464 80.8185C103.443 80.934 103.418 81.074 103.401 81.2035V81.2245C103.401 81.333 103.366 81.4415 103.355 81.55C103.345 81.6585 103.327 81.823 103.313 81.977V82.061C103.313 82.1415 103.313 82.222 103.296 82.3025C103.296 82.474 103.296 82.6525 103.296 82.9045V82.95C103.296 82.992 103.296 83.0375 103.296 83.0795C103.27 84.3688 103.483 85.6516 103.926 86.863C104.219 87.6479 104.382 88.4755 104.409 89.313V89.3515C104.409 89.4635 104.426 89.579 104.43 89.6735C104.43 91.287 103.443 93.1735 102.232 93.8735C102.011 94.0086 101.764 94.0956 101.507 94.129C101.455 94.1341 101.402 94.1341 101.35 94.129H101.325C101.293 94.1344 101.26 94.1344 101.227 94.129C101.198 94.1343 101.169 94.1343 101.14 94.129L101.07 94.1115L100.986 94.087C100.963 94.0829 100.942 94.0746 100.923 94.0625C100.881 94.0678 100.838 94.0605 100.8 94.0415Z" fill="#005F31"/>
<path opacity="0.3" d="M89.0225 50.33L81.5745 46.0285L104.457 32.7915C104.541 32.746 104.618 32.7005 104.702 32.662C104.777 32.6235 104.854 32.5907 104.933 32.564L105.164 32.4905C105.236 32.4664 105.31 32.4488 105.385 32.438C105.479 32.4208 105.573 32.4103 105.668 32.4065C106.053 32.3893 106.433 32.4907 106.757 32.697L114.023 36.897C113.96 36.8638 113.893 36.838 113.823 36.82C113.808 36.8157 113.792 36.8099 113.778 36.8025C113.714 36.7807 113.649 36.7655 113.582 36.757H113.515C113.472 36.7515 113.429 36.7515 113.386 36.757H113.26C113.25 36.7552 113.239 36.7552 113.228 36.757C113.168 36.7517 113.107 36.7517 113.046 36.757L112.906 36.778C112.811 36.7897 112.717 36.8108 112.626 36.841L112.486 36.883L112.213 36.9915C112.108 37.0405 112.003 37.0965 111.891 37.1595L89.0225 50.33Z" fill="white"/>
</g>
<mask id="mask2_1142_164" style="mask-type:luminance" maskUnits="userSpaceOnUse" x="52" y="47" width="47" height="55">
<path d="M60.3049 101.987L52.8499 97.6885L52.8779 67.1615C52.9049 65.9471 53.1951 64.7529 53.7284 63.6615C54.3619 62.3245 55.2929 61.173 56.3324 60.571L79.1594 47.425L86.6074 51.723V58.4325V60.697L89.6804 62.4715C90.0129 62.664 90.4574 62.405 91.0104 62.0865C91.8664 61.5659 92.6314 60.9085 93.2749 60.1405C93.731 59.6348 94.2135 59.1534 94.7204 58.6985L97.9019 60.5325C97.9267 60.5452 97.9502 60.5604 97.9719 60.578C97.9757 60.5761 97.9799 60.5752 97.9841 60.5752C97.9883 60.5752 97.9925 60.5761 97.9963 60.578C98.0247 60.5942 98.0506 60.6142 98.0733 60.6375C98.1865 60.7368 98.2813 60.8553 98.3534 60.9875C98.3798 61.0228 98.401 61.0617 98.4164 61.103C98.4337 61.1329 98.4478 61.1646 98.4584 61.1975C98.5182 61.3357 98.5628 61.4801 98.5914 61.628C98.5933 61.6513 98.5933 61.6747 98.5914 61.698C98.5914 61.7855 98.6193 61.8835 98.6298 61.9815C98.6404 62.0795 98.6298 62.181 98.6298 62.286C98.6352 62.3839 98.6352 62.4821 98.6298 62.58C98.6298 62.685 98.6124 62.7865 98.5984 62.8845C98.5844 62.9825 98.5669 63.0875 98.5494 63.189C98.5319 63.2905 98.5179 63.343 98.4969 63.42C98.4847 63.4756 98.4695 63.5305 98.4514 63.5845C98.343 63.9796 98.1904 64.3612 97.9963 64.722C97.6521 65.437 97.1167 66.0427 96.4494 66.472C96.3599 66.5217 96.2675 66.5661 96.1729 66.605H96.1554C95.5282 66.9346 94.8336 67.1154 94.1254 67.1335C93.9014 67.1335 93.6739 67.1685 93.4254 67.2035L93.1699 67.242C92.5579 67.3636 91.9678 67.5772 91.4199 67.8755C91.3534 67.907 91.2904 67.9385 91.2309 67.9735L91.0314 68.0855C90.6185 68.3234 90.2253 68.5937 89.8554 68.894L89.8204 68.929C89.6454 69.0725 89.4704 69.223 89.3374 69.363L89.3094 69.391C88.9692 69.7319 88.6611 70.1033 88.3889 70.5005C88.2616 70.6767 88.1448 70.8602 88.0388 71.05L87.9689 71.169C87.8779 71.337 87.7974 71.519 87.7169 71.673V71.701C87.6959 71.7395 87.6784 71.7815 87.6609 71.8165C87.5874 71.9985 87.5069 72.184 87.4369 72.373L87.4053 72.4675C87.3284 72.6915 87.2514 72.919 87.1919 73.1395C87.1919 73.171 87.1744 73.199 87.1744 73.2095C87.1254 73.4055 87.0729 73.6015 87.0309 73.8045C87.0309 73.864 87.0064 73.927 86.9924 73.9865V74.0355C86.9609 74.1825 86.9399 74.333 86.9119 74.487C86.9119 74.5745 86.8804 74.669 86.8664 74.7635C86.8524 74.858 86.8279 75.0435 86.8139 75.187V75.257C86.7991 75.3309 86.7898 75.4058 86.7859 75.481C86.7859 75.628 86.7544 75.7785 86.7404 75.936V76.0165C86.7404 76.069 86.7404 76.125 86.7404 76.1845V76.2335L86.6599 78.6835V86.7335L84.5599 87.9515L83.8914 88.34L82.5719 89.0925L80.6504 90.2055C79.3134 90.979 78.3894 91.371 77.8154 91.4165C77.727 91.4274 77.6377 91.4274 77.5494 91.4165C77.4896 91.4035 77.4319 91.3823 77.3779 91.3535L74.6374 89.7505C74.6358 89.7389 74.6358 89.7271 74.6374 89.7155C74.6689 89.3655 74.7109 89.0155 74.7599 88.7005C74.7914 88.4975 74.8264 88.3015 74.8649 88.1195C74.9664 87.5455 75.0959 87.031 75.2149 86.541C75.4864 85.567 75.6472 84.5655 75.6944 83.5555V83.5345V83.5065C75.6944 83.342 75.6944 83.2335 75.7119 83.132C75.7119 82.3515 75.4809 81.7495 75.0679 81.438C75.0477 81.4228 75.0266 81.4088 75.0049 81.396L74.9489 81.3645L71.8864 79.597C71.0376 80.5372 70.3536 81.614 69.8634 82.782C69.7969 82.943 69.7304 83.104 69.6709 83.258C69.6114 83.412 69.5484 83.5835 69.4959 83.748L69.4714 83.818C69.4154 83.9825 69.3664 84.147 69.3174 84.3115C69.2684 84.476 69.2264 84.644 69.1879 84.8085C69.1494 84.973 69.1354 85.036 69.1109 85.1585C69.0864 85.281 69.0654 85.386 69.0514 85.5085C69.0085 85.74 68.9781 85.9737 68.9604 86.2085C68.9429 86.3345 68.9324 86.464 68.9254 86.59C68.9184 86.716 68.9079 86.9155 68.9079 87.073C68.9079 87.2305 68.9079 87.283 68.9079 87.3845C68.9079 87.486 68.9079 87.577 68.9289 87.6645C68.9289 87.815 68.9289 87.955 68.9534 88.0915C68.9719 88.4083 69.0081 88.7238 69.0619 89.0365C69.0619 89.1625 69.1004 89.285 69.1249 89.3865C69.236 89.911 69.381 90.4277 69.5589 90.9335C69.7724 91.4974 69.9169 92.0849 69.9894 92.6835V92.75V92.8025V92.876C70.0104 93.135 70.0209 93.3905 70.0209 93.6565C70.0209 95.382 70.0209 96.334 66.3529 98.4515L60.3049 101.987Z" fill="white"/>
</mask>
<g mask="url(#mask2_1142_164)">
<path d="M77.3114 91.4095L69.8879 87.0555C69.5974 86.884 69.5064 86.4045 69.5064 85.3685C69.5077 84.5148 69.6099 83.6642 69.8109 82.8345C69.5872 83.3499 69.3978 83.8796 69.2439 84.42C69.9439 81.8475 71.5784 79.401 73.4439 78.316C74.6724 77.616 75.8274 77.5775 76.6989 78.2355C77.5704 78.8935 78.0499 80.15 78.0499 81.795C78.0499 81.9525 78.0499 82.1065 78.0324 82.2465V82.3235C78.0324 82.362 78.0324 82.4005 78.0324 82.439C78.0324 82.789 77.9904 83.139 77.9519 83.5065C77.9484 83.5652 77.9413 83.6236 77.9309 83.6815V83.734C77.8994 83.9825 77.8679 84.224 77.8294 84.4655C77.8014 84.609 77.7734 84.7525 77.7489 84.8925C77.7244 85.0325 77.6929 85.176 77.6649 85.316C77.5879 85.666 77.5004 86.0475 77.4094 86.429C77.1058 87.4987 76.9446 88.6037 76.9299 89.7155C76.9264 90.7585 76.9999 91.238 77.3114 91.4095Z" fill="#005F31"/>
<path d="M60.3049 101.987L52.8499 97.6885L52.8779 67.165C52.9024 65.9502 53.1927 64.7556 53.7284 63.665L61.1694 67.9595C60.622 69.0655 60.3244 70.2783 60.2979 71.512L60.3049 101.987Z" fill="#005F31"/>
<path d="M77.3113 91.4095L69.8878 87.0555C69.5973 86.884 69.5063 86.4045 69.5063 85.3685C69.5076 84.5148 69.6098 83.6642 69.8109 82.8345C70.6509 80.885 71.9704 79.1735 73.4579 78.316C74.6864 77.616 75.8413 77.5775 76.7128 78.2355C77.5843 78.8935 78.0498 80.15 78.0498 81.795C78.0498 81.9525 78.0498 82.1065 78.0323 82.2465V82.3235C78.0323 82.362 78.0323 82.4005 78.0323 82.439C78.0323 82.789 77.9903 83.139 77.9518 83.5065C77.9483 83.5652 77.9413 83.6236 77.9309 83.6815V83.734C77.8994 83.9825 77.8678 84.224 77.8293 84.4655C77.8013 84.609 77.7733 84.7525 77.7488 84.8925C77.7243 85.0325 77.6928 85.176 77.6648 85.316C77.5878 85.666 77.5003 86.0475 77.4093 86.429C77.1058 87.4987 76.9445 88.6037 76.9299 89.7155C76.9264 90.7585 76.9998 91.238 77.3113 91.4095Z" fill="#263238"/>
<path d="M60.3049 101.987L52.8499 97.6885L52.8779 67.165C52.9024 65.9502 53.1927 64.7556 53.7284 63.665L61.1694 67.9595C60.622 69.0655 60.3244 70.2783 60.2979 71.512L60.3049 101.987Z" fill="#263238"/>
<path d="M60.3049 101.987V71.5085C60.3314 70.2748 60.629 69.062 61.1764 67.956L53.7354 63.6615C53.7564 63.616 53.7739 63.574 53.7949 63.532C53.8256 63.4622 53.8607 63.3944 53.8999 63.329C53.9489 63.2345 53.9978 63.1435 54.0503 63.0525C54.1028 62.9615 54.1764 62.832 54.2464 62.7305L54.2849 62.657C54.2942 62.6422 54.3048 62.6281 54.3164 62.615C54.3759 62.517 54.4459 62.4155 54.5159 62.3175L54.5789 62.23C54.6146 62.1746 54.6543 62.122 54.6979 62.0725C54.7357 62.0188 54.7766 61.9674 54.8204 61.9185L54.8554 61.873C54.9184 61.7925 54.9849 61.712 55.0549 61.6385L55.1388 61.551C55.1569 61.5283 55.1768 61.5073 55.1984 61.488L55.2369 61.4425L55.3104 61.376L55.4398 61.25C55.451 61.2377 55.464 61.227 55.4784 61.2185C55.5169 61.1835 55.5519 61.145 55.5869 61.117L55.6253 61.0855H55.6429L55.7374 61.0155C55.7724 60.984 55.8109 60.9595 55.8459 60.9315C55.8809 60.9035 55.9159 60.8755 55.9509 60.8475C55.9924 60.816 56.0356 60.7867 56.0804 60.76C56.1565 60.7011 56.2372 60.6484 56.3219 60.6025L79.1524 47.4565L86.6004 51.758V58.464L86.7089 58.352C87.3091 57.6484 88.0027 57.0302 88.7704 56.5145H88.7984C88.8703 56.4604 88.945 56.4101 89.0224 56.364C89.2311 56.2196 89.4768 56.1379 89.7304 56.1286C89.9841 56.1193 90.2351 56.1827 90.4539 56.3115L97.8774 60.599C97.9175 60.6189 97.9551 60.6436 97.9894 60.6725L98.0524 60.7215C98.3106 60.9625 98.4868 61.2783 98.5564 61.6245C98.5774 61.712 98.5949 61.8065 98.6089 61.901C98.6293 62.0565 98.6386 62.2132 98.6369 62.37C98.6179 63.22 98.3985 64.0534 97.9964 64.8025C97.6502 65.5173 97.1138 66.1228 96.4459 66.5525C96.3563 66.6042 96.264 66.6509 96.1693 66.6925H96.1519C95.5248 67.0225 94.8302 67.2033 94.1219 67.221C93.0189 67.2615 91.9459 67.591 91.0104 68.1765C90.5973 68.4123 90.2051 68.6828 89.8379 68.985L89.7959 69.0165C89.6244 69.16 89.4459 69.307 89.3129 69.454L89.2919 69.4785C88.9499 69.8165 88.6417 70.1869 88.3714 70.5845C88.2559 70.756 88.1439 70.9345 88.0214 71.134L87.9689 71.2285V71.2565C87.8779 71.4175 87.7939 71.6065 87.7134 71.7605V71.785C87.6943 71.8235 87.6779 71.8633 87.6644 71.904C87.5839 72.0825 87.5104 72.254 87.4404 72.4605L87.4054 72.5515C87.3249 72.7755 87.2514 73.0065 87.1919 73.2235L87.1744 73.297C87.1219 73.4895 87.0729 73.689 87.0309 73.892C87.0309 73.948 87.0029 74.011 86.9924 74.0705V74.1195C86.9644 74.27 86.9399 74.417 86.9119 74.571C86.9119 74.6585 86.8804 74.753 86.8699 74.844C86.8594 74.935 86.8279 75.1275 86.8104 75.2745V75.3445C86.8104 75.4145 86.7929 75.488 86.7894 75.565C86.7894 75.712 86.7579 75.866 86.7474 76.0165V76.097C86.7474 76.153 86.7474 76.209 86.7299 76.265V76.3175L86.6494 78.7675V86.8175L84.5494 88.039L82.5649 89.1835L80.6434 90.293C79.3099 91.0665 78.3789 91.4585 77.8119 91.5005C77.7676 91.5039 77.7231 91.5039 77.6789 91.5005C77.5705 91.4993 77.4638 91.4729 77.3674 91.4235C77.0699 91.252 76.9824 90.7725 76.9824 89.7295C76.997 88.6177 77.1583 87.5127 77.4619 86.443C77.5529 86.0615 77.6404 85.6905 77.7174 85.33C77.7454 85.19 77.7769 85.05 77.8014 84.9065C77.8259 84.763 77.8539 84.623 77.8819 84.4795C77.9204 84.238 77.9519 83.9965 77.9834 83.748V83.6955C77.9938 83.6376 78.0008 83.5792 78.0044 83.5205C78.0429 83.153 78.0709 82.8205 78.0849 82.453C78.0849 82.4145 78.0849 82.376 78.0849 82.3375V82.25C78.0849 82.11 78.1059 81.956 78.1024 81.7985C78.1024 80.157 77.6264 78.8935 76.7549 78.2355C75.8834 77.5775 74.7284 77.602 73.4999 78.316C72.0124 79.1735 70.6999 80.885 69.8529 82.8345C69.6799 83.2195 69.5303 83.6145 69.4049 84.0175C69.3629 84.1505 69.3209 84.287 69.2859 84.42C69.2509 84.553 69.2019 84.7385 69.1634 84.8995C69.1522 84.9263 69.1452 84.9546 69.1424 84.9835C69.1074 85.1375 69.0759 85.295 69.0514 85.449C68.9912 85.7814 68.948 86.1167 68.9219 86.4535C68.9148 86.5537 68.9148 86.6543 68.9219 86.7545C68.9219 86.8735 68.9219 86.9925 68.9219 87.1045C68.9219 87.311 68.9219 87.528 68.9464 87.696C68.9803 88.8172 69.1942 89.9257 69.5799 90.979C69.7918 91.5434 69.9363 92.1308 70.0104 92.729V92.799V92.82V92.848C70.0086 92.8725 70.0086 92.897 70.0104 92.9215C70.0279 93.1805 70.0419 93.436 70.0419 93.702C70.0419 95.4275 70.0419 96.3795 66.3774 98.497L60.3049 101.987Z" fill="#37474F"/>
<path d="M90.4922 56.238L97.9158 60.5255C97.6881 60.4123 97.4339 60.3633 97.1805 60.3836C96.927 60.404 96.6839 60.4929 96.4772 60.641C96.4142 60.676 96.3338 60.732 96.2533 60.788L96.2287 60.8125H96.2113C95.4429 61.3273 94.7492 61.9457 94.1497 62.65C93.258 63.6861 92.2078 64.5744 91.0382 65.282L90.8912 65.3625L90.8352 65.3905L90.7932 65.4115C90.6812 65.471 90.5727 65.534 90.4712 65.583L90.2752 65.667L90.2087 65.6915L90.1702 65.7125L89.9252 65.8035C89.8523 65.8321 89.7775 65.8555 89.7013 65.8735H89.6732L89.4247 65.933C89.3407 65.954 89.2637 65.9575 89.1832 65.9715H88.9522C88.8787 65.9715 88.8052 65.9715 88.7352 65.9715C88.6652 65.9715 88.5987 65.947 88.5322 65.9365C88.4654 65.9236 88.3998 65.9049 88.3362 65.8805C88.2743 65.8594 88.2146 65.8324 88.1577 65.8H88.1262C88.0745 65.7748 88.0243 65.7468 87.9757 65.716C87.9284 65.6823 87.884 65.6449 87.8427 65.604L87.8147 65.583L87.7868 65.555C87.7483 65.5235 87.7062 65.485 87.6677 65.4465C87.623 65.3938 87.5809 65.3389 87.5417 65.282L87.5207 65.2505C87.4431 65.1386 87.373 65.0217 87.3108 64.9005L87.2897 64.855C87.2595 64.8019 87.2326 64.747 87.2092 64.6905C87.1847 64.631 87.1567 64.5575 87.1322 64.4875V64.4385V64.3965C87.1112 64.3335 87.0867 64.2775 87.0657 64.2075C87.0447 64.1375 87.0167 64.0185 86.9922 63.9205C86.9677 63.8225 86.9467 63.7525 86.9327 63.665C86.9187 63.5775 86.8908 63.455 86.8733 63.343C86.8558 63.231 86.8417 63.161 86.8277 63.07C86.8137 62.979 86.7998 62.8355 86.7858 62.72C86.7718 62.6045 86.7647 62.5275 86.7542 62.4295C86.7437 62.3315 86.7297 62.174 86.7227 62.0375C86.7227 61.9675 86.7227 61.8835 86.7227 61.803V61.698C86.7227 61.5755 86.7227 61.446 86.7017 61.313V61.2605L86.6772 59.8605V58.4115C86.7087 58.373 86.7472 58.338 86.7787 58.303C87.379 57.5994 88.0726 56.9812 88.8402 56.4655H88.8577L88.8858 56.4445C88.9559 56.3907 89.0296 56.3416 89.1062 56.2975C89.31 56.1625 89.5468 56.0856 89.791 56.0751C90.0352 56.0646 90.2777 56.1209 90.4922 56.238Z" fill="black"/>
<path d="M61.1799 67.9595L53.7319 63.658C53.7529 63.6125 53.7704 63.574 53.7949 63.532C53.8257 63.4622 53.8608 63.3944 53.8999 63.329C53.9489 63.2345 53.9979 63.1435 54.0504 63.0525C54.1029 62.9615 54.1764 62.832 54.2464 62.7305C54.2664 62.6901 54.2898 62.6514 54.3164 62.615C54.3759 62.517 54.4459 62.4155 54.5159 62.3175L54.5789 62.23C54.6146 62.1746 54.6544 62.122 54.6979 62.0725C54.7465 62.003 54.7991 61.9364 54.8554 61.873C54.9184 61.7925 54.9849 61.712 55.0549 61.6385L55.1389 61.551C55.1569 61.5283 55.1768 61.5073 55.1984 61.488L55.3104 61.376L55.4399 61.25C55.4511 61.2376 55.4641 61.227 55.4784 61.2185C55.524 61.1706 55.5732 61.1261 55.6254 61.0855H55.6429L55.7374 61.0155C55.8055 60.9557 55.8768 60.8996 55.9509 60.8475C55.9924 60.8159 56.0357 60.7867 56.0804 60.76C56.1566 60.7011 56.2373 60.6484 56.3219 60.6025L79.1489 47.453L86.5969 51.7545L76.5624 57.547L63.7384 64.9565C63.6404 65.0125 63.5459 65.072 63.4514 65.135C63.3569 65.198 63.2764 65.261 63.1959 65.331C63.1486 65.3621 63.1041 65.3972 63.0629 65.436C62.9789 65.5025 62.8949 65.583 62.8144 65.66C62.7339 65.737 62.6184 65.8525 62.5239 65.9505C62.3135 66.1802 62.1183 66.4234 61.9394 66.6785C61.8694 66.7765 61.7994 66.8745 61.7329 66.9795C61.5281 67.2942 61.3434 67.6215 61.1799 67.9595Z" fill="#455A64"/>
</g>
<path d="M50.2074 75.502C50.5722 75.523 50.932 75.4097 51.2189 75.1835C51.9924 74.585 52.5699 74.634 53.3994 74.277C54.0504 73.9935 54.3129 73.647 54.4494 73.766C54.5851 73.9165 54.6587 74.1128 54.6555 74.3154C54.6522 74.518 54.5724 74.7119 54.4319 74.858C54.1818 75.1491 53.892 75.4036 53.5709 75.614C54.3402 75.5663 55.0989 75.4108 55.8249 75.152C57.5749 74.557 58.4044 74.802 57.6099 77.0245C57.1129 78.4245 55.8599 79.1945 52.4264 79.1245C51.1576 79.0391 49.8959 78.8683 48.6499 78.6135C45.2514 77.945 38.4089 76.9195 37.2154 75.313C33.8379 70.763 30.7404 67.011 30.3134 63.616C29.9634 60.767 31.7134 59.1745 33.3339 59.1745C34.2544 60.144 34.8144 61.299 35.6614 64.0185C35.6614 64.0185 40.0574 71.89 40.5019 72.464C41.6079 73.0695 49.4864 75.3865 50.2074 75.502Z" fill="#FFA8A7"/>
<path d="M113.687 46.34C114.278 46.69 114.912 46.8405 115.699 47.4145C116.208 47.8515 116.816 48.1579 117.47 48.307C118.314 48.5135 124.953 46.27 126.182 45.3215C128.684 43.393 130.844 39.7635 132.048 38.388C133.038 37.254 134.148 35.546 135.383 35.539C137.403 36.148 136.948 39.151 135.257 41.839C133.857 44.0755 131.204 46.9 128.201 48.8705C126.745 49.826 120.036 51.5585 117.806 51.7055C117.131 51.7475 116.63 51.9015 115.356 52.0835C114.827 52.1909 114.284 52.2204 113.746 52.171C113.086 52.0682 112.444 51.8714 111.839 51.5865C111.071 51.2286 110.414 50.6714 109.935 49.973C109.673 49.589 109.506 49.1491 109.445 48.6885C109.384 48.2246 109.49 47.7541 109.746 47.362C109.794 47.2802 109.863 47.2125 109.945 47.166C110.108 47.113 110.285 47.1256 110.439 47.201C111.335 47.5125 112.252 47.9815 113.172 48.195C113.949 48.3735 114.523 48.3945 114.446 48.2545C114.369 48.1145 113.907 48.0375 113.379 47.5895C112.85 47.1415 112.633 46.4345 112.896 46.1685C113.158 45.9025 113.099 45.976 113.687 46.34Z" fill="#FFA8A7"/>
<path d="M135.513 34.8285C137.004 35.56 137.613 36.673 136.948 39.151C136.353 41.377 134.071 45.1745 132.275 47.033C132.275 47.033 129.202 45.577 127.568 43.6835C129.185 41.209 129.965 39.753 131.484 37.6565C133.003 35.56 134.603 34.58 135.513 34.8285Z" fill="#E0E0E0"/>
</svg>
