<svg width="185" height="138" viewBox="0 0 185 138" fill="none" xmlns="http://www.w3.org/2000/svg">
<path d="M153.683 25.9919C155.456 53.6023 122.159 83.3978 98.1574 91.1753C75.0287 98.6825 28.7787 95.8863 26.4144 63.3502C25.5264 51.1283 32.5823 37.7953 43.0385 31.4251C59.8513 21.192 73.0307 34.8472 89.603 37.0435C102.771 38.7879 112.968 32.9102 122.847 24.8845C131.076 18.2069 152.351 5.27764 153.683 25.9919Z" fill="#005F31"/>
<path opacity="0.8" d="M153.683 25.9919C155.456 53.6023 122.159 83.3978 98.1574 91.1753C75.0287 98.6825 28.7787 95.8863 26.4144 63.3502C25.5264 51.1283 32.5823 37.7953 43.0385 31.4251C59.8513 21.192 73.0307 34.8472 89.603 37.0435C102.771 38.7879 112.968 32.9102 122.847 24.8845C131.076 18.2069 152.351 5.27764 153.683 25.9919Z" fill="white"/>
<path d="M92.5 138C132.121 138 164.239 136.123 164.239 133.808C164.239 131.492 132.121 129.615 92.5 129.615C52.8795 129.615 20.7607 131.492 20.7607 133.808C20.7607 136.123 52.8795 138 92.5 138Z" fill="#F5F5F5"/>
<path d="M54.3609 78.2851C62.1867 70.4517 62.1867 57.7512 54.3609 49.9178C46.5351 42.0844 33.847 42.0844 26.0212 49.9178C18.1954 57.7512 18.1954 70.4517 26.0212 78.2851C33.847 86.1185 46.5351 86.1185 54.3609 78.2851Z" fill="#005F31"/>
<path opacity="0.4" d="M54.3609 78.2851C62.1867 70.4517 62.1867 57.7512 54.3609 49.9178C46.5351 42.0844 33.847 42.0844 26.0212 49.9178C18.1954 57.7512 18.1954 70.4517 26.0212 78.2851C33.847 86.1185 46.5351 86.1185 54.3609 78.2851Z" fill="black"/>
<path opacity="0.2" d="M56.7807 66.9338C58.3433 57.7635 52.1834 49.0616 43.0221 47.4974C33.8608 45.9332 25.1673 52.0991 23.6046 61.2693C22.0419 70.4395 28.2019 79.1415 37.3632 80.7057C46.5245 82.2699 55.218 76.104 56.7807 66.9338Z" fill="black"/>
<path d="M57.5849 65.7146C58.2095 56.7842 51.4833 49.0379 42.5615 48.4128C33.6398 47.7877 25.9011 54.5204 25.2765 63.4509C24.652 72.3813 31.3782 80.1276 40.3 80.7527C49.2217 81.3778 56.9604 74.6451 57.5849 65.7146Z" fill="#005F31"/>
<path opacity="0.4" d="M57.5849 65.7146C58.2095 56.7842 51.4833 49.0379 42.5615 48.4128C33.6398 47.7877 25.9011 54.5204 25.2765 63.4509C24.652 72.3813 31.3782 80.1276 40.3 80.7527C49.2217 81.3778 56.9604 74.6451 57.5849 65.7146Z" fill="black"/>
<path d="M46.8455 62.5576L47.9001 67.1315C47.9448 67.3062 47.9528 67.4882 47.9235 67.6661C47.8942 67.844 47.8283 68.0138 47.7298 68.1648C47.6342 68.3192 47.5087 68.4528 47.3606 68.5577C47.2125 68.6627 47.0449 68.7369 46.8677 68.7759L42.8495 69.7055L43.5895 72.924C43.6331 73.0979 43.6398 73.279 43.6092 73.4557C43.5786 73.6324 43.5114 73.8007 43.4119 73.9499C43.3164 74.1017 43.1904 74.232 43.0421 74.3327C42.8937 74.4335 42.7261 74.5023 42.5498 74.535C42.3733 74.5793 42.1897 74.5877 42.0098 74.5597C41.83 74.5317 41.6575 74.4679 41.5027 74.3721C41.3485 74.2812 41.2149 74.1592 41.1105 74.0139C41.006 73.8685 40.9329 73.7029 40.8959 73.5276L40.1559 70.2722L36.171 71.1944C35.9993 71.2359 35.821 71.2422 35.6468 71.2129C35.4725 71.1836 35.306 71.1194 35.1572 71.024C35.0026 70.9332 34.8686 70.8113 34.7635 70.6659C34.6584 70.5206 34.5846 70.355 34.5467 70.1796C34.5047 70.0065 34.4981 69.8267 34.5273 69.6511C34.5566 69.4754 34.6211 69.3074 34.7169 69.1574C34.8084 69.004 34.9306 68.8712 35.0757 68.7673C35.2209 68.6635 35.386 68.5907 35.5605 68.5537L44.8845 66.4019L44.4479 64.502L35.1498 66.6463C34.9777 66.6903 34.7985 66.6989 34.6229 66.6715C34.4474 66.6441 34.2793 66.5814 34.1286 66.4871C33.9742 66.3943 33.8408 66.2703 33.737 66.123C33.6331 65.9757 33.5611 65.8083 33.5255 65.6316L32.4747 61.0761C32.3939 60.726 32.4552 60.358 32.6453 60.0531C32.8355 59.7482 33.1388 59.5314 33.4885 59.4502L37.4549 58.5355L36.7149 55.3133C36.672 55.1429 36.6637 54.9657 36.6904 54.792C36.7171 54.6184 36.7783 54.4518 36.8703 54.3022C36.9679 54.1402 37.099 54.0009 37.2546 53.8936C37.4103 53.7863 37.5871 53.7135 37.7731 53.68C37.9443 53.6384 38.122 53.632 38.2957 53.6613C38.4693 53.6906 38.6352 53.7549 38.7832 53.8504C38.9352 53.9439 39.0666 54.0673 39.1697 54.2131C39.2727 54.3588 39.3451 54.524 39.3826 54.6985L40.1226 57.917L44.1926 56.9836C44.3687 56.941 44.5516 56.9344 44.7303 56.9643C44.9089 56.9942 45.0797 57.06 45.2323 57.1577C45.3867 57.2466 45.521 57.3665 45.6267 57.5099C45.7325 57.6533 45.8073 57.8172 45.8465 57.991C45.9245 58.3492 45.8594 58.7237 45.6651 59.0345C45.4708 59.3452 45.1628 59.5676 44.8068 59.6539L35.4828 61.8057L35.8898 63.6946L45.1805 61.5502C45.3566 61.5075 45.5395 61.5009 45.7182 61.5309C45.8968 61.5608 46.0676 61.6266 46.2202 61.7243C46.3771 61.8114 46.5139 61.9306 46.6216 62.0742C46.7294 62.2178 46.8057 62.3825 46.8455 62.5576Z" fill="#005F31"/>
<g opacity="0.7">
<path d="M46.8455 62.5576L47.9001 67.1315C47.9448 67.3062 47.9528 67.4882 47.9235 67.6661C47.8942 67.844 47.8283 68.0138 47.7298 68.1648C47.6342 68.3192 47.5087 68.4528 47.3606 68.5577C47.2125 68.6627 47.0449 68.7369 46.8677 68.7759L42.8495 69.7055L43.5895 72.924C43.6331 73.0979 43.6398 73.279 43.6092 73.4557C43.5786 73.6324 43.5114 73.8007 43.4119 73.9499C43.3164 74.1017 43.1904 74.232 43.0421 74.3327C42.8937 74.4335 42.7261 74.5023 42.5498 74.535C42.3733 74.5793 42.1897 74.5877 42.0098 74.5597C41.83 74.5317 41.6575 74.4679 41.5027 74.3721C41.3485 74.2812 41.2149 74.1592 41.1105 74.0139C41.006 73.8685 40.9329 73.7029 40.8959 73.5276L40.1559 70.2722L36.171 71.1944C35.9993 71.2359 35.821 71.2422 35.6468 71.2129C35.4725 71.1836 35.306 71.1194 35.1572 71.024C35.0026 70.9332 34.8686 70.8113 34.7635 70.6659C34.6584 70.5206 34.5846 70.355 34.5467 70.1796C34.5047 70.0065 34.4981 69.8267 34.5273 69.6511C34.5566 69.4754 34.6211 69.3074 34.7169 69.1574C34.8084 69.004 34.9306 68.8712 35.0757 68.7673C35.2209 68.6635 35.386 68.5907 35.5605 68.5537L44.8845 66.4019L44.4479 64.502L35.1498 66.6463C34.9777 66.6903 34.7985 66.6989 34.6229 66.6715C34.4474 66.6441 34.2793 66.5814 34.1286 66.4871C33.9742 66.3943 33.8408 66.2703 33.737 66.123C33.6331 65.9757 33.5611 65.8083 33.5255 65.6316L32.4747 61.0761C32.3939 60.726 32.4552 60.358 32.6453 60.0531C32.8355 59.7482 33.1388 59.5314 33.4885 59.4502L37.4549 58.5355L36.7149 55.3133C36.672 55.1429 36.6637 54.9657 36.6904 54.792C36.7171 54.6184 36.7783 54.4518 36.8703 54.3022C36.9679 54.1402 37.099 54.0009 37.2546 53.8936C37.4103 53.7863 37.5871 53.7135 37.7731 53.68C37.9443 53.6384 38.122 53.632 38.2957 53.6613C38.4693 53.6906 38.6352 53.7549 38.7832 53.8504C38.9352 53.9439 39.0666 54.0673 39.1697 54.2131C39.2727 54.3588 39.3451 54.524 39.3826 54.6985L40.1226 57.917L44.1926 56.9836C44.3687 56.941 44.5516 56.9344 44.7303 56.9643C44.9089 56.9942 45.0797 57.06 45.2323 57.1577C45.3867 57.2466 45.521 57.3665 45.6267 57.5099C45.7325 57.6533 45.8073 57.8172 45.8465 57.991C45.9245 58.3492 45.8594 58.7237 45.6651 59.0345C45.4708 59.3452 45.1628 59.5676 44.8068 59.6539L35.4828 61.8057L35.8898 63.6946L45.1805 61.5502C45.3566 61.5075 45.5395 61.5009 45.7182 61.5309C45.8968 61.5608 46.0676 61.6266 46.2202 61.7243C46.3771 61.8114 46.5139 61.9306 46.6216 62.0742C46.7294 62.2178 46.8057 62.3825 46.8455 62.5576Z" fill="white"/>
</g>
<path d="M82.9533 48.1497C87.939 42.2442 87.198 33.4113 81.2982 28.4207C75.3985 23.4302 66.5741 24.1719 61.5884 30.0774C56.6027 35.9829 57.3437 44.8159 63.2435 49.8064C69.1432 54.797 77.9676 54.0552 82.9533 48.1497Z" fill="#005F31"/>
<path opacity="0.4" d="M82.9533 48.1497C87.939 42.2442 87.198 33.4113 81.2982 28.4207C75.3985 23.4302 66.5741 24.1719 61.5884 30.0774C56.6027 35.9829 57.3437 44.8159 63.2435 49.8064C69.1432 54.797 77.9676 54.0552 82.9533 48.1497Z" fill="black"/>
<path opacity="0.2" d="M81.3231 46.593C85.4557 41.5892 84.7533 34.1794 79.7544 30.0429C74.7555 25.9063 67.353 26.6093 63.2204 31.6131C59.0879 36.6169 59.7902 44.0267 64.7892 48.1632C69.7881 52.2998 77.1906 51.5968 81.3231 46.593Z" fill="black"/>
<path d="M81.6776 46.7158C85.4585 41.764 84.5132 34.6817 79.5662 30.8971C74.6192 27.1125 67.5438 28.0588 63.7629 33.0106C59.982 37.9624 60.9273 45.0447 65.8743 48.8292C70.8213 52.6138 77.8967 51.6676 81.6776 46.7158Z" fill="#005F31"/>
<path opacity="0.4" d="M81.6776 46.7158C85.4585 41.764 84.5132 34.6817 79.5662 30.8971C74.6192 27.1125 67.5438 28.0588 63.7629 33.0106C59.982 37.9624 60.9273 45.0447 65.8743 48.8292C70.8213 52.6138 77.8967 51.6676 81.6776 46.7158Z" fill="black"/>
<path d="M76.8933 40.2619L76.0978 43.4396C76.069 43.5604 76.0152 43.6739 75.94 43.7727C75.8649 43.8716 75.7699 43.9536 75.6612 44.0136C75.5514 44.0805 75.4293 44.1244 75.3022 44.1429C75.175 44.1613 75.0454 44.1539 74.9212 44.121L72.1499 43.4211L71.5875 45.6432C71.5589 45.7646 71.5053 45.8787 71.4301 45.9782C71.355 46.0777 71.2599 46.1604 71.1509 46.221C71.046 46.2862 70.9289 46.3293 70.8068 46.3478C70.6846 46.3663 70.56 46.3597 70.4405 46.3284C70.3174 46.2994 70.2013 46.2462 70.0991 46.1718C69.9968 46.0974 69.9103 46.0033 69.8448 45.8951C69.778 45.7893 69.7337 45.671 69.7146 45.5474C69.6955 45.4238 69.7021 45.2975 69.7338 45.1766L70.2999 42.9174L67.5249 42.2396C67.4047 42.2108 67.2915 42.1579 67.1923 42.084C67.0931 42.0102 67.0099 41.917 66.9477 41.81C66.8808 41.705 66.8364 41.5873 66.8173 41.4642C66.7982 41.3412 66.8048 41.2155 66.8367 41.0952C66.8644 40.9734 66.9167 40.8586 66.9906 40.758C67.0644 40.6573 67.1581 40.5729 67.2659 40.51C67.3723 40.445 67.4908 40.4023 67.6142 40.3845C67.7376 40.3667 67.8633 40.3741 67.9837 40.4063L74.4587 42.0322L74.7917 40.7137L68.3352 39.0915C68.2143 39.0644 68.1003 39.0126 68.0003 38.9393C67.9003 38.866 67.8166 38.7729 67.7543 38.6656C67.6873 38.56 67.6434 38.4413 67.6255 38.3175C67.6077 38.1936 67.6163 38.0674 67.6507 37.9471L68.4425 34.7805C68.4723 34.6598 68.5257 34.5463 68.5997 34.4464C68.6736 34.3465 68.7666 34.2622 68.8732 34.1985C68.9799 34.1348 69.0981 34.0929 69.2211 34.0752C69.344 34.0575 69.4692 34.0643 69.5895 34.0954L72.3349 34.7842L72.8973 32.5621C72.9245 32.4367 72.9774 32.3182 73.0525 32.2142C73.1277 32.1103 73.2236 32.023 73.3341 31.9579C73.4447 31.8929 73.5675 31.8514 73.6948 31.8362C73.8221 31.821 73.9512 31.8323 74.0739 31.8695C74.1932 31.8972 74.3054 31.9493 74.4035 32.0226C74.5016 32.0959 74.5834 32.1888 74.6437 32.2954C74.7092 32.401 74.7524 32.5189 74.7709 32.6418C74.7893 32.7647 74.7826 32.89 74.751 33.0102L74.1886 35.2324L77.0006 35.9398C77.124 35.9693 77.2401 36.0235 77.3418 36.0993C77.4436 36.1751 77.5289 36.2707 77.5926 36.3805C77.66 36.4845 77.7054 36.6014 77.7257 36.7237C77.7461 36.8461 77.7411 36.9713 77.711 37.0916C77.6801 37.215 77.625 37.3309 77.5487 37.4327C77.4725 37.5345 77.3767 37.6199 77.267 37.6842C77.1578 37.7522 77.0357 37.7972 76.9085 37.8163C76.7812 37.8354 76.6514 37.8282 76.527 37.7953L70.0483 36.1694L69.7227 37.4805L76.1755 39.0989C76.2989 39.1284 76.415 39.1827 76.5167 39.2585C76.6185 39.3342 76.7038 39.4299 76.7675 39.5397C76.8388 39.6441 76.8869 39.7626 76.9086 39.8871C76.9303 40.0117 76.9251 40.1395 76.8933 40.2619Z" fill="#005F31"/>
<g opacity="0.7">
<path d="M76.8933 40.2619L76.0978 43.4396C76.069 43.5604 76.0152 43.6739 75.94 43.7727C75.8649 43.8716 75.7699 43.9536 75.6612 44.0136C75.5514 44.0805 75.4293 44.1244 75.3022 44.1429C75.175 44.1613 75.0454 44.1539 74.9212 44.121L72.1499 43.4211L71.5875 45.6432C71.5589 45.7646 71.5053 45.8787 71.4301 45.9782C71.355 46.0777 71.2599 46.1604 71.1509 46.221C71.046 46.2862 70.9289 46.3293 70.8068 46.3478C70.6846 46.3663 70.56 46.3597 70.4405 46.3284C70.3174 46.2994 70.2013 46.2462 70.0991 46.1718C69.9968 46.0974 69.9103 46.0033 69.8448 45.8951C69.778 45.7893 69.7337 45.671 69.7146 45.5474C69.6955 45.4238 69.7021 45.2975 69.7338 45.1766L70.2999 42.9174L67.5249 42.2396C67.4047 42.2108 67.2915 42.1579 67.1923 42.084C67.0931 42.0102 67.0099 41.917 66.9477 41.81C66.8808 41.705 66.8364 41.5873 66.8173 41.4642C66.7982 41.3412 66.8048 41.2155 66.8367 41.0952C66.8644 40.9734 66.9167 40.8586 66.9906 40.758C67.0644 40.6573 67.1581 40.5729 67.2659 40.51C67.3723 40.445 67.4908 40.4023 67.6142 40.3845C67.7376 40.3667 67.8633 40.3741 67.9837 40.4063L74.4587 42.0322L74.7917 40.7137L68.3352 39.0915C68.2143 39.0644 68.1003 39.0126 68.0003 38.9393C67.9003 38.866 67.8166 38.7729 67.7543 38.6656C67.6873 38.56 67.6434 38.4413 67.6255 38.3175C67.6077 38.1936 67.6163 38.0674 67.6507 37.9471L68.4425 34.7805C68.4723 34.6598 68.5257 34.5463 68.5997 34.4464C68.6736 34.3465 68.7666 34.2622 68.8732 34.1985C68.9799 34.1348 69.0981 34.0929 69.2211 34.0752C69.344 34.0575 69.4692 34.0643 69.5895 34.0954L72.3349 34.7842L72.8973 32.5621C72.9245 32.4367 72.9774 32.3182 73.0525 32.2142C73.1277 32.1103 73.2236 32.023 73.3341 31.9579C73.4447 31.8929 73.5675 31.8514 73.6948 31.8362C73.8221 31.821 73.9512 31.8323 74.0739 31.8695C74.1932 31.8972 74.3054 31.9493 74.4035 32.0226C74.5016 32.0959 74.5834 32.1888 74.6437 32.2954C74.7092 32.401 74.7524 32.5189 74.7709 32.6418C74.7893 32.7647 74.7826 32.89 74.751 33.0102L74.1886 35.2324L77.0006 35.9398C77.124 35.9693 77.2401 36.0235 77.3418 36.0993C77.4436 36.1751 77.5289 36.2707 77.5926 36.3805C77.66 36.4845 77.7054 36.6014 77.7257 36.7237C77.7461 36.8461 77.7411 36.9713 77.711 37.0916C77.6801 37.215 77.625 37.3309 77.5487 37.4327C77.4725 37.5345 77.3767 37.6199 77.267 37.6842C77.1578 37.7522 77.0357 37.7972 76.9085 37.8163C76.7812 37.8354 76.6514 37.8282 76.527 37.7953L70.0483 36.1694L69.7227 37.4805L76.1755 39.0989C76.2989 39.1284 76.415 39.1827 76.5167 39.2585C76.6185 39.3342 76.7038 39.4299 76.7675 39.5397C76.8388 39.6441 76.8869 39.7626 76.9086 39.8871C76.9303 40.0117 76.9251 40.1395 76.8933 40.2619Z" fill="white"/>
</g>
<path d="M38.2062 123.708H37.8362V127.889H38.2062V123.708Z" fill="#005F31"/>
<path opacity="0.1" d="M38.2062 123.708H37.8362V127.889H38.2062V123.708Z" fill="black"/>
<path d="M147.164 90.5791H146.794V96.3085H147.164V90.5791Z" fill="#005F31"/>
<path d="M147.164 99.3159H146.794V102.423H147.164V99.3159Z" fill="#005F31"/>
<path opacity="0.1" d="M147.164 90.5791H146.794V96.3085H147.164V90.5791Z" fill="black"/>
<path opacity="0.1" d="M147.164 99.3159H146.794V102.423H147.164V99.3159Z" fill="black"/>
<path d="M140.304 65.7353H44.6996C41.6242 65.7353 39.1311 68.2308 39.1311 71.3092V127.326C39.1311 130.405 41.6242 132.9 44.6996 132.9H140.304C143.379 132.9 145.872 130.405 145.872 127.326V71.3092C145.872 68.2308 143.379 65.7353 140.304 65.7353Z" fill="#005F31"/>
<path opacity="0.2" d="M140.304 65.7353H44.6996C41.6242 65.7353 39.1311 68.2308 39.1311 71.3092V127.326C39.1311 130.405 41.6242 132.9 44.6996 132.9H140.304C143.379 132.9 145.872 130.405 145.872 127.326V71.3092C145.872 68.2308 143.379 65.7353 140.304 65.7353Z" fill="black"/>
<path d="M128.593 89.1235C130.426 89.1235 132.183 88.395 133.478 87.0983C134.774 85.8015 135.501 84.0428 135.501 82.2089C135.501 80.375 134.774 78.6163 133.478 77.3195C132.183 76.0228 130.426 75.2943 128.593 75.2943H119.676C117.844 75.2943 116.087 76.0228 114.792 77.3195C113.496 78.6163 112.769 80.375 112.769 82.2089C112.769 84.0428 113.496 85.8015 114.792 87.0983C116.087 88.395 117.844 89.1235 119.676 89.1235H128.593Z" fill="#005F31"/>
<path d="M68.3537 89.1198H51.8998C50.5756 89.1198 49.5022 90.1943 49.5022 91.5198V102.286C49.5022 103.612 50.5756 104.686 51.8998 104.686H68.3537C69.6779 104.686 70.7513 103.612 70.7513 102.286V91.5198C70.7513 90.1943 69.6779 89.1198 68.3537 89.1198Z" fill="#005F31"/>
<path opacity="0.3" d="M68.3537 89.1198H51.8998C50.5756 89.1198 49.5022 90.1943 49.5022 91.5198V102.286C49.5022 103.612 50.5756 104.686 51.8998 104.686H68.3537C69.6779 104.686 70.7513 103.612 70.7513 102.286V91.5198C70.7513 90.1943 69.6779 89.1198 68.3537 89.1198Z" fill="white"/>
<path d="M79.7386 73.5943H51.2005C50.2626 73.5943 49.5022 74.3546 49.5022 75.2924C49.5022 76.2303 50.2626 76.9905 51.2005 76.9905H79.7386C80.6765 76.9905 81.4369 76.2303 81.4369 75.2924C81.4369 74.3546 80.6765 73.5943 79.7386 73.5943Z" fill="#005F31"/>
<path opacity="0.3" d="M79.7386 73.5943H51.2005C50.2626 73.5943 49.5022 74.3546 49.5022 75.2924C49.5022 76.2303 50.2626 76.9905 51.2005 76.9905H79.7386C80.6765 76.9905 81.4369 76.2303 81.4369 75.2924C81.4369 74.3546 80.6765 73.5943 79.7386 73.5943Z" fill="white"/>
<path d="M64.8276 112.412H51.9923C50.6171 112.412 49.5022 113.528 49.5022 114.904V117.234C49.5022 118.61 50.6171 119.726 51.9923 119.726H64.8276C66.2028 119.726 67.3177 118.61 67.3177 117.234V114.904C67.3177 113.528 66.2028 112.412 64.8276 112.412Z" fill="#005F31"/>
<path opacity="0.3" d="M64.8276 112.412H51.9923C50.6171 112.412 49.5022 113.528 49.5022 114.904V117.234C49.5022 118.61 50.6171 119.726 51.9923 119.726H64.8276C66.2028 119.726 67.3177 118.61 67.3177 117.234V114.904C67.3177 113.528 66.2028 112.412 64.8276 112.412Z" fill="white"/>
<path d="M87.5532 112.412H74.7179C73.3426 112.412 72.2278 113.528 72.2278 114.904V117.234C72.2278 118.61 73.3426 119.726 74.7179 119.726H87.5532C88.9284 119.726 90.0433 118.61 90.0433 117.234V114.904C90.0433 113.528 88.9284 112.412 87.5532 112.412Z" fill="#005F31"/>
<path opacity="0.3" d="M87.5532 112.412H74.7179C73.3426 112.412 72.2278 113.528 72.2278 114.904V117.234C72.2278 118.61 73.3426 119.726 74.7179 119.726H87.5532C88.9284 119.726 90.0433 118.61 90.0433 117.234V114.904C90.0433 113.528 88.9284 112.412 87.5532 112.412Z" fill="white"/>
<path d="M110.282 112.412H97.4469C96.0716 112.412 94.9568 113.528 94.9568 114.904V117.234C94.9568 118.61 96.0716 119.726 97.4469 119.726H110.282C111.657 119.726 112.772 118.61 112.772 117.234V114.904C112.772 113.528 111.657 112.412 110.282 112.412Z" fill="#005F31"/>
<path opacity="0.3" d="M110.282 112.412H97.4469C96.0716 112.412 94.9568 113.528 94.9568 114.904V117.234C94.9568 118.61 96.0716 119.726 97.4469 119.726H110.282C111.657 119.726 112.772 118.61 112.772 117.234V114.904C112.772 113.528 111.657 112.412 110.282 112.412Z" fill="white"/>
<path d="M133.008 112.412H120.172C118.797 112.412 117.682 113.528 117.682 114.904V117.234C117.682 118.61 118.797 119.726 120.172 119.726H133.008C134.383 119.726 135.498 118.61 135.498 117.234V114.904C135.498 113.528 134.383 112.412 133.008 112.412Z" fill="#005F31"/>
<path opacity="0.3" d="M133.008 112.412H120.172C118.797 112.412 117.682 113.528 117.682 114.904V117.234C117.682 118.61 118.797 119.726 120.172 119.726H133.008C134.383 119.726 135.498 118.61 135.498 117.234V114.904C135.498 113.528 134.383 112.412 133.008 112.412Z" fill="white"/>
<path d="M108.41 41.4322C107.533 43.9099 106.56 46.3062 105.528 48.7024C104.483 51.1392 103.284 53.5068 101.939 55.7911C101.757 56.0837 101.569 56.3763 101.373 56.6689L101.228 56.8874L101.032 57.1577C100.899 57.3281 100.773 57.4762 100.662 57.6207C100.196 58.1409 99.7019 58.6354 99.1822 59.1021C98.1943 60.0169 97.1879 60.8465 96.1704 61.665C94.128 63.2872 92.0412 64.8057 89.8804 66.2464L88.5891 64.6427L94.0281 59.2762C94.9272 58.3836 95.8189 57.4836 96.6514 56.5837C97.0621 56.1355 97.4617 55.6763 97.791 55.2541C97.8724 55.1504 97.9427 55.0467 98.0056 54.9578L98.0833 54.8319L98.1906 54.6393C98.3349 54.3837 98.4866 54.1356 98.6272 53.8726C99.7594 51.7431 100.758 49.4283 101.72 47.0802C102.682 44.7321 103.607 42.3655 104.495 40.0174L108.41 41.4322Z" fill="#E4897B"/>
<path d="M109.45 39.6471C110.29 42.1063 105.354 49.3394 105.354 49.3394L100.64 46.7136C101.443 44.4567 102.393 42.2545 103.482 40.1211C105.132 36.9953 108.529 36.9472 109.45 39.6471Z" fill="#005F31"/>
<path opacity="0.7" d="M109.45 39.6471C110.29 42.1063 105.354 49.3394 105.354 49.3394L100.64 46.7136C101.443 44.4567 102.393 42.2545 103.482 40.1211C105.132 36.9953 108.529 36.9472 109.45 39.6471Z" fill="white"/>
<path opacity="0.31" d="M109.52 39.9545C108.462 39.4471 107.244 39.873 105.961 41.9026C104.677 43.9322 103.585 47.321 103.467 48.2876L105.357 49.3357C105.357 49.3357 109.912 42.6544 109.52 39.9545Z" fill="#005F31"/>
<path d="M106.257 37.7657C106.257 37.7657 102.734 46.058 105.272 61.4984H119.943C120.124 59.2429 119.088 48.2469 121.63 37.6249C120.015 37.3102 118.381 37.1024 116.739 37.0027C114.662 36.8841 112.581 36.8841 110.504 37.0027C109.071 37.1484 107.651 37.4034 106.257 37.7657Z" fill="#005F31"/>
<path opacity="0.7" d="M106.257 37.7657C106.257 37.7657 102.734 46.058 105.272 61.4984H119.943C120.124 59.2429 119.088 48.2469 121.63 37.6249C120.015 37.3102 118.381 37.1024 116.739 37.0027C114.662 36.8841 112.581 36.8841 110.504 37.0027C109.071 37.1484 107.651 37.4034 106.257 37.7657Z" fill="white"/>
<path d="M125.138 127.282L122.966 129.23L118.826 124.919L121.001 122.971L125.138 127.282Z" fill="#E4897B"/>
<path d="M117.69 131.337H114.948L114.593 124.978H117.334L117.69 131.337Z" fill="#E4897B"/>
<path d="M118.829 124.919L120.961 127.141L123.136 125.193L121.005 122.971L118.829 124.919Z" fill="#CE6F64"/>
<path d="M117.334 124.982H114.593L114.778 128.26H117.519L117.334 124.982Z" fill="#CE6F64"/>
<path d="M105.272 61.4984C105.272 61.4984 102.383 81.52 101.398 92.416C100.607 101.16 119.495 127.23 119.495 127.23L123.147 123.789C123.147 123.789 109.353 100.416 110.415 90.6828C111.444 81.2571 114.929 61.4872 114.929 61.4872L105.272 61.4984Z" fill="#005F31"/>
<path opacity="0.7" d="M105.272 61.4984C105.272 61.4984 102.383 81.52 101.398 92.416C100.607 101.16 119.495 127.23 119.495 127.23L123.147 123.789C123.147 123.789 109.353 100.416 110.415 90.6828C111.444 81.2571 114.929 61.4872 114.929 61.4872L105.272 61.4984Z" fill="black"/>
<path opacity="0.2" d="M110.415 90.6939C110.945 85.8384 112.129 78.2312 113.146 72.0018C112.613 70.9574 111.118 68.8426 111.118 68.8426C109.779 73.4758 106.867 90.942 111.022 114.53C115.351 121.515 119.495 127.241 119.495 127.241L120.061 118.234C116.062 110.701 109.679 97.4233 110.415 90.6939Z" fill="black"/>
<path d="M110.489 61.4984C110.489 61.4984 110.23 82.4793 110.674 90.342C111.159 98.9492 113.601 127.467 113.601 127.467H118.626C118.626 127.467 118.474 99.6455 118.77 91.1272C119.099 81.8682 119.95 61.4984 119.95 61.4984H110.489Z" fill="#005F31"/>
<path opacity="0.7" d="M110.489 61.4984C110.489 61.4984 110.23 82.4793 110.674 90.342C111.159 98.9492 113.601 127.467 113.601 127.467H118.626C118.626 127.467 118.474 99.6455 118.77 91.1272C119.099 81.8682 119.95 61.4984 119.95 61.4984H110.489Z" fill="black"/>
<path d="M114.804 131.022H117.886C117.937 131.02 117.987 131.039 118.025 131.073C118.063 131.108 118.086 131.156 118.089 131.208L118.241 133.648C118.241 133.712 118.229 133.775 118.205 133.834C118.182 133.893 118.146 133.947 118.102 133.992C118.057 134.038 118.004 134.074 117.945 134.099C117.887 134.124 117.824 134.137 117.76 134.137C116.687 134.119 116.173 134.056 114.818 134.056C113.986 134.056 110.441 134.145 109.291 134.145C108.14 134.145 108.181 133.004 108.658 132.9C110.845 132.437 113.557 131.789 114.334 131.189C114.468 131.083 114.633 131.025 114.804 131.022Z" fill="#263238"/>
<path d="M122.366 128.452L125.008 126.671C125.051 126.636 125.105 126.618 125.16 126.618C125.215 126.618 125.268 126.636 125.312 126.671L127.332 128.711C127.371 128.756 127.4 128.809 127.417 128.867C127.434 128.924 127.438 128.984 127.428 129.043C127.419 129.102 127.397 129.158 127.364 129.208C127.331 129.258 127.287 129.299 127.236 129.33C125.548 130.63 124.331 131.611 123.369 132.693C122.259 133.956 121.66 134.137 119.07 134.137C117.871 134.137 117.194 133.126 117.682 132.971C121.996 131.604 120.842 131.008 121.893 129.004C122.002 128.783 122.165 128.594 122.366 128.452Z" fill="#263238"/>
<path d="M89.2107 64.2983L86.3506 64.3983L86.95 66.6427C86.95 66.6427 89.9396 66.9093 90.206 66.0056L89.2107 64.2983Z" fill="#E4897B"/>
<path d="M83.2649 65.7353L85.2703 66.9056L86.9501 66.6427L86.3507 64.3983L83.2649 65.7353Z" fill="#E4897B"/>
<path opacity="0.31" d="M118.352 40.2471C118.049 41.9952 118.452 46.1728 119.95 51.0097C120.068 46.8657 120.549 42.74 121.39 38.6805V38.6582C120.428 38.5619 118.644 38.6064 118.352 40.2471Z" fill="#005F31"/>
<path d="M116.365 29.9733C115.903 31.9806 115.381 35.662 116.735 37.0101C116.735 37.0101 116.15 38.673 112.421 38.673C108.321 38.673 110.501 37.0101 110.501 37.0101C112.758 36.4768 112.758 34.8139 112.421 33.2547L116.365 29.9733Z" fill="#E4897B"/>
<path d="M112.317 38.6656L111.207 39.8471L111.751 40.9878L112.635 41.0285L113.39 39.9397L112.317 38.6656Z" fill="#005F31"/>
<path d="M114.759 31.3103L112.425 33.2436C112.509 33.6087 112.561 33.9804 112.58 34.3546C113.438 34.2324 114.645 33.2917 114.767 32.3954C114.832 32.0364 114.829 31.6683 114.759 31.3103Z" fill="#CE6F64"/>
<path d="M111.5 23.1661C110.097 23.6438 108.976 27.3659 110.612 28.3511C112.247 29.3363 114.164 22.2587 111.5 23.1661Z" fill="#263238"/>
<path d="M117.242 27.8696C116.406 30.4621 116.051 32.0288 114.364 33.0917C113.819 33.4419 113.19 33.6364 112.543 33.6543C111.896 33.6721 111.257 33.5126 110.694 33.193C110.131 32.8734 109.667 32.4059 109.35 31.841C109.034 31.2761 108.878 30.6354 108.899 29.9881C108.932 27.4956 110.294 23.6586 113.161 23.1772C113.779 23.0577 114.418 23.1029 115.013 23.3082C115.608 23.5135 116.138 23.8717 116.552 24.3469C116.965 24.8221 117.246 25.3976 117.367 26.0158C117.489 26.6341 117.445 27.2734 117.242 27.8696Z" fill="#E4897B"/>
<path d="M119.314 23.5364C118.478 25.5586 120.424 23.8697 119.921 26.2697C119.595 27.8326 116.776 31.5769 115.688 31.2362C114.6 30.8955 114.611 28.24 115.999 26.3623C116.798 25.2845 115.07 24.0623 111.189 24.1919C107.308 24.3216 104.962 22.1364 110.12 20.5328C110.12 20.5328 108.218 21.6439 109.346 22.0142C110.945 22.6105 120.99 19.4847 119.314 23.5364Z" fill="#263238"/>
<path d="M118.574 24.4623C118.533 24.4623 119.444 24.2364 119.928 22.6105C119.928 22.6364 119.769 25.0327 118.574 24.4623Z" fill="#263238"/>
<path d="M111.311 20.892C108.924 21.6328 109.912 22.4661 110.9 22.6735L113.165 21.7846C109.724 22.2401 111.311 20.892 111.311 20.892Z" fill="#263238"/>
<path d="M117.701 31.0362C117.204 31.5189 116.543 31.7932 115.851 31.8029C114.937 31.8029 114.741 30.9362 115.233 30.2103C115.669 29.5585 116.668 28.7733 117.475 29.1251C118.282 29.477 118.307 30.4399 117.701 31.0362Z" fill="#E4897B"/>
<path d="M113.028 27.7252C112.972 27.94 112.813 28.0955 112.658 28.0585C112.502 28.0215 112.447 27.8252 112.502 27.6104C112.558 27.3956 112.717 27.24 112.872 27.2807C113.028 27.3215 113.083 27.5104 113.028 27.7252Z" fill="#263238"/>
<path d="M110.586 27.1882C110.53 27.403 110.371 27.5585 110.216 27.5215C110.06 27.4845 110.005 27.2919 110.06 27.0771C110.116 26.8622 110.271 26.7067 110.43 26.7437C110.589 26.7808 110.63 26.9734 110.586 27.1882Z" fill="#263238"/>
<path d="M111.333 27.4659C110.912 28.0656 110.415 28.6072 109.853 29.077C109.977 29.2144 110.129 29.3231 110.299 29.3954C110.469 29.4677 110.653 29.5019 110.837 29.4955L111.333 27.4659Z" fill="#DE5753"/>
<path d="M111.74 30.277C111.587 30.2768 111.434 30.2594 111.285 30.2251C111.269 30.2207 111.255 30.2103 111.246 30.1958C111.237 30.1813 111.234 30.164 111.237 30.1473C111.241 30.1309 111.252 30.1168 111.266 30.1078C111.281 30.0989 111.298 30.0958 111.315 30.0992C111.587 30.1599 111.87 30.1582 112.141 30.094C112.413 30.0299 112.667 29.905 112.883 29.7288C112.896 29.7168 112.912 29.7101 112.93 29.7101C112.947 29.7101 112.964 29.7168 112.976 29.7288C112.988 29.7413 112.995 29.7579 112.995 29.7751C112.995 29.7924 112.988 29.809 112.976 29.8214C112.632 30.1175 112.193 30.2793 111.74 30.277Z" fill="#263238"/>
<path d="M113.997 27.1067C113.972 27.1071 113.947 27.0999 113.926 27.0861C113.905 27.0722 113.888 27.0523 113.879 27.0289C113.818 26.8803 113.722 26.7486 113.6 26.6448C113.478 26.541 113.332 26.4682 113.176 26.4326C113.159 26.4304 113.142 26.4247 113.127 26.416C113.112 26.4073 113.099 26.3957 113.089 26.3819C113.079 26.3681 113.071 26.3524 113.067 26.3357C113.063 26.3189 113.062 26.3015 113.065 26.2845C113.07 26.2504 113.089 26.2197 113.116 26.199C113.144 26.1783 113.178 26.1691 113.213 26.1734C113.412 26.214 113.598 26.3028 113.756 26.4318C113.913 26.5609 114.037 26.7264 114.116 26.9141C114.123 26.9296 114.127 26.9464 114.127 26.9635C114.128 26.9806 114.125 26.9977 114.119 27.0136C114.113 27.0296 114.103 27.0441 114.091 27.0563C114.079 27.0684 114.065 27.078 114.049 27.0845C114.034 27.0956 114.016 27.1032 113.997 27.1067Z" fill="#263238"/>
<path d="M109.761 26.1252C109.731 26.125 109.702 26.1145 109.679 26.0956C109.653 26.0732 109.636 26.0414 109.632 26.0068C109.629 25.9722 109.639 25.9376 109.661 25.9104C109.791 25.7481 109.957 25.6179 110.145 25.5299C110.334 25.4419 110.54 25.3985 110.748 25.403C110.765 25.4044 110.782 25.4092 110.797 25.417C110.812 25.4249 110.826 25.4356 110.837 25.4487C110.848 25.4618 110.856 25.4769 110.861 25.4932C110.866 25.5096 110.868 25.5267 110.867 25.5438C110.866 25.561 110.862 25.5778 110.854 25.5933C110.846 25.6087 110.835 25.6225 110.822 25.6336C110.809 25.6447 110.794 25.653 110.777 25.6579C110.761 25.6628 110.743 25.6643 110.726 25.6623C110.56 25.6605 110.395 25.697 110.245 25.7689C110.095 25.8408 109.963 25.9463 109.86 26.0771C109.849 26.0922 109.833 26.1044 109.816 26.1128C109.799 26.1211 109.78 26.1254 109.761 26.1252Z" fill="#263238"/>
<path d="M122.341 39.5175C122.629 39.9656 122.87 40.3619 123.114 40.7915C123.358 41.2211 123.591 41.6359 123.821 42.0655C124.272 42.9211 124.698 43.7951 125.086 44.6877C125.901 46.515 126.513 48.4264 126.91 50.3875L126.947 50.5764L126.966 50.669L126.992 50.8246C127.023 51.0317 127.039 51.2409 127.04 51.4505C127.036 51.8014 126.999 52.1511 126.929 52.4949C126.803 53.062 126.622 53.6152 126.388 54.1467C125.973 55.0779 125.478 55.9713 124.908 56.817C123.832 58.4251 122.608 59.9291 121.253 61.3095L119.643 60.0169C120.539 58.454 121.43 56.8318 122.178 55.243C122.545 54.4831 122.859 53.6985 123.118 52.8949C123.223 52.5597 123.295 52.2148 123.332 51.8653C123.345 51.7508 123.345 51.6353 123.332 51.5208C123.332 51.4875 123.332 51.4579 123.31 51.4542C123.288 51.4505 123.31 51.4542 123.31 51.4357L123.288 51.3616L123.243 51.2097C123.01 50.3928 122.732 49.5892 122.411 48.8024C122.085 47.9987 121.723 47.1987 121.342 46.4025C120.961 45.6062 120.55 44.821 120.128 44.0359C119.921 43.6433 119.703 43.2544 119.484 42.8692L118.833 41.7581L122.341 39.5175Z" fill="#E4897B"/>
<path d="M113.834 131.496C113.65 131.515 113.465 131.463 113.316 131.352C113.275 131.306 113.245 131.249 113.231 131.188C113.217 131.128 113.218 131.064 113.235 131.004C113.243 130.963 113.261 130.926 113.288 130.894C113.314 130.862 113.348 130.838 113.387 130.822C113.723 130.689 114.497 131.222 114.585 131.282C114.596 131.288 114.605 131.299 114.61 131.311C114.614 131.323 114.615 131.336 114.611 131.348C114.609 131.361 114.604 131.372 114.595 131.382C114.587 131.391 114.576 131.397 114.563 131.4C114.324 131.458 114.08 131.49 113.834 131.496ZM113.512 130.93C113.487 130.926 113.461 130.926 113.435 130.93C113.416 130.937 113.399 130.949 113.387 130.964C113.375 130.98 113.367 130.999 113.364 131.019C113.351 131.057 113.348 131.099 113.356 131.139C113.364 131.18 113.382 131.217 113.409 131.248C113.535 131.374 113.894 131.389 114.386 131.293C114.124 131.111 113.826 130.989 113.512 130.934V130.93Z" fill="white"/>
<path d="M114.548 131.404H114.515C114.241 131.241 113.834 130.663 113.897 130.367C113.908 130.313 113.937 130.264 113.979 130.228C114.022 130.192 114.075 130.172 114.13 130.171C114.179 130.164 114.229 130.169 114.275 130.184C114.322 130.2 114.365 130.225 114.4 130.259C114.678 130.53 114.615 131.319 114.615 131.352C114.614 131.363 114.609 131.374 114.603 131.383C114.597 131.392 114.588 131.399 114.578 131.404H114.548ZM114.178 130.293H114.149C114.056 130.293 114.034 130.348 114.027 130.385C113.986 130.582 114.256 131.015 114.493 131.215C114.527 130.915 114.465 130.611 114.315 130.348C114.297 130.33 114.275 130.316 114.251 130.306C114.226 130.297 114.201 130.292 114.175 130.293H114.178Z" fill="white"/>
<path d="M120.591 129.941C120.522 129.943 120.454 129.93 120.391 129.904C120.342 129.884 120.299 129.853 120.264 129.813C120.23 129.773 120.206 129.726 120.195 129.674C120.185 129.643 120.184 129.61 120.191 129.578C120.198 129.546 120.213 129.517 120.235 129.493C120.483 129.193 121.782 129.282 121.93 129.293C121.944 129.293 121.957 129.298 121.968 129.307C121.978 129.316 121.986 129.328 121.989 129.341C121.992 129.354 121.991 129.368 121.985 129.381C121.98 129.393 121.971 129.404 121.96 129.411C121.546 129.684 121.079 129.865 120.591 129.941ZM121.375 129.4C120.92 129.4 120.443 129.445 120.335 129.574C120.329 129.584 120.326 129.596 120.326 129.608C120.326 129.619 120.329 129.631 120.335 129.641C120.341 129.673 120.355 129.703 120.376 129.728C120.397 129.753 120.423 129.773 120.454 129.785C120.661 129.871 121.127 129.73 121.715 129.415L121.375 129.4Z" fill="white"/>
<path d="M121.926 129.422C121.556 129.422 120.724 129.137 120.661 128.841C120.661 128.767 120.661 128.663 120.838 128.578C121.475 128.278 121.967 129.285 121.989 129.319C121.994 129.329 121.996 129.341 121.996 129.352C121.996 129.364 121.994 129.375 121.989 129.385C121.983 129.397 121.974 129.406 121.963 129.413C121.952 129.419 121.939 129.423 121.926 129.422ZM121.072 128.656C121.009 128.655 120.947 128.669 120.89 128.697C120.813 128.734 120.776 128.774 120.783 128.811C120.82 128.985 121.419 129.23 121.812 129.282C121.693 129.082 121.408 128.656 121.072 128.656Z" fill="white"/>
<path d="M120.376 59.4169L117.66 58.9392L119.062 62.1057C119.062 62.1057 121.553 62.1057 121.442 60.8021L120.376 59.4169Z" fill="#E4897B"/>
<path d="M115.607 60.528L116.891 63.0872L119.048 62.102L117.645 58.9392L115.607 60.528Z" fill="#E4897B"/>
<path d="M123.369 123.589L119.273 127.452L117.952 126.034L122.64 121.76L123.369 123.589Z" fill="#005F31"/>
<path opacity="0.6" d="M123.369 123.589L119.273 127.452L117.952 126.034L122.64 121.76L123.369 123.589Z" fill="white"/>
<path d="M118.825 127.467H113.398L113.098 125.56L119.088 125.856L118.825 127.467Z" fill="#005F31"/>
<path opacity="0.6" d="M118.825 127.467H113.398L113.098 125.56L119.088 125.856L118.825 127.467Z" fill="white"/>
<path d="M121.63 37.6249C124.22 37.9953 126.873 47.0024 126.873 47.0024L121.323 50.0838C121.323 50.0838 119.07 45.8025 117.993 42.6248C116.865 39.2952 118.859 37.2175 121.63 37.6249Z" fill="#005F31"/>
<path opacity="0.7" d="M121.63 37.6249C124.22 37.9953 126.873 47.0024 126.873 47.0024L121.323 50.0838C121.323 50.0838 119.07 45.8025 117.993 42.6248C116.865 39.2952 118.859 37.2175 121.63 37.6249Z" fill="white"/>
<path opacity="0.2" d="M112.317 38.6656L111.207 39.8471L111.751 40.9878L112.635 41.0285L113.39 39.9397L112.317 38.6656Z" fill="black"/>
<path d="M111.847 40.7841C111.847 40.7841 109.742 49.5135 109.661 51.3283C109.546 53.8245 110.589 58.0873 110.589 58.0873C110.589 58.0873 112.069 54.543 112.373 51.2505C112.676 47.958 112.45 42.6322 112.587 40.7841H111.847Z" fill="#005F31"/>
<path opacity="0.2" d="M111.847 40.7841C111.847 40.7841 109.742 49.5135 109.661 51.3283C109.546 53.8245 110.589 58.0873 110.589 58.0873C110.589 58.0873 112.069 54.543 112.373 51.2505C112.676 47.958 112.45 42.6322 112.587 40.7841H111.847Z" fill="black"/>
<path d="M112.317 38.6656C112.739 39.3488 112.983 40.1267 113.028 40.9285C113.028 40.9285 117.645 39.2989 117.427 36.9101C117.427 36.9101 116.772 36.5212 116.358 36.2064C116.358 36.2064 116.202 37.7101 112.317 38.6656Z" fill="#005F31"/>
<path opacity="0.6" d="M112.317 38.6656C112.739 39.3488 112.983 40.1267 113.028 40.9285C113.028 40.9285 117.645 39.2989 117.427 36.9101C117.427 36.9101 116.772 36.5212 116.358 36.2064C116.358 36.2064 116.202 37.7101 112.317 38.6656Z" fill="white"/>
<path d="M112.317 38.6656C111.893 39.3124 111.587 40.0298 111.414 40.7841C111.414 40.7841 109.324 39.3693 109.953 37.0101C110.336 36.8556 110.731 36.7318 111.133 36.6398C111.133 36.6398 110.859 38.1656 112.317 38.6656Z" fill="#005F31"/>
<path opacity="0.6" d="M112.317 38.6656C111.893 39.3124 111.587 40.0298 111.414 40.7841C111.414 40.7841 109.324 39.3693 109.953 37.0101C110.336 36.8556 110.731 36.7318 111.133 36.6398C111.133 36.6398 110.859 38.1656 112.317 38.6656Z" fill="white"/>
</svg>
