<svg width="110" height="110" viewBox="0 0 110 110" fill="none" xmlns="http://www.w3.org/2000/svg">
<path d="M59.8334 101.442C85.9443 101.442 107.111 89.4028 107.111 74.5515C107.111 59.7002 85.9443 47.6609 59.8334 47.6609C33.7225 47.6609 12.5554 59.7002 12.5554 74.5515C12.5554 89.4028 33.7225 101.442 59.8334 101.442Z" fill="#F5F5F5"/>
<path d="M89.8238 87.065C96.0678 87.065 101.13 83.8914 101.13 79.9766C101.13 76.0618 96.0678 72.8882 89.8238 72.8882C83.5798 72.8882 78.518 76.0618 78.518 79.9766C78.518 83.8914 83.5798 87.065 89.8238 87.065Z" fill="#E6E6E6"/>
<path d="M15.18 59.4C15.0445 57.7687 14.6679 56.1666 14.0624 54.6458C13.0658 52.1884 11.1584 49.72 8.9606 49.258C6.7628 48.796 5.8344 50.27 6.2964 51.722C6.6968 52.9716 8.3292 54.01 9.57 55.1012C10.8108 56.1924 13.1252 58.8412 13.7676 61.3778L15.0084 61.5142L15.18 59.4Z" fill="#005F31"/>
<g opacity="0.15">
<path d="M15.18 59.4C15.0445 57.7687 14.6679 56.1666 14.0624 54.6458C13.0658 52.1884 11.1584 49.72 8.9606 49.258C6.7628 48.796 5.8344 50.27 6.2964 51.722C6.6968 52.9716 8.3292 54.01 9.57 55.1012C10.8108 56.1924 13.1252 58.8412 13.7676 61.3778L15.0084 61.5142L15.18 59.4Z" fill="black"/>
</g>
<path d="M14.3286 60.5395C14.2932 60.5395 14.2591 60.5258 14.2337 60.5011C14.2082 60.4765 14.1933 60.4429 14.1922 60.4075C13.9612 54.0011 7.69999 50.4195 7.63179 50.3799C7.60195 50.361 7.58046 50.3314 7.57172 50.2971C7.56299 50.2629 7.56768 50.2266 7.58482 50.1957C7.60196 50.1647 7.63027 50.1415 7.66394 50.1308C7.69762 50.1201 7.73413 50.1226 7.76599 50.1379C7.83199 50.1753 14.2318 53.8339 14.4672 60.3921C14.4684 60.4285 14.4552 60.4639 14.4305 60.4907C14.4058 60.5174 14.3716 60.5334 14.3352 60.5351L14.3286 60.5395Z" fill="white"/>
<path d="M16.1678 70.6771C16.1678 70.6771 14.8874 71.4867 12.8854 71.1413C12.238 71.0551 11.6348 70.7655 11.1628 70.3141C10.6458 69.7817 10.5644 69.2449 10.4192 68.5321C10.3792 68.2341 10.2773 67.9479 10.12 67.6917C9.68 67.1021 8.8352 67.1131 8.1224 66.9591C7.1104 66.7391 6.1798 66.0131 5.8872 65.0209C5.5946 64.0287 6.0698 62.8209 7.029 62.4293L5.852 61.6747C5.4861 61.4599 5.14774 61.2013 4.8444 60.9047C4.5416 60.6022 4.36071 60.1989 4.3362 59.7717C4.3362 59.1469 4.8004 58.5881 5.3724 58.3329C5.95832 58.1066 6.59411 58.0413 7.2138 58.1437C7.8415 58.2205 8.4585 58.3681 9.053 58.5837C9.215 58.6568 9.3901 58.6965 9.5678 58.7003C9.79906 58.6593 10.0158 58.5593 10.197 58.4099C11.5434 57.5299 13.7368 57.5893 14.4584 59.2657C14.564 59.5121 14.6278 59.7761 14.7422 60.0181C15.1602 60.9223 16.3372 60.6495 17.0984 61.0719C17.3373 61.2232 17.54 61.4252 17.6921 61.6635C17.8441 61.9019 17.9419 62.1709 17.9784 62.4513C18.1302 63.3445 17.8816 64.3631 17.7166 65.2453C17.5516 66.1275 17.3426 66.9481 17.1028 67.7841C16.907 68.4749 16.6914 69.1591 16.4626 69.8389C16.4142 69.9797 16.3086 70.5891 16.1678 70.6771Z" fill="#005F31"/>
<path d="M16.973 68.6137C16.302 66.7676 15.2001 65.1082 13.7588 63.7737C13.7438 63.7415 13.717 63.7163 13.684 63.7033C13.2687 63.314 12.8333 62.9468 12.3794 62.6033C12.2079 61.4153 12.3599 60.2031 12.8194 59.0943C12.8349 59.0613 12.8366 59.0236 12.8242 58.9893C12.8118 58.9551 12.7864 58.9271 12.7534 58.9117C12.7204 58.8962 12.6827 58.8945 12.6484 58.9069C12.6142 58.9192 12.5863 58.9447 12.5708 58.9777C12.1151 60.0467 11.9402 61.2144 12.0626 62.3701C10.2186 61.0402 8.17293 60.0151 6.0038 59.3341C5.96853 59.3252 5.93119 59.3303 5.89961 59.3484C5.86804 59.3664 5.84467 59.396 5.8344 59.4309C5.82941 59.4484 5.82797 59.4667 5.83016 59.4847C5.83235 59.5027 5.83812 59.5202 5.84714 59.536C5.85616 59.5517 5.86824 59.5656 5.88268 59.5766C5.89711 59.5876 5.91361 59.5957 5.9312 59.6003C5.9884 59.6157 9.8912 60.7245 13.1208 63.5603C11.1408 63.2149 8.7802 64.1697 8.6724 64.2203C8.6421 64.2317 8.61684 64.2534 8.60113 64.2817C8.58542 64.31 8.58027 64.343 8.58662 64.3747C8.59297 64.4064 8.61039 64.4349 8.63578 64.455C8.66116 64.475 8.69286 64.4854 8.7252 64.4843C8.74265 64.4875 8.76054 64.4875 8.778 64.4843C8.8044 64.4711 11.5786 63.3491 13.5388 63.9585C14.9625 65.264 16.0532 66.891 16.72 68.7039C16.7292 68.7309 16.7467 68.7544 16.77 68.771C16.7933 68.7876 16.8212 68.7964 16.8498 68.7963H16.896C16.9134 68.7898 16.9292 68.7798 16.9426 68.7669C16.956 68.7541 16.9666 68.7386 16.9738 68.7215C16.981 68.7045 16.9847 68.6861 16.9845 68.6675C16.9844 68.649 16.9805 68.6307 16.973 68.6137Z" fill="white"/>
<path d="M16.2118 70.486C16.2352 70.8079 16.3343 71.1197 16.5009 71.3961C16.6676 71.6725 16.8972 71.9056 17.171 72.0766L44 87.5602C44.2965 87.7109 44.6244 87.7894 44.957 87.7894C45.2896 87.7894 45.6175 87.7109 45.914 87.5602L82.6166 66.3698C82.9052 66.2166 83.1466 65.9877 83.315 65.7076C83.4834 65.4276 83.5724 65.107 83.5724 64.7803C83.5724 64.4535 83.4834 64.1329 83.315 63.8529C83.1466 63.5729 82.9052 63.344 82.6166 63.1908L55.792 47.7028C55.4952 47.5531 55.1674 47.4751 54.835 47.4751C54.5026 47.4751 54.1748 47.5531 53.878 47.7028L17.171 68.8976C16.8974 69.0681 16.6679 69.3009 16.5012 69.5769C16.3345 69.8529 16.2354 70.1644 16.2118 70.486Z" fill="#37474F"/>
<path d="M44.9526 85.721V87.7912C44.6201 87.8006 44.2907 87.7248 43.9956 87.5712L17.16 72.0766C16.8796 71.9288 16.6433 71.7093 16.4754 71.4404C16.3074 71.1716 16.2137 70.863 16.2039 70.5461C16.194 70.2293 16.2684 69.9154 16.4193 69.6367C16.5703 69.3579 16.7925 69.1242 17.0632 68.9592C16.6342 69.2672 16.6672 69.7182 17.16 70.002L44 85.49C44.2928 85.6466 44.6206 85.7261 44.9526 85.721Z" fill="#263238"/>
<path d="M15.3142 68.9305C15.0477 68.7492 14.8277 68.5078 14.6717 68.2258C14.5158 67.9437 14.4284 67.629 14.4166 67.3069V35.2947C14.4346 34.9628 14.5307 34.6398 14.697 34.352C14.8633 34.0641 15.0951 33.8196 15.3736 33.6381L52.0762 12.4477C52.3612 12.2965 52.6778 12.2145 53.0004 12.2084C53.323 12.2023 53.6425 12.2722 53.933 12.4125C54.1994 12.5938 54.4195 12.8352 54.5755 13.1172C54.7314 13.3993 54.8188 13.7141 54.8306 14.0361V46.0483C54.8125 46.3802 54.7165 46.7032 54.5502 46.9911C54.3839 47.2789 54.1521 47.5235 53.8736 47.7049L17.171 68.8975C16.8857 69.0479 16.569 69.1292 16.2465 69.135C15.924 69.1407 15.6047 69.0707 15.3142 68.9305Z" fill="#455A64"/>
<path d="M17.0566 68.9546C16.7819 69.0778 16.4837 69.1394 16.1827 69.1352C15.8817 69.1311 15.5853 69.0612 15.3142 68.9304C15.0477 68.7492 14.8277 68.5077 14.6717 68.2257C14.5158 67.9437 14.4284 67.6289 14.4166 67.3068V35.2946C14.4271 34.9616 14.5242 34.6371 14.6982 34.353L16.4934 35.387C16.3209 35.6718 16.224 35.9959 16.2118 36.3286V68.343C16.2118 68.9106 16.5814 69.1636 17.0566 68.9546Z" fill="#263238"/>
<path d="M16.2118 36.3331V68.3431C16.2118 68.9547 16.6518 69.2011 17.171 68.8975L53.8736 47.7049C54.1521 47.5235 54.3839 47.2789 54.5502 46.9911C54.7165 46.7032 54.8125 46.3802 54.8306 46.0483V14.0361C54.8306 13.4267 54.4016 13.1781 53.8736 13.4839L17.171 34.6743C16.8918 34.8557 16.6594 35.1006 16.4927 35.3888C16.326 35.6771 16.2298 36.0006 16.2118 36.3331Z" fill="#37474F"/>
<path d="M17.171 70.002L44 85.49C44.2968 85.6396 44.6246 85.7176 44.957 85.7176C45.2894 85.7176 45.6172 85.6396 45.914 85.49L82.6166 64.2996C83.1468 63.9938 83.1468 63.4988 82.6166 63.1996L55.792 47.7116C55.4952 47.5619 55.1674 47.4839 54.835 47.4839C54.5026 47.4839 54.1748 47.5619 53.878 47.7116L17.171 68.8976C16.6408 69.2012 16.6408 69.6962 17.171 70.002Z" fill="#455A64"/>
<path d="M17.6858 36.4519L53.0728 16.0249C53.3896 15.8423 53.647 15.9919 53.647 16.3571V44.0771C53.636 44.2763 53.5783 44.4701 53.4785 44.6428C53.3788 44.8156 53.2398 44.9624 53.0728 45.0715L17.6858 65.4875C17.3668 65.6701 17.1094 65.5227 17.1094 65.1553V37.4353C17.1216 37.2377 17.1802 37.0457 17.2803 36.8749C17.3804 36.7041 17.5193 36.5592 17.6858 36.4519Z" fill="#FAFAFA"/>
<path d="M20.284 69.1726L54.3532 49.5002C54.5013 49.4243 54.6653 49.3848 54.8317 49.3848C54.9981 49.3848 55.1621 49.4243 55.3102 49.5002L57.0526 50.5056C57.1098 50.5257 57.1594 50.563 57.1944 50.6125C57.2295 50.6619 57.2483 50.7211 57.2483 50.7817C57.2483 50.8423 57.2295 50.9015 57.1944 50.9509C57.1594 51.0004 57.1098 51.0377 57.0526 51.0578L22.979 70.728C22.8309 70.8039 22.6669 70.8434 22.5005 70.8434C22.3341 70.8434 22.1701 70.8039 22.022 70.728L20.284 69.7248C20.2268 69.7047 20.1772 69.6674 20.1422 69.6179C20.1071 69.5685 20.0883 69.5093 20.0883 69.4487C20.0883 69.3881 20.1071 69.3289 20.1422 69.2795C20.1772 69.23 20.2268 69.1927 20.284 69.1726Z" fill="#37474F"/>
<path d="M24.7742 71.7662L58.8434 52.096C58.9918 52.0212 59.1557 51.9822 59.3219 51.9822C59.4881 51.9822 59.652 52.0212 59.8004 52.096L70.5188 58.2846C70.576 58.3047 70.6256 58.342 70.6606 58.3915C70.6957 58.4409 70.7145 58.5001 70.7145 58.5607C70.7145 58.6213 70.6957 58.6805 70.6606 58.7299C70.6256 58.7794 70.576 58.8167 70.5188 58.8368L36.4892 78.4784C36.3406 78.5538 36.1762 78.5931 36.0096 78.5931C35.8429 78.5931 35.6786 78.5538 35.53 78.4784L24.7764 72.3184C24.7181 72.2997 24.6671 72.2629 24.631 72.2135C24.5948 72.164 24.5751 72.1044 24.5749 72.0431C24.5746 71.9818 24.5938 71.922 24.6296 71.8723C24.6654 71.8226 24.716 71.7854 24.7742 71.7662Z" fill="#263238"/>
<path d="M55.3146 60.94L56.3794 60.3262C56.4256 60.2998 56.4234 60.2558 56.3794 60.2272L55.1452 59.5144C55.119 59.5009 55.09 59.4939 55.0605 59.4939C55.031 59.4939 55.002 59.5009 54.9758 59.5144L53.9088 60.1304C53.8626 60.1546 53.8648 60.1986 53.9088 60.2272L55.1408 60.94C55.1677 60.9539 55.1975 60.9612 55.2277 60.9612C55.2579 60.9612 55.2877 60.9539 55.3146 60.94ZM53.2092 58.4936L52.14 59.114C52.0938 59.1404 52.0982 59.1844 52.14 59.213L53.372 59.9236C53.3986 59.9372 53.428 59.9442 53.4578 59.9442C53.4876 59.9442 53.517 59.9372 53.5436 59.9236L54.6106 59.3076C54.6546 59.2812 54.6524 59.2372 54.6106 59.2086L53.3764 58.498C53.3505 58.4849 53.3218 58.478 53.2928 58.478C53.2637 58.478 53.2351 58.4849 53.2092 58.498V58.4936ZM49.7618 60.5L47.9578 61.5406C47.9116 61.567 47.9138 61.611 47.9578 61.6396L49.1898 62.3524C49.2165 62.3655 49.2459 62.3722 49.2756 62.3722C49.3053 62.3722 49.3347 62.3655 49.3614 62.3524L51.1654 61.3118C51.2116 61.2854 51.2072 61.2414 51.1654 61.2128L49.94 60.5C49.9126 60.4854 49.882 60.4777 49.8509 60.4777C49.8198 60.4777 49.7892 60.4854 49.7618 60.5ZM51.6494 59.4L50.5824 60.016C50.5384 60.0424 50.5406 60.0864 50.5824 60.115L51.8166 60.8278C51.8429 60.8408 51.8719 60.8476 51.9013 60.8476C51.9307 60.8476 51.9597 60.8408 51.986 60.8278L53.053 60.2118C53.097 60.1854 53.0948 60.1414 53.053 60.115L51.8188 59.4C51.7926 59.3865 51.7636 59.3795 51.7341 59.3795C51.7046 59.3795 51.6756 59.3865 51.6494 59.4ZM47.4694 61.82L46.4024 62.4338C46.3584 62.4602 46.3606 62.5042 46.4024 62.5328L47.6366 63.2456C47.6628 63.2591 47.6918 63.2662 47.7213 63.2662C47.7508 63.2662 47.7798 63.2591 47.806 63.2456L48.873 62.6296C48.917 62.6054 48.9148 62.5614 48.873 62.5328L47.6344 61.82C47.6082 61.8065 47.5792 61.7995 47.5497 61.7995C47.5202 61.7995 47.4912 61.8065 47.465 61.82H47.4694ZM45.9096 62.7198L44.8448 63.3358C44.7986 63.36 44.8008 63.404 44.8448 63.4326L46.079 64.1454C46.1053 64.1584 46.1343 64.1652 46.1637 64.1652C46.1931 64.1652 46.2221 64.1584 46.2484 64.1454L47.3154 63.5294C47.3616 63.503 47.3572 63.459 47.3154 63.4304L46.0834 62.7176C46.0562 62.7027 46.0257 62.6946 45.9946 62.6942C45.9635 62.6939 45.9328 62.7011 45.9052 62.7154L45.9096 62.7198ZM50.7628 65.615L51.8298 64.999C51.8738 64.9726 51.8716 64.9286 51.8298 64.9L50.5956 64.1894C50.5694 64.1759 50.5404 64.1689 50.5109 64.1689C50.4814 64.1689 50.4524 64.1759 50.4262 64.1894L49.3592 64.8054C49.313 64.8318 49.3174 64.8758 49.3592 64.9044L50.5912 65.615C50.6175 65.6272 50.6463 65.6331 50.6753 65.6323C50.7043 65.6316 50.7327 65.6241 50.7584 65.6106L50.7628 65.615ZM49.203 66.5148L50.27 65.8988C50.3162 65.8724 50.3118 65.8284 50.27 65.7998L49.038 65.0892C49.0114 65.0757 48.982 65.0687 48.9522 65.0687C48.9224 65.0687 48.893 65.0757 48.8664 65.0892L47.7994 65.7052C47.7554 65.7316 47.7576 65.7756 47.7994 65.8042L49.0336 66.517C49.0598 66.5283 49.0883 66.5336 49.1168 66.5324C49.1454 66.5313 49.1733 66.5238 49.1986 66.5104L49.203 66.5148ZM47.6432 67.4146L48.7102 66.7986C48.7564 66.7722 48.7542 66.7282 48.7102 66.7018L47.4782 65.989C47.452 65.9755 47.423 65.9685 47.3935 65.9685C47.364 65.9685 47.335 65.9755 47.3088 65.989L46.2418 66.605C46.1956 66.6314 46.1978 66.6754 46.2418 66.704L47.476 67.4168C47.5019 67.4278 47.53 67.4329 47.5581 67.4317C47.5863 67.4306 47.6138 67.4232 47.6388 67.4102L47.6432 67.4146ZM46.0856 68.3144L47.1526 67.6984C47.1966 67.6742 47.1944 67.6302 47.1526 67.6016L45.9074 66.88C45.8812 66.8665 45.8522 66.8595 45.8227 66.8595C45.7932 66.8595 45.7642 66.8665 45.738 66.88L44.671 67.4938C44.6248 67.5202 44.6292 67.5642 44.671 67.5928L45.903 68.3056C45.93 68.321 45.9605 68.3294 45.9915 68.3301C46.0226 68.3309 46.0534 68.324 46.0812 68.31L46.0856 68.3144ZM53.7592 61.8508L54.8262 61.2348C54.8702 61.2084 54.868 61.1644 54.8262 61.1358L53.592 60.423C53.5657 60.41 53.5367 60.4033 53.5073 60.4033C53.4779 60.4033 53.4489 60.41 53.4226 60.423L52.3556 61.039C52.3116 61.0654 52.3138 61.1094 52.3556 61.1358L53.5898 61.8486C53.6157 61.8606 53.644 61.8666 53.6725 61.8662C53.7011 61.8659 53.7292 61.8591 53.7548 61.8464L53.7592 61.8508ZM52.3204 64.7108L54.7008 63.3358C54.747 63.3094 54.7426 63.2654 54.7008 63.239L51.7 61.5098C51.6734 61.4963 51.644 61.4893 51.6142 61.4893C51.5844 61.4893 51.555 61.4963 51.5284 61.5098L50.2986 62.2204C50.2524 62.2468 50.2546 62.2908 50.2986 62.3194L51.8826 63.2346C51.9332 63.2632 51.9354 63.3072 51.8826 63.3314L50.8992 63.9012C50.853 63.9276 50.8552 63.9716 50.8992 64.0002L52.1334 64.7108C52.1612 64.7267 52.1927 64.735 52.2247 64.735C52.2567 64.735 52.2882 64.7267 52.316 64.7108H52.3204ZM44.352 63.6108L43.285 64.2268C43.2388 64.2532 43.2432 64.2972 43.285 64.3236L44.517 65.0364C44.5436 65.05 44.573 65.057 44.6028 65.057C44.6326 65.057 44.662 65.05 44.6886 65.0364L45.7534 64.4204C45.7996 64.394 45.7974 64.35 45.7534 64.3214L44.5192 63.6086C44.4921 63.5963 44.4624 63.5905 44.4326 63.5916C44.4028 63.5928 44.3737 63.6008 44.3476 63.6152L44.352 63.6108ZM42.7922 64.5106L41.7252 65.1266C41.6812 65.153 41.6834 65.197 41.7252 65.2256L42.9594 65.9362C42.9856 65.9497 43.0146 65.9568 43.0441 65.9568C43.0736 65.9568 43.1026 65.9497 43.1288 65.9362L44.1958 65.3202C44.2398 65.2938 44.2376 65.2498 44.1958 65.2212L42.9616 64.5106C42.9345 64.4971 42.9045 64.4904 42.8741 64.4911C42.8438 64.4919 42.8142 64.5001 42.7878 64.515L42.7922 64.5106ZM35.002 74.6042C35.0283 74.6172 35.0573 74.624 35.0867 74.624C35.1161 74.624 35.1451 74.6172 35.1714 74.6042L36.2384 73.9882C36.2846 73.9618 36.2824 73.9178 36.2384 73.8914L35.0064 73.1786C34.9797 73.1656 34.9503 73.1588 34.9206 73.1588C34.8909 73.1588 34.8615 73.1656 34.8348 73.1786L33.77 73.7946C33.7238 73.821 33.726 73.865 33.77 73.8936L35.002 74.6042ZM30.316 71.72L29.249 72.336C29.205 72.3624 29.2072 72.4064 29.249 72.435L30.4832 73.1456C30.5094 73.1591 30.5384 73.1662 30.5679 73.1662C30.5974 73.1662 30.6264 73.1591 30.6526 73.1456L31.7196 72.5296C31.7636 72.5032 31.7614 72.4592 31.7196 72.4306L30.4854 71.72C30.4592 71.7065 30.4302 71.6995 30.4007 71.6995C30.3712 71.6995 30.3422 71.7065 30.316 71.72ZM32.8262 73.832C32.8525 73.845 32.8815 73.8518 32.9109 73.8518C32.9403 73.8518 32.9693 73.845 32.9956 73.832L34.0626 73.216C34.1066 73.1896 34.1044 73.1456 34.0626 73.117L32.8284 72.4042C32.8022 72.3907 32.7732 72.3837 32.7437 72.3837C32.7142 72.3837 32.6852 72.3907 32.659 72.4042L31.592 73.0202C31.548 73.0466 31.5502 73.0884 31.592 73.117L32.8262 73.832ZM37.7498 75.152L38.8168 74.536C38.863 74.5118 38.8586 74.4678 38.8168 74.4392L37.5848 73.7264C37.5582 73.7129 37.5288 73.7059 37.499 73.7059C37.4692 73.7059 37.4398 73.7129 37.4132 73.7264L36.3462 74.3402C36.3022 74.3666 36.3044 74.4106 36.3462 74.4392L37.5804 75.152C37.6064 75.1659 37.6354 75.1733 37.6648 75.1737C37.6943 75.1741 37.7234 75.1674 37.7498 75.1542V75.152ZM36.0206 76.0496C36.0473 76.0627 36.0767 76.0694 36.1064 76.0694C36.1361 76.0694 36.1655 76.0627 36.1922 76.0496L37.257 75.4336C37.3032 75.4072 37.301 75.3632 37.257 75.3346L36.0228 74.6218C35.9966 74.6083 35.9676 74.6013 35.9381 74.6013C35.9086 74.6013 35.8796 74.6083 35.8534 74.6218L34.782 75.24C34.7358 75.2642 34.738 75.3082 34.782 75.3368L36.0206 76.0496ZM31.8758 70.8136L30.8088 71.4296C30.7626 71.456 30.7648 71.5 30.8088 71.5264L32.0408 72.2392C32.067 72.2527 32.096 72.2598 32.1255 72.2598C32.155 72.2598 32.184 72.2527 32.2102 72.2392L33.2772 71.6232C33.3234 71.5968 33.3212 71.5528 33.2772 71.5242L32.043 70.8114C32.0166 70.7995 31.9879 70.7936 31.9589 70.7944C31.9299 70.7952 31.9015 70.8025 31.8758 70.8158V70.8136ZM39.6704 66.3124L38.6034 66.9284C38.5572 66.9548 38.5616 66.9988 38.6034 67.0274L39.8354 67.738C39.862 67.7516 39.8914 67.7586 39.9212 67.7586C39.951 67.7586 39.9804 67.7516 40.007 67.738L41.074 67.122C41.118 67.0956 41.1158 67.0516 41.074 67.023L39.8398 66.3124C39.8134 66.2993 39.7843 66.2926 39.7548 66.293C39.7254 66.2934 39.6964 66.3008 39.6704 66.3146V66.3124ZM33.44 69.916L32.373 70.532C32.329 70.5584 32.3312 70.6024 32.373 70.6288L33.6072 71.3416C33.6334 71.3551 33.6624 71.3622 33.6919 71.3622C33.7214 71.3622 33.7504 71.3551 33.7766 71.3416L34.8436 70.7256C34.8898 70.6992 34.8854 70.6552 34.8436 70.6266L33.6116 69.9138C33.5847 69.9011 33.5553 69.8948 33.5255 69.8951C33.4958 69.8955 33.4666 69.9027 33.44 69.916ZM41.2346 65.4148L40.1698 66.0308C40.1236 66.0572 40.1258 66.1012 40.1698 66.1298L41.404 66.8404C41.4302 66.8539 41.4592 66.861 41.4887 66.861C41.5182 66.861 41.5472 66.8539 41.5734 66.8404L42.6404 66.2244C42.6866 66.198 42.6844 66.154 42.6404 66.1254L41.4084 65.4148C41.3807 65.3998 41.3497 65.3919 41.3182 65.3919C41.2867 65.3919 41.2557 65.3998 41.228 65.4148H41.2346ZM38.1172 67.2144L37.0502 67.8304C37.0062 67.8568 37.0084 67.9008 37.0502 67.9294L38.28 68.64C38.3063 68.653 38.3353 68.6598 38.3647 68.6598C38.3941 68.6598 38.4231 68.653 38.4494 68.64L39.5164 68.024C39.5626 67.9976 39.5582 67.9536 39.5164 67.9272L38.28 67.2188C38.2542 67.2046 38.2253 67.1968 38.1958 67.1961C38.1664 67.1953 38.1371 67.2016 38.1106 67.2144H38.1172ZM36.5596 68.1142L35.4926 68.7302C35.4464 68.7566 35.4486 68.8006 35.4926 68.8292L36.7268 69.542C36.753 69.5555 36.782 69.5626 36.8115 69.5626C36.841 69.5626 36.87 69.5555 36.8962 69.542L37.9632 68.926C38.0094 68.8996 38.0072 68.8556 37.9632 68.8292L36.729 68.1164C36.702 68.102 36.6719 68.0943 36.6413 68.0939C36.6106 68.0935 36.5804 68.1005 36.553 68.1142H36.5596ZM34.9998 69.0162L33.9328 69.6322C33.8866 69.6564 33.891 69.7004 33.9328 69.729L35.1648 70.4418C35.1914 70.4554 35.2208 70.4624 35.2506 70.4624C35.2804 70.4624 35.3098 70.4554 35.3364 70.4418L36.4034 69.828C36.4474 69.8016 36.4452 69.7576 36.4034 69.729L35.1692 69.0162C35.1422 69.0016 35.1119 68.9939 35.0812 68.9939C35.0505 68.9939 35.0202 69.0016 34.9932 69.0162H34.9998ZM42.9682 70.1162L44.0352 69.5002C44.0814 69.4738 44.0792 69.4298 44.0352 69.4012L42.801 68.6884C42.7747 68.6754 42.7457 68.6687 42.7163 68.6687C42.6869 68.6687 42.6579 68.6754 42.6316 68.6884L41.5646 69.3044C41.5184 69.3308 41.5206 69.3748 41.5646 69.4012L42.7988 70.114C42.8243 70.1261 42.8522 70.1322 42.8805 70.1318C42.9087 70.1314 42.9364 70.1246 42.9616 70.1118L42.9682 70.1162ZM56.661 56.5136L55.594 57.1296C55.55 57.156 55.5522 57.2 55.594 57.2264L56.8282 57.9392C56.8544 57.9527 56.8834 57.9598 56.9129 57.9598C56.9424 57.9598 56.9714 57.9527 56.9976 57.9392L58.0646 57.3232C58.1108 57.2968 58.1064 57.2528 58.0646 57.2242L56.8326 56.5114C56.8052 56.497 56.7747 56.4893 56.7438 56.4889C56.7128 56.4885 56.6822 56.4955 56.6544 56.5092L56.661 56.5136ZM54.7734 57.6026L53.7086 58.2186C53.6624 58.245 53.6646 58.289 53.7086 58.3176L54.9428 59.0282C54.969 59.0417 54.998 59.0488 55.0275 59.0488C55.057 59.0488 55.086 59.0417 55.1122 59.0282L56.1792 58.4122C56.2254 58.3858 56.2232 58.3418 56.1792 58.3132L54.9472 57.6026C54.9199 57.5869 54.8891 57.5783 54.8576 57.5775C54.8261 57.5768 54.7949 57.5839 54.7668 57.5982L54.7734 57.6026ZM58.2208 55.6226L57.1538 56.2386C57.1076 56.2628 57.112 56.3068 57.1538 56.3354L58.3858 57.0482C58.4125 57.0613 58.4419 57.068 58.4716 57.068C58.5013 57.068 58.5307 57.0613 58.5574 57.0482L59.6244 56.4322C59.6684 56.4058 59.6662 56.3618 59.6244 56.3332L58.3902 55.6204C58.3641 55.6041 58.3343 55.5945 58.3036 55.5926C58.2729 55.5907 58.2421 55.5965 58.2142 55.6094L58.2208 55.6226ZM50.1512 63.943L51.2182 63.327C51.2622 63.3006 51.26 63.2566 51.2182 63.228L49.984 62.5174C49.9578 62.5039 49.9288 62.4969 49.8993 62.4969C49.8698 62.4969 49.8408 62.5039 49.8146 62.5174L48.7476 63.1334C48.7036 63.1598 48.7058 63.2038 48.7476 63.2324L49.9818 63.943C50.0081 63.9535 50.0365 63.9577 50.0647 63.9554C50.093 63.9531 50.1203 63.9444 50.1446 63.9298L50.1512 63.943ZM59.95 54.725C59.9234 54.7115 59.894 54.7045 59.8642 54.7045C59.8344 54.7045 59.805 54.7115 59.7784 54.725L58.7136 55.3388C58.6674 55.3652 58.6696 55.4092 58.7136 55.4378L59.9478 56.1506C59.974 56.1641 60.003 56.1712 60.0325 56.1712C60.062 56.1712 60.091 56.1641 60.1172 56.1506L61.1842 55.5346C61.2304 55.5104 61.2282 55.4664 61.1842 55.4378L59.95 54.725ZM44.528 69.223L45.595 68.6092C45.6412 68.5828 45.6368 68.5388 45.595 68.5102L44.363 67.7974C44.3364 67.7839 44.307 67.7769 44.2772 67.7769C44.2474 67.7769 44.218 67.7839 44.1914 67.7974L43.12 68.398C43.076 68.4222 43.0782 68.4662 43.12 68.4948L44.3542 69.2076C44.3799 69.2211 44.4085 69.2283 44.4375 69.2287C44.4666 69.2291 44.4953 69.2226 44.5214 69.2098L44.528 69.223ZM63.646 58.1856L64.713 57.5696C64.7592 57.5432 64.7548 57.4992 64.713 57.4728L63.481 56.76C63.4544 56.7465 63.425 56.7395 63.3952 56.7395C63.3654 56.7395 63.336 56.7465 63.3094 56.76L62.2446 57.376C62.1984 57.4024 62.2006 57.4464 62.2446 57.475L63.4788 58.1878C63.5051 58.1971 63.5331 58.2005 63.5608 58.1979C63.5885 58.1952 63.6154 58.1865 63.6394 58.1724L63.646 58.1856ZM60.3262 58.069L61.3932 57.453C61.4372 57.4266 61.435 57.3826 61.3932 57.354L60.159 56.6434C60.1328 56.6299 60.1038 56.6229 60.0743 56.6229C60.0448 56.6229 60.0158 56.6299 59.9896 56.6434L58.9226 57.2594C58.8764 57.2858 58.8808 57.3298 58.9226 57.3584L60.1546 58.069C60.1813 58.0795 60.21 58.0837 60.2386 58.0814C60.2672 58.0792 60.2949 58.0704 60.3196 58.0558L60.3262 58.069ZM61.7122 55.7436C61.6856 55.7301 61.6562 55.7231 61.6264 55.7231C61.5966 55.7231 61.5672 55.7301 61.5406 55.7436L60.4758 56.3596C60.4296 56.386 60.4318 56.43 60.4758 56.4586L61.71 57.1692C61.7362 57.1827 61.7652 57.1898 61.7947 57.1898C61.8242 57.1898 61.8532 57.1827 61.8794 57.1692L62.9464 56.5532C62.9926 56.5268 62.9904 56.4828 62.9464 56.4542L61.7122 55.7436ZM62.04 55.5522L65.0364 57.2836C65.0627 57.2966 65.0917 57.3034 65.1211 57.3034C65.1505 57.3034 65.1795 57.2966 65.2058 57.2836L66.2728 56.6676C66.3168 56.6412 66.3146 56.5972 66.2728 56.5708L63.2764 54.8394C63.2501 54.8264 63.2211 54.8197 63.1917 54.8197C63.1623 54.8197 63.1333 54.8264 63.107 54.8394L62.04 55.4554C61.9828 55.4686 61.985 55.5126 62.04 55.539V55.5522ZM58.4232 57.5322L57.3562 58.1482C57.3122 58.1746 57.3144 58.2186 57.3562 58.2472L58.5904 58.9578C58.6166 58.9713 58.6456 58.9784 58.6751 58.9784C58.7046 58.9784 58.7336 58.9713 58.7598 58.9578L59.8268 58.3418C59.873 58.3154 59.8686 58.2714 59.8268 58.2428L58.5948 57.5322C58.5679 57.5166 58.5376 57.5078 58.5065 57.5066C58.4754 57.5055 58.4446 57.512 58.4166 57.5256L58.4232 57.5322ZM46.684 64.2994L45.617 64.9154C45.5708 64.9418 45.5752 64.9858 45.617 65.0144L46.849 65.7272C46.8756 65.7408 46.905 65.7478 46.9348 65.7478C46.9646 65.7478 46.994 65.7408 47.0206 65.7272L48.0854 65.1112C48.1316 65.0848 48.1294 65.043 48.0854 65.0144L46.86 64.3038C46.8332 64.2891 46.8032 64.281 46.7725 64.2802C46.7419 64.2794 46.7115 64.286 46.684 64.2994ZM61.9102 59.07C61.9368 59.0836 61.9662 59.0906 61.996 59.0906C62.0258 59.0906 62.0552 59.0836 62.0818 59.07L63.1488 58.454C63.1928 58.4298 63.1906 58.3858 63.1488 58.3572L61.908 57.64C61.8817 57.627 61.8527 57.6203 61.8233 57.6203C61.7939 57.6203 61.7649 57.627 61.7386 57.64L60.6716 58.256C60.6254 58.2824 60.6298 58.3264 60.6716 58.355L61.9102 59.07ZM48.2416 63.3996L47.1768 64.0156C47.1306 64.042 47.1328 64.086 47.1768 64.1146L48.411 64.8274C48.4373 64.8404 48.4663 64.8472 48.4957 64.8472C48.5251 64.8472 48.5541 64.8404 48.5804 64.8274L49.6474 64.2114C49.6936 64.185 49.6914 64.141 49.6474 64.1146L48.4154 63.4018C48.3887 63.3876 48.359 63.38 48.3288 63.3796C48.2985 63.3792 48.2686 63.3861 48.2416 63.3996ZM36.5574 73.7C36.5837 73.713 36.6127 73.7198 36.6421 73.7198C36.6715 73.7198 36.7005 73.713 36.7268 73.7L37.7938 73.084C37.8378 73.0576 37.8356 73.0136 37.7938 72.9872L36.5596 72.2744C36.5334 72.2609 36.5044 72.2539 36.4749 72.2539C36.4454 72.2539 36.4164 72.2609 36.3902 72.2744L35.3232 72.8904C35.2792 72.9168 35.2814 72.9608 35.3232 72.9894L36.5574 73.7ZM34.2122 71.5L33.1452 72.1138C33.099 72.1402 33.1012 72.1842 33.1452 72.2128L34.3772 72.9256C34.4038 72.9392 34.4332 72.9462 34.463 72.9462C34.4928 72.9462 34.5222 72.9392 34.5488 72.9256L35.6136 72.3096C35.6598 72.2854 35.6576 72.2414 35.6136 72.2128L34.3816 71.5C34.3554 71.4865 34.3264 71.4795 34.2969 71.4795C34.2674 71.4795 34.2384 71.4865 34.2122 71.5ZM38.28 72.82L39.3448 72.204C39.391 72.1776 39.3888 72.1336 39.3448 72.105L38.1106 71.3944C38.0844 71.3809 38.0554 71.3739 38.0259 71.3739C37.9964 71.3739 37.9674 71.3809 37.9412 71.3944L36.8742 72.0104C36.828 72.0368 36.8302 72.0808 36.8742 72.1094L38.1062 72.82C38.1331 72.8339 38.1629 72.8412 38.1931 72.8412C38.2233 72.8412 38.2531 72.8339 38.28 72.82ZM39.8376 71.9202L40.9046 71.3042C40.9508 71.2778 40.9464 71.2338 40.9046 71.2052L39.6726 70.4946C39.646 70.4811 39.6166 70.4741 39.5868 70.4741C39.557 70.4741 39.5276 70.4811 39.501 70.4946L38.434 71.1106C38.39 71.137 38.3922 71.181 38.434 71.2096L39.6682 71.9202C39.6959 71.9335 39.7266 71.9397 39.7573 71.9382C39.788 71.9366 39.8179 71.9274 39.8442 71.9114L39.8376 71.9202ZM41.3974 71.0204L42.4644 70.4044C42.5084 70.378 42.5062 70.334 42.4644 70.3054L41.2302 69.5926C41.2039 69.5796 41.1749 69.5729 41.1455 69.5729C41.1161 69.5729 41.0871 69.5796 41.0608 69.5926L39.9938 70.2086C39.9476 70.235 39.952 70.279 39.9938 70.3054L41.2258 71.0182C41.2538 71.0319 41.2846 71.0384 41.3157 71.0372C41.3468 71.0361 41.3771 71.0273 41.404 71.0116L41.3974 71.0204ZM35.7632 70.609L34.6962 71.225C34.6522 71.2514 34.6544 71.2954 34.6962 71.324L35.9304 72.0368C35.9567 72.0498 35.9857 72.0566 36.0151 72.0566C36.0445 72.0566 36.0735 72.0498 36.0998 72.0368L37.1668 71.4208C37.213 71.3944 37.2086 71.3504 37.1668 71.324L35.9348 70.6112C35.9098 70.5975 35.882 70.5894 35.8535 70.5875C35.825 70.5856 35.7964 70.5899 35.7698 70.6002L35.7632 70.609ZM37.323 69.7092L36.256 70.3252C36.2098 70.3516 36.2142 70.3956 36.256 70.4242L37.488 71.137C37.5147 71.1501 37.5441 71.1568 37.5738 71.1568C37.6035 71.1568 37.6329 71.1501 37.6596 71.137L38.7266 70.521C38.7706 70.4946 38.7684 70.4506 38.7266 70.4242L37.4924 69.7114C37.4679 69.6973 37.4405 69.6889 37.4123 69.687C37.3841 69.6851 37.3558 69.6897 37.3296 69.7004L37.323 69.7092ZM43.56 66.1012L42.4952 66.7172C42.449 66.7436 42.4512 66.7876 42.4952 66.814L43.7294 67.5268C43.7556 67.5403 43.7846 67.5474 43.8141 67.5474C43.8436 67.5474 43.8726 67.5403 43.8988 67.5268L44.9658 66.9108C45.012 66.8844 45.0098 66.8404 44.9658 66.8118L43.7338 66.099C43.7066 66.086 43.6768 66.0794 43.6466 66.0798C43.6165 66.0802 43.5868 66.0875 43.56 66.1012ZM42.0024 67.001L40.9354 67.617C40.8892 67.6434 40.8936 67.6874 40.9354 67.7138L42.1674 68.4266C42.194 68.4402 42.2234 68.4472 42.2532 68.4472C42.283 68.4472 42.3124 68.4402 42.339 68.4266L43.406 67.8106C43.45 67.7842 43.4478 67.7402 43.406 67.7116L42.1718 66.9988C42.1459 66.9869 42.1176 66.9809 42.089 66.9812C42.0605 66.9816 42.0324 66.9884 42.0068 67.001H42.0024ZM45.1198 65.2014L44.0528 65.8174C44.0088 65.8416 44.011 65.8856 44.0528 65.9142L45.287 66.627C45.3132 66.6405 45.3422 66.6476 45.3717 66.6476C45.4012 66.6476 45.4302 66.6405 45.4564 66.627L46.5234 66.0132C46.5674 65.9868 46.5652 65.9428 46.5234 65.9142L45.2892 65.2014C45.2636 65.1887 45.2353 65.182 45.2067 65.182C45.1781 65.182 45.1498 65.1887 45.1242 65.2014H45.1198ZM38.885 68.8006L37.818 69.4166C37.7718 69.443 37.774 69.487 37.818 69.5156L39.0522 70.2262C39.0784 70.2397 39.1074 70.2468 39.1369 70.2468C39.1664 70.2468 39.1954 70.2397 39.2216 70.2262L40.2886 69.6102C40.3348 69.5838 40.3326 69.5398 40.2886 69.5112L39.0544 68.8006C39.0288 68.7879 39.0005 68.7812 38.9719 68.7812C38.9433 68.7812 38.915 68.7879 38.8894 68.8006H38.885ZM40.4426 67.9008L39.3756 68.5168C39.3316 68.5432 39.3338 68.5872 39.3756 68.6158L40.6098 69.3264C40.636 69.3399 40.665 69.347 40.6945 69.347C40.724 69.347 40.753 69.3399 40.7792 69.3264L41.8462 68.7104C41.8924 68.684 41.888 68.64 41.8462 68.6114L40.612 67.9008C40.5864 67.8881 40.5581 67.8814 40.5295 67.8814C40.5009 67.8814 40.4726 67.8881 40.447 67.9008H40.4426ZM39.3052 74.2544L40.3722 73.6384C40.4162 73.612 40.414 73.568 40.3722 73.5416L39.1358 72.82C39.1096 72.8065 39.0806 72.7995 39.0511 72.7995C39.0216 72.7995 38.9926 72.8065 38.9664 72.82L37.8994 73.436C37.8532 73.4624 37.8576 73.5064 37.8994 73.535L39.1314 74.2478C39.1585 74.263 39.1887 74.2715 39.2197 74.2726C39.2507 74.2737 39.2815 74.2675 39.3096 74.2544H39.3052ZM30.1554 73.3304L28.9234 72.6198C28.8968 72.6063 28.8674 72.5993 28.8376 72.5993C28.8078 72.5993 28.7784 72.6063 28.7518 72.6198L27.6848 73.2358C27.6408 73.2622 27.643 73.3062 27.6848 73.3348L28.919 74.0454C28.9452 74.0589 28.9742 74.066 29.0037 74.066C29.0332 74.066 29.0622 74.0589 29.0884 74.0454L30.1554 73.4294C30.2126 73.403 30.2082 73.359 30.1598 73.3304H30.1554ZM32.4918 74.0168L31.2598 73.304C31.2331 73.291 31.2037 73.2842 31.174 73.2842C31.1443 73.2842 31.1149 73.291 31.0882 73.304L29.447 74.25C29.403 74.2764 29.4052 74.3204 29.447 74.349L30.6812 75.0618C30.7074 75.0753 30.7364 75.0824 30.7659 75.0824C30.7954 75.0824 30.8244 75.0753 30.8506 75.0618L32.4918 74.1158C32.56 74.0894 32.5446 74.0454 32.4962 74.0168H32.4918ZM28.2634 71.9554L27.0314 71.2426C27.0048 71.2291 26.9754 71.2221 26.9456 71.2221C26.9158 71.2221 26.8864 71.2291 26.8598 71.2426L25.5398 72.0016C25.4958 72.028 25.498 72.072 25.5398 72.0984L26.774 72.8112C26.8002 72.8247 26.8292 72.8318 26.8587 72.8318C26.8882 72.8318 26.9172 72.8247 26.9434 72.8112L28.2634 72.0522C28.3206 72.0258 28.3162 71.9818 28.2678 71.9554H28.2634ZM29.271 71.3724C29.2972 71.3859 29.3262 71.393 29.3557 71.393C29.3852 71.393 29.4142 71.3859 29.4404 71.3724L30.5074 70.7564C30.5514 70.73 30.5492 70.686 30.5074 70.6574L29.271 69.96C29.2448 69.9465 29.2158 69.9395 29.1863 69.9395C29.1568 69.9395 29.1278 69.9465 29.1016 69.96L28.0346 70.576C27.9906 70.6024 27.9928 70.6464 28.0346 70.675L29.271 71.3724ZM34.6698 74.8L33.44 74.085C33.4138 74.0715 33.3848 74.0645 33.3553 74.0645C33.3258 74.0645 33.2968 74.0715 33.2706 74.085L31.218 75.2686C31.174 75.295 31.1762 75.339 31.218 75.3676L32.4522 76.0782C32.4784 76.0917 32.5074 76.0988 32.5369 76.0988C32.5664 76.0988 32.5954 76.0917 32.6216 76.0782L34.672 74.8946C34.7204 74.8704 34.7182 74.8264 34.6698 74.8ZM35.6928 76.2432L34.4586 75.5304C34.4323 75.5174 34.4033 75.5107 34.3739 75.5107C34.3445 75.5107 34.3155 75.5174 34.2892 75.5304L32.9692 76.2872C32.9252 76.3136 32.9274 76.3576 32.9692 76.3862L34.2034 77.099C34.2297 77.112 34.2587 77.1188 34.2881 77.1188C34.3175 77.1188 34.3465 77.112 34.3728 77.099L35.6928 76.3422C35.7434 76.3136 35.7412 76.2696 35.6928 76.241V76.2432ZM40.865 64.68C40.8917 64.6931 40.9211 64.6998 40.9508 64.6998C40.9805 64.6998 41.0099 64.6931 41.0366 64.68L42.1036 64.064C42.1476 64.0376 42.1454 63.9936 42.1036 63.9672L40.8694 63.2544C40.8432 63.2409 40.8142 63.2339 40.7847 63.2339C40.7552 63.2339 40.7262 63.2409 40.7 63.2544L39.633 63.8704C39.5868 63.8968 39.5912 63.9408 39.633 63.9694L40.865 64.68ZM37.7476 66.4796C37.7742 66.4932 37.8036 66.5002 37.8334 66.5002C37.8632 66.5002 37.8926 66.4932 37.9192 66.4796L38.984 65.8636C39.0302 65.8394 39.028 65.7954 38.984 65.7668L37.7498 65.054C37.7235 65.041 37.6945 65.0343 37.6651 65.0343C37.6357 65.0343 37.6067 65.041 37.5804 65.054L36.52 65.67C36.4738 65.6964 36.476 65.7404 36.52 65.769L37.7476 66.4796ZM30.833 70.4704C30.8596 70.484 30.889 70.491 30.9188 70.491C30.9486 70.491 30.978 70.484 31.0046 70.4704L32.0694 69.8544C32.1156 69.828 32.1134 69.784 32.0694 69.7554L30.8352 69.0448C30.809 69.0313 30.78 69.0243 30.7505 69.0243C30.721 69.0243 30.692 69.0313 30.6658 69.0448L29.5988 69.6608C29.5526 69.6872 29.557 69.7312 29.5988 69.7598L30.833 70.4704ZM39.3074 65.5798C39.3337 65.5928 39.3627 65.5996 39.3921 65.5996C39.4215 65.5996 39.4505 65.5928 39.4768 65.5798L40.5438 64.9638C40.59 64.9374 40.5856 64.8934 40.5438 64.867L39.3118 64.1542C39.2852 64.1407 39.2558 64.1337 39.226 64.1337C39.1962 64.1337 39.1668 64.1407 39.1402 64.1542L38.0732 64.7702C38.0292 64.7966 38.0314 64.8406 38.0732 64.8692L39.3074 65.5798ZM36.19 67.3794C36.2162 67.3929 36.2452 67.4 36.2747 67.4C36.3042 67.4 36.3332 67.3929 36.3594 67.3794L37.4264 66.7656C37.4704 66.7392 37.4682 66.6952 37.4264 66.6666L36.1922 65.9538C36.166 65.9403 36.137 65.9333 36.1075 65.9333C36.078 65.9333 36.049 65.9403 36.0228 65.9538L34.9558 66.5698C34.9118 66.594 34.914 66.638 34.9558 66.6666L36.19 67.3794ZM36.5508 76.3554C36.5242 76.3419 36.4948 76.3349 36.465 76.3349C36.4352 76.3349 36.4058 76.3419 36.3792 76.3554L34.738 77.3036C34.694 77.33 34.6962 77.374 34.738 77.4004L35.9722 78.1132C35.9984 78.1267 36.0274 78.1338 36.0569 78.1338C36.0864 78.1338 36.1154 78.1267 36.1416 78.1132L37.7828 77.165C37.8268 77.1386 37.8246 77.0946 37.7828 77.066L36.5508 76.3554ZM33.9526 68.6708C33.9789 68.6838 34.0079 68.6906 34.0373 68.6906C34.0667 68.6906 34.0957 68.6838 34.122 68.6708L35.189 68.0548C35.233 68.0284 35.2308 67.9844 35.189 67.9558L33.9548 67.243C33.9285 67.23 33.8995 67.2233 33.8701 67.2233C33.8407 67.2233 33.8117 67.23 33.7854 67.243L32.7184 67.859C32.6744 67.8854 32.6766 67.9294 32.7184 67.9558L33.9526 68.6708ZM32.3928 69.5706C32.419 69.5841 32.448 69.5912 32.4775 69.5912C32.507 69.5912 32.536 69.5841 32.5622 69.5706L33.6292 68.9546C33.6754 68.9282 33.6732 68.8842 33.6292 68.8556L32.3972 68.1428C32.3705 68.1298 32.3411 68.123 32.3114 68.123C32.2817 68.123 32.2523 68.1298 32.2256 68.1428L31.1608 68.7588C31.1146 68.7852 31.1168 68.8292 31.1608 68.8556L32.3928 69.5706ZM65.4324 59.6706C65.4062 59.6571 65.3772 59.6501 65.3477 59.6501C65.3182 59.6501 65.2892 59.6571 65.263 59.6706L62.6362 61.1864C62.5922 61.2128 62.5944 61.2568 62.6362 61.2854L63.8704 61.9982C63.8967 62.0112 63.9257 62.018 63.9551 62.018C63.9845 62.018 64.0135 62.0112 64.0398 61.9982L66.671 60.5C66.7172 60.4736 66.715 60.4296 66.671 60.4032L65.4324 59.6706ZM61.985 61.6506C61.9587 61.6376 61.9297 61.6309 61.9003 61.6309C61.8709 61.6309 61.8419 61.6376 61.8156 61.6506L60.7486 62.2666C60.7046 62.293 60.7068 62.337 60.7486 62.3634L61.9828 63.0762C62.0091 63.0892 62.0381 63.096 62.0675 63.096C62.0969 63.096 62.1259 63.0892 62.1522 63.0762L63.2192 62.4602C63.2632 62.4338 63.261 62.3898 63.2192 62.3612L61.985 61.6506ZM40.865 73.3348L41.932 72.7188C41.9782 72.6924 41.976 72.6484 41.932 72.622L40.7 71.94C40.6738 71.9265 40.6448 71.9195 40.6153 71.9195C40.5858 71.9195 40.5568 71.9265 40.5306 71.94L39.4636 72.556C39.4174 72.5824 39.4196 72.6264 39.4636 72.655L40.6978 73.3678C40.7251 73.3788 40.7547 73.3834 40.784 73.3811C40.8134 73.3788 40.8419 73.3697 40.8672 73.3546L40.865 73.3348ZM58.8654 63.4524C58.8392 63.4389 58.8102 63.4319 58.7807 63.4319C58.7512 63.4319 58.7222 63.4389 58.696 63.4524L57.629 64.0684C57.5828 64.0948 57.5872 64.1388 57.629 64.1674L58.861 64.878C58.8876 64.8916 58.917 64.8986 58.9468 64.8986C58.9766 64.8986 59.006 64.8916 59.0326 64.878L60.0996 64.262C60.1436 64.2356 60.1414 64.1916 60.0996 64.163L58.8654 63.4524ZM66.99 58.762C66.9634 58.7485 66.934 58.7415 66.9042 58.7415C66.8744 58.7415 66.845 58.7485 66.8184 58.762L65.7514 59.378C65.7074 59.4044 65.7096 59.4484 65.7514 59.477L66.9856 60.1876C67.0118 60.2011 67.0408 60.2082 67.0703 60.2082C67.0998 60.2082 67.1288 60.2011 67.155 60.1876L68.222 59.5716C68.2682 59.5452 68.2638 59.5012 68.222 59.4726L66.99 58.762ZM69.7818 58.5728L66.7854 56.8436C66.7592 56.8301 66.7302 56.8231 66.7007 56.8231C66.6712 56.8231 66.6422 56.8301 66.616 56.8436L65.549 57.4596C65.5028 57.4838 65.5072 57.5278 65.549 57.5564L68.5432 59.2856C68.5698 59.2992 68.5992 59.3062 68.629 59.3062C68.6588 59.3062 68.6882 59.2992 68.7148 59.2856L69.7818 58.6696C69.8346 58.6652 69.8324 58.6212 69.784 58.5926L69.7818 58.5728ZM53.0398 66.814C53.0135 66.801 52.9845 66.7943 52.9551 66.7943C52.9257 66.7943 52.8967 66.801 52.8704 66.814L51.5504 67.5708C51.5042 67.5972 51.5086 67.6412 51.5504 67.6698L52.7824 68.3826C52.8091 68.3957 52.8385 68.4024 52.8682 68.4024C52.8979 68.4024 52.9273 68.3957 52.954 68.3826L54.274 67.6258C54.318 67.5994 54.3158 67.5554 54.274 67.5268L53.0398 66.814ZM56.98 64.5612C56.9538 64.5477 56.9248 64.5407 56.8953 64.5407C56.8658 64.5407 56.8368 64.5477 56.8106 64.5612L55.1694 65.5094C55.1254 65.5358 55.1276 65.5798 55.1694 65.6084L56.4036 66.319C56.4298 66.3325 56.4588 66.3396 56.4883 66.3396C56.5178 66.3396 56.5468 66.3325 56.573 66.319L58.2142 65.3708C58.2582 65.3444 58.256 65.3004 58.2142 65.274L56.98 64.5612ZM49.4318 68.9194C49.4056 68.9059 49.3766 68.8989 49.3471 68.8989C49.3176 68.8989 49.2886 68.9059 49.2624 68.9194L40.4822 73.9794C40.436 74.0058 40.4404 74.0498 40.4822 74.0784L41.7142 74.7912C41.7409 74.8043 41.7703 74.811 41.8 74.811C41.8297 74.811 41.8591 74.8043 41.8858 74.7912L50.6638 69.7312C50.71 69.7048 50.7078 69.6608 50.6638 69.6344L49.4318 68.9194ZM40.161 74.272C40.1344 74.2585 40.105 74.2515 40.0752 74.2515C40.0454 74.2515 40.016 74.2585 39.9894 74.272L38.6694 75.0288C38.6254 75.0552 38.6276 75.0992 38.6694 75.1278L39.9036 75.8384C39.9298 75.8519 39.9588 75.859 39.9883 75.859C40.0178 75.859 40.0468 75.8519 40.073 75.8384L41.393 75.0794C41.4392 75.0552 41.4348 75.0112 41.393 74.9826L40.161 74.272ZM51.238 67.8766C51.2114 67.8631 51.182 67.8561 51.1522 67.8561C51.1224 67.8561 51.093 67.8631 51.0664 67.8766L49.7464 68.6334C49.7002 68.6598 49.7024 68.7038 49.7464 68.7324L50.9806 69.443C51.0068 69.4565 51.0358 69.4636 51.0653 69.4636C51.0948 69.4636 51.1238 69.4565 51.15 69.443L52.47 68.684C52.5162 68.6598 52.5118 68.6158 52.47 68.5872L51.238 67.8766ZM38.3548 75.3148C38.3286 75.3013 38.2996 75.2943 38.2701 75.2943C38.2406 75.2943 38.2116 75.3013 38.1854 75.3148L36.8654 76.0738C36.8192 76.1002 36.8236 76.1442 36.8654 76.1728L38.0974 76.8834C38.124 76.897 38.1534 76.904 38.1832 76.904C38.213 76.904 38.2424 76.897 38.269 76.8834L39.589 76.1244C39.6352 76.098 39.633 76.054 39.589 76.0276L38.3548 75.3148ZM54.8548 65.7932C54.8282 65.7797 54.7988 65.7727 54.769 65.7727C54.7392 65.7727 54.7098 65.7797 54.6832 65.7932L53.3632 66.5522C53.317 66.5786 53.3192 66.6226 53.3632 66.649L54.5974 67.3618C54.6237 67.3748 54.6527 67.3816 54.6821 67.3816C54.7115 67.3816 54.7405 67.3748 54.7668 67.3618L56.0868 66.6028C56.133 66.5764 56.1286 66.5324 56.0868 66.5038L54.8548 65.7932ZM60.434 62.5702C60.4073 62.5572 60.3779 62.5504 60.3482 62.5504C60.3185 62.5504 60.2891 62.5572 60.2624 62.5702L59.1976 63.1862C59.1514 63.2126 59.1536 63.2566 59.1976 63.283L60.4318 63.9958C60.458 64.0093 60.487 64.0164 60.5165 64.0164C60.546 64.0164 60.575 64.0093 60.6012 63.9958L61.6682 63.3798C61.7144 63.3534 61.7122 63.3094 61.6682 63.2808L60.434 62.5702ZM63.8506 60.0908L64.9154 59.4748C64.9616 59.4484 64.9594 59.4044 64.9154 59.3758L63.6812 58.6652C63.655 58.6517 63.626 58.6447 63.5965 58.6447C63.567 58.6447 63.538 58.6517 63.5118 58.6652L62.4448 59.2812C62.3986 59.3076 62.4008 59.3516 62.4448 59.3802L63.6768 60.0908C63.7028 60.1036 63.7314 60.1103 63.7604 60.1103C63.7894 60.1103 63.818 60.1036 63.844 60.0908H63.8506ZM56.8788 60.0446L57.9458 59.4286C57.992 59.4044 57.9876 59.3604 57.9458 59.3318L56.7138 58.619C56.6871 58.606 56.6577 58.5992 56.628 58.5992C56.5983 58.5992 56.5689 58.606 56.5422 58.619L55.4752 59.235C55.4312 59.2614 55.4334 59.3054 55.4752 59.334L56.7094 60.0468C56.7349 60.0589 56.7628 60.065 56.7911 60.0646C56.8193 60.0642 56.847 60.0574 56.8722 60.0446H56.8788ZM53.3588 66.154L56.4762 64.3544C56.5202 64.328 56.518 64.284 56.4762 64.2554L55.22 63.5426C55.1937 63.5296 55.1647 63.5229 55.1353 63.5229C55.1059 63.5229 55.0769 63.5296 55.0506 63.5426L51.931 65.34C51.8848 65.3664 51.887 65.4104 51.931 65.439L53.163 66.1496C53.1901 66.165 53.2205 66.1734 53.2515 66.1741C53.2826 66.1749 53.3134 66.168 53.3412 66.154H53.3588ZM62.1324 60.9862C62.1586 60.9997 62.1876 61.0068 62.2171 61.0068C62.2466 61.0068 62.2756 60.9997 62.3018 60.9862L63.3688 60.3702C63.4128 60.3438 63.4106 60.2998 63.3688 60.2712L62.1346 59.5606C62.1084 59.5471 62.0794 59.5401 62.0499 59.5401C62.0204 59.5401 61.9914 59.5471 61.9652 59.5606L60.8982 60.1766C60.8542 60.203 60.8564 60.247 60.8982 60.2756L62.1324 60.9862ZM60.5396 59.9742L61.6066 59.3582C61.6506 59.3318 61.6484 59.2878 61.6066 59.2592L60.3724 58.5464C60.3462 58.5329 60.3172 58.5259 60.2877 58.5259C60.2582 58.5259 60.2292 58.5329 60.203 58.5464L59.136 59.1624C59.092 59.1866 59.0942 59.2306 59.136 59.2592L60.3702 59.972C60.394 59.9827 60.4198 59.9884 60.4459 59.9888C60.472 59.9892 60.4979 59.9842 60.522 59.9742H60.5396ZM51.799 67.0538L52.866 66.4378C52.91 66.4114 52.9078 66.3674 52.866 66.341L51.6318 65.6282C51.6056 65.6147 51.5766 65.6077 51.5471 65.6077C51.5176 65.6077 51.4886 65.6147 51.4624 65.6282L50.3954 66.2442C50.3514 66.2706 50.3536 66.3146 50.3954 66.3432L51.6296 67.056C51.6537 67.066 51.6796 67.071 51.7057 67.0706C51.7318 67.0702 51.7576 67.0645 51.7814 67.0538H51.799ZM58.685 62.9772C58.7112 62.9907 58.7402 62.9978 58.7697 62.9978C58.7992 62.9978 58.8282 62.9907 58.8544 62.9772L59.9214 62.3612C59.9676 62.3348 59.9654 62.2908 59.9214 62.2644L58.6872 61.5516C58.6609 61.5386 58.6319 61.5319 58.6025 61.5319C58.5731 61.5319 58.5441 61.5386 58.5178 61.5516L57.4508 62.1676C57.4046 62.194 57.4068 62.238 57.4508 62.2666L58.685 62.9772ZM44.0044 71.5572L45.0714 70.9412C45.1154 70.9148 45.1132 70.8708 45.0714 70.8422L43.8372 70.1316C43.811 70.1181 43.782 70.1111 43.7525 70.1111C43.723 70.1111 43.694 70.1181 43.6678 70.1316L42.6008 70.7476C42.5546 70.774 42.559 70.818 42.6008 70.8466L43.8328 71.5572C43.8572 71.5677 43.8835 71.5729 43.91 71.5725C43.9366 71.5721 43.9627 71.5662 43.9868 71.555L44.0044 71.5572ZM45.562 70.6574L46.629 70.0414C46.6752 70.015 46.673 69.971 46.629 69.9424L45.397 69.2296C45.3707 69.2166 45.3417 69.2099 45.3123 69.2099C45.2829 69.2099 45.2539 69.2166 45.2276 69.2296L44.1606 69.8456C44.1144 69.872 44.1166 69.916 44.1606 69.9424L45.3948 70.6552C45.4177 70.665 45.4424 70.6701 45.4674 70.6701C45.4923 70.6701 45.517 70.665 45.54 70.6552L45.562 70.6574ZM42.4446 72.457L43.5116 71.841C43.5578 71.8146 43.5534 71.7706 43.5116 71.742L42.2796 71.0314C42.253 71.0179 42.2236 71.0109 42.1938 71.0109C42.164 71.0109 42.1346 71.0179 42.108 71.0314L41.041 71.6474C40.997 71.6738 40.9992 71.7178 41.041 71.7464L42.2752 72.457C42.2992 72.4674 42.3252 72.4726 42.3513 72.4722C42.3775 72.4719 42.4033 72.4659 42.427 72.4548L42.4446 72.457ZM48.664 68.86L49.7288 68.2462C49.775 68.2198 49.7728 68.1758 49.7288 68.1472L48.4946 67.4344C48.4684 67.4209 48.4394 67.4139 48.4099 67.4139C48.3804 67.4139 48.3514 67.4209 48.3252 67.4344L47.2582 68.0504C47.212 68.0746 47.2164 68.1186 47.2582 68.1472L48.4902 68.86C48.5171 68.8739 48.5469 68.8812 48.5771 68.8812C48.6073 68.8812 48.6371 68.8739 48.664 68.86ZM47.1042 69.762L48.1712 69.146C48.2152 69.1196 48.213 69.0756 48.1712 69.047L46.937 68.3342C46.9107 68.3212 46.8817 68.3145 46.8523 68.3145C46.8229 68.3145 46.7939 68.3212 46.7676 68.3342L45.7006 68.9502C45.6566 68.9766 45.6588 69.0206 45.7006 69.047L46.9348 69.7598C46.9615 69.7722 46.9906 69.7782 47.02 69.7774C47.0494 69.7766 47.0782 69.7691 47.1042 69.7554V69.762ZM50.2216 67.9602L51.2886 67.3442C51.3348 67.3178 51.3304 67.2738 51.2886 67.2474L50.0566 66.5346C50.0299 66.5216 50.0005 66.5148 49.9708 66.5148C49.9411 66.5148 49.9117 66.5216 49.885 66.5346L48.8202 67.1506C48.774 67.177 48.7762 67.221 48.8202 67.2496L50.0544 67.9624C50.0811 67.9737 50.11 67.9788 50.139 67.9773C50.168 67.9758 50.1962 67.9677 50.2216 67.9536V67.9602ZM57.354 54.6458C57.3806 54.6594 57.41 54.6664 57.4398 54.6664C57.4696 54.6664 57.499 54.6594 57.5256 54.6458L58.5926 54.0298C58.6366 54.0056 58.6344 53.9616 58.5926 53.933L58.2648 53.7438C58.2382 53.7303 58.2088 53.7233 58.179 53.7233C58.1492 53.7233 58.1198 53.7303 58.0932 53.7438L57.0262 54.3598C56.9822 54.3862 56.9844 54.4302 57.0262 54.4588L57.354 54.6458ZM49.6848 59.5958C49.711 59.6093 49.74 59.6164 49.7695 59.6164C49.799 59.6164 49.828 59.6093 49.8542 59.5958L50.9212 58.9798C50.9652 58.9534 50.963 58.9094 50.9212 58.8808L49.687 58.1702C49.6608 58.1567 49.6318 58.1497 49.6023 58.1497C49.5728 58.1497 49.5438 58.1567 49.5176 58.1702L48.4506 58.7862C48.4066 58.8126 48.4088 58.8566 48.4506 58.8852L49.6848 59.5958ZM52.8 57.7896C52.8262 57.8031 52.8552 57.8102 52.8847 57.8102C52.9142 57.8102 52.9432 57.8031 52.9694 57.7896L54.0364 57.1736C54.0826 57.1472 54.0782 57.1032 54.0364 57.0746L52.8044 56.3618C52.7777 56.3488 52.7483 56.342 52.7186 56.342C52.6889 56.342 52.6595 56.3488 52.6328 56.3618L51.5658 56.9778C51.5218 57.0042 51.524 57.0482 51.5658 57.0746L52.8 57.7896ZM47.7774 60.6892C47.8041 60.7023 47.8335 60.709 47.8632 60.709C47.8929 60.709 47.9223 60.7023 47.949 60.6892L49.016 60.0732C49.06 60.0468 49.0578 60.0028 49.016 59.9742L47.7818 59.2614C47.7555 59.2484 47.7265 59.2417 47.6971 59.2417C47.6677 59.2417 47.6387 59.2484 47.6124 59.2614L46.5454 59.8774C46.4992 59.9016 46.5036 59.9456 46.5454 59.9742L47.7774 60.6892ZM51.2402 58.6894C51.2668 58.703 51.2962 58.71 51.326 58.71C51.3558 58.71 51.3852 58.703 51.4118 58.6894L52.4766 58.0734C52.5228 58.047 52.5206 58.003 52.4766 57.9744L51.2424 57.2638C51.2162 57.2503 51.1872 57.2433 51.1577 57.2433C51.1282 57.2433 51.0992 57.2503 51.073 57.2638L50.006 57.8798C49.9598 57.9062 49.962 57.9502 50.006 57.9788L51.2402 58.6894ZM44.66 62.48C44.6862 62.4935 44.7152 62.5006 44.7447 62.5006C44.7742 62.5006 44.8032 62.4935 44.8294 62.48L45.8964 61.864C45.9426 61.8376 45.9404 61.7936 45.8964 61.765L44.66 61.0676C44.6338 61.0541 44.6048 61.0471 44.5753 61.0471C44.5458 61.0471 44.5168 61.0541 44.4906 61.0676L43.4236 61.6836C43.3774 61.71 43.3796 61.754 43.4236 61.7826L44.66 62.48ZM46.222 61.6C46.2482 61.6135 46.2772 61.6206 46.3067 61.6206C46.3362 61.6206 46.3652 61.6135 46.3914 61.6L47.4584 60.984C47.5046 60.9576 47.5002 60.9136 47.4584 60.885L46.2242 60.1722C46.1979 60.1592 46.1689 60.1525 46.1395 60.1525C46.1101 60.1525 46.0811 60.1592 46.0548 60.1722L44.9878 60.7882C44.9438 60.8146 44.946 60.8586 44.9878 60.885L46.222 61.6ZM54.2366 56.4498C54.2628 56.4633 54.2918 56.4704 54.3213 56.4704C54.3508 56.4704 54.3798 56.4633 54.406 56.4498L55.473 55.8338C55.5192 55.8074 55.517 55.7634 55.473 55.7348L55.1452 55.5456C55.119 55.5321 55.09 55.5251 55.0605 55.5251C55.031 55.5251 55.002 55.5321 54.9758 55.5456L53.9088 56.1616C53.8626 56.188 53.867 56.232 53.9088 56.2606L54.2366 56.4498ZM58.9138 53.7504C58.9401 53.7634 58.9691 53.7702 58.9985 53.7702C59.0279 53.7702 59.0569 53.7634 59.0832 53.7504L60.1502 53.1344C60.1964 53.108 60.1942 53.064 60.1502 53.0376L59.8224 52.8484C59.7962 52.8349 59.7672 52.8279 59.7377 52.8279C59.7082 52.8279 59.6792 52.8349 59.653 52.8484L58.586 53.4644C58.5398 53.4908 58.5442 53.5348 58.586 53.5634L58.9138 53.7504ZM61.5054 55.2464C61.5317 55.2594 61.5607 55.2662 61.5901 55.2662C61.6195 55.2662 61.6485 55.2594 61.6748 55.2464L62.7418 54.6304C62.788 54.604 62.7836 54.56 62.7418 54.5336L61.5076 53.8208C61.4814 53.8073 61.4524 53.8003 61.4229 53.8003C61.3934 53.8003 61.3644 53.8073 61.3382 53.8208L60.2712 54.4368C60.2272 54.4632 60.2294 54.5072 60.2712 54.5358L61.5054 55.2464ZM65.4016 59.2064L66.4686 58.5904C66.5148 58.564 66.5104 58.52 66.4686 58.4914L65.2366 57.7786C65.2099 57.7656 65.1805 57.7588 65.1508 57.7588C65.1211 57.7588 65.0917 57.7656 65.065 57.7786L63.998 58.3946C63.954 58.421 63.9562 58.465 63.998 58.4914L65.2322 59.2042C65.2594 59.2157 65.289 59.2206 65.3185 59.2183C65.348 59.216 65.3765 59.2066 65.4016 59.191V59.2064ZM55.7964 55.5544C55.8227 55.5674 55.8517 55.5742 55.8811 55.5742C55.9105 55.5742 55.9395 55.5674 55.9658 55.5544L57.0328 54.9384C57.0768 54.912 57.0746 54.868 57.0328 54.8394L56.705 54.6502C56.6788 54.6367 56.6498 54.6297 56.6203 54.6297C56.5908 54.6297 56.5618 54.6367 56.5356 54.6502L55.4686 55.2662C55.4224 55.2926 55.4246 55.3366 55.4686 55.3652L55.7964 55.5544ZM43.1024 63.404C43.129 63.4176 43.1584 63.4246 43.1882 63.4246C43.218 63.4246 43.2474 63.4176 43.274 63.404L44.341 62.788C44.385 62.7616 44.3828 62.7176 44.341 62.689L43.1068 61.9784C43.0806 61.9649 43.0516 61.9579 43.0221 61.9579C42.9926 61.9579 42.9636 61.9649 42.9374 61.9784L41.8704 62.5944C41.8242 62.6208 41.8286 62.6648 41.8704 62.6934L43.1024 63.404Z" fill="#455A64"/>
<path d="M50.017 72.7476L60.544 66.6602C60.722 66.5701 60.9187 66.5232 61.1182 66.5232C61.3177 66.5232 61.5144 66.5701 61.6924 66.6602L67.7292 70.145C68.046 70.3298 68.046 70.6268 67.7292 70.805L57.2 76.8946C57.0223 76.9857 56.8255 77.0333 56.6258 77.0333C56.4261 77.0333 56.2293 76.9857 56.0516 76.8946L50.0148 73.4098C49.7002 73.2272 49.7002 72.9302 50.017 72.7476Z" fill="#263238"/>
<path d="M52.3182 19.1886V20.7968L28.358 34.6304C28.193 34.725 28.0588 34.648 28.0588 34.4566L28.0764 33.8802C27.9336 33.8232 27.7864 33.7776 27.6364 33.7438L20.46 37.8864C20.3726 37.9438 20.2998 38.0208 20.2475 38.1114C20.1952 38.2019 20.1647 38.3034 20.1586 38.4078V39.015C20.1536 39.1194 20.1238 39.2211 20.0718 39.3117C20.0198 39.4024 19.947 39.4794 19.8594 39.5364L19.0322 40.0138V38.4078C19.0372 38.3034 19.067 38.2017 19.119 38.111C19.171 38.0204 19.2438 37.9434 19.3314 37.8864L52.019 19.0148C52.184 18.9202 52.3182 18.9972 52.3182 19.1886Z" fill="#005F31"/>
<path d="M52.3204 43.2699C52.3148 43.3741 52.2845 43.4755 52.2321 43.5657C52.1798 43.656 52.1067 43.7325 52.019 43.7891L19.3314 62.6607C19.1664 62.7575 19.0322 62.6783 19.0322 62.4869V40.0139L19.8594 39.5365C20.0244 39.4419 20.2994 37.9833 20.46 37.8865L27.6364 33.7439C27.8014 33.6493 28.193 34.7251 28.358 34.6239L52.3182 20.7969V43.2699H52.3204Z" fill="#EBEBEB"/>
<path d="M20.46 46.1737L34.8172 37.8775C34.9822 37.7807 35.1164 37.86 35.1164 38.0514V52.1622C35.1114 52.2665 35.0816 52.3682 35.0296 52.4589C34.9776 52.5495 34.9048 52.6265 34.8172 52.6836L20.46 60.9797C20.295 61.0743 20.1608 60.9974 20.1608 60.806V46.6951C20.1658 46.5908 20.1956 46.4891 20.2476 46.3984C20.2996 46.3078 20.3724 46.2308 20.46 46.1737Z" fill="#FAFAFA"/>
<path d="M20.46 42.447L50.8926 24.8778C51.0576 24.781 51.1918 24.8602 51.1918 25.0516V27.1658C51.1864 27.2698 51.1565 27.3711 51.1045 27.4613C51.0525 27.5515 50.9799 27.6282 50.8926 27.685L20.46 45.2564C20.295 45.351 20.1608 45.274 20.1608 45.0826V42.9684C20.1658 42.864 20.1956 42.7623 20.2476 42.6716C20.2996 42.581 20.3724 42.504 20.46 42.447Z" fill="#455A64"/>
<path d="M39.908 32.8947V33.4535C39.908 33.5701 39.9894 33.6163 40.0884 33.5591L48.9346 28.4507V27.4739L40.0884 32.5823C40.036 32.6166 39.9923 32.6628 39.961 32.717C39.9297 32.7713 39.9115 32.8321 39.908 32.8947Z" fill="#FAFAFA"/>
<path d="M49.8828 26.926C49.984 26.8688 50.0632 26.926 50.0632 27.0294V27.5904C50.06 27.653 50.042 27.714 50.0106 27.7683C49.9793 27.8226 49.9354 27.8687 49.8828 27.9028L48.9346 28.4506V27.4738L49.8828 26.926Z" fill="#005F31"/>
<path d="M49.8146 27.6937L49.7068 27.6607C49.7182 27.6161 49.7241 27.5703 49.7244 27.5243C49.7284 27.4824 49.7216 27.4402 49.7046 27.4017C49.6877 27.3632 49.6612 27.3297 49.6276 27.3043C49.6043 27.2903 49.5777 27.283 49.5506 27.283C49.5235 27.283 49.4969 27.2903 49.4736 27.3043C49.4046 27.3549 49.3487 27.4212 49.3105 27.4977C49.2722 27.5742 49.2527 27.6588 49.2536 27.7443C49.25 27.7861 49.257 27.8282 49.2739 27.8666C49.2908 27.9051 49.3171 27.9387 49.3504 27.9643C49.3713 27.9758 49.3948 27.9818 49.4186 27.9819C49.449 27.981 49.4787 27.9719 49.5044 27.9555C49.5834 27.9021 49.6435 27.8251 49.676 27.7355L49.7816 27.7685H49.7926C49.8009 27.7689 49.809 27.7665 49.8158 27.7617C49.8226 27.7569 49.8276 27.75 49.83 27.7421C49.8335 27.7335 49.8339 27.724 49.8311 27.7151C49.8283 27.7063 49.8224 27.6987 49.8146 27.6937ZM49.4736 27.8961C49.4623 27.9029 49.4494 27.9065 49.4362 27.9065C49.423 27.9065 49.4101 27.9029 49.3988 27.8961C49.3774 27.8761 49.361 27.8513 49.3511 27.8238C49.3412 27.7963 49.3379 27.7667 49.3416 27.7377C49.3407 27.6669 49.3556 27.5967 49.3853 27.5324C49.415 27.468 49.4587 27.4112 49.5132 27.3659C49.5279 27.3571 49.5445 27.3519 49.5616 27.3505C49.5701 27.3473 49.5795 27.3473 49.588 27.3505C49.6254 27.3703 49.6452 27.4297 49.6452 27.5067C49.6499 27.5806 49.6368 27.6546 49.6069 27.7223C49.577 27.7901 49.5313 27.8497 49.4736 27.8961Z" fill="#FAFAFA"/>
<path d="M52.3182 20.7969V22.7527L19.0322 41.9697V40.0139L19.6504 39.6575C19.8154 39.5607 19.8704 39.4155 19.9496 39.1361L20.1586 38.4079C20.1707 38.305 20.2037 38.2058 20.2555 38.1161C20.3074 38.0265 20.3769 37.9483 20.46 37.8865L27.6364 33.7439C27.6683 33.7154 27.7067 33.6951 27.7483 33.6848C27.7898 33.6745 27.8332 33.6744 27.8748 33.6846C27.9163 33.6948 27.9548 33.7149 27.9869 33.7432C28.0189 33.7716 28.0436 33.8073 28.0588 33.8473L28.3162 34.3137C28.4108 34.4765 28.457 34.5733 28.622 34.4765L52.3182 20.7969Z" fill="#E6E6E6"/>
<path d="M50.9102 20.1983C51.1302 20.0773 51.2886 20.1741 51.2886 20.4183C51.2822 20.5504 51.2446 20.6791 51.1788 20.7938C51.113 20.9086 51.021 21.006 50.9102 21.0783C50.6902 21.1993 50.5296 21.1003 50.5296 20.8583C50.5357 20.7259 50.5734 20.5968 50.6396 20.482C50.7058 20.3672 50.7986 20.2699 50.9102 20.1983Z" fill="#455A64"/>
<path d="M49.5462 20.9837C49.7552 20.8627 49.9246 20.9595 49.9246 21.2037C49.9182 21.3358 49.8806 21.4645 49.8148 21.5792C49.749 21.694 49.657 21.7914 49.5462 21.8637C49.3262 21.9847 49.1678 21.8857 49.1678 21.6437C49.174 21.5115 49.2115 21.3828 49.2773 21.268C49.3431 21.1532 49.4353 21.0558 49.5462 20.9837Z" fill="#455A64"/>
<path d="M48.18 21.7801C48.389 21.6591 48.5584 21.7559 48.5584 22.0001C48.552 22.1322 48.5144 22.2609 48.4486 22.3756C48.3828 22.4903 48.2908 22.5878 48.18 22.6601C47.96 22.7811 47.8016 22.6821 47.8016 22.4401C47.8078 22.3079 47.8453 22.1792 47.9111 22.0644C47.9769 21.9496 48.0691 21.8522 48.18 21.7801Z" fill="#455A64"/>
<path opacity="0.5" d="M20.4116 40.1567L19.9386 40.4273L20.119 40.0819C20.1259 40.0691 20.1296 40.0547 20.1296 40.0401C20.1296 40.0256 20.1259 40.0112 20.119 39.9983C20.1036 39.9807 20.0794 39.9983 20.064 40.0225L19.8088 40.5153V40.5329C19.8077 40.5417 19.8077 40.5506 19.8088 40.5593C19.8076 40.5659 19.8076 40.5726 19.8088 40.5791V40.5901L20.064 40.7881C20.0681 40.7903 20.0726 40.7914 20.0772 40.7914C20.0818 40.7914 20.0863 40.7903 20.0904 40.7881C20.1025 40.7779 20.1123 40.7651 20.119 40.7507C20.1264 40.7384 20.1302 40.7244 20.1302 40.71C20.1302 40.6957 20.1264 40.6816 20.119 40.6693L19.9386 40.5329L20.4116 40.2601C20.4234 40.2501 20.4329 40.2377 20.4393 40.2236C20.4458 40.2095 20.4491 40.1942 20.449 40.1787C20.46 40.1589 20.4314 40.1435 20.4116 40.1567Z" fill="#455A64"/>
<path opacity="0.5" d="M20.8054 39.928L21.2784 39.6552L21.098 39.5166C21.0826 39.5056 21.0804 39.4682 21.098 39.4374C21.1156 39.4066 21.1354 39.389 21.1508 39.4L21.4082 39.598C21.4094 39.6053 21.4094 39.6127 21.4082 39.62C21.4092 39.6288 21.4092 39.6377 21.4082 39.6464C21.4088 39.6523 21.4088 39.6582 21.4082 39.664L21.1508 40.1568C21.1451 40.1682 21.1368 40.178 21.1266 40.1854C21.1224 40.1885 21.1174 40.1901 21.1123 40.1901C21.1071 40.1901 21.1021 40.1885 21.098 40.1854C21.0911 40.1726 21.0874 40.1582 21.0874 40.1436C21.0874 40.129 21.0911 40.1147 21.098 40.1018L21.2784 39.7542L20.8054 40.0402C20.7834 40.0534 20.768 40.0402 20.768 40.005C20.7681 39.9902 20.7715 39.9756 20.7779 39.9623C20.7844 39.9489 20.7938 39.9372 20.8054 39.928Z" fill="#455A64"/>
<path opacity="0.5" d="M22.3542 38.5684C22.3542 38.5398 22.3256 38.5442 22.3146 38.5684L22.2486 38.7268C22.1386 38.7136 22.0044 38.8214 21.9142 39.0128C21.7976 39.2614 21.7976 39.554 21.9142 39.6728C21.9435 39.7005 21.9816 39.717 22.0218 39.7194C22.062 39.7218 22.1018 39.71 22.1342 39.686C22.2314 39.6239 22.3079 39.5343 22.3542 39.4286C22.3696 39.3956 22.3696 39.3582 22.3542 39.345C22.3388 39.3318 22.3146 39.345 22.3014 39.3758C22.2134 39.5606 22.0814 39.642 21.9846 39.5584C21.9404 39.485 21.917 39.401 21.917 39.3153C21.917 39.2296 21.9404 39.1456 21.9846 39.0722C22.0462 38.9402 22.1364 38.8522 22.2046 38.8522L22.1562 38.971C22.143 39.0018 22.1562 39.0326 22.1738 39.0194L22.3674 38.894C22.3748 38.8874 22.3806 38.8793 22.3844 38.8701C22.3882 38.861 22.3899 38.8511 22.3894 38.8412L22.3542 38.5684Z" fill="#455A64"/>
<path opacity="0.5" d="M27.4274 34.637L27.6012 34.2718C27.611 34.2547 27.6162 34.2354 27.6162 34.2157C27.6162 34.196 27.611 34.1766 27.6012 34.1596C27.5792 34.1398 27.5462 34.1596 27.5264 34.2014L27.3548 34.5666L27.1832 34.3994C27.1612 34.3818 27.1304 34.3994 27.1084 34.4434C27.0985 34.4604 27.0934 34.4798 27.0934 34.4995C27.0934 34.5192 27.0985 34.5385 27.1084 34.5556L27.28 34.7228L27.1084 35.0858C27.0984 35.1032 27.0931 35.1229 27.0931 35.143C27.0931 35.1631 27.0984 35.1828 27.1084 35.2002C27.1139 35.204 27.1204 35.206 27.1271 35.206C27.1338 35.206 27.1403 35.204 27.1458 35.2002C27.162 35.1882 27.1748 35.1723 27.1832 35.154L27.3548 34.791L27.5264 34.956C27.5288 34.9584 27.5318 34.9604 27.535 34.9617C27.5382 34.9631 27.5416 34.9637 27.5451 34.9637C27.5486 34.9637 27.552 34.9631 27.5552 34.9617C27.5584 34.9604 27.5613 34.9584 27.5638 34.956C27.5804 34.9455 27.5935 34.9301 27.6012 34.912C27.6112 34.8946 27.6165 34.8749 27.6165 34.8548C27.6165 34.8347 27.6112 34.815 27.6012 34.7976L27.4274 34.637Z" fill="#455A64"/>
<path d="M22.9812 39.0173V38.4079C22.9862 38.3035 23.016 38.2018 23.068 38.1111C23.12 38.0205 23.1928 37.9435 23.2804 37.8865L50.3272 22.2797C50.4922 22.1851 50.6264 22.2621 50.6264 22.4535V23.0629C50.6214 23.1673 50.5916 23.269 50.5396 23.3596C50.4876 23.4502 50.4148 23.5272 50.3272 23.5843L23.2804 39.1911C23.1154 39.2857 22.9812 39.2087 22.9812 39.0173Z" fill="#FAFAFA"/>
<path d="M50.16 22.6031L50.2392 22.7703C50.2427 22.7729 50.2469 22.7744 50.2513 22.7744C50.2557 22.7744 50.2599 22.7729 50.2634 22.7703L50.4416 22.7021C50.468 22.7021 50.4812 22.7307 50.4592 22.7681L50.3316 23.0079C50.3276 23.023 50.3276 23.0389 50.3316 23.0541L50.3624 23.2741C50.3624 23.3071 50.336 23.3533 50.3118 23.3511L50.1534 23.3313C50.1471 23.331 50.1409 23.3324 50.1354 23.3356C50.13 23.3387 50.1255 23.3433 50.1226 23.3489L49.9642 23.5513C49.9378 23.5821 49.9092 23.5711 49.9136 23.5315L49.9444 23.2807C49.9473 23.2752 49.9488 23.2692 49.9488 23.2631C49.9488 23.2569 49.9473 23.2509 49.9444 23.2455L49.8146 23.1531C49.7948 23.1377 49.8146 23.0849 49.8344 23.0629L50.0104 22.9287C50.0233 22.9178 50.0325 22.9032 50.0368 22.8869L50.116 22.6295C50.1028 22.5965 50.138 22.5767 50.16 22.6031Z" stroke="#E0E0E0" stroke-width="0.75" stroke-miterlimit="10"/>
<g opacity="0.5">
<path d="M50.9806 22.2069C50.9623 22.2064 50.9444 22.2014 50.9287 22.1921C50.9129 22.1829 50.8997 22.1698 50.8904 22.1541C50.8769 22.1298 50.8734 22.1012 50.8808 22.0744C50.8883 22.0477 50.9059 22.0249 50.93 22.0111L51.7748 21.5227C51.7983 21.5131 51.8245 21.5123 51.8485 21.5205C51.8726 21.5287 51.8929 21.5452 51.9057 21.5671C51.9185 21.5891 51.923 21.6149 51.9184 21.6398C51.9137 21.6648 51.9003 21.6872 51.8804 21.7031L51.04 22.1915C51.0225 22.2032 51.0016 22.2087 50.9806 22.2069Z" fill="#455A64"/>
<path d="M50.9806 22.6952C50.9624 22.6947 50.9445 22.6897 50.9287 22.6804C50.9129 22.6712 50.8998 22.6581 50.8904 22.6424C50.8838 22.6305 50.8795 22.6175 50.8779 22.604C50.8763 22.5905 50.8774 22.5768 50.8811 22.5637C50.8847 22.5507 50.891 22.5385 50.8994 22.5278C50.9078 22.5171 50.9182 22.5082 50.93 22.5016L51.7748 22.011C51.7984 22.0014 51.8245 22.0006 51.8486 22.0088C51.8726 22.017 51.8929 22.0335 51.9057 22.0554C51.9186 22.0773 51.9231 22.1031 51.9184 22.1281C51.9138 22.1531 51.9003 22.1755 51.8804 22.1914L51.04 22.682C51.0219 22.6919 51.0013 22.6964 50.9806 22.6952Z" fill="#455A64"/>
<path d="M50.9806 23.1837C50.9577 23.1837 50.9355 23.1761 50.9174 23.1622C50.8993 23.1482 50.8863 23.1286 50.8805 23.1064C50.8747 23.0843 50.8765 23.0609 50.8854 23.0398C50.8944 23.0188 50.9101 23.0013 50.93 22.9901L51.7748 22.5017C51.7865 22.4943 51.7996 22.4894 51.8133 22.4873C51.827 22.4852 51.841 22.4859 51.8544 22.4894C51.8678 22.4929 51.8804 22.4991 51.8913 22.5077C51.9022 22.5162 51.9112 22.5269 51.9178 22.5391C51.9315 22.5631 51.9353 22.5915 51.9283 22.6182C51.9213 22.645 51.9041 22.6679 51.8804 22.6821L51.04 23.1705C51.0218 23.1804 51.0013 23.185 50.9806 23.1837Z" fill="#455A64"/>
</g>
<path d="M27.0358 49.5C28.2436 48.2702 28.5538 47.7114 28.5538 47.2186C28.5538 46.7258 28.347 46.4156 27.7046 46.7786C27.2509 47.0321 26.911 47.4491 26.7542 47.9446C26.714 48.0487 26.6508 48.1424 26.5693 48.2186C26.4877 48.2948 26.39 48.3516 26.2834 48.3846L25.4452 48.5694C25.245 48.6156 25.1108 48.488 25.1592 48.2878C25.5266 46.7896 26.4528 45.4058 27.753 44.6556C29.315 43.7536 30.2258 44.4356 30.2258 45.958C30.2258 47.421 29.4558 48.642 28.6858 49.5198C28.5423 49.7037 28.4587 49.9271 28.446 50.16V50.6572C28.4398 50.7687 28.4075 50.8771 28.3517 50.9738C28.2959 51.0704 28.2182 51.1527 28.1248 51.2138L27.0952 51.8078C26.917 51.9112 26.774 51.8276 26.774 51.623V50.1226C26.7896 49.8917 26.8817 49.6727 27.0358 49.5Z" fill="#455A64"/>
<path d="M26.7542 53.8713C26.752 53.5658 26.8293 53.265 26.9786 52.9985C27.1278 52.7319 27.3439 52.5088 27.6056 52.3511C28.1578 52.0299 28.446 52.3137 28.446 52.8945C28.4505 53.2001 28.3754 53.5015 28.228 53.7693C28.0807 54.037 27.8662 54.2617 27.6056 54.4213C27.0402 54.7469 26.7542 54.4521 26.7542 53.8713Z" fill="#455A64"/>
<path d="M60.8674 14.0536L60.06 13.5828C59.9818 13.5452 59.8947 13.5296 59.8083 13.5377C59.7218 13.5459 59.6392 13.5775 59.5694 13.629L39.468 25.2318C39.2672 25.3627 39.1 25.5391 38.9799 25.7466C38.8599 25.9542 38.7905 26.1871 38.7772 26.4264V55.3366C38.7695 55.4206 38.7834 55.5051 38.8177 55.5822C38.852 55.6592 38.9055 55.7262 38.973 55.7766L39.787 56.2474L59.5606 44.1254C59.7612 43.9944 59.928 43.818 60.0477 43.6104C60.1673 43.4029 60.2364 43.1701 60.2492 42.9308L60.8674 14.0536Z" fill="#005F31"/>
<path opacity="0.15" d="M39.7738 56.2474L38.9708 55.7832C38.903 55.7331 38.8495 55.6661 38.8155 55.589C38.7816 55.5118 38.7683 55.4271 38.7772 55.3432V26.4264C38.7863 26.1729 38.8622 25.9262 38.9972 25.7114L39.82 26.18C39.6842 26.3953 39.6083 26.6429 39.6 26.8972V55.8096C39.5903 55.8913 39.6011 55.9741 39.6315 56.0505C39.6618 56.127 39.7107 56.1946 39.7738 56.2474Z" fill="black"/>
<path d="M40.2754 25.7049L60.3768 14.0999C60.7574 13.8799 61.0654 14.0581 61.0654 14.4981V43.4083C61.0525 43.6475 60.9835 43.8803 60.8639 44.0879C60.7442 44.2954 60.5774 44.4719 60.3768 44.6029L40.2754 56.2079C39.8948 56.4279 39.5846 56.2497 39.5846 55.8097V26.8973C39.5982 26.6583 39.6678 26.4258 39.7878 26.2187C39.9078 26.0116 40.0748 25.8356 40.2754 25.7049Z" fill="#005F31"/>
<path opacity="0.4" d="M60.06 13.5828L60.8476 14.0382C60.7713 14.0107 60.6895 14.002 60.6091 14.0127C60.5287 14.0234 60.452 14.0533 60.3856 14.0998L40.2842 25.7048C40.093 25.8229 39.9336 25.9861 39.82 26.18L39.0038 25.7114C39.1172 25.5162 39.2766 25.3516 39.468 25.2318L59.5584 13.64C59.6283 13.5886 59.7111 13.5573 59.7976 13.5495C59.884 13.5418 59.971 13.5578 60.049 13.596L60.06 13.5828Z" fill="white"/>
<path d="M42.5568 26.8401L58.6542 17.5451C58.9424 17.3779 59.1756 17.5143 59.1756 17.8465V42.5767C59.1658 42.7578 59.1134 42.934 59.0229 43.0911C58.9323 43.2482 58.806 43.3817 58.6542 43.4809L42.5568 52.7583C42.2686 52.9233 42.0332 52.7891 42.0332 52.4569V27.7487C42.0419 27.5665 42.0939 27.3891 42.185 27.231C42.2761 27.073 42.4035 26.939 42.5568 26.8401Z" fill="white"/>
<path d="M55.3124 32.2851L55.4752 32.1509C55.2065 31.8595 54.8574 31.6543 54.472 31.5613L54.4192 31.7637C54.7608 31.8481 55.0709 32.0291 55.3124 32.2851Z" fill="#37474F"/>
<path d="M55.671 33.1057L55.3388 32.7801C55.2602 32.6981 55.2162 32.589 55.2162 32.4754C55.2162 32.3618 55.2602 32.2526 55.3388 32.1707C55.4207 32.092 55.5299 32.0481 55.6435 32.0481C55.7571 32.0481 55.8663 32.092 55.9482 32.1707L56.2782 32.4963C56.3569 32.5782 56.4008 32.6874 56.4008 32.801C56.4008 32.9146 56.3569 33.0237 56.2782 33.1057C56.1964 33.1837 56.0877 33.2272 55.9746 33.2272C55.8616 33.2272 55.7528 33.1837 55.671 33.1057Z" fill="#005F31"/>
<mask id="mask0_891_557" style="mask-type:luminance" maskUnits="userSpaceOnUse" x="42" y="17" width="18" height="36">
<path d="M42.5568 26.8401L58.6542 17.5451C58.9424 17.3779 59.1756 17.5143 59.1756 17.8465V42.5767C59.1658 42.7578 59.1134 42.934 59.0229 43.0911C58.9323 43.2482 58.806 43.3817 58.6542 43.4809L42.5568 52.7583C42.2686 52.9233 42.0332 52.7891 42.0332 52.4569V27.7487C42.0419 27.5665 42.0939 27.3891 42.185 27.231C42.2761 27.073 42.4035 26.939 42.5568 26.8401Z" fill="white"/>
</mask>
<g mask="url(#mask0_891_557)">
<path d="M58.5992 40.6252L59.3428 41.8968C59.3428 41.8968 64.2136 39.314 64.4886 38.9752C64.7636 38.6364 64.746 37.9522 64.7878 37.5826C64.856 36.9666 64.6294 36.4364 64.5964 36.2142C64.5414 35.827 65.098 35.805 65.373 36.344C65.5754 36.7356 65.593 37.1844 65.7646 37.1888C66.0103 37.0162 66.2394 36.821 66.4488 36.6058C66.7502 36.2758 67.2958 35.7258 67.7094 35.8006C67.7797 35.8169 67.8435 35.854 67.8925 35.9069C67.9415 35.9599 67.9735 36.0263 67.9844 36.0976C67.9963 36.325 68.0484 36.5485 68.1384 36.7576C68.2056 36.837 68.2604 36.926 68.3012 37.0216C68.3144 37.1636 68.3144 37.3065 68.3012 37.4484C68.3188 37.653 68.5212 37.7388 68.5432 37.939C68.5369 38.0933 68.52 38.2469 68.4926 38.3988C68.4926 38.4978 68.5234 38.5836 68.5234 38.6826C68.5023 38.8859 68.414 39.0763 68.2726 39.2238C67.8606 39.7039 67.3723 40.1127 66.8272 40.4338C66.3872 40.7242 65.7976 40.9816 65.2872 41.2544C64.7768 41.5272 59.0436 45.9316 58.2802 45.4124C57.9678 45.1924 57.145 44.143 56.2804 42.9682" fill="#FFA8A7"/>
<path d="M56.1 43.12C55.2211 41.8965 54.4131 40.6236 53.68 39.3074C52.8 36.8434 53.7966 35.2022 53.7966 35.2022C53.7966 35.2022 55.0616 34.8106 56.1154 36.4738C56.5796 37.2064 57.794 39.2656 58.5904 40.6252" fill="#FFA8A7"/>
<path d="M51.5834 35.2396C51.5834 35.2396 52.9782 34.6742 53.8824 34.7336C54.7866 34.793 55.4554 35.0482 56.1198 36.1152C56.9998 37.5386 58.4716 39.9982 58.4716 39.9982C57.8496 41.277 56.8568 42.3388 55.6226 43.0452L52.921 38.9708L51.5834 35.2396Z" fill="#455A64"/>
<path d="M47.157 37.7038C46.6918 38.0784 46.3487 38.5832 46.1714 39.1536C45.9651 39.8428 45.8642 40.5593 45.8722 41.2788V45.9098L45.8128 54.6746C48.752 55.6756 52.4876 54.7934 55.6226 51.3086C55.6226 51.3086 55.4488 40.0886 55.4488 38.256C55.4488 38.1724 55.4488 38.0888 55.4488 38.003C55.3344 35.4048 53.0926 34.1992 50.8838 35.4488L49.027 36.496L47.1636 37.7038H47.157Z" fill="#F0F0F0"/>
<path d="M48.18 27.0426C48.18 27.0426 46.739 26.9304 46.42 28.268C46.1274 29.4604 48.301 34.1684 48.2526 34.0892C48.2042 34.01 48.18 27.0426 48.18 27.0426Z" fill="#263238"/>
<path d="M53.2686 24.3497C53.2686 24.3497 52.734 22.9109 50.138 23.9339C48.818 24.4553 48.323 26.0899 48.323 26.0899L53.2686 24.3497Z" fill="#005F31"/>
<path opacity="0.4" d="M53.2686 24.3497C53.2686 24.3497 52.734 22.9109 50.138 23.9339C48.818 24.4553 48.323 26.0899 48.323 26.0899L53.2686 24.3497Z" fill="black"/>
<path d="M49.17 28.1712C49.17 30.1512 50.556 31.3788 52.2676 30.919C53.9792 30.4592 55.3652 28.499 55.3652 26.519C55.3652 24.539 53.889 24.539 52.1774 25.001C50.4658 25.463 49.17 26.1956 49.17 28.1712Z" fill="#263238"/>
<path d="M47.553 31.2996C47.553 31.2996 48.0084 33.6536 48.191 34.0122C48.246 34.116 48.3262 34.2045 48.4242 34.2694C48.5222 34.3344 48.6349 34.3738 48.752 34.384L48.7212 32.6504L47.553 31.2996Z" fill="#263238"/>
<path d="M48.125 27.5991C47.9446 27.6284 47.7726 27.6962 47.6207 27.7979C47.4688 27.8997 47.3407 28.033 47.245 28.1887C46.871 28.7321 47.08 30.0653 47.5486 31.2995L48.4066 31.1829L48.125 27.5991Z" fill="#263238"/>
<path d="M48.6706 31.1147C48.4968 31.2797 48.2526 30.9629 48.0392 30.7627C47.8258 30.5625 47.1328 30.3975 46.7852 31.3325C46.4376 32.2675 47.091 33.2443 47.6388 33.2971C48.5804 33.3851 48.7212 32.6503 48.7212 32.6503L48.752 36.6697C50.3338 38.3461 53.1014 36.3705 51.8562 35.6291V34.4345C52.2883 34.3973 52.7145 34.3086 53.1256 34.1705C53.8186 33.8603 54.2542 33.1145 54.4654 32.1905C54.802 30.7099 54.9296 29.5505 54.6436 26.8951C54.3312 23.9823 51.3106 24.7611 49.6804 26.3825C48.0502 28.0039 48.6706 31.1147 48.6706 31.1147Z" fill="#FFA8A7"/>
<path d="M48.6706 31.4601C48.5826 31.4865 48.2526 30.9431 48.0392 30.7737C47.7422 30.5405 48.125 27.6101 48.125 27.6101C47.7818 26.8533 48.4154 25.7115 49.0776 25.2473C49.5534 24.9418 50.0903 24.7443 50.6506 24.6687C51.1258 24.5836 51.5995 24.5183 52.0718 24.4729C52.6493 24.4427 53.224 24.3736 53.7922 24.2661C54.237 24.1606 54.6681 24.004 55.077 23.7997C55.4378 23.6347 55.737 24.0065 55.418 24.6247C55.1324 25.1869 54.7358 25.6854 54.252 26.0899C52.8484 27.1437 51.2182 27.3967 49.7992 27.5529C49.4802 27.5881 49.4098 27.9643 49.2382 28.9873C49.0864 29.8761 48.961 31.3655 48.6706 31.4601Z" fill="#263238"/>
<path d="M47.0448 27.6234L46.002 27.256C46.1494 26.871 46.5036 26.6422 46.7896 26.7434C47.0756 26.8446 47.1922 27.2384 47.0448 27.6234Z" fill="#263238"/>
<path d="M51.854 34.4346C51.854 34.4346 50.314 34.4896 49.7684 34.3026C49.4423 34.1889 49.1738 33.9519 49.0204 33.6426C49.0949 33.9678 49.2398 34.2727 49.445 34.5358C49.841 35.0132 51.854 34.9032 51.854 34.9032V34.4346Z" fill="#F28F8F"/>
<path d="M51.48 29.9202C51.4787 30.016 51.4487 30.1091 51.3937 30.1876C51.3388 30.2661 51.2616 30.3262 51.172 30.3602C51.0026 30.4042 50.864 30.2744 50.864 30.0698C50.8626 29.9718 50.8914 29.8757 50.9465 29.7946C51.0016 29.7135 51.0803 29.6514 51.172 29.6166C51.3436 29.5792 51.48 29.7002 51.48 29.9202Z" fill="#263238"/>
<path d="M50.985 28.5671L50.325 29.1677C50.2787 29.0554 50.2686 28.9314 50.2963 28.8131C50.3239 28.6947 50.3878 28.588 50.479 28.5077C50.5116 28.4693 50.5532 28.4394 50.6002 28.421C50.6471 28.4025 50.6979 28.3959 50.7479 28.4017C50.798 28.4076 50.8459 28.4258 50.8873 28.4547C50.9286 28.4835 50.9622 28.5222 50.985 28.5671Z" fill="#263238"/>
<path d="M51.7154 32.3247L52.4216 32.4413C52.4014 32.5536 52.3422 32.655 52.2544 32.7279C52.1667 32.8008 52.056 32.8403 51.942 32.8395C51.7462 32.8087 51.645 32.5777 51.7154 32.3247Z" fill="#F28F8F"/>
<path d="M54.3246 27.9864L53.7196 27.6102C53.845 27.3902 54.0782 27.2736 54.2454 27.377C54.3302 27.4517 54.385 27.5547 54.3996 27.6668C54.4141 27.7789 54.3875 27.8925 54.3246 27.9864Z" fill="#263238"/>
<path d="M54.0606 29.1215C54.0623 29.2202 54.0334 29.3169 53.9778 29.3985C53.9223 29.48 53.8428 29.5424 53.7504 29.5769C53.5788 29.6209 53.4402 29.4911 53.4402 29.2865C53.4386 29.1882 53.4676 29.0917 53.5232 29.0106C53.5788 28.9294 53.6581 28.8675 53.7504 28.8333C53.922 28.7871 54.0606 28.9169 54.0606 29.1215Z" fill="#263238"/>
<path d="M52.5294 29.2446L52.5646 31.405L53.6756 30.8242L52.5294 29.2446Z" fill="#F28F8F"/>
<path d="M42.5018 50.8201C43.3686 41.9101 44.77 38.7443 46.9656 37.8577C47.7026 38.4341 47.8214 41.0631 46.9876 43.0365C46.9876 43.0365 45.1528 48.9457 45.0076 50.9565C44.915 52.837 44.9849 54.7221 45.2166 56.5907C45.2284 56.703 45.2637 56.8115 45.3201 56.9093C45.3766 57.0071 45.453 57.0919 45.5444 57.1583C46.013 57.4795 45.9712 57.9283 46.3012 58.3617C46.5608 58.7005 46.8072 58.7665 46.7412 58.8897C46.6863 59.0129 46.5909 59.1137 46.4709 59.1753C46.3508 59.2369 46.2134 59.2557 46.0812 59.2285C45.8708 59.1555 45.676 59.0436 45.507 58.8985C45.6311 59.3728 45.827 59.8253 46.0878 60.2405C46.6818 61.2019 46.6378 61.8377 45.1814 62.0159C44.2684 62.1281 43.6194 61.5473 43.2168 59.2571C43.1024 58.5971 42.8208 57.4091 42.713 56.5555C42.4006 54.1201 42.361 52.2545 42.5018 50.8201Z" fill="#FFA8A7"/>
<path d="M47.5948 37.4353C47.5948 37.4353 45.9976 37.9501 45.1748 39.2283C44.352 40.5065 43.5292 42.5745 42.9044 46.2683C42.9044 46.2683 43.8724 47.6631 46.5146 46.5873C46.5146 46.5873 47.7664 41.8881 47.9138 40.0203C48.0656 37.9831 47.5948 37.4353 47.5948 37.4353Z" fill="#455A64"/>
<path d="M49.0798 24.42C47.586 25.355 46.9414 26.4902 46.904 27.8586C46.8909 28.7986 46.9284 29.7387 47.0162 30.6746C46.7349 30.8772 46.5029 31.1407 46.3376 31.4455C46.1722 31.7502 46.0778 32.0883 46.0614 32.4346C46.0614 33.3608 46.8116 33.9108 47.7378 33.6622C48.2026 33.5247 48.6133 33.2465 48.9136 32.8659C49.2138 32.4853 49.3887 32.0211 49.4142 31.537C49.4332 31.2366 49.3392 30.9398 49.1508 30.705C48.9624 30.4702 48.6931 30.3142 48.3956 30.2676C48.2085 28.9606 48.2123 27.6334 48.4066 26.3274C48.7388 24.3474 52.4392 23.2056 53.2686 24.3474C53.02 23.3618 51.1566 23.111 49.0798 24.42Z" fill="#005F31"/>
<path opacity="0.15" d="M49.0798 24.42C47.586 25.355 46.9414 26.4902 46.904 27.8586C46.8909 28.7986 46.9284 29.7387 47.0162 30.6746C46.7349 30.8772 46.5029 31.1407 46.3376 31.4455C46.1722 31.7502 46.0778 32.0883 46.0614 32.4346C46.0614 33.3608 46.8116 33.9108 47.7378 33.6622C48.2026 33.5247 48.6133 33.2465 48.9136 32.8659C49.2138 32.4853 49.3887 32.0211 49.4142 31.537C49.4332 31.2366 49.3392 30.9398 49.1508 30.705C48.9624 30.4702 48.6931 30.3142 48.3956 30.2676C48.2085 28.9606 48.2123 27.6334 48.4066 26.3274C48.7388 24.3474 52.4392 23.2056 53.2686 24.3474C53.02 23.3618 51.1566 23.111 49.0798 24.42Z" fill="black"/>
<path d="M48.5408 31.7702C48.5455 31.6717 48.5257 31.5736 48.4832 31.4847C48.4407 31.3957 48.3768 31.3187 48.2973 31.2605C48.2177 31.2023 48.125 31.1647 48.0273 31.1512C47.9297 31.1376 47.8302 31.1485 47.7378 31.1828C47.5151 31.2488 47.3184 31.3822 47.1746 31.5646C47.0308 31.747 46.947 31.9694 46.9348 32.2014C46.9314 32.2994 46.9523 32.3967 46.9956 32.4847C47.0388 32.5727 47.1031 32.6487 47.1827 32.7059C47.2624 32.7631 47.3549 32.7998 47.4521 32.8127C47.5493 32.8257 47.6482 32.8144 47.74 32.78C47.9611 32.7144 48.1566 32.5822 48.2998 32.4015C48.4431 32.2208 48.5273 32.0004 48.5408 31.7702Z" fill="#005F31"/>
</g>
<path d="M35.8732 45.9051C35.837 45.9404 35.8039 45.9787 35.7742 46.0195C35.7214 46.0845 35.6818 46.1593 35.6576 46.2395C35.6417 46.2859 35.6417 46.3362 35.6576 46.3825C35.6635 46.4153 35.6796 46.4454 35.7038 46.4683C35.7154 46.4817 35.7287 46.4936 35.7434 46.5035L34.936 46.0371C34.9036 46.0192 34.877 45.9925 34.859 45.9601C34.8462 45.9295 34.8396 45.8966 34.8396 45.8633C34.8396 45.8301 34.8462 45.7972 34.859 45.7665C34.8766 45.7119 34.9018 45.6601 34.9338 45.6125C34.9755 45.5499 35.0226 45.491 35.0746 45.4365L35.8732 45.9051Z" fill="#005F31"/>
<path d="M35.8798 45.8964C35.4596 46.3364 35.607 46.6334 36.2098 46.5564L39.5846 46.167V42.0464L35.8798 45.8964Z" fill="#005F31"/>
<path d="M35.8798 45.8965C35.6136 46.1737 35.5762 46.3937 35.7346 46.5015L34.9272 46.0351C34.7578 45.9295 34.7952 45.7051 35.0636 45.4235L38.7706 41.5801L39.5868 42.0531L35.8798 45.8965Z" fill="#005F31"/>
<path opacity="0.15" d="M35.8732 45.9051C35.837 45.9404 35.8039 45.9787 35.7742 46.0195C35.7231 46.0857 35.6837 46.1601 35.6576 46.2395C35.6447 46.2863 35.6447 46.3357 35.6576 46.3825C35.664 46.4151 35.6801 46.445 35.7038 46.4683C35.7154 46.4817 35.7287 46.4936 35.7434 46.5035L34.936 46.0371C34.9036 46.0192 34.877 45.9925 34.859 45.9601C34.8462 45.9295 34.8396 45.8966 34.8396 45.8633C34.8396 45.8301 34.8462 45.7972 34.859 45.7665C34.8775 45.7123 34.9027 45.6606 34.9338 45.6125C34.9755 45.5499 35.0226 45.491 35.0746 45.4365L35.8732 45.9051Z" fill="black"/>
<path opacity="0.4" d="M39.5868 42.0465L35.8798 45.8965L35.0614 45.4235L38.7706 41.5801L39.5868 42.0465Z" fill="white"/>
<path d="M58.5992 40.6252L59.3428 41.8968C59.3428 41.8968 64.2136 39.314 64.4886 38.9752C64.7636 38.6364 64.746 37.9522 64.7878 37.5826C64.856 36.9666 64.6294 36.4364 64.5964 36.2142C64.5304 35.7412 65.2102 35.8512 65.4258 36.0382C65.5674 36.189 65.6853 36.3603 65.7756 36.5464C65.8812 36.7224 66.0792 37.2966 66.2816 37.3318C66.44 37.3604 66.7546 37.136 66.8844 37.0392C67.419 36.6344 67.749 36.0734 68.1604 35.5608C68.2336 35.4505 68.3356 35.3623 68.4552 35.3056C68.5603 35.2847 68.6687 35.2879 68.7723 35.315C68.876 35.342 68.9722 35.3922 69.0536 35.4618C69.227 35.5587 69.3772 35.6924 69.4936 35.8534C69.5646 35.9741 69.6152 36.1056 69.6432 36.2428C69.8632 37.1756 69.3836 37.9632 68.8182 38.6628C68.2507 39.3509 67.578 39.9449 66.825 40.4228C66.385 40.7132 65.7954 40.9706 65.285 41.2434C64.7746 41.5162 59.3054 46.0988 58.5398 45.5796C57.6246 44.8676 56.8046 44.041 56.1 43.12" fill="#FFA8A7"/>
<path d="M94.5296 32.6765C96.2896 32.6765 97.2136 33.2045 97.944 34.8303C98.6436 36.3857 100.815 40.8979 100.707 41.9913C100.599 43.0847 96.14 47.7399 96.14 47.7399L94.8662 46.1999L97.6294 41.5579L94.908 37.6199L94.5296 32.6765Z" fill="#FFA8A7"/>
<path d="M90.2572 80.5552C90.2572 80.5552 90.4552 81.1558 90.563 81.6838C90.6488 82.1018 90.7698 82.7992 90.6224 83.1138C90.475 83.4284 89.9052 83.6308 89.0208 83.6242C88.4466 83.6242 87.5534 84.0092 86.9418 84.3524C86.3302 84.6956 84.9948 84.8452 84.326 84.766C83.5384 84.6736 82.7222 84.216 82.5946 83.886C82.467 83.556 82.3592 83.1138 84.4932 82.4296C84.5108 82.4296 87.0738 81.5892 87.9714 80.597L90.2572 80.5552Z" fill="#263238"/>
<path d="M90.2572 80.6146L89.8502 80.564L87.9714 80.6014C87.0738 81.5936 84.5108 82.4296 84.4932 82.434L84.1522 82.5484C83.7804 82.8476 84.095 83.3558 84.975 83.4284C85.855 83.501 88.5984 82.5836 89.2056 82.291C89.5241 82.143 89.793 81.906 89.9796 81.6085C90.1662 81.3109 90.2627 80.9657 90.2572 80.6146Z" fill="#FFA8A7"/>
<path d="M90.2572 79.8071C90.2572 79.8071 90.2572 80.3197 90.2572 80.6145C90.2572 80.9093 89.914 81.3449 89.0164 81.3119C88.3872 81.2899 87.9472 81.1205 87.9714 80.6013V79.8599L90.2572 79.8071Z" fill="#FFA8A7"/>
<path d="M96.2808 77.1827C96.4414 77.2487 96.4744 77.5611 96.481 78.1793C96.481 78.6457 96.5668 79.4641 96.0146 79.6137C95.4624 79.7633 94.6638 79.6555 94.325 79.2067C93.9026 78.6457 93.6188 78.1529 93.005 77.4643C92.4792 76.8681 91.905 76.3093 91.7114 75.4843C91.5332 74.7407 91.7114 74.4261 92.2152 74.2237C92.719 74.0213 93.1832 74.1885 93.8872 74.7759C94.0836 74.909 94.2938 75.0203 94.5142 75.1081C94.9828 75.2555 96.118 77.1167 96.2808 77.1827Z" fill="#263238"/>
<path d="M96.2962 76.6106L96.2742 77.3696C96.2742 77.3696 95.7682 78.3618 94.358 77.3696C94.3272 77.2948 94.1996 75.8296 94.1996 75.8296L96.2962 76.6106Z" fill="#FFA8A7"/>
<path d="M94.5208 75.1124C94.3004 75.0246 94.0902 74.9132 93.8938 74.7802C93.3262 74.5976 92.1338 74.8088 92.6684 75.636C93.1163 76.316 93.6897 76.9044 94.358 77.3696C94.996 77.6842 95.2182 77.2948 95.2182 77.2948L94.9982 75.515C94.8713 75.3467 94.7082 75.2091 94.5208 75.1124Z" fill="#FFA8A7"/>
<path d="M97.3258 66.1209C97.0442 63.6327 96.5052 62.1961 96.5052 62.1961C96.5052 62.1961 96.9826 58.8477 97.3566 55.6379C98.2366 48.0985 97.6514 47.9775 96.5866 45.3551C96.5866 45.3551 86.922 44.1121 86.5172 48.1315C86.0134 53.1365 86.2422 62.8429 86.3258 64.6183C86.4094 66.3937 86.5458 67.1967 87.0826 70.9147C87.483 73.7461 87.8636 79.9347 87.8636 79.9347C89.1308 80.6651 90.3496 79.8071 90.3496 79.8071C90.3496 79.8071 91.5618 72.1973 91.5332 70.1491C91.5085 68.633 91.2866 67.1266 90.8732 65.6677C90.8732 65.6677 91.696 57.5101 91.905 56.2077C91.905 56.2077 92.1382 58.8103 92.224 60.5857C92.3098 62.3611 92.7894 64.0661 93.214 67.3727C93.5814 70.2327 94.193 76.2233 94.193 76.2233C95.4602 76.9537 96.3446 76.6237 96.3446 76.6237C96.3446 76.6237 97.6052 68.6069 97.3258 66.1209Z" fill="#005F31"/>
<path d="M90.4398 31.0486L90.794 34.8062L94.094 34.5972L93.83 30.4304L90.4398 31.0486Z" fill="#FFA8A7"/>
<path d="M97.0596 34.2715C96.723 33.2771 96.041 32.6941 94.5296 32.6765L93.973 32.6941C93.8674 33.2485 92.2416 33.6973 90.6356 33.1341C90.4156 33.1935 89.7886 33.3079 89.4388 33.3541L88.6688 33.4663C87.5006 33.8491 86.9836 35.8863 86.8714 39.1005C86.7592 42.3147 86.2774 49.2073 86.2774 49.2073C86.2774 49.2073 88.792 50.5537 92.7608 50.0323C96.3138 49.5659 97.6954 47.4649 97.5722 47.7333C97.1557 45.9504 96.5402 44.2199 95.7374 42.5743C97.6074 37.9741 97.5568 35.7477 97.0596 34.2715Z" fill="#455A64"/>
<path d="M90.794 50.1467C91.4516 50.1536 92.1088 50.1139 92.7608 50.0279C95.9992 49.6033 97.4336 47.8279 97.5678 47.7113C97.1517 45.9345 96.5377 44.2099 95.7374 42.5699C96.6834 40.2467 97.1366 38.5307 97.2906 37.2085C97.1366 38.1721 95.7132 41.9033 93.8498 43.0231C93.8498 43.0231 94.9014 43.1859 95.8012 44.4223C96.701 45.6587 95.9618 49.8805 90.794 50.1467Z" fill="#37474F"/>
<path d="M89.4388 33.3499C87.8878 33.5457 86.5524 33.8229 85.987 35.3453C85.2412 37.4185 84.097 39.3258 82.6188 40.9597C81.6552 41.9915 77.6996 43.9671 76.8086 43.8197C75.9176 43.6723 75.1146 42.4029 74.657 42.6669C74.1994 42.9309 75.2026 43.8373 75.1476 44.0617C75.0926 44.2861 73.4866 43.8197 72.7276 43.2807C71.9686 42.7417 71.5176 44.2883 72.5076 45.4455C73.4976 46.6027 75.35 46.6929 77.3652 46.2903C79.3804 45.8877 83.0632 44.6909 84.5262 43.3269C86.4446 41.5339 86.7944 40.5593 87.626 39.0149C90.2748 36.9601 89.4388 33.3499 89.4388 33.3499Z" fill="#FFA8A7"/>
<path d="M88.7128 26.3824C88.7128 26.3824 87.4676 24.8974 88.4444 23.4498C89.5972 21.7426 91.6256 21.1662 94.1336 21.9098C95.3744 22.2772 97.1982 23.9932 97.2906 26.4C97.361 28.2546 92.1602 29.48 92.2438 30.7516L88.7128 26.3824Z" fill="#263238"/>
<path d="M88 26.9258C88 26.9258 87.2696 28.0258 87.3642 28.149C87.5356 28.2614 87.7255 28.3426 87.9252 28.3888L88 26.9258Z" fill="#F28F8F"/>
<path d="M90.2242 23.4256C89.5136 23.793 88.286 24.4706 87.9692 27.0886C87.6458 29.7748 88.2442 30.7076 88.6094 31.0596C88.858 31.2972 90.134 31.383 90.8094 31.1762C91.6432 30.9188 93.4494 30.0278 94.292 28.6418C95.2864 27.0094 95.491 24.8358 94.3426 23.9822C92.7168 22.7832 90.8248 23.1154 90.2242 23.4256Z" fill="#FFA8A7"/>
<path d="M90.0152 23.5399C90.0152 23.5399 89.3948 25.9907 90.1362 27.5395C90.1362 27.5395 90.5762 26.5825 91.3924 26.8575C92.2086 27.1325 92.1448 28.2369 91.4936 28.8001C91.3275 28.9622 91.1188 29.0738 90.8918 29.1221C90.6648 29.1704 90.4287 29.1533 90.211 29.0729C90.211 29.0729 90.233 30.4303 91.3924 30.9671C91.3924 30.9671 93.8124 32.1265 96.0124 29.7857C97.9924 27.6605 97.7438 23.8457 94.8156 22.8799C91.8874 21.9141 90.0152 23.5399 90.0152 23.5399Z" fill="#263238"/>
<path d="M99.8668 33.8801C99.4052 33.8801 98.9481 33.7889 98.5217 33.6119C98.0954 33.4348 97.7082 33.1753 97.3824 32.8483C97.0566 32.5213 96.7986 32.1331 96.6231 31.7061C96.4477 31.2791 96.3583 30.8217 96.36 30.3601V25.8633C97.2895 25.8633 98.1809 26.2325 98.8381 26.8898C99.4954 27.547 99.8646 28.4384 99.8646 29.3679L99.8668 33.8801Z" fill="#263238"/>
<path d="M88.1276 22.44C87.0386 23.54 86.977 26.7542 90.1362 27.5418L92.2064 21.868C91.0008 21.0826 89.1 21.4456 88.1276 22.44Z" fill="#263238"/>
<path d="M89.8194 28.4152C89.7402 28.3889 89.6671 28.3471 89.6044 28.2921C89.5417 28.237 89.4906 28.17 89.4542 28.095C89.4178 28.0199 89.3968 27.9383 89.3924 27.855C89.3881 27.7717 89.4004 27.6884 89.4288 27.6099C89.4571 27.5315 89.5009 27.4595 89.5575 27.3982C89.6142 27.337 89.6825 27.2877 89.7585 27.2532C89.8344 27.2188 89.9165 27.1999 89.9999 27.1977C90.0833 27.1955 90.1663 27.2101 90.244 27.2404L89.8194 28.4152Z" fill="#263238"/>
<path opacity="0.1" d="M91.9094 56.2123L92.4352 52.8485C93.4943 52.7217 94.5134 52.3674 95.4228 51.8101C95.4228 51.8101 94.7628 52.8023 93.0248 53.2159L92.488 57.1121L92.268 61.1931L91.9094 56.2123Z" fill="black"/>
</svg>
