<svg width="110" height="110" viewBox="0 0 110 110" fill="none" xmlns="http://www.w3.org/2000/svg">
<path d="M20.1212 96.5801C39.6484 106.564 71.3064 106.566 90.8336 96.5801C110.361 86.5943 110.361 70.4001 90.8336 60.4253C71.3064 50.4505 39.6484 50.4417 20.1212 60.4253C0.593998 70.4089 0.593998 86.6031 20.1212 96.5801Z" fill="#F5F5F5"/>
<path d="M32.6766 85.5514L22.1342 79.5058L36.025 71.6936L32.7404 85.6614" fill="#E0E0E0"/>
<path d="M91.223 81.851C96.9919 81.851 101.669 79.3088 101.669 76.1728C101.669 73.0368 96.9919 70.4946 91.223 70.4946C85.454 70.4946 80.7774 73.0368 80.7774 76.1728C80.7774 79.3088 85.454 81.851 91.223 81.851Z" fill="#E0E0E0"/>
<path d="M52.2764 80.1351L61.6638 85.5559C62.0137 85.7328 62.4003 85.825 62.7924 85.825C63.1845 85.825 63.5711 85.7328 63.921 85.5559L82.841 74.6351C83.4636 74.2743 83.4636 73.6913 82.841 73.3327L73.4536 67.9119C73.1037 67.735 72.7171 67.6428 72.325 67.6428C71.9329 67.6428 71.5463 67.735 71.1964 67.9119L52.2764 78.8327C51.6516 79.2001 51.6516 79.7765 52.2764 80.1351Z" fill="#E0E0E0"/>
<path d="M17.2744 75.9903C17.1358 74.2809 16.3526 71.4715 14.3638 68.7963C12.2364 65.9363 9.64041 64.1455 7.71321 64.9815C5.91801 65.7625 6.59781 68.2397 9.69321 70.6861C11.8602 72.3999 14.1086 74.6329 15.3186 77.3279L17.2788 80.7577L17.2744 75.9903Z" fill="#005F31"/>
<g opacity="0.1">
<path d="M17.2744 75.9903C17.1358 74.2809 16.3526 71.4715 14.3638 68.7963C12.2364 65.9363 9.64041 64.1455 7.71321 64.9815C5.91801 65.7625 6.59781 68.2397 9.69321 70.6861C11.8602 72.3999 14.1086 74.6329 15.3186 77.3279L17.2788 80.7577L17.2744 75.9903Z" fill="black"/>
</g>
<path d="M17.1006 77.2948C17.0754 77.2948 17.0509 77.287 17.0304 77.2724C17.0099 77.2578 16.9944 77.2372 16.9862 77.2134C15.2636 72.4724 11.6776 67.6742 8.64381 66.0528C8.62936 66.0453 8.61654 66.035 8.60607 66.0226C8.5956 66.0101 8.58768 65.9957 8.58278 65.9802C8.57788 65.9646 8.57608 65.9483 8.57749 65.9321C8.57891 65.9159 8.5835 65.9001 8.59101 65.8856C8.59852 65.8712 8.6088 65.8584 8.62127 65.8479C8.63374 65.8374 8.64815 65.8295 8.66367 65.8246C8.6792 65.8197 8.69554 65.8179 8.71176 65.8193C8.72798 65.8207 8.74376 65.8253 8.75821 65.8328C11.8382 67.4806 15.4748 72.3338 17.215 77.1276C17.2256 77.1577 17.224 77.1907 17.2104 77.2196C17.1968 77.2484 17.1724 77.2707 17.1424 77.2816C17.1296 77.289 17.1153 77.2935 17.1006 77.2948Z" fill="white"/>
<path d="M17.1006 81.84C16.1054 82.6225 14.9217 83.1294 13.6686 83.3096C11.506 83.6484 10.56 82.6144 10.56 82.6144C10.56 82.6144 11.4114 80.586 12.6412 80.0162C11.3121 80.3138 10.0431 80.8345 8.88801 81.5562C8.88801 81.5562 7.56801 81.576 7.04221 79.5608C7.04221 79.5608 7.82321 78.3486 10.4478 77.693C10.4478 77.693 8.85281 77.2904 6.55161 77.8778C6.37781 77.946 5.64301 75.3412 5.42081 74.1378C5.19861 72.9344 5.68041 72.9476 6.61761 72.6968C7.55481 72.446 10.7448 72.2898 11.3322 72.8068C11.9196 73.3238 12.2122 75.0838 12.2122 75.0838C12.2122 75.0838 12.7732 74.0872 12.639 73.1962C13.2929 73.0096 13.9881 73.0264 14.6322 73.2446C15.686 73.6098 15.6178 74.1246 15.6178 74.8902C15.6223 75.6618 15.5164 76.43 15.3032 77.1716C15.3032 77.1716 16.0314 76.5424 16.0556 74.2236C16.0556 74.2236 17.479 75.4402 18.051 76.4874C18.623 77.5346 18.48 80.2736 17.1006 81.84Z" fill="#005F31"/>
<path d="M17.1006 81.9568C17.0777 81.957 17.0552 81.9507 17.0357 81.9386C17.0163 81.9265 17.0006 81.9092 16.9906 81.8886C15.246 78.263 8.75821 74.0522 6.43061 73.599C6.39895 73.5926 6.37107 73.574 6.35296 73.5473C6.33486 73.5205 6.32798 73.4877 6.33381 73.456C6.33696 73.4404 6.34316 73.4255 6.35206 73.4123C6.36096 73.3991 6.37238 73.3878 6.38566 73.379C6.39895 73.3702 6.41384 73.3641 6.42948 73.3611C6.44512 73.3581 6.46121 73.3582 6.47681 73.3614C8.84401 73.8212 15.4374 78.1002 17.2106 81.783C17.2243 81.8122 17.226 81.8456 17.2153 81.8761C17.2046 81.9065 17.1824 81.9315 17.1534 81.9458C17.1369 81.9536 17.1188 81.9574 17.1006 81.9568Z" fill="white"/>
<path d="M16.6518 43.384V82.8784L53.5084 61.5978V25.9534L28.3316 40.4778L27.3856 37.1734L16.6518 43.384Z" fill="#37474F"/>
<path d="M16.6518 82.8784L18.5416 48.1976L55.3982 26.9192L53.5084 61.5978L16.6518 82.8784Z" fill="#F0F0F0"/>
<path d="M16.6518 82.8784L19.9892 49.1634L56.8458 27.885L53.5084 61.5978L16.6518 82.8784Z" fill="#455A64"/>
<path d="M32.6062 85.7054C32.5028 85.7054 32.4874 85.5866 32.4874 85.5162V34.7754C32.4952 34.6434 32.5337 34.515 32.5998 34.4005C32.6658 34.2859 32.7577 34.1883 32.868 34.1154L68.4772 13.5718C68.5173 13.5457 68.5636 13.5306 68.6114 13.5278C68.7126 13.5278 68.728 13.6466 68.728 13.717V64.46C68.7202 64.592 68.6817 64.7204 68.6156 64.835C68.5496 64.9495 68.4577 65.0471 68.3474 65.12L32.7404 85.6614C32.7 85.687 32.6539 85.7021 32.6062 85.7054Z" fill="#FAFAFA"/>
<path d="M68.5938 13.6597C68.597 13.6787 68.597 13.698 68.5938 13.7169V64.4599C68.5847 64.569 68.5515 64.6746 68.4968 64.7693C68.442 64.8641 68.3669 64.9455 68.277 65.0077L32.6766 85.5513C32.6596 85.5616 32.641 85.569 32.6216 85.5733C32.6198 85.5543 32.6198 85.5352 32.6216 85.5162V34.7753C32.63 34.6664 32.6626 34.5607 32.717 34.4659C32.7714 34.3711 32.8463 34.2897 32.9362 34.2275L68.541 13.6817C68.5575 13.672 68.5753 13.6646 68.5938 13.6597ZM68.6114 13.4001C68.5413 13.4019 68.4729 13.4224 68.4134 13.4595L32.8042 34.0053C32.6756 34.0901 32.5687 34.204 32.4922 34.3378C32.4158 34.4716 32.3719 34.6215 32.3642 34.7753V85.5162C32.3642 85.7163 32.4632 85.8329 32.6106 85.8329C32.6806 85.8302 32.7487 85.8098 32.8086 85.7736L68.42 65.2277C68.5482 65.1424 68.6547 65.0284 68.731 64.8948C68.8074 64.7611 68.8516 64.6115 68.86 64.4577V13.7169C68.86 13.5145 68.7588 13.4001 68.6136 13.4001H68.6114Z" fill="#E6E6E6"/>
<path d="M35.4882 36.069L45.9162 30.0476V42.0882L35.4882 48.1096V36.069Z" fill="#005F31"/>
<path d="M44.352 33.0571V36.6695L44.0242 36.8521V35.7521C44.0242 35.1405 43.527 34.9337 42.9132 35.2879L38.5 37.8399C37.8862 38.1941 37.3868 38.9773 37.3868 39.5867V40.6867L37.0612 40.8825V37.2723L44.352 33.0571Z" fill="#FAFAFA"/>
<path d="M42.3412 42.2642C41.8044 42.5744 41.371 42.2488 41.371 41.5404V35.7456L40.04 36.476V42.3148C40.04 43.0232 39.6 43.8548 39.0698 44.1562L38.1018 44.715V45.1L43.3158 42.0882V41.7054L42.3412 42.2642Z" fill="#FAFAFA"/>
<path d="M48.0018 29.4468C48.0018 29.779 48.301 29.8868 48.6618 29.6668L65.0562 20.2068C65.2348 20.104 65.3872 19.9614 65.5017 19.7901C65.6161 19.6188 65.6896 19.4234 65.7162 19.219C65.7162 18.8868 65.417 18.79 65.0562 18.999L48.6618 28.459C48.4829 28.5615 48.3302 28.704 48.2157 28.8754C48.1012 29.0468 48.028 29.2424 48.0018 29.4468Z" fill="#E0E0E0"/>
<path d="M48.0018 33.0572C48.0018 33.3916 48.301 33.4972 48.6618 33.2772L65.0562 23.8172C65.2348 23.7144 65.3872 23.5718 65.5017 23.4004C65.6161 23.2291 65.6896 23.0337 65.7162 22.8294C65.7162 22.4972 65.417 22.3894 65.0562 22.6094L48.6618 32.0694C48.4829 32.1718 48.3302 32.3143 48.2157 32.4857C48.1012 32.6571 48.028 32.8527 48.0018 33.0572Z" fill="#E0E0E0"/>
<path d="M48.0018 36.6695C48.0018 37.0039 48.301 37.1095 48.6618 36.8895L65.0562 27.4295C65.2348 27.3267 65.3872 27.1841 65.5017 27.0127C65.6161 26.8414 65.6896 26.646 65.7162 26.4417C65.7162 26.1095 65.417 26.0017 65.0562 26.2217L48.6618 35.6817C48.4829 35.7841 48.3302 35.9266 48.2157 36.098C48.1012 36.2694 48.028 36.465 48.0018 36.6695Z" fill="#E0E0E0"/>
<path d="M48.0018 40.282C48.0018 40.6142 48.301 40.722 48.6618 40.502L65.0562 31.042C65.2348 30.9392 65.3872 30.7966 65.5017 30.6253C65.6161 30.454 65.6896 30.2586 65.7162 30.0542C65.7162 29.722 65.417 29.6252 65.0562 29.8342L48.6618 39.2942C48.4829 39.3967 48.3302 39.5392 48.2157 39.7106C48.1012 39.882 48.028 40.0776 48.0018 40.282Z" fill="#E0E0E0"/>
<path d="M35.4882 51.1213C35.4882 51.4535 35.7874 51.5503 36.1482 51.3413L65.0562 34.6653C65.2347 34.5625 65.3872 34.4199 65.5017 34.2486C65.6161 34.0773 65.6895 33.8818 65.7162 33.6775C65.7162 33.3453 65.417 33.2485 65.0562 33.4575L36.1482 50.1357C35.9699 50.2383 35.8176 50.3806 35.7032 50.5515C35.5887 50.7224 35.5152 50.9174 35.4882 51.1213Z" fill="#E0E0E0"/>
<path d="M35.4882 54.7336C35.4882 55.0658 35.7874 55.1736 36.1482 54.9536L65.0628 38.2798C65.2413 38.177 65.3938 38.0344 65.5083 37.8631C65.6227 37.6918 65.6961 37.4963 65.7228 37.292C65.7228 36.9598 65.4236 36.863 65.0628 37.072L36.1548 53.7458C35.975 53.8479 35.8213 53.9902 35.7056 54.1615C35.59 54.3329 35.5156 54.5287 35.4882 54.7336Z" fill="#E0E0E0"/>
<path d="M35.4882 58.3462C35.4882 58.6784 35.7874 58.7862 36.1482 58.5662L65.0562 41.8902C65.2347 41.7874 65.3872 41.6447 65.5017 41.4734C65.6161 41.3021 65.6895 41.1067 65.7162 40.9024C65.7162 40.5702 65.417 40.4624 65.0562 40.6824L36.1482 57.3606C35.9699 57.4632 35.8176 57.6054 35.7032 57.7764C35.5887 57.9473 35.5152 58.1423 35.4882 58.3462Z" fill="#E0E0E0"/>
<path d="M35.4882 61.9563C35.4882 62.2885 35.7874 62.3963 36.1482 62.1763L65.0562 45.4981C65.2348 45.3959 65.3873 45.2538 65.5018 45.0828C65.6163 44.9118 65.6897 44.7166 65.7162 44.5125C65.7162 44.1781 65.417 44.0725 65.0562 44.2925L36.1482 60.9707C35.9696 61.0729 35.817 61.2151 35.7025 61.3861C35.588 61.5571 35.5147 61.7523 35.4882 61.9563Z" fill="#E0E0E0"/>
<path d="M35.4882 65.5601C35.4882 65.8923 35.7874 65.9891 36.1482 65.7801L65.0562 49.1019C65.2347 48.999 65.3872 48.8564 65.5017 48.6851C65.6161 48.5138 65.6895 48.3184 65.7162 48.1141C65.7162 47.7819 65.417 47.6851 65.0562 47.8941L36.1482 64.5701C35.9694 64.6731 35.8167 64.816 35.7023 64.9878C35.5878 65.1595 35.5145 65.3554 35.4882 65.5601Z" fill="#E0E0E0"/>
<path d="M35.4882 69.1811C35.4882 69.5133 35.7874 69.6211 36.1482 69.4011L65.0562 52.7251C65.2347 52.6223 65.3872 52.4797 65.5017 52.3084C65.6161 52.1371 65.6895 51.9417 65.7162 51.7373C65.7162 51.4051 65.417 51.2973 65.0562 51.5173L36.1548 68.1999C35.9758 68.3013 35.8226 68.4426 35.707 68.6127C35.5914 68.7829 35.5165 68.9774 35.4882 69.1811Z" fill="#E0E0E0"/>
<path d="M35.4882 72.7913C35.4882 73.1235 35.7874 73.2313 36.1482 73.0113L65.0562 56.3331C65.2348 56.2309 65.3873 56.0887 65.5018 55.9177C65.6163 55.7467 65.6897 55.5516 65.7162 55.3475C65.7162 55.0131 65.417 54.9075 65.0562 55.1275L36.1482 71.8057C35.9696 71.9079 35.817 72.0501 35.7025 72.2211C35.588 72.392 35.5147 72.5872 35.4882 72.7913Z" fill="#E0E0E0"/>
<path d="M35.4882 76.4038C35.4882 76.736 35.7874 76.8328 36.1482 76.6238L65.0562 59.9456C65.2347 59.8428 65.3872 59.7002 65.5017 59.5289C65.6161 59.3575 65.6895 59.1621 65.7162 58.9578C65.7162 58.6256 65.417 58.5178 65.0562 58.7378L36.1482 75.4138C35.9694 75.5168 35.8167 75.6598 35.7023 75.8315C35.5878 76.0032 35.5145 76.1991 35.4882 76.4038Z" fill="#E0E0E0"/>
<path d="M35.4882 80.0161C35.4882 80.3483 35.7874 80.4561 36.1482 80.2361L65.0562 63.5601C65.2347 63.4573 65.3872 63.3147 65.5017 63.1434C65.6161 62.972 65.6895 62.7766 65.7162 62.5723C65.7162 62.2401 65.417 62.1433 65.0562 62.3523L36.1482 79.0305C35.9699 79.1331 35.8176 79.2754 35.7032 79.4463C35.5887 79.6172 35.5152 79.8122 35.4882 80.0161Z" fill="#E0E0E0"/>
<path d="M80.0074 54.0013C80.0157 52.7196 80.3814 51.4655 81.0634 50.3801V48.3363C81.0726 48.2321 81.0564 48.1273 81.0161 48.0307C80.9759 47.9341 80.9129 47.8488 80.8324 47.7819C80.8124 47.7681 80.791 47.7563 80.7686 47.7467L74.14 43.9121C74.0397 43.8685 73.9298 43.8516 73.8211 43.8632C73.7123 43.8747 73.6084 43.9143 73.5196 43.9781L68.2946 46.9943C68.0427 47.1682 67.8338 47.3973 67.684 47.6642C67.5341 47.9311 67.4472 48.2287 67.43 48.5343C67.3706 50.0303 66.8822 52.8001 64.24 54.3247C61.5978 55.8493 61.1028 53.6163 61.0478 52.1907C61.0258 51.6231 60.676 51.3943 60.1854 51.6781L54.9582 54.6943C54.701 54.864 54.4874 55.0919 54.3345 55.3594C54.1816 55.6269 54.0938 55.9266 54.0782 56.2343V58.2781C54.0782 58.2781 55.1342 58.5729 55.1342 60.6805C55.1342 62.7881 53.5018 66.6095 53.5018 71.9137C53.5018 74.5691 54.3444 76.7867 56.1132 77.8053L62.755 81.6377C64.515 82.6761 67.2122 82.5177 70.9236 80.3661C78.3112 76.1003 81.6684 68.6599 81.6684 63.3579C81.6684 58.0559 80.0074 56.1001 80.0074 54.0013Z" fill="#005F31"/>
<path d="M73.4976 43.9716L68.2726 46.9878C68.0204 47.1614 67.8114 47.3905 67.6615 47.6574C67.5117 47.9244 67.4249 48.2221 67.408 48.5278C67.353 49.9072 66.935 52.3668 64.801 53.9354L60.7816 51.6144L60.7596 51.6034C60.6632 51.5604 60.5571 51.544 60.4522 51.556C60.3473 51.568 60.2476 51.6079 60.1634 51.6716L54.9362 54.6878C54.8634 54.7302 54.7949 54.7795 54.7316 54.8352C54.5615 54.9811 54.4179 55.1552 54.307 55.35C54.148 55.6169 54.0587 55.9195 54.0474 56.23V58.2738L54.3356 58.441C54.6524 58.6962 55.1034 59.299 55.1034 60.674C55.1034 62.7816 53.471 66.614 53.471 71.9072C53.471 74.5626 54.3136 76.7846 56.0824 77.8032L62.7 81.6202C60.9642 80.5884 60.1392 78.3884 60.1392 75.7572C60.1392 70.453 61.7694 66.6294 61.7694 64.5218C61.7694 62.4142 60.7134 62.1216 60.7134 62.1216V60.0778C60.7302 59.7704 60.8186 59.4711 60.9713 59.2037C61.1241 58.9364 61.3371 58.7084 61.5934 58.5378L66.8206 55.5216C66.9022 55.4608 66.9978 55.4217 67.0986 55.4078C67.1994 55.394 67.3021 55.4059 67.397 55.4424H67.419C67.5082 55.5088 67.5791 55.5966 67.6253 55.6978C67.6714 55.7989 67.6913 55.9101 67.683 56.021C67.7358 57.4488 68.2154 59.6928 70.8752 58.1572C73.535 56.6216 74.0058 53.8628 74.0674 52.3668C74.0838 52.0612 74.17 51.7635 74.3195 51.4965C74.469 51.2295 74.6778 51.0004 74.9298 50.8268L80.1548 47.8106C80.2402 47.7498 80.3393 47.7109 80.4433 47.6975C80.5473 47.684 80.653 47.6964 80.751 47.7336L74.14 43.9122C74.0374 43.8637 73.9237 43.8436 73.8107 43.854C73.6977 43.8645 73.5895 43.9051 73.4976 43.9716Z" fill="#005F31"/>
<path opacity="0.1" d="M54.34 58.4387L60.72 62.1192V60.0755C60.7299 59.7644 60.8201 59.4613 60.9818 59.1955L54.307 55.3521C54.1476 55.6188 54.0583 55.9215 54.0474 56.2321V58.2759L54.34 58.4387Z" fill="black"/>
<path opacity="0.4" d="M64.801 53.9352L60.7816 51.6142L60.7596 51.6032C60.6632 51.5602 60.5571 51.5438 60.4522 51.5558C60.3473 51.5678 60.2476 51.6077 60.1634 51.6714L54.9362 54.6876C54.8634 54.73 54.7949 54.7794 54.7316 54.835C54.5615 54.9809 54.4179 55.1551 54.307 55.3498L60.984 59.2042C61.1334 58.9344 61.3492 58.7073 61.611 58.5442L66.8382 55.528C66.9198 55.4673 67.0154 55.4282 67.1162 55.4143C67.217 55.4005 67.3196 55.4123 67.4146 55.4488L64.801 53.9352Z" fill="white"/>
<path opacity="0.4" d="M80.7686 47.7401L74.14 43.9121C74.0385 43.8653 73.9265 43.8461 73.8152 43.8565C73.7039 43.867 73.5974 43.9066 73.5064 43.9715L68.2814 46.9877C68.024 47.1499 67.8144 47.3777 67.6742 47.6477L74.349 51.4999C74.4892 51.2299 74.6988 51.0021 74.9562 50.8399L80.1812 47.8237C80.265 47.7633 80.3623 47.7241 80.4646 47.7095C80.5669 47.6949 80.6712 47.7055 80.7686 47.7401Z" fill="white"/>
<path opacity="0.1" d="M74.3402 51.5021C74.1904 51.7728 74.1025 52.0733 74.0828 52.3821C74.0234 53.8781 73.5328 56.6479 70.8928 58.1725C68.2528 59.6971 67.7534 57.4641 67.7006 56.0363C67.7089 55.9254 67.689 55.8142 67.6429 55.7131C67.5967 55.6119 67.5258 55.5241 67.4366 55.4577H67.4146L64.801 53.9485C66.935 52.3799 67.353 49.9203 67.408 48.5409C67.4269 48.232 67.5149 47.9313 67.6654 47.6609L74.3402 51.5021Z" fill="black"/>
<path opacity="0.2" d="M62.7 81.6201L56.0736 77.7987C54.3136 76.7801 53.4622 74.5581 53.4622 71.9027C53.4622 66.6007 55.0946 62.7771 55.0946 60.6695C55.0946 59.3055 54.6546 58.7027 54.3356 58.4409L60.7156 62.1215C60.7156 62.1215 61.7716 62.4163 61.7716 64.5217C61.7716 66.6271 60.1414 70.4617 60.1414 75.7571C60.148 78.3905 60.973 80.5905 62.7 81.6201Z" fill="black"/>
<path d="M72.4086 72.5428L69.5486 74.1928L69.9886 69.0206C69.6454 68.8402 69.4276 68.3958 69.4276 67.7578C69.4276 66.6182 70.1206 65.296 70.9676 64.801C71.8146 64.306 72.5076 64.8318 72.5076 65.9714C72.4899 66.6463 72.2974 67.3051 71.9488 67.8832L72.4086 72.5428Z" fill="#455A64"/>
<path d="M72.4086 72.5429L69.8192 71.0469L69.5486 74.1929L72.4086 72.5429Z" fill="#37474F"/>
<path d="M70.9786 64.8012C70.4198 65.1246 69.9314 65.8022 69.6586 66.5612L71.9642 67.8922C72.3128 67.314 72.5053 66.6553 72.523 65.9804C72.5252 64.832 71.8322 64.3084 70.9786 64.8012Z" fill="#37474F"/>
<path d="M74.2104 34.7315C72.7958 33.9153 71.0204 34.0077 69.333 34.9801L63.1004 38.5793C60.3988 40.1391 58.3616 43.6679 58.3616 46.7853V55.2003C58.3616 55.5479 58.5948 55.8977 59.0546 56.1639C59.5717 56.4263 60.1434 56.5631 60.7233 56.5631C61.3032 56.5631 61.8749 56.4263 62.392 56.1639C62.8518 55.8977 63.085 55.5479 63.085 55.2003V46.7853C63.085 45.3509 64.218 43.3885 65.461 42.6713L71.6936 39.0721H71.709V47.5025C71.709 47.8523 71.9422 48.1999 72.402 48.4661C72.9191 48.7285 73.4908 48.8653 74.0707 48.8653C74.6506 48.8653 75.2223 48.7285 75.7394 48.4661C76.1992 48.1999 76.4324 47.8523 76.4324 47.5025V39.0809C76.4324 37.1317 75.6228 35.5477 74.2104 34.7315Z" fill="#37474F"/>
<path d="M71.72 39.0809V47.4937C71.72 47.8435 71.9532 48.191 72.413 48.4572C72.6316 48.5797 72.8653 48.6729 73.1082 48.7345V38.2625L71.72 39.0633V39.0809Z" fill="#263238"/>
<path d="M99.9284 47.9004C99.5632 47.7948 99.2684 47.588 98.7426 47.4824C98.3765 47.437 98.027 47.3033 97.724 47.093C97.328 46.8268 96.5514 45.6828 95.9376 44.5432C95.2957 43.2474 94.8791 41.8517 94.7056 40.416C94.5626 38.6846 94.1622 36.368 94.0588 35.356C93.8916 33.7588 93.4164 32.936 91.5706 33.0482C91.5706 33.0482 92.0656 33.6114 91.9226 35.0546C91.7796 36.4978 92.1954 39.0146 92.5078 40.9682C92.6596 41.9142 93.1546 43.2122 94.0808 44.9458C94.7254 46.1558 95.3106 47.1766 96.2104 48.2106C96.4546 48.4922 96.5668 48.7628 96.9716 49.3568C97.1234 49.6122 97.3134 49.8429 97.5348 50.041C97.8205 50.2728 98.1385 50.4617 98.4786 50.602C98.9085 50.7817 99.3791 50.8418 99.8404 50.7758C100.091 50.7433 100.33 50.6529 100.54 50.5118C100.751 50.3641 100.903 50.1456 100.967 49.8958C100.98 49.8461 100.98 49.7938 100.967 49.744C100.94 49.6538 100.85 49.601 100.769 49.5548C100.283 49.3316 99.8097 49.0834 99.3498 48.8112C98.989 48.5626 98.769 48.3382 98.8526 48.3162C98.9362 48.2942 99.1408 48.4548 99.5126 48.5032C99.8844 48.5516 100.258 48.3778 100.267 48.1732C100.276 47.9686 100.294 48.006 99.9284 47.9004Z" fill="#9A4A4D"/>
<path d="M91.4452 32.9494C92.1052 32.9054 93.5264 32.7294 93.9532 34.0692C94.38 35.409 94.8728 40.4162 95.0048 41.052C95.2232 42.0153 95.5175 42.9598 95.8848 43.8768C96.272 44.8272 97.3962 46.7654 97.3962 46.7654L95.9948 47.96C95.9948 47.96 94.0324 45.683 93.0248 43.2652C92.0172 40.8474 91.7048 37.7256 91.6542 35.8666C91.6402 34.891 91.5704 33.917 91.4452 32.9494Z" fill="#005F31"/>
<path opacity="0.1" d="M91.4452 32.9494C92.1052 32.9054 93.5264 32.7294 93.9532 34.0692C94.38 35.409 94.8728 40.4162 95.0048 41.052C95.2232 42.0153 95.5175 42.9598 95.8848 43.8768C96.272 44.8272 97.3962 46.7654 97.3962 46.7654L95.9948 47.96C95.9948 47.96 94.0324 45.683 93.0248 43.2652C92.0172 40.8474 91.7048 37.7256 91.6542 35.8666C91.6402 34.891 91.5704 33.917 91.4452 32.9494Z" fill="black"/>
<path d="M92.697 73.7329L94.655 73.8011L94.754 70.2481L92.7938 70.1799L92.697 73.7329Z" fill="#9A4A4D"/>
<path d="M85.3644 76.1704H87.3246V72.8132H85.3644V76.1704Z" fill="#9A4A4D"/>
<path d="M87.3246 75.2046V74.923C87.5116 75.0044 87.9472 76.6676 88.726 77.3782C89.3442 77.9414 90.1868 78.5926 90.4024 79.2218C90.618 79.851 89.2276 80.2382 88.6424 80.1348C87.9714 80.016 86.8076 79.543 86.515 79.1052C86.2224 78.6674 86.086 78.0206 85.855 77.6994C85.624 77.3782 85.0718 77.0196 84.942 76.6478C84.8716 76.4432 84.9552 75.9878 85.0542 75.6182C85.1532 75.2486 85.2456 74.89 85.3622 74.923V75.143C85.6416 75.3628 85.9879 75.48 86.3434 75.4752C86.6294 75.4796 87.3268 75.4224 87.3246 75.2046Z" fill="#263238"/>
<path d="M94.677 73.1962C94.7782 73.1962 94.8618 73.3436 95.0862 73.5856C95.4208 73.9252 95.8106 74.2056 96.239 74.415C96.9738 74.7846 98.4016 75.35 99.0462 75.6404C99.451 75.8208 99.4312 76.3004 99.0154 76.5864C98.5996 76.8724 97.5898 77.0638 96.3754 76.7932C95.7154 76.6458 94.8596 76.0386 94.3162 76.0716C93.7728 76.1046 92.7586 76.0958 92.3582 75.8186C91.9578 75.5414 92.1162 74.954 92.2306 74.4458C92.3538 73.8936 92.5298 73.0466 92.7146 73.084V73.2578C92.95 73.6164 94.1512 73.7616 94.6682 73.4976L94.677 73.1962Z" fill="#263238"/>
<path d="M86.2004 45.0054C84.6604 48.1602 86.1806 60.0578 86.1806 60.0578C86.1256 60.5726 85.5096 61.578 85.2368 63.8506C84.9156 66.5346 85.1928 73.4338 85.1928 73.4338C85.1928 73.4338 86.4732 74.0014 87.516 73.5306C87.516 73.5306 89.3574 63.2918 89.7578 60.6254C90.1054 58.2978 90.7896 53.1762 90.7896 53.1762L92.224 60.6694C91.9709 61.4159 91.7825 62.1829 91.6608 62.9618C91.4716 64.5304 92.598 71.852 92.598 71.852C93.2946 72.1442 94.0687 72.1961 94.798 71.9994C94.798 71.9994 95.458 62.282 95.6516 60.39C95.964 57.2132 95.0422 47.2758 94.7166 45.1968L86.2004 45.0054Z" fill="#263238"/>
<path d="M88.2508 33.0198C87.7558 33.077 86.6118 33.2772 86.6118 33.2772C85.8528 33.5544 85.9342 34.0208 85.7318 34.749C85.4722 35.651 85.6416 37.2614 85.9518 38.148L87.4214 42.3962C86.8714 43.7162 86.3434 44.1078 86.0794 45.1176C88.4796 46.8974 93.6386 46.7918 94.7474 45.2914C94.7936 44.9724 94.3712 41.3182 94.1952 39.6924C94.9432 38.335 95.2292 37.3626 94.8376 36.322C94.1666 34.5422 92.3274 32.879 91.454 32.9494L88.2508 33.0198Z" fill="#005F31"/>
<path d="M89.7424 31.4907H89.0186C88.0063 31.4907 87.0354 31.0886 86.3196 30.3727C85.6037 29.6569 85.2016 28.686 85.2016 27.6737C85.2016 26.6561 85.6058 25.6802 86.3254 24.9607C87.0449 24.2411 88.0208 23.8369 89.0384 23.8369H89.7226C90.7402 23.8369 91.7161 24.2411 92.4356 24.9607C93.1552 25.6802 93.5594 26.6561 93.5594 27.6737C93.5594 28.686 93.1573 29.6569 92.4414 30.3727C91.7256 31.0886 90.7547 31.4907 89.7424 31.4907Z" fill="#263238"/>
<path d="M83.2458 33.2462C83.5548 33.2465 83.8609 33.1859 84.1465 33.0679C84.432 32.9498 84.6916 32.7766 84.9102 32.5582C85.1288 32.3398 85.3022 32.0804 85.4206 31.795C85.5389 31.5095 85.5998 31.2035 85.5998 30.8944V25.8542C84.9755 25.8542 84.3767 26.1023 83.9353 26.5437C83.4938 26.9852 83.2458 27.5839 83.2458 28.2082V33.2462Z" fill="#263238"/>
<path d="M92.3098 25.2295C92.7696 25.5023 93.3394 26.6617 93.2822 29.0905C93.236 31.1475 92.5672 31.6557 92.2328 31.8031C91.8984 31.9505 91.2516 31.8603 90.6224 31.7547V32.9999L90.497 34.4497L88.0374 33.3255V30.3313C88.0374 30.3313 87.6128 30.8967 86.9198 30.4369C86.2268 29.9771 86.2004 28.8353 86.603 28.4261C87.0056 28.0169 87.8768 28.1467 88.0374 28.7121C88.0374 28.7121 88.319 28.1203 89.7578 27.6275C91.2736 27.1083 91.7774 26.1975 92.3098 25.2295Z" fill="#B16668"/>
<path d="M90.7544 28.5734C90.7548 28.6243 90.7402 28.6741 90.7125 28.7168C90.6847 28.7594 90.6451 28.793 90.5985 28.8133C90.5518 28.8336 90.5003 28.8397 90.4502 28.831C90.4001 28.8223 90.3536 28.799 90.3166 28.7641C90.2796 28.7292 90.2537 28.6842 90.2421 28.6347C90.2305 28.5852 90.2336 28.5333 90.2512 28.4856C90.2687 28.4379 90.3 28.3963 90.3409 28.3662C90.3819 28.336 90.4308 28.3186 90.4816 28.316C90.5518 28.3142 90.6199 28.3403 90.671 28.3885C90.7221 28.4367 90.7521 28.5032 90.7544 28.5734Z" fill="#263238"/>
<path d="M91.0536 30.3181L91.6542 30.5095C91.6441 30.5501 91.6258 30.5883 91.6004 30.6216C91.5751 30.6549 91.5432 30.6827 91.5068 30.7033C91.4704 30.7239 91.4301 30.7368 91.3885 30.7413C91.3469 30.7458 91.3048 30.7418 91.2648 30.7295C91.1827 30.7023 91.1146 30.6439 91.0751 30.567C91.0356 30.4901 91.0278 30.4007 91.0536 30.3181Z" fill="#9A4A4D"/>
<path d="M92.8752 27.7771L92.3516 27.4141C92.3736 27.3782 92.4028 27.3472 92.4373 27.3231C92.4719 27.299 92.5111 27.2823 92.5524 27.274C92.5937 27.2657 92.6363 27.2661 92.6774 27.2751C92.7186 27.284 92.7575 27.3014 92.7916 27.3261C92.8613 27.3758 92.909 27.4506 92.9246 27.5347C92.9402 27.6189 92.9225 27.7058 92.8752 27.7771Z" fill="#263238"/>
<path d="M92.7564 28.3798C92.7609 28.4153 92.7581 28.4513 92.7481 28.4856C92.7381 28.52 92.721 28.5519 92.6981 28.5793C92.6752 28.6068 92.6468 28.6292 92.6148 28.6451C92.5828 28.6611 92.5479 28.6703 92.5121 28.6721C92.4764 28.674 92.4407 28.6684 92.4072 28.6557C92.3738 28.6431 92.3433 28.6237 92.3177 28.5987C92.2921 28.5738 92.2719 28.5438 92.2584 28.5106C92.2449 28.4775 92.2385 28.442 92.2394 28.4062C92.2367 28.3716 92.2409 28.3369 92.2517 28.3039C92.2626 28.271 92.2799 28.2405 92.3026 28.2143C92.3253 28.1881 92.353 28.1667 92.3841 28.1513C92.4152 28.1359 92.449 28.1268 92.4836 28.1246C92.5535 28.1228 92.6212 28.1486 92.6723 28.1963C92.7233 28.2441 92.7535 28.31 92.7564 28.3798Z" fill="#263238"/>
<path d="M91.4914 28.2368L91.5332 29.7944L92.3516 29.5414L91.4914 28.2368Z" fill="#9A4A4D"/>
<path d="M90.6224 31.7547C89.9624 31.6689 88.6006 31.2773 88.3872 30.7383C88.4721 31.0113 88.6387 31.2516 88.8646 31.4269C89.2716 31.7745 90.6246 32.1683 90.6246 32.1683L90.6224 31.7547Z" fill="#9A4A4D"/>
<path d="M90.7896 53.1762L91.5376 49.544C91.5376 49.544 93.0996 49.2822 93.929 48.6904C93.4579 49.2612 92.8481 49.7013 92.158 49.9686L91.3 53.3962L91.52 56.9602L90.7896 53.1762Z" fill="black"/>
<path d="M87.9868 26.3384C87.9868 26.3384 90.9436 28.3514 92.9984 27.346C95.0532 26.3406 92.3912 24.926 92.3912 24.926L87.9868 26.3384Z" fill="#37474F"/>
<path d="M92.3692 22.1187C90.6092 21.6259 88.7018 21.3091 86.4842 22.1187C84.2666 22.9283 83.7826 24.2967 83.7826 24.2967C83.7826 24.2967 86.0398 25.1899 87.8768 24.8885C89.7138 24.5871 92.3692 22.1187 92.3692 22.1187Z" fill="#005F31"/>
<path opacity="0.4" d="M92.3692 22.1187C90.6092 21.6259 88.7018 21.3091 86.4842 22.1187C84.2666 22.9283 83.7826 24.2967 83.7826 24.2967C83.7826 24.2967 86.0398 25.1899 87.8768 24.8885C89.7138 24.5871 92.3692 22.1187 92.3692 22.1187Z" fill="white"/>
<path d="M85.0168 25.1261C85.0168 25.1261 83.8882 24.5893 83.7826 24.2923C84.6606 24.3923 85.5494 24.3349 86.4072 24.1229C87.8746 23.7687 89.4014 22.3431 91.0536 22.0923C92.7058 21.8415 93.4098 22.6841 93.4098 22.6841C93.4098 22.6841 93.0446 23.8589 92.4726 24.5717C92.4726 24.5717 91.9622 25.6871 90.0174 25.9445C88.0726 26.2019 85.0168 25.1261 85.0168 25.1261Z" fill="#005F31"/>
<path d="M85.0168 25.1262L85.1092 25.4474C85.1443 25.5561 85.2015 25.6564 85.2773 25.7419C85.353 25.8275 85.4456 25.8965 85.5492 25.9446C86.9842 26.516 88.5519 26.6685 90.0702 26.3846C91.4364 26.1316 92.0502 25.7818 92.2988 25.5178C92.3877 25.4397 92.4547 25.3398 92.4932 25.2279C92.5318 25.116 92.5406 24.9961 92.5188 24.8798L92.4726 24.5674C92.4726 24.5674 92.0502 25.157 89.8172 25.5948C87.5842 26.0326 85.0168 25.1262 85.0168 25.1262Z" fill="#455A64"/>
<path d="M91.2252 22.75C91.2076 23.0954 90.8446 23.729 90.3628 23.4298V24.3098C90.3628 24.8488 90.6796 25.0358 91.1922 24.928C91.4472 24.8798 91.677 24.7429 91.8409 24.5416C92.0047 24.3403 92.0921 24.0875 92.0876 23.828C92.0876 23.663 92.0876 23.08 92.0876 23.08C91.7092 23.5904 91.2186 22.8798 91.2252 22.75Z" fill="#FAFAFA"/>
<path d="M88.0374 29.2446V28.0764H88.4928V28.7892C88.4928 28.91 88.4448 29.0258 88.3594 29.1112C88.274 29.1966 88.1582 29.2446 88.0374 29.2446Z" fill="#263238"/>
<path d="M90.497 34.441L88.0374 32.648V32.208C88.0374 32.208 87.5204 32.296 87.395 33.2816C87.7798 34.1319 88.4381 34.8289 89.265 35.2616L89.7732 34.3618L90.497 34.441Z" fill="#005F31"/>
<path opacity="0.1" d="M90.497 34.441L88.0374 32.648V32.208C88.0374 32.208 87.5204 32.296 87.395 33.2816C87.7798 34.1319 88.4381 34.8289 89.265 35.2616L89.7732 34.3618L90.497 34.441Z" fill="black"/>
<path d="M90.6224 32.3091C90.942 32.3606 91.2295 32.5331 91.4254 32.7909C91.6674 33.1891 91.6124 34.7071 91.6124 34.7071L90.9678 33.9723L90.497 34.4409C90.5498 33.9349 90.6224 32.9911 90.6224 32.9911V32.3091Z" fill="#005F31"/>
<path opacity="0.1" d="M90.6224 32.3091C90.942 32.3606 91.2295 32.5331 91.4254 32.7909C91.6674 33.1891 91.6124 34.7071 91.6124 34.7071L90.9678 33.9723L90.497 34.4409C90.5498 33.9349 90.6224 32.9911 90.6224 32.9911V32.3091Z" fill="black"/>
<path d="M88.5984 50.3358C88.2926 50.1158 88.0924 49.8122 87.6348 49.5284C87.307 49.3585 87.026 49.1107 86.8164 48.8068C86.5392 48.4174 86.2114 47.0754 86.0354 45.7928C85.8264 44.2792 86.0574 42.2244 86.1652 41.3752C86.4036 39.7445 86.7341 38.1286 87.1552 36.5352C87.1728 36.4626 86.7768 34.2494 86.3412 33.8952C86.3412 33.8952 85.8418 33.8248 85.2016 35.1272C84.5614 36.4296 84.2468 39.3072 84.0708 41.241C83.9256 42.672 83.9522 44.1152 84.15 45.5398C84.3304 46.8994 84.5218 48.0588 85.0036 49.3436C85.1334 49.6934 85.1444 49.986 85.316 50.6834C85.3699 50.9752 85.4663 51.2576 85.602 51.5216C85.7897 51.8382 86.0215 52.1263 86.2906 52.3774C86.6313 52.6962 87.0515 52.9173 87.5072 53.0176C87.756 53.077 88.0152 53.077 88.264 53.0176C88.5146 52.949 88.7328 52.7939 88.88 52.5798C88.9116 52.5381 88.9313 52.4887 88.9372 52.4368C88.9311 52.343 88.8885 52.2553 88.8184 52.1926C88.4425 51.8137 88.0863 51.4157 87.7514 51.0002C87.4984 50.6394 87.3708 50.3512 87.4588 50.3622C87.5468 50.3732 87.6788 50.5932 88.0176 50.7714C88.3564 50.9496 88.7612 50.9144 88.8426 50.7252C88.924 50.536 88.9042 50.5602 88.5984 50.3358Z" fill="#9A4A4D"/>
<path d="M86.5766 33.2815C86.5766 33.2815 87.6766 35.5013 87.186 37.4615C86.735 39.2523 86.4798 41.5447 86.383 42.1871C86.2476 43.1651 86.1888 44.1523 86.207 45.1395C86.2378 46.1647 86.614 48.3735 86.614 48.3735L84.8914 49.0115C84.8914 49.0115 83.8486 46.1911 83.7496 43.5731C83.6506 40.9551 83.9036 37.8531 84.3282 36.0359C84.5152 35.2527 84.7352 33.5961 86.5766 33.2815Z" fill="#005F31"/>
<path opacity="0.1" d="M86.5766 33.2815C86.5766 33.2815 87.6766 35.5013 87.186 37.4615C86.735 39.2523 86.4798 41.5447 86.383 42.1871C86.2476 43.1651 86.1888 44.1523 86.207 45.1395C86.2378 46.1647 86.614 48.3735 86.614 48.3735L84.8914 49.0115C84.8914 49.0115 83.8486 46.1911 83.7496 43.5731C83.6506 40.9551 83.9036 37.8531 84.3282 36.0359C84.5152 35.2527 84.7352 33.5961 86.5766 33.2815Z" fill="black"/>
<path d="M88.3476 37.0589C88.3476 37.0589 89.9888 36.9907 90.6642 36.7289V36.4011C89.98 36.6629 88.3476 36.7399 88.3476 36.7399V37.0589Z" fill="#37474F"/>
<path d="M84.7616 35.8599C84.7616 35.8599 85.2786 35.6795 85.9914 36.0799L86.009 36.0073C86.0169 35.9697 86.0122 35.9305 85.9955 35.8958C85.9787 35.8612 85.951 35.8331 85.9166 35.8159C85.61 35.6548 85.2616 35.5911 84.9178 35.6333C84.8853 35.639 84.8553 35.6541 84.8314 35.6768C84.8075 35.6995 84.7909 35.7288 84.7836 35.7609L84.7616 35.8599Z" fill="#37474F"/>
<path d="M85.674 36.8644C85.7596 36.4802 85.5954 36.1166 85.3072 36.0524C85.019 35.9882 84.716 36.2476 84.6304 36.6319C84.5448 37.0161 84.709 37.3797 84.9972 37.4439C85.2854 37.5081 85.5884 37.2486 85.674 36.8644Z" fill="#37474F"/>
</svg>
