<svg width="113" height="113" viewBox="0 0 113 113" fill="none" xmlns="http://www.w3.org/2000/svg">
<path d="M56.5 96.6285C80.7006 96.6285 100.319 95.4831 100.319 94.0702C100.319 92.6573 80.7006 91.5119 56.5 91.5119C32.2994 91.5119 12.6809 92.6573 12.6809 94.0702C12.6809 95.4831 32.2994 96.6285 56.5 96.6285Z" fill="#F5F5F5"/>
<path d="M55.4762 53.1348L55.8559 53.6049L19.7569 82.3589L21.296 84.2641L21.5062 84.524L57.6051 55.77L57.9848 56.2401L58.6606 53.1281L55.4762 53.1348Z" fill="#005F31"/>
<path opacity="0.7" d="M55.4762 53.1348L55.8559 53.6049L19.7569 82.3589L21.296 84.2641L21.5062 84.524L57.6051 55.77L57.9848 56.2401L58.6606 53.1281L55.4762 53.1348Z" fill="white"/>
<path d="M14.4437 84.3703C14.4443 84.0552 14.5697 83.7532 14.7925 83.5304C15.0153 83.3076 15.3173 83.1821 15.6324 83.1815C15.7482 83.1813 15.8633 83.1988 15.9737 83.2335C15.9555 83.1123 15.9464 82.9899 15.9466 82.8674C15.9466 82.5369 16.0117 82.2096 16.1382 81.9043C16.2648 81.5989 16.4503 81.3215 16.6841 81.0879C16.9179 80.8543 17.1955 80.6691 17.5009 80.5428C17.8064 80.4165 18.1337 80.3517 18.4642 80.352C18.6159 80.352 18.7672 80.3664 18.9162 80.3949C19.1659 79.9917 19.5394 79.68 19.9808 79.5064C20.4222 79.3327 20.9079 79.3065 21.3655 79.4316C21.823 79.5566 22.2279 79.8263 22.5196 80.2003C22.8113 80.5743 22.9743 81.0326 22.9842 81.5069H23.052C23.3322 81.4839 23.614 81.5193 23.8798 81.6108C24.1456 81.7023 24.3896 81.8478 24.5963 82.0383C24.803 82.2288 24.968 82.4601 25.0808 82.7175C25.1937 82.975 25.2519 83.253 25.2519 83.5341C25.2519 83.8152 25.1937 84.0932 25.0808 84.3507C24.968 84.6081 24.803 84.8394 24.5963 85.0299C24.3896 85.2203 24.1456 85.3659 23.8798 85.4574C23.614 85.5489 23.3322 85.5842 23.052 85.5613H15.594C15.2848 85.5519 14.9916 85.4221 14.7767 85.1996C14.5618 84.9772 14.4423 84.6796 14.4437 84.3703Z" fill="#005F31"/>
<path opacity="0.8" d="M14.4437 84.3703C14.4443 84.0552 14.5697 83.7532 14.7925 83.5304C15.0153 83.3076 15.3173 83.1821 15.6324 83.1815C15.7482 83.1813 15.8633 83.1988 15.9737 83.2335C15.9555 83.1123 15.9464 82.9899 15.9466 82.8674C15.9466 82.5369 16.0117 82.2096 16.1382 81.9043C16.2648 81.5989 16.4503 81.3215 16.6841 81.0879C16.9179 80.8543 17.1955 80.6691 17.5009 80.5428C17.8064 80.4165 18.1337 80.3517 18.4642 80.352C18.6159 80.352 18.7672 80.3664 18.9162 80.3949C19.1659 79.9917 19.5394 79.68 19.9808 79.5064C20.4222 79.3327 20.9079 79.3065 21.3655 79.4316C21.823 79.5566 22.2279 79.8263 22.5196 80.2003C22.8113 80.5743 22.9743 81.0326 22.9842 81.5069H23.052C23.3322 81.4839 23.614 81.5193 23.8798 81.6108C24.1456 81.7023 24.3896 81.8478 24.5963 82.0383C24.803 82.2288 24.968 82.4601 25.0808 82.7175C25.1937 82.975 25.2519 83.253 25.2519 83.5341C25.2519 83.8152 25.1937 84.0932 25.0808 84.3507C24.968 84.6081 24.803 84.8394 24.5963 85.0299C24.3896 85.2203 24.1456 85.3659 23.8798 85.4574C23.614 85.5489 23.3322 85.5842 23.052 85.5613H15.594C15.2848 85.5519 14.9916 85.4221 14.7767 85.1996C14.5618 84.9772 14.4423 84.6796 14.4437 84.3703Z" fill="white"/>
<path d="M90.1175 71.3505L91.0192 72.4669L74.2387 86.0201L77.8864 90.5356L78.3858 91.1549L95.1641 77.5994L96.0658 78.7158L97.6704 71.3347L90.1175 71.3505Z" fill="#005F31"/>
<path opacity="0.5" d="M90.1175 71.3505L91.0192 72.4669L74.2387 86.0201L77.8864 90.5356L78.3858 91.1549L95.1641 77.5994L96.0658 78.7158L97.6704 71.3347L90.1175 71.3505Z" fill="white"/>
<path d="M81.0459 85.5342C80.6998 84.9788 80.2168 84.5216 79.6433 84.2063C79.0698 83.8911 78.425 83.7284 77.7706 83.7338C77.1162 83.7393 76.4742 83.9127 75.906 84.2374C75.3378 84.5622 74.8626 85.0274 74.5258 85.5885C74.2208 85.4991 73.8992 85.4825 73.5867 85.5398C73.2741 85.5972 72.9794 85.727 72.7261 85.9188C72.4727 86.1106 72.2679 86.3591 72.1279 86.6444C71.9879 86.9296 71.9167 87.2437 71.92 87.5614H70.8397C70.7011 87.5549 70.5625 87.5766 70.4325 87.6252C70.3025 87.6737 70.1837 87.7482 70.0833 87.844C69.9828 87.9398 69.9029 88.055 69.8483 88.1826C69.7937 88.3102 69.7655 88.4476 69.7655 88.5863C69.7655 88.7251 69.7937 88.8625 69.8483 88.9901C69.9029 89.1177 69.9828 89.2329 70.0833 89.3287C70.1837 89.4245 70.3025 89.4989 70.4325 89.5475C70.5625 89.5961 70.7011 89.6178 70.8397 89.6113H74.58C74.8888 90.0989 75.3039 90.5103 75.7943 90.8146C76.2847 91.119 76.8376 91.3083 77.4117 91.3686C77.9857 91.4288 78.5659 91.3583 79.1088 91.1624C79.6516 90.9665 80.1431 90.6502 80.5464 90.2373C80.6111 90.2407 80.676 90.2407 80.7408 90.2373C81.3424 90.2384 81.922 90.0105 82.3617 89.5998C82.8015 89.1892 83.0685 88.6265 83.1084 88.0262C83.1484 87.4258 82.9584 86.8328 82.577 86.3674C82.1956 85.9021 81.6514 85.5993 81.0549 85.5207L81.0459 85.5342Z" fill="#005F31"/>
<path opacity="0.8" d="M81.0459 85.5342C80.6998 84.9788 80.2168 84.5216 79.6433 84.2063C79.0698 83.8911 78.425 83.7284 77.7706 83.7338C77.1162 83.7393 76.4742 83.9127 75.906 84.2374C75.3378 84.5622 74.8626 85.0274 74.5258 85.5885C74.2208 85.4991 73.8992 85.4825 73.5867 85.5398C73.2741 85.5972 72.9794 85.727 72.7261 85.9188C72.4727 86.1106 72.2679 86.3591 72.1279 86.6444C71.9879 86.9296 71.9167 87.2437 71.92 87.5614H70.8397C70.7011 87.5549 70.5625 87.5766 70.4325 87.6252C70.3025 87.6737 70.1837 87.7482 70.0833 87.844C69.9828 87.9398 69.9029 88.055 69.8483 88.1826C69.7937 88.3102 69.7655 88.4476 69.7655 88.5863C69.7655 88.7251 69.7937 88.8625 69.8483 88.9901C69.9029 89.1177 69.9828 89.2329 70.0833 89.3287C70.1837 89.4245 70.3025 89.4989 70.4325 89.5475C70.5625 89.5961 70.7011 89.6178 70.8397 89.6113H74.58C74.8888 90.0989 75.3039 90.5103 75.7943 90.8146C76.2847 91.119 76.8376 91.3083 77.4117 91.3686C77.9857 91.4288 78.5659 91.3583 79.1088 91.1624C79.6516 90.9665 80.1431 90.6502 80.5464 90.2373C80.6111 90.2407 80.676 90.2407 80.7408 90.2373C81.3424 90.2384 81.922 90.0105 82.3617 89.5998C82.8015 89.1892 83.0685 88.6265 83.1084 88.0262C83.1484 87.4258 82.9584 86.8328 82.577 86.3674C82.1956 85.9021 81.6514 85.5993 81.0549 85.5207L81.0459 85.5342Z" fill="white"/>
<path d="M55.8536 39.6743L55.5282 39.324C55.4851 39.2786 55.4312 39.2448 55.3715 39.2259C55.3119 39.2069 55.2484 39.2033 55.1869 39.2156L54.692 39.324C54.6147 39.3394 54.5441 39.3786 54.4902 39.4362C54.4362 39.4938 54.4017 39.5668 54.3914 39.645L54.1428 41.679L54.8977 41.9705C55.8197 41.5682 55.7723 40.3523 55.7723 40.3523L55.9034 40.1105C55.9423 40.0419 55.9584 39.9627 55.9495 39.8843C55.9406 39.806 55.907 39.7324 55.8536 39.6743Z" fill="#FFB573"/>
<path d="M46.73 45.7966C46.73 45.7966 47.4555 45.8396 47.8804 45.8305C48.3052 45.8215 48.7346 45.817 49.1527 45.7921C49.5708 45.7673 49.9844 45.7356 50.3641 45.6836C50.5376 45.6604 50.7097 45.6272 50.8794 45.5842L51.0421 45.5322C51.0918 45.5096 51.0421 45.548 51.0647 45.5322C51.1823 45.4147 51.2918 45.2894 51.3924 45.1571C51.5167 44.9989 51.641 44.8294 51.7653 44.6576C52.0139 44.3118 52.258 43.9525 52.5043 43.5909L53.9801 41.4009L55.135 42.0134C54.9655 42.436 54.7801 42.8428 54.5971 43.2541C54.414 43.6655 54.2106 44.0677 54.0117 44.4723C53.8129 44.8768 53.5959 45.2791 53.3654 45.6814C53.2501 45.8825 53.1394 46.0837 52.9993 46.2893C52.8523 46.5261 52.6844 46.7493 52.4975 46.956C52.3468 47.113 52.1722 47.2449 51.98 47.347C51.8344 47.425 51.6834 47.4922 51.528 47.5481C51.2745 47.6416 51.0147 47.7171 50.7506 47.7741C50.2792 47.8807 49.8013 47.9562 49.32 48.0001C48.3988 48.0939 47.4727 48.1301 46.547 48.1086L46.73 45.7966Z" fill="#005F31"/>
<path opacity="0.7" d="M55.144 42.018C54.9745 42.4383 54.7914 42.8451 54.6084 43.2564C54.4253 43.6678 54.2219 44.0701 54.0208 44.4769C53.8196 44.8837 53.6072 45.2814 53.3767 45.6837C53.2614 45.8848 53.1507 46.086 53.0083 46.2916C52.863 46.529 52.6958 46.7522 52.5088 46.9583C52.3545 47.1153 52.1759 47.2466 51.98 47.3471C51.8347 47.4261 51.6836 47.4941 51.528 47.5504C51.2748 47.6426 51.0159 47.7181 50.7528 47.7764C50.2812 47.8819 49.8034 47.9573 49.3222 48.0024C49.1211 48.0228 48.9222 48.0386 48.7256 48.0544C48.0001 48.1064 47.286 48.1245 46.5492 48.1087L46.5854 47.6341L46.7278 45.8102C46.7278 45.8102 47.451 45.8555 47.8758 45.8442C48.3007 45.8329 48.7301 45.8306 49.1505 45.8057C49.5708 45.7809 49.9822 45.7515 50.3618 45.6972C50.5357 45.6758 50.7078 45.6426 50.8771 45.5978C50.9325 45.5841 50.9868 45.5668 51.0398 45.5458C51.0896 45.5232 51.0398 45.5639 51.0624 45.5458C51.18 45.4283 51.2895 45.303 51.3901 45.1707C51.5144 45.0125 51.6387 44.843 51.7608 44.6712C52.0094 44.3254 52.2557 43.9661 52.5021 43.6045L53.9778 41.4146L55.144 42.018Z" fill="white"/>
<path opacity="0.1" d="M48.7279 48.0409C48.0024 48.0928 47.2882 48.1109 46.5515 48.0951L46.5876 47.6205L46.7639 47.2047C47.502 47.2194 48.2057 47.519 48.7279 48.0409Z" fill="black"/>
<path d="M34.6435 86.332C34.6435 86.332 32.6095 84.924 32.7225 83.9794C32.7267 83.9576 32.7264 83.9352 32.7215 83.9136C32.7166 83.892 32.7072 83.8716 32.6941 83.8537C32.6809 83.8359 32.6642 83.821 32.645 83.8099C32.6258 83.7989 32.6045 83.7919 32.5824 83.7895L30.849 83.5274C30.8066 83.5193 30.7628 83.5235 30.7228 83.5395C30.6827 83.5556 30.6481 83.5827 30.623 83.6178L29.606 85.0619L30.058 85.2269L30.3043 85.0551L30.4219 85.3602C32.9192 86.2642 34.0085 86.6281 34.5599 86.6507C34.7226 86.4563 34.6435 86.332 34.6435 86.332Z" fill="black"/>
<path d="M46.165 59.7544C46.165 59.7544 46.0611 60.0256 45.878 60.4957C45.6814 61.0042 45.3921 61.7455 45.0441 62.6269C44.8181 63.2145 44.5536 63.8654 44.2757 64.5501C42.9988 67.7141 41.349 71.6488 40.2574 73.6308C38.1669 77.4231 32.7203 84.6257 32.7203 84.6257L30.5439 83.8302C30.5439 83.8302 34.4627 76.4129 36.4402 72.6545C37.1899 71.1369 37.8509 69.5772 38.42 67.9831C38.7477 67.1085 39.0731 66.1977 39.3873 65.2959C39.5297 64.8891 39.6698 64.4823 39.8054 64.0823C40.1647 63.0246 40.5015 62.0054 40.7975 61.0969C40.8337 60.9839 40.8698 60.8709 40.906 60.7624C41.0258 60.3895 41.132 60.0369 41.2405 59.7115C41.6654 58.3736 41.9298 57.4922 41.9388 57.4515L43.8802 58.5092L46.165 59.7544Z" fill="#263238"/>
<path opacity="0.3" d="M45.878 60.4957C45.6814 61.0042 45.3921 61.7455 45.0441 62.6269C44.8181 63.2145 44.5536 63.8654 44.2757 64.5501C42.4993 64.9072 40.6913 65.1491 39.3918 65.296C39.5342 64.8892 39.6743 64.4823 39.8099 64.0823C40.1692 63.0246 40.506 62.0054 40.802 61.0969C40.8382 60.9839 40.8744 60.8709 40.9105 60.7624C41.0303 60.3895 41.1365 60.0369 41.245 59.7115C42.5513 59.89 44.296 60.1567 45.878 60.4957Z" fill="black"/>
<path d="M39.211 47.008C39.5239 48.1443 39.7244 49.3085 39.8099 50.4839C39.889 51.4218 39.9184 52.3439 39.9229 53.1733C39.9274 54.0027 39.9003 54.744 39.8732 55.309C39.837 56.0367 39.7941 56.4819 39.7941 56.4819L46.66 56.8368C48.7211 49.3788 46.7278 45.7989 46.7278 45.7989C46.1161 45.7454 45.5016 45.731 44.8881 45.756C44.7616 45.756 44.6305 45.7695 44.4994 45.7808C43.466 45.8997 42.4404 46.0793 41.4281 46.3187C41.245 46.3594 41.0597 46.4069 40.8789 46.4543C39.9839 46.6984 39.211 47.008 39.211 47.008Z" fill="#005F31"/>
<path opacity="0.7" d="M46.6622 56.8345L39.7963 56.4819C39.7963 56.4819 39.8393 56.0299 39.8754 55.3067C39.8754 55.0943 39.8935 54.8547 39.9026 54.5903C39.9161 54.1677 39.9252 53.6863 39.9252 53.171C39.9252 52.9202 39.9252 52.6603 39.9116 52.3936C39.9116 52.3507 39.9116 52.3077 39.9116 52.2648C39.9003 51.8422 39.88 51.4037 39.8506 50.9585C39.837 50.8003 39.8257 50.6421 39.8122 50.4839C39.8122 50.3596 39.7918 50.233 39.7805 50.1087C39.7466 49.7923 39.7105 49.4759 39.6653 49.1641C39.654 49.0782 39.6404 48.9923 39.6268 48.9087C39.6065 48.7663 39.5839 48.6284 39.559 48.4883C39.4713 47.9876 39.3566 47.4919 39.2155 47.0035C39.2155 47.0035 39.9907 46.7007 40.8879 46.4543C41.0665 46.4069 41.2518 46.3594 41.4348 46.3187C42.4475 46.0808 43.4729 45.9012 44.5062 45.7808C44.6395 45.7808 44.7683 45.7605 44.8972 45.7582C45.5106 45.732 46.1251 45.7455 46.7368 45.7989C46.7368 45.7989 48.7233 49.3652 46.6622 56.8345Z" fill="white"/>
<path d="M50.9088 74.7021C50.9088 74.7021 48.9471 73.1788 49.1279 72.2432C49.1332 72.2216 49.134 72.1992 49.1303 72.1773C49.1266 72.1555 49.1185 72.1346 49.1064 72.1159C49.0944 72.0973 49.0786 72.0813 49.0601 72.069C49.0417 72.0567 49.0209 72.0483 48.9991 72.0443L47.2815 71.6827C47.2402 71.6734 47.1971 71.6759 47.1571 71.6899C47.1172 71.7039 47.0819 71.7288 47.0555 71.7618L45.9503 73.1382L46.4023 73.3303L46.6577 73.1721L46.7571 73.4817C49.2002 74.5281 50.2669 74.9552 50.8251 75.0094C50.9811 74.8241 50.9088 74.7021 50.9088 74.7021Z" fill="black"/>
<path d="M43.0801 62.6675H43.2406L51.4738 63.8653L46.782 71.642L49.1279 72.546C49.1279 72.546 57.6142 63.3975 55.718 61.3115C54.1586 59.5962 46.5198 58.5521 46.5198 58.5521L46.7707 56.7622L39.7105 55.37C36.6888 61.9737 42.0699 62.602 43.0801 62.6675Z" fill="#263238"/>
<path d="M39.6268 56.0639L39.4777 56.0345L39.6133 55.5599L39.7466 55.5847L39.6268 56.0639Z" fill="#263238"/>
<path d="M45.1842 57.1396L42.1671 56.5565L42.2846 56.0774L45.2904 56.6605L45.1842 57.1396Z" fill="#263238"/>
<path d="M45.5232 56.7057L46.7978 56.952L46.7119 57.4357L45.4215 57.1848L45.5232 56.7057Z" fill="#263238"/>
<path d="M39.9794 55.6299L42.0541 56.0322L41.932 56.5091L39.8641 56.1091L39.9794 55.6299Z" fill="#263238"/>
<g opacity="0.2">
<path d="M39.6268 56.0639L39.4777 56.0345L39.6133 55.5599L39.7466 55.5847L39.6268 56.0639Z" fill="white"/>
<path d="M45.1842 57.1396L42.1671 56.5565L42.2846 56.0774L45.2904 56.6605L45.1842 57.1396Z" fill="white"/>
<path d="M45.5232 56.7057L46.7978 56.952L46.7119 57.4357L45.4215 57.1848L45.5232 56.7057Z" fill="white"/>
<path d="M39.9794 55.6299L42.0541 56.0322L41.932 56.5091L39.8641 56.1091L39.9794 55.6299Z" fill="white"/>
</g>
<path d="M44.192 56.9995H44.1649L43.4101 56.8639C43.3889 56.8606 43.3688 56.8528 43.3508 56.8411C43.3329 56.8294 43.3177 56.8141 43.3061 56.7961C43.2941 56.7785 43.286 56.7584 43.2825 56.7373C43.279 56.7162 43.2801 56.6946 43.2858 56.6741L43.3604 56.3712C43.3695 56.3322 43.3936 56.2984 43.4273 56.2768C43.4611 56.2553 43.502 56.2478 43.5412 56.2559L44.2892 56.4006C44.31 56.4039 44.3299 56.4117 44.3475 56.4234C44.365 56.4351 44.3798 56.4505 44.3909 56.4684C44.4024 56.4859 44.4101 56.5055 44.4136 56.5261C44.4171 56.5468 44.4163 56.5679 44.4113 56.5882L44.3435 56.8797C44.3353 56.9138 44.316 56.9441 44.2885 56.9659C44.2611 56.9876 44.2271 56.9994 44.192 56.9995ZM43.514 56.3825C43.5089 56.3828 43.5039 56.3847 43.4998 56.3879C43.4958 56.3912 43.4929 56.3956 43.4914 56.4006L43.4169 56.7034C43.4156 56.7063 43.415 56.7094 43.415 56.7125C43.415 56.7156 43.4156 56.7187 43.4169 56.7215C43.4194 56.7226 43.4221 56.7231 43.4248 56.7231C43.4275 56.7231 43.4302 56.7226 43.4327 56.7215L44.1875 56.8571C44.1934 56.8574 44.1992 56.8559 44.2041 56.8526C44.209 56.8493 44.2127 56.8446 44.2146 56.839L44.2824 56.5475C44.2838 56.5447 44.2846 56.5416 44.2846 56.5384C44.2846 56.5353 44.2838 56.5322 44.2824 56.5294C44.2804 56.5282 44.278 56.5276 44.2757 56.5276C44.2733 56.5276 44.2709 56.5282 44.2689 56.5294L43.5208 56.3825H43.514Z" fill="white"/>
<path d="M43.722 56.6628H43.7107L43.4847 56.6221C43.476 56.6207 43.4677 56.6176 43.4602 56.613C43.4528 56.6084 43.4463 56.6023 43.4413 56.5951C43.4362 56.588 43.4327 56.5799 43.4308 56.5713C43.4289 56.5627 43.4288 56.5539 43.4304 56.5452C43.4315 56.5364 43.4344 56.528 43.4389 56.5203C43.4434 56.5127 43.4495 56.5061 43.4568 56.501C43.464 56.4959 43.4722 56.4924 43.4809 56.4906C43.4896 56.4889 43.4986 56.489 43.5073 56.491L43.7333 56.5317C43.7419 56.5331 43.7502 56.5361 43.7577 56.5408C43.7651 56.5454 43.7716 56.5515 43.7766 56.5586C43.7817 56.5658 43.7853 56.5739 43.7871 56.5825C43.789 56.5911 43.7891 56.5999 43.7875 56.6085C43.7844 56.6237 43.7762 56.6373 43.7643 56.6472C43.7524 56.6571 43.7374 56.6626 43.722 56.6628Z" fill="white"/>
<path d="M42.1422 43.2L43.9344 44.687C43.7604 45.4148 44.0655 46.086 44.418 46.2103C44.418 46.2103 44.6802 46.834 44.1762 46.938C43.1524 47.1504 41.9863 46.1606 41.9863 46.1606C42.5287 45.5797 42.3321 44.1288 42.1422 43.2Z" fill="#EBB376"/>
<path opacity="0.2" d="M42.8722 43.8056L43.9344 44.6847C43.8894 44.8536 43.8591 45.026 43.844 45.2C43.4462 45.148 42.8971 44.7232 42.8519 44.3073C42.8293 44.1402 42.8362 43.9704 42.8722 43.8056Z" fill="black"/>
<path d="M43.7265 40.2619C44.1604 40.5331 44.748 41.349 44.018 41.5456C43.288 41.7422 42.9784 39.7963 43.7265 40.2619Z" fill="#263238"/>
<path d="M41.4846 43.0508C42.2439 44.0497 42.6372 44.6757 43.5186 44.8588C44.8452 45.13 45.8079 43.7785 45.3627 42.5671C44.9604 41.4778 43.7807 40.0246 42.4948 40.3071C42.21 40.3692 41.9455 40.502 41.7257 40.6934C41.5059 40.8847 41.3379 41.1284 41.2372 41.4019C41.1365 41.6754 41.1063 41.9698 41.1496 42.258C41.1928 42.5462 41.308 42.8189 41.4846 43.0508Z" fill="#FFB573"/>
<path d="M41.7083 41.9592L40.8043 40.897C40.8043 40.897 39.5997 41.7829 40.1466 42.3185C39.7873 43.166 41.2179 44.3525 42.4699 44.1084C42.6168 43.3423 41.5004 42.036 41.5004 42.036C41.5709 42.0138 41.6403 41.9882 41.7083 41.9592Z" fill="#263238"/>
<path d="M41.6608 44.1875C41.7829 44.2849 41.923 44.357 42.0732 44.3997C42.2233 44.4423 42.3805 44.4547 42.5355 44.4361C42.949 44.3842 42.9875 43.9706 42.7502 43.661C42.5129 43.3513 42.0405 43.0756 41.688 43.2835C41.6123 43.3311 41.5495 43.3965 41.5051 43.4741C41.4607 43.5517 41.4361 43.639 41.4334 43.7283C41.4308 43.8176 41.4501 43.9062 41.4898 43.9863C41.5294 44.0664 41.5882 44.1355 41.6608 44.1875Z" fill="#FFB573"/>
<path d="M43.2541 42.262C43.3106 42.3456 43.4033 42.3841 43.4575 42.3479C43.5118 42.3117 43.5118 42.21 43.4575 42.1219C43.4033 42.0338 43.3106 41.9999 43.2541 42.036C43.1976 42.0722 43.1976 42.1852 43.2541 42.262Z" fill="#263238"/>
<path d="M44.2101 41.6202C44.2689 41.706 44.3593 41.7445 44.4135 41.706C44.4678 41.6676 44.4678 41.5682 44.4135 41.48C44.3593 41.3919 44.2666 41.3557 44.2101 41.3942C44.1536 41.4326 44.1536 41.5343 44.2101 41.6202Z" fill="#263238"/>
<path d="M43.9344 41.8688C44.2064 42.0497 44.5023 42.1919 44.8135 42.2914C44.7548 42.5174 44.4565 42.6327 44.4565 42.6327L43.9344 41.8688Z" fill="#ED893E"/>
<path d="M43.67 43.2089C43.6303 43.2298 43.5925 43.254 43.557 43.2813C43.5517 43.2867 43.5488 43.294 43.5488 43.3016C43.5488 43.3092 43.5517 43.3165 43.557 43.3219C43.5595 43.3248 43.5627 43.3271 43.5662 43.3287C43.5697 43.3303 43.5735 43.3311 43.5773 43.3311C43.5812 43.3311 43.585 43.3303 43.5885 43.3287C43.592 43.3271 43.5951 43.3248 43.5977 43.3219C43.6984 43.2444 43.8161 43.1921 43.9411 43.1693C44.0661 43.1465 44.1948 43.1539 44.3163 43.1909C44.32 43.1923 44.324 43.1929 44.328 43.1928C44.3319 43.1927 44.3358 43.1917 44.3394 43.19C44.343 43.1883 44.3462 43.1859 44.3489 43.183C44.3515 43.18 44.3535 43.1765 44.3548 43.1728C44.3578 43.1656 44.3578 43.1575 44.3548 43.1503C44.3518 43.1431 44.3461 43.1374 44.3389 43.1344C44.2283 43.1003 44.1118 43.0894 43.9967 43.1022C43.8816 43.115 43.7704 43.1514 43.67 43.2089Z" fill="#263238"/>
<path d="M42.601 41.9908C42.6116 41.9914 42.6222 41.9892 42.6317 41.9845C42.6412 41.9797 42.6493 41.9726 42.6552 41.9637C42.695 41.9002 42.749 41.8467 42.8129 41.8075C42.8768 41.7683 42.9489 41.7444 43.0236 41.7377C43.0316 41.738 43.0396 41.7367 43.047 41.7337C43.0545 41.7307 43.0612 41.7262 43.0668 41.7204C43.0723 41.7147 43.0766 41.7078 43.0793 41.7002C43.082 41.6927 43.083 41.6847 43.0824 41.6767C43.0824 41.6611 43.0762 41.6462 43.0652 41.6351C43.0542 41.6241 43.0392 41.6179 43.0236 41.6179C42.9281 41.625 42.8357 41.6548 42.7539 41.7047C42.6722 41.7546 42.6035 41.8232 42.5535 41.9049C42.545 41.9185 42.5421 41.9348 42.5455 41.9505C42.5489 41.9661 42.5582 41.9798 42.5716 41.9886C42.581 41.9923 42.5912 41.9931 42.601 41.9908Z" fill="#263238"/>
<path d="M44.2214 40.8495C44.2248 40.8377 44.2248 40.8252 44.2214 40.8133C44.2167 40.7982 44.2063 40.7855 44.1924 40.7779C44.1785 40.7703 44.1621 40.7684 44.1468 40.7727C44.055 40.7958 43.9701 40.8408 43.8992 40.9037C43.8284 40.9667 43.7738 41.0458 43.74 41.1343C43.7356 41.1496 43.7371 41.166 43.7442 41.1802C43.7513 41.1944 43.7636 41.2055 43.7785 41.2111C43.7859 41.2136 43.7937 41.2145 43.8015 41.2139C43.8093 41.2133 43.8169 41.2111 43.8238 41.2076C43.8308 41.204 43.8369 41.199 43.8419 41.1931C43.847 41.1871 43.8507 41.1801 43.853 41.1727C43.8802 41.1024 43.924 41.0398 43.9807 40.9902C44.0374 40.9406 44.1052 40.9055 44.1785 40.8879C44.1883 40.8857 44.1975 40.8811 44.205 40.8743C44.2125 40.8676 44.2182 40.8591 44.2214 40.8495Z" fill="#263238"/>
<path d="M41.4936 42.036C41.4936 42.036 43.8802 41.0326 44.0271 39.889C44.174 38.7455 43.1637 39.211 43.1637 39.211C43.1637 39.211 43.6316 39.1794 43.5864 39.5184C43.5864 39.5184 42.7795 38.9692 42.0044 39.4415C42.1094 39.4417 42.2131 39.465 42.3081 39.51C42.403 39.5549 42.4868 39.6203 42.5535 39.7014C41.9921 39.8431 41.4653 40.0976 41.0054 40.4495C40.1941 41.0597 38.7228 43.2316 41.4936 42.036Z" fill="#263238"/>
<path opacity="0.3" d="M46.5244 58.534L42.6349 58.082C43.9524 57.9079 45.2829 57.8535 46.6102 57.9193L46.5244 58.534Z" fill="black"/>
<path opacity="0.1" d="M39.8483 50.9585C39.8348 50.8003 39.8235 50.6421 39.8099 50.4839C39.8099 50.3596 39.7896 50.233 39.7783 50.1087C39.7444 49.7923 39.7082 49.4759 39.663 49.1641C39.6517 49.0782 39.6381 48.9923 39.6246 48.9087C39.7318 48.8239 39.8459 48.7483 39.9658 48.6827C40.0898 49.441 40.0497 50.217 39.8483 50.9585Z" fill="black"/>
<path d="M33.3689 56.5L32.6909 58.082L34.1531 58.4436C34.1531 58.4436 34.7814 57.4017 34.1689 56.6062L33.3689 56.5Z" fill="#EBB376"/>
<path d="M32.7971 59.3182L33.952 59.3273L34.1554 58.4572L32.6932 58.0956L32.7971 59.3182Z" fill="#EBB376"/>
<path d="M39.9478 48.0973C40.0495 49.0917 39.7082 49.4963 39.7082 49.4963C39.7082 49.4963 38.7454 50.102 38.3273 50.4116C37.9725 50.6805 37.6245 50.9517 37.2945 51.2229C37.1318 51.3608 36.9736 51.4986 36.829 51.6365C36.7002 51.7574 36.5794 51.8865 36.4674 52.023C36.4259 52.0805 36.3874 52.1401 36.3521 52.2015C36.3114 52.267 36.2685 52.3665 36.2233 52.4478C36.1351 52.6286 36.047 52.823 35.9634 53.0241C35.7961 53.4287 35.6379 53.849 35.4888 54.2762C35.1746 55.1259 34.8831 56.0028 34.5848 56.8639L33.2491 56.5452C33.3847 55.6096 33.5678 54.6943 33.7802 53.7699C33.891 53.3179 34.0062 52.8479 34.1576 52.3778C34.2277 52.1518 34.3068 51.9054 34.3972 51.6614C34.4514 51.5325 34.4966 51.4173 34.5644 51.2794C34.6303 51.1344 34.7058 50.994 34.7904 50.8591C34.9516 50.6193 35.1315 50.3926 35.3283 50.1811C35.5069 49.9867 35.6854 49.8082 35.8662 49.6341C36.2255 49.2906 36.5939 48.9765 36.9691 48.6736C37.7171 48.0657 38.4675 47.5097 39.272 46.9719C39.2788 46.9786 39.8574 47.1979 39.9478 48.0973Z" fill="#005F31"/>
<path opacity="0.7" d="M39.9478 48.0973C40.0495 49.0917 39.7082 49.4963 39.7082 49.4963C39.7082 49.4963 38.7454 50.102 38.3273 50.4116C37.9725 50.6805 37.6245 50.9517 37.2945 51.2229C37.1318 51.3608 36.9736 51.4986 36.829 51.6365C36.7002 51.7574 36.5794 51.8865 36.4674 52.023C36.4259 52.0805 36.3874 52.1401 36.3521 52.2015C36.3114 52.267 36.2685 52.3665 36.2233 52.4478C36.1351 52.6286 36.047 52.823 35.9634 53.0241C35.7961 53.4287 35.6379 53.849 35.4888 54.2762C35.1746 55.1259 34.8831 56.0028 34.5848 56.8639L33.2491 56.5452C33.3847 55.6096 33.5678 54.6943 33.7802 53.7699C33.891 53.3179 34.0062 52.8479 34.1576 52.3778C34.2277 52.1518 34.3068 51.9054 34.3972 51.6614C34.4514 51.5325 34.4966 51.4173 34.5644 51.2794C34.6303 51.1344 34.7058 50.994 34.7904 50.8591C34.9516 50.6193 35.1315 50.3926 35.3283 50.1811C35.5069 49.9867 35.6854 49.8082 35.8662 49.6341C36.2255 49.2906 36.5939 48.9765 36.9691 48.6736C37.7171 48.0657 38.4675 47.5097 39.272 46.9719C39.2788 46.9786 39.8574 47.1979 39.9478 48.0973Z" fill="white"/>
<path d="M42.9829 46.764L43.4847 47.5527C43.4847 47.5527 41.7332 49.6771 38.3793 50.3777L38.1533 51.0557L38.8675 51.2433C38.8675 51.2433 42.4835 50.3054 43.9344 47.5889L44.6802 46.7572L43.8011 46.4611L42.9829 46.764Z" fill="#005F31"/>
<path d="M41.358 46.2894L42.1761 45.5752L43.8011 46.4656L43.9909 45.4916L44.8497 45.9843L45.096 47.2476L43.896 46.7278L42.8247 47.686L41.358 46.2894Z" fill="#005F31"/>
<path opacity="0.6" d="M41.358 46.2894L42.1761 45.5752L43.8011 46.4656L43.9909 45.4916L44.8497 45.9843L45.096 47.2476L43.896 46.7278L42.8247 47.686L41.358 46.2894Z" fill="white"/>
<path d="M63.7749 32.153C63.7749 32.153 62.254 34.0379 60.7126 33.8819C59.1713 33.726 58.3826 34.352 58.3826 34.352L58.2312 35.1046L59.0583 34.9916C59.0583 34.9916 59.0583 34.3949 60.6674 34.4627C62.2766 34.5305 63.4834 33.1474 63.9535 32.5191L63.7749 32.153Z" fill="#005F31"/>
<path d="M74.6907 29.0207L74.6591 28.8715C74.6455 28.7987 74.6243 28.7275 74.5958 28.659C74.5153 28.4549 74.3893 28.2717 74.2274 28.1234C74.0268 27.9425 73.7915 27.8041 73.5359 27.7166C73.213 27.6022 72.8777 27.5264 72.537 27.4906C72.2364 27.4567 71.9494 27.4409 71.6669 27.4341C71.1041 27.4183 70.5617 27.4341 70.0261 27.4793C68.9594 27.5502 67.8972 27.6777 66.844 27.8613L67.2327 30.0874C68.2068 29.9337 69.2238 29.7913 70.2069 29.6896C70.6996 29.6376 71.19 29.6083 71.6623 29.5924C71.8883 29.5924 72.1302 29.5924 72.3403 29.5924C72.4774 29.5998 72.614 29.6149 72.7494 29.6376C72.7541 29.7204 72.7541 29.8034 72.7494 29.8862C72.7202 30.3215 72.639 30.7517 72.5076 31.1677C72.2213 32.1075 71.8561 33.0216 71.416 33.9L72.4895 34.6142C73.1757 33.7551 73.7519 32.8136 74.2048 31.8117C74.4526 31.2644 74.6245 30.6858 74.7156 30.0919C74.7642 29.7357 74.7558 29.3742 74.6907 29.0207Z" fill="#005F31"/>
<path opacity="0.7" d="M74.702 30.0896C74.6299 30.5854 74.497 31.0704 74.3065 31.5338C74.2704 31.6264 74.232 31.7191 74.1935 31.8095C73.7399 32.8107 73.1628 33.7514 72.4759 34.6096L71.416 33.9C71.8605 33.0281 72.2324 32.121 72.5279 31.188C72.6176 30.8918 72.6863 30.5898 72.7336 30.284C72.7529 30.1612 72.765 30.0375 72.7697 29.9133C72.7744 29.8305 72.7744 29.7475 72.7697 29.6647C72.6343 29.642 72.4978 29.6269 72.3607 29.6195C72.1347 29.606 71.9087 29.606 71.6827 29.6195H71.6307C71.1787 29.6354 70.7018 29.667 70.225 29.7145C69.2713 29.8139 68.2904 29.9405 67.3435 30.1009L67.2531 30.1145L66.8644 27.8861C67.9169 27.7036 68.9783 27.5761 70.0442 27.5042C70.5821 27.4703 71.1245 27.4432 71.6872 27.459C71.9697 27.459 72.2545 27.4816 72.5573 27.5155C72.8978 27.5523 73.233 27.6281 73.5562 27.7415C73.8115 27.8298 74.0466 27.9681 74.2478 28.1483C74.4096 28.2966 74.5356 28.4797 74.6162 28.6839C74.6434 28.7527 74.6646 28.8238 74.6794 28.8963L74.7111 29.0455C74.7618 29.3919 74.7587 29.7441 74.702 30.0896Z" fill="white"/>
<path opacity="0.1" d="M71.6104 29.606C71.1584 29.6218 70.6815 29.6534 70.2046 29.7009C69.2509 29.8003 68.2701 29.9269 67.3231 30.0873C67.6689 29.2376 68.0237 28.3788 68.0237 28.3788C69.2837 28.5674 70.4989 28.9832 71.6104 29.606Z" fill="black"/>
<path opacity="0.1" d="M74.3065 31.5338C74.2704 31.6264 74.232 31.7191 74.1935 31.8095C73.7398 32.8108 73.1628 33.7514 72.4759 34.6096L71.416 33.9C71.8605 33.0281 72.2324 32.121 72.5279 31.188C72.6176 30.8919 72.6863 30.5898 72.7336 30.284C73.29 30.6585 73.816 31.0764 74.3065 31.5338Z" fill="black"/>
<path d="M59.8629 29.4681C59.9262 29.5449 59.9329 29.6421 59.8832 29.6941C59.8335 29.7461 59.7408 29.6941 59.6776 29.6263C59.6143 29.5585 59.6075 29.45 59.6595 29.4116C59.7115 29.3732 59.8019 29.38 59.8629 29.4681Z" fill="#263238"/>
<path d="M59.942 29.6354C60.0375 29.9484 60.0892 30.2732 60.0957 30.6004C60.1793 30.5958 60.2609 30.5732 60.335 30.5342C60.4091 30.4952 60.4739 30.4407 60.5251 30.3744L59.942 29.6354Z" fill="#DE5753"/>
<path d="M59.8064 28.8082C59.8114 28.8028 59.8152 28.7964 59.8175 28.7893C59.8199 28.7823 59.8207 28.7749 59.8199 28.7675C59.8197 28.7598 59.8178 28.7522 59.8146 28.7452C59.8114 28.7382 59.8068 28.7319 59.8011 28.7266C59.7955 28.7214 59.7888 28.7173 59.7816 28.7146C59.7743 28.712 59.7666 28.7107 59.7589 28.711C59.6662 28.7132 59.5754 28.7375 59.494 28.7819C59.4126 28.8263 59.343 28.8896 59.2911 28.9664C59.2835 28.98 59.2813 28.996 59.2851 29.0111C59.2889 29.0263 59.2983 29.0394 59.3114 29.0478C59.3247 29.0553 59.3403 29.0574 59.3551 29.0536C59.3699 29.0498 59.3826 29.0404 59.3905 29.0274C59.4327 28.9668 59.4887 28.9171 59.554 28.8825C59.6193 28.8479 59.6918 28.8294 59.7657 28.8286C59.7736 28.8283 59.7813 28.8264 59.7883 28.8229C59.7953 28.8194 59.8015 28.8144 59.8064 28.8082Z" fill="#263238"/>
<path d="M62.1138 28.25C62.8619 28.7879 64.2902 29.6399 65.1016 29.3167C65.1016 29.3167 65.8315 29.9247 65.1309 31.4479C64.3603 33.1248 63.9309 31.8683 63.9309 31.8683C64.132 30.8513 63.4427 30.5642 62.7308 30.4309L62.1138 28.25Z" fill="#E4897B"/>
<path d="M62.3398 27.2443C63.0382 28.25 63.4992 28.8037 63.402 29.6783C63.2597 30.9959 61.7274 31.4863 60.742 30.7156C59.8538 30.015 58.8594 28.4873 59.4968 27.3641C59.6363 27.1154 59.837 26.9065 60.08 26.7573C60.323 26.6081 60.6 26.5234 60.8849 26.5114C61.1698 26.4994 61.453 26.5605 61.7076 26.6887C61.9623 26.817 62.1799 27.0082 62.3398 27.2443Z" fill="#E4897B"/>
<path d="M63.4631 28.9031C63.3568 29.4749 61.4291 30.2591 60.568 29.0252C60.568 29.0252 59.4742 29.0252 58.8165 28.3472C58.1588 27.6692 58.3012 26.9753 58.8888 26.5866C59.4086 26.2431 60.7511 23.7187 62.315 25.5199C64.0122 25.4611 63.5919 28.1935 63.4631 28.9031Z" fill="#263238"/>
<path d="M60.22 26.3244C60.22 26.3244 59.212 26.2747 58.638 26.7358C58.0639 27.1968 58.2199 28.6161 58.4436 28.8828C58.4964 28.9563 58.5638 29.0181 58.6415 29.0644C58.7193 29.1107 58.8058 29.1404 58.8956 29.1517C58.8956 29.1517 58.5543 28.9732 58.5543 28.6997C58.5543 28.6997 58.7035 29.05 59.3883 29.1517C59.3348 29.1097 59.2919 29.0557 59.2633 28.9941C59.2346 28.9324 59.2209 28.8648 59.2233 28.7969C59.2233 28.7969 59.5939 29.2783 60.4527 28.7969C61.3115 28.3155 60.22 26.3244 60.22 26.3244Z" fill="#263238"/>
<path d="M61.0765 28.8127C61.2488 29.064 61.3338 29.3649 61.3183 29.6693C61.2935 30.0693 60.959 30.1009 60.6946 29.8478C60.4301 29.5947 60.1861 29.1404 60.342 28.8059C60.4979 28.4715 60.8641 28.5144 61.0765 28.8127Z" fill="#E4897B"/>
<path d="M63.0834 32.153C63.0834 32.153 62.8958 29.8772 64.3806 28.6003L66.1502 28.763C66.1502 28.763 65.1309 31.2513 63.0834 32.153Z" fill="#005F31"/>
<path opacity="0.6" d="M63.0834 32.153C63.0834 32.153 62.8958 29.8772 64.3806 28.6003L66.1502 28.763C66.1502 28.763 65.1309 31.2513 63.0834 32.153Z" fill="white"/>
<path d="M68.1842 37.2719C68.1842 37.2719 65.5084 34.6435 62.5523 32.8062C62.5523 32.8062 64.5207 28.1799 67.0158 27.7664C67.0158 27.7664 73.4636 29.7145 75.3348 34.9984L68.1842 37.2719Z" fill="#005F31"/>
<path d="M68.5232 53.2953L67.3706 53.7857L66.1208 51.1619L67.2757 50.6714L68.5232 53.2953Z" fill="#E4897B"/>
<path d="M75.3348 34.9916L74.6568 42.2236C74.1402 42.5486 73.5666 42.7726 72.9664 42.8835C71.5561 43.2112 69.6758 43.3604 68.0509 43.4485C66.227 43.5479 64.7287 43.566 64.5931 43.6745C64.2767 43.9231 68.2927 52.2173 68.2927 52.2173L66.3762 52.4569C66.3762 52.4569 61.3387 45.5458 60.6855 43.1457C60.446 42.2597 60.2041 41.1501 61.8313 40.1127C63.2642 39.2087 68.5978 38.5149 68.5978 38.5149L68.1865 37.2832L75.3348 34.9916Z" fill="#263238"/>
<path opacity="0.2" d="M72.9641 42.8767C71.5539 43.2044 69.6735 43.3535 68.0486 43.4417C67.8226 40.7749 69.1786 38.2166 69.1786 38.2166L71.086 37.7284L72.9641 42.8767Z" fill="black"/>
<path d="M85.3353 52.2331L85.541 53.4693L82.6957 54.066L82.49 52.8275L85.3353 52.2331Z" fill="#E4897B"/>
<path d="M85.5998 53.5145C85.5952 53.5112 85.5896 53.5094 85.5839 53.5094C85.5783 53.5094 85.5727 53.5112 85.5681 53.5145C85.5628 53.5167 85.5582 53.5205 85.555 53.5253C85.5518 53.5301 85.55 53.5358 85.55 53.5416C85.55 53.5642 85.5681 54.0682 85.7241 54.2196C85.7528 54.2485 85.7918 54.2647 85.8325 54.2648C85.8558 54.2669 85.8792 54.2618 85.8995 54.25C85.9197 54.2383 85.9358 54.2206 85.9455 54.1993C85.9794 54.1157 85.9162 53.9733 85.8325 53.8354C85.7649 53.7216 85.687 53.6141 85.5998 53.5145ZM85.6133 53.6207C85.7647 53.8015 85.9297 54.0727 85.8913 54.1631C85.8913 54.1767 85.8732 54.1925 85.8325 54.1948C85.807 54.1943 85.7826 54.1837 85.7647 54.1654C85.7511 54.1522 85.7397 54.1369 85.7308 54.1202C85.6602 53.9627 85.6204 53.7932 85.6133 53.6207Z" fill="#005F31"/>
<path d="M85.5907 53.5077C85.5863 53.5051 85.5812 53.5038 85.576 53.5038C85.5709 53.5038 85.5658 53.5051 85.5613 53.5077C85.5613 53.5077 85.2788 53.7224 85.2517 53.9258C85.2433 53.9851 85.2588 54.0452 85.2947 54.0931C85.3444 54.1586 85.3918 54.1563 85.4235 54.1428C85.5568 54.0885 85.6291 53.6908 85.6088 53.5258C85.6088 53.5258 85.6088 53.5258 85.6088 53.5145C85.6065 53.5121 85.6036 53.5103 85.6005 53.5091C85.5974 53.5079 85.594 53.5074 85.5907 53.5077ZM85.3105 53.9394C85.3527 53.8022 85.4374 53.6819 85.5523 53.5959C85.5523 53.7744 85.48 54.0479 85.4009 54.0931C85.4009 54.0931 85.3738 54.1044 85.3421 54.0614C85.3409 54.0562 85.3409 54.0508 85.3421 54.0456C85.3191 54.0152 85.3079 53.9774 85.3105 53.9394Z" fill="#005F31"/>
<path d="M85.3851 53.4987L84.6664 52.3325C84.654 52.3107 84.649 52.2854 84.6523 52.2606C84.6556 52.2357 84.6668 52.2125 84.6845 52.1947L85.5026 51.3991C85.5225 51.3799 85.5464 51.3655 85.5727 51.3568C85.599 51.3482 85.6269 51.3457 85.6543 51.3494C85.6817 51.3531 85.7079 51.3629 85.7309 51.3782C85.754 51.3935 85.7733 51.4138 85.7873 51.4376C86.0405 51.8624 86.3908 52.4839 86.7162 53.0196C87.0959 53.6388 87.4597 54.1496 87.905 54.8773C88.1762 55.3157 87.8078 55.709 87.6541 55.5553C86.9558 54.8321 86.5241 54.1631 85.6201 53.7156C85.5235 53.6661 85.4422 53.591 85.3851 53.4987Z" fill="#263238"/>
<path d="M75.3348 34.9916C75.3348 34.9916 77.6333 40.897 73.7528 43.1886C73.7528 43.1886 73.7031 50.0138 74.684 50.8138C75.875 51.7856 84.6054 52.2806 84.6054 52.2806L84.5308 54.4502C84.5308 54.4502 75.1834 55.2141 72.3539 54.1993C69.0385 53.0106 68.3017 37.3736 68.3017 37.3736L75.3348 34.9916Z" fill="#263238"/>
<path opacity="0.2" d="M72.6793 38.6166L74.0738 38.1962C74.1733 38.8059 74.2366 39.421 74.2636 40.0381L73.6172 40.5941L73.0048 40.3997C72.9304 39.7996 72.8217 39.2043 72.6793 38.6166Z" fill="black"/>
<path d="M68.6452 37.2764L68.826 37.8505L68.3085 38.0109L68.1277 37.4414L68.6452 37.2764Z" fill="#263238"/>
<path d="M71.025 36.5125L71.2194 37.1069L69.0837 37.7691L68.8938 37.195L71.025 36.5125Z" fill="#263238"/>
<path d="M73.685 35.6605L73.8794 36.282L71.4906 37.0233L71.3007 36.4244L73.685 35.6605Z" fill="#263238"/>
<path d="M75.6286 35.7396L74.1574 36.1961H74.1551L73.9585 35.5724L75.4185 35.1046L75.6286 35.7396Z" fill="#263238"/>
<g opacity="0.2">
<path d="M68.6452 37.2764L68.826 37.8505L68.3085 38.0109L68.1277 37.4414L68.6452 37.2764Z" fill="white"/>
<path d="M71.025 36.5125L71.2194 37.1069L69.0837 37.7691L68.8938 37.195L71.025 36.5125Z" fill="white"/>
<path d="M73.685 35.6605L73.8794 36.282L71.4906 37.0233L71.3007 36.4244L73.685 35.6605Z" fill="white"/>
<path d="M75.6286 35.7396L74.1574 36.1961H74.1551L73.9585 35.5724L75.4185 35.1046L75.6286 35.7396Z" fill="white"/>
</g>
<path d="M67.0158 53.4196C67.0215 53.418 67.0267 53.4148 67.0306 53.4104C67.0346 53.406 67.0373 53.4006 67.0384 53.3948C67.0395 53.3885 67.0386 53.382 67.0358 53.3763C67.0329 53.3706 67.0283 53.366 67.0226 53.3631C67.0045 53.3631 66.5593 53.1145 66.3446 53.1755C66.3053 53.1864 66.272 53.2124 66.2519 53.2479C66.2386 53.2671 66.2314 53.29 66.2314 53.3134C66.2314 53.3368 66.2386 53.3597 66.2519 53.3789C66.3061 53.449 66.4621 53.4671 66.6225 53.4626C66.7547 53.4607 66.8864 53.4463 67.0158 53.4196ZM66.9186 53.3767C66.6926 53.4151 66.3694 53.4219 66.3084 53.3428C66.3084 53.3315 66.2926 53.3134 66.3084 53.2772C66.3138 53.2662 66.3218 53.2565 66.3316 53.2491C66.3414 53.2416 66.3528 53.2366 66.3649 53.2343C66.3836 53.2309 66.4027 53.2309 66.4214 53.2343C66.5948 53.2489 66.7637 53.2973 66.9186 53.3767Z" fill="#005F31"/>
<path d="M67.0271 53.4151C67.0315 53.4118 67.035 53.4072 67.037 53.402C67.039 53.3968 67.0395 53.3912 67.0384 53.3857C67.0214 53.2091 66.9495 53.0424 66.8327 52.9088C66.8094 52.8903 66.7825 52.8765 66.7538 52.8684C66.7251 52.8602 66.6951 52.8579 66.6655 52.8614C66.5841 52.8614 66.5615 52.9134 66.557 52.9473C66.5389 53.0896 66.844 53.3541 66.9977 53.4173H67.009L67.0271 53.4151ZM66.8011 52.9631C66.8973 53.0702 66.9581 53.2043 66.9751 53.3473C66.8192 53.2569 66.609 53.049 66.6203 52.9631C66.6203 52.9631 66.6203 52.936 66.679 52.9292H66.6971C66.732 52.9272 66.7667 52.9358 66.7966 52.954L66.8011 52.9631Z" fill="#005F31"/>
<path d="M67.1378 53.241L68.5074 53.2094C68.5324 53.2083 68.557 53.2161 68.5769 53.2314C68.5967 53.2467 68.6105 53.2685 68.6159 53.293L68.8916 54.4004C68.8976 54.4272 68.8976 54.4549 68.8916 54.4817C68.8856 54.5084 68.8738 54.5335 68.8569 54.5551C68.8401 54.5767 68.8186 54.5944 68.7941 54.6067C68.7696 54.619 68.7427 54.6257 68.7153 54.6264C68.2204 54.6264 67.5062 54.6264 66.887 54.6264C66.1592 54.6422 65.531 54.6965 64.6835 54.7168C64.1682 54.7304 64.0055 54.2128 64.2315 54.1609C65.2078 53.9213 66.0078 53.8806 66.844 53.3382C66.9317 53.2804 67.033 53.2469 67.1378 53.241Z" fill="#263238"/>
<path opacity="0.7" d="M75.3348 34.9938L68.1842 37.2719C68.1842 37.2719 66.9231 36.0357 65.1761 34.6639C64.8439 34.404 64.4981 34.1396 64.1343 33.8774C63.6258 33.5068 63.0924 33.1429 62.5523 32.8062C62.5523 32.8062 64.523 28.1799 67.018 27.7686C67.0158 27.7686 73.4636 29.7145 75.3348 34.9938Z" fill="white"/>
<path opacity="0.1" d="M65.1761 34.6639C64.8439 34.404 64.4981 34.1396 64.1343 33.8774L64.2744 33.4548C64.6549 33.7916 64.9618 34.2032 65.1761 34.6639Z" fill="black"/>
<path d="M54.8457 39.3828L54.353 39.5003C54.2928 39.5142 54.2382 39.5457 54.1959 39.5908C54.1537 39.6359 54.1257 39.6924 54.1157 39.7534L54.005 40.4314C53.9932 40.5017 54.0058 40.5738 54.0408 40.6359C54.0757 40.698 54.1309 40.7463 54.1971 40.7727L54.5587 40.915C54.5587 40.915 55.5983 41.6654 56.4774 41.1817L56.0977 40.176L55.3542 39.498C55.285 39.4392 55.2026 39.398 55.1141 39.3779C55.0255 39.3579 54.9334 39.3595 54.8457 39.3828Z" fill="#E4897B"/>
<path d="M63.8201 32.996C64.0109 33.1286 64.1704 33.3012 64.2875 33.5019C64.4046 33.7025 64.4765 33.9263 64.4981 34.1576C64.4981 34.1576 64.0009 35.5136 63.7139 36.1758C63.5173 36.6278 63.3139 37.0798 63.0766 37.5318C62.8318 38.0277 62.538 38.4978 62.1997 38.9353L62.1206 39.0279L62.0302 39.1274C61.9587 39.2007 61.8832 39.2701 61.8042 39.3353C61.7559 39.3758 61.7054 39.4135 61.6528 39.4483C61.6031 39.4822 61.5308 39.5296 61.5104 39.5387L61.3183 39.6381C61.0697 39.7624 60.8369 39.8641 60.6042 39.9568C60.1386 40.1466 59.6798 40.3139 59.2188 40.4721C58.2922 40.7817 57.3724 41.0642 56.4277 41.3015L55.9757 40.0924C56.8232 39.6585 57.6865 39.2471 58.5295 38.8245C58.9521 38.6143 59.3725 38.4042 59.7747 38.1917C59.9736 38.0855 60.1725 37.9657 60.3443 37.8708L60.4663 37.794C60.4821 37.7804 60.4821 37.7781 60.5025 37.7488L60.5296 37.7149L60.5612 37.6674C60.7798 37.3264 60.9703 36.9681 61.1307 36.5962C61.3093 36.1894 61.4901 35.7667 61.6551 35.3351C61.9828 34.4763 62.2969 33.5813 62.5907 32.7135C63.0212 32.6547 63.4584 32.7552 63.8201 32.996Z" fill="#005F31"/>
<path opacity="0.7" d="M63.8201 32.996C64.0109 33.1286 64.1704 33.3012 64.2875 33.5019C64.4046 33.7025 64.4765 33.9263 64.4981 34.1576C64.4981 34.1576 64.0009 35.5136 63.7139 36.1758C63.5173 36.6278 63.3139 37.0798 63.0766 37.5318C62.8318 38.0277 62.538 38.4978 62.1997 38.9353L62.1206 39.0279L62.0302 39.1274C61.9587 39.2007 61.8832 39.2701 61.8042 39.3353C61.7559 39.3758 61.7054 39.4135 61.6528 39.4483C61.6031 39.4822 61.5308 39.5296 61.5104 39.5387L61.3183 39.6381C61.0697 39.7624 60.8369 39.8641 60.6042 39.9568C60.1386 40.1466 59.6798 40.3139 59.2188 40.4721C58.2922 40.7817 57.3724 41.0642 56.4277 41.3015L55.9757 40.0924C56.8232 39.6585 57.6865 39.2471 58.5295 38.8245C58.9521 38.6143 59.3725 38.4042 59.7747 38.1917C59.9736 38.0855 60.1725 37.9657 60.3443 37.8708L60.4663 37.794C60.4821 37.7804 60.4821 37.7781 60.5025 37.7488L60.5296 37.7149L60.5612 37.6674C60.7798 37.3264 60.9703 36.9681 61.1307 36.5962C61.3093 36.1894 61.4901 35.7667 61.6551 35.3351C61.9828 34.4763 62.2969 33.5813 62.5907 32.7135C63.0212 32.6547 63.4584 32.7552 63.8201 32.996Z" fill="white"/>
<path d="M22.4893 92.9583H60.6561L80.856 76.6411L81.7419 77.7372H86.7162L91.7854 54.4072L86.8066 54.4163L86.8089 54.4072L62.9342 54.4547L65.7841 57.9825L22.4893 92.9583Z" fill="#005F31"/>
<path opacity="0.2" d="M22.4893 92.9583H55.6819L78.8898 74.2093L81.7419 77.7372L86.8089 54.4072L62.9342 54.4547L65.7841 57.9825L22.4893 92.9583Z" fill="white"/>
<path d="M21.7118 91.6113H49.1166C49.103 91.4943 49.0963 91.3766 49.0962 91.2588C49.0959 90.8404 49.1781 90.4261 49.338 90.0395C49.4979 89.6529 49.7324 89.3016 50.0281 89.0056C50.3238 88.7097 50.675 88.4749 51.0615 88.3148C51.448 88.1546 51.8622 88.0722 52.2806 88.0722H52.3981C52.6294 87.4535 53.0707 86.9358 53.6449 86.6094C54.2191 86.2829 54.8897 86.1685 55.5396 86.2861C56.1895 86.4037 56.7775 86.7459 57.2009 87.2528C57.6242 87.7598 57.8561 88.3993 57.856 89.0598C58.522 89.0914 59.1526 89.3692 59.6253 89.8394C60.098 90.3097 60.3792 90.9387 60.4143 91.6045H60.5431C60.7338 91.5969 60.9241 91.6279 61.1025 91.6956C61.281 91.7633 61.4439 91.8664 61.5815 91.9986C61.7191 92.1309 61.8286 92.2895 61.9034 92.4651C61.9782 92.6407 62.0167 92.8296 62.0167 93.0204C62.0167 93.2113 61.9782 93.4002 61.9034 93.5758C61.8286 93.7513 61.7191 93.91 61.5815 94.0422C61.4439 94.1745 61.281 94.2775 61.1025 94.3453C60.9241 94.413 60.7338 94.4439 60.5431 94.4363H21.7118C21.5211 94.4439 21.3309 94.413 21.1524 94.3453C20.974 94.2775 20.8111 94.1745 20.6735 94.0422C20.5358 93.91 20.4264 93.7513 20.3516 93.5758C20.2768 93.4002 20.2382 93.2113 20.2382 93.0204C20.2382 92.8296 20.2768 92.6407 20.3516 92.4651C20.4264 92.2895 20.5358 92.1309 20.6735 91.9986C20.8111 91.8664 20.974 91.7633 21.1524 91.6956C21.3309 91.6279 21.5211 91.5969 21.7118 91.6045V91.6113Z" fill="#005F31"/>
<path opacity="0.7" d="M21.7118 91.6113H49.1166C49.103 91.4943 49.0963 91.3766 49.0962 91.2588C49.0959 90.8404 49.1781 90.4261 49.338 90.0395C49.4979 89.6529 49.7324 89.3016 50.0281 89.0056C50.3238 88.7097 50.675 88.4749 51.0615 88.3148C51.448 88.1546 51.8622 88.0722 52.2806 88.0722H52.3981C52.6294 87.4535 53.0707 86.9358 53.6449 86.6094C54.2191 86.2829 54.8897 86.1685 55.5396 86.2861C56.1895 86.4037 56.7775 86.7459 57.2009 87.2528C57.6242 87.7598 57.8561 88.3993 57.856 89.0598C58.522 89.0914 59.1526 89.3692 59.6253 89.8394C60.098 90.3097 60.3792 90.9387 60.4143 91.6045H60.5431C60.7338 91.5969 60.9241 91.6279 61.1025 91.6956C61.281 91.7633 61.4439 91.8664 61.5815 91.9986C61.7191 92.1309 61.8286 92.2895 61.9034 92.4651C61.9782 92.6407 62.0167 92.8296 62.0167 93.0204C62.0167 93.2113 61.9782 93.4002 61.9034 93.5758C61.8286 93.7513 61.7191 93.91 61.5815 94.0422C61.4439 94.1745 61.281 94.2775 61.1025 94.3453C60.9241 94.413 60.7338 94.4439 60.5431 94.4363H21.7118C21.5211 94.4439 21.3309 94.413 21.1524 94.3453C20.974 94.2775 20.8111 94.1745 20.6735 94.0422C20.5358 93.91 20.4264 93.7513 20.3516 93.5758C20.2768 93.4002 20.2382 93.2113 20.2382 93.0204C20.2382 92.8296 20.2768 92.6407 20.3516 92.4651C20.4264 92.2895 20.5358 92.1309 20.6735 91.9986C20.8111 91.8664 20.974 91.7633 21.1524 91.6956C21.3309 91.6279 21.5211 91.5969 21.7118 91.6045V91.6113Z" fill="white"/>
</svg>
