<svg width="75" height="75" viewBox="0 0 75 75" fill="none" xmlns="http://www.w3.org/2000/svg">
<path d="M11.985 23.502C9.2175 27.369 7.116 31.6725 5.943 36.201C5.0325 39.7155 0.798001 59.9295 29.7 64.602C60.966 69.657 67.4805 55.971 69.384 43.95C72.732 22.8195 62.757 10.596 48.4965 7.36052C42.15 5.92202 35.4 6.44102 29.5335 9.07202C22.671 12.15 16.4565 17.2575 11.985 23.502Z" fill="#455A64"/>
<path d="M52.779 20.085C54.3397 20.2664 55.8719 20.6407 57.3405 21.1995C59.622 22.0995 60.987 24.132 63.708 24.7305C63.708 24.7305 67.1175 28.9305 63.708 35.325L58.941 34.5975C58.2427 34.4882 57.53 34.5132 56.841 34.671C55.902 34.89 54.21 35.109 51.8565 34.7265L52.779 20.085Z" fill="#FFA8A7"/>
<path d="M35.9175 37.3245L39.5325 39.4305V54L35.901 51.867L35.9175 37.3245Z" fill="#005F31"/>
<path opacity="0.2" d="M35.9175 37.3245L39.5325 39.4305V54L35.901 51.867L35.9175 37.3245Z" fill="black"/>
<path d="M36.789 39.684L38.139 35.184C39.114 33.8145 39.7485 32.13 39.7485 30.639C39.7485 28.1835 38.025 27.189 35.8995 28.416C33.774 29.643 32.049 32.6295 32.049 35.085C32.049 36.2925 32.466 37.146 33.1425 37.557L33.204 37.593L36.789 39.684Z" fill="#005F31"/>
<path d="M35.9175 13.875L39.5325 15.981V30.552L35.901 28.4175L35.9175 13.875Z" fill="#005F31"/>
<path opacity="0.2" d="M35.9175 13.875L39.5325 15.981V30.552L35.901 28.4175L35.9175 13.875Z" fill="black"/>
<path d="M51.3543 14.9372L51.2985 14.904L51.3528 14.9372H51.3543Z" fill="#FFA8A7"/>
<path d="M51.084 14.7795L47.7765 12.8535C44.7765 10.992 40.5765 11.1855 35.9175 13.875C35.9115 13.8776 35.9059 13.8811 35.901 13.8855L39.5325 15.9855C44.034 13.383 48.1125 13.1145 51.084 14.7795Z" fill="#005F31"/>
<path d="M51.3525 14.937L51.2985 14.904L51.084 14.7795C48.1125 13.1145 44.034 13.383 39.534 15.9795V30.549C37.41 31.776 35.688 34.758 35.688 37.209C35.688 39.66 37.41 40.659 39.534 39.429V54C48.624 48.75 55.995 35.985 55.995 25.4865C55.995 20.343 54.225 16.6995 51.3525 14.937Z" fill="#005F31"/>
<path opacity="0.3" d="M51.3525 14.937L51.2985 14.904L51.084 14.7795C48.1125 13.1145 44.034 13.383 39.534 15.9795V30.549C37.41 31.776 35.688 34.758 35.688 37.209C35.688 39.66 37.41 40.659 39.534 39.429V54C48.624 48.75 55.995 35.985 55.995 25.4865C55.995 20.343 54.225 16.6995 51.3525 14.937Z" fill="white"/>
<path d="M52.284 21.378C51.6298 20.0147 50.5857 18.8761 49.284 18.1065C46.635 16.578 43.185 16.8435 39.534 18.8565V20.4165C39.645 20.3475 39.7575 20.2815 39.8715 20.2155C41.8635 19.065 43.7715 18.4845 45.474 18.4845C46.5677 18.4673 47.6464 18.7406 48.6 19.2765C50.7675 20.5275 52.0155 23.139 52.1475 26.6685C52.1565 26.8785 52.161 27.0915 52.161 27.3075C52.161 35.436 46.524 45.327 39.528 49.5735V51.132L39.8655 50.943C47.3895 46.593 53.5155 35.9955 53.5155 27.3075C53.5155 24.993 53.091 22.9875 52.284 21.378Z" fill="white"/>
<path d="M50.361 29.1285C50.361 25.746 49.185 23.2035 47.049 21.9705C44.9955 20.7855 42.3375 20.973 39.5325 22.494V24.0555C39.6435 23.9865 39.756 23.916 39.87 23.8515C41.37 22.9875 42.7935 22.551 44.07 22.551C44.8785 22.5388 45.6757 22.7417 46.38 23.139C48.081 24.1215 49.017 26.2485 49.017 29.1285C49.017 35.2485 44.7945 42.684 39.5385 45.9285V47.49C39.6495 47.43 39.762 47.367 39.876 47.301C45.654 43.9605 50.361 35.808 50.361 29.1285Z" fill="white"/>
<path d="M47.2065 30.9495C47.2065 28.539 46.359 26.7225 44.8185 25.8345C43.362 24.993 41.496 25.1055 39.5325 26.1345V27.693C39.6435 27.6225 39.756 27.5535 39.87 27.489C40.8675 26.913 41.82 26.6205 42.6555 26.6205C43.1762 26.6124 43.6898 26.7429 44.1435 26.9985C45.2475 27.636 45.8565 29.0385 45.8565 30.945C45.8565 35.0565 43.0485 40.0455 39.5325 42.279V43.836C39.6435 43.7775 39.756 43.719 39.87 43.653C43.9155 41.322 47.2065 35.6205 47.2065 30.9495Z" fill="white"/>
<path d="M42.256 36.5706C43.7596 33.9663 43.7595 31.1513 42.2557 30.2831C40.752 29.4149 38.314 30.8223 36.8104 33.4266C35.3068 36.0309 35.307 38.8459 36.8107 39.7141C38.3145 40.5823 40.7524 39.1749 42.256 36.5706Z" fill="white"/>
<path d="M40.9115 35.7494C41.6724 34.4314 41.6722 33.0068 40.911 32.5673C40.1498 32.1278 38.9159 32.8399 38.155 34.1579C37.394 35.4758 37.3943 36.9005 38.1555 37.3399C38.9167 37.7794 40.1506 37.0673 40.9115 35.7494Z" fill="#005F31"/>
<path opacity="0.3" d="M40.9115 35.7494C41.6724 34.4314 41.6722 33.0068 40.911 32.5673C40.1498 32.1278 38.9159 32.8399 38.155 34.1579C37.394 35.4758 37.3943 36.9005 38.1555 37.3399C38.9167 37.7794 40.1506 37.0673 40.9115 35.7494Z" fill="white"/>
<path d="M56.7375 23.85L54.96 23.358C54.5359 23.2408 54.0924 23.2112 53.6565 23.271C52.404 23.445 49.7565 23.811 49.1355 23.886C48.3255 23.985 47.919 25.0545 48.4815 25.935C49.044 26.8155 50.361 27.9975 54.414 27.7035C54.414 27.7035 56.4045 32.8755 61.3605 30.015C62.8245 29.1735 61.8 25.5 56.7375 23.85Z" fill="#FFA8A7"/>
<path d="M57.9195 24.5295C57.888 24.5295 57.8568 24.5229 57.828 24.51C57.462 24.348 57.078 24.1995 56.667 24.06L55.6665 23.7825C55.6373 23.7753 55.6097 23.7624 55.5856 23.7444C55.5615 23.7264 55.5412 23.7037 55.526 23.6778C55.5107 23.6518 55.5009 23.623 55.497 23.5932C55.4931 23.5633 55.4952 23.533 55.5032 23.504C55.5113 23.4749 55.525 23.4478 55.5437 23.4242C55.5624 23.4006 55.5857 23.381 55.6121 23.3666C55.6385 23.3521 55.6676 23.3431 55.6975 23.3401C55.7275 23.3371 55.7577 23.3401 55.7865 23.349L56.7975 23.6295C57.2097 23.7626 57.6147 23.9168 58.011 24.0915C58.0581 24.1125 58.0965 24.149 58.1199 24.1949C58.1433 24.2408 58.1502 24.2934 58.1395 24.3438C58.1287 24.3942 58.1011 24.4394 58.061 24.4718C58.021 24.5043 57.971 24.522 57.9195 24.522V24.5295Z" fill="#F28F8F"/>
<path d="M58.5375 31.1085C56.9445 31.1085 55.8375 30.2085 55.1235 29.3265C55.0865 29.2798 55.0693 29.2204 55.0758 29.1612C55.0822 29.1019 55.1118 29.0476 55.158 29.01C55.181 28.9915 55.2075 28.9777 55.2359 28.9694C55.2643 28.9611 55.294 28.9584 55.3234 28.9617C55.3528 28.9649 55.3813 28.9738 55.4072 28.988C55.4331 29.0023 55.456 29.0214 55.4745 29.0445C56.3145 30.0945 57.7875 31.1685 60.042 30.384C60.0985 30.3641 60.1606 30.3675 60.2146 30.3934C60.2686 30.4192 60.3101 30.4655 60.33 30.522C60.3499 30.5785 60.3465 30.6406 60.3206 30.6946C60.2948 30.7486 60.2485 30.7901 60.192 30.81C59.6612 31.0019 59.1019 31.1028 58.5375 31.1085Z" fill="#F28F8F"/>
<path d="M63.876 25.263C64.3155 26.7825 65.3145 31.242 63.084 34.563C62.9628 34.7431 62.7927 34.885 62.5937 34.9718C62.3947 35.0587 62.175 35.087 61.9605 35.0535L61.275 34.95C61.2753 35.1003 61.3269 35.246 61.4213 35.363C61.5156 35.4801 61.6471 35.5614 61.794 35.5935L68.85 37.14V23.892L62.4 24.306L62.8125 24.486C62.929 24.5376 63.05 24.5783 63.174 24.6075C63.3389 24.644 63.491 24.7241 63.6145 24.8394C63.738 24.9547 63.8283 25.1009 63.876 25.263Z" fill="#005F31"/>
<path d="M66.5715 24.9C67.1565 26.673 68.145 31.0215 65.8305 35.592C65.7128 35.8223 65.522 36.007 65.288 36.1172C65.054 36.2274 64.79 36.2569 64.5375 36.201L64.0545 36.096C64.0443 36.1896 64.0528 36.2843 64.0793 36.3747C64.1059 36.465 64.1501 36.5492 64.2094 36.6224C64.2686 36.6956 64.3418 36.7563 64.4246 36.8012C64.5074 36.846 64.5983 36.8739 64.692 36.8835L72.5385 37.6965C72.5385 37.6965 73.6575 35.9295 73.6575 30.186C73.6575 24.4425 72.0375 23.3655 72.0375 23.3655L65.5965 23.5905C65.454 23.5952 65.319 23.655 65.2199 23.7575C65.1208 23.86 65.0654 23.9969 65.0655 24.1395L65.412 24.117C65.6647 24.1003 65.9159 24.1683 66.1258 24.31C66.3357 24.4518 66.4925 24.6593 66.5715 24.9Z" fill="#263238"/>
<path d="M69.45 35.496C69.4503 35.6818 69.3955 35.8634 69.2925 36.0181C69.1895 36.1727 69.0429 36.2933 68.8714 36.3646C68.6998 36.4359 68.511 36.4547 68.3287 36.4186C68.1465 36.3826 67.979 36.2932 67.8476 36.162C67.7161 36.0307 67.6265 35.8634 67.5902 35.6812C67.5538 35.499 67.5723 35.3101 67.6433 35.1385C67.7144 34.9668 67.8347 34.8201 67.9892 34.7168C68.1436 34.6136 68.3252 34.5585 68.511 34.5585C68.7598 34.5585 68.9984 34.6572 69.1744 34.833C69.3505 35.0087 69.4496 35.2472 69.45 35.496Z" fill="white"/>
<path d="M57.234 24.0945C57.2156 24.0966 57.1969 24.0966 57.1785 24.0945C57.1207 24.0793 57.0712 24.042 57.0406 23.9907C57.0101 23.9393 57.0008 23.878 57.015 23.82C57.0865 23.5321 57.0468 23.2279 56.904 22.968C56.8764 22.916 56.8704 22.8553 56.887 22.7988C56.9037 22.7424 56.9419 22.6947 56.9933 22.6661C57.0447 22.6374 57.1053 22.6301 57.1621 22.6456C57.2188 22.6611 57.2673 22.6982 57.297 22.749C57.4943 23.11 57.5479 23.5322 57.447 23.931C57.434 23.9776 57.4062 24.0188 57.3678 24.0483C57.3294 24.0778 57.2824 24.094 57.234 24.0945Z" fill="#F28F8F"/>
<path d="M58.218 34.599C58.1681 34.5986 58.1197 34.5816 58.0805 34.5507C58.0413 34.5197 58.0135 34.4767 58.0015 34.4282C57.9895 34.3797 57.9939 34.3287 58.0141 34.283C58.0343 34.2373 58.0691 34.1997 58.113 34.176C58.408 34.0136 58.66 33.7834 58.8483 33.5043C59.0367 33.2252 59.1558 32.9053 59.196 32.571C59.1991 32.5414 59.2079 32.5128 59.222 32.4867C59.2362 32.4605 59.2553 32.4374 59.2783 32.4187C59.3014 32.4 59.3279 32.386 59.3564 32.3775C59.3848 32.369 59.4147 32.3662 59.4443 32.3692C59.4738 32.3723 59.5025 32.3811 59.5286 32.3953C59.5547 32.4094 59.5778 32.4285 59.5965 32.4516C59.6153 32.4746 59.6293 32.5012 59.6378 32.5296C59.6463 32.5581 59.6491 32.5879 59.646 32.6175C59.5991 33.0245 59.4547 33.4143 59.2252 33.7537C58.9957 34.0932 58.6878 34.3723 58.3275 34.5675C58.2943 34.5871 58.2566 34.598 58.218 34.599Z" fill="#F28F8F"/>
<path d="M50.307 25.3815C50.253 25.3815 50.1975 25.3815 50.1435 25.3815C49.5795 25.341 49.0935 25.0575 48.8745 24.642C48.8571 24.6069 48.8541 24.5664 48.8662 24.5291C48.8783 24.4918 48.9044 24.4608 48.9391 24.4425C48.9738 24.4243 49.0142 24.4204 49.0518 24.4316C49.0893 24.4428 49.121 24.4682 49.14 24.5025C49.344 24.891 49.803 25.056 50.166 25.083C50.604 25.1145 51.0465 24.993 51.474 24.876C51.6015 24.8415 51.723 24.798 51.7575 24.726C51.7747 24.6646 51.7747 24.5998 51.7575 24.5385C51.7157 24.3424 51.6433 24.1541 51.543 23.9805C51.5321 23.9634 51.5249 23.9443 51.5216 23.9243C51.5183 23.9044 51.5191 23.884 51.5239 23.8643C51.5287 23.8447 51.5374 23.8262 51.5496 23.81C51.5617 23.7938 51.577 23.7803 51.5945 23.7701C51.612 23.76 51.6314 23.7535 51.6515 23.7511C51.6716 23.7487 51.6919 23.7503 51.7114 23.7559C51.7308 23.7616 51.7489 23.7711 51.7646 23.7839C51.7802 23.7967 51.7931 23.8125 51.8025 23.8305C51.9181 24.0275 52.0017 24.2417 52.05 24.465C52.0841 24.5859 52.0794 24.7144 52.0365 24.8325C51.9405 25.0545 51.69 25.1235 51.555 25.1595C51.1508 25.2888 50.731 25.3635 50.307 25.3815Z" fill="#F28F8F"/>
<path d="M17.8065 39.8385C17.8065 39.8385 14.19 41.3085 13.488 42.45C12.786 43.5915 11.823 47.5785 11.355 50.325C10.887 53.0715 9.051 55.266 9.051 55.266L11.886 58.014L18.66 44.595L17.8065 39.8385Z" fill="#FFA8A7"/>
<path d="M20.85 45.6C20.85 35.1 28.221 22.335 37.3125 17.0865L33.681 14.9865C24.6 20.25 17.2365 33 17.2365 43.5C17.2365 48.9705 19.239 52.7445 22.443 54.363L25.65 56.241C22.6815 54.513 20.85 50.832 20.85 45.6Z" fill="#005F31"/>
<path opacity="0.3" d="M20.85 45.6C20.85 35.1 28.221 22.335 37.3125 17.0865L33.681 14.9865C24.6 20.25 17.2365 33 17.2365 43.5C17.2365 48.9705 19.239 52.7445 22.443 54.363L25.65 56.241C22.6815 54.513 20.85 50.832 20.85 45.6Z" fill="white"/>
<path d="M20.85 45.6C20.85 50.8305 22.68 54.5115 25.641 56.2395C28.602 57.9675 32.751 57.7395 37.3125 55.1055V40.536C35.19 41.763 33.468 40.7685 33.468 38.3175C33.468 35.8665 35.19 32.883 37.3125 31.6575V17.088C28.2225 22.3365 20.85 35.1 20.85 45.6Z" fill="#005F31"/>
<path d="M37.314 21.5145V19.95C37.202 20.011 37.0895 20.074 36.9765 20.139C29.4525 24.489 23.3265 35.0865 23.3265 43.7745C23.3265 48.1245 24.8265 51.3975 27.5625 52.9755C28.7205 53.634 30.0329 53.9726 31.365 53.9565C31.5225 53.9565 31.6815 53.9565 31.842 53.943C33.5535 53.8515 35.4045 53.28 37.3095 52.2315V50.679C37.1985 50.748 37.086 50.814 36.972 50.88C36.762 51.001 36.552 51.116 36.342 51.225C33.246 52.842 30.387 53.0535 28.242 51.8115C25.9455 50.4855 24.681 47.634 24.681 43.7805C24.681 35.652 30.318 25.761 37.314 21.5145Z" fill="white"/>
<path d="M36.9765 47.2365C34.482 48.678 32.1765 48.93 30.4725 47.9475C28.7685 46.965 27.8355 44.8395 27.8355 41.9595C27.8355 35.8395 32.058 28.404 37.314 25.1595V23.5995C37.2015 23.661 37.089 23.7225 36.9765 23.7885C31.2 27.1275 26.4855 35.28 26.4855 41.9595C26.4855 45.342 27.6615 47.8845 29.7975 49.1175C30.705 49.6344 31.7337 49.9005 32.778 49.8885C34.188 49.8885 35.727 49.455 37.314 48.594V47.0325C37.2 47.1 37.0905 47.172 36.9765 47.2365Z" fill="white"/>
<path d="M36.9765 43.5945C35.3265 44.5485 33.807 44.7225 32.703 44.085C31.599 43.4475 30.99 42.045 30.99 40.1385C30.99 36.027 33.7965 31.038 37.314 28.8045V27.246C37.2015 27.3045 37.0905 27.3645 36.9765 27.4305C32.9265 29.766 29.64 35.466 29.64 40.1385C29.64 42.5475 30.4875 44.3655 32.028 45.2535C32.6848 45.6293 33.4299 45.823 34.1865 45.8145C35.163 45.8145 36.2235 45.5145 37.314 44.9475V43.3905C37.2 43.461 37.0905 43.5285 36.9765 43.5945Z" fill="white"/>
<path opacity="0.5" d="M20.85 45.6C20.85 50.8305 22.68 54.5115 25.641 56.2395C28.602 57.9675 32.751 57.7395 37.3125 55.1055V40.536C35.19 41.763 33.468 40.7685 33.468 38.3175C33.468 35.8665 35.19 32.883 37.3125 31.6575V17.088C28.2225 22.3365 20.85 35.1 20.85 45.6Z" fill="white"/>
<path d="M23.949 51.645C25.5885 51.2445 26.916 49.2 26.916 49.2C26.916 49.2 28.3545 43.3875 30.5535 43.4715C30.6597 43.4762 30.7638 43.5026 30.8595 43.549C30.9552 43.5954 31.0404 43.6609 31.1099 43.7413C31.1794 43.8218 31.2317 43.9156 31.2637 44.017C31.2957 44.1183 31.3067 44.2252 31.296 44.331C31.2015 45.2835 30.195 49.083 29.6595 50.91C29.0085 53.1345 25.11 56.538 25.11 56.538C25.11 56.538 22.311 52.05 23.949 51.645Z" fill="#FFA8A7"/>
<path d="M23.0175 48.93C24.6405 48.4635 25.884 46.3665 25.884 46.3665C25.884 46.3665 27.084 40.5015 29.286 40.497C29.3922 40.4974 29.4971 40.5195 29.5944 40.5618C29.6918 40.6042 29.7795 40.6659 29.8522 40.7432C29.9249 40.8206 29.9811 40.9119 30.0173 41.0117C30.0536 41.1114 30.0691 41.2175 30.063 41.3235C30.0075 42.2805 29.163 46.116 28.6935 47.964C28.1325 50.214 24.3765 53.772 24.3765 53.772C24.3765 53.772 21.396 49.398 23.0175 48.93Z" fill="#FFA8A7"/>
<path d="M26.2995 52.59C26.2523 52.59 26.2061 52.5762 26.1665 52.5505C26.1269 52.5247 26.0956 52.4881 26.0764 52.4449C26.0572 52.4018 26.0509 52.354 26.0583 52.3073C26.0657 52.2607 26.0864 52.2171 26.118 52.182C27.1215 51.063 28.128 49.2255 28.4565 47.9055C28.6755 47.0295 29.031 45.5055 29.3325 44.061C29.3387 44.0292 29.3511 43.9989 29.3691 43.9719C29.3871 43.9449 29.4103 43.9218 29.4373 43.9039C29.4643 43.8859 29.4946 43.8735 29.5265 43.8674C29.5583 43.8613 29.5911 43.8616 29.6228 43.8683C29.6545 43.8749 29.6846 43.8878 29.7113 43.9062C29.738 43.9247 29.7608 43.9482 29.7783 43.9755C29.7958 44.0028 29.8077 44.0333 29.8133 44.0652C29.819 44.0972 29.8182 44.1299 29.811 44.1615C29.5485 45.414 29.1945 46.9665 28.932 48.024C28.5795 49.434 27.549 51.324 26.481 52.509C26.4583 52.5347 26.4303 52.5552 26.399 52.5692C26.3677 52.5832 26.3338 52.5903 26.2995 52.59Z" fill="#F28F8F"/>
<path d="M21.7605 46.602C23.382 46.134 24.6255 44.037 24.6255 44.037C24.6255 44.037 25.8255 38.172 28.0275 38.1675C28.1338 38.1685 28.2388 38.1912 28.336 38.2341C28.4333 38.2771 28.5207 38.3394 28.593 38.4174C28.6653 38.4953 28.721 38.5872 28.7566 38.6873C28.7922 38.7875 28.8069 38.8939 28.8 39C28.7445 39.9555 27.8925 43.7925 27.432 45.6405C26.871 47.8905 23.1135 51.4485 23.1135 51.4485C23.1135 51.4485 20.139 47.0685 21.7605 46.602Z" fill="#FFA8A7"/>
<path d="M16.6005 45.3945C16.6005 45.3945 17.784 46.803 19.4055 46.3365C21.027 45.87 22.2705 43.7715 22.2705 43.7715C22.2705 43.7715 23.4705 37.9065 25.6725 37.902C25.7788 37.9025 25.8839 37.9246 25.9813 37.967C26.0788 38.0094 26.1665 38.0713 26.2393 38.1488C26.312 38.2263 26.3681 38.3178 26.4043 38.4177C26.4404 38.5177 26.4558 38.6239 26.4495 38.73C26.394 39.6855 25.542 43.5225 25.0815 45.3705C24.5205 47.6205 20.763 51.1785 20.763 51.1785L15.564 48.039L16.6005 45.3945Z" fill="#FFA8A7"/>
<path d="M25.11 56.538C25.11 56.538 21.8955 60.0165 15.36 62.3505L11.8875 58.0005L15.564 47.55L21.4665 48.3C21.4665 48.3 26.85 51.18 25.11 56.538Z" fill="#FFA8A7"/>
<path d="M22.3875 49.7325C22.3272 49.7331 22.2689 49.7112 22.224 49.671C22.1757 49.6278 22.1465 49.5672 22.1429 49.5025C22.1392 49.4378 22.1614 49.3743 22.2045 49.326C23.6925 47.658 24.6045 46.2705 24.8445 45.3105C25.3515 43.275 26.154 39.6105 26.2065 38.7105C26.2134 38.6482 26.244 38.591 26.2918 38.5506C26.3397 38.5102 26.4012 38.4897 26.4638 38.4934C26.5263 38.4971 26.585 38.5246 26.6279 38.5703C26.6707 38.616 26.6944 38.6764 26.694 38.739C26.6355 39.7425 25.767 43.6245 25.3185 45.4245C24.9915 46.734 23.643 48.4425 22.569 49.647C22.5466 49.6733 22.5188 49.6946 22.4875 49.7093C22.4562 49.7241 22.4221 49.732 22.3875 49.7325Z" fill="#F28F8F"/>
<path d="M24.45 51C24.3873 51.0003 24.327 50.9761 24.282 50.9325C24.2585 50.9106 24.2396 50.8843 24.2264 50.8551C24.2132 50.8258 24.2058 50.7943 24.2049 50.7622C24.2039 50.7301 24.2093 50.6982 24.2207 50.6682C24.2321 50.6382 24.2494 50.6108 24.2715 50.5875C25.3485 49.443 26.8215 47.0595 27.1965 45.5805C27.5055 44.34 27.9975 42.174 28.3005 40.605C28.3065 40.5734 28.3187 40.5433 28.3363 40.5164C28.354 40.4895 28.3768 40.4663 28.4034 40.4482C28.43 40.4301 28.4599 40.4174 28.4914 40.4108C28.5229 40.4043 28.5554 40.404 28.587 40.41C28.6186 40.416 28.6487 40.4282 28.6757 40.4458C28.7026 40.4635 28.7257 40.4863 28.7438 40.5129C28.7619 40.5395 28.7746 40.5694 28.7812 40.6009C28.7877 40.6324 28.788 40.6649 28.782 40.6965C28.482 42.2745 27.981 44.4465 27.6705 45.699C27.273 47.2935 25.7475 49.7325 24.627 50.922C24.6044 50.9464 24.577 50.9658 24.5465 50.9793C24.5161 50.9927 24.4833 50.9997 24.45 51Z" fill="#F28F8F"/>
<path d="M6.864 57.039L9.219 54.789C9.219 54.789 15.63 56.694 15.969 62.6835L13.887 64.17L6.864 57.039Z" fill="#005F31"/>
<path opacity="0.3" d="M6.864 57.039L9.219 54.789C9.219 54.789 15.63 56.694 15.969 62.6835L13.887 64.17L6.864 57.039Z" fill="white"/>
<path d="M6.8805 56.0235C8.241 56.3775 13.9155 58.263 14.574 65.1195C14.583 65.2155 14.571 65.3123 14.5388 65.4032C14.5067 65.4941 14.4553 65.577 14.388 65.646L10.038 70.167C10.038 70.167 0.0120019 67.0815 1.5195 59.5845L6.3555 56.121C6.43034 56.067 6.51626 56.0302 6.60705 56.0133C6.69783 55.9964 6.79123 55.9999 6.8805 56.0235Z" fill="#263238"/>
<path d="M13.134 64.7145C13.134 64.8842 13.0837 65.0501 12.9894 65.1912C12.8951 65.3323 12.7611 65.4423 12.6043 65.5072C12.4476 65.5721 12.275 65.5891 12.1086 65.556C11.9422 65.5229 11.7893 65.4412 11.6693 65.3212C11.5493 65.2012 11.4676 65.0483 11.4345 64.8819C11.4014 64.7155 11.4184 64.5429 11.4833 64.3862C11.5483 64.2294 11.6582 64.0954 11.7993 64.0011C11.9404 63.9068 12.1063 63.8565 12.276 63.8565C12.3887 63.8565 12.5002 63.8787 12.6043 63.9218C12.7084 63.9649 12.803 64.0281 12.8827 64.1078C12.9624 64.1875 13.0256 64.2821 13.0687 64.3862C13.1118 64.4903 13.134 64.6018 13.134 64.7145Z" fill="white"/>
<path d="M18.3 46.5885C18.2762 46.5886 18.2525 46.5855 18.2295 46.5795C17.6775 46.4087 17.1802 46.0956 16.7876 45.6717C16.395 45.2478 16.121 44.728 15.993 44.1645C15.9791 44.1011 15.9909 44.0347 16.026 43.98C16.061 43.9252 16.1163 43.8867 16.1798 43.8728C16.2432 43.8588 16.3096 43.8707 16.3643 43.9057C16.419 43.9407 16.4576 43.9961 16.4715 44.0595C16.5833 44.5365 16.817 44.9763 17.1499 45.3358C17.4829 45.6953 17.9034 45.962 18.3705 46.11C18.4266 46.127 18.4747 46.1636 18.5061 46.2131C18.5375 46.2626 18.5501 46.3217 18.5415 46.3797C18.533 46.4376 18.5039 46.4906 18.4596 46.5289C18.4152 46.5673 18.3586 46.5884 18.3 46.5885Z" fill="#F28F8F"/>
<path d="M23.331 17.5455C23.8363 17.5455 24.246 17.1359 24.246 16.6305C24.246 16.1252 23.8363 15.7155 23.331 15.7155C22.8257 15.7155 22.416 16.1252 22.416 16.6305C22.416 17.1359 22.8257 17.5455 23.331 17.5455Z" fill="#FAFAFA"/>
<path d="M50.361 57.453C50.8663 57.453 51.276 57.0434 51.276 56.538C51.276 56.0327 50.8663 55.623 50.361 55.623C49.8557 55.623 49.446 56.0327 49.446 56.538C49.446 57.0434 49.8557 57.453 50.361 57.453Z" fill="#FAFAFA"/>
<path d="M12.072 36.9586C12.0711 37.0878 12.032 37.2138 11.9595 37.3208C11.887 37.4278 11.7845 37.5109 11.6648 37.5597C11.5452 37.6085 11.4137 37.6207 11.2871 37.5948C11.1605 37.569 11.0444 37.5062 10.9535 37.4144C10.8625 37.3226 10.8008 37.2059 10.7761 37.0791C10.7514 36.9522 10.7648 36.8209 10.8147 36.7017C10.8645 36.5825 10.9486 36.4807 11.0562 36.4092C11.1639 36.3378 11.2903 36.2998 11.4195 36.3001C11.5056 36.3002 11.5909 36.3175 11.6704 36.3507C11.7498 36.3839 11.8219 36.4325 11.8826 36.4937C11.9432 36.5549 11.9911 36.6275 12.0237 36.7072C12.0562 36.787 12.0726 36.8724 12.072 36.9586Z" fill="#FAFAFA"/>
<path d="M54.561 13.7326C54.9214 13.7326 55.2135 13.4404 55.2135 13.0801C55.2135 12.7197 54.9214 12.4276 54.561 12.4276C54.2006 12.4276 53.9085 12.7197 53.9085 13.0801C53.9085 13.4404 54.2006 13.7326 54.561 13.7326Z" fill="#FAFAFA"/>
<path d="M19.242 25.0965C19.2405 25.1852 19.2129 25.2715 19.1625 25.3445C19.1122 25.4175 19.0414 25.474 18.9591 25.5069C18.8767 25.5398 18.7865 25.5477 18.6997 25.5295C18.6129 25.5113 18.5334 25.4678 18.4712 25.4046C18.4091 25.3414 18.3669 25.2612 18.3502 25.1741C18.3334 25.087 18.3428 24.9969 18.377 24.9151C18.4113 24.8334 18.469 24.7635 18.5428 24.7144C18.6166 24.6653 18.7033 24.6391 18.792 24.639C18.9119 24.6414 19.0261 24.6906 19.1102 24.7761C19.1943 24.8616 19.2416 24.9766 19.242 25.0965Z" fill="#FAFAFA"/>
<path d="M47.664 54.9525C47.6625 55.0408 47.6351 55.1268 47.585 55.1996C47.535 55.2725 47.4647 55.329 47.3828 55.3621C47.3009 55.3952 47.211 55.4035 47.1244 55.3859C47.0378 55.3683 46.9583 55.3256 46.8959 55.2631C46.8334 55.2007 46.7907 55.1212 46.7731 55.0346C46.7555 54.948 46.7638 54.8581 46.7969 54.7762C46.83 54.6943 46.8865 54.624 46.9594 54.574C47.0322 54.5239 47.1182 54.4965 47.2065 54.495C47.2669 54.494 47.3268 54.5051 47.3828 54.5278C47.4387 54.5504 47.4896 54.5841 47.5323 54.6267C47.5749 54.6694 47.6086 54.7203 47.6312 54.7762C47.6539 54.8322 47.665 54.8921 47.664 54.9525Z" fill="#FAFAFA"/>
<path d="M26.259 17.088C26.2605 17.1788 26.2349 17.268 26.1856 17.3442C26.1362 17.4204 26.0653 17.4802 25.9818 17.516C25.8984 17.5518 25.8062 17.5619 25.7169 17.5451C25.6277 17.5283 25.5455 17.4853 25.4807 17.4217C25.416 17.358 25.3717 17.2765 25.3534 17.1876C25.3351 17.0986 25.3438 17.0062 25.3782 16.9222C25.4126 16.8382 25.4712 16.7663 25.5466 16.7157C25.622 16.665 25.7107 16.638 25.8015 16.638C25.8612 16.637 25.9205 16.6479 25.976 16.6701C26.0315 16.6922 26.082 16.7252 26.1246 16.7671C26.1671 16.809 26.201 16.859 26.224 16.914C26.2471 16.9691 26.259 17.0283 26.259 17.088Z" fill="#FAFAFA"/>
<path d="M54.3105 52.35C54.3105 52.4405 54.2837 52.529 54.2334 52.6042C54.1831 52.6794 54.1117 52.7381 54.0281 52.7727C53.9445 52.8073 53.8525 52.8164 53.7637 52.7987C53.675 52.7811 53.5935 52.7375 53.5295 52.6735C53.4655 52.6095 53.4219 52.528 53.4043 52.4393C53.3866 52.3505 53.3957 52.2585 53.4303 52.1749C53.465 52.0913 53.5236 52.0199 53.5988 51.9696C53.6741 51.9193 53.7625 51.8925 53.853 51.8925C53.9742 51.8929 54.0904 51.9412 54.1761 52.0269C54.2618 52.1127 54.3101 52.2288 54.3105 52.35Z" fill="#FAFAFA"/>
<path d="M16.0215 36.9585C16.023 37.0497 15.9972 37.1391 15.9475 37.2155C15.8978 37.2919 15.8265 37.3517 15.7426 37.3872C15.6587 37.4228 15.5661 37.4325 15.4766 37.4151C15.3872 37.3976 15.305 37.3539 15.2406 37.2895C15.1761 37.2251 15.1324 37.1429 15.115 37.0534C15.0976 36.964 15.1073 36.8714 15.1428 36.7875C15.1784 36.7036 15.2382 36.6322 15.3145 36.5825C15.3909 36.5328 15.4804 36.5071 15.5715 36.5085C15.6908 36.5085 15.8053 36.556 15.8897 36.6403C15.9741 36.7247 16.0215 36.8392 16.0215 36.9585Z" fill="#FAFAFA"/>
<path d="M58.11 17.7001C58.1085 17.7887 58.0809 17.875 58.0305 17.948C57.9802 18.021 57.9094 18.0775 57.8271 18.1104C57.7447 18.1433 57.6545 18.1512 57.5677 18.133C57.4809 18.1148 57.4014 18.0713 57.3392 18.0081C57.2771 17.9449 57.2349 17.8647 57.2182 17.7776C57.2014 17.6905 57.2107 17.6004 57.245 17.5187C57.2793 17.4369 57.337 17.367 57.4108 17.3179C57.4846 17.2688 57.5713 17.2426 57.66 17.2426C57.7799 17.2449 57.8941 17.2941 57.9782 17.3796C58.0623 17.4651 58.1096 17.5801 58.11 17.7001Z" fill="#FAFAFA"/>
<path d="M13.983 31.1595L15.1095 31.776L13.983 32.391L13.3665 33.519L12.75 32.391L11.6235 31.776L12.75 31.1595L13.3665 30.033L13.983 31.1595Z" fill="#005F31"/>
<path d="M44.109 58.4805L45.2355 59.097L44.109 59.7135L43.4925 60.84L42.876 59.7135L41.7495 59.097L42.876 58.4805L43.4925 57.354L44.109 58.4805Z" fill="#005F31"/>
<path d="M47.823 6.65403L48.9495 7.27053L47.823 7.88703L47.2065 9.01353L46.59 7.88703L45.4635 7.27053L46.59 6.65403L47.2065 5.52753L47.823 6.65403Z" fill="#005F31"/>
<path d="M50.772 9.57605L51.3345 9.88355L50.772 10.1925L50.463 10.755L50.1555 10.1925L49.5915 9.88355L50.1555 9.57605L50.463 9.01355L50.772 9.57605Z" fill="#005F31"/>
<path d="M36.1035 9.16355L36.864 9.57905L36.1035 9.99455L35.6865 10.755L35.271 9.99455L34.5105 9.57905L35.271 9.16355L35.6865 8.40155L36.1035 9.16355Z" fill="#005F31"/>
<path d="M35.9955 58.7895L36.558 59.097L35.9955 59.406L35.6865 59.9685L35.379 59.406L34.815 59.097L35.379 58.7895L35.6865 58.2255L35.9955 58.7895Z" fill="#005F31"/>
<path d="M59.727 38.079L60.291 38.3865L59.727 38.694L59.4195 39.258L59.1105 38.694L58.548 38.3865L59.1105 38.079L59.4195 37.515L59.727 38.079Z" fill="#005F31"/>
<path d="M62.631 43.461L53.7825 38.3865L47.679 39.696L49.6335 45.624L58.482 50.6985L56.5275 44.769L62.631 43.461Z" fill="#005F31"/>
<path opacity="0.3" d="M62.631 43.461L53.7825 38.3865L47.679 39.696L49.6335 45.624L58.482 50.6985L56.5275 44.769L62.631 43.461Z" fill="black"/>
<path d="M51.012 45.6735C50.9804 45.6735 50.9496 45.6635 50.924 45.6449C50.8984 45.6263 50.8793 45.6001 50.8695 45.57L49.3185 40.8675L51.372 40.4265C51.3913 40.4223 51.4113 40.422 51.4307 40.4255C51.4501 40.4291 51.4687 40.4364 51.4852 40.4472C51.5018 40.4579 51.5161 40.4718 51.5273 40.4881C51.5385 40.5043 51.5464 40.5227 51.5505 40.542C51.5585 40.5808 51.5509 40.6211 51.5292 40.6543C51.5076 40.6875 51.4737 40.7107 51.435 40.719L49.7085 41.0895L51.15 45.477C51.1623 45.5148 51.1591 45.5559 51.1411 45.5914C51.1231 45.6268 51.0918 45.6536 51.054 45.666C51.0404 45.6702 51.0262 45.6727 51.012 45.6735Z" fill="#005F31"/>
<path d="M52.6245 40.461C52.5847 40.4652 52.5449 40.4534 52.5138 40.4282C52.4827 40.403 52.4629 40.3665 52.4588 40.3267C52.4546 40.287 52.4664 40.2472 52.4915 40.2161C52.5167 40.185 52.5532 40.1652 52.593 40.161L54.5295 39.75C54.5492 39.7454 54.5696 39.7447 54.5896 39.7479C54.6096 39.7512 54.6287 39.7583 54.6459 39.769C54.6631 39.7797 54.678 39.7936 54.6898 39.81C54.7017 39.8265 54.7101 39.8451 54.7148 39.8648C54.7194 39.8844 54.7201 39.9049 54.7168 39.9248C54.7136 39.9448 54.7064 39.9639 54.6957 39.9811C54.6851 39.9983 54.6711 40.0133 54.6547 40.0251C54.6383 40.0369 54.6197 40.0454 54.6 40.05L52.65 40.458L52.6245 40.461Z" fill="#005F31"/>
<path d="M51.2235 41.634C51.1837 41.6382 51.1439 41.6264 51.1128 41.6012C51.0817 41.576 51.0619 41.5395 51.0578 41.4997C51.0536 41.4599 51.0654 41.4201 51.0905 41.389C51.1157 41.358 51.1522 41.3382 51.192 41.334L54.711 40.584C54.7485 40.5787 54.7867 40.5878 54.8177 40.6095C54.8488 40.6312 54.8705 40.6639 54.8785 40.7009C54.8865 40.738 54.8801 40.7767 54.8607 40.8092C54.8414 40.8418 54.8104 40.8658 54.774 40.8765L51.255 41.6265C51.2449 41.6305 51.2343 41.633 51.2235 41.634Z" fill="#005F31"/>
<path d="M52.1535 46.308C52.1219 46.308 52.091 46.298 52.0655 46.2794C52.0399 46.2608 52.0208 46.2346 52.011 46.2045L51.4365 44.4585C51.4301 44.4398 51.4275 44.42 51.4289 44.4003C51.4302 44.3806 51.4354 44.3613 51.4442 44.3436C51.4529 44.3259 51.4651 44.3101 51.48 44.2971C51.4949 44.2842 51.5123 44.2743 51.531 44.268C51.5498 44.2617 51.5697 44.2592 51.5895 44.2606C51.6093 44.262 51.6286 44.2673 51.6463 44.2762C51.664 44.2852 51.6798 44.2975 51.6927 44.3126C51.7056 44.3277 51.7154 44.3451 51.7215 44.364L52.296 46.1115C52.3084 46.1491 52.3054 46.1901 52.2877 46.2255C52.27 46.2609 52.239 46.2878 52.2015 46.3005C52.1859 46.3052 52.1698 46.3077 52.1535 46.308Z" fill="#005F31"/>
<path d="M56.9505 42.963C56.9156 42.9638 56.8816 42.9524 56.8542 42.9308C56.8268 42.9091 56.8078 42.8786 56.8005 42.8445C56.7925 42.806 56.7999 42.7658 56.8212 42.7327C56.8426 42.6995 56.8761 42.6761 56.9145 42.6675L58.428 42.342C58.4678 42.3337 58.5093 42.3415 58.5433 42.3637C58.5773 42.3859 58.6011 42.4207 58.6095 42.4605C58.6179 42.5003 58.6101 42.5418 58.5878 42.5758C58.5656 42.6098 58.5308 42.6337 58.491 42.642L56.9775 42.966C56.9684 42.9661 56.9593 42.9651 56.9505 42.963Z" fill="#005F31"/>
<path d="M54.2325 47.6145C54.2009 47.6145 54.1701 47.6045 54.1445 47.5859C54.1189 47.5673 54.0998 47.5411 54.09 47.511L52.812 43.6305C52.8056 43.6118 52.8031 43.592 52.8044 43.5723C52.8057 43.5526 52.8109 43.5333 52.8197 43.5156C52.8284 43.4979 52.8406 43.4821 52.8555 43.4691C52.8704 43.4562 52.8878 43.4463 52.9065 43.44C52.9253 43.4337 52.9452 43.4312 52.965 43.4326C52.9848 43.434 53.0041 43.4393 53.0218 43.4482C53.0395 43.4572 53.0553 43.4695 53.0682 43.4846C53.0811 43.4997 53.0909 43.5171 53.097 43.536L54.375 47.4165C54.3813 47.4353 54.3838 47.4552 54.3824 47.475C54.381 47.4948 54.3757 47.5141 54.3668 47.5318C54.3578 47.5495 54.3455 47.5653 54.3304 47.5782C54.3154 47.5911 54.2979 47.6009 54.279 47.607C54.2639 47.6117 54.2483 47.6142 54.2325 47.6145Z" fill="#005F31"/>
<path d="M56.3145 44.142C56.2747 44.1462 56.2349 44.1344 56.2038 44.1092C56.1727 44.084 56.1529 44.0475 56.1488 44.0078C56.1446 43.968 56.1564 43.9282 56.1815 43.8971C56.2067 43.866 56.2432 43.8462 56.283 43.842L60.09 43.026C60.1098 43.0202 60.1306 43.0186 60.151 43.0211C60.1715 43.0237 60.1912 43.0305 60.2089 43.0411C60.2266 43.0516 60.2419 43.0657 60.254 43.0824C60.266 43.0992 60.2744 43.1182 60.2788 43.1384C60.2831 43.1585 60.2833 43.1794 60.2792 43.1996C60.2751 43.2198 60.2669 43.2389 60.2551 43.2558C60.2433 43.2727 60.2282 43.287 60.2106 43.2978C60.193 43.3086 60.1734 43.3156 60.153 43.3185L56.346 44.1345L56.3145 44.142Z" fill="#005F31"/>
<path d="M55.4145 48.237C55.3829 48.237 55.3521 48.227 55.3265 48.2084C55.3009 48.1898 55.2818 48.1636 55.272 48.1335L54.636 46.2C54.6253 46.1627 54.6296 46.1227 54.6478 46.0884C54.666 46.0542 54.6968 46.0283 54.7337 46.0162C54.7706 46.0042 54.8107 46.0069 54.8457 46.0239C54.8806 46.0408 54.9076 46.0706 54.921 46.107L55.557 48.036C55.5693 48.0738 55.5661 48.1149 55.5481 48.1504C55.5301 48.1858 55.4988 48.2127 55.461 48.225C55.4462 48.2312 55.4305 48.2353 55.4145 48.237Z" fill="#005F31"/>
<path d="M51.4035 42.522C51.3113 42.5222 51.2207 42.4979 51.141 42.4515L39.291 35.613C39.1739 35.5417 39.0893 35.4274 39.0554 35.2945C39.0214 35.1616 39.0408 35.0208 39.1094 34.902C39.178 34.7833 39.2903 34.6961 39.4224 34.6591C39.5544 34.6221 39.6957 34.6382 39.816 34.704L51.666 41.5425C51.766 41.6003 51.8442 41.6895 51.8883 41.7962C51.9325 41.903 51.9402 42.0213 51.9103 42.1329C51.8804 42.2445 51.8145 42.3431 51.7229 42.4134C51.6313 42.4838 51.519 42.5219 51.4035 42.522Z" fill="#263238"/>
</svg>
